<svg viewBox="0 0 100 68" version="1.1" xmlns="http://www.w3.org/2000/svg" xmlns:xlink="http://www.w3.org/1999/xlink"><title>Shape</title><g fill="none" fill-rule="evenodd"><path d="M94.167,0.666 L86.667,0.666 L86.667,0.728 C86.395,0.689 86.116,0.666 85.834,0.666 L22.5,0.666 C19.283,0.666 16.666,3.283 16.666,6.5 L16.666,29 L5.833,29 C2.616,29 0,31.617 0,34.833 L0,67.334 L8.333,67.334 L11.666,67.334 L28.333,67.334 L28.333,59 L71.667,59 L71.667,67.334 L81.666,67.334 L83.334,67.334 L100,67.334 L100,6.5 C100,3.283 97.384,0.666 94.167,0.666 L94.167,0.666 Z M20,6.5 C20,5.121 21.121,4 22.5,4 L85.834,4 C87.212,4 88.334,5.121 88.334,6.5 L88.334,29 L77.5,29 C74.283,29 71.667,31.617 71.667,34.833 L71.667,41.5 L28.333,41.5 L28.333,29 L20,29 L20,6.5 L20,6.5 Z M71.667,49 L10,49 L10,47.334 C10,47.24 10.006,47.148 10.016,47.059 C10.02,47.028 10.026,46.998 10.03,46.967 C10.039,46.908 10.049,46.85 10.061,46.792 C10.069,46.756 10.079,46.721 10.088,46.686 C10.102,46.634 10.116,46.583 10.134,46.534 C10.146,46.499 10.158,46.465 10.172,46.43 C10.193,46.378 10.214,46.327 10.237,46.28 C10.251,46.25 10.264,46.218 10.28,46.19 C10.312,46.128 10.347,46.067 10.385,46.006 C10.394,45.992 10.402,45.979 10.409,45.965 C10.566,45.729 10.764,45.518 11.001,45.339 L11.105,45.261 C11.503,44.992 11.984,44.835 12.5,44.835 L71.667,44.835 L71.667,49 L71.667,49 Z M25,41.5 L12.5,41.5 C12.217,41.5 11.938,41.521 11.666,41.561 L11.666,34.833 C11.666,33.938 11.464,33.092 11.103,32.333 L25,32.333 L25,41.5 L25,41.5 Z M8.333,64 L3.333,64 L3.333,34.833 C3.333,33.455 4.454,32.333 5.833,32.333 C7.212,32.333 8.333,33.455 8.333,34.833 L8.333,43.256 C8.305,43.284 8.277,43.315 8.249,43.346 C8.224,43.372 8.197,43.401 8.172,43.427 C7.341,44.341 6.826,45.487 6.698,46.723 C6.698,46.729 6.697,46.735 6.696,46.741 C6.688,46.825 6.681,46.909 6.676,46.993 C6.676,47.009 6.674,47.022 6.673,47.039 C6.668,47.136 6.666,47.233 6.666,47.331 C6.666,47.332 6.665,47.334 6.665,47.335 L6.665,47.336 L6.665,49 L6.665,52.334 L6.665,59 L8.332,59 L8.333,64 L8.333,64 Z M25,64 L11.666,64 L11.666,59 L25,59 L25,64 L25,64 Z M28.333,55.667 L11.666,55.667 L10,55.667 L10,52.334 L71.667,52.334 L71.667,55.667 L28.333,55.667 L28.333,55.667 Z M75,64 L75,59 L75,52.334 L75,49 L75,41.5 L75,34.833 C75,33.455 76.121,32.333 77.5,32.333 C78.879,32.333 80,33.455 80,34.833 L80,64 L75,64 L75,64 Z" fill="#FFFFFF"></path></g></svg>