<svg viewBox="0 0 60 84" version="1.1" xmlns="http://www.w3.org/2000/svg" xmlns:xlink="http://www.w3.org/1999/xlink"><g fill="none" fill-rule="evenodd"><g fill="#FFFFFF"><circle cx="9.268" cy="16" r="1.631"></circle><circle cx="38.769" cy="16" r="1.631"></circle><circle cx="44.75" cy="16" r="1.631"></circle><circle cx="50.732" cy="16" r="1.631"></circle><path d="M58.37,8.448 L1.63,8.448 C0.802,8.448 0.13,9.119 0.13,9.948 L0.13,22.052 L0.13,76.85 C0.13,77.679 0.802,78.35 1.63,78.35 L5.287,78.35 L5.287,82 C5.287,82.829 5.959,83.5 6.787,83.5 C7.615,83.5 8.287,82.829 8.287,82 L8.287,78.349 L51.713,78.349 L51.713,82 C51.713,82.829 52.385,83.5 53.213,83.5 C54.041,83.5 54.713,82.829 54.713,82 L54.713,78.349 L58.37,78.349 C59.198,78.349 59.87,77.678 59.87,76.849 L59.87,22.051 L59.87,9.948 C59.87,9.119 59.198,8.448 58.37,8.448 L58.37,8.448 Z M3.13,11.448 L56.87,11.448 L56.87,20.552 L3.13,20.552 L3.13,11.448 L3.13,11.448 Z M56.87,75.349 L3.13,75.349 L3.13,23.551 L56.87,23.551 L56.87,75.349 L56.87,75.349 Z"></path><path d="M1.63,3.5 L58.37,3.5 C59.198,3.5 59.87,2.829 59.87,2 C59.87,1.171 59.198,0.5 58.37,0.5 L1.63,0.5 C0.802,0.5 0.13,1.171 0.13,2 C0.13,2.829 0.802,3.5 1.63,3.5 L1.63,3.5 Z"></path><path d="M30,67.343 C39.866,67.343 47.893,59.316 47.893,49.45 C47.893,39.584 39.866,31.557 30,31.557 C20.134,31.557 12.107,39.584 12.107,49.45 C12.107,59.316 20.134,67.343 30,67.343 L30,67.343 Z M30,64.343 C21.807,64.343 15.14,57.691 15.11,49.504 C15.801,49.724 16.306,50.125 16.919,50.618 C18.004,51.493 19.355,52.581 21.906,52.581 C24.459,52.581 25.809,51.492 26.894,50.617 C27.83,49.863 28.505,49.318 29.998,49.318 C31.492,49.318 32.168,49.863 33.103,50.617 C34.188,51.492 35.539,52.58 38.091,52.58 C40.643,52.58 41.994,51.491 43.079,50.617 C43.691,50.123 44.196,49.723 44.888,49.503 C44.86,57.691 38.193,64.343 30,64.343 L30,64.343 Z M30,34.557 C37.196,34.557 43.215,39.688 44.594,46.484 C43.026,46.818 42.031,47.611 41.198,48.282 C40.262,49.036 39.587,49.581 38.093,49.581 C36.599,49.581 35.923,49.036 34.988,48.282 C33.903,47.407 32.552,46.319 30,46.319 C27.448,46.319 26.098,47.408 25.013,48.282 C24.077,49.036 23.402,49.581 21.908,49.581 C20.415,49.581 19.739,49.036 18.804,48.282 C17.971,47.611 16.977,46.818 15.408,46.483 C16.785,39.688 22.804,34.557 30,34.557 L30,34.557 Z"></path></g></g></svg>