<svg viewBox="0 0 62 64" version="1.1" xmlns="http://www.w3.org/2000/svg" xmlns:xlink="http://www.w3.org/1999/xlink"><g fill="none" fill-rule="evenodd"><g fill="#FFFFFF"><path d="M48.311,59.105 L41.449,59.105 C38.676,59.105 36.42,56.848 36.42,54.075 L36.42,33.115 C36.42,30.341 38.676,28.085 41.449,28.085 L53.67,28.085 C56.444,28.085 58.701,30.341 58.701,33.115 L58.701,51.116 L56.701,51.116 L56.701,33.115 C56.701,31.444 55.342,30.085 53.67,30.085 L41.448,30.085 C39.778,30.085 38.419,31.444 38.419,33.115 L38.419,54.075 C38.419,55.746 39.778,57.105 41.448,57.105 L48.31,57.105 L48.31,59.105 L48.311,59.105 Z"></path><path d="M9.881,44.046 L8.095,43.146 L28.086,3.488 C28.155,3.349 29.885,0.03 35.885,0.03 L42.55,0.03 C43.004,-0.018 45.086,-0.153 46.697,1.24 C47.932,2.307 48.558,3.949 48.558,6.12 L48.558,29.086 L46.558,29.086 L46.558,6.12 C46.558,4.556 46.164,3.423 45.389,2.753 C44.31,1.822 42.767,2.016 42.754,2.019 L42.609,2.03 L35.884,2.03 C31.201,2.03 29.918,4.302 29.865,4.399 L9.881,44.046 L9.881,44.046 Z"></path><rect transform="translate(9.809564, 44.282175) rotate(22.407872) translate(-9.809564, -44.282175) " x="0.274498433" y="43.2816683" width="19.0701305" height="2.0010137"></rect><rect transform="translate(4.810799, 48.736545) rotate(29.346206) translate(-4.810799, -48.736545) " x="3.1417494" y="47.7360152" width="3.3380983" height="2.00105893"></rect><rect x="9.807" y="51.46" width="3.726" height="2"></rect><rect x="5.264" y="55.367" width="2" height="2.738"></rect><rect transform="translate(17.353951, 56.053463) rotate(61.705065) translate(-17.353951, -56.053463) " x="16.3534729" y="54.6094948" width="2.00095623" height="2.88793682"></rect><path d="M54.283,64.001 C50.023,64.001 46.558,60.535 46.558,56.275 C46.558,52.015 50.023,48.55 54.283,48.55 C58.543,48.55 62.008,52.015 62.008,56.275 C62.008,60.535 58.543,64.001 54.283,64.001 L54.283,64.001 Z M54.283,50.551 C51.127,50.551 48.558,53.119 48.558,56.276 C48.558,59.433 51.126,62.002 54.283,62.002 C57.44,62.002 60.008,59.434 60.008,56.276 C60.008,53.119 57.439,50.551 54.283,50.551 L54.283,50.551 Z"></path></g></g></svg>