<svg xmlns="http://www.w3.org/2000/svg" xmlns:xlink="http://www.w3.org/1999/xlink" xmlns:sketch="http://www.bohemiancoding.com/sketch/ns" viewBox="0 0 30 30" version="1.1" x="0px" y="0px"><title>food_025-hot_platter-serve-dinner-restaurant-dish-tray</title><desc>Created with Sketch.</desc><g stroke="none" stroke-width="1" fill="none" fill-rule="evenodd" sketch:type="MSPage"><g sketch:type="MSArtboardGroup" transform="translate(-225.000000, -135.000000)" fill="#000000"><g sketch:type="MSLayerGroup" transform="translate(226.000000, 135.000000)"><path d="M25,25 C25,18.9248678 20.0751322,14 14,14 C7.92486775,14 3,18.9248678 3,25 L3,27.5 C3,27.7761424 3.22385763,28 3.5,28 L24.5,28 C24.7761424,28 25,27.7761424 25,27.5 L25,25 Z" sketch:type="MSShapeGroup"></path><path d="M0.302786429,26.7236068 C0.697181106,27.5123961 1.4285869,28 2.5,28 L25.5,28 C26.5714131,28 27.3028189,27.5123961 27.6972136,26.7236068 C27.9256649,26.2667042 28,25.8206936 28,25.5 C28,25.2238576 27.7761424,25 27.5,25 C27.2238576,25 27,25.2238576 27,25.5 C27,25.6793064 26.9493351,25.9832958 26.8027864,26.2763932 C26.5721811,26.7376039 26.1785869,27 25.5,27 L2.5,27 C1.82141315,27 1.42781896,26.7376039 1.19721361,26.2763932 C1.05066492,25.9832958 1.00000001,25.6793064 1,25.5 C0.999999992,25.2238576 0.77614236,25 0.499999985,25 C0.22385761,25 -8.11621581e-09,25.2238576 0,25.5 C9.42564005e-09,25.8206936 0.0743351108,26.2667042 0.302786429,26.7236068 Z" sketch:type="MSShapeGroup"></path><path d="M6.30278643,28.7236068 C6.69718111,29.5123961 7.4285869,30 8.5,30 L19.5,30 C20.5714131,30 21.3028189,29.5123961 21.6972136,28.7236068 C21.9256649,28.2667042 22,27.8206936 22,27.5 L21.5,27.5 C22,27.2238576 21.7761424,27 21.5,27 C21.2238576,27 21,27.2238576 21,27.5 L21.5,27.5 C21,27.6793064 20.9493351,27.9832958 20.8027864,28.2763932 C20.5721811,28.7376039 20.1785869,29 19.5,29 L8.5,29 C7.82141315,29 7.42781896,28.7376039 7.19721361,28.2763932 C7.05066492,27.9832958 7.00000001,27.6793064 7,27.5 C6.99999999,27.2238576 6.77614236,27 6.49999999,27 C6.22385761,27 5.99999999,27.2238576 6,27.5 C6.00000001,27.8206936 6.07433511,28.2667042 6.30278643,28.7236068 Z" sketch:type="MSShapeGroup"></path><path d="M16,14 C16,12.8954305 15.1045695,12 14,12 C12.8954305,12 12,12.8954305 12,14 L12,14.5 C12,14.7761424 12.2238576,15 12.5,15 C12.7761424,15 13,14.7761424 13,14.5 L13,14 C13,13.4477153 13.4477153,13 14,13 C14.5522847,13 15,13.4477153 15,14 L15,14.5 C15,14.7761424 15.2238576,15 15.5,15 C15.7761424,15 16,14.7761424 16,14.5 L16,14 Z" sketch:type="MSShapeGroup"></path><path d="M9.64644661,3.52155614 C9.24733816,3.92066459 9,4.41534091 9,5.00010953 C9,5.58487815 9.24733816,6.07955447 9.64644661,6.47866292 C9.87711028,6.70932659 10.1072407,6.86274688 10.2763932,6.94732312 C10.3572407,6.98774688 10.5021103,7.08432659 10.6464466,7.22866292 C10.8723382,7.45455447 11,7.70987815 11,8.00010953 C11,8.29034091 10.8723382,8.54566459 10.6464466,8.77155614 C10.5021103,8.91589246 10.3572407,9.01247218 10.2763932,9.05289593 C10.029404,9.17639056 9.92929178,9.47672708 10.0527864,9.72371633 C10.176281,9.97070557 10.4766175,10.0708177 10.7236068,9.94732312 C10.8927593,9.86274688 11.1228897,9.70932659 11.3535534,9.47866292 C11.7526618,9.07955447 12,8.58487815 12,8.00010953 C12,7.41534091 11.7526618,6.92066459 11.3535534,6.52155614 C11.1228897,6.29089246 10.8927593,6.13747218 10.7236068,6.05289593 C10.6427593,6.01247218 10.4978897,5.91589246 10.3535534,5.77155614 C10.1276618,5.54566459 10,5.2903409 10,5.00010953 C10,4.70987815 10.1276618,4.45455447 10.3535534,4.22866292 C10.4978897,4.08432659 10.6427593,3.98774688 10.7236068,3.94732312 C10.970596,3.8238285 11.0707082,3.52349198 10.9472136,3.27650273 C10.823719,3.02951348 10.5233825,2.92940131 10.2763932,3.05289593 C10.1072407,3.13747218 9.87711028,3.29089246 9.64644661,3.52155614 Z" sketch:type="MSShapeGroup"></path><path d="M16.6464466,3.52155614 C16.2473382,3.92066459 16,4.41534091 16,5.00010953 C16,5.58487815 16.2473382,6.07955447 16.6464466,6.47866292 C16.8771103,6.70932659 17.1072407,6.86274688 17.2763932,6.94732312 C17.3572407,6.98774688 17.5021103,7.08432659 17.6464466,7.22866292 C17.8723382,7.45455447 18,7.70987815 18,8.00010953 C18,8.29034091 17.8723382,8.54566459 17.6464466,8.77155614 C17.5021103,8.91589246 17.3572407,9.01247218 17.2763932,9.05289593 C17.029404,9.17639056 16.9292918,9.47672708 17.0527864,9.72371633 C17.176281,9.97070557 17.4766175,10.0708177 17.7236068,9.94732312 C17.8927593,9.86274688 18.1228897,9.70932659 18.3535534,9.47866292 C18.7526618,9.07955447 19,8.58487815 19,8.00010953 C19,7.41534091 18.7526618,6.92066459 18.3535534,6.52155614 C18.1228897,6.29089246 17.8927593,6.13747218 17.7236068,6.05289593 C17.6427593,6.01247218 17.4978897,5.91589246 17.3535534,5.77155614 C17.1276618,5.54566459 17,5.2903409 17,5.00010953 C17,4.70987815 17.1276618,4.45455447 17.3535534,4.22866292 C17.4978897,4.08432659 17.6427593,3.98774688 17.7236068,3.94732312 C17.970596,3.8238285 18.0707082,3.52349198 17.9472136,3.27650273 C17.823719,3.02951348 17.5233825,2.92940131 17.2763932,3.05289593 C17.1072407,3.13747218 16.8771103,3.29089246 16.6464466,3.52155614 Z" sketch:type="MSShapeGroup"></path><path d="M14.1464466,1.22866292 C14.3723382,1.45455447 14.5,1.70987815 14.5,2.00010953 C14.5,2.29034091 14.3723382,2.54566459 14.1464466,2.77155614 C14.0021103,2.91589246 13.8572407,3.01247218 13.7763932,3.05289593 C13.6072407,3.13747218 13.3771103,3.29089246 13.1464466,3.52155614 C12.7473382,3.92066459 12.5,4.41534091 12.5,5.00010953 C12.5,5.58487815 12.7473382,6.07955447 13.1464466,6.47866292 C13.3771103,6.70932659 13.6072407,6.86274688 13.7763932,6.94732312 C13.8572407,6.98774688 14.0021103,7.08432659 14.1464466,7.22866292 C14.3723382,7.45455447 14.5,7.70987815 14.5,8.00010953 C14.5,8.29034091 14.3723382,8.54566459 14.1464466,8.77155614 C14.0021103,8.91589246 13.8572407,9.01247218 13.7763932,9.05289593 C13.529404,9.17639056 13.4292918,9.47672708 13.5527864,9.72371633 C13.676281,9.97070557 13.9766175,10.0708177 14.2236068,9.94732312 C14.3927593,9.86274688 14.6228897,9.70932659 14.8535534,9.47866292 C15.2526618,9.07955447 15.5,8.58487815 15.5,8.00010953 C15.5,7.41534091 15.2526618,6.92066459 14.8535534,6.52155614 C14.6228897,6.29089246 14.3927593,6.13747218 14.2236068,6.05289593 C14.1427593,6.01247218 13.9978897,5.91589246 13.8535534,5.77155614 C13.6276618,5.54566459 13.5,5.2903409 13.5,5.00010953 C13.5,4.70987815 13.6276618,4.45455447 13.8535534,4.22866292 C13.9978897,4.08432659 14.1427593,3.98774688 14.2236068,3.94732312 C14.3927593,3.86274688 14.6228897,3.70932659 14.8535534,3.47866292 C15.2526618,3.07955447 15.5,2.58487815 15.5,2.00010953 C15.5,1.41534091 15.2526618,0.920664589 14.8535534,0.521556138 C14.6228897,0.290892463 14.3927593,0.137472179 14.2236068,0.0528959328 C13.9766175,-0.0705986916 13.676281,0.0295134818 13.5527864,0.276502731 C13.4292918,0.523491979 13.529404,0.823828499 13.7763932,0.947323124 C13.8572407,0.987746878 14.0021103,1.08432659 14.1464466,1.22866292 Z" sketch:type="MSShapeGroup"></path></g></g></g></svg>