<svg class="normalized" viewBox="0 0 100 100" version="1.1" xmlns="http://www.w3.org/2000/svg" xmlns:xlink="http://www.w3.org/1999/xlink"><path d="M43.5722244,14.5721819 C45.6579115,14.1962602 47.8060362,14 50,14 C69.882251,14 86,30.117749 86,50 C86,69.882251 69.882251,86 50,86 C30.117749,86 14,69.882251 14,50 C14,49.1240027 14.0312881,48.255313 14.0928077,47.3949877 C15.5556557,48.9958235 17.6605589,50 20,50 C24.418278,50 28,46.418278 28,42 C28,41.2115848 27.8859499,40.4498074 27.6734478,39.7302661 C28.9207957,40.5337827 30.4059524,41 32,41 C36.418278,41 40,37.418278 40,33 C40,32.2972975 39.9093999,31.6157558 39.7392436,30.9664188 C39.9898608,30.9886479 40.2436047,31 40.5,31 C45.1944204,31 49,27.1944204 49,22.5 C49,18.8889417 46.7482205,15.8038147 43.5722244,14.5721819 Z M31.5,63 C33.9852814,63 36,60.9852814 36,58.5 C36,56.0147186 33.9852814,54 31.5,54 C29.0147186,54 27,56.0147186 27,58.5 C27,60.9852814 29.0147186,63 31.5,63 Z M51.5,56 C53.9852814,56 56,53.9852814 56,51.5 C56,49.0147186 53.9852814,47 51.5,47 C49.0147186,47 47,49.0147186 47,51.5 C47,53.9852814 49.0147186,56 51.5,56 Z M44.5,79 C46.9852814,79 49,76.9852814 49,74.5 C49,72.0147186 46.9852814,70 44.5,70 C42.0147186,70 40,72.0147186 40,74.5 C40,76.9852814 42.0147186,79 44.5,79 Z M67.5,72 C69.9852814,72 72,69.9852814 72,67.5 C72,65.0147186 69.9852814,63 67.5,63 C65.0147186,63 63,65.0147186 63,67.5 C63,69.9852814 65.0147186,72 67.5,72 Z M59.5,39 C61.9852814,39 64,36.9852814 64,34.5 C64,32.0147186 61.9852814,30 59.5,30 C57.0147186,30 55,32.0147186 55,34.5 C55,36.9852814 57.0147186,39 59.5,39 Z M75.5,50 C77.9852814,50 80,47.9852814 80,45.5 C80,43.0147186 77.9852814,41 75.5,41 C73.0147186,41 71,43.0147186 71,45.5 C71,47.9852814 73.0147186,50 75.5,50 Z" fill="none" stroke="#000000" stroke-width="3" stroke-linecap="round" stroke-linejoin="round"></path></svg>