<svg class="normalized" viewBox="0 0 100 100" version="1.1" xmlns="http://www.w3.org/2000/svg" xmlns:xlink="http://www.w3.org/1999/xlink"><path d="M77.0740028,48.847295 C78.1940374,47.7166313 78.9872289,46.1824206 78.9872293,43.7652871 C78.98723,39.609334 75.7626454,36.2226573 71.7820714,36.1761553 C71.9866803,35.567643 72.0942993,34.9232577 72.0942993,34.2616002 C72.0942993,30.9785566 69.4582984,28.3093399 66.2164423,28.3093399 L66.0105048,28.3093399 L66.0105048,27.5706219 C66.0105048,27.3739847 65.9759604,27.1773476 65.905543,26.9913394 C64.3829336,22.8978319 61.4639345,22.5112007 59.5321072,22.2547752 C57.8593627,22.0342227 57.1671467,21.9425473 56.6622675,20.4186092 C54.8101579,14.8343793 50.9358742,14 48.7914662,14 C46.902155,14 45.4619206,14.6098409 45.3038137,14.6789297 C44.5850251,14.9951435 44.2156661,15.7710631 44.3777589,16.5403396 C44.53188,17.2724145 45.1802512,17.8038663 45.9189692,17.8543542 C46.1900096,18.1453241 46.5434251,19.3371048 46.1049773,20.6644057 C45.7528905,21.7286379 44.8268357,22.9974791 42.4060727,22.9974791 L41.9769254,22.9934932 C39.1403014,22.9934932 37.1074982,23.8039572 35.9369756,25.4022985 C35.2314733,26.3642263 34.9896628,27.4138436 34.945818,28.3080113 L33.3023033,28.3080113 C30.0604472,28.3080113 27.4231176,30.9785566 27.4231176,34.2602715 C27.4231176,34.921929 27.5320653,35.5663143 27.7353456,36.1748267 C23.7547715,36.2213287 20.5301877,39.6080053 20.5301877,43.7639585 C20.5301877,47.0262265 21.4947727,47.9624278 22.7968297,49.1502225 C21.8933616,49.8743256 21.0337383,51.242814 20.9181475,53.7858109 C20.2153025,54.1458695 19.8313286,54.9443759 20.0718105,55.72561 L28.0932583,81.7197341 C28.7445741,83.8303736 31.0669516,85.5413851 33.2767091,85.5413851 L67.0285852,85.5413851 C69.2400102,85.5413851 71.5604434,83.8312704 72.212036,81.7197341 L80.2334838,55.72561 C80.4819375,54.9483618 80.0992922,54.1511841 79.3991044,53.7897968 C79.2675701,51.0089752 78.1887229,49.539511 77.0740028,48.847295 Z M21.0849175,55.2268639 L79.6704609,55.2268639 M39.8724112,36.3784706 L44.3205823,35.2664278 M50.9928389,29.706214 L53.2169244,31.9302995 M49.8807961,44.1627699 L53.2169244,40.8266416 M38.7603685,46.3868554 L35.4242402,43.0507271 M62.1132665,39.7145989 L65.4493948,43.0507271 M50.1476882,55.8180569 L50.1476882,84.7966404 M60.4452024,55.418824 L57.1090741,85.4439786 M39.8724112,55.418824 L43.2085395,85.4439786 M29.8369011,55.3645734 L36.5362829,85.4168533 M70.4807125,55.3645734 L63.7813306,85.4168533" fill="none" stroke="#000000" stroke-width="3" stroke-linecap="round" stroke-linejoin="round"></path></svg>