<svg class="normalized" viewBox="0 0 100 100" version="1.1" xmlns="http://www.w3.org/2000/svg" xmlns:xlink="http://www.w3.org/1999/xlink"><path d="M17.6452084,78.2604349 C15.4362269,78.2604349 13.8105378,76.4791448 14.0139744,74.2834932 L17.3473386,38.3071364 C17.3473386,36.5408185 17.8887307,34.7745007 18.8361669,33.279924 C20.5280174,30.6304472 23.4380001,29 26.6186789,29 L73.3814246,29 C76.4267554,29 79.2690641,30.4945766 81.0285885,33.0761181 C82.0436988,34.6386301 82.6527649,36.4049479 82.6527649,38.3071364 L85.9861291,74.2834932 C86.1896354,76.4798974 84.5572959,78.2604349 82.3548951,78.2604349 L17.6452084,78.2604349 Z M50.7190389,49.1767847 C49.0271885,49.1767847 47.4706861,48.6333023 46.1172057,47.5463374 C45.0344215,46.6631785 44.2223333,45.5082784 43.4102451,44.4213136 C42.5304828,43.1984781 41.6507206,42.1115133 40.6356104,41.364225 C39.8235222,40.8207426 38.9437599,40.481066 37.9963237,40.481066 C36.8458654,40.481066 35.7630811,40.9566132 34.9509929,41.7718368 C34.4096008,42.3832545 33.9358827,43.1305428 33.3944905,43.8778311 C32.9207724,44.6930548 32.3793803,45.5082784 31.7026401,46.1876314 C30.6875299,47.2745962 29.3340495,47.886014 28.0482432,47.9539493 C26.7624369,48.0218846 25.5443046,47.5463374 24.7322164,46.5273079 C24.0554762,45.7120843 23.6494321,44.5571842 23.311062,43.6060899 C22.7019959,41.9077074 21.8222336,39.3261659 20.9424714,36.7446244 L19.8596871,33.5516652 C19.7920131,33.3478593 19.7920131,33.1440534 19.9273612,32.9402475 C21.4838636,30.4945766 24.1908242,29 27.100807,29 L73.8635527,29 C76.7058614,29 79.3451481,30.4266413 80.9693245,32.7364416 C81.1046725,32.9402475 81.1046725,33.1440534 81.0369985,33.3478593 C80.6986284,34.5706948 80.2925843,35.8614655 80.1572363,36.2690773 C79.4804961,38.9185541 78.7360819,41.4321603 76.9088835,42.722931 C76.2321433,43.1984781 75.4200551,43.4702193 74.5402929,43.4702193 C73.1868125,43.6060899 71.4949621,42.7908663 70.1414818,41.4321603 C69.9384597,41.2283544 69.8031117,41.0924838 69.6000896,40.8886779 C69.1263715,40.4131307 68.7203274,39.9375836 68.2466093,39.6658424 C67.299173,39.0544247 66.2163888,39.12236 65.2012785,39.12236 C63.6447761,39.1902953 62.1559478,39.2582306 61.0731635,40.4131307 C60.5994454,40.8886779 60.1934013,41.5680309 59.8550312,42.3153192 C59.7196831,42.5191251 59.6520091,42.722931 59.5166611,42.9267369 C57.9601587,45.644149 55.8622642,47.6822081 53.5613476,48.6333023 C52.6815854,48.9729788 51.6664751,49.1767847 50.7190389,49.1767847 L50.7190389,49.1767847 Z" fill="none" stroke="#000000" stroke-width="3" stroke-linecap="round" stroke-linejoin="round"></path></svg>