<svg width="104px" height="99px" viewBox="0 0 104 99" version="1.1" xmlns="http://www.w3.org/2000/svg" xmlns:xlink="http://www.w3.org/1999/xlink">
    <g stroke="none" stroke-width="1" fill="none" fill-rule="evenodd" stroke-linecap="round" stroke-linejoin="round">
        <g transform="translate(-633.000000, -1308.000000)" stroke="#FFFFFF" stroke-width="3.84615385">
            <path d="M672.522985,1310.32094 L635,1405 L734.792061,1377.80392 M724.082712,1380.36526 C723.789278,1348.83854 699.431355,1323.07202 668.516092,1320.59796 M735,1377.6007 C733.401261,1342.76674 706.928039,1314.43307 672.955709,1310 M679.651373,1348.52408 C684.583427,1348.52408 688.581647,1344.52012 688.581647,1339.58099 C688.581647,1334.64186 684.583427,1330.6379 679.651373,1330.6379 C674.719318,1330.6379 670.721098,1334.64186 670.721098,1339.58099 C670.721098,1344.52012 674.719318,1348.52408 679.651373,1348.52408 Z M701.633587,1373.28956 C706.565641,1373.28956 710.563861,1369.2856 710.563861,1364.34647 C710.563861,1359.40734 706.565641,1355.40338 701.633587,1355.40338 C696.701532,1355.40338 692.703312,1359.40734 692.703312,1364.34647 C692.703312,1369.2856 696.701532,1373.28956 701.633587,1373.28956 Z M661.790824,1389.79988 C666.722878,1389.79988 670.721098,1385.79592 670.721098,1380.85679 C670.721098,1375.91766 666.722878,1371.9137 661.790824,1371.9137 C656.858769,1371.9137 652.860549,1375.91766 652.860549,1380.85679 C652.860549,1385.79592 656.858769,1389.79988 661.790824,1389.79988 Z M686.303461,1384.38091 L686.303461,1370.62231 M673.938466,1363.74301 L687.677349,1356.86371 M665.695135,1360.99129 L664.321247,1348.60855"></path>
        </g>
    </g>
</svg>