<?xml version="1.0" encoding="utf-8"?>
<!-- Generator: Adobe Illustrator 16.0.0, SVG Export Plug-In . SVG Version: 6.00 Build 0)  -->
<!DOCTYPE svg PUBLIC "-//W3C//DTD SVG 1.1//EN" "http://www.w3.org/Graphics/SVG/1.1/DTD/svg11.dtd">
<svg version="1.1" id="Layer_1" xmlns="http://www.w3.org/2000/svg" xmlns:xlink="http://www.w3.org/1999/xlink" x="0px" y="0px"
	 width="234.2px" height="311.7px" viewBox="0 0 234.2 311.7" style="enable-background:new 0 0 234.2 311.7;" xml:space="preserve"
	>
<style type="text/css">
<![CDATA[
	.st0{opacity:0.3;}
	.st1{clip-path:url(#SVGID_2_);fill:#FFFFFF;}
]]>
</style>
<g class="st0">
	<g>
		<defs>
			<rect id="SVGID_1_" width="234.2" height="311.7"/>
		</defs>
		<clipPath id="SVGID_2_">
			<use xlink:href="#SVGID_1_"  style="overflow:visible;"/>
		</clipPath>
		<path class="st1" d="M210.8,69.8C198.5,28.6,160.1,0,116.9,0C74.3,0,36.3,27.9,23.5,68.2c-7.6,0.8-15.3,2.1-23.5,4l2.4,15.7
			c2.3,0.1,6.2,0.9,6.4,5.3c0.7,16.8,3.1,29.5,9,38.1c-1.8,1.5-3.1,3.1-3.6,5c0,0,7.4-0.2,8.1,0.7c0,0-11,19.4-9.4,32.1l6.7-4
			c0,0-3.9,30.7,3.1,40.3c0,0,5.4-7.9,6.7-9c0,0,5.1,29.8,9.6,35.8c0,0,4.2-5.9,6.1-7.3c0,0,2.2,19,11.8,29.9l4.2-6.8
			c0,0,10.2,24.2,7.7,35.8c0,0,7.7-6.2,7.7-8.2c0,0,1,13.2,17.2,20.6c0,0-0.3-5.9,1.3-7.6c0,0,16.3,13.8,7.3,23.1
			c0,0,11.6,1.7,15.3-8.2c3.7,10,15.3,8.2,15.3,8.2c-8.9-9.3,7.3-23.1,7.3-23.1c1.6,1.7,1.3,7.6,1.3,7.6
			c16.3-7.3,17.2-20.6,17.2-20.6c0,2,7.7,8.2,7.7,8.2c-2.6-11.5,7.7-35.8,7.7-35.8l4.2,6.8c9.6-10.9,11.8-29.9,11.8-29.9
			c1.9,1.4,6.1,7.3,6.1,7.3c4.5-5.9,9.6-35.8,9.6-35.8c1.3,1.1,6.7,9,6.7,9c7-9.6,3.1-40.3,3.1-40.3l6.7,3.9
			c1.7-12.7-9.3-32.1-9.3-32.1c0.7-0.8,8.2-0.8,8.2-0.8c-0.6-2.2-2.1-4-4.3-5.6c5.8-10.6,5.9-24.7,9.1-34.9c1.2-3.8,2.5-5.7,6.6-5.8
			l2-15.7C226.5,72.5,218.8,71,210.8,69.8 M116.9,6c39.7,0,75,25.7,87.4,63c-17.8-2-37-1.8-59.3,3.8c-8.9,2.2-19.3,4.5-28.5,4.2
			c-5.5-0.2-10.8-1.5-15.7-2.6c-24-5.6-46.3-8.7-70.8-6.8C42.8,31.1,77.7,6,116.9,6 M133.4,123.1c-1.1,0.1-2.2,0.3-3.2,0.3h0
			c-5,0-3.7,4.2-13.3,4.2c-4.2,0-7.7-3.8-10.2-3.9c-1.6-0.1-5.4-0.4-5.4-0.4c0,0,0,0,0,0c-1.6-0.1-2.4-1.8-1.6-3.2
			c5.3-8.5,7.7-17.1,8.6-22.3c1.2-6.8,4.7-7.5,8.7-7.6c7-0.2,7.8,4.9,9,8c3.4,8.5,6.4,15.6,9.5,21.3
			C136.2,121,135.2,123,133.4,123.1 M11.5,82.2c-3.3,0-6-0.7-6-1.5c0-0.8,2.7-1.5,6-1.5s6,0.7,6,1.5C17.5,81.5,14.8,82.2,11.5,82.2
			 M53.9,139.7c-25.5,0-32.9-4.7-36.3-34.4c0-19.9-1.3-31.6,36.5-31.5c25.5,2.4,52.3,2.2,42,32.6C89.8,125.3,79.7,139,53.9,139.7
			 M149.7,163.8c-4.6,10.6-17.4,18.1-32.5,18.1c-15.2,0-28.1-7.4-32.7-18c-1.8-4.1,1.3-8.5,5.8-8.5H144
			C148.4,155.4,151.5,159.7,149.7,163.8 M216.9,105.3c-3.4,29.7-10.8,34.4-36.3,34.4c-25.8-0.7-35.8-14.4-42.2-33.3
			c-10.3-30.4,16.5-30.2,42-32.6C218.2,73.7,216.9,85.4,216.9,105.3 M223.3,83.8c-3.3,0-6-0.7-6-1.5c0-0.8,2.7-1.5,6-1.5
			c3.3,0,6,0.7,6,1.5C229.3,83.1,226.6,83.8,223.3,83.8"/>
	</g>
</g>
</svg>
