<?xml version="1.0" encoding="utf-8"?>
<!-- Generator: Adobe Illustrator 16.0.0, SVG Export Plug-In . SVG Version: 6.00 Build 0)  -->
<!DOCTYPE svg PUBLIC "-//W3C//DTD SVG 1.1//EN" "http://www.w3.org/Graphics/SVG/1.1/DTD/svg11.dtd">
<svg version="1.1" id="Layer_1" xmlns="http://www.w3.org/2000/svg" xmlns:xlink="http://www.w3.org/1999/xlink" x="0px" y="0px"
	 width="71.901px" height="101.415px" viewBox="0 0 71.901 101.415" enable-background="new 0 0 71.901 101.415"
	 xml:space="preserve">
<path fill="#81B667" d="M38.675,0.001c-1.041,0.056-2.267,0.55-3.747,1.741C29.392,6.194,28.609-1.819,23.5,3.18
	c-4.258,4.167-6.287-1.626-9.763,2.611c-1.321,1.609-3.014,2.551-4.352,3.103C8.827,9.197,8.61,9.901,8.93,10.447
	c0.593,1.012,13.309,7.831,14.986,11.352c0,0-2.724,0.354-2.724,2.31s2.686,2.422,2.686,2.422c-0.252,1.286-0.729,1.675-1.173,1.93
	C17.957,31.187-3.658,38.792,2.308,86.883c0,0-2.308,2.919-2.308,5.714c0,2.793,1.715,5.261,9.233,5.261
	c7.296,0,7.396,3.557,26.717,3.557c19.322,0,19.418-3.557,26.718-3.557c7.516,0,9.233-2.468,9.233-5.261
	c0-2.795-2.308-5.714-2.308-5.714c6.688-53.924-21.307-58.916-21.307-58.916c-0.666-0.298-1.352-0.66-1.93-1.627
	c0,0,2.195-0.499,2.195-2.232c0-2.198-3.217-2.423-3.217-2.423c0.459-4.612,10.838-12.738,13.623-14.834
	c0.368-0.356,0.496-0.938,0.228-1.4C57.94,3.461,54.294-0.863,48.21,3.293c-4.054,2.771-5.472-3.287-9.347-3.292
	C38.796,0.001,38.744-0.002,38.675,0.001"/>
<path fill="#FFFFFF" d="M32.991,87.01v-5.47c-2.857-0.184-5.167-0.519-6.929-1.003c-1.763-0.486-3.222-0.942-4.377-1.368v-9.027
	h10.03c0,0.912,0.182,1.589,0.547,2.029c0.364,0.44,1.124,0.661,2.279,0.661c1.003,0,1.717-0.151,2.143-0.456
	c0.425-0.303,0.638-0.759,0.638-1.367c0-0.426-0.175-0.798-0.524-1.117c-0.35-0.318-1.056-0.691-2.12-1.118
	c-2.25-0.85-4.217-1.663-5.904-2.438c-1.687-0.774-3.085-1.633-4.194-2.575c-1.11-0.942-1.937-2.044-2.485-3.305
	c-0.546-1.262-0.82-2.788-0.82-4.582c0-1.489,0.205-2.85,0.616-4.08c0.41-1.231,1.07-2.31,1.983-3.237
	c0.911-0.926,2.112-1.687,3.601-2.279c1.489-0.593,3.328-0.996,5.516-1.208v-5.242h5.972v5.151c1.429,0.091,2.69,0.235,3.784,0.433
	s2.097,0.426,3.009,0.684c0.912,0.259,1.747,0.532,2.507,0.821s1.383,0.586,1.87,0.889v8.16h-9.574c0-0.881-0.243-1.481-0.729-1.8
	c-0.486-0.32-1.079-0.479-1.777-0.479c-1.003,0-1.726,0.13-2.166,0.387c-0.441,0.26-0.661,0.707-0.661,1.346
	c0,0.517,0.235,0.896,0.707,1.14c0.47,0.244,1.177,0.518,2.12,0.82c1.762,0.578,3.426,1.186,4.992,1.824
	c1.564,0.638,2.939,1.429,4.125,2.369c1.186,0.943,2.119,2.083,2.804,3.421S51,67.97,51,69.916c0,3.495-1.02,6.207-3.055,8.137
	c-2.037,1.931-5.031,3.077-8.981,3.442v5.516H32.991z"/>
</svg>
