<svg class="normalized" viewBox="0 0 100 100" version="1.1" xmlns="http://www.w3.org/2000/svg" xmlns:xlink="http://www.w3.org/1999/xlink"><path d="M15,24.9926535 C15,20.5784328 18.579658,17 22.9957852,17 L77.0042148,17 C81.420165,17 85,20.5892576 85,24.9926535 L85,60.3406799 C85,64.7549005 81.420342,68.3333333 77.0042148,68.3333333 L22.9957852,68.3333333 C18.579835,68.3333333 15,64.7440757 15,60.3406799 L15,24.9926535 Z M15.9333333,59.9333333 L84.5333333,59.9333333 M45.3333333,68.3333333 L45.3333333,77.6666667 M54.6666667,68.3333333 L54.6666667,77.6666667 M32.7333333,80 C32.7333333,78.7113356 33.7857032,77.6666667 35.0662758,77.6666667 L64.9337242,77.6666667 C66.2221728,77.6666667 67.2666667,78.7023513 67.2666667,80 L67.2666667,80 C67.2666667,81.2886644 66.2142968,82.3333333 64.9337242,82.3333333 L35.0662758,82.3333333 C33.7778272,82.3333333 32.7333333,81.2976487 32.7333333,80 L32.7333333,80 Z M33.3736434,58.0666667 C34.0886864,51.8631733 37.7401726,46.643581 43.0734399,44.1841474 C40.9696246,42.1997446 39.6463183,39.3904228 39.6463183,36.2695216 C39.6463183,30.2760888 44.5003479,25.4 50.4666667,25.4 C56.4329854,25.4 61.287015,30.2760888 61.287015,36.2695216 C61.287015,39.3904228 59.9637088,42.1997446 57.8598934,44.1841474 C63.1931607,46.643581 66.8446469,51.8631733 67.5596899,58.0666667" fill="none" stroke="#000000" stroke-width="3" stroke-linecap="round" stroke-linejoin="round"></path></svg>