<svg xmlns="http://www.w3.org/2000/svg"><symbol id="svg-guru-head" viewBox="0 0 150 150"><g fill="none" fill-rule="evenodd"><path d="M36 89s-4 0-6 4-1.025 10.312 2.97 12.792C36.965 108.272 40 105 40 105c3.972 7.063 11.41 26.488 44.506 24.997C110.626 128.82 122.641 110.905 122 95c0 0 4.996 2.308 7.519-1.292C132.042 90.11 133 86 131 82c-2-4-5-5-9-3 3-13-15-26-15-26-12 4-24-4-35-4s-40 6-36 40" stroke="#33534D" stroke-width="2" stroke-linecap="round" stroke-linejoin="round" fill="#F9ECE5"/><path d="M86 115c5 1 15-1 15-7" stroke="#33534D" stroke-width="2" stroke-linecap="round" stroke-linejoin="round"/><path d="M30 71c-10.19 1.269-18.037-13-8.929-23.17C21.071 53 25.001 58 31 58c-12.02-7.043-6.19-34.666 11.353-38.063C38.6 27.453 49.443 31 53 31c0 0 1-8 8-10-6 16 36 1 48 21 0 0 1 7-2 11-12 4-24-4-35-4s-40 6-36 40c0 0-10-4-6-18zm77-18s18 13 15 26c16-17-6.22-40-13-37 0 0 1 7-2 11z" stroke="#33534D" stroke-width="2" stroke-linecap="round" stroke-linejoin="round" fill="#69B3A5"/><path d="M78.575 76.347c-3.986.354-5.361 2.587-5.19 2.83a16.413 16.413 0 0 1 2.407 5.004c2.503 8.732-2.546 17.841-11.278 20.346-8.733 2.503-17.842-2.546-20.347-11.278-1.593-5.556-6.967-5.24-6.967-5.24l-.124-3.364s2.266-.596 4.883-2.325c2.814-1.86 6.012-4.878 6.594-5.442a16.376 16.376 0 0 1 6.893-3.975c5.686-1.63 11.533-.058 15.61 3.649.178.161 1.531-2.331 7.289-2.835 5.314-.465 7.08 1.755 7.226 1.565 3.372-4.359 8.857-6.923 14.74-6.304a16.376 16.376 0 0 1 7.479 2.718c.67.453 4.344 2.871 7.438 4.214 2.877 1.248 5.213 1.442 5.213 1.442l.462 3.335s-5.348.621-5.952 6.37c-.95 9.034-9.044 15.588-18.079 14.639-9.034-.95-15.588-9.044-14.64-18.078.202-1.91.72-3.707 1.501-5.347.127-.269-1.615-2.23-5.601-1.885l.443-.039zm-16.872 26.495c7.338-.642 12.766-7.111 12.124-14.45-.642-7.337-7.11-12.765-14.449-12.123-7.338.642-12.766 7.11-12.124 14.449.642 7.338 7.111 12.766 14.45 12.124zm37.645-3.294c-7.338.642-13.807-4.786-14.449-12.124-.642-7.338 4.786-13.806 12.124-14.448 7.338-.642 13.807 4.786 14.449 12.123.642 7.338-4.786 13.807-12.124 14.45z" stroke="#33534D" stroke-linecap="round" stroke-linejoin="round" fill="#33534D"/><path d="M65.529 95.164a4 4 0 0 0 3.56-4.396c-.231-2.197-2.347-4.08-4.5-4.555-3.089-.68-5.078-.472-7.957.837-2.88 1.308-5.445 5.6-5.445 5.6l2.072.579c4.472-5.29 7.665-3.614 7.874-1.625a4 4 0 0 0 4.396 3.56zm37.76-4.325a4 4 0 0 0 3.56-4.396c-.23-2.197-2.347-4.08-4.5-4.555-3.089-.68-5.078-.472-7.957.836-2.879 1.308-5.444 5.6-5.444 5.6l2.072.58c4.471-5.29 7.664-3.614 7.873-1.625a4 4 0 0 0 4.396 3.56z" fill="#33534D"/><path d="M45 70l22 1v-3l-20-4-2 6zm64.752-4.396l-21.829 2.914-.261-2.989 19.575-5.728 2.515 5.803z" stroke="#33534D" stroke-width="2" stroke-linecap="round" stroke-linejoin="round" fill="#69B3A5"/><path d="M35.5 105a1.5 1.5 0 1 0 0-3 1.5 1.5 0 0 0 0 3zm90.723-11.234a1.5 1.5 0 1 0 0-3 1.5 1.5 0 0 0 0 3z" stroke="#33534D" stroke-linecap="round" stroke-linejoin="round" fill="#33534D"/><path d="M29.892 92.429a2 2 0 1 0 1.499 2.398m98.326-5.803a2 2 0 1 0 2.424-1.457" stroke="#33534D" stroke-linecap="round" stroke-linejoin="round"/></g></symbol><symbol id="svg-logo-subtitle" viewBox="0 0 430 157"><path d="M0 46.032C0 63.87 6.617 75.378 22.44 75.378c9.783 0 16.4-4.315 22.154-11.22h.575l1.369 7.527c.197 1.086 1.249 1.967 2.362 1.967h16.13a2.003 2.003 0 0 0 2.005-1.999V3.725a2 2 0 0 0-2.004-1.999H44.296a2.006 2.006 0 0 0-2.004 1.99v44.33c-3.164 4.604-5.754 6.33-10.357 6.33-4.89 0-7.193-2.302-7.193-11.508V3.724a2 2 0 0 0-2.003-1.998H2.004A1.993 1.993 0 0 0 0 3.716v42.316zM99.833 81.42c0-2.014.863-3.452 2.59-5.179 2.013.576 4.603.863 10.357.863h5.61c6.185 0 9.638.576 9.638 4.316 0 4.028-6.042 6.617-14.098 6.617-8.343 0-14.097-2.014-14.097-6.617zm10.07 21.865c25.605 0 41.716-10.645 41.716-26.18 0-13.235-10.357-18.701-28.338-18.701h-10.79c-7.192 0-10.069-1.151-10.069-4.316 0-2.014.288-2.877 1.726-4.172 3.165.72 5.755 1.007 8.056 1.007 16.112 0 29.058-6.904 29.058-23.879 0-2.877-.575-5.754-1.15-7.48h8.36a1.99 1.99 0 0 0 1.997-1.994V3.72c0-1.1-.89-1.994-1.99-1.994h-24.767C120.26.576 116.232 0 112.204 0 96.381 0 81.42 8.343 81.42 26.181c0 8.343 4.603 14.96 9.782 18.413v.575c-4.891 3.453-8.056 8.631-8.056 13.522 0 6.042 2.877 9.782 6.617 12.372v.575c-6.617 3.452-10.07 7.912-10.07 13.81 0 12.946 13.81 17.837 30.21 17.837zm2.301-67.034c-4.603 0-7.768-3.165-7.768-10.07 0-6.617 3.165-9.782 7.768-9.782s7.768 3.165 7.768 9.782c0 6.905-3.165 10.07-7.768 10.07zm49.485 9.781c0 17.838 6.617 29.346 22.44 29.346 9.783 0 16.4-4.315 22.154-11.22h.575l1.369 7.527c.198 1.086 1.249 1.967 2.362 1.967h16.13a2.003 2.003 0 0 0 2.005-1.999V3.725a2 2 0 0 0-2.004-1.999h-20.735a2.006 2.006 0 0 0-2.004 1.99v44.33c-3.164 4.604-5.754 6.33-10.357 6.33-4.89 0-7.192-2.302-7.192-11.508V3.724a2 2 0 0 0-2.004-1.998h-20.735a1.993 1.993 0 0 0-2.004 1.99v42.316zm83.722 25.621a2 2 0 0 0 2.003 1.999h20.735a1.999 1.999 0 0 0 2.004-1.997V33.661c3.453-8.919 9.782-12.083 14.96-12.083 3.165 0 6.112.742 6.112.742a1.95 1.95 0 0 0 2.316-1.556l3.285-17.36c.205-1.086-.49-2.216-1.555-2.489 0 0-2.533-.915-6.993-.915-7.048 0-15.104 4.316-20.426 14.097h-.576l-1.449-10.383c-.153-1.098-1.168-1.988-2.282-1.988h-16.13a2.003 2.003 0 0 0-2.004 1.999v67.928zm59.554-25.62c0 17.837 6.617 29.345 22.441 29.345 9.782 0 16.4-4.315 22.153-11.22h.576l1.368 7.527c.198 1.086 1.25 1.967 2.362 1.967h16.13A2.003 2.003 0 0 0 372 71.653V3.725a2 2 0 0 0-2.004-1.999h-20.735a2.006 2.006 0 0 0-2.003 1.99v44.33c-3.165 4.604-5.755 6.33-10.358 6.33-4.89 0-7.192-2.302-7.192-11.508V3.724a2 2 0 0 0-2.004-1.998h-20.735a1.993 1.993 0 0 0-2.004 1.99v42.316z" fill="#40484B"/><text class="impact-label" transform="rotate(-6 267.892 104.423)" font-family="Impact Label" font-size="48" fill="#2B3234" text-anchor="end"> <tspan x="427" y="114" class="uppercase" white-space="pre"> college </tspan> <tspan x="427" y="114" class="uppercase" white-space="pre"> {{university.short_name}} </tspan> <tspan x="427" y="114" class="uppercase" white-space="pre"> {{university.short_name}} </tspan> <tspan x="427" y="114" class="uppercase" white-space="pre">{{university.short_name}}</tspan></text></symbol><symbol id="svg-main-logo" viewBox="0 0 232 302"><path d="M229.841 80.62a208.611 208.611 0 0 0-14.496-2.632C205.329 33.351 165.5 0 117.875 0h-4.986C65.195 0 25.314 33.451 15.374 78.197A214.266 214.266 0 0 0 1.67 80.728C.594 80.97-.143 82.05.024 83.143l1.778 11.656c.167 1.092 1.186 2.164 2.24 2.485 0 0 4.211.381 4.388 4.795.466 11.72 1.793 21.417 4.556 29.136v70.787c0 55.227 44.72 99.998 99.903 99.998h4.987c2.523 0 5.026-.096 7.502-.28.061-.004.123-.007.184-.012a99.469 99.469 0 0 0 4.434-.442c.201-.025.404-.044.605-.069.313-.04.623-.089.935-.131.518-.071 1.039-.139 1.555-.218a98.39 98.39 0 0 0 2.248-.373c.073-.013.148-.023.22-.037a98.316 98.316 0 0 0 4.192-.848c.228-.052.46-.098.687-.15.344-.08.684-.168 1.026-.251.46-.111.923-.219 1.38-.337.154-.04.306-.084.46-.125 42.858-11.257 74.474-50.289 74.474-96.725v-67.657c3.623-8.164 5.26-18.909 5.792-32.266.177-4.414 4.388-4.795 4.388-4.795 1.055-.321 2.073-1.393 2.24-2.485l1.779-11.656c.167-1.093-.57-2.173-2.136-2.523zM112.889 6h4.987c44.003 0 80.926 30.288 91.114 71.172-27.002-3.016-51.055.093-77.083 6.164-2.465.574-4.998 1.18-7.648 1.664h-16.518c-2.65-.484-5.184-1.09-7.647-1.664-26.356-6.147-50.684-9.263-78.362-5.995C31.862 36.371 68.828 6 112.89 6zm2.85 133.577c-4.43-.326-8.038-3.986-10.827-4.083-1.798-.206-6.063-.411-6.063-.411-1.797-.205-2.807-1.95-1.797-3.388 5.95-8.726 8.533-17.554 9.656-22.893 1.282-6.647 4.906-7.616 9.031-7.802l.312.008.311-.008c4.125.186 7.75 1.155 9.031 7.802 1.123 5.339 3.705 14.167 9.656 22.893 1.01 1.438 0 3.183-1.797 3.388 0 0-4.264.205-6.063.411-2.788.097-6.397 3.757-10.827 4.083a1.257 1.257 0 0 1-.311.018 1.254 1.254 0 0 1-.312-.018m6.42 52.519c.2-.032.399-.066.6-.102l-.002-.015c14.363-2.92 25.253-12.144 27.869-23.079 1.057-4.35-2.737-8.047-7.164-7.265l-51.729 9.13c-4.427.781-6.73 5.554-4.25 9.28 6.194 9.381 19.579 14.319 34.074 12.145l.003.016c.2-.035.4-.072.598-.11m-26.61-76.842c-6.374 18.822-16.363 32.485-42.028 33.171-25.42 0-32.805-4.634-36.18-34.258 0-19.873-1.303-31.507 36.396-31.437 25.418 2.442 52.081 2.2 41.812 32.524zm119.112-1.087c-3.375 29.624-10.76 34.258-36.18 34.258-25.665-.686-35.655-14.349-42.028-33.17-10.27-30.326 16.394-30.083 41.812-32.525 37.698-.07 36.396 11.564 36.396 31.437z" fill="#FFF" fill-rule="evenodd"/></symbol><symbol id="svg-logo-title" viewBox="0 0 372 104"><path d="M0 46.032C0 63.87 6.617 75.378 22.44 75.378c9.783 0 16.4-4.315 22.154-11.22h.575l1.369 7.527c.197 1.086 1.249 1.967 2.362 1.967h16.13a2.003 2.003 0 0 0 2.005-1.999V3.725a2 2 0 0 0-2.004-1.999H44.296a2.006 2.006 0 0 0-2.004 1.99v44.33c-3.164 4.604-5.754 6.33-10.357 6.33-4.89 0-7.193-2.302-7.193-11.508V3.724a2 2 0 0 0-2.003-1.998H2.004A1.993 1.993 0 0 0 0 3.716v42.316zM99.833 81.42c0-2.014.863-3.452 2.59-5.179 2.013.576 4.603.863 10.357.863h5.61c6.185 0 9.638.576 9.638 4.316 0 4.028-6.042 6.617-14.098 6.617-8.343 0-14.097-2.014-14.097-6.617zm10.07 21.865c25.605 0 41.716-10.645 41.716-26.18 0-13.235-10.357-18.701-28.338-18.701h-10.79c-7.192 0-10.069-1.151-10.069-4.316 0-2.014.288-2.877 1.726-4.172 3.165.72 5.755 1.007 8.056 1.007 16.112 0 29.058-6.904 29.058-23.879 0-2.877-.575-5.754-1.15-7.48h8.36a1.99 1.99 0 0 0 1.997-1.994V3.72c0-1.1-.89-1.994-1.99-1.994h-24.767C120.26.576 116.232 0 112.204 0 96.381 0 81.42 8.343 81.42 26.181c0 8.343 4.603 14.96 9.782 18.413v.575c-4.891 3.453-8.056 8.631-8.056 13.522 0 6.042 2.877 9.782 6.617 12.372v.575c-6.617 3.452-10.07 7.912-10.07 13.81 0 12.946 13.81 17.837 30.21 17.837zm2.301-67.034c-4.603 0-7.768-3.165-7.768-10.07 0-6.617 3.165-9.782 7.768-9.782s7.768 3.165 7.768 9.782c0 6.905-3.165 10.07-7.768 10.07zm49.485 9.781c0 17.838 6.617 29.346 22.44 29.346 9.783 0 16.4-4.315 22.154-11.22h.575l1.369 7.527c.198 1.086 1.249 1.967 2.362 1.967h16.13a2.003 2.003 0 0 0 2.005-1.999V3.725a2 2 0 0 0-2.004-1.999h-20.735a2.006 2.006 0 0 0-2.004 1.99v44.33c-3.164 4.604-5.754 6.33-10.357 6.33-4.89 0-7.192-2.302-7.192-11.508V3.724a2 2 0 0 0-2.004-1.998h-20.735a1.993 1.993 0 0 0-2.004 1.99v42.316zm83.722 25.621a2 2 0 0 0 2.003 1.999h20.735a1.999 1.999 0 0 0 2.004-1.997V33.661c3.453-8.919 9.782-12.083 14.96-12.083 3.165 0 6.112.742 6.112.742a1.95 1.95 0 0 0 2.316-1.556l3.285-17.36c.205-1.086-.49-2.216-1.555-2.489 0 0-2.533-.915-6.993-.915-7.048 0-15.104 4.316-20.426 14.097h-.576l-1.449-10.383c-.153-1.098-1.168-1.988-2.282-1.988h-16.13a2.003 2.003 0 0 0-2.004 1.999v67.928zm59.554-25.62c0 17.837 6.617 29.345 22.441 29.345 9.782 0 16.4-4.315 22.153-11.22h.576l1.368 7.527c.198 1.086 1.25 1.967 2.362 1.967h16.13A2.003 2.003 0 0 0 372 71.653V3.725a2 2 0 0 0-2.004-1.999h-20.735a2.006 2.006 0 0 0-2.003 1.99v44.33c-3.165 4.604-5.755 6.33-10.358 6.33-4.89 0-7.192-2.302-7.192-11.508V3.724a2 2 0 0 0-2.004-1.998h-20.735a1.993 1.993 0 0 0-2.004 1.99v42.316z" fill="#FFF" fill-rule="evenodd"/></symbol></svg>