<svg xmlns="http://www.w3.org/2000/svg"><symbol id="airplane" viewBox="0 0 100 100"><path d="M40.863 69H19l30.694-55 30.732 55H58.56l-8.83 16.653L40.864 69zm8.869-53.683v70.25m0-70.864L58.6 68.006m-8.868-52.87L40.863 68.44" fill="none" stroke="#000" stroke-width="3" stroke-linecap="round" stroke-linejoin="round"/></symbol><symbol id="arrow" viewBox="0 0 100 100"><path d="M27 38l24-24 24 24M51.5 14v72" fill="none" stroke="#000" stroke-width="3" stroke-linecap="round" stroke-linejoin="round"/></symbol><symbol id="attach" viewBox="0 0 100 100"><path d="M61.375 30.061L32.639 58.737s-9.119 8.28-3.368 14.02c5.752 5.739 14.049-3.361 14.049-3.361L72.056 40.72s14.343-13.494 4.484-23.333c-9.86-9.838-22.97 4.885-22.97 4.885L24.834 50.948s-17.367 15.69-3.4 29.63c13.968 13.937 29.69-3.393 29.69-3.393l28.738-28.677" fill="none" stroke="#000" stroke-width="3" stroke-linecap="round" stroke-linejoin="round"/></symbol><symbol id="become" viewBox="0 0 100 100"><path d="M83.999 49.877a7.078 7.078 0 0 1-1.176-8.245 7.084 7.084 0 0 0 .195-6.237 6.987 6.987 0 0 0-4.802-3.937c-2.976-.68-5.167-3.23-5.41-6.295a7.042 7.042 0 0 0-3.183-5.353 6.924 6.924 0 0 0-6.15-.694 6.94 6.94 0 0 1-7.926-2.348A6.96 6.96 0 0 0 50 14a6.957 6.957 0 0 0-5.547 2.77 6.94 6.94 0 0 1-7.926 2.346 6.924 6.924 0 0 0-6.15.694 7.041 7.041 0 0 0-3.183 5.353c-.244 3.066-2.436 5.615-5.41 6.295a6.986 6.986 0 0 0-4.802 3.938 7.08 7.08 0 0 0 .194 6.237 7.077 7.077 0 0 1-1.177 8.245 7.067 7.067 0 0 0-1.928 5.93 7.033 7.033 0 0 0 3.507 5.141c2.664 1.498 4.055 4.567 3.433 7.577a7.079 7.079 0 0 0 1.557 6.04 6.947 6.947 0 0 0 5.708 2.413c3.045-.193 5.86 1.632 6.95 4.505a6.999 6.999 0 0 0 4.548 4.231 6.927 6.927 0 0 0 6.096-1.081 6.93 6.93 0 0 1 8.261 0 6.928 6.928 0 0 0 6.096 1.081 6.998 6.998 0 0 0 4.549-4.231c1.09-2.873 3.906-4.697 6.95-4.505a6.945 6.945 0 0 0 5.707-2.413 7.078 7.078 0 0 0 1.558-6.04c-.622-3.011.766-6.08 3.431-7.577a7.026 7.026 0 0 0 3.507-5.141 7.07 7.07 0 0 0-1.93-5.93zM50 26c-13.213 0-23.98 10.761-24 23.989-.01 6.53 2.568 12.861 7.071 17.37C37.35 71.64 43.032 74 49.075 74c.322 0 .647-.006.973-.02C63.478 73.43 74 62.892 74 49.99 74 36.763 63.234 26 50 26zM34.875 68.083c.627-5.507 3.832-10.14 8.512-12.324a9.687 9.687 0 0 1-3.007-7.026c0-5.32 4.26-9.65 9.495-9.65 5.236 0 9.495 4.33 9.495 9.65a9.687 9.687 0 0 1-3.007 7.026c4.68 2.183 7.885 6.817 8.512 12.324" fill="none" stroke="#000" stroke-width="3" stroke-linecap="round" stroke-linejoin="round"/></symbol><symbol id="calendar" viewBox="0 0 100 100"><path d="M15 26.994A7.995 7.995 0 0 1 22.996 19h54.008A7.995 7.995 0 0 1 85 26.994v46.012A7.995 7.995 0 0 1 77.004 81H22.996A7.995 7.995 0 0 1 15 73.006V26.994zM85 36H15h70zM17 66.5h66m-66-15h66M67.5 37v42m-35-42v42M50 37v42" fill="none" stroke="#000" stroke-width="3" stroke-linecap="round" stroke-linejoin="round"/></symbol><symbol id="camera-alt" viewBox="0 0 100 100"><path d="M23.96 14c-5.5 0-9.96 4.459-9.96 9.959V76.04c0 5.5 4.46 9.959 9.96 9.959h52.08c5.5 0 9.96-4.459 9.96-9.959V23.96c0-5.5-4.46-9.959-9.96-9.959H23.96zM68 50c0-9.941-8.059-18-18-18s-18 8.059-18 18 8.059 18 18 18 18-8.059 18-18z" fill="none" stroke="#000" stroke-width="3" stroke-linecap="round" stroke-linejoin="round"/></symbol><symbol id="camera" viewBox="0 0 100 100"><path d="M14 32.52c0-4.548 3.682-8.234 8.224-8.234h55.552A8.224 8.224 0 0 1 86 32.52v34.96c0 4.548-3.682 8.234-8.224 8.234H22.224A8.224 8.224 0 0 1 14 67.48V32.52zm36 34.966c9.657 0 17.486-7.829 17.486-17.486S59.657 32.514 50 32.514 32.514 40.343 32.514 50 40.343 67.486 50 67.486zm0-6.172c6.249 0 11.314-5.065 11.314-11.314S56.25 38.686 50 38.686 38.686 43.75 38.686 50 43.75 61.314 50 61.314z" fill="none" stroke="#000" stroke-width="3" stroke-linecap="round"/></symbol><symbol id="card-fill" viewBox="0 0 100 100"><g stroke="#000" stroke-width="3" stroke-linecap="round" stroke-linejoin="round"><path d="M14 31.001A4.999 4.999 0 0 1 19.006 26h61.988A5 5 0 0 1 86 31.001v37.998A4.999 4.999 0 0 1 80.994 74H19.006A5 5 0 0 1 14 68.999V31.001zM23 52.5h46m-46 10h22" fill="none"/><path d="M14 35h72v8H14z"/></g></symbol><symbol id="card" viewBox="0 0 100 100"><path d="M14 31.001A4.999 4.999 0 0 1 19.006 26h61.988A5 5 0 0 1 86 31.001v37.998A4.999 4.999 0 0 1 80.994 74H19.006A5 5 0 0 1 14 68.999V31.001zM23 52.5h46m-46 10h22M14 35h72v8H14v-8z" fill="none" stroke="#000" stroke-width="3" stroke-linecap="round" stroke-linejoin="round"/></symbol><symbol id="check-circle" viewBox="0 0 100 100"><g fill="none" stroke="#000" stroke-width="3" stroke-linecap="round" stroke-linejoin="round"><circle cx="50" cy="50" r="36"/><path d="M31 52.647l11.176 11.177L69 37"/></g></symbol><symbol id="check" viewBox="0 0 100 100"><path d="M14 54.235l21.176 21.177L86 24.588" fill="none" stroke="#000" stroke-width="3" stroke-linecap="round" stroke-linejoin="round"/></symbol><symbol id="clock" viewBox="0 0 100 100"><path d="M75 50H50V25m0 61c19.882 0 36-16.118 36-36S69.882 14 50 14 14 30.118 14 50s16.118 36 36 36z" fill="none" stroke="#000" stroke-width="3" stroke-linecap="round" stroke-linejoin="round"/></symbol><symbol id="coffee" viewBox="0 0 100 100"><path d="M69.742 43.778l1.24-10.561a.867.867 0 0 0-.88-.995H30.12c-.553 0-.944.445-.88.995l1.239 10.56h39.262zm-2.919 24.889l-1.447 12.339c-.064.549-.568.994-1.125.994h-28.28c-.557 0-1.06-.446-1.125-.994L33.4 68.666h33.424zM25.02 23.417c.135-.537.7-.973 1.248-.973h47.113c.554 0 1.112.433 1.248.974l1.967 7.83c.135.538-.206.974-.763.974H23.816c-.556 0-.898-.433-.763-.973l1.967-7.831zm7.02-4.474c.192-.521.798-.943 1.345-.943h32.562c.55 0 1.154.426 1.345.943l.948 2.559c.193.52-.102.942-.644.942h-35.86c-.549 0-.835-.426-.644-.942l.947-2.56zm-3.691 25.826a.882.882 0 0 1 .894-.991H70.98c.55 0 .95.453.895.99l-2.322 22.908a1.127 1.127 0 0 1-1.096.99h-36.69c-.55 0-1.041-.453-1.096-.99L28.35 44.769z" fill="none" stroke="#000" stroke-width="3" stroke-linecap="round" stroke-linejoin="round"/></symbol><symbol id="contacts" viewBox="0 0 100 100"><path d="M16.944 18.008c0-1.661 1.351-3.008 2.991-3.008h55.113c4.422 0 8.008 3.58 8.008 7.996v54.008c0 4.416-3.578 7.996-8.008 7.996H19.935a2.992 2.992 0 0 1-2.99-3.008V18.008zm10.209-2.522v68.056M54.86 31.145c-10.38 0-18.84 8.454-18.855 18.846-.007 5.13 2.017 10.104 5.555 13.647A17.658 17.658 0 0 0 54.9 68.839c10.552-.432 18.817-8.71 18.817-18.846 0-10.393-8.458-18.848-18.855-18.848zM41.34 62.87c.566-4.885 3.454-8.996 7.673-10.933a8.528 8.528 0 0 1-2.71-6.233c0-4.72 3.84-8.56 8.56-8.56 4.719 0 8.559 3.84 8.559 8.56a8.528 8.528 0 0 1-2.711 6.233c4.219 1.937 7.107 6.048 7.673 10.933" fill="none" stroke="#000" stroke-width="3" stroke-linecap="round"/></symbol><symbol id="dash-circle" viewBox="0 0 100 100"><g fill="none" stroke="#000" stroke-width="3" stroke-linecap="round" stroke-linejoin="round"><circle cx="50" cy="50" r="36"/><path d="M31.564 50h36.872"/></g></symbol><symbol id="dash" viewBox="0 0 100 100"><path d="M14 50h72" fill="none" stroke="#000" stroke-width="3" stroke-linecap="round" stroke-linejoin="round"/></symbol><symbol id="desktop" viewBox="0 0 100 100"><path d="M12.5 22.997c0-4.416 3.58-7.997 7.99-7.997h59.02c4.412 0 7.99 3.587 7.99 7.997v39.006c0 4.416-3.58 7.997-7.99 7.997H20.49c-4.412 0-7.99-3.587-7.99-7.997V22.997zM13.5 61H87m-42 9v11m10-11v11m-23.5 1.5c0-1.38 1.128-2.5 2.5-2.5h32c1.38 0 2.5 1.11 2.5 2.5 0 1.38-1.128 2.5-2.5 2.5H34c-1.38 0-2.5-1.11-2.5-2.5z" fill="none" stroke="#000" stroke-width="3" stroke-linejoin="round"/></symbol><symbol id="diploma" viewBox="0 0 100 100"><path d="M18 24h64c2.21 0 4 1.79 4 4.016v43.968C86 74.202 84.202 76 82 76H18c-2.21 0-4-1.79-4-4.016V28.016C14 25.798 15.798 24 18 24zm7 37h12M25 50h16M25 39h18m17 14v11.87l4.935-3.432L70 65V53m-2.4-1.511L65 54l-2.6-2.511-3.58.506-.625-3.558L55 46.745l1.588-3.245L55 40.255l3.195-1.692.625-3.558 3.58.506L65 33l2.6 2.511 3.58-.506.625 3.558L75 40.255 73.412 43.5 75 46.745l-3.195 1.692-.625 3.558-3.58-.506z" fill="none" stroke="#000" stroke-width="3" stroke-linecap="round" stroke-linejoin="round"/></symbol><symbol id="document" viewBox="0 0 100 100"><path d="M26.559 14a4.998 4.998 0 0 0-5 5.006v61.988A4.997 4.997 0 0 0 26.559 86h46.884a4.997 4.997 0 0 0 4.998-5V33.56c0-1.105-.652-2.627-1.439-3.38L61.538 15.379c-.794-.761-2.335-1.378-3.43-1.378h-31.55zm33.54.96v11.596a5.002 5.002 0 0 0 5.006 5.002h12.38" stroke="#000" stroke-width="3" stroke-linecap="round" stroke-linejoin="round" fill="none"/></symbol><symbol id="donut" viewBox="0 0 100 100"><path d="M50 86c19.882 0 36-16.118 36-36S69.882 14 50 14 14 30.118 14 50s16.118 36 36 36zm0-24c6.627 0 12-5.373 12-12s-5.373-12-12-12-12 5.373-12 12 5.373 12 12 12z" fill="none" stroke="#000" stroke-width="3" stroke-linecap="round" stroke-linejoin="round"/></symbol><symbol id="down" viewBox="0 0 100 100"><path d="M14 32l36 36 36-36" stroke="#000" stroke-width="3" stroke-linecap="round" stroke-linejoin="round" fill="none"/></symbol><symbol id="edit" viewBox="0 0 100 100"><path d="M15.624 84.792l3.927-11.152 50.244-50.249 7.23 7.23L26.78 80.867l-11.156 3.926zm-2.29 2.291l3.333-3.333-3.334 3.333zm57.5-63.333l2.501-2.5-2.502 2.5zm5.833 5.833l2.5-2.5-2.5 2.5zm5.854-4.015l3.227 3.228L67.5 47.044m8.44-14.81l3.227 3.228M19.55 73.64l7.23 7.23-7.23-7.23zm58.213-58.602l7.616 7.616-4.37 4.37-7.617-7.616 4.37-4.37z" stroke="#000" stroke-width="3" stroke-linecap="round" stroke-linejoin="round" fill="none"/></symbol><symbol id="email" viewBox="0 0 100 100"><path d="M15 31.997A7.996 7.996 0 0 1 22.996 24h54.008A7.992 7.992 0 0 1 85 31.997v36.006A7.996 7.996 0 0 1 77.004 76H22.996A7.992 7.992 0 0 1 15 68.003V31.997zm69.911-.503L49.96 55.001 15.006 31.494m27.866 18.709L15.095 68.884l27.777-18.681m14.35 0L85 68.884 57.223 50.203" fill="none" stroke="#000" stroke-width="3" stroke-linecap="round" stroke-linejoin="round"/></symbol><symbol id="experience" viewBox="0 0 100 100"><path d="M24.247 82.191C18.625 82.191 14 77.567 14 71.945v-29.29c0-5.622 4.625-10.247 10.247-10.247h51.415c5.623 0 10.247 4.625 10.247 10.247v29.29C86 77.567 81.375 82.19 75.662 82.19H24.247zM14 66.322h72M41.113 54.534h17.774M27.874 32.136v-2.902c0-6.257 5.169-11.425 11.426-11.425h21.49c6.258 0 11.427 5.168 11.427 11.425v2.902" fill="none" stroke="#000" stroke-width="3" stroke-linecap="round" stroke-linejoin="round"/></symbol><symbol id="external" viewBox="0 0 100 100"><path d="M82 38v40.993A3 3 0 0 1 78.999 82H21.001A2.997 2.997 0 0 1 18 78.999V21.001A3 3 0 0 1 21.007 18H62m26.956-7.189L57.988 42.133m11.257-31.234h19.8v19.8" fill="none" stroke="#000" stroke-width="3" stroke-linecap="round" stroke-linejoin="round"/></symbol><symbol id="faq" viewBox="0 0 100 100"><path d="M23.224 18.057h55.552c4.542 0 8.224 3.688 8.224 8.226v39.092a8.225 8.225 0 0 1-8.224 8.225H57.17L51 85.943 44.829 73.6H23.224C18.682 73.6 15 69.913 15 65.375V26.283a8.225 8.225 0 0 1 8.224-8.226zM41.53 34.682c.892-1.81 2.11-2.83 3.676-3.747 1.565-.917 3.281-1.376 5.147-1.376 2.814 0 5.226 1.004 7.234 3.013 2.008 2.008 3.012 4.371 3.012 7.091 0 2.72-.878 5.052-2.633 6.997-1.755 1.945-4.913 3.06-7.475 3.344v5.076l.002 1.201M50.5 62v.5" fill="none" stroke="#000" stroke-width="3" stroke-linecap="round" stroke-linejoin="round"/></symbol><symbol id="filter" viewBox="0 0 100 100"><g fill="none" stroke="#000" stroke-width="3" stroke-linecap="round" stroke-linejoin="round"><path d="M52 77.5H14h38zm13 0h21-21zm-38-27H14h13zm13 0h46-46zm20-27H14h46zm13 0h13-13zM58.5 84a6.5 6.5 0 1 0 0-13 6.5 6.5 0 0 0 0 13zm-25-27a6.5 6.5 0 1 0 0-13 6.5 6.5 0 0 0 0 13zm33-27a6.5 6.5 0 1 0 0-13 6.5 6.5 0 0 0 0 13z"/></g></symbol><symbol id="gift" viewBox="0 0 100 100"><path d="M18 35.924c0-2.21 1.79-4.002 3.993-4.002h57.014A3.997 3.997 0 0 1 83 35.924v8.02c0 2.21-1.79 4.001-3.993 4.001H21.993A3.997 3.997 0 0 1 18 43.943v-8.019zm56.035 12.049V81.977a3.996 3.996 0 0 1-3.995 3.996H28.96a3.99 3.99 0 0 1-3.995-3.995V47.973M50 32.5v53m.004-54.927c-.11-7.598 2.279-11.663 4.398-14.403 1.697-2.193 5.54-3.02 8.134-1.079 2.594 1.941 2.1 5.672 0 8.081-2.378 2.728-6.173 4.993-12.532 7.4zm-.004 0c.11-7.598-2.279-11.663-4.398-14.403-1.697-2.193-5.54-3.02-8.134-1.079-2.594 1.941-2.1 5.672 0 8.081 2.377 2.728 6.173 4.993 12.532 7.4zM46.5 30s-2.533-2.39-11.02-4.775c-8.487-2.385-12.728-2.223-14.98-2.223M53.5 30s2.533-2.39 11.02-4.775c8.487-2.385 12.728-2.223 14.98-2.223" fill="none" stroke="#000" stroke-width="3" stroke-linecap="round" stroke-linejoin="round"/></symbol><symbol id="grades-a" viewBox="0 0 100 100"><path d="M26.559 14a4.998 4.998 0 0 0-5 5.006v61.988A4.997 4.997 0 0 0 26.559 86h46.884a4.997 4.997 0 0 0 4.998-5V33.56c0-1.105-.652-2.627-1.439-3.38L61.538 15.379c-.794-.761-2.335-1.378-3.43-1.378h-31.55zm33.54.96v11.596a5.002 5.002 0 0 0 5.006 5.002h12.38M53.654 69L42.327 38 31 69m4.173-11.327h14.308M63.5 53.5V48v5.5H58h5.5zm0 0V59v-5.5H69h-5.5z" fill="none" stroke="#000" stroke-width="3" stroke-linecap="round" stroke-linejoin="round"/></symbol><symbol id="grades" viewBox="0 0 100 100"><path d="M26.559 14a4.998 4.998 0 0 0-5 5.006v61.988A4.997 4.997 0 0 0 26.559 86h46.884a4.997 4.997 0 0 0 4.998-5V33.56c0-1.105-.652-2.627-1.439-3.38L61.538 15.379c-.794-.761-2.335-1.378-3.43-1.378h-31.55zm33.54.96v11.596a5.002 5.002 0 0 0 5.006 5.002h12.38M41.683 57.832h16.634M63.168 71L50 34.961 36.832 71" fill="none" stroke="#000" stroke-width="3" stroke-linecap="round" stroke-linejoin="round"/></symbol><symbol id="heart" viewBox="0 0 100 100"><path d="M30.53 20.493c-4.224 0-8.449 1.644-11.68 4.848-6.466 6.465-6.466 16.898 0 23.334l8.393 8.391 22.172 22.229c.312.283.851.283 1.134 0l22.23-22.23 8.392-8.391c6.439-6.436 6.439-16.87 0-23.334-6.463-6.435-16.87-6.435-23.335 0l-7.826 7.853-7.826-7.853c-3.232-3.203-7.428-4.847-11.653-4.847z" stroke="#000" stroke-width="3" stroke-linecap="round" stroke-linejoin="round" fill="none"/></symbol><symbol id="home" viewBox="0 0 100 100"><path d="M87.087 40.132l-34.333-24.51c-.827-.552-1.745-.919-2.754-.919-1.01 0-1.928.276-2.754.918l-34.333 24.51c-1.01.735-1.744 1.837-1.928 3.03-.184 1.285.092 2.479.826 3.488.918 1.194 2.295 2.02 3.856 2.02 1.01 0 1.927-.275 2.754-.918l.275-.184L50 25.471l31.395 22.096.275.184c.827.55 1.745.918 2.754.918 1.56 0 2.938-.734 3.856-2.02a5.164 5.164 0 0 0 .734-3.488c-.183-1.285-.918-2.295-1.927-3.03zM50 49.89a6.172 6.172 0 0 0 6.188-6.188A6.172 6.172 0 0 0 50 37.514a6.172 6.172 0 0 0-6.188 6.188A6.172 6.172 0 0 0 50 49.89zm10.052 33.112v-23.08c0-1.652-1.34-2.991-3.002-2.991H42.858a3.001 3.001 0 0 0-3.002 2.99v23.08M18.651 47.814V80.3a4.996 4.996 0 0 0 5.002 4.997h52.694A4.997 4.997 0 0 0 81.35 80.3V47.813" fill="none" stroke="#000" stroke-width="3" stroke-linecap="round" stroke-linejoin="round"/></symbol><symbol id="info" viewBox="0 0 100 100"><g fill="none" stroke="#000" stroke-width="3" stroke-linecap="round" stroke-linejoin="round"><circle cx="50" cy="50" r="36"/><path d="M50 40v30m0-40v.5"/></g></symbol><symbol id="internet" viewBox="0 0 100 100"><path d="M39.622 33.501A84.229 84.229 0 0 0 38 50h24.5c0-5.73-.575-11.275-1.633-16.551a107.55 107.55 0 0 1-21.245.052zM50 34c3.734 0 7.367-.194 10.867-.551-1.393-6.946-3.637-13.414-6.578-19.186A36.342 36.342 0 0 0 50 14c-1.268 0-2.52.067-3.754.195-2.965 5.804-5.226 12.312-6.624 19.306C42.971 33.826 46.441 34 50 34zm29.61-4.469c-5.73-8.272-14.832-14.022-25.32-15.268 2.94 5.772 5.184 12.24 6.577 19.186 6.89-.703 13.245-2.056 18.742-3.918zM62.5 50H86a35.825 35.825 0 0 0-6.391-20.469c-5.497 1.862-11.852 3.215-18.742 3.918A84.198 84.198 0 0 1 62.5 50zM39.622 66.5a107.55 107.55 0 0 1 21.245.051 84.198 84.198 0 0 0 1.633-16.55H38c0 5.71.571 11.238 1.622 16.498zm6.624-52.305c-10.715 1.11-20.029 6.923-25.856 15.336 5.628 1.906 12.152 3.282 19.232 3.97 1.397-6.994 3.66-13.502 6.624-19.306zm-6.624 19.306c-7.079-.688-13.604-2.064-19.23-3.97A35.825 35.825 0 0 0 14 50h24c0-5.711.571-11.24 1.622-16.5zM50 66c-3.559 0-7.029.174-10.378.499 1.398 6.994 3.659 13.502 6.624 19.306A36.37 36.37 0 0 0 50 86c1.453 0 2.882-.096 4.289-.263 2.941-5.772 5.185-12.24 6.578-19.186C57.367 66.194 53.734 66 50 66zm12.5-16c0 5.73-.575 11.275-1.633 16.551 6.89.703 13.245 2.056 18.742 3.918A35.825 35.825 0 0 0 86 50H62.5zm-8.21 35.737c10.487-1.246 19.59-6.996 25.32-15.268-5.498-1.861-11.853-3.215-18.743-3.918-1.393 6.946-3.638 13.414-6.578 19.186zm-33.9-15.268c5.828 8.413 15.142 14.226 25.857 15.336-2.965-5.804-5.227-12.312-6.625-19.306-7.08.688-13.604 2.064-19.231 3.97zM38 50H14a35.825 35.825 0 0 0 6.391 20.469c5.627-1.906 12.152-3.282 19.231-3.97A84.229 84.229 0 0 1 38 50z" fill="none" stroke="#000" stroke-width="3" stroke-linecap="round" stroke-linejoin="round"/></symbol><symbol id="left" viewBox="0 0 100 100"><path d="M68 86L32 50l36-36" stroke="#000" stroke-width="3" stroke-linecap="round" stroke-linejoin="round" fill="none"/></symbol><symbol id="lightbulb" viewBox="0 0 100 100"><g fill="none" stroke="#000" stroke-width="3" stroke-linecap="round" stroke-linejoin="round"><path d="M24 40.25a26.321 26.321 0 0 0 10.978 21.367l.325.214c1.597.94 3.61 4.903 3.573 5.46l-.008 1.205v8.62c0 1.645-.012 3.143 1.449 3.896l7.882 4.509a4.35 4.35 0 0 0 3.952.01l7.983-4.512c1.47-.742 1.469-2.25 1.469-3.904V68.55c0-4.317 4.483-7.615 4.511-7.623l.965-.627a26.236 26.236 0 0 0 9.285-20.05C76.364 25.776 64.62 14 50.182 14 35.75 14 24 25.776 24 40.25zm15.429 29.386H60m-19.636 5.61h20.571"/><path class="line" d="M55.792 22.416s4.676.935 8.416 5.61c3.74 4.675 3.742 10.284 3.742 10.284"/></g></symbol><symbol id="lightning" viewBox="0 0 100 100"><path d="M59.068 14.392L27.135 56.818c-.378.542.094 1.404.725 1.404h18.746l-7.95 26.636c-.127.415.094.894.473 1.053a.883.883 0 0 0 1.104-.287l32.628-42.842c.378-.542-.064-1.403-.726-1.403H52.886l7.762-26.221c.188-.575-.38-1.245-.948-1.149-.253.032-.505.16-.632.383z" fill="none" stroke="#000" stroke-width="3" stroke-linecap="round" stroke-linejoin="round"/></symbol><symbol id="local-save" viewBox="0 0 100 100"><path d="M38 26a6 6 0 1 0 0-12 6 6 0 0 0 0 12zm-.354 39.495s2.065-3.456 5.375-5.284c7.683-4.245 17.025-3.242 19.267-15.41M37.5 27v46.5M38 86a6 6 0 1 0 0-12 6 6 0 0 0 0 12zm15.48-69a.48.48 0 0 0-.48.48v17.954a.48.48 0 0 0 .16.358l5.701 5.086a.478.478 0 0 0 .32.122H76.52a.48.48 0 0 0 .48-.48V17.48a.48.48 0 0 0-.48-.48H53.48zm7.187 18.667h12v5.28h-12v-5.28zM58.412 30h13.176c.228 0 .412-.17.412-.381v-7.238c0-.21-.184-.381-.412-.381H58.412c-.228 0-.412.17-.412.381v7.238c0 .21.184.381.412.381z" fill="none" stroke-width="3" stroke="#000" stroke-linecap="round" stroke-linejoin="round"/></symbol><symbol id="local" viewBox="0 0 100 100"><path d="M38 26a6 6 0 1 0 0-12 6 6 0 0 0 0 12zm-.354 39.495s2.065-3.456 5.375-5.284c7.683-4.245 17.025-3.242 19.267-15.41M37.5 27v46.5M38 86a6 6 0 1 0 0-12 6 6 0 0 0 0 12zm25-42a6 6 0 1 0 0-12 6 6 0 0 0 0 12z" fill="none" stroke="#000" stroke-width="3" stroke-linecap="round" stroke-linejoin="round"/></symbol><symbol id="location" viewBox="0 0 100 100"><path d="M24.286 39.714C24.209 25.513 35.799 14 50 14c14.201 0 25.791 11.513 25.714 25.714C75.6 60.866 50 86 50 86S24.4 60.866 24.286 39.714zM50 50c5.68 0 10.286-4.605 10.286-10.286 0-5.68-4.605-10.285-10.286-10.285-5.68 0-10.286 4.605-10.286 10.285S44.32 50 50 50z" fill="none" stroke="#000" stroke-width="3" stroke-linecap="round" stroke-linejoin="round"/></symbol><symbol id="lock" viewBox="0 0 100 100"><path d="M50 87.5c12.99 0 23.52-10.53 23.52-23.52S62.99 40.46 50 40.46 26.48 50.99 26.48 63.98 37.01 87.5 50 87.5zm-15.414-41V28.045c0-8.585 6.957-15.545 15.543-15.545 8.584 0 15.543 6.963 15.543 15.545V46.5M53.524 68.006a8.4 8.4 0 1 0-6.72.144v4.583a3.36 3.36 0 1 0 6.72 0v-4.727z" fill="none" stroke="#000" stroke-width="3" stroke-linecap="round" stroke-linejoin="round"/></symbol><symbol id="logout" viewBox="0 0 100 100"><path d="M38.987 23.741c-12.19 4.524-20.905 16.328-20.905 30.143C18.082 71.593 32.4 86 50 86s31.918-14.407 31.918-32.116c0-13.815-8.715-25.62-20.903-30.143M50 14v40.498" stroke="#000" stroke-width="3" stroke-linecap="round" stroke-linejoin="round" fill="none"/></symbol><symbol id="menu-circle" viewBox="0 0 100 100"><g fill="none" stroke="#000" stroke-width="3" stroke-linecap="round" stroke-linejoin="round"><circle cx="50" cy="50" r="36"/><path d="M31 35.5h38M31 50.5h38M31 65.5h38"/></g></symbol><symbol id="menu" viewBox="0 0 100 100"><g fill="none" stroke="#000" stroke-width="3" stroke-linecap="round" stroke-linejoin="round"><path d="M14 23h72M14 50h72M14 77h72"/></g></symbol><symbol id="message" viewBox="0 0 100 100"><path d="M23.224 18.057h55.552c4.542 0 8.224 3.688 8.224 8.226v39.092a8.225 8.225 0 0 1-8.224 8.225H57.17L51 85.943 44.829 73.6H23.224C18.682 73.6 15 69.913 15 65.375V26.283a8.225 8.225 0 0 1 8.224-8.226z" fill="none" stroke="#000" stroke-width="3" stroke-linecap="round" stroke-linejoin="round"/></symbol><symbol id="mobile" viewBox="0 0 100 100"><path d="M28 22.224C28 17.682 31.751 14 36.38 14h27.24c4.628 0 8.38 3.682 8.38 8.224v55.552C72 82.318 68.249 86 63.62 86H36.38C31.752 86 28 82.318 28 77.776V22.224zM35 26h30v48H35V26z" fill="none" stroke="#000" stroke-linecap="round" stroke-linejoin="round" stroke-width="3"/></symbol><symbol id="money" viewBox="0 0 100 100"><path d="M50 86c19.882 0 36-16.118 36-36S69.882 14 50 14 14 30.118 14 50s16.118 36 36 36zm12-45c0-9-9.058-10.487-12-10.487S38 32 38 41c0 5.43 4.675 8.136 12 9.24 7.325 1.104 12 3.57 12 9 0 9-9.058 10.487-12 10.487S38 68.24 38 59.24m12-35.766v53.052" fill="none" stroke="#000" stroke-width="3" stroke-linecap="round"/></symbol><symbol id="more" viewBox="0 0 100 100"><g fill="none" stroke="#000" stroke-width="3" stroke-linecap="round" stroke-linejoin="round"><circle cx="20" cy="50.5" r="6"/><circle cx="49.5" cy="50.5" r="6"/><circle cx="80" cy="50.5" r="6"/></g></symbol><symbol id="mute" viewBox="0 0 100 100"><g fill="none" stroke="#000" stroke-width="3" stroke-linecap="round" stroke-linejoin="round"><path d="M50 86c19.882 0 36-16.118 36-36S69.882 14 50 14 14 30.118 14 50s16.118 36 36 36zm-6.276-24.158h-9.047c-3.595 0-6.677-2.814-6.677-6.097v-11.49c0-3.283 3.082-6.097 6.677-6.097h9.047v23.684zM66 75V25L43.724 38.158v23.684L66 75z"/><path d="M24.42 74.614l50.199-50.2" class="mute"/></g></symbol><symbol id="notifications" viewBox="0 0 100 100"><path d="M83.782 78.307H16.217v-5.78l8.297-8.518v-16.67c0-12.535 8.298-22.834 20.151-25.342v-2.44C44.665 16.593 47.035 14 50 14c2.964 0 5.335 2.593 5.335 5.557v2.44c11.854 2.507 20.152 12.807 20.152 25.342v16.67l8.297 8.519v5.78zm-41.475 0a7.693 7.693 0 1 0 15.386 0" fill="none" stroke="#000" stroke-width="3" stroke-linecap="round"/></symbol><symbol id="pause" viewBox="0 0 100 100"><path d="M50 86c19.882 0 36-16.118 36-36S69.882 14 50 14 14 30.118 14 50s16.118 36 36 36zM39 36.498C39 35.118 40.11 34 41.5 34a2.5 2.5 0 0 1 2.5 2.498v27.004C44 64.882 42.89 66 41.5 66a2.5 2.5 0 0 1-2.5-2.498V36.498zm17.5 0C56.5 35.118 57.61 34 59 34a2.5 2.5 0 0 1 2.5 2.498v27.004C61.5 64.882 60.39 66 59 66a2.5 2.5 0 0 1-2.5-2.498V36.498z" fill="none" stroke="#000" stroke-width="3" stroke-linecap="round" stroke-linejoin="round"/></symbol><symbol id="phone" viewBox="0 0 100 100"><path d="M83.794 79.382l-5.124 5.125c-.915.914-3.594 1.484-3.68 1.484a60.471 60.471 0 0 1-43.284-17.695 60.545 60.545 0 0 1-17.703-43.433c0-.007.587-2.61 1.501-3.514l5.124-5.125c1.875-1.884 5.476-2.735 8-1.89l1.077.359c2.516.843 5.157 3.625 5.852 6.187l2.577 9.46c.695 2.57-.242 6.226-2.116 8.101l-3.422 3.422c3.36 12.435 13.116 22.194 25.553 25.561l3.42-3.423c1.884-1.883 5.539-2.82 8.103-2.126l9.459 2.587c2.563.704 5.344 3.329 6.187 5.843l.36 1.094c.835 2.516-.01 6.117-1.884 7.983z" fill="none" stroke="#000" stroke-width="3" stroke-linecap="round" stroke-linejoin="round"/></symbol><symbol id="photo" viewBox="0 0 100 100"><path d="M41.027 77.77h33.97c3.32 0 4.616-2.3 2.904-5.139L60.112 43.138c-1.714-2.842-4.486-2.838-6.198 0l-12.883 21.36-2.668-4.421c-1.715-2.845-4.486-2.838-6.197 0l-7.573 12.555c-1.715 2.844-.408 5.138 2.911 5.138h13.523zM22.996 15h54.008A7.995 7.995 0 0 1 85 22.994v54.012A7.995 7.995 0 0 1 77.004 85H22.996A7.995 7.995 0 0 1 15 77.006V22.994A7.995 7.995 0 0 1 22.996 15zM28 34a6 6 0 1 0 0-12 6 6 0 0 0 0 12z" fill="none" stroke="#000" stroke-width="3" stroke-linecap="round" stroke-linejoin="round"/></symbol><symbol id="play-pause" viewBox="0 0 100 100"><g fill="none" stroke="#000" stroke-width="3" stroke-linecap="round" stroke-linejoin="round"><circle cx="50" cy="50" r="36"/><path d="M56.5 36.498C56.5 35.118 57.61 34 59 34a2.5 2.5 0 0 1 2.5 2.498v27.004C61.5 64.882 60.39 66 59 66a2.5 2.5 0 0 1-2.5-2.498V36.498zm-17.5 0C39 35.118 40.11 34 41.5 34a2.5 2.5 0 0 1 2.5 2.498v27.004C44 64.882 42.89 66 41.5 66a2.5 2.5 0 0 1-2.5-2.498V36.498z" class="pause"/><path d="M62.216 47.615c.41.336.746.665.746 1.19 0 .526-.24.844-.746 1.19l-17.92 13.091c-.298.19-1.478.273-1.494-.952V35.476c.002-1.133 1.08-1.222 1.494-.951l17.92 13.09z" class="play"/></g></symbol><symbol id="play" viewBox="0 0 100 100"><path d="M50 86c19.882 0 36-16.118 36-36S69.882 14 50 14 14 30.118 14 50s16.118 36 36 36zm12.216-38.385c.41.336.746.665.746 1.19 0 .526-.24.844-.746 1.19l-17.92 13.091c-.298.19-1.478.273-1.494-.952V35.476c.002-1.133 1.08-1.222 1.494-.951l17.92 13.09z" fill="none" stroke="#000" stroke-width="3" stroke-linecap="round" stroke-linejoin="round"/></symbol><symbol id="plus-circle" viewBox="0 0 100 100"><g fill="none" stroke="#000" stroke-width="3" stroke-linecap="round" stroke-linejoin="round"><circle cx="50" cy="50" r="36"/><path d="M50 50V31.564 50H31.564 50zm0 0v18.436V50h18.436H50z"/></g></symbol><symbol id="plus" viewBox="0 0 100 100"><path d="M50 50V14v36H14h36zm0 0v36-36h36-36z" stroke="#000" stroke-width="3" stroke-linecap="round" stroke-linejoin="round"/></symbol><symbol id="popular" viewBox="0 0 100 100"><path d="M62.205 34.934C46.208 24.321 53.442 14 53.442 14 37.9 22.95 34.462 36.607 38.268 53.872c-5.608-4.54-6.413-9.918-6.237-16.956-7.134 7.628-8.411 15.758-7.943 24.449.742 13.783 12.459 24.753 26.335 24.634 13.48-.116 24.882-11.319 25.533-24.927.55-11.46-4.289-19.86-13.751-26.138z" fill="none" stroke="#000" stroke-width="3" stroke-linecap="round" stroke-linejoin="round"/></symbol><symbol id="profile" viewBox="0 0 100 100"><g fill="none" stroke="#000" stroke-width="3" stroke-linecap="round" stroke-linejoin="round"><rect x="14" y="14" width="72" height="72" rx="4"/><circle class="line" cx="50" cy="40" r="16"/><path class="line" d="M28.5 65.5h43.503M23.49 75.5h52.513"/></g></symbol><symbol id="question" viewBox="0 0 100 100"><path d="M30 24.868c1.892-3.843 4.478-6.004 7.799-7.95C41.119 14.973 44.759 14 48.717 14c5.97 0 11.085 2.13 15.345 6.39s6.39 9.274 6.39 15.044c0 5.769-1.862 10.716-5.585 14.842-3.723 4.126-10.423 6.49-15.857 7.094v10.767c0 .671.005 2.55.005 2.55m.014 12.131v1.06" fill="none" stroke="#000" stroke-width="3" stroke-linecap="round" stroke-linejoin="round"/></symbol><symbol id="right" viewBox="0 0 100 100"><path d="M32 86l36-36-36-36" stroke="#000" stroke-width="3" stroke-linecap="round" stroke-linejoin="round" fill="none"/></symbol><symbol id="safety" viewBox="0 0 100 100"><g fill="none" stroke="#000" stroke-width="3" stroke-linecap="round" stroke-linejoin="round"><circle stroke-dasharray="10,7.2" cx="50" cy="50" r="36"/><path d="M50.424 50.136l-4.825 6.89m4.901-6.89l4.825 6.89m-4.825-17.8v10.718m5.278-6.316H45.222m5.278-4.976c2.29 0 4.147-1.885 4.147-4.21 0-2.326-1.857-4.212-4.147-4.212s-4.147 1.886-4.147 4.211c0 2.326 1.857 4.21 4.147 4.21zm16.164 21.227l-4.825 6.89m4.9-6.89l4.826 6.89m-4.825-17.8v10.719m5.278-6.316H61.462m5.278-4.976c2.29 0 4.147-1.886 4.147-4.211 0-2.326-1.857-4.21-4.147-4.21s-4.147 1.884-4.147 4.21c0 2.325 1.856 4.21 4.147 4.21zM34.185 59.879l-4.826 6.89m4.901-6.89l4.825 6.89m-4.825-17.8v10.719m5.278-6.316H28.982m5.278-4.976c2.29 0 4.147-1.886 4.147-4.211 0-2.326-1.856-4.21-4.147-4.21-2.29 0-4.147 1.884-4.147 4.21 0 2.325 1.857 4.21 4.147 4.21z"/></g></symbol><symbol id="satisfaction" viewBox="0 0 100 100"><path d="M83.999 49.877a7.078 7.078 0 0 1-1.176-8.245 7.084 7.084 0 0 0 .195-6.237 6.987 6.987 0 0 0-4.802-3.937c-2.976-.68-5.167-3.23-5.41-6.295a7.042 7.042 0 0 0-3.183-5.353 6.924 6.924 0 0 0-6.15-.694 6.94 6.94 0 0 1-7.926-2.348A6.96 6.96 0 0 0 50 14a6.957 6.957 0 0 0-5.547 2.77 6.94 6.94 0 0 1-7.926 2.346 6.924 6.924 0 0 0-6.15.694 7.041 7.041 0 0 0-3.183 5.353c-.244 3.066-2.436 5.615-5.41 6.295a6.986 6.986 0 0 0-4.802 3.938 7.08 7.08 0 0 0 .194 6.237 7.077 7.077 0 0 1-1.177 8.245 7.067 7.067 0 0 0-1.928 5.93 7.033 7.033 0 0 0 3.507 5.141c2.664 1.498 4.055 4.567 3.433 7.577a7.079 7.079 0 0 0 1.557 6.04 6.947 6.947 0 0 0 5.708 2.413c3.045-.193 5.86 1.632 6.95 4.505a6.999 6.999 0 0 0 4.548 4.231 6.927 6.927 0 0 0 6.096-1.081 6.93 6.93 0 0 1 8.261 0 6.928 6.928 0 0 0 6.096 1.081 6.998 6.998 0 0 0 4.549-4.231c1.09-2.873 3.906-4.697 6.95-4.505a6.945 6.945 0 0 0 5.707-2.413 7.078 7.078 0 0 0 1.558-6.04c-.622-3.011.766-6.08 3.431-7.577a7.026 7.026 0 0 0 3.507-5.141 7.07 7.07 0 0 0-1.93-5.93zM50 26c-13.213 0-23.98 10.761-24 23.989-.01 6.53 2.568 12.861 7.071 17.37C37.35 71.64 43.032 74 49.075 74c.322 0 .647-.006.973-.02C63.478 73.43 74 62.892 74 49.99 74 36.763 63.234 26 50 26zm0 30l-7.053 3.708 1.347-7.854-5.707-5.562 7.886-1.146L50 38l3.527 7.146 7.886 1.146-5.707 5.562 1.347 7.854L50 56z" fill="none" stroke="#000" stroke-width="3" stroke-linecap="round" stroke-linejoin="round"/></symbol><symbol id="save" viewBox="0 0 100 100"><path d="M84.56 14H15.44A1.44 1.44 0 0 0 14 15.44v53.862c0 .41.175.802.482 1.075l17.102 15.257c.264.237.605.366.959.366H84.56A1.44 1.44 0 0 0 86 84.56V15.44A1.44 1.44 0 0 0 84.56 14zM48.5 71.5v14M33 70h41.04v15.84H33V70zm2.267-25.5h15.466m-15.233-9h29M27.44 56.24h46.08a1.44 1.44 0 0 0 1.44-1.44V27.44A1.44 1.44 0 0 0 73.52 26H27.44A1.44 1.44 0 0 0 26 27.44V54.8c0 .796.645 1.44 1.44 1.44z" fill="none" stroke="#000" stroke-width="3" stroke-linecap="round" stroke-linejoin="round"/></symbol><symbol id="search-plus" viewBox="0 0 100 100"><path d="M43 27v32M27 43h32M42.5 71C58.24 71 71 58.24 71 42.5S58.24 14 42.5 14 14 26.76 14 42.5 26.76 71 42.5 71zm20.494-8.006l22.668 22.668" fill="none" stroke="#000" stroke-width="3" stroke-linecap="round" stroke-linejoin="round"/></symbol><symbol id="search" viewBox="0 0 100 100"><path d="M42.5 71C58.24 71 71 58.24 71 42.5S58.24 14 42.5 14 14 26.76 14 42.5 26.76 71 42.5 71zm20.494-8.006l22.668 22.668" fill="none" stroke="#000" stroke-width="3" stroke-linecap="round" stroke-linejoin="round"/></symbol><symbol id="settings" viewBox="0 0 100 100"><path d="M77.707 34.003C72.167 24.444 61.822 18.001 50 18V8v10h-.002c-11.82 0-22.165 6.444-27.705 16.003L13.627 29l8.666 5.003A31.805 31.805 0 0 0 18 50a31.805 31.805 0 0 0 4.293 15.997L13.627 71l8.666-5.003C27.833 75.557 38.178 82 49.998 82L50 92V82c11.822 0 22.167-6.444 27.707-16.003L86.373 71l-8.666-5.003A31.804 31.804 0 0 0 82 50a31.804 31.804 0 0 0-4.293-15.997L86.373 29l-8.666 5.003zM50 68C40.075 68 32 59.925 32 50s8.075-18 17.999-18C59.925 32 68 40.075 68 50s-8.075 18-18.001 18z" stroke="#000" stroke-width="3" stroke-linecap="round" stroke-linejoin="round" fill="none"/></symbol><symbol id="share" viewBox="0 0 100 100"><path d="M31 22H20.999A2.996 2.996 0 0 0 18 25.001v57.998A2.997 2.997 0 0 0 21.001 86h57.998A2.997 2.997 0 0 0 82 82.999V25.001A2.999 2.999 0 0 0 79.003 22H70m-20.125-8l.25 44.045M36 28l14-14 14 14" fill="none" stroke="#000" stroke-width="3" stroke-linecap="round"/></symbol><symbol id="shield-lock" viewBox="0 0 100 100"><path d="M50 87.5l-.356-.111c-.316-.098-7.79-2.5-15.291-11.616-12.393-15.059-14.994-36.546-14.994-51.92v-1.168l1.167-.036c.18-.005 18.18-.656 28.7-9.499L50 12.5l.774.65c10.534 8.855 28.52 9.494 28.7 9.5l1.167.035v1.167c0 15.374-2.601 36.862-14.993 51.92-7.501 9.116-14.976 11.52-15.29 11.617L50 87.5zM50 71c7.732 0 14-6.268 14-14s-6.268-14-14-14-14 6.268-14 14 6.268 14 14 14zm4.914-15.928a4.914 4.914 0 1 0-6.784 4.546V62.3a1.965 1.965 0 1 0 3.932 0v-2.766a4.915 4.915 0 0 0 2.852-4.462zM41 46v-9a9 9 0 0 1 9-9 9 9 0 0 1 9 9v9" fill="none" stroke="#000" stroke-width="3" stroke-linecap="round" stroke-linejoin="round"/></symbol><symbol id="shield-star" viewBox="0 0 100 100"><path d="M50 87.5l-.356-.111c-.316-.098-7.79-2.5-15.291-11.616-12.393-15.059-14.994-36.546-14.994-51.92v-1.168l1.167-.036c.18-.005 18.18-.656 28.7-9.499L50 12.5l.774.65c10.534 8.855 28.52 9.494 28.7 9.5l1.167.035v1.167c0 15.374-2.601 36.862-14.993 51.92-7.501 9.116-14.976 11.52-15.29 11.617L50 87.5zm0-30l-8.817 4.635 1.684-9.817-7.133-6.953 9.858-1.433L50 35l4.408 8.932 9.858 1.433-7.133 6.953 1.684 9.817L50 57.5z" fill="none" stroke="#000" stroke-width="3" stroke-linecap="round" stroke-linejoin="round"/></symbol><symbol id="shield" viewBox="0 0 100 100"><path d="M50 87.5l-.356-.111c-.316-.098-7.79-2.5-15.291-11.616-12.393-15.059-14.994-36.546-14.994-51.92v-1.168l1.167-.036c.18-.005 18.18-.656 28.7-9.499L50 12.5l.774.65c10.534 8.855 28.52 9.494 28.7 9.5l1.167.035v1.167c0 15.374-2.601 36.862-14.993 51.92-7.501 9.116-14.976 11.52-15.29 11.617L50 87.5z" fill="none" stroke="#000" stroke-width="3" stroke-linecap="round" stroke-linejoin="round"/></symbol><symbol id="skip" viewBox="0 0 100 100"><path d="M68.364 20.092A6.096 6.096 0 0 1 74.454 14a6.096 6.096 0 0 1 6.092 6.092v59.816A6.096 6.096 0 0 1 74.455 86a6.096 6.096 0 0 1-6.091-6.092V20.092zM65.61 47.046c.961.84 1.753 1.662 1.753 2.977 0 1.312-.563 2.11-1.753 2.973L23.509 85.724c-.7.477-3.473.681-3.509-2.38V16.698c.003-2.832 2.536-3.056 3.509-2.378L65.61 47.046z" fill="none" stroke="#000" stroke-width="3" stroke-linecap="round" stroke-linejoin="round"/></symbol><symbol id="star-half" viewBox="0 0 100 100"><path fill="none" stroke="#000" stroke-width="3" stroke-linecap="round" stroke-linejoin="round" d="M50 68L28.84 79.125l4.041-23.563-17.119-16.687 23.658-3.437L50 14l10.58 21.438 23.658 3.437-17.119 16.687 4.041 23.563z"/><path d="M50 68L28.84 79.125l4.041-23.563-17.119-16.687 23.658-3.437L50 14z"/></symbol><symbol id="star" viewBox="0 0 100 100"><path fill="none" stroke="#000" stroke-width="3" stroke-linecap="round" stroke-linejoin="round" d="M50 68L28.84 79.125l4.041-23.563-17.119-16.687 23.658-3.437L50 14l10.58 21.438 23.658 3.437-17.119 16.687 4.041 23.563z"/></symbol><symbol id="stats" viewBox="0 0 100 100"><g fill="none" stroke-linecap="round" stroke-linejoin="round" stroke="#000" stroke-width="3"><path d="M15 80.998C15 83.208 16.8 85 19.002 85h61.996C83.208 85 85 83.2 85 80.998V19.002C85 16.792 83.2 15 80.998 15H19.002C16.792 15 15 16.8 15 19.002v61.996z"/><path d="M74.646 36.05L55.493 55.203 44.797 44.507 25.354 63.95m40.542-27.9h8.746v8.75" class="line"/></g></symbol><symbol id="support" viewBox="0 0 100 100"><path d="M45.196 16.749C27.916 16.749 14 29.566 14 45.249c0 8.535 4.133 16.467 11.183 21.861l1.134.868.086 9.173 8.851-4.856 1.135.304a33.936 33.936 0 0 0 8.807 1.151c17.28 0 31.196-12.817 31.196-28.5 0-15.684-13.915-28.501-31.196-28.501M76.92 46.88C82.401 50.23 86 55.938 86 62.388c0 5.581-2.703 10.77-7.313 14.297l-.742.567-.057 5.999-5.788-3.176-.742.2a22.194 22.194 0 0 1-5.76.752c-6.625 0-12.494-2.88-16.217-7.33" stroke="#000" stroke-width="3" stroke-linecap="round" stroke-linejoin="round" fill="none"/><path d="M57.5 50a2.5 2.5 0 1 0 0-5 2.5 2.5 0 0 0 0 5zm-24 0a2.5 2.5 0 1 0 0-5 2.5 2.5 0 0 0 0 5zm12 0a2.5 2.5 0 1 0 0-5 2.5 2.5 0 0 0 0 5z"/></symbol><symbol id="switch" viewBox="0 0 100 100"><g fill="none" stroke="#000" stroke-width="3" stroke-linecap="round" stroke-linejoin="round"><path d="M29.485 42.274l-12.002 8.394L9.5 38.39M21.444 64.224C26.688 74.754 37.519 82 50 82c17.6 0 31.918-14.407 31.918-32.116"/><path d="M78.554 35.776C73.31 25.246 62.48 18 49.998 18c-17.6 0-31.918 14.407-31.918 32.116M70.52 57.726l12.002-8.394 7.983 12.279"/></g></symbol><symbol id="timeline" viewBox="0 0 100 100"><path d="M18.364 54.845C15.92 54.845 14 52.933 14 50.5s1.92-4.345 4.364-4.345c2.443 0 4.363 1.912 4.363 4.345s-1.92 4.345-4.363 4.345zm0 27.155C15.92 82 14 80.088 14 77.655s1.92-4.345 4.364-4.345c2.443 0 4.363 1.912 4.363 4.345S20.807 82 18.364 82zm0-54.31C15.92 27.69 14 25.778 14 23.345S15.92 19 18.364 19c2.443 0 4.363 1.912 4.363 4.345s-1.92 4.345-4.363 4.345zm0 44.534V55.931m0-10.862V28.776M79.148 80H48.135a6.853 6.853 0 0 1-6.852-6.854V58.743L33 50l8.283-7.543V26.854A6.855 6.855 0 0 1 48.135 20h31.013A6.853 6.853 0 0 1 86 26.854v46.292A6.855 6.855 0 0 1 79.148 80z" fill="none" stroke="#000" stroke-width="3" stroke-linecap="round" stroke-linejoin="round"/></symbol><symbol id="transcript" viewBox="0 0 100 100"><path d="M26.559 14a4.998 4.998 0 0 0-5 5.006v61.988A4.997 4.997 0 0 0 26.559 86h46.884a4.997 4.997 0 0 0 4.998-5V33.56c0-1.105-.652-2.627-1.439-3.38L61.538 15.379c-.794-.761-2.335-1.378-3.43-1.378h-31.55zm33.54.96v11.596a5.002 5.002 0 0 0 5.006 5.002h12.38M32.975 69.75h34.06m-34.06-13h34.06m-34.06-12.5h34.06" fill="none" stroke="#000" stroke-width="3" stroke-linecap="round" stroke-linejoin="round"/></symbol><symbol id="up-circle" viewBox="0 0 100 100"><g fill="none" stroke="#000" stroke-width="3" stroke-linecap="round" stroke-linejoin="round"><circle cx="50" cy="50" r="36"/><path d="M32 57l18-18 18 18"/></g></symbol><symbol id="up" viewBox="0 0 100 100"><path d="M14 68l36-36 36 36" stroke="#000" stroke-width="3" stroke-linecap="round" stroke-linejoin="round" fill="none"/></symbol><symbol id="upcoming" viewBox="0 0 100 100"><path d="M20 28.5a6 6 0 1 0 0-12 6 6 0 0 0 0 12zm17.5 56h32m-32-12h48M20 84.5a6 6 0 1 0 0-12 6 6 0 0 0 0 12zm17.903-28h32m-32-12h48M20 56.5a6 6 0 1 0 0-12 6 6 0 0 0 0 12zm17.903-28h32m-32-12h48" fill="none" stroke="#000" stroke-width="3" stroke-linecap="round" stroke-linejoin="round"/></symbol><symbol id="user" viewBox="0 0 100 100"><path d="M50 14c-19.82 0-35.97 16.142-36 35.984-.014 9.795 3.851 19.291 10.607 26.054C31.024 82.462 39.549 86 48.612 86c.484 0 .97-.01 1.46-.03C70.218 85.144 86 69.338 86 49.986 86 30.143 69.851 14 50 14zM24.183 74.572c1.08-9.327 6.595-17.175 14.65-20.873-3.177-2.984-5.176-7.208-5.176-11.9 0-9.012 7.331-16.343 16.343-16.343s16.343 7.331 16.343 16.343c0 4.692-1.999 8.916-5.176 11.9 8.055 3.698 13.57 11.546 14.65 20.873" fill="none" stroke="#000" stroke-width="3" stroke-linecap="round" stroke-linejoin="round"/></symbol><symbol id="video" viewBox="0 0 100 100"><path d="M67.17 43.155v-10.87c0-3.062-2.481-5.547-5.535-5.547h-42.1c-3.054 0-5.535 2.485-5.535 5.546v35.432c0 3.061 2.48 5.546 5.534 5.546h42.1c3.054 0 5.536-2.485 5.536-5.546V56.845L86 65.789V34.211L71.919 40.9l-4.749 2.254zM41.404 62.137c6.703 0 12.136-5.434 12.136-12.137s-5.433-12.137-12.136-12.137c-6.703 0-12.137 5.434-12.137 12.137s5.434 12.137 12.137 12.137z" fill="none" stroke="#000" stroke-width="3" stroke-linecap="round" stroke-linejoin="round"/></symbol><symbol id="bus-stop" viewBox="0 0 100 100"><path d="M33.445 33.111c-1.89 0-3.445 1.246-3.445 2.788v13.98c0 1.542 1.554 2.788 3.445 2.788H66.58c1.893 0 3.421-1.246 3.421-2.787V35.899c0-1.542-1.528-2.788-3.42-2.788H33.444zM27.181 18h46.64C76.157 18 78 19.733 78 21.899v49.092c0 2.137-1.778 3.84-4.056 3.898h-8.298a.83.83 0 0 0-.374 0H27.305c-.093-.029-.156-.029-.25-.029h-.03C24.778 74.774 23 73.098 23 70.99V21.899C23.001 19.733 24.842 18 27.181 18zm7.833 42.667c2.238 0 3.986 1.555 3.986 3.543 0 1.963-1.748 3.568-3.986 3.568-2.24 0-4.014-1.605-4.014-3.568 0-1.988 1.775-3.543 4.014-3.543zm30.987 0c2.231 0 3.999 1.555 3.999 3.543 0 1.963-1.768 3.568-3.999 3.568-2.233 0-4.001-1.605-4.001-3.568 0-1.988 1.768-3.543 4.001-3.543zM29 74.889h8v5.824c0 .735-.679 1.287-1.546 1.287h-4.906C29.68 82 29 81.447 29 80.713v-5.824H29zm35 0h8v5.824c0 .735-.679 1.287-1.546 1.287h-4.906C64.68 82 64 81.447 64 80.713v-5.824H64zM38 25.11a2.665 2.665 0 0 1 2.675-2.667h19.65A2.673 2.673 0 0 1 63 25.111a2.665 2.665 0 0 1-2.675 2.667h-19.65A2.673 2.673 0 0 1 38 25.11z" fill="none" stroke="#000" stroke-width="3" stroke-linecap="round" stroke-linejoin="round"/></symbol><symbol id="cafe" viewBox="0 0 100 100"><path d="M69.742 43.778l1.24-10.561a.867.867 0 0 0-.88-.995H30.12c-.553 0-.944.445-.88.995l1.239 10.56h39.262zm-2.919 24.889l-1.447 12.339c-.064.549-.568.994-1.125.994h-28.28c-.557 0-1.06-.446-1.125-.994L33.4 68.666h33.424zM25.02 23.417c.135-.537.7-.973 1.248-.973h47.113c.554 0 1.112.433 1.248.974l1.967 7.83c.135.538-.206.974-.763.974H23.816c-.556 0-.898-.433-.763-.973l1.967-7.831zm7.02-4.474c.192-.521.798-.943 1.345-.943h32.562c.55 0 1.154.426 1.345.943l.948 2.559c.193.52-.102.942-.644.942h-35.86c-.549 0-.835-.426-.644-.942l.947-2.56zm-3.691 25.826a.882.882 0 0 1 .894-.991H70.98c.55 0 .95.453.895.99l-2.322 22.908a1.127 1.127 0 0 1-1.096.99h-36.69c-.55 0-1.041-.453-1.096-.99L28.35 44.769z" fill="none" stroke="#000" stroke-width="3" stroke-linecap="round" stroke-linejoin="round"/></symbol><symbol id="establishment" viewBox="0 0 100 100"><path d="M19 35.778h62.222L50.111 18 19 35.778zm7.67 6.102h6.223v27.67H26.67V41.88zm13.663 0h6.223v27.67h-6.223V41.88zm13.334 0h6.222v27.67h-6.222V41.88zm14.331 0h6.223v27.67h-6.223V41.88zm-43.665-6.222H75.89v6.222H24.333v-6.222zm0 33.898H75.89v6.222H24.333v-6.222zM19 75.778h62.222V82H19v-6.222z" fill="none" stroke="#000" stroke-width="3" stroke-linecap="round" stroke-linejoin="round"/></symbol><symbol id="grocery" viewBox="0 0 100 100"><path d="M19.669 51.423c-.25-1.076.445-1.948 1.543-1.948h58.62c1.101 0 1.791.876 1.543 1.948l-6.402 27.629C74.723 80.128 73.627 81 72.52 81H28.523c-1.105 0-2.204-.876-2.453-1.948l-6.401-27.63zm4.244 18.441h52.184M22.87 59.458h55.314M32.26 49.475l6.26 31M14 45.27a4.209 4.209 0 0 1 4.209-4.203H81.79A4.209 4.209 0 0 1 86 45.27a4.209 4.209 0 0 1-4.209 4.204H18.21A4.209 4.209 0 0 1 14 45.27zm54.783 4.204l-6.261 31m-12-31v31m-19.704-57.58C31.327 20.743 33.524 19 35.744 19h30.6c2.211 0 4.418 1.75 4.925 3.894l4.296 18.174H26.522l4.296-18.174z" fill="none" stroke="#000" stroke-width="3" stroke-linecap="round" stroke-linejoin="round"/></symbol><symbol id="library" viewBox="0 0 100 100"><path d="M17 25h-5v52h76V25h-5m-66-2s7-2 16-2 17 2 17 2v50s-8-2-17-2-16 2-16 2V23zm33 0s7-2 16-2 17 2 17 2v50s-8-2-17-2-16 2-16 2V23zm0 47.5v6" fill="none" stroke="#000" stroke-width="3" stroke-linecap="round" stroke-linejoin="round"/></symbol><symbol id="lodging" viewBox="0 0 100 100"><path d="M14 59.4h72v8.002H14V59.4zm8.348-12.397h54.998a6.006 6.006 0 0 1 6.002 6.001v6.001m-58.905 8.777v8.217h-5.234v-8.217m60.538 0v8.217h-5.233v-8.217M14 59V32.005A4.005 4.005 0 0 1 18 28c2.21 0 4 1.8 4 4.005V59" fill="none" stroke="#000" stroke-width="3" stroke-linecap="round" stroke-linejoin="round"/></symbol><symbol id="parking" viewBox="0 0 100 100"><path d="M30.216 36.863c-.207-1.085-.29-2.86-.133-3.946 0 0 .762-17.917 19.852-17.917s19.853 17.917 19.853 17.917c.134 1.094.075 2.854-.134 3.946l-6.281 32.878c-.208 1.086-1.275 1.966-2.383 1.966H38.88c-1.108 0-2.173-.873-2.382-1.966l-6.282-32.878zM46.522 74.06c0-1.1.886-1.992 2.008-1.992h1.818c1.109 0 2.008.889 2.008 1.992v8.949c0 1.1-.886 1.992-2.008 1.992H48.53a1.998 1.998 0 0 1-2.008-1.992v-8.949zm0-27.075c0-1.104.886-2 2.008-2h1.818c1.109 0 2.008.896 2.008 2v12.443c0 1.105-.886 2-2.008 2H48.53a2.004 2.004 0 0 1-2.008-2V46.984zm15.561-11.092c0-7.143-5.44-12.933-12.152-12.933-6.712 0-12.153 5.79-12.153 12.933h24.305zm-9.236-6.867l-2.916 6.77" fill="none" stroke="#000" stroke-width="3" stroke-linecap="round" stroke-linejoin="round"/></symbol><symbol id="restaurant" viewBox="0 0 100 100"><path d="M78.778 18v20.432c0 7.178-5.856 12.997-13.047 12.997-7.205 0-13.046-5.823-13.046-12.997V18M65.73 52.17V83M22.864 18l7.214 1.917c3.736.993 6.764 4.933 6.764 8.782v12.03c0 3.858-3.033 7.791-6.764 8.783l-7.214 1.917m0-33.429v65m55.914-48.286v4.73c0 4.568-13.047-4.73-13.047-4.73s-13.046 9.295-13.046 4.73v-4.73M65.73 18v16.817" fill="none" stroke="#000" stroke-width="3" stroke-linecap="round" stroke-linejoin="round"/></symbol><symbol id="theater" viewBox="0 0 100 100"><path d="M19 39s12 5.465 17.455 5.465C43 44.465 55 39 55 39v31.7c0 .602-.158 1.547-.376 2.113 0 0-3.988 13.187-18.17 13.187-14.181 0-17.148-13.164-17.148-13.164A9.129 9.129 0 0 1 19 70.7V39zm9.79 30.636S31.508 74 36.946 74c5.439 0 8.158-4.364 8.158-4.364m-19.579-13.09s1.088-3.273 4.351-3.273 4.351 3.272 4.351 3.272m6.526 0s1.088-3.272 4.351-3.272 4.351 3.272 4.351 3.272M45 14s12 5.465 17.455 5.465C69 19.465 81 14 81 14v31.7c0 .602-.158 1.547-.376 2.113 0 0-3.988 13.187-18.17 13.187-2.992 0-7.566-2.011-7.566-2.011v-19.85l-8.848 2.935c-.575.19-1.04-.149-1.04-.752V14zm9.895 34.91s2.719-4.365 8.158-4.365c5.438 0 8.158 4.364 8.158 4.364M51.63 31.455s1.088-3.273 4.351-3.273c3.264 0 4.351 3.273 4.351 3.273m6.527 0s1.087-3.273 4.35-3.273c3.264 0 4.351 3.273 4.351 3.273" fill="none" stroke="#000" stroke-width="3" stroke-linecap="round" stroke-linejoin="round"/></symbol><symbol id="weight" viewBox="0 0 100 100"><path d="M35.176 50h29.648m18 0H86m-72 0h3.176m1.06-7.667c0-1.657 1.341-3 2.998-3h2.474a2.994 2.994 0 0 1 2.998 3v15.334c0 1.657-1.342 3-2.998 3h-2.474a2.994 2.994 0 0 1-2.999-3V42.333zm8.47-5.337A2.997 2.997 0 0 1 29.704 34h2.474a2.993 2.993 0 0 1 2.998 2.996v26.008A2.997 2.997 0 0 1 32.178 66h-2.474a2.993 2.993 0 0 1-2.998-2.996V36.996zm38.118 0A2.997 2.997 0 0 1 67.822 34h2.474a2.993 2.993 0 0 1 2.998 2.996v26.008A2.997 2.997 0 0 1 70.296 66h-2.474a2.993 2.993 0 0 1-2.998-2.996V36.996zm8.47 5.337c0-1.657 1.342-3 2.998-3h2.474a2.994 2.994 0 0 1 2.999 3v15.334c0 1.657-1.342 3-2.999 3h-2.474a2.994 2.994 0 0 1-2.998-3V42.333z" fill="none" stroke="#000" stroke-width="3" stroke-linecap="round" stroke-linejoin="round"/></symbol><symbol id="cat" viewBox="0 0 100 100"><path d="M40.887 40.762a4.86 4.86 0 0 1-.84-1.01c-2.82 1.503-11.3 5.91-16.003 7.172 1.922 8.885.825 31.32.882 32.28.079 1.425-.868 2.311-.166 3.447 1.072 1.738 3.177 1.902 5.661 1.461 2.486-.448 20.988 4.585 32.581-.172 14.222-8.404-9.504-38.325-22.115-43.178zm41.445 5.677c-6.23 3.65-6.753 9.78-2.512 12.767 2.397 1.69 4.087 2.894 5.131 6.66 1.475 5.31-2.952 13.76-11.459 16.416 0 0-4.731 1.049-5.604-.861M23.242 45.795c3.937-1.196 10.068-3.387 15.127-6.647-.197-2.651.652-5.608 1.012-7.412.566-2.86-.19-4.492-1.704-8.58-.273-.735-1.507-8.897-3.973-9.15-2.432-.25-5.679 8.005-5.679 8.005s-7.005 0-7.842 3.146c-1.007 3.78-4.878 5.835-5.029 6.387-.582 2.128.442 7.907 3.809 8.79 2.053.538 3.54 3.228 4.279 5.461z" fill="none" stroke="#000" stroke-width="3" stroke-linecap="round" stroke-linejoin="round"/></symbol><symbol id="chipotle" viewBox="0 0 100 100"><path d="M86 50c0 19.872-16.128 36-36 36S14 69.872 14 50s16.128-36 36-36 36 16.128 36 36zm-12 0c0 13.248-10.752 24-24 24S26 63.248 26 50s10.752-24 24-24 24 10.752 24 24zm-26.062-6.715C47.835 43.058 46.788 42 46.71 42c-2.102.004-2.995.509-3.836.833-3.357 1.294-3.033 10.575-2.63 11.869.411 1.323 4.61 8.12 6.142 8.982 1.475.83 6.152 2.418 10.267.141.588-.325 2.4-1.582 2.345-2.452-.051-.811-4.01-.581-5.103-1.674a3.63 3.63 0 0 1-.895-1.517s-.805-2.141-.76-2.9c.044-.759 3.15-4.087 3.141-6.662-.008-2.097-1.562-4.132-2.618-4.987-.106-.086-.842-.023-.938.034-.7.414-1.935 1.586-2.747 1.492-.605-.07-.848-1.225-1.141-1.874zM44 40.803c1.46-.137 1.895-.122 3.097.797 1.022.782 1.289 1.576 1.766 2.796.69 1.764 2.531-.879 3.179-1.05.878-.233 3.062.344 3.234-1.024-.87-.097-2.583-.014-2.707-1.263-.12-1.22.695-2.604 1.528-3.387 1.006-.946 3.224-1.953 4.397-.75 1.023 1.048.7 2.724-.5 3.422 2.305 1.391 3.722-1.226 2.632-3.31-1.372-2.623-4.584-2.4-6.788-1.067-1.885 1.139-3.408 2.79-5.027 4.274-.763.7-1.787.014-2.468-.433-.95-.624-1.788.28-2.343.995z" fill="none" stroke="#000" stroke-width="3" stroke-linecap="round" stroke-linejoin="round"/></symbol><symbol id="dog" viewBox="0 0 100 100"><path d="M67.012 25.344s-1.966-4.22-3.233-5c-1.48-.91-5.615-.749-5.615-.749s.385-6.11-1.48-6.566c-3.557-.87-8.289 18.109-9.777 24.498 4.005 1.625 12.607 4.522 16.84 5.227l-.042-.36s-.955-3.085 1.103-3.821c1.384-.495 8.23-1.9 10.142-3.822 1.412-1.422 2.36-6.32 1.173-7.939-1.362-1.861-9.11-1.468-9.11-1.468zm-34.654 55.25c-7.518-5.446-6.45-15.142-8.372-11.356-1.797 3.54-1.176 9.247 2.182 12.998 1.764 1.969 4.598 2.759 6.75 2.67m30.497-40.898c-2.338-.749-12.364-3.961-17.338-5.599-2.522 6.39-15.847 40.966-11.255 46.912 5.062 6.557 23.246-1.13 28.54 0 5.295 1.132 4.642-2.482 4.642-2.482l-4.589-38.83z" fill="none" stroke="#000" stroke-width="3" stroke-linecap="round" stroke-linejoin="round"/></symbol><symbol id="dogecoin" viewBox="0 0 100 100"><path d="M50 86c19.882 0 36-16.118 36-36S69.882 14 50 14 14 30.118 14 50s16.118 36 36 36zm5-50.333c4 0 7-2.922 7-2.922s-.23-.025 2-2.412c2.004-2.144 4.47-3.759 4.853-3.7 4.577.713 1.418 12.63 1.418 12.63s-.304 15.075-2.938 21.9c-2.635 6.824-8.917 15.583-22.395 12.63C31.461 70.838 30 65.666 28.667 60.332c-1.334-5.333 1.666-14.93 4-18C35 39.263 40 35.667 40 35.667s.379-10.46 2.71-10.663c2.33-.204 5.08 8.74 5.08 8.74S51 35.668 55 35.668z" fill="none" stroke="#000" stroke-width="3" stroke-linecap="round" stroke-linejoin="round"/><path d="M38.943 58.694c.288-.1 1.342-.098-.12-1.632 1.98 2.187 6.083-2.638.665-4.168-1.46-.413-5.508-.263-4.93 2.351.115.273 1.364 1.42 1.403 1.308-1.617-.24-.538 2.128 1.113 2.339.32.041 1.564-.093 1.869-.198zm.092 3.044c-2.904-2.03-5.823.651-2.816 1.762 2.133.788 2.389.408 4.322.714 1.294.205 8.743.603 8.87-1.708-.308.028-.033.611 0 0-2.295.208-4.666.694-5.666.886-.742.143-1.514-.627-2.437-.944l-2.273-.71zm13.087-14.965c2.019-.115 3.711 2.456 3.711 2.456s-1.692 2.705-3.538 2.647c-1.846-.057-1.762-.708-3.057-1.016-1.288-.307.865-3.972 2.884-4.087zm-.574 1.289c.274-.356 1.026 1.07 1.138.113.038-.327-.077-.48-1.327-.461-1.25.02-1.807 2.717-1.019 3.166.608.346 1.05.938.857.173-.162-.64-.052-2.469.35-2.991zm-12.41-3.525c1.539 0 2.038.997 2.077 1.554.038.556-.961 2.743-1.961 2.743-.47 0-1.72-.653-1.846-1.659-.142-1.135.915-2.638 1.73-2.638zm-.211.673c.287-.41-1.104.293-1.007 1.56.098 1.266 1.394 1.834 1.11 1.447-1.05-1.424-.275-3.262-.557-2.735.283.213.879-.247.207-.359-.043-.007.221.124.247.087zm1.626.35c-.153 0-.278.134-.278.298 0 .164.125.298.278.298.154 0 .28-.134.28-.298 0-.164-.126-.297-.28-.297z" stroke="#000" stroke-width="3" stroke-linecap="round" stroke-linejoin="round"/></symbol><symbol id="gift-card" viewBox="0 0 100 100"><path d="M14 31.001A4.999 4.999 0 0 1 19.006 26h61.988A5 5 0 0 1 86 31.001v37.998A4.999 4.999 0 0 1 80.994 74H19.006A5 5 0 0 1 14 68.999V31.001zm.5 16.499h71m-52-21v47m-.99-26.438c2.008-5.74 4.684-8.227 6.82-9.782 1.711-1.246 4.452-.952 5.618 1.126 1.167 2.077-.177 4.765-2.211 6.076-2.303 1.485-5.406 2.284-10.226 2.58zm1.813.295c-1.907-5.773-4.539-8.307-6.648-9.9-1.689-1.275-4.434-1.029-5.637 1.028-1.202 2.057.094 4.768 2.105 6.114 2.276 1.525 5.366 2.378 10.18 2.758zm11.273 6.259s-1.764-1.913-7.674-3.821c-5.91-1.908-8.864-1.779-10.431-1.779m-6.087 5.6s1.764-1.913 7.674-3.821c5.91-1.908 8.864-1.779 10.431-1.779" fill="none" stroke="#000" stroke-width="3" stroke-linecap="round" stroke-linejoin="round"/></symbol><symbol id="meal-points" viewBox="0 0 100 100"><path d="M14 31.001A4.999 4.999 0 0 1 19.006 26h61.988A5 5 0 0 1 86 31.001v37.998A4.999 4.999 0 0 1 80.994 74H19.006A5 5 0 0 1 14 68.999V31.001zM66 39v11.002a7 7 0 0 1-14 0V39m7 18.4V74M36 39l3.882 1.035c1.998.533 3.618 2.654 3.618 4.717v6.496c0 2.072-1.627 4.186-3.618 4.717L36 57m0-18v35m30-26v2.547C66 53.007 59 48 59 48s-7 5.005-7 2.547V48m7-9v9.055" fill="none" stroke="#000" stroke-width="3" stroke-linecap="round" stroke-linejoin="round"/></symbol><symbol id="pizza" viewBox="0 0 100 100"><path d="M41.017 16.23L14 84.303l71.85-19.553m-7.71 1.841c-.212-22.666-17.75-41.192-40.008-42.97M86 64.603C84.849 39.558 65.788 19.187 41.328 16m4.821 27.698a6.43 6.43 0 1 0 0-12.86 6.43 6.43 0 0 0 0 12.86zm15.827 17.805a6.43 6.43 0 1 0 0-12.86 6.43 6.43 0 0 0 0 12.86zM33.29 73.373a6.43 6.43 0 1 0 0-12.859 6.43 6.43 0 0 0 0 12.86zm17.65-3.895v-9.892m-8.903-4.946l9.892-4.946M36.1 52.66l-.989-8.903" fill="none" stroke="#000" stroke-width="3" stroke-linecap="round" stroke-linejoin="round"/></symbol><symbol id="tickets" viewBox="0 0 100 100"><path d="M68.64 28.783L54.09 17c-.09.124-.184.246-.282.366-2.891 3.57-7.896 4.31-11.18 1.65L15 53.135c3.283 2.66 3.601 7.709.71 11.28L30.243 76.18c2.891-3.57 7.897-4.309 11.18-1.65l27.628-34.118c-3.283-2.658-3.601-7.708-.71-11.278.097-.12.197-.238.3-.352zM22.855 55.826a.998.998 0 0 1-.15-1.4l23.08-28.5a.995.995 0 0 1 1.4-.146l14.304 11.583a.998.998 0 0 1 .15 1.4l-23.08 28.5a.995.995 0 0 1-1.4.146L22.853 55.826zM66.441 33.75c2.35 1.042 5.254.915 7.742-.586a9.05 9.05 0 0 0 .389-.248l9.71 16.23a9.046 9.046 0 0 0-.4.228c-3.923 2.368-5.327 7.256-3.136 10.918l-37.49 22.624c-2.19-3.663-7.147-4.713-11.07-2.345l-2.904-4.853 1.07.87c2.88-3.573 7.895-4.289 11.201-1.6l27.524-34.136c-2.123-1.727-3.025-4.437-2.636-7.102zm.965 9.732l7.332 11.41a.861.861 0 0 1-.294 1.18L42.9 75.109a.855.855 0 0 1-1.177-.293s25.44-31.74 25.683-31.333z" fill="none" stroke="#000" stroke-width="3" stroke-linecap="round" stroke-linejoin="round"/><path d="M45.176 49.393l-.679 3.825-2.684-3.01-3.921.364 1.94-3.319-1.744-3.6 3.883.958 2.843-2.588.46 3.911 3.501 2-3.599 1.46z" stroke="#000" stroke-width="3" stroke-linecap="round" stroke-linejoin="round"/></symbol></svg>