<svg xmlns="http://www.w3.org/2000/svg" xmlns:xlink="http://www.w3.org/1999/xlink" version="1.1" x="0px" y="0px" viewBox="0 0 100 100" enable-background="new 0 0 100 100" xml:space="preserve"><path d="M87.977,50.101c0,20.471-16.592,37.065-37.061,37.065c-20.468,0-37.061-16.594-37.061-37.065  c0-20.467,16.593-37.059,37.061-37.059C71.385,13.042,87.977,29.634,87.977,50.101L87.977,50.101z M86.027,50.101  c0-19.391-15.721-35.109-35.111-35.109c-19.392,0-35.112,15.719-35.112,35.109c0,19.395,15.72,35.114,35.112,35.114  C70.307,85.215,86.027,69.496,86.027,50.101L86.027,50.101z"></path><g><polygon points="27.968,35.654 29.829,39.818 33.236,36.851 30.702,33.095  "></polygon></g><g><polygon points="58.242,26.56 54.828,31.058 59.484,36.335 64.297,27.802  "></polygon></g><g><polyline points="75.785,44.556 70.818,46.263 73.611,51.227 75.785,44.556  "></polyline></g><g><polyline points="59.68,57.926 57.83,61.887 61.316,63.174 61.316,59.428 59.68,57.926  "></polyline></g><g><polyline points="45.526,42.996 42.655,47.925 45.022,49.488 47.994,47.322 47.994,43.296 45.526,42.996  "></polyline></g><g><polyline points="23.882,53.076 20.412,55.758 23.866,59.34 25.745,57.016 23.882,53.076  "></polyline></g><g><polyline points="33.888,60.502 32.098,64.527 35.102,66.078 35.507,63.49 33.888,60.502  "></polyline></g><g><polyline points="44.49,29.884 41.682,33.414 43.923,34.382 45.235,33.128 45.818,30.652 44.49,29.884  "></polyline></g><g><polyline points="75.418,63.113 72.852,66.135 75.215,68.771 76.777,67.977 76.57,65.971 75.418,63.113  "></polyline></g><g><polygon points="45.693,18.167 45.972,22.169 48.812,20.585 48.812,18.099 45.693,18.099  "></polygon></g><g><polyline points="47.57,57.199 46.215,59.121 47.677,60.84 49.356,59.232 48.761,57.502 47.57,57.199  "></polyline></g><g><polyline points="39.988,73.018 38.262,75.742 40.384,78.17 43.163,76.592 42.405,73.721 39.988,73.018  "></polyline></g><g><polyline points="75.895,29.685 73.016,32.068 74.801,35.339 76.59,32.958 75.895,29.685  "></polyline></g><g><polyline points="55.324,73.545 62.801,70.857 65.395,77.035 61.805,80.422 55.725,77.232 55.324,73.545  "></polyline></g></svg>