<svg xmlns="http://www.w3.org/2000/svg" xmlns:xlink="http://www.w3.org/1999/xlink" version="1.1" x="0px" y="0px" viewBox="0 0 100 125" enable-background="new 0 0 100 100" xml:space="preserve"><g><g><path fill="#000000" d="M49.259,94.039H24.561c-6.254,0-11.342-5.087-11.342-11.341V15.711c0-6.254,5.088-11.342,11.342-11.342    h50.494c6.252,0,11.342,5.088,11.342,11.342v42.654h-5.121V15.711c0-3.43-2.793-6.222-6.221-6.222H24.561    c-3.43,0-6.22,2.792-6.22,6.222v66.987c0,3.43,2.791,6.22,6.22,6.22h24.698V94.039z"/></g><g><path fill="#000000" d="M75.055,94.039H24.561c-6.254,0-11.342-5.087-11.342-11.341V40.042h5.122v42.656    c0,3.43,2.791,6.22,6.22,6.22h50.494c3.428,0,6.221-2.79,6.221-6.22V15.711c0-3.43-2.793-6.222-6.221-6.222h-24.7v-5.12h24.7    c6.252,0,11.342,5.088,11.342,11.342v66.987C86.396,88.952,81.307,94.039,75.055,94.039z"/></g><g><rect x="25.292" y="18.846" fill="#000000" width="24.517" height="5.124"/></g><g><rect x="25.292" y="31.173" fill="#000000" width="48.876" height="5.121"/></g><g><rect x="25.292" y="41.282" fill="#000000" width="48.876" height="5.124"/></g><g><rect x="25.292" y="51.14" fill="#000000" width="12.258" height="5.124"/></g><g><path fill-rule="evenodd" clip-rule="evenodd" fill="#000000" d="M54.092,83.933c-0.05,0.048-0.352,0.269-0.57,0.212    c-0.974-0.247-3.216-1.483-4.909-0.773c-0.529,0.222-0.894,0.552-1.75,0.722c-0.635,0.189-1.015-0.16-1.238-0.617    c-0.67-1.698-2.062-2.674-4.529-2.576c-1.737-0.975-0.889-2.947-1.854-4.324c-0.614-0.874-2.292-1.187-2.367-2.677    c-0.059-1.129,1.02-2.298,0.926-3.502c-0.11-1.383-1.731-2.815-0.411-4.118c1.345-0.682,2.178-1.393,2.469-2.677    c0.279-1.223-0.049-2.2,0.825-2.78c1.235-0.82,3.128,0.039,4.015-1.34c0.424-0.658,1.201-2.035,2.266-2.058    c1.01-0.025,2.003,1.02,3.089,1.028c1.561,0.015,2.771-1.676,4.222-0.619c0.43,0.314,0.61,0.973,1.029,1.442    c0.337,0.38,0.877,0.857,1.338,1.031c0.889,0.333,2.464,0.111,3.091,0.721c0.915,0.887,0.468,3.046,1.234,4.017    c0.664,0.837,2.033,1.032,2.268,2.058c0.33,1.455-1.114,2.502-0.825,4.325c0.176,1.109,1.446,2.161,0.617,3.397    c-0.548,0.821-1.79,1.14-2.266,1.854c-0.924,1.391-0.024,3.685-1.749,4.221C56.008,80.606,55.476,82.606,54.092,83.933z     M57.778,69.367c-0.488-3.587-4.12-6.81-8.239-6.486c-2.222,0.174-3.63,1.286-5.149,2.368c-1.114,1.509-2.065,3.306-2.058,5.561    c0.013,6.382,7.231,9.804,12.458,6.28C56.812,75.191,58.239,72.791,57.778,69.367z"/></g></g><text x="0" y="115" fill="#000000" font-size="5px" font-weight="bold" font-family="'Helvetica Neue', Helvetica, Arial-Unicode, Arial, Sans-serif">Created by alessandra antonetti</text><text x="0" y="120" fill="#000000" font-size="5px" font-weight="bold" font-family="'Helvetica Neue', Helvetica, Arial-Unicode, Arial, Sans-serif">from the Noun Project</text></svg>