<svg xmlns="http://www.w3.org/2000/svg" xmlns:xlink="http://www.w3.org/1999/xlink" version="1.1" x="0px" y="0px" viewBox="0 0 90 112.5" enable-background="new 0 0 90 90" xml:space="preserve"><g><path d="M74.1,60.5H54.5c-1,0-1.8,0.8-1.8,1.8c0,1,0.8,1.8,1.8,1.8h19.6c1,0,1.8-0.8,1.8-1.8C76,61.3,75.1,60.5,74.1,60.5z"/><path d="M74,65.1H54.6c-1,0-1.8,0.8-1.8,1.8c0,1,0.8,1.8,1.8,1.8H74c1,0,1.8-0.8,1.8-1.8C75.8,65.9,75,65.1,74,65.1z"/><path d="M71.4,69.7H57.2c-1,0-1.8,0.8-1.8,1.8c0,1,0.8,1.8,1.8,1.8h14.3c1,0,1.8-0.8,1.8-1.8C73.3,70.6,72.4,69.7,71.4,69.7z"/><path d="M64.3,9.2c-12.7,0-22,9.3-22,22.2c0,7.7,4,12.8,7.2,16.8c1.8,2.3,3.4,4.3,3.6,6l0.7,5.1h3.4l-0.8-6c-0.3-2.5-2-4.7-4.1-7.3   c-3-3.8-6.3-8-6.3-14.5c0-11,7.5-18.6,18.4-18.6c10.8,0,18.4,7.6,18.4,18.6c0,6.5-3.4,10.7-6.3,14.5c-2,2.6-3.8,4.8-4.1,7.3l-0.8,6   h3.4l0.7-5.1c0.2-1.7,1.7-3.7,3.6-6c3.2-4.1,7.2-9.1,7.2-16.8C86.3,18.6,77,9.2,64.3,9.2z"/><polygon points="68.5,35.9 61.6,31.2 65.4,25.6 57,32.4 63.8,36.9 59.2,44.1  "/><path d="M70.1,52.2c0.5-2.5,2.1-5.3,6.1-10c4.8-5.7,6.5-17.9-3-24.6c10.4,12.5,2.5,22.1,0.5,24.6C70.9,45.6,69.9,50.4,70.1,52.2z"/><path d="M34.2,21.6v-2c0-1.9-1.5-3.4-3.4-3.4h-4.3c-0.2,0-0.4-0.2-0.4-0.4v-0.4c0-1.9-1.5-3.4-3.4-3.4h-8.4c-1.9,0-3.4,1.5-3.4,3.4   v0.4c0,0.2-0.2,0.4-0.4,0.4H6.2c-1.9,0-3.4,1.5-3.4,3.4v2c0,1.9,1.5,3.4,3.4,3.4h4.9v49c0,2,1.6,3.6,3.6,3.6h7.5   c2,0,3.6-1.6,3.6-3.6V25h4.9C32.6,25,34.2,23.5,34.2,21.6z M23.6,74.7c0,0.4-0.3,0.7-0.7,0.7h-8.8c-0.4,0-0.7-0.3-0.7-0.7v-3.9h4.5   c0.6,0,1.1-0.5,1.1-1c0-0.6-0.5-1-1.1-1h-4.5V67h4.5c0.6,0,1.1-0.5,1.1-1s-0.5-1-1.1-1h-4.5v-1.7h4.5c0.6,0,1.1-0.5,1.1-1   c0-0.6-0.5-1-1.1-1h-4.5v-1.7h4.5c0.6,0,1.1-0.5,1.1-1c0-0.6-0.5-1-1.1-1h-4.5v-1.7h4.5c0.6,0,1.1-0.5,1.1-1c0-0.6-0.5-1-1.1-1   h-4.5V52h4.5c0.6,0,1.1-0.5,1.1-1c0-0.6-0.5-1-1.1-1h-4.5v-1.7h4.5c0.6,0,1.1-0.5,1.1-1c0-0.6-0.5-1-1.1-1h-4.5v-1.7h4.5   c0.6,0,1.1-0.5,1.1-1c0-0.6-0.5-1-1.1-1h-4.5v-1.7h4.5c0.6,0,1.1-0.5,1.1-1s-0.5-1-1.1-1h-4.5V37h4.5c0.6,0,1.1-0.5,1.1-1   c0-0.6-0.5-1-1.1-1h-4.5v-1.7h4.5c0.6,0,1.1-0.5,1.1-1c0-0.6-0.5-1-1.1-1h-4.5v-1.7h4.5c0.6,0,1.1-0.5,1.1-1s-0.5-1-1.1-1h-4.5   v-3.1h10.2V74.7z M6.2,22.7c-0.6,0-1.1-0.5-1.1-1.1v-2c0-0.6,0.5-1.1,1.1-1.1h4.3c1.5,0,2.7-1.2,2.7-2.7v-0.4   c0-0.6,0.5-1.1,1.1-1.1h8.4c0.6,0,1.1,0.5,1.1,1.1v0.4c0,1.5,1.2,2.7,2.7,2.7h4.3c0.6,0,1.1,0.5,1.1,1.1v2c0,0.6-0.5,1.1-1.1,1.1   H6.2z"/><circle cx="18.5" cy="17.2" r="1.2"/><path d="M39.8,39.7v-2.3c0-1.2-1-2.1-2.1-2.1h-0.9c-1.2,0-2.1,1-2.1,2.1v2.3L30.4,47c-0.3,0.4-0.6,0.9-0.6,1.5v31.2   c0,2.2,1.8,4,4,4h6.6c2.2,0,4-1.8,4-4V48.5c0-0.6-0.3-1-0.6-1.4L39.8,39.7z M37.2,40.8l4.2,7.5l-0.6,0.4l-1.2-0.9   c-0.2-0.2-0.5-0.2-0.7,0l-1.7,1l-1.7-1c-0.2-0.1-0.5-0.1-0.7,0l-1.2,0.8l-0.6-0.4L37.2,40.8z M31.6,47.9   C31.6,47.9,31.6,47.9,31.6,47.9C31.6,47.9,31.7,47.8,31.6,47.9C31.6,47.8,31.6,47.9,31.6,47.9z M41.7,79.7c0,0.7-0.5,1.2-1.2,1.2   h-6.6c-0.7,0-1.2-0.5-1.2-1.2v-3.4h9V79.7z M41.7,75h-9v-1.8h9V75z M41.7,71.8h-1.8V51.1c0-0.4-0.3-0.7-0.7-0.7   c-0.4,0-0.7,0.3-0.7,0.7v20.7h-2.7V51.1c0-0.4-0.3-0.7-0.7-0.7c-0.4,0-0.7,0.3-0.7,0.7v20.7h-1.8v-22l0.5,0.3   c0.2,0.2,0.5,0.2,0.8,0l1.2-0.8l1.7,1c0.2,0.1,0.5,0.1,0.7,0l1.7-1l1.2,0.9c0.2,0.2,0.5,0.2,0.8,0l0.5-0.3V71.8z M42.7,47.9   C42.7,47.9,42.7,47.8,42.7,47.9L42.7,47.9C42.7,47.8,42.7,47.9,42.7,47.9C42.7,47.9,42.7,47.9,42.7,47.9z"/></g><text x="0" y="105" fill="#000000" font-size="5px" font-weight="bold" font-family="'Helvetica Neue', Helvetica, Arial-Unicode, Arial, Sans-serif">Created by Kevin Augustine LO</text><text x="0" y="110" fill="#000000" font-size="5px" font-weight="bold" font-family="'Helvetica Neue', Helvetica, Arial-Unicode, Arial, Sans-serif">from the Noun Project</text></svg>