<?xml version="1.0" encoding="utf-8"?>
<!-- Generator: Adobe Illustrator 16.0.0, SVG Export Plug-In . SVG Version: 6.00 Build 0)  -->
<!DOCTYPE svg PUBLIC "-//W3C//DTD SVG 1.1//EN" "http://www.w3.org/Graphics/SVG/1.1/DTD/svg11.dtd">
<svg version="1.1" id="Layer_1" xmlns="http://www.w3.org/2000/svg" xmlns:xlink="http://www.w3.org/1999/xlink" x="0px" y="0px"
	 width="442.272px" height="442.271px" viewBox="84.864 174.864 442.272 442.271"
	 enable-background="new 84.864 174.864 442.272 442.271" xml:space="preserve">
<g>
	<circle opacity="0.1" fill="#FFFFFF" enable-background="new    " cx="306" cy="396" r="221.136"/>
	<g opacity="0.8">
		<path fill="#FFFFFF" stroke="#FFFFFF" stroke-width="1.9169" stroke-miterlimit="10" d="M306,614.28
			c-120.36,0-218.28-97.92-218.28-218.28c0-120.36,97.92-218.28,218.28-218.28c120.36,0,218.28,97.92,218.28,218.28
			C524.28,516.36,426.36,614.28,306,614.28z M306,180.576c-118.728,0-215.424,96.696-215.424,215.424
			c0,118.728,96.696,215.424,215.424,215.424c118.728,0,215.424-96.695,215.424-215.424
			C521.424,277.272,424.728,180.576,306,180.576z"/>
		<path fill="#FFFFFF" stroke="#FFFFFF" stroke-width="1.9169" stroke-miterlimit="10" d="M265.2,472.296
			c-7.752,0-12.648-6.12-12.648-15.912V335.616c0-9.384,4.896-15.912,12.648-15.912c2.856,0,6.12,0.816,9.792,2.856l104.448,60.384
			c5.712,3.264,8.976,7.752,8.976,13.056c0,4.896-3.264,9.384-8.976,12.648L274.992,469.44
			C271.32,471.072,268.056,472.296,265.2,472.296z M265.2,322.56c-6.12,0-9.792,4.896-9.792,13.056v120.768
			c0,7.752,3.672,13.057,9.792,13.057c2.448,0,5.304-0.816,8.16-2.448l104.856-60.384c4.896-2.856,7.752-6.528,7.752-10.2
			c0-3.672-2.855-7.344-7.752-10.2l-104.856-61.2C270.504,323.376,267.648,322.56,265.2,322.56z"/>
	</g>
</g>
</svg>
