<?xml version="1.0" encoding="utf-8"?>
<!-- Generator: Adobe Illustrator 16.0.0, SVG Export Plug-In . SVG Version: 6.00 Build 0)  -->
<!DOCTYPE svg PUBLIC "-//W3C//DTD SVG 1.1//EN" "http://www.w3.org/Graphics/SVG/1.1/DTD/svg11.dtd">
<svg version="1.1" id="Layer_1" xmlns="http://www.w3.org/2000/svg" xmlns:xlink="http://www.w3.org/1999/xlink" x="0px" y="0px"
	 width="448.917px" height="569.686px" viewBox="81.6 111.216 448.917 569.686"
	 enable-background="new 81.6 111.216 448.917 569.686" xml:space="preserve">
<g>
	<path fill="#51CE9E" d="M433.296,235.248H373.32c-26.112,0-27.744-23.256-27.744-27.744V147.12L433.296,235.248z M469.608,551.448
		V246.264l-124.032-124.44v-0.408h-0.408l-9.792-10.2h-208.08c-15.912,0-45.696,9.792-45.696,45.696v394.944
		c0,15.911,9.384,45.695,45.696,45.695H424.32c0.815,0,1.632,0,2.855,0L414.12,579.6H126.888c-26.112,0-27.744-23.256-27.744-27.743
		V156.912c0-26.112,23.256-27.744,27.744-27.744h200.736l0,0v78.336c0,2.448,0.408,5.304,0.816,8.16H161.16
		c-4.896,0-8.976,4.08-8.976,8.976s4.08,8.976,8.976,8.976h174.216c6.528,10.608,18.36,19.584,37.944,19.584h77.928l0.816,0.816
		V526.56L469.608,551.448z"/>
	<path fill="#51CE9E" d="M291.312,364.992l6.528-4.896l-12.648-10.2L291.312,364.992z M317.016,392.736
		c4.488-3.264,9.792-4.488,15.097-4.488l-31.008-25.704l-8.16,5.712l15.096,38.353C309.264,401.304,312.12,396.408,317.016,392.736
		 M527.136,652.224L527.136,652.224l-180.744-248.88v-0.408c-5.712-8.16-17.136-9.792-25.296-4.079
		c-8.16,5.712-9.792,17.136-4.08,25.296v0.407L497.76,673.032v0.408c5.712,8.159,17.137,9.792,25.296,4.079
		C531.216,671.4,532.848,659.976,527.136,652.224"/>
</g>
</svg>
