<?xml version="1.0" encoding="utf-8"?>
<!-- Generator: Adobe Illustrator 16.0.0, SVG Export Plug-In . SVG Version: 6.00 Build 0)  -->
<!DOCTYPE svg PUBLIC "-//W3C//DTD SVG 1.1//EN" "http://www.w3.org/Graphics/SVG/1.1/DTD/svg11.dtd">
<svg version="1.1" id="Layer_1" xmlns="http://www.w3.org/2000/svg" xmlns:xlink="http://www.w3.org/1999/xlink" x="0px" y="0px"
	 width="175.848px" height="204.816px" viewBox="217.872 293.592 175.848 204.816"
	 enable-background="new 217.872 293.592 175.848 204.816" xml:space="preserve">
<g>
	<rect x="286.824" y="492.288" fill="#FFFFFF" width="57.12" height="6.12"/>
	<path fill="#FFFFFF" d="M393.72,427.008l-4.896-4.896c-2.856,4.487-6.12,8.567-9.792,12.239l-7.345-7.344
		c13.057-14.28,21.217-33.048,21.217-53.856C393.312,329.496,357.816,294,314.16,294c-20.808,0-39.984,8.16-53.856,21.216
		l-7.344-6.936c3.672-3.672,7.752-6.936,12.24-9.792l-4.896-4.896c-4.488,2.856-8.16,6.12-12.24,9.792l-6.12-6.12l-3.672,3.672
		l6.12,6.12c-16.32,17.136-26.52,40.392-26.52,66.096c0,52.224,42.024,95.064,94.248,95.88c0.408,3.672,1.224,13.872-5.712,20.399
		h14.688c0,0-6.12-9.384-4.487-20.399c24.479-0.816,46.512-10.608,62.832-26.521l6.527,6.528l3.672-3.672l-6.527-6.528
		C387.6,435.168,390.864,431.088,393.72,427.008z M314.16,462.096c-49.368,0-89.352-39.983-89.352-89.352
		c0-23.664,9.384-45.288,24.48-61.2l7.344,7.344c-13.056,14.28-21.216,33.048-21.216,53.856c0,43.656,35.496,79.151,79.152,79.151
		c20.808,0,39.983-8.159,53.855-21.216l7.344,7.345C359.448,453.12,337.824,462.096,314.16,462.096z"/>
</g>
</svg>
