<?xml version="1.0" encoding="utf-8"?>
<!-- Generator: Adobe Illustrator 16.0.0, SVG Export Plug-In . SVG Version: 6.00 Build 0)  -->
<!DOCTYPE svg PUBLIC "-//W3C//DTD SVG 1.1//EN" "http://www.w3.org/Graphics/SVG/1.1/DTD/svg11.dtd">
<svg version="1.1" id="Layer_1" xmlns="http://www.w3.org/2000/svg" xmlns:xlink="http://www.w3.org/1999/xlink" x="0px" y="0px"
	 width="493.271px" height="491.232px" viewBox="59.16 150.384 493.271 491.232"
	 enable-background="new 59.16 150.384 493.271 491.232" xml:space="preserve">
<g>
	<path fill="#51CE9E" d="M304.776,150.384C170.136,150.384,59.16,261.36,59.16,396c0,134.64,110.976,245.616,245.616,245.616
		c31.824,0,64.056-6.528,93.84-19.176c6.527-2.04,8.567-8.568,6.527-15.097c-2.04-6.527-8.567-8.567-15.096-6.527
		c-27.744,10.607-55.488,17.136-85.272,17.136C180.744,619.992,80.784,519.624,80.784,396s100.368-223.992,223.992-223.992
		c123.625,0,223.992,100.368,223.992,223.992c0,104.448-62.016,155.856-64.056,157.896c-4.08,4.079-8.567,8.567-12.647,8.567
		c-8.568,0-15.097-6.528-17.137-8.567l-19.176-21.217c17.136-17.136,12.648-31.823,12.648-34.271l-37.944-57.528
		c-6.528-10.607-23.664-15.096-34.272-6.528l-25.703,17.137c-4.08-2.04-15.097-8.568-38.353-40.393
		c-25.704-38.352-23.664-53.448-23.664-55.488l25.704-17.136c10.608-6.528,15.096-23.664,6.528-34.272l-34.272-51.408l-2.04-2.04
		c-2.04,0-8.568-6.528-19.176-6.528s-23.664,4.08-34.272,12.648l-2.04,4.08c-23.664,34.272-27.744,74.664-27.744,76.704v2.04v2.04
		c10.608,46.92,34.272,85.272,48.96,106.896l2.04,4.08l2.04,2.04c17.136,25.704,42.84,57.528,79.152,83.232l2.04,2.04
		c0,0,23.664,8.567,53.448,8.567c10.608,0,19.176,0,29.784-2.04h2.04l19.176,23.664c2.04,2.04,15.096,15.097,34.271,15.097
		c6.528,0,19.177-2.04,27.744-12.648c2.04-2.04,70.584-57.528,70.584-172.992C550.392,261.36,439.416,150.384,304.776,150.384z
		 M323.952,520.032c-34.272-23.664-55.488-51.408-72.624-76.704l-4.08-6.528c-12.648-21.216-36.312-55.488-46.92-98.328
		c0-6.528,6.528-38.352,23.664-64.056c17.136-10.608,23.664-8.568,27.744-8.568l31.824,51.408c0,2.04,0,4.08,0,4.08l-23.664,15.096
		c-4.08,2.04-8.568,4.08-10.608,10.608c-6.528,15.096,2.04,40.392,25.704,74.664c23.664,34.271,42.84,51.408,57.527,51.408
		c6.528,0,10.608-2.04,12.648-6.528l23.664-15.096c0,0,2.04,0,2.04,2.04l34.271,48.96c0,4.08-4.079,12.647-17.136,21.216
		c-6.527,2.04-15.096,2.04-23.664,2.04C347.616,526.152,328.44,522.072,323.952,520.032z"/>
</g>
</svg>
