<svg width="250px" height="250px" viewBox="0 0 250 250" version="1.1" xmlns="http://www.w3.org/2000/svg" xmlns:xlink="http://www.w3.org/1999/xlink">
    <circle class="background" cx="125" cy="125" r="125" fill="none"></circle>
    <path d="M170.538,79 L79.462,79 C76.863,79 75,81.1145 75,83.712 L75,146.8515 C75,149.45 76.863,152 79.462,152 L109,152 L109,160 L102.245,160 C99.567,160 97.391,162.3225 97.391,165 C97.391,167.676 99.566,170 102.245,170 L147.755,170 C150.4335,170 152.6095,167.676 152.6095,165 C152.6095,162.3225 150.4335,160 147.755,160 L141,160 L141,152 L170.538,152 C173.1365,152 175,149.45 175,146.8515 L175,83.712 C175,81.1145 173.1365,79 170.538,79 L170.538,79 Z M147.755,163 C148.7775,163 149.6075,163.9785 149.6075,165 C149.6075,166.0215 148.7775,167 147.755,167 L102.245,167 C101.222,167 100.392,166.0215 100.392,165 C100.392,163.9785 101.223,163 102.245,163 L147.755,163 L147.755,163 Z M112,152 L138,152 L138,160 L112,160 L112,152 Z M172,146.8495 C172,147.794 171.4805,149 170.538,149 L79.462,149 C78.52,149 78,147.794 78,146.8495 L78,139 L172,139 L172,146.8495 L172,146.8495 Z M172,136 L78,136 L78,83.712 C78,82.769 78.52,82 79.462,82 L170.538,82 C171.4805,82 172,82.769 172,83.712 L172,136 L172,136 Z M127.5525,108.827 L126.448,108.827 L126.448,101.339 L126.448,100.487 L131.4675,100.487 C132.32,100.487 132.915,99.8075 132.915,99.041 C132.915,98.19 132.2325,97.595 131.4675,97.595 L126.448,97.595 L126.448,93.679 C126.448,92.828 125.7675,92.2325 125,92.2325 C124.149,92.2325 123.554,92.9145 123.554,93.679 L123.554,97.595 L122.4465,97.595 C118.533,97.595 115.2995,100.828 115.2995,104.743 C115.2995,108.658 118.533,111.89 122.4465,111.89 L123.554,111.89 L123.554,119.294 L123.554,120.23 L118.3615,120.23 C117.5095,120.23 116.9155,120.91 116.9155,121.676 C116.9155,122.528 117.5965,123.1235 118.3615,123.1235 L123.554,123.1235 L123.554,127.1235 C123.554,127.975 124.2335,128.569 125,128.569 C125.8515,128.569 126.448,127.8875 126.448,127.1235 L126.448,123.1235 L127.3835,123.1235 L127.4705,123.1235 L127.5545,123.1235 C131.4675,123.1235 134.702,119.8895 134.702,115.9755 C134.701,112.061 131.5525,108.827 127.5525,108.827 L127.5525,108.827 Z M123.554,101.338 L123.554,108.8265 L122.4465,108.8265 C120.1495,108.8265 118.2775,106.9545 118.2775,104.6565 C118.2775,102.358 120.1495,100.486 122.4465,100.486 L123.554,100.486 L123.554,101.338 L123.554,101.338 Z M127.5525,120.145 L127.3825,120.145 L126.447,120.145 L126.447,119.207 L126.447,111.805 L127.5525,111.805 C129.8495,111.805 131.7225,113.6765 131.7225,115.975 C131.7225,118.271 129.8495,120.145 127.5525,120.145 L127.5525,120.145 Z" class="icon" fill="#FFFFFF"></path>
</svg>