<svg xmlns="http://www.w3.org/2000/svg" xmlns:xlink="http://www.w3.org/1999/xlink" xmlns:sketch="http://www.bohemiancoding.com/sketch/ns" viewBox="0 0 30 30" version="1.1" x="0px" y="0px"><title>education_004-teaching-teacher-teach-instructor-learn-study-school</title><desc>Created with Sketch.</desc><g stroke="none" stroke-width="1" fill="none" fill-rule="evenodd" sketch:type="MSPage"><g sketch:type="MSArtboardGroup" transform="translate(-180.000000, -45.000000)" fill="#000000"><path d="M205.346393,60.4148417 L200.535283,66.5347342 C199.378091,68.0067203 197.824129,67.80869 197.066614,66.0974003 L196.786042,65.4635649 L197.380724,70 L199.494977,70 C199.773894,70 200,70.2157526 200,70.495389 L200,72.504611 C200,72.7782068 199.772413,73 199.49979,73 L182.50021,73 C182.223952,73 182,72.7842474 182,72.504611 L182,70.495389 C182,70.2217932 182.223318,70 182.505023,70 L184.619276,70 L185.213958,65.4635649 L184.206419,68.0878611 C184.008118,68.6043696 183.407584,69.0927004 182.866822,69.1783041 L182.547011,69.2289309 C182.005474,69.3146575 181.286279,69.0384286 180.94175,68.6133188 L180.737993,68.3619055 C180.39297,67.9361858 180.271655,67.1785393 180.469923,66.6621192 L183.84841,57.8623062 C184.243288,56.8337829 185.468618,56 186.560713,56 L195.439287,56 C196.542372,56 197.760291,56.8431052 198.155339,57.8720713 L199.508223,61.3958734 L202.188715,57.9653886 C202.531674,57.526471 203.246728,57.2321144 203.796902,57.3094813 L204.615074,57.4245348 L208.605194,52.8213478 C208.784289,52.6147348 209.104732,52.5991573 209.307292,52.7747396 C209.515954,52.9556116 209.540729,53.2688001 209.358948,53.4785105 L205.345712,58.1083653 L205.589264,58.7104824 C205.79509,59.2193335 205.685314,59.9837223 205.346393,60.4148417 Z M195.103471,60.4043972 C195.073941,60.1810548 195.229061,60 195.454541,60 C195.623013,60 195.809025,60.1287868 195.867768,60.2818095 L197.961635,65.736233 C198.318602,66.6661131 199.105121,66.7836417 199.716972,66.0005365 L204.503476,59.8743108 C204.673366,59.6568693 204.727723,59.2742417 204.625215,59.0205015 L204.564591,58.8704374 C204.461936,58.6163331 204.15819,58.379427 203.887025,58.3414148 L203.726657,58.3189341 C203.455103,58.2808673 203.092795,58.4319708 202.929623,58.6408143 L199.926282,62.4847762 L199.208184,63.4038659 L197.212237,58.2045182 C196.956863,57.5392812 196.163761,57 195.453036,57 L186.546964,57 C185.830758,57 185.041146,57.5444658 184.784401,58.2132758 L181.439966,66.9253704 C181.339502,67.1870737 181.398116,67.5721919 181.570332,67.7848744 L181.672181,67.9106566 C181.844644,68.1236443 182.204382,68.261392 182.474812,68.2184624 L182.634746,68.1930734 C182.905564,68.1500822 183.202113,67.9146286 183.301524,67.6556691 L186.129538,60.2888254 C186.190773,60.1293115 186.377314,60 186.545649,60 C186.769209,60 186.927483,60.1735687 186.896953,60.4043972 L185.627832,70 L196.372168,70 L195.103471,60.4043972 Z M199,71 L199,72 L183,72 L183,71 L199,71 Z M191,54.5 C193.209139,54.5 195,52.709139 195,50.5 C195,48.290861 193.209139,46.5 191,46.5 C188.790861,46.5 187,48.290861 187,50.5 C187,52.709139 188.790861,54.5 191,54.5 Z M191,53.5 C192.656854,53.5 194,52.1568542 194,50.5 C194,48.8431458 192.656854,47.5 191,47.5 C189.343146,47.5 188,48.8431458 188,50.5 C188,52.1568542 189.343146,53.5 191,53.5 Z" sketch:type="MSShapeGroup"></path></g></g></svg>