<svg class='bg-university-icon' height="35" width="35" viewBox="0 0 100 100" version="1.1" xmlns="http://www.w3.org/2000/svg" xmlns:xlink="http://www.w3.org/1999/xlink">
    <path d="M17,25 L12,25 L12,77 L88,77 L88,25 L83,25 M17,23 C17,23 24,21 33,21 C42,21 50,23 50,23 L50,73 C50,73 42,71 33,71 C24,71 17,73 17,73 L17,23 Z M50,23 C50,23 57,21 66,21 C75,21 83,23 83,23 L83,73 C83,73 75,71 66,71 C57,71 50,73 50,73 L50,23 Z M50,70.5 L50,76.5" fill="none" stroke="#000000" stroke-width="3" stroke-linecap="round" stroke-linejoin="round"></path>
</svg>