<?xml version="1.0" encoding="utf-8"?>
<!-- Generator: Adobe Illustrator 16.0.0, SVG Export Plug-In . SVG Version: 6.00 Build 0)  -->
<!DOCTYPE svg PUBLIC "-//W3C//DTD SVG 1.1//EN" "http://www.w3.org/Graphics/SVG/1.1/DTD/svg11.dtd">
<svg version="1.1" id="Layer_1" xmlns="http://www.w3.org/2000/svg" xmlns:xlink="http://www.w3.org/1999/xlink" x="0px" y="0px"
	 width="306.288px" height="212.16px" viewBox="171.42 273.6 306.288 212.16" enable-background="new 171.42 273.6 306.288 212.16"
	 xml:space="preserve">
<g>
	<g>
		<path fill="#FFFFFF" d="M272.136,318.48c-20.808,0-38.76,14.688-38.76,31.416c0,6.936,5.304,11.832,12.648,11.832
			c8.568,0,11.424-5.712,13.464-10.608c2.448-5.304,4.488-9.792,13.872-9.792c8.16,0,12.648,4.08,12.648,11.016
			c0,6.12-5.304,10.2-11.832,15.096c-7.344,5.712-15.504,11.832-15.504,22.848c0,6.12,4.488,13.056,12.24,13.056
			c8.976,0,11.016-5.304,12.648-9.792c0.816-1.632,1.224-3.264,2.04-4.488c1.224-2.04,4.488-4.08,7.752-6.528
			c8.976-6.12,20.808-14.688,20.808-30.192C313.752,327.456,291.312,318.48,272.136,318.48z"/>
		<path fill="#FFFFFF" d="M271.32,408.24c-8.568,0-15.096,6.936-15.096,15.096c0,8.568,6.936,15.096,15.096,15.096
			c8.568,0,15.096-6.936,15.096-15.096S279.48,408.24,271.32,408.24z"/>
	</g>
	<g>
		<path fill="#FFFFFF" d="M370.056,393.552c-5.304,0-9.384,4.08-9.384,9.384c0,5.305,4.08,9.385,9.384,9.385
			c5.305,0,9.385-4.08,9.385-9.385C379.44,397.632,375.36,393.552,370.056,393.552z"/>
		<circle fill="#FFFFFF" cx="395.76" cy="402.936" r="9.384"/>
		<path fill="#FFFFFF" d="M421.464,393.552c-5.304,0-9.384,4.08-9.384,9.384c0,5.305,4.08,9.385,9.384,9.385s9.384-4.08,9.384-9.385
			C430.848,397.632,426.768,393.552,421.464,393.552z"/>
	</g>
	<path fill="#FFFFFF" d="M467.976,439.656c17.544-33.456,11.017-73.44-16.728-98.328c-14.688-13.464-33.864-20.808-53.856-20.808
		c-10.199,0-20.399,2.04-29.783,5.712c0,0,0,0-0.408,0c-3.672-6.12-7.752-11.832-12.648-17.136
		c-20.399-22.848-49.776-35.496-79.968-35.496c-25.704,0-50.184,9.384-69.36,26.928c-35.496,32.232-44.064,86.088-20.808,128.52
		l-9.384,31.416c-0.816,3.264,0,6.937,2.04,9.384c2.448,2.448,5.712,3.672,8.976,2.856l32.232-6.12
		c17.952,12.24,39.576,19.176,60.792,19.176c22.44,0,43.249-6.936,61.201-19.992l1.224-0.815
		c14.688,12.647,33.048,19.584,52.632,19.584c16.32,0,32.64-4.896,46.104-14.28l23.256,4.488c0.815,0,1.224,0,2.04,0
		c2.855,0,5.304-1.225,7.344-3.265c2.448-2.447,3.264-6.119,2.04-9.384L467.976,439.656z M279.072,466.176
		c-18.768,0-37.536-6.12-52.632-17.544c-2.04-1.632-5.304-2.448-7.752-1.632l-20.4,4.08l6.12-19.992
		c0.816-2.448,0.408-5.712-0.816-7.752c-21.216-35.496-14.688-80.784,15.096-107.712C234.192,301.752,254.184,294,275.4,294
		c24.888,0,48.552,10.608,65.28,29.376c3.672,4.08,6.937,8.568,9.792,13.056c-5.304,3.672-9.792,7.752-14.279,12.648
		c-25.704,28.152-28.969,69.768-8.16,100.775c0.408,0.408,0.815,0.816,0.815,1.225l-0.407,0.408
		C313.752,460.464,297.024,466.176,279.072,466.176z M447.984,441.288l3.264,11.016l-11.424-2.04c-2.856-0.407-5.712,0-7.752,1.632
		c-11.017,8.16-24.48,12.648-37.944,12.648c-15.096,0-29.376-5.712-40.8-15.504c-0.408-0.408-0.816-0.816-1.632-1.632
		c-3.265-3.265-6.528-6.937-8.977-11.017c-14.688-23.256-11.832-54.264,7.345-75.479c3.672-4.08,7.752-7.344,12.239-10.608
		c4.08-2.856,8.16-4.896,12.648-6.528c7.344-2.856,14.688-4.08,22.032-4.08c15.096,0,29.783,5.712,40.8,15.504
		c21.624,19.584,26.112,52.224,11.016,77.52C447.576,435.576,447.168,438.432,447.984,441.288z"/>
</g>
</svg>
