
<!-- Generator: Adobe Illustrator 16.0.0, SVG Export Plug-In . SVG Version: 6.00 Build 0)  -->
<!DOCTYPE svg PUBLIC "-//W3C//DTD SVG 1.1//EN" "http://www.w3.org/Graphics/SVG/1.1/DTD/svg11.dtd">
<svg version="1.1" id="Layer_1" xmlns="http://www.w3.org/2000/svg" xmlns:xlink="http://www.w3.org/1999/xlink" x="0px" y="0px"
	 width="370.2px" height="370.2px" viewBox="0 0 370.2 370.2" enable-background="new 0 0 370.2 370.2" xml:space="preserve">
<g>
	<path fill="#FFFFFF" d="M265.883,215.292l-15.096-14.279v-26.929c0-26.928-16.729-49.776-42.023-59.159
		c-2.449-10.609-12.648-18.769-24.48-18.769s-22.032,8.159-24.48,18.769c-25.295,9.383-42.023,32.231-42.023,59.159v26.929
		l-15.096,14.279c-1.225,1.225-2.041,2.855-2.041,4.896v20.4c0,3.672,3.265,6.525,6.937,6.525h47.328
		c0,14.689,13.872,27.744,29.376,27.744s29.375-13.055,29.375-27.744h47.328c4.08,0,6.938-2.854,6.938-6.525v-20.4
		C267.924,218.147,267.108,216.516,265.883,215.292z M184.284,261.395c-8.16,0-15.096-7.344-15.096-14.279h30.602
		C199.788,254.051,192.852,261.395,184.284,261.395z M253.643,234.059H114.924v-11.016l17.135-16.32c0-15.912,0-29.375,0-32.231
		c0-24.072,17.137-44.063,41.209-48.96c0-2.448,0-4.08,0-4.896c0-5.711,4.896-10.607,11.016-10.607
		c6.119,0,11.016,4.896,11.016,10.607c0,0.408,0,2.448,0,4.896c24.479,4.896,41.209,24.888,41.209,48.96c0,3.672,0,16.319,0,32.231
		l17.135,16.32V234.059L253.643,234.059z"/>
	<circle fill="none" stroke="#FFFFFF" stroke-width="3" stroke-miterlimit="10" cx="185.1" cy="185.1" r="183.6"/>
</g>
</svg>
