
<!-- Generator: Adobe Illustrator 16.0.0, SVG Export Plug-In . SVG Version: 6.00 Build 0)  -->
<!DOCTYPE svg PUBLIC "-//W3C//DTD SVG 1.1//EN" "http://www.w3.org/Graphics/SVG/1.1/DTD/svg11.dtd">
<svg version="1.1" id="Layer_1" xmlns="http://www.w3.org/2000/svg" xmlns:xlink="http://www.w3.org/1999/xlink" x="0px" y="0px"
	 width="370.2px" height="370.2px" viewBox="120.9 210.9 370.2 370.2" enable-background="new 120.9 210.9 370.2 370.2"
	 xml:space="preserve">
<g>
	<circle fill="#E5753C" stroke="#E5753C" stroke-width="3" stroke-miterlimit="10" cx="306" cy="396" r="183.6"/>
	<path fill="#FFFFFF" d="M386.784,426.192l-15.096-14.28v-26.928c0-26.928-16.729-49.776-42.024-59.16
		c-2.448-10.608-12.648-18.768-24.48-18.768c-11.832,0-22.032,8.16-24.48,18.768c-25.296,9.384-42.024,32.232-42.024,59.16v26.928
		l-15.096,14.28c-1.224,1.224-2.04,2.855-2.04,4.896v20.4c0,3.672,3.264,6.527,6.936,6.527h47.328
		c0,14.688,13.872,27.744,29.376,27.744c15.504,0,29.375-13.056,29.375-27.744h47.328c4.08,0,6.937-2.855,6.937-6.527v-20.4
		C388.824,429.048,388.008,427.416,386.784,426.192z M305.184,472.296c-8.16,0-15.096-7.344-15.096-14.28h30.601
		C320.688,464.952,313.752,472.296,305.184,472.296z M374.544,444.96h-138.72v-11.016l17.136-16.32c0-15.912,0-29.376,0-32.232
		c0-24.072,17.136-44.064,41.208-48.96c0-2.448,0-4.08,0-4.896c0-5.712,4.896-10.608,11.016-10.608
		c6.12,0,11.016,4.896,11.016,10.608c0,0.408,0,2.448,0,4.896c24.479,4.896,41.208,24.888,41.208,48.96c0,3.672,0,16.32,0,32.232
		l17.136,16.32V444.96L374.544,444.96z"/>
</g>
</svg>
