<svg class="category-photography" width="250px" height="250px" viewBox="0 0 250 250" version="1.1" xmlns="http://www.w3.org/2000/svg" xmlns:xlink="http://www.w3.org/1999/xlink">
    <circle class="background" cx="125" cy="125" r="125" fill="#000000"></circle>
    <path fill-rule="evenodd" d="M148.827185,119.153747 L172.177087,119.153747 L172.177087,119.153747 L172.177087,160.18874 L77.822913,160.18874 L77.822913,119.153747 L77.822913,119.153747 L105.187272,119.153747 C103.426511,122.539054 102.43081,126.383196 102.43081,130.455562 C102.43081,144.005544 113.455979,155.029584 127.00822,155.029584 C140.559332,155.029584 151.583372,144.006673 151.583372,130.455562 C151.583372,126.383196 150.587773,122.539054 148.827185,119.153747 L148.827185,119.153747 Z M147.108738,116.330834 L172.177087,116.330834 L172.177087,98.4584072 L77.822913,98.4584072 L77.822913,116.330834 L106.701313,116.330834 C106.767518,116.330834 106.832663,116.3354 106.89645,116.344233 C111.347737,110.020106 118.703501,105.88041 127.00822,105.88041 C135.306381,105.88041 142.656928,110.014259 147.108738,116.330834 L147.108738,116.330834 Z M86.0985648,95.6354942 L85.5226906,95.6354942 L85.5226906,95.6354942 L85.5226906,90.2527636 C85.5226906,89.4736396 84.8903581,88.8413071 84.1112341,88.8413071 L79.1711363,88.8413071 C78.3920123,88.8413071 77.7596798,89.4736396 77.7596798,90.2527636 L77.7596798,95.6354942 L76.4114565,95.6354942 C75.6323325,95.6354942 75,96.2678267 75,97.0469507 L75,161.600196 C75,162.37932 75.6323325,163.011653 76.4114565,163.011653 L173.588543,163.011653 C174.367667,163.011653 175,162.37932 175,161.599067 L175,97.0469507 L175,88.3998035 C175,87.6206795 174.367667,86.988347 173.588543,86.988347 L104.209246,86.988347 C103.430122,86.988347 102.797789,87.6206795 102.797789,88.3998035 L102.797789,95.6354942 L102.797789,95.6354942 L101.587324,95.6354942 L101.587324,90.2527636 C101.587324,89.4736396 100.954991,88.8413071 100.175867,88.8413071 L87.5100213,88.8413071 C86.7308973,88.8413071 86.0985648,89.4736396 86.0985648,90.2527636 L86.0985648,95.6354942 L86.0985648,95.6354942 Z M105.620702,95.6354942 L172.177087,95.6354942 L172.177087,89.81126 L105.620702,89.81126 L105.620702,95.6354942 Z M80.5825928,95.6354942 L82.6997776,95.6354942 L82.6997776,91.6642201 L80.5825928,91.6642201 L80.5825928,95.6354942 Z M88.9214779,95.6354942 L98.764411,95.6354942 L98.764411,91.6642201 L88.9214779,91.6642201 L88.9214779,95.6354942 Z M127.00822,108.704452 C115.013098,108.704452 105.253723,118.462698 105.253723,130.456691 C105.253723,142.449555 115.013098,152.2078 127.00822,152.2078 C139.002213,152.2078 148.760459,142.449555 148.760459,130.456691 C148.760459,118.462698 139.002213,108.704452 127.00822,108.704452 Z M127.00822,149.220029 C116.66168,149.220029 108.244882,140.803232 108.244882,130.456691 C108.244882,120.11015 116.66168,111.692223 127.00822,111.692223 C137.353632,111.692223 145.7693,120.11015 145.7693,130.456691 C145.7693,140.803232 137.353632,149.220029 127.00822,149.220029 L127.00822,149.220029 Z M127.00822,114.515136 C118.218798,114.515136 111.067795,121.66614 111.067795,130.456691 C111.067795,139.246113 118.218798,146.397116 127.00822,146.397116 C135.796513,146.397116 142.946387,139.246113 142.946387,130.456691 C142.946387,121.66614 135.796513,114.515136 127.00822,114.515136 L127.00822,114.515136 Z M168.335667,114.826786 L151.967288,114.826786 C151.188164,114.826786 150.555832,114.194454 150.555832,113.41533 L150.555832,102.608089 C150.555832,101.828965 151.188164,101.196633 151.967288,101.196633 L168.335667,101.196633 C169.114791,101.196633 169.747123,101.828965 169.747123,102.608089 L169.747123,113.41533 C169.747123,114.195583 169.114791,114.826786 168.335667,114.826786 L168.335667,114.826786 Z M153.378745,112.003873 L166.92421,112.003873 L166.92421,104.019546 L153.378745,104.019546 L153.378745,112.003873 L153.378745,112.003873 Z M98.3161324,110.567575 L88.396416,110.567575 C87.617292,110.567575 86.9849595,109.935242 86.9849595,109.156118 L86.9849595,102.608089 C86.9849595,101.828965 87.617292,101.196633 88.396416,101.196633 L98.3161324,101.196633 C99.0952564,101.196633 99.7275889,101.828965 99.7275889,102.608089 L99.7275889,109.156118 C99.7275889,109.935242 99.0952564,110.567575 98.3161324,110.567575 L98.3161324,110.567575 Z M89.8078725,107.744662 L96.9046759,107.744662 L96.9046759,104.019546 L89.8078725,104.019546 L89.8078725,107.744662 L89.8078725,107.744662 Z M95.4954777,135.251126 C93.1332641,135.251126 91.2125541,133.333804 91.2125541,130.976107 C91.2125541,128.616152 93.1332641,126.696571 95.4954777,126.696571 C97.8543038,126.696571 99.7738847,128.616152 99.7738847,130.976107 C99.7738847,133.333804 97.8543038,135.251126 95.4954777,135.251126 L95.4954777,135.251126 Z M95.4954777,129.519484 C94.6903829,129.519484 94.0354671,130.17327 94.0354671,130.976107 C94.0354671,131.776685 94.6903829,132.428213 95.4954777,132.428213 C96.2983142,132.428213 96.9509716,131.776685 96.9509716,130.976107 C96.9509716,130.17327 96.2983142,129.519484 95.4954777,129.519484 L95.4954777,129.519484 Z" class="icon" fill="#FFFFFF"></path>
</svg>