<svg width="18px" height="18px" viewBox="0 0 18 18" version="1.1" xmlns="http://www.w3.org/2000/svg" xmlns:xlink="http://www.w3.org/1999/xlink">
    <path d="M10.1941364,8.77825 L17.2674453,1.70725 C17.6575175,1.31625 17.6575175,0.68325 17.2674453,0.29325 C16.876373,-0.09775 16.2432558,-0.09775 15.8521834,0.29325 L8.77987471,7.36425 L1.70756598,0.29325 C1.3174938,-0.09775 0.683376458,-0.09775 0.293304276,0.29325 C-0.0977680919,0.68325 -0.0977680919,1.31625 0.293304276,1.70725 L7.365613,8.77825 L0.293304276,15.84925 C-0.0977680919,16.23925 -0.0977680919,16.87225 0.293304276,17.26325 C0.683376458,17.65425 1.3174938,17.65425 1.70756598,17.26325 L8.77987471,10.19225 L15.8521834,17.26325 C16.2432558,17.65425 16.876373,17.65425 17.2664451,17.26325 C17.6575175,16.87225 17.6575175,16.23925 17.2664451,15.84925 L10.1941364,8.77825" fill="#FFFFFF"></path>
</svg>