<svg xmlns="http://www.w3.org/2000/svg" xmlns:xlink="http://www.w3.org/1999/xlink" version="1.1" stroke="0.5" viewBox="0 0 96 120" x="0px" y="0px"><path d="M92.124 36c-0.024 0-0.056 0-0.080 0h-88.168c-0.868 0-1.636-0.56-1.904-1.38-0.268-0.828 0.024-1.728 0.728-2.24l44.084-32c0.704-0.504 1.648-0.504 2.352 0l43.784 31.78c0.708 0.316 1.204 1.016 1.204 1.836 0 1.108-0.896 2.004-2 2.004zM10.036 32h75.844l-37.92-27.528-37.924 27.528z" fill="white"/><path d="M91.96 96h-88c-1.104 0-2-0.9-2-2v-8c0-1.1 0.896-2 2-2h88c1.1 0 2 0.9 2 2v8c0 1.1-0.896 2-2 2zM5.96 92h84v-4h-84v4z" fill="white"/><path d="M19.96 80h-12c-1.104 0-2-0.9-2-2v-36c0-1.104 0.896-2 2-2h12c1.104 0 2 0.896 2 2v36c0 1.1-0.896 2-2 2zM9.96 76h8v-32h-8v32z" fill="white"/><path d="M87.96 80h-12c-1.1 0-2-0.9-2-2v-36c0-1.104 0.9-2 2-2h12c1.1 0 2 0.896 2 2v36c0 1.1-0.896 2-2 2zM77.96 76h8v-32h-8v32z" fill="white"/><path d="M48.212 80c-0.024 0-0.052 0-0.080 0h-0.344c-0.684 0-1.308-0.344-1.672-0.908-2.128-1.172-5.060-1.836-8.204-1.836-3.596 0-7.012 0.868-8.708 2.22-0.6 0.48-1.42 0.572-2.116 0.236-0.692-0.328-1.132-1.032-1.132-1.796v-33.976c0-0.612 0.276-1.184 0.752-1.564 2.176-1.736 6.228-2.772 10.832-2.772 4.216 0 7.956 0.856 10.412 2.336 2.452-1.48 6.196-2.336 10.416-2.336 4.604 0 8.656 1.036 10.828 2.772 0.476 0.38 0.752 0.952 0.752 1.564v33.976c0 0.764-0.44 1.468-1.132 1.796-0.692 0.336-1.512 0.248-2.112-0.236-1.696-1.348-5.112-2.22-8.712-2.22-3.084 0-5.96 0.64-8.080 1.772-0.336 0.58-0.972 0.972-1.7 0.972zM37.912 73.256c3.812 0 7.324 0.804 10.048 2.288 2.728-1.484 6.236-2.288 10.048-2.288 2.932 0 5.704 0.468 7.952 1.32v-29.56c-1.668-0.876-4.5-1.416-7.584-1.416-3.5 0-6.664 0.688-8.416 1.792v18.608c0 1.104-0.896 2-2 2s-2-0.896-2-2v-18.608c-1.748-1.1-4.916-1.792-8.412-1.792-3.084 0-5.92 0.544-7.588 1.416v29.56c2.252-0.848 5.020-1.32 7.952-1.32z" fill="white"/></svg>