<svg viewBox="0 0 94 64" version="1.1" xmlns="http://www.w3.org/2000/svg" xmlns:xlink="http://www.w3.org/1999/xlink"><title>triathalon</title><g fill="none" fill-rule="evenodd"><g id="triathalon" fill="#FFFFFF"><path d="M36.248,64 C35.736,64 35.224,63.804 34.832,63.416 C34.052,62.644 34.052,61.368 34.832,60.588 L64.464,30.956 C65.244,30.184 66.512,30.184 67.292,30.956 C68.072,31.736 68.072,33.012 67.292,33.784 L37.66,63.416 C37.268,63.804 36.756,64 36.248,64 L36.248,64 Z"></path><path d="M92,48 L66,48 C64.896,48 64,47.1 64,46 C64,44.9 64.896,44 66,44 L87,44 L68.492,26.364 C67.696,25.604 67.664,24.332 68.424,23.536 C69.184,22.736 70.452,22.708 71.252,23.46 L93.372,44.544 C93.964,45.12 94.152,45.968 93.848,46.736 C93.552,47.504 92.82,48 92,48 L92,48 Z"></path><path d="M50.336,21.452 C49.696,21.452 49.068,21.148 48.676,20.568 C48.056,19.652 48.292,18.412 49.208,17.796 L64.752,7.248 C65.544,6.716 66.608,6.82 67.288,7.5 L70.912,11.116 C71.692,11.888 71.692,13.172 70.912,13.944 C70.132,14.716 68.864,14.716 68.084,13.944 L65.632,11.492 L51.46,21.104 C51.108,21.344 50.724,21.452 50.336,21.452 L50.336,21.452 Z"></path><path d="M92,28 L82.96,28 C82.416,28 81.9,27.78 81.524,27.4 L72.696,18.316 C71.928,17.524 71.944,16.248 72.736,15.488 C73.524,14.72 74.792,14.736 75.564,15.528 L83.808,24.004 L92.004,24.004 C93.108,24.004 94.004,24.908 94.004,26.004 C94.004,27.1 93.1,28 92,28 L92,28 Z"></path><path d="M80.024,12 C76.716,12 74.024,9.308 74.024,6 C74.024,2.692 76.716,0 80.024,0 C83.328,0 86.024,2.692 86.024,6 C86.024,9.308 83.328,12 80.024,12 L80.024,12 Z M80.024,4 C78.92,4 78.024,4.9 78.024,6 C78.024,7.1 78.92,8 80.024,8 C81.128,8 82.024,7.1 82.024,6 C82.024,4.9 81.124,4 80.024,4 L80.024,4 Z"></path><path d="M26,52 L2,52 C0.896,52 0,51.1 0,50 C0,48.9 0.896,48 2,48 L26,48 C27.104,48 28,48.9 28,50 C28,51.1 27.1,52 26,52 L26,52 Z"></path><path d="M34,40 L2,40 C0.896,40 0,39.1 0,38 C0,36.9 0.896,36 2,36 L34,36 C35.104,36 36,36.9 36,38 C36,39.1 35.1,40 34,40 L34,40 Z"></path><path d="M42,28 L2,28 C0.896,28 0,27.1 0,26 C0,24.9 0.896,24 2,24 L42,24 C43.104,24 44,24.9 44,26 C44,27.1 43.1,28 42,28 L42,28 Z"></path></g></g></svg>