<?xml version="1.0" encoding="utf-8"?>
<!-- Generator: Adobe Illustrator 16.0.0, SVG Export Plug-In . SVG Version: 6.00 Build 0)  -->
<!DOCTYPE svg PUBLIC "-//W3C//DTD SVG 1.1//EN" "http://www.w3.org/Graphics/SVG/1.1/DTD/svg11.dtd">
<svg version="1.1" id="Layer_1" xmlns="http://www.w3.org/2000/svg" xmlns:xlink="http://www.w3.org/1999/xlink" x="0px" y="0px"
	 width="250.26px" height="333.098px" viewBox="0 0 250.26 333.098" enable-background="new 0 0 250.26 333.098"
	 xml:space="preserve">
<path fill="#2C3334" d="M225.303,74.642C212.084,30.598,171.11,0,124.928,0C79.365,0,38.832,29.805,25.074,72.918
	C16.995,73.815,8.684,75.193,0,77.187l2.558,16.737c2.472,0.055,6.599,0.953,6.787,5.686c0.715,17.955,3.3,31.506,9.603,40.722
	c-1.937,1.551-3.285,3.325-3.87,5.374c0,0,7.916-0.169,8.689,0.734c0,0-11.809,20.741-10.01,34.267l7.129-4.238
	c0,0-4.217,32.797,3.277,43.033c0,0,5.784-8.436,7.149-9.64c0,0,5.469,31.899,10.237,38.228c0,0,4.436-6.324,6.483-7.828
	c0,0,2.382,20.304,12.627,31.908l4.437-7.226c0,0,10.922,25.888,8.191,38.229c0,0,8.191-6.621,8.191-8.729
	c0,0,1.023,14.147,18.429,21.976c0,0-0.341-6.322,1.365-8.129c0,0,17.405,14.752,7.849,24.684c0,0,12.43,1.853,16.332-8.805
	c3.902,10.657,16.331,8.805,16.331,8.805c-9.556-9.932,7.849-24.684,7.849-24.684c1.706,1.807,1.366,8.129,1.366,8.129
	c17.405-7.828,18.43-21.976,18.43-21.976c0,2.108,8.19,8.729,8.19,8.729c-2.729-12.342,8.191-38.229,8.191-38.229l4.436,7.226
	c10.246-11.605,12.629-31.91,12.629-31.91c2.048,1.506,6.484,7.826,6.484,7.826c4.769-6.326,10.238-38.229,10.238-38.229
	c1.365,1.204,7.153,9.633,7.153,9.633c7.494-10.235,3.285-43.046,3.285-43.046l7.142,4.214c1.799-13.526-9.981-34.317-9.981-34.317
	c0.773-0.903,8.745-0.835,8.745-0.835c-0.659-2.306-2.279-4.272-4.628-5.959c6.207-11.332,6.337-26.391,9.775-37.346
	c1.267-4.025,2.655-6.087,7.078-6.184l2.093-16.74C242.087,77.53,233.825,75.882,225.303,74.642 M124.928,6.416
	c42.388,0,80.111,27.451,93.37,67.316c-19.04-2.177-39.56-1.956-63.383,4.027c-9.533,2.395-20.589,4.843-30.419,4.54
	c-5.904-0.18-11.494-1.554-16.787-2.788c-25.635-5.973-49.492-9.247-75.642-7.251C45.758,33.202,83.079,6.416,124.928,6.416
	 M142.56,132.654c-1.193,0.057-2.331,1.444-3.406,1.444h-0.002c-5.354,0-3.951,3.388-14.208,3.388
	c-4.507,0-8.193-4.642-10.941-4.772c-1.695-0.126-5.746-0.667-5.746-0.667c-0.014-0.001-0.028-0.171-0.043-0.171
	c-1.676-0.096-2.604-2.036-1.717-3.459c5.655-9.057,8.182-18.314,9.178-23.855c1.312-7.305,5.073-8.07,9.277-8.182
	c7.448-0.2,8.294,5.232,9.598,8.528c3.598,9.094,6.858,17.208,10.158,23.312C145.601,129.871,144.435,132.563,142.56,132.654
	 M12.32,87.88c-3.531,0-6.394-0.728-6.394-1.627c0-0.898,2.862-1.626,6.394-1.626c3.53,0,6.394,0.73,6.394,1.626
	C18.713,87.152,15.85,87.88,12.32,87.88 M57.654,149.254c-27.274,0-35.201-4.97-38.822-36.733c0-21.31-1.396-33.786,39.056-33.71
	c27.276,2.617,55.886,2.357,44.867,34.873C95.914,133.868,85.193,148.515,57.654,149.254 M160.01,175.102
	c-4.909,11.327-18.609,19.323-34.766,19.323c-16.249,0-30.039-7.929-34.988-19.25c-1.908-4.366,1.393-9.078,6.157-9.078h57.433
	C158.604,166.098,161.901,170.736,160.01,175.102 M231.778,112.523c-3.622,31.761-11.544,36.733-38.825,36.733
	c-27.539-0.738-38.26-15.386-45.1-35.569c-11.017-32.519,17.591-32.259,44.87-34.874C233.171,78.738,231.778,91.214,231.778,112.523
	 M238.635,89.509c-3.528,0-6.395-0.73-6.395-1.626c0-0.899,2.866-1.627,6.395-1.627c3.527,0,6.394,0.728,6.394,1.627
	C245.029,88.779,242.166,89.509,238.635,89.509"/>
<text transform="matrix(1 0 0 1 34 141)" fill="#2C3334" font-family="'OpenSans'" font-size="79.387">$</text>
<text transform="matrix(1 0 0 1 174.0386 142.0322)" fill="#2C3334" font-family="'OpenSans'" font-size="79.387">$</text>
</svg>
