<svg viewBox="0 0 64 64" version="1.1" xmlns="http://www.w3.org/2000/svg" xmlns:xlink="http://www.w3.org/1999/xlink">
    <title>Shape</title>
    <g fill="none" fill-rule="evenodd">
        <path d="M0,32 C0,49.7 14.3,64 32,64 C49.4,64 63.5,50.2 63.9,32.9 C63.9,32.6 64,32.3 64,32 C64,14.3 49.7,0 32,0 C14.3,0 0,14.3 0,32 L0,32 L0,32 Z M32,2 C37.1,2 41.9,3.3 46.1,5.6 C46,6.4 46,7.2 46,8 C46,16 51.3,24.1 61.3,25.8 C61.8,27.8 62,29.901 62,32 C62,38.4 56.9,42.4 52.4,45.8 C48.5,48.8 44.799,51.7 44.799,55.7 C44.799,56.7 44.999,57.8 45.4,58.8 C41.4,60.9 36.8,62 32,62 C19.2,62 8.4,54.1 4,42.9 C4.3,34.599 6.2,30.7 8,27.2 C9.8,23.7 11.8,19.5 12,9.599 C17.3,4.9 24.3,2 32,2 L32,2 L32,2 Z M22,32 C22,37.5 26.5,42 32,42 C37.5,42 42,37.5 42,32 C42,26.5 37.5,22 32,22 C26.5,22 22,26.5 22,32 L22,32 L22,32 Z M24,32 C24,27.6 27.6,24 32,24 C36.4,24 40,27.6 40,32 C40,36.4 36.4,40 32,40 C27.6,40 24,36.4 24,32 L24,32 L24,32 Z M60.8,23.7 C52.3,21.8 48,14.7 48,7.9 L48,6.7 C54.1,10.5 58.7,16.6 60.8,23.7 L60.8,23.7 L60.8,23.7 Z M2,32 C2,24.2 5,17 9.9,11.7 C9.6,19.4 7.8,23.2 6.1,26.4 C4.4,29.5 3,33.3 2.4,37.3 C2.1,35.6 2,33.8 2,32 L2,32 L2,32 Z M47.2,57.9 C46.9,57.099 46.8,56.4 46.8,55.7 C46.8,52.599 50.1,50.099 53.6,47.4 C56,45.599 58.5,43.599 60.5,41.2 C58.3,48.3 53.5,54.2 47.2,57.9 L47.2,57.9 L47.2,57.9 Z M19,46 C19.6,46 20,45.6 20,45 C20,44.4 19.6,44 19,44 L15,44 C14.4,44 14,44.4 14,45 C14,45.6 14.4,46 15,46 L19,46 L19,46 Z M22,13 C22,13.6 22.4,14 23,14 C23.6,14 24,13.6 24,13 L24,9 C24,8.4 23.6,8 23,8 C22.4,8 22,8.4 22,9 L22,13 L22,13 Z M16,36 C16,36.6 16.4,37 17,37 C17.6,37 18,36.6 18,36 L18,32 C18,31.4 17.6,31 17,31 C16.4,31 16,31.4 16,32 L16,36 L16,36 Z M46,39 C46,39.6 46.4,40 47,40 C47.6,40 48,39.6 48,39 L48,35 C48,34.4 47.6,34 47,34 C46.4,34 46,34.4 46,35 L46,39 L46,39 Z M21,56 C21,56.6 21.4,57 22,57 C22.6,57 23,56.6 23,56 L23,52 C23,51.4 22.6,51 22,51 C21.4,51 21,51.4 21,52 L21,56 L21,56 Z M47,48 C47.6,48 48,47.6 48,47 C48,46.4 47.6,46 47,46 L43,46 C42.4,46 42,46.4 42,47 C42,47.6 42.4,48 43,48 L47,48 L47,48 Z M31,19 C31,19.6 31.4,20 32,20 C32.6,20 33,19.6 33,19 L33,15 C33,14.4 32.6,14 32,14 C31.4,14 31,14.4 31,15 L31,19 L31,19 Z M43,20 C43.6,20 44,19.6 44,19 C44,18.4 43.6,18 43,18 L39,18 C38.4,18 38,18.4 38,19 C38,19.6 38.4,20 39,20 L43,20 L43,20 Z M10.6,36.8 C10.8,36.6 10.901,36.401 10.901,36.1 C10.901,35.901 10.8,35.6 10.6,35.401 C10.4,35.2 10.2,35.1 9.9,35.1 C9.7,35.1 9.4,35.201 9.2,35.401 L6.4,38.201 C6.2,38.401 6.099,38.701 6.099,38.901 C6.099,39.201 6.2,39.401 6.4,39.6 C6.6,39.8 6.9,39.9 7.1,39.9 C7.401,39.9 7.6,39.799 7.8,39.599 L10.6,36.8 L10.6,36.8 Z M18.2,23.6 C18.4,23.8 18.599,23.901 18.9,23.901 C19.099,23.901 19.4,23.8 19.599,23.6 C19.8,23.4 19.9,23.2 19.9,22.9 C19.9,22.7 19.799,22.4 19.599,22.2 L16.799,19.4 C16.599,19.2 16.299,19.099 16.099,19.099 C15.799,19.099 15.599,19.2 15.4,19.4 C15.2,19.6 15.1,19.9 15.1,20.1 C15.1,20.401 15.201,20.6 15.401,20.8 L18.2,23.6 L18.2,23.6 Z M41.6,8.8 C41.8,8.6 41.901,8.401 41.901,8.1 C41.901,7.901 41.8,7.6 41.6,7.401 C41.4,7.2 41.2,7.1 40.9,7.1 C40.7,7.1 40.4,7.201 40.2,7.401 L37.4,10.201 C37.2,10.401 37.099,10.701 37.099,10.901 C37.099,11.201 37.2,11.401 37.4,11.6 C37.6,11.8 37.9,11.9 38.1,11.9 C38.401,11.9 38.6,11.799 38.8,11.599 L41.6,8.8 L41.6,8.8 Z M51.2,28.6 C51.4,28.8 51.599,28.901 51.9,28.901 C52.099,28.901 52.4,28.8 52.599,28.6 C52.8,28.4 52.9,28.2 52.9,27.9 C52.9,27.7 52.799,27.4 52.599,27.2 L49.799,24.4 C49.599,24.2 49.299,24.099 49.099,24.099 C48.799,24.099 48.599,24.2 48.4,24.4 C48.2,24.6 48.1,24.9 48.1,25.1 C48.1,25.401 48.201,25.6 48.401,25.8 L51.2,28.6 L51.2,28.6 Z M33.2,50.6 C33.4,50.8 33.599,50.901 33.9,50.901 C34.099,50.901 34.4,50.8 34.599,50.6 C34.8,50.4 34.9,50.2 34.9,49.9 C34.9,49.7 34.799,49.4 34.599,49.2 L31.799,46.4 C31.599,46.2 31.299,46.099 31.099,46.099 C30.799,46.099 30.599,46.2 30.4,46.4 C30.2,46.6 30.1,46.9 30.1,47.1 C30.1,47.401 30.201,47.6 30.401,47.8 L33.2,50.6 L33.2,50.6 Z M39.6,56.8 C39.8,56.6 39.901,56.401 39.901,56.1 C39.901,55.901 39.8,55.6 39.6,55.401 C39.4,55.2 39.2,55.1 38.9,55.1 C38.7,55.1 38.4,55.201 38.2,55.401 L35.4,58.201 C35.2,58.401 35.099,58.701 35.099,58.901 C35.099,59.201 35.2,59.401 35.4,59.6 C35.6,59.8 35.9,59.9 36.1,59.9 C36.401,59.9 36.6,59.799 36.8,59.599 L39.6,56.8 L39.6,56.8 Z M58.6,34.8 C58.8,34.6 58.901,34.401 58.901,34.1 C58.901,33.901 58.8,33.6 58.6,33.401 C58.4,33.2 58.2,33.1 57.9,33.1 C57.7,33.1 57.4,33.201 57.2,33.401 L54.4,36.201 C54.2,36.401 54.099,36.701 54.099,36.901 C54.099,37.201 54.2,37.401 54.4,37.6 C54.6,37.8 54.9,37.9 55.1,37.9 C55.401,37.9 55.6,37.799 55.8,37.599 L58.6,34.8 L58.6,34.8 Z" fill="#FFFFFF"></path>
    </g>
</svg>