<svg xmlns="http://www.w3.org/2000/svg" xmlns:xlink="http://www.w3.org/1999/xlink" version="1.1" id="Your_Icon" x="0px" y="0px" width="100px" height="100px" viewBox="0 0 100 100" enable-background="new 0 0 100 100" xml:space="preserve">
<path d="M95.094,38.507c-1.052-0.352-1.909-1.111-2.379-2.102c0,0.001,0,0.002,0,0.003c-0.894-5.214-5.089-9.289-10.361-10.001  v-0.093H78.77c0-2.248-1.822-4.064-4.064-4.064c-2.244,0-4.064,1.817-4.064,4.064c0,0-32.802-0.03-33.001-0.03  c-11.841,0-22.082,6.766-27.129,16.629c-0.024,0.036-0.057,0.067-0.077,0.104C7.156,48.988,1,52.487,1,52.487l2.216,3.428  c1.331,1.185,2.6,1.542,3.961,1.348c0.056,3.445,0.685,6.747,1.794,9.821L8.955,67.09c0,0,3.282,17.126,7.735,20.188  c2.36,1.623,11.453,0,11.453,0l-0.039-1.571C28.117,85.711,28,81.529,28,81.529c0.134-0.982,0.381-1.929,0.734-2.822  c1.544,0.263,3.165,0.413,4.848,0.413c6.19,0,11.643-1.905,14.842-4.799c0.664,0.625,1.265,1.318,1.774,2.078  c0.078,3.296,0.531,6.188,1.673,7.704c1.709,2.27,10.921,3.146,10.921,3.146l4.134-22.017c0.516-1.786,1.069-5.699,1.069-5.699  c1.399-4.931,5.812-8.578,11.128-8.833h3.23v-0.04c0.319,0.016,0.637,0.041,0.96,0.04C96.578,50.67,99,44.604,99,38.507H95.094z"/>
</svg>