<?xml version="1.0" encoding="utf-8"?>
<!-- Generator: Adobe Illustrator 15.1.0, SVG Export Plug-In  -->
<!DOCTYPE svg PUBLIC "-//W3C//DTD SVG 1.1//EN" "http://www.w3.org/Graphics/SVG/1.1/DTD/svg11.dtd" [
	<!ENTITY ns_flows "http://ns.adobe.com/Flows/1.0/">
]>
<svg version="1.1"
	 xmlns="http://www.w3.org/2000/svg" xmlns:xlink="http://www.w3.org/1999/xlink" xmlns:a="http://ns.adobe.com/AdobeSVGViewerExtensions/3.0/"
	 x="0px" y="0px" width="143px" height="161px" viewBox="0 0 143 161" enable-background="new 0 0 143 161" xml:space="preserve">
<defs>
</defs>
<path fill="#FFFFFF" d="M71.69,160.898c-24.797,0-44.082-6.012-57.318-17.864l-0.53-0.477l-0.719-0.055
	C5.766,141.896,0,135.561,0,128.069c0-7.808,7.855-14.501,14.29-14.501c2.394,0,4.772,0.262,7.404,0.817
	c2.956,6.696,7.354,12.847,12.772,17.845c1.314,1.696,8.229,8.134,37.218,8.134c28.844,0,35.558-5.983,36.958-7.884
	c5.547-5.048,10.033-11.277,13.025-18.092c2.63-0.557,5.014-0.82,7.42-0.82c6.436,0.008,14.291,6.699,14.291,14.501
	c0,7.491-5.767,13.827-13.127,14.434l-0.716,0.055l-0.526,0.477C115.77,154.889,96.488,160.898,71.69,160.898"/>
<path fill="#FFFFFF" d="M100.215,50.499c-0.427,0.958-0.895,1.936-1.399,2.952c-0.913,1.763-1.066,3.085-1.299,4.752
	c-0.396,2.952-0.822,6.325-5.174,11.825c-3.479,4.429-3.303,6.822-3.09,9.622c0.138,1.569,0.27,3.372-0.27,5.404
	c-0.119,0.381-0.214,0.821-0.314,1.34c-0.583,2.549-1.302,5.731-4.896,8.817c-0.876,0.764-2.234,2.031-3.323,3.007
	c-6.745,6.191-8.084,7.286-9.835,7.286c-1.126,0-2.218-0.635-2.761-1.574c-0.875-1.552-0.116-3.026,0.37-3.855
	c-0.31-0.263-0.853-0.646-1.59-1.127c-2.491-1.609-5.874-3.813-6.707-8.262c-0.816-4.35-3.09-7.911-5.095-11.056
	c-2.021-3.183-3.944-6.173-3.921-9.429c0.037-6.919-3.056-11.403-4.879-14.068c-0.43-0.632-0.778-1.129-1.013-1.57
	c-0.797-1.36-1.497-2.665-2.118-3.892c-14.441,9.486-22.993,25.183-22.993,42.432c0,14.14,6.045,27.788,16.558,37.407l0.232,0.211
	l0.157,0.289c0.041,0.057,5.271,6.594,34.831,6.594c28.066,0,33.993-5.749,34.536-6.362l0.081-0.155l0.326-0.306
	c10.711-9.661,16.832-23.382,16.832-37.678C123.459,76.006,114.617,59.908,100.215,50.499 M106.529,104.256
	c-0.213,0.553-0.542,1.4-1.085,2.394c-0.311,0.499-0.583,1.074-0.991,1.63c-0.367,0.577-0.778,1.206-1.306,1.822
	c-0.248,0.305-0.523,0.631-0.774,0.978c-0.292,0.306-0.603,0.632-0.895,0.956c-0.311,0.326-0.644,0.689-0.972,1
	c-0.371,0.324-0.738,0.648-1.107,0.978c-0.74,0.688-1.595,1.265-2.47,1.896c-0.856,0.689-1.848,1.188-2.836,1.762
	c-0.973,0.637-2.099,1.036-3.19,1.57c-1.066,0.558-2.271,0.863-3.458,1.285c-1.185,0.441-2.431,0.692-3.688,0.998
	c-0.628,0.154-1.268,0.308-1.908,0.442c-0.643,0.093-1.305,0.173-1.965,0.265c-2.679,0.442-5.244,0.463-7.848,0.596
	c-1.365-0.056-2.705-0.115-4.044-0.174c-1.324-0.018-2.645-0.227-3.946-0.399c-0.644-0.079-1.302-0.155-1.942-0.231
	c-0.643-0.135-1.286-0.287-1.907-0.422c-1.261-0.309-2.503-0.518-3.692-0.939c-2.432-0.688-4.663-1.648-6.705-2.701
	c-2.04-1.055-3.865-2.242-5.421-3.508c-0.759-0.632-1.519-1.228-2.14-1.897c-0.311-0.306-0.621-0.613-0.932-0.917
	c-0.273-0.326-0.546-0.635-0.816-0.938c-0.254-0.31-0.524-0.597-0.737-0.903c-0.235-0.287-0.43-0.595-0.643-0.883
	c-0.411-0.533-0.74-1.092-1.029-1.591c-0.605-0.958-0.973-1.778-1.208-2.336c-0.132-0.384-0.232-0.632-0.27-0.769
	c0.176,0.329,0.797,1.382,1.942,2.798c0.348,0.423,0.737,0.921,1.223,1.399c0.235,0.246,0.468,0.498,0.722,0.748
	c0.232,0.27,0.524,0.52,0.816,0.786c0.272,0.269,0.562,0.536,0.872,0.805c0.313,0.267,0.662,0.517,0.992,0.783
	c0.351,0.251,0.684,0.577,1.05,0.825c0.389,0.25,0.759,0.52,1.168,0.787c0.74,0.555,1.631,0.998,2.525,1.514
	c0.212,0.117,0.445,0.251,0.661,0.363c0.232,0.136,0.487,0.229,0.719,0.346c0.486,0.23,0.95,0.439,1.458,0.671
	c1.983,0.862,4.138,1.61,6.45,2.204c1.13,0.365,2.334,0.516,3.521,0.75c0.602,0.113,1.205,0.244,1.826,0.324
	c0.602,0.076,1.223,0.135,1.848,0.209c1.239,0.117,2.487,0.326,3.753,0.326c1.257,0.037,2.506,0.079,3.767,0.116
	c1.306-0.06,2.604-0.097,3.884-0.136c1.347,0,2.529-0.229,3.756-0.342c0.624-0.078,1.227-0.157,1.826-0.212
	c0.605-0.136,1.204-0.25,1.81-0.366c1.201-0.227,2.389-0.42,3.515-0.805c1.132-0.344,2.277-0.611,3.303-1.053
	c1.051-0.423,2.14-0.75,3.09-1.264c0.955-0.5,1.927-0.921,2.78-1.479c0.879-0.518,1.731-1.015,2.491-1.592
	c0.369-0.285,0.733-0.555,1.104-0.82c0.374-0.289,0.684-0.577,1.033-0.844c0.31-0.289,0.64-0.576,0.95-0.825
	c0.295-0.31,0.584-0.577,0.859-0.845c0.562-0.534,1.008-1.111,1.475-1.607c0.448-0.481,0.797-0.999,1.146-1.438
	c0.661-0.898,1.147-1.648,1.459-2.166c0.254-0.458,0.39-0.728,0.408-0.805C106.804,103.451,106.71,103.738,106.529,104.256"/>
<path fill="#FFFFFF" d="M42.363,25.227c0.195,0.612,0.402,1.259,0.646,1.918l-2.092,3.081l-0.273,0.406
	c-2.742,0.321-5.29-1.976-5.668-5.125c-0.387-3.15,1.549-5.968,4.291-6.289c0.06-0.008,0.11-0.008,0.167-0.008l0.445,1.628
	c0,0,0.264,0.038,0.844,0.435c0.379,0.262,0.677,0.94,1.032,2.025C41.93,23.842,42.124,24.48,42.363,25.227"/>
<path fill="#FFFFFF" d="M44.904,24.346l-0.163,0.242c0-0.059-0.01-0.115-0.019-0.164c-0.063-0.439-0.119-0.941-0.15-1.475
	C44.741,23.385,44.848,23.861,44.904,24.346"/>
<path fill="#FFFFFF" d="M99.088,21.061v-0.019c-0.078-0.825-0.291-1.531-0.8-1.859c-1.146-0.805-5.126-1.397-10.416-0.747
	c-5.264,0.65-8.784,1.819-8.784,1.819s-1.845,0.805-1.983,2.512c-0.135,1.705,0.686,4.981,1.983,6.651
	c1.28,1.666,3.015,3.583,7.813,3.583c4.8,0,7.972-0.842,9.524-1.994c1.186-0.861,1.852-3.258,2.218-5.078
	c0.116-0.576,0.191-1.093,0.251-1.495C99.01,23.497,99.186,22.171,99.088,21.061 M84.591,27.98c-1.035,0-1.851-0.827-1.851-1.82
	c0-1.016,0.815-1.823,1.851-1.823c1.01,0,1.845,0.807,1.845,1.823C86.436,27.153,85.601,27.98,84.591,27.98 M101.733,23.765
	c-0.489,1.589-1.032,3.448-1.286,4.235c-0.058,0.152-0.095,0.267-0.113,0.325c-0.276,0.613-0.703,2.355-1.904,3.468
	c-0.72,0.633-1.907,1.476-3.969,2.127c2.14,0.424,3.714,1.379,4.668,2.893c0.831,1.345,1.164,3.049,1.007,5.119
	c1.497-3.564,2.313-7.494,2.313-11.595v-0.019C102.448,28.057,102.197,25.872,101.733,23.765 M71.684,0
	C59.982,0,49.817,6.439,44.609,15.906c3.536-0.096,8.747-0.059,13.431,0.634c8.141,1.186,12.399,2.625,13.506,2.625
	c1.111,0,10.924-2.491,17.374-3.009c3.404-0.287,6.959-0.5,9.645-0.595C93.318,6.267,83.248,0,71.684,0 M75.9,28.153
	c-2.099-4.082-2.039-5.119-4.216-5.04c-2.178,0.096-1.826,0.096-2.683,1.761c-0.837,1.649-3.09,7.304-6.861,8.836
	c-0.972,0.383-1.788,0.671-2.488,0.843c4.822,0.459,5.036,0.576,6.573,1.611c0.386,0.25,0.85,0.574,1.553,0.996
	c0,0,0.348,0.195,0.932,0.365c0.565,0.171,1.361,0.363,2.271,0.363c1.871,0,3.229-0.728,3.229-0.747
	c3.345-1.994,4.369-2.106,9.39-2.609c0.135-0.016,0.288-0.036,0.445-0.055C80.296,33.519,77.419,31.084,75.9,28.153 M66.125,22.634
	c-0.117-1.707-1.77-2.378-1.77-2.378s-3.518-1.169-8.803-1.84c-5.287-0.651-8.96,0.097-10.108,0.882
	c-0.854,0.575-0.951,2.187-0.872,3.642v0.019c0.037,0.516,0.094,1.035,0.157,1.456c0,0.058,0.019,0.116,0.019,0.173
	c0.27,1.705,1.302,5.308,2.817,6.42c1.553,1.151,4.176,1.994,8.979,1.994c4.8,0,6.532-1.917,7.812-3.583
	C65.635,27.749,66.26,24.337,66.125,22.634 M57.089,27.98c-1.033,0-1.848-0.827-1.848-1.82c0-1.016,0.815-1.823,1.848-1.823
	c1.01,0,1.845,0.807,1.845,1.823C58.934,27.153,58.099,27.98,57.089,27.98 M46.049,32.311c-1.497-1.495-2.394-3.392-3.034-5.173
	c-0.25-0.653-0.464-1.306-0.662-1.92c-0.229-0.745-0.427-1.377-0.6-1.916c-0.546,2.207-0.818,4.542-0.837,6.921v0.114
	c0,3.182,0.505,6.248,1.418,9.161c0.098-1.035,0.37-1.917,0.819-2.686c1.01-1.741,2.915-2.739,5.672-2.987
	C47.696,33.442,46.667,32.945,46.049,32.311"/>
<path fill="#FFFFFF" d="M97.71,39.401c-0.915-1.438-2.411-2.356-4.436-2.74c-0.715-0.134-1.512-0.21-2.371-0.21
	c-0.741,0-1.535,0.057-2.385,0.152c-2.083,0.27-3.759,0.442-5.113,0.577c-0.157,0.017-0.296,0.038-0.431,0.055
	c-4.74,0.481-5.731,0.594-8.882,2.475c-0.019,0.017-1.301,0.709-3.067,0.709c-0.879,0-1.635-0.191-2.178-0.347
	c-0.527-0.174-0.856-0.345-0.856-0.345c-0.681-0.401-1.108-0.708-1.478-0.939c-1.459-0.996-1.675-1.092-6.24-1.533
	c-0.408-0.037-0.895-0.075-1.377-0.114c-1.421-0.134-3.188-0.306-5.406-0.538c-0.756-0.076-1.456-0.113-2.099-0.113
	c-0.483,0-0.932,0.018-1.361,0.076c-2.623,0.23-4.43,1.189-5.4,2.836c-0.43,0.728-0.681,1.554-0.759,2.531
	c3.729,11.634,14.767,20.064,27.812,20.064c12.166,0,22.583-7.319,26.958-17.745C98.797,42.295,98.489,40.686,97.71,39.401
	 M71.471,49.828c-3.793,0-6.865-2.378-6.865-5.329h13.685C78.291,47.45,75.241,49.828,71.471,49.828"/>
<path fill="#FFFFFF" d="M97.71,39.401c-0.915-1.438-2.411-2.356-4.436-2.74c-0.718-0.134-1.512-0.21-2.371-0.21
	c-0.741,0-1.535,0.057-2.385,0.152c-2.083,0.27-3.759,0.442-5.113,0.577c-0.157,0.017-0.296,0.038-0.431,0.055
	c-4.74,0.481-5.731,0.594-8.882,2.475c-0.019,0.017-1.301,0.709-3.067,0.709c-0.879,0-1.635-0.193-2.178-0.345
	c-0.527-0.176-0.856-0.347-0.856-0.347c-0.681-0.401-1.108-0.708-1.478-0.938c-1.459-0.996-1.675-1.092-6.24-1.534
	c-0.408-0.037-0.895-0.075-1.377-0.114c-1.421-0.134-3.188-0.306-5.406-0.538c-0.756-0.076-1.459-0.113-2.099-0.113
	c-0.483,0-0.932,0.018-1.361,0.076c-2.623,0.23-4.43,1.189-5.4,2.836c-0.43,0.728-0.681,1.554-0.759,2.531
	c-0.176,2.108,0.426,4.79,1.844,8.048c0.737,1.707,1.691,3.549,2.858,5.56c0.195,0.345,0.502,0.784,0.854,1.321
	c1.731,2.511,4.938,7.189,4.916,14.259c-0.015,2.454,1.541,4.889,3.348,7.706c1.96,3.084,4.179,6.574,5.032,11.02
	c0.621,3.314,3.244,5.02,5.346,6.398c2.544,1.647,3.068,2.244,2.271,3.546c-0.504,0.787-0.721,1.323-0.445,1.803
	c0.138,0.248,0.505,0.441,0.775,0.441c0.8,0,2.199-1.112,7.814-6.27c1.224-1.109,2.372-2.145,3.132-2.814
	c2.854-2.477,3.419-4.982,3.924-7.207c0.098-0.44,0.191-0.883,0.311-1.32c0.427-1.554,0.312-2.992,0.214-4.372
	c-0.231-2.739-0.465-5.577,3.288-10.347c3.708-4.678,4.06-7.399,4.389-10.044c0.235-1.611,0.427-3.125,1.421-5.079
	c0.892-1.724,1.591-3.314,2.141-4.81c0.756-2.07,1.223-3.909,1.339-5.519C98.797,42.295,98.489,40.686,97.71,39.401 M78.291,44.5
	c0,2.952-3.05,5.329-6.82,5.329c-3.793,0-6.865-2.376-6.865-5.329H78.291z"/>
<path fill="#FFFFFF" d="M101.214,25.583c-0.194,0.612-0.402,1.26-0.646,1.918l2.092,3.081l0.274,0.407
	c2.741,0.321,5.289-1.975,5.668-5.125c0.387-3.15-1.55-5.969-4.291-6.29c-0.06-0.008-0.109-0.008-0.167-0.008l-0.444,1.628
	c0,0-0.265,0.038-0.845,0.435c-0.38,0.262-0.678,0.94-1.032,2.025C101.646,24.199,101.452,24.837,101.214,25.583"/>
</svg>
