<?xml version="1.0" encoding="utf-8"?>
<!-- Generator: Adobe Illustrator 17.1.0, SVG Export Plug-In . SVG Version: 6.00 Build 0)  -->
<!DOCTYPE svg PUBLIC "-//W3C//DTD SVG 1.1//EN" "http://www.w3.org/Graphics/SVG/1.1/DTD/svg11.dtd">
<svg version="1.1" id="Layer_1" xmlns="http://www.w3.org/2000/svg" xmlns:xlink="http://www.w3.org/1999/xlink" x="0px" y="0px"
	 viewBox="1009.8 0 910.2 1080" enable-background="new 1009.8 0 910.2 1080" xml:space="preserve">
<path fill="#F3F1F2" d="M1625.2,171.8c0.6,6.6,0,15.3-0.6,21.4c0,2.4-0.6,6.1-1.2,9.8l-6.1-6.6
	C1617.3,186.5,1620.4,178.5,1625.2,171.8z"/>
<path fill="#F3F1F2" d="M1679.6,196.3c0,20.1-14,36.1-31.2,36.1l-1.8-1.8l-11.6-13.4c1.2-4.3,4.9-15.3,7.3-25.6
	c2.4-8.5,4.9-16.5,6.1-18.3c2.4-4.3,6.6-4.9,6.6-4.9s0.6-2.4,1.8-6.6C1669.7,165.7,1679.6,179.7,1679.6,196.3z"/>
<path fill="#F3F1F2" d="M1455.6,1052.9c-153.9,0-274.2-37.9-355.9-112.3l-3.1-3.1l-4.3-0.6c-46.3-3.7-82.4-43.4-82.4-90.3
	c0-49.5,48.8-91.7,88.5-91.7c14.7,0,30,1.8,45.8,4.9c18.3,42.2,45.8,81.2,79.3,112.3c7.9,10.4,51.3,51.3,231.4,51.3
	c179.4,0,221-37.9,229.6-49.5c34.2-31.8,62.2-70.9,81.2-114.2c16.5-3.7,31.2-4.9,45.8-4.9c39.7,0,88.5,42.2,88.5,91.7
	c0,46.9-36.1,87.3-81.9,90.9l-4.3,0.6l-3.1,3.1C1729.7,1015,1609.4,1052.9,1455.6,1052.9L1455.6,1052.9z"/>
<path fill="#F3F1F2" d="M1632,358c-2.4,6.1-5.5,12.2-8.5,18.3c-5.5,11-6.6,19.6-7.9,30c-2.4,18.9-5.5,39.7-32.4,74.6
	c-21.4,27.4-20.1,42.7-18.9,60.4c0.6,10.4,1.8,21.4-1.8,34.2c-0.6,2.4-1.2,5.5-1.8,8.5c-3.7,15.9-8.5,36.1-30.6,55.6
	c-5.5,4.9-14,12.8-20.8,18.9c-42.2,39-50.1,45.8-61.1,45.8c-6.6,0-14-3.7-17.1-9.8c-5.5-9.8-0.6-18.9,2.4-24.4
	c-1.8-1.8-4.9-4.3-9.8-7.3c-15.3-10.4-36.7-23.7-41.6-51.9c-4.9-27.4-19.6-49.5-31.8-69.6c-12.8-19.6-24.4-38.5-24.4-59.3
	c0-43.4-18.9-71.4-30.6-88.5c-2.4-3.7-4.3-6.6-6.1-9.8c-4.9-8.5-9.2-16.5-12.8-24.4C1187,419.1,1134,518,1134,626.6
	c0,89.1,37.2,175.2,102.6,235.7l1.2,1.2l1.2,1.8c0.6,0.6,33,41.6,216.7,41.6c174.7,0,211.2-36.7,214.9-40.3l0.6-1.2l1.8-1.8
	c66.6-61.1,104.4-147.8,104.4-237.5C1777.2,518,1722.3,416.7,1632,358z M1671.1,696.2c-1.2,3.7-3.7,8.5-6.6,15.3
	c-1.8,3.1-3.7,6.6-6.1,10.4c-2.4,3.7-4.9,7.3-7.9,11.6c-1.8,1.8-3.1,4.3-4.9,6.1s-3.7,4.3-5.5,6.1c-1.8,1.8-3.7,4.3-6.1,6.1
	s-4.3,4.3-6.6,6.1c-4.3,4.3-9.8,7.9-15.3,12.2c-5.5,4.3-11.6,7.3-17.7,11c-6.1,3.7-12.8,6.6-19.6,9.8c-6.6,3.7-14,5.5-21.4,7.9
	c-7.3,3.1-15.3,4.3-23.2,6.1c-3.7,1.2-7.9,1.8-11.6,3.1c-4.3,0.6-7.9,1.2-12.2,1.8c-16.5,3.1-32.4,3.1-48.8,3.7
	c-8.5-0.6-16.5-0.6-25.1-1.2c-8.5,0-16.5-1.2-24.4-2.4c-4.3-0.6-7.9-1.2-12.2-1.8c-4.3-0.6-7.9-1.8-11.6-2.4
	c-7.9-1.8-15.9-3.1-23.2-6.1c-15.3-4.3-28.7-10.4-41.6-17.1c-12.8-6.6-23.7-14-33.5-21.9c-4.9-4.3-9.2-7.9-13.4-11.6
	c-1.8-1.8-3.7-4.3-6.1-6.1c-1.8-1.8-3.7-4.3-4.9-6.1c-1.8-1.8-3.1-3.7-4.9-5.5l-3.7-5.5c-2.4-3.7-4.3-6.6-6.6-9.8
	c-3.7-6.1-6.1-11.6-7.3-14.7c-1.2-3.7-1.8-5.5-1.8-6.1c0.6,0.6,4.3,7.9,12.2,18.3c2.4,2.4,4.9,5.5,7.3,8.5c1.2,1.8,3.1,3.1,4.3,4.9
	l4.9,4.9c1.8,1.8,3.7,3.7,5.5,4.9c1.8,1.8,4.3,3.1,6.1,4.9c2.4,1.8,4.3,3.7,6.6,4.9c2.4,1.8,4.9,3.1,7.3,4.9
	c4.9,3.7,10.4,6.1,15.9,9.8c1.2,0.6,3.1,1.8,4.3,2.4c1.2,0.6,3.1,1.2,4.3,1.8c3.1,1.2,6.1,3.1,9.2,4.3c12.2,5.5,25.6,10.4,40.3,14
	c6.6,2.4,14.7,3.1,21.9,4.9c3.7,0.6,7.3,1.2,11,1.8s7.9,0.6,11.6,1.2c7.9,0.6,15.3,1.8,23.2,1.8s15.3,0.6,23.2,0.6
	s15.9-0.6,24.4-0.6c7.9,0,15.9-1.2,23.2-2.4c3.7-0.6,7.3-0.6,11.6-1.2c3.7-0.6,7.3-1.2,11-2.4c7.3-1.2,14.7-2.4,21.9-4.9
	c6.6-2.4,14-3.7,20.8-6.6c6.6-2.4,13.4-4.9,18.9-7.9c6.1-3.1,12.2-5.5,17.1-9.2c5.5-3.1,11-6.1,15.3-9.8c2.4-1.8,4.9-3.7,6.6-4.9
	c2.4-1.8,4.3-3.7,6.1-5.5c1.8-1.8,4.3-3.7,6.1-4.9c1.8-1.8,3.7-3.7,5.5-5.5c3.7-3.1,6.1-6.6,9.2-9.8c3.1-3.1,4.9-6.1,7.3-9.2
	C1665.6,703.6,1668.6,698.7,1671.1,696.2c0.6-3.1,1.2-4.3,1.8-4.9C1672.3,692.1,1672.3,693.9,1671.1,696.2z"/>
<path fill="#F3F1F2" d="M1274.8,198.6c1.2,3.1,1.8,6.6,3.1,10.4l-13.4,20.8l-1.8,3.1c-17.1,1.8-33-12.2-35.3-32.4
	c-2.4-20.1,9.8-37.9,26.9-39.7c0.6,0,1.2,0,1.8,0l3.1,10.4c0,0,1.8,0,5.5,3.1c2.4,1.2,3.7,4.9,5.5,10.4
	C1271.1,188.3,1273,193.1,1274.8,198.6z"/>
<path fill="#F3F1F2" d="M1288.8,192.6l-1.2,1.2c0-0.6,0-1.2,0-1.2c0-3.1-0.6-6.1-1.2-9.8C1287.6,185.9,1288.8,188.9,1288.8,192.6z"
	/>
<path fill="#F3F1F2" d="M1297.4,243.2c4.3,4.3,10.4,7.3,17.7,9.8c-0.6,0-1.2,0-1.8,0c-8.5,0-15.9,1.8-21.4,5.5
	c-6.1,3.1-10.4,7.3-13.4,12.8c-3.1,4.9-4.3,10.4-4.9,16.5c-5.5-18.3-9.2-37.9-9.2-57.4v-1.2c0-15.3,1.8-30.6,5.5-45.2
	c1.2,3.7,3.1,8.5,4.9,14.7c1.2,3.1,1.8,6.6,3.1,10.4C1282.1,220.7,1288.2,233.4,1297.4,243.2z"/>
<path fill="#F3F1F2" d="M1420.1,181c-0.6-10.4-11-14.7-11-14.7s-21.4-7.3-54.3-11.6c-33-4.3-55.6,0.6-62.9,5.5
	c-5.5,3.7-6.1,13.4-5.5,22.6l0,0c0,3.7,0.6,7.3,1.2,9.8c0,0.6,0,1.2,0,1.2c1.8,11,7.9,33,17.7,40.3c9.8,7.3,25.6,12.8,55.6,12.8
	c29.9,0,40.8-12.2,48.8-22.6C1417.7,213.9,1422,192.6,1420.1,181z M1364.6,215.7c-6.6,0-11-5.5-11-11.6c0-6.1,4.9-11.6,11-11.6
	c6.1,0,11.6,4.9,11.6,11.6C1376.2,210.8,1371.2,215.7,1364.6,215.7z"/>
<path fill="#F3F1F2" d="M1531.9,256.7c-1.2,0-1.8,0-2.4,0.6c-31.2,3.1-37.9,3.7-57.9,16.5c0,0-8.5,4.9-20.1,4.9
	c-5.5,0-10.4-1.2-14-2.4c-3.7-1.2-5.5-2.4-5.5-2.4c-4.3-2.4-7.3-4.9-9.8-6.1c-9.8-6.6-11-7.3-40.8-10.4c4.3-1.2,9.8-3.1,15.9-5.5
	c23.2-9.8,37.2-45.2,42.7-55.6s3.1-10.4,16.5-11s13.4,6.1,26.3,31.8C1491.5,235.3,1509.2,250.5,1531.9,256.7z"/>
<path fill="#F3F1F2" d="M1287,139.4c32.4-59.8,95.8-100.1,168.6-100.1c72,0,134.3,39.7,166.7,97.7c-16.5,0.6-39,1.8-59.8,3.7
	c-39.7,3.7-100.7,19.6-107.4,19.6c-6.6,0-33.5-9.2-83.7-16.5C1341.4,139.4,1309,138.8,1287,139.4z"/>
<path fill="#F3F1F2" d="M1625.2,171.8c-0.6-4.9-1.8-9.8-4.9-11.6c-7.3-4.9-31.8-9.2-64.8-4.9s-55,11.6-55,11.6s-11.6,4.9-12.2,15.9
	c-0.6,10.9,4.3,31.8,12.2,42.2c8.5,10.4,18.9,22.6,48.8,22.6c30,0,49.5-5.5,59.3-12.8c7.3-5.5,11.6-20.1,13.4-31.8
	c0.6-3.7,1.2-7.3,1.2-9.8C1625.2,187.1,1626.5,178.5,1625.2,171.8z M1535.5,215.7c-6.6,0-11.6-5.5-11.6-11.6
	c0-6.1,5.5-11.6,11.6-11.6c6.1,0,11.6,4.9,11.6,11.6C1547.1,210.8,1542.2,215.7,1535.5,215.7z"/>
<path fill="#F3F1F2" d="M1646.6,229.8L1646.6,229.8c0,25.6-4.9,50.6-14.7,73.2c1.2-12.8-1.2-23.7-6.1-32.4
	c-6.1-9.2-15.3-15.3-27.4-17.7c12.2-4.3,19.6-9.2,24.4-13.4c7.3-6.6,10.4-17.7,11.6-21.9c0,0,0.6-0.6,0.6-1.2
	c1.2-4.3,4.9-15.3,7.3-25.6C1645.4,203.6,1646.6,217,1646.6,229.8z"/>
<path fill="#F3F1F2" d="M1615.5,286.6c-5.5-9.2-14.7-14.7-27.4-17.1c-4.3-0.6-9.2-1.2-14.7-1.2c-4.3,0-9.2,0.6-14.7,1.2
	c-12.8,1.8-23.2,3.1-31.8,3.7h-2.4c-29.3,3.1-35.3,4.3-55,15.9c0,0-7.9,4.3-18.9,4.3c-5.5,0-10.4-1.2-13.4-2.4
	c-3.7-1.2-5.5-2.4-5.5-2.4c-4.3-2.4-6.6-4.9-9.2-6.1c-8.5-6.6-9.8-7.3-38.5-9.8c-2.4,0-5.5-0.6-8.5-0.6c-9.2-0.6-20.1-1.8-33.5-3.1
	c-4.3-0.6-8.5-0.6-12.8-0.6c-3.1,0-6.1,0.6-8.5,0.6c-16.5,1.2-27.4,7.3-33.5,17.7c-3.1,4.3-4.3,9.8-4.9,15.9
	c-1.2,13.4,3.1,30,11.6,50.6c4.3,10.4,10.4,21.9,17.7,34.8c1.2,2.4,3.1,5.5,5.5,8.5c11,15.9,30.6,45.2,30.6,89.8
	c0,15.9,9.8,31.2,20.8,48.8c12.2,19.6,25.6,41.6,31.2,69.6c4.3,20.8,20.8,31.8,33.5,40.3c15.9,11,18.9,14.7,14,22.6
	c-3.7,5.5-4.9,8.5-3.1,11.6c0.6,1.8,3.1,3.1,4.9,3.1c4.9,0,13.4-7.3,48.2-39.7c7.9-6.6,14.7-13.4,19.6-17.7
	c17.7-15.3,21.4-31.2,24.4-45.2c0.6-3.1,1.2-6.1,1.8-8.5c2.4-9.8,1.8-18.9,1.2-27.4c-1.2-17.7-2.4-35.3,20.8-65.3
	c23.2-30,25.1-46.9,27.4-63.5c1.2-9.8,2.4-19.6,8.5-31.8c5.5-11,9.8-21.4,13.4-30.6c4.9-12.8,7.9-24.4,8.5-34.8
	C1624,305.5,1622.2,295.8,1615.5,286.6z M1453.7,353.2c-23.2,0-42.7-15.3-42.7-33.5h85.4C1496.4,337.9,1477.5,353.2,1453.7,353.2z"
	/>
<path fill="none" d="M1790.6,606.2c0-108.1-55-209.4-145.3-267.9"/>
<text transform="matrix(0.6585 0.7526 -0.7526 0.6585 1698.5234 380.8145)"><tspan x="0" y="0" fill="#F3F1F2" font-family="'Roboto-BoldCondensed'" font-size="70">B</tspan><tspan x="37.7" y="0.1" fill="#F3F1F2" font-family="'Roboto-BoldCondensed'" font-size="70" rotate="6.3">E</tspan><tspan x="70.3" y="3.6" fill="#F3F1F2" font-family="'Roboto-BoldCondensed'" font-size="70" rotate="12.2">T</tspan><tspan x="103" y="10.5" fill="#F3F1F2" font-family="'Roboto-BoldCondensed'" font-size="70" rotate="18.6">A</tspan></text>
</svg>
