<?xml version="1.0" encoding="utf-8"?>
<!-- Generator: Adobe Illustrator 15.1.0, SVG Export Plug-In  -->
<!DOCTYPE svg PUBLIC "-//W3C//DTD SVG 1.1//EN" "http://www.w3.org/Graphics/SVG/1.1/DTD/svg11.dtd" [
	<!ENTITY ns_flows "http://ns.adobe.com/Flows/1.0/">
]>
<svg version="1.1"
	 xmlns="http://www.w3.org/2000/svg" xmlns:xlink="http://www.w3.org/1999/xlink" xmlns:a="http://ns.adobe.com/AdobeSVGViewerExtensions/3.0/"
	 x="0px" y="0px" width="134px" height="143px" viewBox="0 0 134 143" enable-background="new 0 0 134 143" xml:space="preserve">
<defs>
</defs>
<path fill="#FFFFFF" d="M134.306,25.455c0.118,0.049-65.464-24.824-67.107-25.447v0.005C65.855,0.521-0.093,25.504,0.023,25.455
	c-0.052,0.043,0,30.73,0,46.836c0,32.438,9.423,74.861,67.158,90.609h0.063c57.654-15.748,67.062-58.85,67.062-90.609
	C134.306,56.188,134.359,25.498,134.306,25.455z M67.165,81.455v67.91c0.003,0.002,0.009,0.002,0.013,0.002
	c-43.727-11.924-54.207-42.191-55.763-67.912H18.3H67.165V19.393v-5.84l0,0c0.005,0,0.022-0.008,0.028-0.008v-0.008
	c1.382,0.525,56.058,21.264,55.96,21.22c0.043,0.038,0,25.627,0,39.058c0,2.469-0.087,5.031-0.252,7.639h-5.843H67.165V81.455z"/>
<polygon fill="#FFFFFF" points="67.229,0 67.198,0 67.212,0.008 "/>
<polygon fill="#FFFFFF" points="67.179,0 67.198,0.008 67.198,0 "/>
</svg>
