<?xml version="1.0" encoding="utf-8"?>
<!-- Generator: Adobe Illustrator 16.0.0, SVG Export Plug-In . SVG Version: 6.00 Build 0)  -->
<!DOCTYPE svg PUBLIC "-//W3C//DTD SVG 1.1//EN" "http://www.w3.org/Graphics/SVG/1.1/DTD/svg11.dtd">
<svg version="1.1" id="Layer_1" xmlns="http://www.w3.org/2000/svg" xmlns:xlink="http://www.w3.org/1999/xlink" x="0px" y="0px"
	 width="209.712px" height="209.712px" viewBox="201.144 291.144 209.712 209.712"
	 enable-background="new 201.144 291.144 209.712 209.712" xml:space="preserve">
<g>
	<path fill="#FFFFFF" d="M352.512,361.32l-62.832,62.833L261.936,396c-2.04-2.04-5.304-2.04-6.936,0c-2.04,2.04-2.04,5.304,0,6.936
		l31.416,31.416c0.816,0.816,2.04,1.633,3.672,1.633c1.224,0,2.448-0.408,3.672-1.633l66.504-66.503c2.04-2.04,2.04-5.304,0-6.936
		C358.224,359.28,354.552,359.28,352.512,361.32z"/>
	<path fill="#FFFFFF" d="M306,291.144c-57.12,0-104.856,47.736-104.856,104.856S248.88,500.856,306,500.856
		S410.856,453.12,410.856,396S363.12,291.144,306,291.144z M306,491.064c-51.408,0-95.064-43.656-95.064-95.064
		s43.656-95.064,95.064-95.064s95.064,43.656,95.064,95.064S357.408,491.064,306,491.064z"/>
</g>
</svg>
