<?xml version="1.0" encoding="utf-8"?>
<!-- Generator: Adobe Illustrator 16.0.0, SVG Export Plug-In . SVG Version: 6.00 Build 0)  -->
<!DOCTYPE svg PUBLIC "-//W3C//DTD SVG 1.1//EN" "http://www.w3.org/Graphics/SVG/1.1/DTD/svg11.dtd">
<svg version="1.1" id="Layer_1" xmlns="http://www.w3.org/2000/svg" xmlns:xlink="http://www.w3.org/1999/xlink" x="0px" y="0px"
	 width="73.755px" height="193.8px" viewBox="268.964 298.896 73.755 193.8" enable-background="new 268.964 298.896 73.755 193.8"
	 xml:space="preserve">
<g>
	<path fill="#FFFFFF" d="M335.376,338.472c4.896-4.488,7.344-9.792,7.344-16.32c0-6.12-2.447-11.832-7.344-16.32
		c-4.896-4.488-10.608-6.936-17.136-6.936c-6.528,0-12.648,2.448-17.136,6.936c-4.896,4.488-7.344,9.792-7.344,16.32
		c0,6.12,2.448,11.832,7.344,16.32C306,342.96,311.712,345,318.24,345C325.176,345,330.888,342.96,335.376,338.472z
		 M324.768,486.576c8.568-4.08,13.057-11.424,8.568-15.096c-2.448-2.04-6.12,1.224-8.568,1.224c-5.304,0-8.976-0.816-11.016-2.448
		s-3.264-4.896-3.264-9.792c0-2.04,0.408-4.896,0.815-8.567c0.816-3.673,1.225-6.937,2.448-9.793l10.2-36.312
		c0.815-3.264,1.632-6.936,2.04-11.016c0.408-4.08,0.408-6.936,0.408-8.16c0-7.752-2.856-13.872-8.16-18.768
		c-5.305-4.896-13.056-7.344-22.848-7.344c-5.304,0-11.424,0.816-17.544,2.856c-11.832,4.08-9.384,14.688-6.528,14.688
		c5.304,0,8.976,0.816,11.016,2.856c2.04,1.632,2.856,4.896,2.856,9.792c0,2.448-0.408,5.304-0.816,8.568
		c-0.816,3.265-1.224,6.528-2.448,9.792l-10.2,36.312c-0.816,3.672-1.632,7.344-2.04,10.2c-0.408,3.264-0.408,6.527-0.408,9.384
		c0,7.344,2.856,13.464,8.16,18.36c5.712,4.896,13.872,9.384,24.072,9.384C308.04,492.696,317.016,490.248,324.768,486.576z"/>
</g>
</svg>
