<?xml version="1.0" encoding="utf-8"?>
<!-- Generator: Adobe Illustrator 17.1.0, SVG Export Plug-In . SVG Version: 6.00 Build 0)  -->
<!DOCTYPE svg PUBLIC "-//W3C//DTD SVG 1.1//EN" "http://www.w3.org/Graphics/SVG/1.1/DTD/svg11.dtd">
<svg version="1.1" id="Layer_1" xmlns="http://www.w3.org/2000/svg" xmlns:xlink="http://www.w3.org/1999/xlink" x="0px" y="0px"
	 viewBox="0 0 65.1 158.2" enable-background="new 0 0 65.1 158.2" xml:space="preserve">
<linearGradient id="SVGID_1_" gradientUnits="userSpaceOnUse" x1="32.5651" y1="158.2161" x2="32.5651" y2="-1.326953e-09">
	<stop  offset="0" style="stop-color:#FCD65E"/>
	<stop  offset="0.9643" style="stop-color:#EC995F"/>
	<stop  offset="1" style="stop-color:#EB975F"/>
</linearGradient>
<path fill="url(#SVGID_1_)" d="M65.1,155.2c0,1.7-1.3,3-3,3H3c-1.7,0-3-1.3-3-3V3c0-1.7,1.3-3,3-3h59.1c1.7,0,3,1.3,3,3V155.2z"/>
<path opacity="0.6" fill="#F9F5C3" d="M65.1,155.2c0,1.7-1.3,3-3,3H3c-1.7,0-3-1.3-3-3V3c0-1.7,1.3-3,3-3h59.1c1.7,0,3,1.3,3,3
	V155.2z"/>
</svg>
