<?xml version="1.0" encoding="utf-8"?>
<!-- Generator: Adobe Illustrator 16.0.0, SVG Export Plug-In . SVG Version: 6.00 Build 0)  -->
<!DOCTYPE svg PUBLIC "-//W3C//DTD SVG 1.1//EN" "http://www.w3.org/Graphics/SVG/1.1/DTD/svg11.dtd">
<svg version="1.1" id="Layer_1" xmlns="http://www.w3.org/2000/svg" xmlns:xlink="http://www.w3.org/1999/xlink" x="0px" y="0px"
	 width="146.88px" height="281.52px" viewBox="232.56 255.24 146.88 281.52" enable-background="new 232.56 255.24 146.88 281.52"
	 xml:space="preserve">
<g>
	<rect x="241.128" y="285.84" fill="none" width="129.132" height="209.916"/>
	<circle fill="none" cx="305.694" cy="514.238" r="10.588"/>
	<rect x="241.128" y="285.84" fill="none" width="129.132" height="209.916"/>
	<path fill="#FFFFFF" d="M362.304,255.24H249.696c-9.486,0-17.136,7.65-17.136,17.136v247.248c0,9.486,7.65,17.136,17.136,17.136
		h112.608c9.486,0,17.137-7.649,17.137-17.136V272.376C379.44,262.89,371.79,255.24,362.304,255.24z M298.778,268.092h27.662
		c1.347,0,2.448,1.102,2.448,2.448c0,1.346-1.102,2.448-2.448,2.448h-27.662c-1.346,0-2.448-1.102-2.448-2.448
		C296.331,269.193,297.432,268.092,298.778,268.092z M286.293,266.195c2.265,0,4.04,1.836,4.04,4.039c0,2.265-1.836,4.04-4.04,4.04
		s-4.039-1.836-4.039-4.04C282.254,267.97,284.029,266.195,286.293,266.195z M305.694,524.826c-5.814,0-10.587-4.713-10.587-10.588
		s4.712-10.588,10.587-10.588c5.875,0,10.587,4.713,10.587,10.588S311.508,524.826,305.694,524.826z M370.26,495.756H241.128V285.84
		H370.26V495.756z"/>
	<g>
		<g>
			<path fill="#FFFFFF" d="M345.29,354.506c-5.201-17.381-21.42-29.499-39.657-29.499c-17.993,0-34.027,11.75-39.474,28.825
				c-3.182,0.367-6.487,0.918-9.914,1.714l1.04,6.609c0.979,0,2.632,0.367,2.693,2.265c0.306,7.099,1.285,12.423,3.794,16.096
				c-0.795,0.612-1.285,1.285-1.53,2.142c0,0,3.121-0.061,3.427,0.306c0,0-4.651,8.201-3.978,13.525l2.815-1.652
				c0,0-1.652,12.974,1.285,17.013c0,0,2.265-3.305,2.815-3.794c0,0,2.142,12.606,4.039,15.116c0,0,1.775-2.509,2.57-3.121
				c0,0,0.918,8.017,5.019,12.607l1.775-2.877c0,0,4.345,10.221,3.244,15.116c0,0,3.244-2.631,3.244-3.427
				c0,0,0.428,5.569,7.283,8.69c0,0-0.123-2.51,0.551-3.183c0,0,6.854,5.814,3.121,9.73c0,0,4.896,0.734,6.426-3.488
				c1.53,4.223,6.426,3.488,6.426,3.488c-3.795-3.916,3.121-9.73,3.121-9.73c0.673,0.734,0.551,3.183,0.551,3.183
				c6.854-3.121,7.283-8.69,7.283-8.69c0,0.856,3.243,3.427,3.243,3.427c-1.102-4.896,3.244-15.116,3.244-15.116l1.774,2.877
				c4.039-4.591,5.019-12.607,5.019-12.607c0.795,0.612,2.57,3.121,2.57,3.121c1.897-2.509,4.039-15.116,4.039-15.116
				c0.551,0.489,2.815,3.794,2.815,3.794c2.938-4.039,1.285-17.013,1.285-17.013l2.815,1.652c0.734-5.324-3.917-13.586-3.917-13.586
				c0.306-0.367,3.427-0.306,3.427-0.306c-0.245-0.918-0.918-1.713-1.836-2.326c2.448-4.467,2.51-10.404,3.855-14.749
				c0.49-1.591,1.041-2.387,2.815-2.448l0.856-6.609C351.9,355.608,348.656,354.996,345.29,354.506z M305.633,327.517
				c16.769,0,31.641,10.833,36.903,26.622c-7.527-0.857-15.605-0.795-25.03,1.591c-3.795,0.918-8.14,1.897-11.996,1.775
				c-2.326-0.062-4.529-0.612-6.609-1.102c-10.159-2.387-19.584-3.672-29.927-2.876
				C274.298,338.105,289.047,327.517,305.633,327.517z M312.609,376.967c-0.489,0-0.918,0.061-1.346,0.061l0,0
				c-2.143,0-1.592,1.836-5.631,1.836c-1.775,0-3.244-1.591-4.345-1.652c-0.673-0.061-2.265-0.122-2.265-0.122l0,0
				c-0.673-0.062-1.04-0.796-0.673-1.347c2.264-3.549,3.244-7.222,3.611-9.425c0.489-2.876,2.02-3.182,3.672-3.244
				c2.938-0.061,3.305,2.081,3.794,3.366c1.408,3.611,2.693,6.548,4.04,8.997C313.772,376.049,313.344,376.906,312.609,376.967z
				 M261.079,359.708c-1.408,0-2.509-0.306-2.509-0.673s1.102-0.673,2.509-0.673s2.509,0.306,2.509,0.673
				C263.649,359.402,262.487,359.708,261.079,359.708z M279.011,384.005c-10.771,0-13.893-1.958-15.361-14.504
				c0-8.446-0.551-13.342,15.422-13.342c10.771,1.041,22.093,0.918,17.748,13.77C294.127,377.885,289.904,383.699,279.011,384.005z
				 M319.464,394.103c-1.958,4.468-7.344,7.65-13.77,7.65c-6.426,0-11.873-3.183-13.831-7.65c-0.734-1.713,0.551-3.61,2.448-3.61
				h22.705C318.913,390.492,320.198,392.389,319.464,394.103z M347.86,369.439c-1.407,12.546-4.59,14.504-15.36,14.504
				c-10.894-0.306-15.117-6.059-17.81-14.076c-4.345-12.852,6.977-12.729,17.748-13.77
				C348.411,356.098,347.86,361.055,347.86,369.439z M350.554,360.382c-1.407,0-2.51-0.306-2.51-0.673s1.163-0.673,2.51-0.673
				c1.407,0,2.509,0.306,2.509,0.673S351.961,360.382,350.554,360.382z"/>
		</g>
	</g>
</g>
</svg>
