<?xml version="1.0" encoding="UTF-8" standalone="no"?>
<svg width="85px" height="68px" viewBox="0 0 85 68" version="1.1" xmlns="http://www.w3.org/2000/svg" xmlns:xlink="http://www.w3.org/1999/xlink" xmlns:sketch="http://www.bohemiancoding.com/sketch/ns">
    <!-- Generator: Sketch 3.4.3 (16618) - http://www.bohemiancoding.com/sketch -->
    <title>Path</title>
    <desc>Created with Sketch.</desc>
    <defs></defs>
    <g id="Pending" stroke="none" stroke-width="1" fill="none" fill-rule="evenodd" sketch:type="MSPage">
        <g id="transaction" sketch:type="MSArtboardGroup" transform="translate(-7.000000, -16.000000)" stroke="#000000" stroke-width="3" stroke-linecap="round" stroke-linejoin="round">
            <path d="M28.9845956,42.273876 L16.9830158,50.6684299 L9,38.3892642 M20.9439147,64.2244662 C26.1881822,74.7544952 37.0187724,82 49.5,82 C67.1001728,82 81.418101,67.5925239 81.418101,49.8841841 M78.0541862,35.7755338 C72.8099187,25.2455048 61.9793285,18 49.4981009,18 C31.897928,18 17.5799999,32.4074761 17.5799999,50.1158159 M70.0199966,57.726124 L82.0215765,49.3315701 L90.0045923,61.6107358 M59.5,43 C59.5,35.5 51.9519857,34.2609863 49.5,34.2609863 C47.0480143,34.2609863 39.5,35.5 39.5,43 C39.5,47.5250003 43.3960775,49.7804114 49.5,50.6999998 C55.6039225,51.6195882 59.5,53.6750011 59.5,58.1999998 C59.5,65.6999998 51.9519857,66.9390135 49.5,66.9390135 C47.0480143,66.9390135 39.5,65.6999998 39.5,58.1999998 M49.5,28.3947368 L49.5,72.6052632" id="Path" sketch:type="MSShapeGroup"></path>
        </g>
    </g>
</svg>