<svg width="250px" height="250px" viewBox="0 0 250 250" version="1.1" xmlns="http://www.w3.org/2000/svg" xmlns:xlink="http://www.w3.org/1999/xlink">
    <circle class="background" cx="125" cy="125" r="125" fill="none"></circle>
    <path d="M135.752688,74.9999731 C118.020645,74.9999731 103.020968,86.7951344 98.1645161,102.956962 L80.9139789,102.956962 C77.6654843,102.956962 75,105.622554 75,108.870941 L75,169.086048 C75,172.334543 77.6654843,175.000027 80.9139789,175.000027 L115.322581,175.000027 C118.571075,175.000027 121.236559,172.334543 121.236559,169.086048 L121.236559,150.703575 C125.729462,152.496909 130.624086,153.494651 135.752688,153.494651 C157.409247,153.494651 175,135.903898 175,114.247285 C175,92.5906183 157.409247,74.9999731 135.752688,74.9999731 L135.752688,74.9999731 Z M135.752688,78.2257796 C155.665914,78.2257796 171.774194,94.3340591 171.774194,114.247285 C171.774194,134.160565 155.665914,150.268844 135.752688,150.268844 C115.839462,150.268844 99.7311828,134.160565 99.7311828,114.247285 C99.7311828,94.3340591 115.839462,78.2257796 135.752688,78.2257796 L135.752688,78.2257796 Z M127.665054,92.7377151 C127.237285,92.7438452 126.829472,92.9196555 126.531329,93.2264693 C126.233186,93.5332831 126.069136,93.9459677 126.075269,94.3737366 L126.075269,95.9866398 L116.935484,95.9866398 C113.09129,95.9866398 109.946237,99.1318011 109.946237,102.975887 L109.946237,128.782392 C109.946237,132.626694 113.09129,135.77164 116.935484,135.77164 L154.569892,135.77164 C158.413978,135.77164 161.55914,132.626694 161.55914,128.782392 L161.55914,102.975887 C161.55914,99.1318011 158.413978,95.9867473 154.569892,95.9866398 L145.430108,95.9866398 L145.430108,94.3737366 C145.436355,93.9379515 145.265996,93.5181832 144.957818,93.210005 C144.649639,92.9018267 144.229871,92.7314676 143.794086,92.7377151 C143.366317,92.7438452 142.958504,92.9196555 142.660361,93.2264693 C142.362218,93.5332831 142.198169,93.9459677 142.204301,94.3737366 L142.204301,95.9866398 L129.301075,95.9866398 L129.301075,94.3737366 C129.307323,93.9379515 129.136964,93.5181832 128.828785,93.210005 C128.520607,92.9018267 128.100839,92.7314676 127.665054,92.7377151 L127.665054,92.7377151 Z M116.935484,99.2124462 L126.075269,99.2124462 L126.075269,100.825349 C126.067043,101.40702 126.372648,101.948061 126.875064,102.241297 C127.377479,102.534533 127.998865,102.534533 128.50128,102.241297 C129.003696,101.948061 129.309302,101.40702 129.301075,100.825349 L129.301075,99.2124462 L142.204301,99.2124462 L142.204301,100.825349 C142.196075,101.40702 142.501681,101.948061 143.004096,102.241297 C143.506511,102.534533 144.127897,102.534533 144.630313,102.241297 C145.132728,101.948061 145.438334,101.40702 145.430108,100.825349 L145.430108,99.2124462 L154.569892,99.2124462 C156.682688,99.2124462 158.333333,100.863199 158.333333,102.975887 L158.333333,106.739328 L113.172043,106.739328 L113.172043,102.975887 C113.172043,100.863199 114.822581,99.2124462 116.935484,99.2124462 L116.935484,99.2124462 Z M80.9139789,106.182769 L97.3411828,106.182769 C96.9665591,107.972769 96.7190323,109.808683 96.5977419,111.67879 C96.3978677,111.597137 96.1836351,111.55644 95.9677419,111.559113 L89.516129,111.559113 C88.9344582,111.550887 88.3934172,111.856492 88.1001811,112.358908 C87.806945,112.861323 87.806945,113.482709 88.1001811,113.985124 C88.3934172,114.48754 88.9344582,114.793146 89.516129,114.784919 L95.9677419,114.784919 C96.1543146,114.786742 96.3397889,114.756181 96.515914,114.694597 C96.6855914,129.776801 105.383656,142.8225 118.010753,149.244005 L118.010753,169.086048 C118.010753,170.603253 116.839677,171.77422 115.322581,171.77422 L80.9139789,171.77422 C79.3968822,171.77422 78.2258069,170.603253 78.2258069,169.086048 L78.2258069,108.870941 C78.2258069,107.353844 79.3968822,106.182769 80.9139789,106.182769 L80.9139789,106.182769 Z M113.172043,109.965134 L158.333333,109.965134 L158.333333,128.782392 C158.333333,130.895296 156.682688,132.545941 154.569892,132.545833 L116.935484,132.545833 C114.822581,132.545833 113.172043,130.895296 113.172043,128.782392 L113.172043,109.965134 L113.172043,109.965134 Z M121.774194,114.803844 C121.192523,114.795618 120.651482,115.101224 120.358246,115.603639 C120.06501,116.106054 120.06501,116.72744 120.358246,117.229856 C120.651482,117.732271 121.192523,118.037877 121.774194,118.029651 L149.731183,118.029651 C150.312854,118.037877 150.853895,117.732271 151.147131,117.229856 C151.440367,116.72744 151.440367,116.106054 151.147131,115.603639 C150.853895,115.101224 150.312854,114.795618 149.731183,114.803844 L121.774194,114.803844 L121.774194,114.803844 Z M121.774194,122.868414 C121.192523,122.860188 120.651482,123.165793 120.358246,123.668209 C120.06501,124.170624 120.06501,124.79201 120.358246,125.294426 C120.651482,125.796841 121.192523,126.102447 121.774194,126.09422 L149.731183,126.09422 C150.312854,126.102447 150.853895,125.796841 151.147131,125.294426 C151.440367,124.79201 151.440367,124.170624 151.147131,123.668209 C150.853895,123.165793 150.312854,122.860188 149.731183,122.868414 L121.774194,122.868414 L121.774194,122.868414 Z M98.1182796,162.096801 C96.6336431,162.096801 95.4301075,163.300337 95.4301075,164.784973 C95.4301075,166.26961 96.6336431,167.473145 98.1182796,167.473145 C99.602916,167.473145 100.806452,166.26961 100.806452,164.784973 C100.806452,163.300337 99.602916,162.096801 98.1182796,162.096801 L98.1182796,162.096801 Z" class="icon" fill="#FFFFFF"></path>
</svg>