<?xml version="1.0" encoding="utf-8"?>
<!-- Generator: Adobe Illustrator 16.0.0, SVG Export Plug-In . SVG Version: 6.00 Build 0)  -->
<!DOCTYPE svg PUBLIC "-//W3C//DTD SVG 1.1//EN" "http://www.w3.org/Graphics/SVG/1.1/DTD/svg11.dtd">
<svg version="1.1" id="Layer_1" xmlns="http://www.w3.org/2000/svg" xmlns:xlink="http://www.w3.org/1999/xlink" x="0px" y="0px"
	 width="64px" height="64px" viewBox="0 0 64 64" enable-background="new 0 0 64 64" xml:space="preserve">
<g>
	<path fill="none" stroke="#65A6D1" stroke-width="2" stroke-miterlimit="10" d="M32.294,61.387h-0.588
		c-16.068,0-29.093-13.025-29.093-29.093v-0.588c0-16.067,13.025-29.092,29.093-29.092h0.588c16.067,0,29.093,13.025,29.093,29.092
		v0.588C61.387,48.361,48.361,61.387,32.294,61.387z"/>
	<path fill="#65A6D1" d="M23.996,47.146c-1.962,0-3.85-0.775-5.219-2.182c-2.885-2.889-2.885-7.588,0-10.473L35.17,18.284
		c0.925-0.925,2.258-1.479,3.626-1.479c1.37,0,2.702,0.554,3.664,1.517c2.034,2.034,2.034,5.292,0,7.326L26.067,41.855
		c-0.555,0.555-1.296,0.852-2.071,0.852c-0.778,0-1.518-0.297-2.11-0.852c-1.147-1.148-1.147-3.033,0-4.184l8.252-8.065
		c0.294-0.296,0.776-0.296,1.035,0c0.297,0.296,0.297,0.777,0,1.036l-8.215,8.068c-0.554,0.555-0.554,1.516,0,2.07
		c0.296,0.297,0.667,0.445,1.038,0.445c0.405,0,0.775-0.148,1.035-0.445l16.393-16.207c1.443-1.443,1.443-3.774,0-5.216
		c-0.703-0.704-1.628-1.074-2.628-1.074c-0.999,0-1.923,0.37-2.628,1.074L19.814,35.564c-2.294,2.295-2.294,6.068,0,8.363
		c1.11,1.109,2.59,1.738,4.182,1.738c1.59,0,3.07-0.629,4.181-1.738L42.348,29.94c0.297-0.296,0.779-0.296,1.036,0
		c0.297,0.295,0.297,0.777,0,1.036L29.212,45C27.843,46.371,25.956,47.146,23.996,47.146"/>
</g>
</svg>
