<?xml version="1.0" encoding="utf-8"?>
<!-- Generator: Adobe Illustrator 16.0.0, SVG Export Plug-In . SVG Version: 6.00 Build 0)  -->
<!DOCTYPE svg PUBLIC "-//W3C//DTD SVG 1.1//EN" "http://www.w3.org/Graphics/SVG/1.1/DTD/svg11.dtd">
<svg version="1.1" id="Layer_1" xmlns="http://www.w3.org/2000/svg" xmlns:xlink="http://www.w3.org/1999/xlink" x="0px" y="0px"
	 width="64px" height="64px" viewBox="0 0 64 64" enable-background="new 0 0 64 64" xml:space="preserve">
<g>
	<path fill="#59A9F7" d="M32.316,63.6h-0.633C14.406,63.6,0.4,49.594,0.4,32.316v-0.632C0.4,14.406,14.406,0.4,31.684,0.4h0.633
		C49.594,0.4,63.6,14.406,63.6,31.685v0.632C63.6,49.594,49.594,63.6,32.316,63.6"/>
	<path fill="#FFFFFF" d="M21.733,25.043l21.901,2.041l-1.563,8.596H24.615L21.733,25.043 M42.543,41.963
		c0.146,0,0.264,0.117,0.264,0.264c0,0.146-0.117,0.264-0.264,0.264c-0.143,0-0.24-0.109-0.26-0.211l-0.014-0.072l0.023-0.068
		C42.316,42.074,42.395,41.963,42.543,41.963 M19.125,19.11h-3.869v1.667h2.836l4.651,17.178l-0.795,1.688
		c-1.155,0.291-2.012,1.338-2.012,2.584c0,1.471,1.192,2.664,2.664,2.664c1.297,0,2.377-0.926,2.614-2.152h14.713l0,0
		c0.238,1.227,1.318,2.152,2.615,2.152c1.473,0,2.664-1.193,2.664-2.664c0-1.472-1.191-2.664-2.664-2.664
		c-1.166,0-2.156,0.747-2.518,1.791l0,0H25.117l0.001-0.002c-0.251-0.722-0.805-1.305-1.512-1.592l0,0l0.71-1.68h19.758
		l2.391-13.142l-26.41-2.463L19.125,19.11z M46.466,24.93l-0.001,0.009h0.001V24.93z"/>
</g>
</svg>
