<?xml version="1.0" encoding="utf-8"?>
<!-- Generator: Adobe Illustrator 16.0.0, SVG Export Plug-In . SVG Version: 6.00 Build 0)  -->
<!DOCTYPE svg PUBLIC "-//W3C//DTD SVG 1.1//EN" "http://www.w3.org/Graphics/SVG/1.1/DTD/svg11.dtd">
<svg version="1.1" id="Layer_1" xmlns="http://www.w3.org/2000/svg" xmlns:xlink="http://www.w3.org/1999/xlink" x="0px" y="0px"
	 width="64px" height="64px" viewBox="0 0 64 64" enable-background="new 0 0 64 64" xml:space="preserve">
<g>
	<path fill="#99E567" d="M32.299,3.713c15.433,0,27.988,12.555,27.988,27.988V32.3c0,15.431-12.556,27.987-27.988,27.987h-0.6
		c-15.432,0-27.986-12.556-27.986-27.987v-0.599c0-15.433,12.555-27.988,27.986-27.988H32.299 M32.299,2.033h-0.6
		c-16.384,0-29.667,13.283-29.667,29.668V32.3c0,16.384,13.283,29.667,29.667,29.667h0.6c16.386,0,29.669-13.282,29.669-29.667
		v-0.599C61.968,15.316,48.685,2.033,32.299,2.033"/>
	<path fill="#99E567" d="M35.272,15.917l-7.427,0.08H25.45c-0.726,0-1.315,0.59-1.315,1.314v0.753v0.056v0.46
		c0,0.744,0.601,1.033,0.999,1.224l1.134,0.406c-0.01,0.488-0.261,1.397-0.646,2.291c-0.043,0.099-0.179,0.205-0.323,0.319
		c-0.271,0.214-0.645,0.509-0.75,1.046c-0.094,0.469,0.083,0.891,0.469,1.129c0.236,0.145,0.54,0.208,0.857,0.208
		c0.521,0,1.077-0.172,1.411-0.433c1.011-0.792,1.532-2.06,1.908-3.282c0.022-0.07,0.042-0.139,0.062-0.208l1.249,0.446l0.016,0.771
		l0.004,0.161c-0.571,0.208-0.984,0.753-0.984,1.396v2.184c0,0.018,0.005,0.034,0.006,0.051c-0.001,0.018-0.006,0.034-0.006,0.051
		c0,0.309,0.251,0.558,0.559,0.558h0.171v1.278c0,1.889-2.112,3.764-3.245,4.24c-1.581,0.667-1.884,2.675-1.896,2.759l-0.281,10.62
		c0,0.82,0.668,1.489,1.489,1.489h2.307h2.55h5.529c0.824,0,1.491-0.669,1.491-1.489V33.876l-0.001-0.038
		c-0.004-0.058-0.104-1.4-0.595-2.531c-0.179-0.409-0.44-0.86-0.69-1.295c-0.365-0.631-0.818-1.416-0.818-1.796
		c0-0.565-0.004-1.058-0.006-1.318h0.098c0.309,0,0.558-0.25,0.558-0.558c0-0.027-0.005-0.053-0.009-0.08
		c0.004-0.027,0.009-0.053,0.009-0.081v-2.125c0-0.751-0.562-1.367-1.284-1.469v-1.397c0.257-0.11,1.055-0.087,1.544-0.074
		c1.064,0.029,2.07,0.058,2.573-0.491c0.143-0.158,0.303-0.43,0.266-0.838v-0.337L35.272,15.917z M37.05,19.999
		c-1.028-0.029-1.916-0.054-2.395,0.411c-0.193,0.187-0.296,0.433-0.296,0.709v1.445h-0.019h-0.199h-0.42h-2.083l-0.024-1.189
		l-0.009-0.441L27.8,19.582l-2.089-0.743l-0.047-0.016L25.617,18.8c-0.132-0.064-0.333-0.16-0.367-0.219v-0.092v-0.106v-0.263
		v-0.055v-0.753c0-0.109,0.089-0.199,0.2-0.199h2.402l7.047-0.077l3.756,2.892C38.325,20.035,37.515,20.012,37.05,19.999
		 M26.599,23.892c-0.231,0.181-0.757,0.238-0.953,0.174c0.029-0.112,0.133-0.202,0.345-0.37c0.223-0.176,0.5-0.395,0.654-0.751
		c0.164-0.38,0.591-1.434,0.707-2.346l0.854,0.304C27.871,22.038,27.432,23.239,26.599,23.892 M34.994,28.215
		c0,0.68,0.47,1.493,0.968,2.355c0.236,0.408,0.481,0.831,0.634,1.181c0.387,0.89,0.489,1.996,0.503,2.148v11.896
		c0,0.207-0.168,0.374-0.375,0.374h-5.53h-2.55h-2.306c-0.208,0-0.375-0.167-0.376-0.359l0.274-10.502
		c0.036-0.197,0.304-1.477,1.222-1.863c1.326-0.557,3.927-2.744,3.927-5.269v-1.278h3.603
		C34.991,27.153,34.994,27.646,34.994,28.215 M35.644,24.054v1.728h-4.986v-1.728c0-0.207,0.167-0.374,0.374-0.374h2.69h0.619h0.928
		C35.476,23.68,35.644,23.847,35.644,24.054"/>
</g>
</svg>
