<?xml version="1.0" encoding="utf-8"?>
<!-- Generator: Adobe Illustrator 16.0.0, SVG Export Plug-In . SVG Version: 6.00 Build 0)  -->
<!DOCTYPE svg PUBLIC "-//W3C//DTD SVG 1.1//EN" "http://www.w3.org/Graphics/SVG/1.1/DTD/svg11.dtd">
<svg version="1.1" id="Layer_1" xmlns="http://www.w3.org/2000/svg" xmlns:xlink="http://www.w3.org/1999/xlink" x="0px" y="0px"
	 width="64px" height="64px" viewBox="0 0 64 64" enable-background="new 0 0 64 64" xml:space="preserve">
<g>
	<g>
		<defs>
			<rect id="SVGID_1_" x="1.308" y="1.309" width="61.383" height="61.382"/>
		</defs>
		<clipPath id="SVGID_2_">
			<use xlink:href="#SVGID_1_"  overflow="visible"/>
		</clipPath>
		<path clip-path="url(#SVGID_2_)" fill="#51CE9E" d="M32.001,3.838C47.527,3.838,60.16,16.471,60.16,32
			c0,15.526-12.633,28.161-28.159,28.161C16.473,60.16,3.84,47.525,3.84,32C3.84,16.471,16.473,3.838,32.001,3.838 M32.001,1.309
			C15.049,1.309,1.308,15.049,1.308,32c0,16.952,13.741,30.692,30.693,30.692c16.952,0,30.69-13.74,30.69-30.692
			C62.691,15.049,48.953,1.309,32.001,1.309"/>
		<path clip-path="url(#SVGID_2_)" fill="#51CE9E" d="M21.25,25.947c0-1.669,0.25-3.189,0.753-4.555
			c0.5-1.369,1.23-2.537,2.187-3.512c0.958-0.97,2.111-1.722,3.463-2.253c1.351-0.532,2.861-0.799,4.533-0.799
			c1.396,0,2.693,0.205,3.895,0.616c1.203,0.411,2.248,1.002,3.145,1.776c0.895,0.774,1.604,1.74,2.117,2.893
			c0.52,1.156,0.775,2.461,0.775,3.919c0,1.063-0.113,1.982-0.34,2.756c-0.229,0.775-0.533,1.444-0.912,2.006
			c-0.379,0.56-0.812,1.063-1.299,1.503c-0.486,0.439-0.973,0.872-1.459,1.297c-0.576,0.486-1.109,0.958-1.596,1.415
			c-0.482,0.455-0.908,0.963-1.273,1.525c-0.363,0.562-0.646,1.221-0.844,1.98s-0.297,1.688-0.297,2.779h-4.919
			c0-1.334,0.069-2.467,0.205-3.395c0.136-0.926,0.356-1.738,0.66-2.436c0.303-0.7,0.675-1.316,1.116-1.846
			c0.441-0.533,0.964-1.056,1.573-1.574c0.487-0.425,0.948-0.819,1.391-1.185c0.439-0.364,0.832-0.765,1.186-1.207
			c0.346-0.44,0.619-0.934,0.818-1.481c0.197-0.545,0.295-1.2,0.295-1.957c0-0.914-0.158-1.694-0.479-2.349
			c-0.318-0.652-0.705-1.178-1.16-1.571c-0.457-0.396-0.941-0.684-1.459-0.865c-0.516-0.183-0.972-0.273-1.366-0.273
			c-1.884,0-3.275,0.616-4.169,1.845c-0.896,1.229-1.344,2.878-1.344,4.943H21.25z M28.495,42.441H34.6v5.695h-6.105V42.441z"/>
	</g>
</g>
</svg>
