<?xml version="1.0" encoding="utf-8"?>
<!-- Generator: Adobe Illustrator 16.0.0, SVG Export Plug-In . SVG Version: 6.00 Build 0)  -->
<!DOCTYPE svg PUBLIC "-//W3C//DTD SVG 1.1//EN" "http://www.w3.org/Graphics/SVG/1.1/DTD/svg11.dtd">
<svg version="1.1" id="Layer_1" xmlns="http://www.w3.org/2000/svg" xmlns:xlink="http://www.w3.org/1999/xlink" x="0px" y="0px"
	 width="64px" height="64px" viewBox="0 0 64 64" enable-background="new 0 0 64 64" xml:space="preserve">
<g>
	<g>
		<defs>
			<rect id="SVGID_1_" x="0.75" y="0.75" width="62.5" height="62.5"/>
		</defs>
		<clipPath id="SVGID_2_">
			<use xlink:href="#SVGID_1_"  overflow="visible"/>
		</clipPath>
		<path clip-path="url(#SVGID_2_)" fill="#B2B2B2" d="M32,63.25c-1.302,0-2.613-0.084-3.903-0.244
			c-1.734-0.218-3.042-1.699-3.042-3.446v-3.749c0-0.318-0.182-0.566-0.484-0.664c-1.262-0.402-2.502-0.916-3.686-1.525
			c-0.28-0.144-0.59-0.096-0.812,0.127l-2.651,2.65c-0.656,0.658-1.531,1.021-2.455,1.021c-0.768,0-1.524-0.262-2.135-0.735
			c-2.057-1.602-3.915-3.458-5.517-5.518c-1.073-1.38-0.95-3.351,0.284-4.589l2.653-2.651c0.224-0.225,0.272-0.527,0.126-0.811
			c-0.607-1.179-1.121-2.419-1.526-3.688c-0.098-0.303-0.346-0.484-0.664-0.484H4.439c-1.748,0-3.229-1.309-3.447-3.044
			c-0.323-2.589-0.323-5.215,0-7.804c0.218-1.734,1.699-3.042,3.447-3.042h3.749c0.317,0,0.565-0.182,0.661-0.484
			c0.406-1.266,0.92-2.506,1.527-3.688c0.146-0.282,0.1-0.586-0.125-0.81L7.6,17.422c-1.236-1.236-1.359-3.211-0.286-4.589
			c1.603-2.062,3.458-3.917,5.517-5.519c0.609-0.474,1.368-0.734,2.135-0.734c0.926,0,1.798,0.362,2.456,1.02l2.649,2.65
			c0.223,0.224,0.53,0.273,0.812,0.129c1.179-0.608,2.419-1.122,3.686-1.527c0.305-0.097,0.486-0.346,0.486-0.663V4.439
			c0-1.749,1.308-3.229,3.042-3.447c2.581-0.324,5.229-0.323,7.804,0c1.735,0.218,3.044,1.698,3.044,3.447v3.748
			c0,0.318,0.182,0.566,0.484,0.662c1.265,0.406,2.505,0.92,3.687,1.527c0.281,0.145,0.588,0.096,0.812-0.128l2.65-2.65
			c0.659-0.657,1.53-1.021,2.456-1.021c0.767,0,1.523,0.262,2.134,0.735c2.058,1.601,3.916,3.457,5.518,5.518
			c1.074,1.379,0.95,3.352-0.286,4.59l-2.649,2.649c-0.226,0.225-0.274,0.529-0.128,0.811c0.605,1.18,1.119,2.42,1.525,3.688
			c0.098,0.304,0.346,0.485,0.662,0.485h3.75c1.75,0,3.229,1.308,3.447,3.042c0.324,2.591,0.324,5.215,0,7.804
			c-0.218,1.735-1.697,3.044-3.447,3.044h-3.748c-0.318,0-0.566,0.182-0.664,0.484c-0.402,1.263-0.916,2.504-1.525,3.686
			c-0.145,0.284-0.098,0.587,0.128,0.812l2.651,2.651c1.235,1.236,1.358,3.208,0.284,4.589c-1.601,2.058-3.456,3.914-5.517,5.518
			c-0.609,0.474-1.367,0.734-2.135,0.734c-0.926,0-1.797-0.361-2.456-1.021l-2.649-2.651c-0.225-0.222-0.529-0.271-0.811-0.125
			c-1.184,0.607-2.424,1.12-3.688,1.524c-0.304,0.099-0.485,0.347-0.485,0.664v3.749c0,1.748-1.309,3.229-3.042,3.447
			C34.613,63.166,33.3,63.25,32,63.25 M20.555,50.76c0.55,0,1.104,0.135,1.599,0.392c1.049,0.538,2.146,0.993,3.265,1.35
			c1.443,0.463,2.415,1.794,2.415,3.309v3.749c0,0.355,0.257,0.646,0.61,0.69c2.349,0.294,4.764,0.294,7.113,0
			c0.354-0.044,0.61-0.335,0.61-0.689v-3.749c0-1.516,0.97-2.847,2.412-3.309c1.122-0.358,2.22-0.812,3.267-1.35
			c1.327-0.683,2.992-0.422,4.045,0.633l2.652,2.649c0.131,0.134,0.307,0.206,0.489,0.206c0.106,0,0.27-0.025,0.43-0.149
			c1.878-1.46,3.57-3.153,5.029-5.029c0.218-0.281,0.195-0.669-0.058-0.919l-2.651-2.652c-1.07-1.071-1.325-2.697-0.632-4.045
			c0.538-1.049,0.993-2.145,1.351-3.264c0.464-1.445,1.794-2.416,3.308-2.416h3.75c0.355,0,0.646-0.257,0.69-0.61
			c0.297-2.36,0.297-4.754,0-7.113c-0.044-0.353-0.335-0.61-0.69-0.61h-3.748c-1.516,0-2.846-0.971-3.309-2.414
			c-0.361-1.123-0.814-2.223-1.35-3.265c-0.693-1.348-0.44-2.974,0.633-4.046l2.648-2.65c0.254-0.253,0.277-0.639,0.059-0.92
			c-1.461-1.877-3.153-3.57-5.03-5.03c-0.159-0.123-0.32-0.15-0.429-0.15c-0.184,0-0.357,0.075-0.49,0.206l-2.652,2.652
			c-1.057,1.056-2.719,1.314-4.045,0.633c-1.046-0.538-2.144-0.992-3.264-1.352c-1.444-0.462-2.415-1.791-2.415-3.308V4.439
			c0-0.356-0.257-0.646-0.61-0.691c-2.35-0.293-4.764-0.293-7.114,0c-0.353,0.043-0.609,0.335-0.609,0.691v3.749
			c0,1.518-0.972,2.846-2.415,3.308c-1.121,0.359-2.22,0.814-3.265,1.352c-1.328,0.683-2.991,0.422-4.046-0.632l-2.65-2.653
			c-0.134-0.131-0.309-0.206-0.491-0.206c-0.108,0-0.27,0.026-0.427,0.149c-1.878,1.46-3.572,3.152-5.033,5.031
			c-0.219,0.279-0.194,0.667,0.057,0.92l2.652,2.65c1.071,1.073,1.325,2.698,0.633,4.046c-0.538,1.046-0.993,2.144-1.354,3.265
			c-0.459,1.443-1.789,2.414-3.306,2.414H4.441c-0.357,0-0.647,0.256-0.691,0.61c-0.295,2.359-0.295,4.753,0,7.113
			c0.044,0.354,0.333,0.61,0.689,0.61h3.749c1.517,0,2.847,0.971,3.311,2.414c0.357,1.122,0.811,2.221,1.349,3.265
			c0.695,1.348,0.441,2.974-0.632,4.046L9.564,48.54c-0.25,0.253-0.275,0.64-0.058,0.921c1.461,1.878,3.154,3.571,5.032,5.03
			c0.158,0.123,0.319,0.149,0.427,0.149c0.185,0,0.358-0.072,0.491-0.207l2.65-2.65C18.77,51.123,19.639,50.76,20.555,50.76
			 M32,43.807c-3.154,0-6.119-1.229-8.348-3.46c-2.23-2.23-3.459-5.194-3.459-8.347c0-3.154,1.229-6.12,3.459-8.349
			c2.229-2.23,5.193-3.458,8.348-3.458s6.119,1.228,8.348,3.458c2.229,2.229,3.459,5.194,3.459,8.349
			c0,3.152-1.229,6.117-3.459,8.347C38.119,42.577,35.154,43.807,32,43.807 M32,22.971c-2.412,0-4.68,0.94-6.385,2.645
			c-1.704,1.705-2.645,3.973-2.645,6.385c0,2.41,0.94,4.679,2.645,6.383c1.705,1.705,3.973,2.644,6.385,2.644
			s4.679-0.938,6.384-2.644c1.704-1.704,2.644-3.973,2.644-6.383c0-2.412-0.939-4.68-2.644-6.385
			C36.679,23.911,34.412,22.971,32,22.971"/>
	</g>
</g>
</svg>
