<?xml version="1.0" encoding="utf-8"?>
<!-- Generator: Adobe Illustrator 16.0.0, SVG Export Plug-In . SVG Version: 6.00 Build 0)  -->
<!DOCTYPE svg PUBLIC "-//W3C//DTD SVG 1.1//EN" "http://www.w3.org/Graphics/SVG/1.1/DTD/svg11.dtd">
<svg version="1.1" id="Layer_1" xmlns="http://www.w3.org/2000/svg" xmlns:xlink="http://www.w3.org/1999/xlink" x="0px" y="0px"
	 width="64px" height="64px" viewBox="0 0 64 64" enable-background="new 0 0 64 64" xml:space="preserve">
<g>
	<path fill="#81B566" d="M63.293,31.066c-0.045-0.59-0.389-1.117-0.95-1.447l-1.818-1.066l-1.72,1.379l2.213,1.3L26.26,59.117
		c-0.077,0.062-0.242,0.12-0.441,0.12c-0.147,0-0.258-0.031-0.312-0.065L2.983,45.944l2.305-1.849l-1.903-1.117l-1.946,1.562
		c-0.506,0.408-0.773,0.979-0.731,1.57c0.044,0.59,0.39,1.115,0.951,1.445L24.461,60.95c0.392,0.229,0.861,0.351,1.357,0.351
		c0.645,0,1.275-0.209,1.73-0.575l35.015-28.091C63.069,32.229,63.338,31.657,63.293,31.066"/>
	<path fill="#81B566" d="M39.528,44.074L26.257,54.721c-0.074,0.059-0.24,0.121-0.439,0.121c-0.149,0-0.257-0.035-0.314-0.068
		L2.984,41.547L5.288,39.7l-1.903-1.117l-1.946,1.562c-0.506,0.406-0.773,0.977-0.731,1.568c0.044,0.589,0.39,1.117,0.951,1.447
		l22.803,13.393c0.392,0.229,0.861,0.351,1.357,0.351c0.645,0,1.275-0.21,1.73-0.574l11.98-9.612V44.074z"/>
	<path fill="#81B566" d="M63.293,26.668c-0.045-0.59-0.389-1.117-0.95-1.447l-1.818-1.066l-1.72,1.38l2.213,1.299l-11.51,9.236
		v2.643l13.056-10.474C63.069,27.832,63.338,27.259,63.293,26.668"/>
	<path fill="#81B566" d="M25.818,48.108c-0.496,0-0.966-0.121-1.356-0.352L1.658,34.364c-0.561-0.33-0.907-0.857-0.951-1.446
		c-0.043-0.59,0.223-1.163,0.731-1.569l35.014-28.09c0.805-0.646,2.191-0.75,3.085-0.225l22.806,13.394
		c0.562,0.331,0.907,0.855,0.95,1.445c0.043,0.591-0.224,1.162-0.729,1.57L27.548,47.532C27.094,47.897,26.463,48.108,25.818,48.108
		 M2.983,32.752L25.506,45.98c0.054,0.032,0.165,0.065,0.312,0.065c0.201,0,0.365-0.059,0.44-0.119l34.759-27.886L38.495,4.812
		c-0.056-0.032-0.167-0.067-0.314-0.067c-0.198,0-0.361,0.062-0.438,0.123L2.983,32.752z"/>
	<path fill="#81B566" d="M30.537,17.456c2.65,0.398,5.42,1.334,7.893,2.784c2.468,1.45,4.243,3.185,5.226,4.92l3.151,1.852
		l8.712-6.987c-1.992-1.168-2.423-3.063-0.967-4.231L42.334,8.617c-1.457,1.169-4.252,1.17-6.239,0l-8.711,6.987L30.537,17.456z"/>
	<path fill="#81B566" d="M34.127,33.429c-2.848-0.333-5.88-1.303-8.555-2.875c-2.677-1.572-4.542-3.478-5.463-5.357l-2.702-1.587
		l-8.925,7.159c1.99,1.168,2.421,3.063,0.966,4.232l12.217,7.174c1.457-1.169,4.249-1.169,6.24-0.003l8.925-7.157L34.127,33.429z"/>
	<path fill="#81B566" d="M39.528,39.676L26.257,50.323c-0.074,0.06-0.24,0.121-0.439,0.121c-0.149,0-0.257-0.034-0.314-0.066
		l-22.52-13.23l2.302-1.846l-1.902-1.118l-1.946,1.562c-0.506,0.408-0.774,0.979-0.731,1.57c0.044,0.59,0.39,1.116,0.951,1.445
		l22.803,13.392c0.392,0.229,0.861,0.352,1.357,0.352c0.645,0,1.275-0.209,1.73-0.573l11.98-9.611V39.676z"/>
	<path fill="#81B566" d="M63.293,22.272c-0.045-0.591-0.389-1.118-0.95-1.447l-1.818-1.067l-1.72,1.379l2.213,1.299l-11.51,9.236
		v2.641l13.056-10.472C63.069,23.435,63.338,22.862,63.293,22.272"/>
	<path fill="#81B566" d="M49.415,27.348l-24.82-14.577l-11.698,9.385l25.602,15.036V51.94l12.037-9.656V29.09L49.415,27.348z
		 M24.777,15.269l22.918,13.46l-5.696,4.569l-2.561,2.055L16.52,21.893L24.777,15.269z M48.476,41.292l-7.916,6.351V37.096
		l5.35-4.293l2.566-2.059V41.292z"/>
</g>
</svg>
