<?xml version="1.0" encoding="utf-8"?>
<!-- Generator: Adobe Illustrator 16.0.0, SVG Export Plug-In . SVG Version: 6.00 Build 0)  -->
<!DOCTYPE svg PUBLIC "-//W3C//DTD SVG 1.1//EN" "http://www.w3.org/Graphics/SVG/1.1/DTD/svg11.dtd">
<svg version="1.1" id="Layer_1" xmlns="http://www.w3.org/2000/svg" xmlns:xlink="http://www.w3.org/1999/xlink" x="0px" y="0px"
	 width="64px" height="64px" viewBox="0 0 64 64" enable-background="new 0 0 64 64" xml:space="preserve">
<g>
	<polygon fill="#B2B2B2" points="53.019,59.166 41.376,59.166 41.376,41.055 23.267,41.055 23.267,59.166 11.625,59.166 
		11.625,34.518 9.037,34.518 9.037,61.752 25.854,61.752 25.854,43.643 38.79,43.643 38.79,61.752 55.606,61.752 55.606,34.518 
		53.019,34.518 	"/>
	<polygon fill="#B2B2B2" points="34.439,4.116 34.477,4.077 32.646,2.248 20.68,14.216 20.68,4.835 18.093,4.835 18.093,16.803 
		0.632,34.264 2.461,36.094 32.61,5.945 61.538,36.094 63.368,34.264 	"/>
</g>
</svg>
