<?xml version="1.0" encoding="UTF-8" standalone="no"?>
<svg width="80px" height="80px" viewBox="0 0 80 80" version="1.1" xmlns="http://www.w3.org/2000/svg" xmlns:xlink="http://www.w3.org/1999/xlink" xmlns:sketch="http://www.bohemiancoding.com/sketch/ns">
    <!-- Generator: Sketch 3.3.3 (12081) - http://www.bohemiancoding.com/sketch -->
    <title>icon-037</title>
    <desc>Created with Sketch.</desc>
    <defs></defs>
    <g id="ICONS-&amp;-IMAGERY" stroke="none" stroke-width="1" fill="none" fill-rule="evenodd" sketch:type="MSPage">
        <g id="Desktop-HD" sketch:type="MSArtboardGroup" transform="translate(-100.000000, -838.000000)">
            <g id="icon-037" sketch:type="MSLayerGroup" transform="translate(100.000000, 838.000000)">
                <path d="M39.239662,79.2740716 C17.5667329,79.2740716 0,61.7053318 0,40.0324027 L0,39.2406654 C0,17.5677363 17.5667329,0 39.239662,0 L40.0324027,0 C61.7063352,0 79.2740716,17.5677363 79.2740716,39.2406654 L79.2740716,40.0324027 C79.2740716,61.7053318 61.7063352,79.2740716 40.0324027,79.2740716 L39.239662,79.2740716 Z" id="Fill-14" fill="#65A6D1" sketch:type="MSShapeGroup"></path>
                <path d="M29.6296296,26.6666667 L29.6296296,31.8518519 L25.9259259,31.8518519 L25.9259259,33.3333333 L29.6296296,33.3333333 L29.6296296,37.037037 L25.9259259,37.037037 L25.9259259,38.5185185 L29.6296296,38.5185185 L29.6296296,42.2222222 L25.9259259,42.2222222 L25.9259259,43.7037037 L29.6296296,43.7037037 L29.6296296,47.4074074 L25.9259259,47.4074074 L25.9259259,48.8888889 L29.6296296,48.8888889 L29.6296296,53.3333333 L54.0740741,53.3333333 L54.0740741,26.6666667 L29.6296296,26.6666667 L29.6296296,26.6666667 Z M52.5925926,51.8518519 L31.1111111,51.8518519 L31.1111111,48.8888889 L34.0740741,48.8888889 L34.0740741,47.4074074 L31.1111111,47.4074074 L31.1111111,43.7037037 L34.0740741,43.7037037 L34.0740741,42.2222222 L31.1111111,42.2222222 L31.1111111,38.5185185 L34.0740741,38.5185185 L34.0740741,37.037037 L31.1111111,37.037037 L31.1111111,33.3333333 L34.0740741,33.3333333 L34.0740741,31.8518519 L31.1111111,31.8518519 L31.1111111,28.1481481 L42.2222222,28.1481481 L42.2222222,39.0592593 L44.8148148,36.8259259 L47.4074074,39.0592593 L47.4074074,28.1481481 L52.5925926,28.1481481 L52.5925926,51.8518519 L52.5925926,51.8518519 Z" id="Fill-15" fill="#FFFFFF" sketch:type="MSShapeGroup"></path>
            </g>
        </g>
    </g>
</svg>