<?xml version="1.0" encoding="utf-8"?>
<!-- Generator: Adobe Illustrator 16.0.0, SVG Export Plug-In . SVG Version: 6.00 Build 0)  -->
<!DOCTYPE svg PUBLIC "-//W3C//DTD SVG 1.1//EN" "http://www.w3.org/Graphics/SVG/1.1/DTD/svg11.dtd">
<svg version="1.1" id="Layer_1" xmlns="http://www.w3.org/2000/svg" xmlns:xlink="http://www.w3.org/1999/xlink" x="0px" y="0px"
	 width="64px" height="64px" viewBox="0 0 64 64" enable-background="new 0 0 64 64" xml:space="preserve">
<g>
	<defs>
		<rect id="SVGID_1_" x="9.73" y="0.416" width="44.539" height="63.168"/>
	</defs>
	<clipPath id="SVGID_2_">
		<use xlink:href="#SVGID_1_"  overflow="visible"/>
	</clipPath>
	<path clip-path="url(#SVGID_2_)" d="M31.999,0.416c-12.296,0-22.268,9.971-22.268,22.271c0,2.917,0.575,5.696,1.597,8.252
		c4.753,15.709,20.335,32.645,20.335,32.645s18.839-19.65,22.114-36.253c0.042-0.201,0.074-0.403,0.108-0.606
		c0.073-0.409,0.136-0.811,0.186-1.218c0.039-0.295,0.076-0.588,0.104-0.892c0.058-0.647,0.096-1.293,0.096-1.928
		C54.27,10.387,44.301,0.416,31.999,0.416 M31.793,33.004c-6.367,0-11.529-5.164-11.529-11.531c0-6.369,5.162-11.531,11.529-11.531
		c6.368,0,11.531,5.162,11.531,11.531C43.324,27.84,38.161,33.004,31.793,33.004"/>
</g>
</svg>
