<?xml version="1.0" encoding="UTF-8" standalone="no"?>
<svg width="180px" height="180px" viewBox="0 0 180 180" version="1.1" xmlns="http://www.w3.org/2000/svg" xmlns:xlink="http://www.w3.org/1999/xlink" xmlns:sketch="http://www.bohemiancoding.com/sketch/ns">
    <!-- Generator: Sketch 3.4.1 (15681) - http://www.bohemiancoding.com/sketch -->
    <title>Artboard</title>
    <desc>Created with Sketch.</desc>
    <defs></defs>
    <g id="Page-1" stroke="none" stroke-width="1" fill="none" fill-rule="evenodd" sketch:type="MSPage">
        <g id="Artboard" sketch:type="MSArtboardGroup">
            <g id="focus-copy-+-flattened" sketch:type="MSLayerGroup">
                <g id="focus-copy" sketch:type="MSShapeGroup">
                    <g id="Mask" fill="#8A9EA3">
                        <rect id="path-1" x="0" y="0" width="180" height="180"></rect>
                    </g>
                    <g id="Group-Clipped" transform="translate(14.000000, 14.000000)">
                        <g id="Group">
                            <g transform="translate(0.500000, 0.500000)">
                                <circle id="Oval-5-Copy-3" fill="#8A9EA3" cx="75.5" cy="75.5" r="75"></circle>
                                <circle id="Oval-5-Copy-6" fill-opacity="0.1" fill="#000000" cx="75.5" cy="75.5" r="75"></circle>
                                <circle id="Oval-5-Copy-2" fill="#8A9EA3" cx="75.5" cy="75.5" r="52.5"></circle>
                                <circle id="Oval-5-Copy-7" fill-opacity="0.25" fill="#000000" cx="75.5" cy="75.5" r="52.5"></circle>
                            </g>
                        </g>
                    </g>
                </g>
                <path d="M116.818679,73.2756975 C115.6528,73.0192962 114.517045,72.8132722 113.403647,72.6502589 C111.044118,62.04323 101.661545,54.1180778 90.4419003,54.1180778 L89.2670782,54.1180778 C78.0314303,54.1180778 68.6361486,62.0669929 66.2945061,72.6999233 C65.2420614,72.860085 64.1679652,73.0589802 63.0660989,73.3013613 C62.8126367,73.3588675 62.6389551,73.6155064 62.678257,73.8752345 L63.0971639,76.6450337 C63.1364658,76.9045242 63.3765136,77.1592621 63.6247983,77.2355408 C63.6247983,77.2355408 64.6169958,77.3260773 64.6586511,78.3749701 C64.76832,81.1599776 65.0810882,83.4642623 65.7320412,85.2985177 L65.7320412,102.119535 C65.7320412,115.243051 76.2673145,125.881922 89.2670782,125.881922 L90.4419003,125.881922 C91.0363716,125.881922 91.6259006,125.85911 92.2093109,125.815386 C92.2236667,125.814436 92.2382578,125.813723 92.2526136,125.812535 C92.6032716,125.785683 92.9511056,125.749801 93.2972921,125.707503 C93.3445957,125.701562 93.3923699,125.697047 93.4396734,125.691106 C93.5133351,125.681601 93.5865262,125.669957 93.6599525,125.659977 C93.7820945,125.643105 93.9047071,125.626947 94.0263784,125.608174 C94.2035901,125.580847 94.3798605,125.550906 94.5558956,125.519539 C94.5730754,125.516449 94.590726,125.514073 94.6079059,125.510746 C94.9397367,125.451102 95.2682726,125.382902 95.5951612,125.309237 C95.6490543,125.296881 95.7034181,125.28595 95.7570758,125.273593 C95.8380331,125.254583 95.9182844,125.233671 95.998771,125.213948 C96.1072631,125.187571 96.216226,125.161907 96.3240122,125.133867 C96.3602547,125.124362 96.3960265,125.113906 96.432269,125.104164 C106.528867,122.429178 113.976937,113.154058 113.976937,102.119535 L113.976937,86.0422953 C114.830284,84.1022952 115.216243,81.5489756 115.341444,78.3749701 C115.3831,77.3260773 116.375062,77.2355408 116.375062,77.2355408 C116.623582,77.1592621 116.863394,76.9045242 116.902696,76.6450337 L117.321838,73.8752345 C117.36114,73.6155064 117.187459,73.3588675 116.818679,73.2756975 L116.818679,73.2756975 L116.818679,73.2756975 Z M89.2670782,55.5438495 L90.4419003,55.5438495 C100.808199,55.5438495 109.5064,62.7411453 111.906643,72.456354 C105.545377,71.739666 99.8790726,72.4784534 93.747264,73.9210968 C93.1666779,74.0574956 92.5698532,74.2014986 91.945729,74.3165108 L88.0543663,74.3165108 C87.4300067,74.2014986 86.8331821,74.0574956 86.2528313,73.9210968 C80.0438308,72.4603936 74.3128079,71.7199429 67.7924513,72.4965132 C70.1788086,62.7608685 78.88713,55.5438495 89.2670782,55.5438495 L89.2670782,55.5438495 L89.2670782,55.5438495 Z M89.938506,87.2855682 C88.8950042,87.2081013 88.0449527,86.3383805 87.3878807,86.3153306 C86.964267,86.2663791 85.9595964,86.2176652 85.9595964,86.2176652 C85.5362181,86.1689513 85.2982884,85.7542894 85.5362181,85.4125794 C86.9381441,83.339032 87.5465005,81.2412466 87.8110237,79.9725473 C88.1129662,78.3930299 88.9667832,78.1627677 89.938506,78.1185688 C89.9629814,78.1190441 89.9872216,78.119757 90.0119324,78.1204698 C90.0364078,78.119757 90.0608833,78.1190441 90.0853587,78.1185688 C91.0570816,78.1627677 91.9108985,78.3930299 92.212841,79.9725473 C92.4773642,81.2412466 93.0857206,83.339032 94.4876467,85.4125794 C94.7255764,85.7542894 94.4876467,86.1689513 94.0642683,86.2176652 C94.0642683,86.2176652 93.0595978,86.2663791 92.635984,86.3153306 C91.9791474,86.3383805 91.1288605,87.2081013 90.0853587,87.2855682 C90.0608833,87.2910337 90.0364078,87.2905584 90.0119324,87.2898455 C89.9872216,87.2905584 89.9629814,87.2910337 89.938506,87.2855682 L89.938506,87.2855682 Z M91.450807,99.7655859 C91.4978752,99.7579818 91.5449434,99.7499024 91.5924822,99.7413478 L91.5917762,99.7377834 C94.9755085,99.0439078 97.5409602,96.8520214 98.1570829,94.2535524 C98.4063089,93.2198679 97.512484,92.3413548 96.4694529,92.5271804 L84.2832628,94.6967297 C83.2402317,94.8823177 82.6975354,96.0165191 83.2821224,96.9019234 C84.7412363,99.1311175 87.8943344,100.304528 91.3091317,99.787923 L91.3098377,99.7917251 C91.3569059,99.7834081 91.4039741,99.7746158 91.450807,99.7655859 L91.450807,99.7655859 Z M85.181866,81.5058026 C83.6803907,85.9784486 81.3272165,89.2251685 75.2810719,89.3881817 C69.292586,89.3881817 67.5527103,88.2870107 66.7577285,81.2475003 C66.7577285,76.5251067 66.4506086,73.7605353 75.3319056,73.7771693 C81.3199209,74.3574584 87.601171,74.2997146 85.181866,81.5058026 L85.181866,81.5058026 L85.181866,81.5058026 Z M113.242274,81.2475003 C112.447292,88.2870107 110.707417,89.3881817 104.718931,89.3881817 C98.6727863,89.2251685 96.3193767,85.9784486 94.8181368,81.5058026 C92.3988317,74.2997146 98.6800819,74.3574584 104.668097,73.7771693 C113.549159,73.7605353 113.242274,76.5251067 113.242274,81.2475003 L113.242274,81.2475003 L113.242274,81.2475003 Z" id="flattened" opacity="0.763992537" fill="#F4EDE0" sketch:type="MSShapeGroup"></path>
            </g>
        </g>
    </g>
</svg>