<?xml version="1.0" encoding="UTF-8" standalone="no"?>
<svg width="180" height="180" viewBox="0 0 180 180" version="1.1" xmlns="http://www.w3.org/2000/svg" xmlns:xlink="http://www.w3.org/1999/xlink" xmlns:sketch="http://www.bohemiancoding.com/sketch/ns">
    <!-- Generator: Sketch 3.4.1 (15681) - http://www.bohemiancoding.com/sketch -->
    <title>icongrubFINAL</title>
    <desc>Created with Sketch.</desc>
    <defs>
        <rect id="path-1" x="0" y="0" width="130.983193" height="130.8" rx="7.2"></rect>
        <rect id="path-3" x="7" y="7" width="117" height="117"></rect>
        <rect id="path-5" x="0" y="0" width="132.184874" height="132" rx="7.2"></rect>
    </defs>
    <g id="Test-2" stroke="none" stroke-width="1" fill="none" fill-rule="evenodd" sketch:type="MSPage">
        <g id="icongrubFINAL" sketch:type="MSArtboardGroup">
            <g id="icon" sketch:type="MSLayerGroup">
                <rect id="Rectangle-21-Copy-2" fill="#F04F54" sketch:type="MSShapeGroup" x="0" y="0" width="180" height="180"></rect>
                <g id="iconburger" transform="translate(24.000000, 24.000000)">
                    <g id="icon-grub5">
                        <g id="road">
                            <mask id="mask-2" sketch:name="Mask" fill="white">
                                <use xlink:href="#path-1"></use>
                            </mask>
                            <use id="Mask" fill="#FFFFFF" sketch:type="MSShapeGroup" xlink:href="#path-1"></use>
                            <g id="Rectangle-20-+-roadmap" mask="url(#mask-2)">
                                <g transform="translate(-50.704248, -8.400000)" id="roadmap">
                                    <g>
                                        <g id="land" transform="translate(9.218485, 0.000000)" stroke="#E8D3A3" stroke-width="0.6" fill="#EDE2C8" sketch:type="MSShapeGroup">
                                            <rect id="Rectangle-1" x="96.3750747" y="40.0262295" width="64.8907563" height="41.6939891" rx="1.13744076"></rect>
                                            <path d="M82.9681863,40.0262295 C83.4300214,40.0262295 83.8044128,40.3598472 83.8044128,40.7733119 L83.8044128,58.0414422 C83.8044128,58.4540444 83.4307769,58.7885246 82.9681863,58.7885246 L0.836226464,58.7885246 C0.37439134,58.7885246 0,58.4549069 0,58.0414422 L0,40.7733119 C0,40.3607097 0.373635893,40.0262295 0.836226464,40.0262295 L82.9681863,40.0262295 Z M82.9681863,62.9579235 C83.4300214,62.9579235 83.8044128,63.2915412 83.8044128,63.7050058 L83.8044128,80.9731362 C83.8044128,81.3857384 83.4307769,81.7202186 82.9681863,81.7202186 L0.836226464,81.7202186 C0.37439134,81.7202186 0,81.3866009 0,80.9731362 L0,63.7050058 C0,63.2924037 0.373635893,62.9579235 0.836226464,62.9579235 L82.9681863,62.9579235 Z" id="Rectangle-1-Copy-7"></path>
                                            <path d="M53.4270116,0 L38.8532866,0 C38.2298811,0 37.7119857,0.512238919 37.7119857,1.14411765 L37.7119857,28.0416747 C37.7119857,28.6792183 38.2229636,29.1857923 38.8532866,29.1857923 L53.4270116,29.1857923 L82.659715,29.1857923 C83.3009214,29.1857923 83.8044128,28.6735534 83.8044128,28.0416747 L83.8044128,1.14411765 C83.8044128,0.506574078 83.2919141,0 82.659715,0 L53.4270116,0 Z M12.5706619,1.14411765 C12.5706619,0.512238919 13.0885572,0 13.7119628,0 L32.3804642,0 C33.0107873,0 33.5217651,0.506574078 33.5217651,1.14411765 L33.5217651,28.0416747 C33.5217651,28.6735534 33.0038698,29.1857923 32.3804642,29.1857923 L13.7119628,29.1857923 C13.0816397,29.1857923 12.5706619,28.6792183 12.5706619,28.0416747 L12.5706619,1.14411765 Z" id="Rectangle-1-Copy-9"></path>
                                            <path d="M37.7119857,149.991659 C37.7119857,149.35978 38.2298811,148.847541 38.8532866,148.847541 L57.521788,148.847541 C58.1521111,148.847541 58.6630889,149.354115 58.6630889,149.991659 L58.6630889,176.889216 C58.6630889,177.521094 58.1451936,178.033333 57.521788,178.033333 L38.8532866,178.033333 C38.2229636,178.033333 37.7119857,177.526759 37.7119857,176.889216 L37.7119857,149.991659 Z M62.8533096,149.991659 C62.8533096,149.35978 63.3712049,148.847541 63.9946105,148.847541 L82.6631119,148.847541 C83.2934349,148.847541 83.8044128,149.354115 83.8044128,149.991659 L83.8044128,176.889216 C83.8044128,177.521094 83.2865174,178.033333 82.6631119,178.033333 L63.9946105,178.033333 C63.3642874,178.033333 62.8533096,177.526759 62.8533096,176.889216 L62.8533096,149.991659 Z M12.5706619,149.991659 C12.5706619,149.35978 13.0885572,148.847541 13.7119628,148.847541 L32.3804642,148.847541 C33.0107873,148.847541 33.5217651,149.354115 33.5217651,149.991659 L33.5217651,176.889216 C33.5217651,177.521094 33.0038698,178.033333 32.3804642,178.033333 L13.7119628,178.033333 C13.0816397,178.033333 12.5706619,177.526759 12.5706619,176.889216 L12.5706619,149.991659 Z" id="Rectangle-1-Copy-10"></path>
                                            <rect id="Rectangle-1-Copy-4" x="96.3750747" y="94.2284153" width="66.092437" height="41.6939891" rx="1.13744076"></rect>
                                        </g>
                                        <g id="parks" sketch:type="MSShapeGroup">
                                            <rect id="Rectangle-1-Copy-12" fill="#239DBD" x="57.4060227" y="94.2284153" width="35.6168754" height="41.6939891" rx="1.13744076"></rect>
                                            <rect id="Rectangle-4" fill="#23BD83" x="105.59356" y="0" width="71.2337508" height="28.3519126" rx="1.13744076"></rect>
                                            <rect id="Rectangle-4-Copy-2" fill="#23BD83" x="0" y="94.2284153" width="42.3212284" height="41.6939891" rx="1.13744076"></rect>
                                            <rect id="Rectangle-4-Copy" fill="#23BD83" x="105.59356" y="148.847541" width="71.2337508" height="28.3519126" rx="1.13744076"></rect>
                                        </g>
                                        <g id="arrows" transform="translate(53.215802, 32.104372)" stroke="#EDE6D6" stroke-width="1.70616114" sketch:type="MSShapeGroup" stroke-linecap="round" stroke-linejoin="round">
                                            <path d="M4.52631972,-0.00457810213 L3.85412155,0.249946351 M0.00765426721,-0.00457810213 L8.37278701,0.792032235 L0.00765426721,1.58864257" id="Path-Copy-3"></path>
                                            <path d="M46.0699794,82.9710383 L46.1148746,91.3098361 M43.5782946,85.6215555 L46.092427,82.9710383 L48.6065594,85.6215555" id="Path-Copy-4"></path>
                                        </g>
                                    </g>
                                </g>
                            </g>
                            <mask id="mask-4" sketch:name="frame" fill="white">
                                <use xlink:href="#path-3"></use>
                            </mask>
                            <use id="frame" stroke="#FFFFFF" stroke-width="12" sketch:type="MSShapeGroup" xlink:href="#path-3"></use>
                        </g>
                        <mask id="mask-6" sketch:name="frame copy" fill="white">
                            <use xlink:href="#path-5"></use>
                        </mask>
                        <use id="frame-copy" stroke="#E12E33" stroke-width="3" sketch:type="MSShapeGroup" xlink:href="#path-5"></use>
                    </g>
                    <g id="burger-+-burger-copy" transform="translate(63.000000, 76.000000)">
                        <g id="burger" transform="translate(0.890756, 0.600000)"></g>
                        <g id="burger-copy" transform="translate(0.890756, 0.600000)" sketch:type="MSShapeGroup">
                            <path d="M78.1092437,30.9404025 C78.1092437,13.85249 60.6238939,0 39.0546218,0 C17.4853498,0 0,13.85249 0,30.9404025 L78.1092437,30.9404025 Z" id="bun" stroke-linecap="round" stroke-linejoin="round" fill="#FDA234"></path>
                            <rect id="bun" stroke-linecap="round" stroke-linejoin="round" fill="#FDA234" x="1" y="56.1877709" width="77.1205191" height="11.1385449" rx="1.89473684"></rect>
                            <rect id="patty" fill="#8D2126" x="5.44926072" y="45.049226" width="69.2107223" height="11.1385449" rx="1.89473684"></rect>
                            <path d="M74.1399443,44.5541796 C74.4604661,44.2396971 74.659983,43.8013843 74.659983,43.3165635 C74.659983,42.3529689 73.8862846,41.5839009 72.9318793,41.5839009 L7.17736443,41.5839009 C6.22652957,41.5839009 5.44926072,42.3596404 5.44926072,43.3165635 C5.44926072,44.2801581 6.2229591,45.049226 7.17736443,45.049226 L40.1569037,45.049226 L55.8451759,58.0660689 C56.4072715,58.5324499 57.325745,58.5265287 57.8807043,58.0660689 L74.1656207,44.5541796 L74.1399443,44.5541796 Z" id="Rectangle-28-Copy-3" fill="#F9F87B"></path>
                            <g id="lettuce" transform="translate(5.449261, 30.445356)" fill="#81B566">
                                <rect x="0" y="0" width="69.2107223" height="11.1385449" rx="1.89473684"></rect>
                            </g>
                        </g>
                    </g>
                </g>
                <g id="pin" transform="translate(48.000000, 64.000000)" stroke="#F04F54" sketch:type="MSShapeGroup">
                    <path d="M7,3.54545455 L7,24.8181818" id="Line" stroke-width="4.8" stroke-linecap="round"></path>
                    <ellipse id="Oval-18" stroke-width="2.4" fill="#F04F54" cx="7" cy="7.09090909" rx="7" ry="7.09090909"></ellipse>
                </g>
            </g>
        </g>
    </g>
</svg>