<?xml version="1.0" encoding="UTF-8" standalone="no"?>
<svg width="180" height="180" viewBox="0 0 180 180" version="1.1" xmlns="http://www.w3.org/2000/svg" xmlns:xlink="http://www.w3.org/1999/xlink" xmlns:sketch="http://www.bohemiancoding.com/sketch/ns">
    <!-- Generator: Sketch 3.4.1 (15681) - http://www.bohemiancoding.com/sketch -->
    <title>Icon-GPAGuru</title>
    <desc>Created with Sketch.</desc>
    <defs></defs>
    <g id="GPA-Guru" stroke="none" stroke-width="1" fill="none" fill-rule="evenodd" sketch:type="MSPage">
        <g id="Icon-GPAGuru" sketch:type="MSArtboardGroup">
            <g id="icon-gpa" sketch:type="MSLayerGroup" transform="translate(-33.000000, -33.000000)">
                <rect id="Rectangle-9-Copy-4" fill="#55A4B7" sketch:type="MSShapeGroup" x="0" y="0" width="246" height="246" rx="26"></rect>
                <g id="papers" transform="translate(52.000000, 59.000000)" stroke="#2E6875" stroke-width="3" sketch:type="MSShapeGroup">
                    <path d="M49.2059786,23.8655563 C48.3475802,20.6619696 50.2514058,17.3683634 53.4424512,16.5133253 L114.305407,0.205145401 C117.503545,-0.651792997 120.793164,1.25482192 121.650416,4.45412787 L143.388508,85.5817938 C144.246907,88.7853804 142.343081,92.0789867 139.152036,92.9340247 L78.2890795,109.242205 C75.0909419,110.099143 71.8013226,108.192528 70.9440712,104.993222 L49.2059786,23.8655563 L49.2059786,23.8655563 Z" id="Rectangle-27" fill="#F1F1F1" transform="translate(96.297243, 54.723675) scale(-1, 1) translate(-96.297243, -54.723675) "></path>
                    <path d="M95.9643388,59.5818152 C97.6196382,56.7147525 96.6272844,53.0428653 93.7738282,51.3954216 L45.9800498,23.8016707 C43.1149647,22.1475131 39.4467793,23.1371577 37.7951695,25.9978297 L0.802037654,90.0718137 C-0.853261799,92.9388764 0.139092065,96.6107637 2.99254828,98.2582074 L50.7863267,125.851958 C53.6514118,127.506116 57.3195971,126.516471 58.9712069,123.655799 L95.9643388,59.5818152 L95.9643388,59.5818152 Z" id="Rectangle-27-Copy" fill="#F1F1F1" transform="translate(48.383188, 74.826814) scale(-1, 1) translate(-48.383188, -74.826814) "></path>
                    <g id="icon-a+" transform="translate(20.000000, 27.000000)" stroke-linecap="round" stroke-linejoin="round">
                        <path d="M27.0418372,0 C24.2759238,0 22.0337079,2.2420759 22.0337079,5.00633644 L22.0337079,78.0140717 C22.0337079,80.778995 24.2805933,83.0204082 27.0354926,83.0204082 L82.8593389,83.0204082 C85.6217483,83.0204082 87.8611533,80.7862306 87.86119,78.0158041 L87.8619303,22.2458347 C87.861945,21.1413075 87.2151064,19.6289367 86.4196759,18.8702446 L68.0779521,1.37566662 C67.2814023,0.615906926 65.7447299,0 64.6325693,0 L27.0418372,0 Z" id="Path-Copy-2" fill="#FFFFFF"></path>
                        <path d="M26.6642966,0 C23.8983706,0 21.6561446,2.22985287 21.6561446,4.999801 L21.6561446,80.000199 C21.6561446,82.7615128 23.8940058,85 26.6548562,85 L83.3443294,85 C86.1050417,85 88.3430704,82.7689707 88.3431068,79.9968696 L88.3438591,22.7226585 C88.3438735,21.6214078 87.7003303,20.1082999 86.8995946,19.3364143 L68.2847474,1.39225337 C67.4870877,0.623333065 65.937883,0 64.8406418,0 L26.6642966,0 Z M66.8404568,1.13333333 C66.8404568,1.13333333 66.8404568,1.57942658 66.8404568,2.1320086 L66.8404568,15.733236 C66.8404568,18.4921368 69.0801134,20.7286677 71.8397752,20.7286677 L87.2235704,20.7286677" id="Path-Copy" fill="#FFFFFF"></path>
                        <path d="M59.2838196,64.9305556 L46.0039788,28.3333333 L32.7241379,64.9305556 M37.6167109,51.5584936 L54.3912467,51.5584936 M70.8275862,46.6319444 L70.8275862,40.1388889 L70.8275862,46.6319444 L64.3793103,46.6319444 L70.8275862,46.6319444 Z M70.8275862,46.6319444 L70.8275862,53.125 L70.8275862,46.6319444 L77.2758621,46.6319444 L70.8275862,46.6319444 Z" id="Path"></path>
                    </g>
                </g>
            </g>
        </g>
    </g>
</svg>