<?xml version="1.0" encoding="UTF-8" standalone="no"?>
<svg width="180" height="180" viewBox="0 0 180 180" version="1.1" xmlns="http://www.w3.org/2000/svg" xmlns:xlink="http://www.w3.org/1999/xlink" xmlns:sketch="http://www.bohemiancoding.com/sketch/ns">
    <!-- Generator: Sketch 3.4.1 (15681) - http://www.bohemiancoding.com/sketch -->
    <title>Icon-MusicGuru-Tentative</title>
    <desc>Created with Sketch.</desc>
    <defs></defs>
    <g id="Test-2" stroke="none" stroke-width="1" fill="none" fill-rule="evenodd" sketch:type="MSPage">
        <g id="Icon-MusicGuru-Tentative" sketch:type="MSArtboardGroup">
            <g id="Rectangle-18-+-Group-Copy" sketch:type="MSLayerGroup">
                <rect id="Rectangle-18" stroke="#979797" fill="#9A5BC5" sketch:type="MSShapeGroup" x="0" y="0" width="180" height="180"></rect>
                <g id="Group" transform="translate(8.000000, 10.000000)" sketch:type="MSShapeGroup">
                    <g id="musicguru" transform="translate(86.441893, 85.913456) rotate(16.000000) translate(-86.441893, -85.913456) translate(31.941893, 25.413456)">
                        <g id="jheadphones" transform="translate(54.483600, 36.623328) rotate(1.000000) translate(-54.483600, -36.623328) translate(1.483600, 1.123328)">
                            <g id="Imported-Layers-+-Imported-Layers-Copy" transform="translate(10.360000, 0.000000)">
                                <path d="M42.3828875,4.68238554 C42.2728494,4.68173494 42.1631419,4.68 42.0524429,4.68 C24.5200473,4.8879759 10.6602123,12.96 7.56,23.5741443 C7.56,23.5741443 22.7306167,7.83737363 42.3828875,7.93778313 C62.0351582,8.03819263 76.32,23.5741446 76.32,23.5741446 C74.4360072,14.1270721 60.2457276,4.8879759 42.713332,4.68498795 C42.6029635,4.68 42.4929255,4.68173494 42.3828875,4.68238554 Z" id="Imported-Layers-Copy" stroke="#757575" stroke-width="2" stroke-linecap="round" stroke-linejoin="round" fill="#757575"></path>
                                <path d="M42.3382383,0.00763156627 L42.3382383,1.77635684e-14 C42.1924551,1.77635684e-14 42.0471084,0.00265445783 41.9017617,0.00364987952 C41.7564149,0.00265445783 41.6115047,1.77635684e-14 41.465285,1.77635684e-14 L41.465285,0.00763156627 C18.3071416,0.318203133 4.26325641e-14,12.9587313 4.26325641e-14,28.9080412 L4.26325641e-14,54.7481928 L6.54715026,54.7481928 L6.54715026,28.9080412 C6.54715026,15.7216901 22.034216,5.13803494 41.9017617,4.98440819 C61.7693074,5.13803494 77.2563731,15.7216901 77.2563731,28.9080412 L77.2563731,54.7481928 L83.8035233,54.7481928 L83.8035233,28.9080412 C83.8035233,12.9587313 65.4963818,0.318203133 42.3382383,0.00763156627 L42.3382383,0.00763156627 Z" id="Imported-Layers" fill="#FFFFFF"></path>
                            </g>
                            <g id="rmuff" transform="translate(89.200000, 39.600000)">
                                <rect id="Rectangle-10" fill="#FFFFFF" x="2.16" y="3.24" width="12.96" height="25.2" rx="60"></rect>
                                <rect id="Rectangle-10-Copy" stroke="#757575" stroke-width="2" fill="#757575" x="3.26849658e-13" y="0.18" width="7.2" height="30.6" rx="60"></rect>
                            </g>
                            <g id="lmuff" transform="translate(8.480000, 55.100000) scale(-1, 1) translate(-8.480000, -55.100000) translate(0.480000, 39.600000)">
                                <rect id="Rectangle-10" fill="#FFFFFF" x="2.52" y="3.24" width="12.96" height="25.2" rx="60"></rect>
                                <rect id="Rectangle-10-Copy" stroke="#757575" stroke-width="2" fill="#757575" x="0.36" y="0.18" width="7.2" height="30.6" rx="60"></rect>
                            </g>
                        </g>
                    </g>
                    <g id="rnote" transform="translate(128.160000, 112.480000)" fill="#FFFFFF">
                        <path d="M14.8860011,28.8996155 C15.5112759,28.718779 15.9684783,28.1420274 15.9684783,27.4584906 L15.9684783,9.5865063 L28.6597302,6.28412699 C29.7292907,6.00581761 30.6,4.88480332 30.6,3.78144606 L30.6,1.87606903 C30.6,0.774496914 29.7313116,0.104304608 28.6597302,0.383139853 L15.909835,3.70077867 C15.711339,3.75242916 15.5196918,3.8331044 15.3391881,3.93730494 C15.0936932,3.76200646 14.7931304,3.65886792 14.4684783,3.65886792 C13.6400511,3.65886792 12.9684783,4.3304408 12.9684783,5.15886792 L12.9684783,22.6964333 C11.6018665,21.2239579 9.65030195,20.3026415 7.48369565,20.3026415 C3.35056467,20.3026415 0,23.6554374 0,27.7913208 C0,31.9272041 3.35056467,35.28 7.48369565,35.28 C11.2405073,35.28 14.3507697,32.5099499 14.8860011,28.8996155 Z" id="Rectangle-5-Copy-2"></path>
                    </g>
                    <g id="lnote" fill="#FFFFFF">
                        <g id="double" transform="translate(0.000000, 18.200000)">
                            <path d="M35.9065934,25.7254758 L35.9065934,5.315625 C35.9065934,5.13094939 35.8732198,4.95406861 35.8121746,4.79068478 C35.9325394,4.51165299 36,4.21134587 36,3.90666318 L36,1.99958682 C36,0.89703225 35.1199501,0.150549559 34.0343534,0.336261852 L12.6469652,3.99498815 C12.3564134,4.04469266 12.0798554,4.15687195 11.8308105,4.31583012 C11.6588488,4.24714877 11.4711983,4.209375 11.2747253,4.209375 C10.4462981,4.209375 9.77472527,4.88094788 9.77472527,5.709375 L9.77472527,27.3912506 C8.73966365,26.5157336 7.39884309,25.9875 5.93406593,25.9875 C2.65677181,25.9875 0,28.6318182 0,31.89375 C0,35.1556818 2.65677181,37.8 5.93406593,37.8 C8.63450762,37.8 10.9136447,36.0046361 11.6323057,33.5477401 C12.2880862,33.3873609 12.7747253,32.7958233 12.7747253,32.090625 L12.7747253,9.87938232 L32.9065934,6.43543701 L32.9065934,21.5881799 C32.0629181,21.1294758 31.0950174,20.86875 30.0659341,20.86875 C26.7886399,20.86875 24.1318681,23.5130682 24.1318681,26.775 C24.1318681,30.0369318 26.7886399,32.68125 30.0659341,32.68125 C33.3432282,32.68125 36,30.0369318 36,26.775 C36,26.4168172 35.9679658,26.0660814 35.9065934,25.7254758 Z" id="Rectangle-5"></path>
                        </g>
                        <g id="single" transform="translate(44.640000, 0.000000)">
                            <path d="M6.024,13.0674274 L6.024,2.13114286 C6.024,1.30271573 6.69557288,0.631142857 7.524,0.631142857 C8.35242712,0.631142857 9.024,1.30271573 9.024,2.13114286 L9.024,16.0322857 C9.024,16.778006 8.47982771,17.396628 7.76691817,17.5127167 C7.29217211,19.1568735 5.76750699,20.36 3.96,20.36 C1.77295239,20.36 0,18.5985603 0,16.4257143 C0,14.2528683 1.77295239,12.4914286 3.96,12.4914286 C4.71623705,12.4914286 5.42296334,12.7020329 6.024,13.0674274 Z" id="Shape"></path>
                        </g>
                    </g>
                </g>
            </g>
            <g id="Music-Guru-Icon" sketch:type="MSLayerGroup">
                <rect id="Rectangle-18" fill="#9A5BC5" sketch:type="MSShapeGroup" x="0" y="0" width="180" height="180"></rect>
                <g id="Group" transform="translate(11.520000, 11.160000)" sketch:type="MSShapeGroup">
                    <g id="musicguru" transform="translate(81.500000, 85.000000) rotate(16.000000) translate(-81.500000, -85.000000) translate(39.000000, 35.000000)">
                        <g id="jheadphones" transform="translate(42.142650, 29.354191) rotate(-1.000000) translate(-42.142650, -29.354191) translate(0.642650, 0.854191)" stroke-width="3">
                            <g id="Imported-Layers-+-Imported-Layers-Copy" transform="translate(8.329057, 0.000000)" stroke-linecap="round" stroke-linejoin="round">
                                <path d="M33.1866006,3.68691775 C33.1004387,3.68640546 33.0145356,3.68503937 32.9278563,3.68503937 C19.1996597,3.84879992 8.34714733,10.2047244 5.91962264,18.5623183 C5.91962264,18.5623183 17.7985018,6.17116034 33.1866006,6.25022294 C48.5746993,6.32928554 59.76,18.5623186 59.76,18.5623186 C58.2847981,11.1236789 47.1735414,3.84879992 33.4453449,3.68896689 C33.3589243,3.68503937 33.2727624,3.68640546 33.1866006,3.68691775 Z" id="Imported-Layers-Copy" stroke="#DFCB9D" fill="#E8D3A3"></path>
                                <path d="M33.1516395,0.0060091073 L33.1516395,0 C33.0374885,0 32.9236792,0.00209012428 32.80987,0.00287392088 C32.6960607,0.00209012428 32.5825933,0 32.4681005,0 L32.4681005,0.0060091073 C14.3348373,0.250553648 0,10.2037255 0,22.7622372 L0,43.1088132 L5.12654218,43.1088132 L5.12654218,22.7622372 C5.12654218,12.3792836 17.2532068,4.0456968 32.80987,3.92473086 C48.3665331,4.0456968 60.4931978,12.3792836 60.4931978,22.7622372 L60.4931978,43.1088132 L65.61974,43.1088132 L65.61974,22.7622372 C65.61974,10.2037255 51.2849027,0.250553648 33.1516395,0.0060091073 L33.1516395,0.0060091073 Z" id="Imported-Layers" stroke="#757575" fill="#FFFFFF"></path>
                            </g>
                            <g id="rmuff" transform="translate(70.062264, 31.181102)" stroke="#757575">
                                <rect id="Rectangle-10" fill="#FFFFFF" x="1.69132075" y="2.5511811" width="10.1479245" height="19.8425197" rx="17.007874"></rect>
                                <rect id="Rectangle-10-Copy" fill="#E8D3A3" x="-2.27373675e-13" y="0.141732283" width="5.63773585" height="24.0944882" rx="17.007874"></rect>
                            </g>
                            <g id="lmuff" transform="translate(6.621132, 43.681102) scale(-1, 1) translate(-6.621132, -43.681102) translate(0.121132, 31.181102)" stroke="#757575">
                                <rect id="Rectangle-10" fill="#FFFFFF" x="1.97320755" y="2.5511811" width="10.1479245" height="19.8425197" rx="17.007874"></rect>
                                <rect id="Rectangle-10-Copy" fill="#E8D3A3" x="0.281886792" y="0.141732283" width="5.63773585" height="24.0944882" rx="17.007874"></rect>
                            </g>
                        </g>
                        <path d="M74.5934752,36.7426772 C73.1970081,36.4368189 71.8366224,36.1910551 70.503016,35.9965984 C67.676819,23.3435906 56.4385564,13.8897638 42.9998854,13.8897638 L41.5927065,13.8897638 C28.1348673,13.8897638 16.8813828,23.371937 14.0766092,36.0558425 C12.8160114,36.2468976 11.5294801,36.4841575 10.2096862,36.7732913 C9.90609409,36.8418898 9.69806164,37.1480315 9.74513673,37.4578583 L10.2468952,40.7619213 C10.2939703,41.0714646 10.5814948,41.3753386 10.8788854,41.4663307 C10.8788854,41.4663307 12.0673201,41.5743307 12.1172141,42.8255433 C12.2485733,46.147748 12.6232009,48.8965039 13.4028997,51.0845669 L13.4028997,71.1501732 C13.4028997,86.8050709 26.0218439,99.496063 41.5927065,99.496063 L42.9998854,99.496063 C43.7119314,99.496063 44.4180579,99.4688504 45.1168552,99.4166929 C45.1340503,99.4155591 45.1515273,99.4147087 45.1687224,99.4132913 C45.5887337,99.3812598 46.0053624,99.3384567 46.4200179,99.288 C46.4766771,99.2809134 46.5339001,99.2755276 46.5905594,99.2684409 C46.6787899,99.2571024 46.7664567,99.2432126 46.8544054,99.2313071 C47.0007047,99.2111811 47.1475677,99.1919055 47.2933031,99.1695118 C47.5055639,99.1369134 47.7166971,99.1011969 47.9275484,99.0637795 C47.9481262,99.0600945 47.9692677,99.0572598 47.9898454,99.0532913 C48.3873058,98.9821417 48.7808197,98.9007874 49.1723605,98.8129134 C49.2369126,98.7981732 49.3020284,98.7851339 49.3662986,98.7703937 C49.4632677,98.7477165 49.5593911,98.7227717 49.6557964,98.6992441 C49.7857462,98.6677795 49.9162597,98.6371654 50.0453639,98.6037165 C50.0887745,98.592378 50.1316213,98.5799055 50.1750318,98.5682835 C62.268539,95.3773228 71.1896922,84.3131339 71.1896922,71.1501732 L71.1896922,51.971811 C72.2118137,49.6576063 72.6741081,46.6117795 72.8240718,42.8255433 C72.8739658,41.5743307 74.0621186,41.4663307 74.0621186,41.4663307 C74.3597911,41.3753386 74.6470337,41.0714646 74.6941088,40.7619213 L75.1961492,37.4578583 C75.2432243,37.1480315 75.0351918,36.8418898 74.5934752,36.7426772 L74.5934752,36.7426772 L74.5934752,36.7426772 Z M41.5927065,15.5905512 L42.9998854,15.5905512 C55.4164348,15.5905512 65.8349707,24.176126 68.7099341,35.7652913 C61.0905341,34.9103622 54.3035458,35.7916535 46.9589854,37.5125669 C46.2635707,37.6752756 45.5487058,37.8470551 44.801142,37.984252 L40.1401439,37.984252 C39.3922982,37.8470551 38.6774333,37.6752756 37.9823005,37.5125669 C30.5452813,35.7701102 23.6807741,34.8868346 15.8708186,35.8131969 C18.7291507,24.1996535 29.1598077,15.5905512 41.5927065,15.5905512 L41.5927065,15.5905512 L41.5927065,15.5905512 Z M42.3969296,53.4548976 C41.1470435,53.3624882 40.1288684,52.3250079 39.3418405,52.2975118 C38.8344443,52.2391181 37.6310696,52.1810079 37.6310696,52.1810079 C37.1239552,52.1228976 36.8389677,51.628252 37.1239552,51.2206299 C38.8031548,48.7471181 39.5318322,46.2446929 39.848673,44.7312756 C40.2103337,42.8470866 41.233019,42.5724094 42.3969296,42.519685 C42.4262458,42.520252 42.4552801,42.5211024 42.4848782,42.5219528 C42.5141945,42.5211024 42.5435107,42.520252 42.5728269,42.519685 C43.7367375,42.5724094 44.7594228,42.8470866 45.1210835,44.7312756 C45.4379243,46.2446929 46.1666016,48.7471181 47.8458013,51.2206299 C48.1307888,51.628252 47.8458013,52.1228976 47.3386869,52.1810079 C47.3386869,52.1810079 46.1353122,52.2391181 45.627916,52.2975118 C44.8411699,52.3250079 43.822713,53.3624882 42.5728269,53.4548976 C42.5435107,53.4614173 42.5141945,53.4608504 42.4848782,53.46 C42.4552801,53.4608504 42.4262458,53.4614173 42.3969296,53.4548976 M44.2083341,68.3421732 C44.2647114,68.3331024 44.3210888,68.3234646 44.3780299,68.3132598 L44.3771843,68.3090079 C48.4301526,67.4812913 51.5030005,64.8666142 52.2409801,61.7669291 C52.5394982,60.5338583 51.4688922,59.4858898 50.2195699,59.7075591 L35.6231899,62.2955906 C34.3738677,62.5169764 33.7238367,63.8699528 34.4240435,64.9261417 C36.1717416,67.5853228 39.9484609,68.9850709 44.0386382,68.3688189 L44.0394839,68.3733543 C44.0958613,68.3634331 44.1522386,68.3529449 44.2083341,68.3421732 M36.6995192,46.560279 C34.9010815,51.895649 32.0824955,55.7686254 24.8405419,55.9630821 C17.6676506,55.9630821 15.5836615,54.6495073 14.6314479,46.252153 C14.6314479,40.6188616 14.2635856,37.3210349 24.9014294,37.3408774 C32.073757,38.0330979 39.5973155,37.964216 36.6995192,46.560279 L36.6995192,46.560279 L36.6995192,46.560279 Z M70.3097272,46.252153 C69.3575136,54.6495073 67.2735245,55.9630821 60.1006332,55.9630821 C52.8586796,55.7686254 50.0398117,51.895649 48.2416558,46.560279 C45.3438596,37.964216 52.8674181,38.0330979 60.0397456,37.3408774 C70.6773075,37.3210349 70.3097272,40.6188616 70.3097272,46.252153 L70.3097272,46.252153 L70.3097272,46.252153 Z" id="flattened" fill="#FFFFFF"></path>
                    </g>
                    <g id="Music" transform="translate(0.000000, 26.200000)" stroke="#FFFFFF" stroke-width="1.08" fill="#FFFFFF">
                        <path d="M10.6813187,5.05547218 C10.6813187,4.65549532 11.0014404,4.276487 11.3849104,4.21088704 L35.2964083,0.120362964 C35.6849913,0.0538883344 36,0.317545652 36,0.724222183 L36,5.18202782 C36,5.58200468 35.6798783,5.961013 35.2964083,6.02661296 L11.3849104,10.117137 C10.9963274,10.1836117 10.6813187,9.91995435 10.6813187,9.51327782 L10.6813187,5.05547218 Z" id="Rectangle-5" stroke-linecap="round" stroke-linejoin="round"></path>
                        <path d="M11.2747253,32.090625 L11.2747253,5.709375" id="Line" stroke-linecap="round"></path>
                        <path d="M35.4065934,26.184375 L35.4065934,5.315625" id="Line-Copy" stroke-linecap="round"></path>
                        <ellipse id="Oval-3" cx="5.93406593" cy="31.89375" rx="5.93406593" ry="5.90625"></ellipse>
                        <ellipse id="Oval-3-Copy" cx="30.0659341" cy="26.775" rx="5.93406593" ry="5.90625"></ellipse>
                    </g>
                    <g id="music" transform="translate(116.160000, 110.480000)" stroke="#FFFFFF" stroke-width="1.08" fill="#FFFFFF">
                        <path d="M13.9695652,4.9292314 C13.9695652,4.52961094 14.2869301,4.1230733 14.6629813,4.02522136 L29.9065839,0.0586971683 C30.289547,-0.0409533297 30.6,0.195526678 30.6,0.601840833 L30.6,5.05567426 C30.6,5.45529472 30.2826351,5.86183236 29.9065839,5.9596843 L14.6629813,9.92620849 C14.2800182,10.025859 13.9695652,9.78937898 13.9695652,9.38306483 L13.9695652,4.9292314 Z" id="Rectangle-5-Copy-2" stroke-linecap="round" stroke-linejoin="round" transform="translate(22.284783, 4.992453) scale(1, -1) translate(-22.284783, -4.992453) "></path>
                        <path d="M14.4684783,27.4584906 L14.4684783,5.15886792" id="Line-Copy-3" stroke-linecap="round"></path>
                        <ellipse id="Oval-3-Copy-3" cx="7.48369565" cy="27.7913208" rx="7.48369565" ry="7.48867925"></ellipse>
                    </g>
                    <g id="music" transform="translate(56.640000, 0.000000)" stroke="#FFFFFF" stroke-width="1.08">
                        <path d="M7.524,14.0322857 L7.524,0.131142857" id="Line-Copy-2" stroke-linecap="round"></path>
                        <ellipse id="Oval-3-Copy-2" fill="#FFFFFF" cx="3.96" cy="14.4257143" rx="3.96" ry="3.93428571"></ellipse>
                    </g>
                </g>
            </g>
        </g>
    </g>
</svg>