<?xml version="1.0" encoding="UTF-8" standalone="no"?>
<svg width="180px" height="180px" viewBox="0 0 180 180" version="1.1" xmlns="http://www.w3.org/2000/svg" xmlns:xlink="http://www.w3.org/1999/xlink" xmlns:sketch="http://www.bohemiancoding.com/sketch/ns">
    <!-- Generator: Sketch 3.4.1 (15681) - http://www.bohemiancoding.com/sketch -->
    <title>Artboard</title>
    <desc>Created with Sketch.</desc>
    <defs></defs>
    <g id="Page-1" stroke="none" stroke-width="1" fill="none" fill-rule="evenodd" sketch:type="MSPage">
        <g id="Artboard" sketch:type="MSArtboardGroup">
            <g id="Mask" sketch:type="MSLayerGroup" fill="#81B566">
                <rect id="path-1" sketch:type="MSShapeGroup" x="0" y="0" width="180" height="180"></rect>
            </g>
            <g id="Tracks" sketch:type="MSLayerGroup" transform="translate(40.000000, 122.626866)" stroke="#2B3234" stroke-width="4.6875">
                <path d="M22.2441176,0.259800995 L0.373529412,18.9800995" id="Shape" sketch:type="MSShapeGroup"></path>
                <path d="M77.7558824,0.259800995 L99.6264706,18.9800995" id="Shape" sketch:type="MSShapeGroup"></path>
                <path d="M4.44411765,10.9701493 L95.5558824,10.9701493" id="Shape" sketch:type="MSShapeGroup"></path>
            </g>
            <g id="Train" sketch:type="MSLayerGroup" transform="translate(47.812500, 38.000000)">
                <path d="M82.799981,70.8550199 C83.114585,78.4319075 77.4604519,84.6268657 70.2624287,84.6268657 L12.5500713,84.6268657 C5.3520481,84.6268657 -0.302085042,78.4319075 0.0125189664,70.8550199 L2.32252802,13.7748113 C2.63713203,6.19792372 8.79812719,0 15.9932374,0 L66.8163496,0 C74.0231118,0 80.172455,6.19792372 80.487059,13.7748113 L82.799981,70.8550199 L82.799981,70.8550199 L82.799981,70.8550199 L82.799981,70.8550199 Z" id="Shape" stroke="#2B3234" stroke-width="4.6875" fill="#757575" sketch:type="MSShapeGroup"></path>
                <path d="M67.1875,45.6111006 C67.1875,48.9632148 64.5864281,51.7164179 61.4144603,51.7164179 L22.9605397,51.7164179 C19.7856592,51.7164179 17.1875,48.9632148 17.1875,45.6111006 L17.1875,23.3411436 C17.1875,19.9920091 19.7885719,17.238806 22.9605397,17.238806 L61.4115475,17.238806 C64.5864281,17.238806 67.1845873,19.9920091 67.1845873,23.3411436 L67.1845873,45.6111006 L67.1875,45.6111006 L67.1875,45.6111006 L67.1875,45.6111006 Z" id="Shape" stroke="#2B3234" stroke-width="4.6875" fill="#7DA7B2" sketch:type="MSShapeGroup"></path>
                <path d="M34.375,7.8358209 L50,7.8358209" id="Lamp" stroke="#F9D57B" stroke-width="4.6875" sketch:type="MSShapeGroup"></path>
                <path d="M17.1875,75.2238806 C20.6392797,75.2238806 23.4375,72.4173074 23.4375,68.9552239 C23.4375,65.4931404 20.6392797,62.6865672 17.1875,62.6865672 C13.7357203,62.6865672 10.9375,65.4931404 10.9375,68.9552239 C10.9375,72.4173074 13.7357203,75.2238806 17.1875,75.2238806 L17.1875,75.2238806 L17.1875,75.2238806 Z M67.1875,75.2238806 C70.6392797,75.2238806 73.4375,72.4173074 73.4375,68.9552239 C73.4375,65.4931404 70.6392797,62.6865672 67.1875,62.6865672 C63.7357203,62.6865672 60.9375,65.4931404 60.9375,68.9552239 C60.9375,72.4173074 63.7357203,75.2238806 67.1875,75.2238806 L67.1875,75.2238806 L67.1875,75.2238806 Z" id="Oval-1" stroke="#2B3234" stroke-width="3.125" fill="#F9D57B" sketch:type="MSShapeGroup"></path>
            </g>
        </g>
    </g>
</svg>