<svg viewBox="0 0 100 100" version="1.1" xmlns="http://www.w3.org/2000/svg" xmlns:xlink="http://www.w3.org/1999/xlink">
    <title>studygroup</title>
    <g fill="none" fill-rule="evenodd">
        <g id="studygroup" fill="#FFFFFF">
            <path d="M50,36.1 C56.1,36.1 61.5,33.3 65,28.9 C63.2,24.5 59.6,21.1 55,19.6 C58.2,17.8 60.4,14.4 60.4,10.4 C60.4,4.7 55.8,0 50,0 C44.2,0 39.6,4.7 39.6,10.4 C39.6,14.3 41.8,17.8 45,19.6 C40.5,21.1 36.8,24.5 35,28.9 C38.5,33.3 43.9,36.1 50,36.1 L50,36.1 Z"></path>
            <path d="M85,99.6 C91.1,99.6 96.5,96.8 100,92.4 C98.2,88 94.6,84.6 90,83.1 C93.2,81.3 95.4,77.9 95.4,73.9 C95.4,68.1 90.7,63.5 85,63.5 C79.2,63.5 74.6,68.2 74.6,73.9 C74.6,77.8 76.8,81.3 80,83.1 C75.5,84.6 71.8,88 70,92.4 C73.5,96.8 78.9,99.6 85,99.6 L85,99.6 Z"></path>
            <path d="M15,99.6 C21.1,99.6 26.5,96.8 30,92.4 C28.2,88 24.6,84.6 20,83.1 C23.2,81.3 25.4,77.9 25.4,73.9 C25.4,68.1 20.7,63.5 15,63.5 C9.2,63.5 4.6,68.2 4.6,74 C4.6,77.9 6.8,81.4 10,83.2 C5.4,84.6 1.8,88 0,92.4 C3.5,96.8 8.9,99.6 15,99.6 L15,99.6 Z"></path>
            <path d="M66.32814,38.38108 L77.64414,58.40488 L73.29114,60.86488 L61.97514,40.84108 L66.32814,38.38108 L66.32814,38.38108 Z"></path>
            <path d="M33.69755,38.35175 L38.04955,40.81325 L26.72665,60.83245 L22.37465,58.37095 L33.69755,38.35175 L33.69755,38.35175 Z"></path>
            <rect x="30" y="69.6" width="40" height="5"></rect>
        </g>
    </g>
</svg>