<svg viewBox="0 0 90 76" version="1.1" xmlns="http://www.w3.org/2000/svg" xmlns:xlink="http://www.w3.org/1999/xlink">
    <g fill="none" fill-rule="evenodd">
        <g fill="#000000">
            <circle cx="18.592" cy="64.193" r="11.584"></circle>
            <circle cx="46.713" cy="64.193" r="11.583"></circle>
            <circle cx="75.213" cy="64.193" r="11.583"></circle>
            <circle cx="14.336" cy="25.267" r="14.319"></circle>
            <path d="M30.93,51.11 L30.94,51.1 L30.94,51.12 L30.93,51.11 Z"></path>
            <path d="M40.22,26.24 L36.43,29.99 L30.37,35.98 L27.63,38.69 L36.43,29.89 L39.42,26.9 C39.67,26.65 39.94,26.43 40.22,26.24 L40.22,26.24 Z"></path>
            <g transform="translate(3.000000, 0.000000)">
                <path d="M87,3.28 L87,42.52 C86.979,44.17 85.64,45.491 84,45.491 L39.38,45.491 L45.45,39.491 L80.97,39.491 L80.97,6.25 L33.66,6.25 L33.66,25.23 L27.69,31.22 L27.69,3.22 C27.7,1.58 29.04,0.25 30.69,0.25 L84,0.25 C84.8,0.25 85.57,0.57 86.13,1.14 C86.69,1.71 87,2.48 87,3.28 L87,3.28 Z"></path>
                <path d="M46.21,30.96 C46.21,31.95 45.95,32.94 45.43,33.82 L39.69,39.49 L33.62,45.49 L28.03,51.01 L27.94,51.071 L27.94,51.1 L27.93,51.111 L27.94,51.121 L27.94,54.591 L26.7,53.091 C23.81,50.201 19.82,48.421 15.41,48.421 C8.8,48.421 3.13,52.442 0.7,58.161 L0.21,59.761 L0.21,45.19 C0.21,42.639 2.28,40.57 4.83,40.57 L22.75,40.57 L24.63,38.69 L27.37,35.98 L33.43,29.99 L37.22,26.24 C38.2,25.56 39.34,25.23 40.48,25.23 C41.94,25.23 43.41,25.78 44.53,26.9 C45.65,28.02 46.21,29.49 46.21,30.96 L46.21,30.96 Z"></path>
                <path d="M37.22,26.24 L33.43,29.99 L33.43,29.89 L36.42,26.9 C36.67,26.65 36.94,26.43 37.22,26.24 L37.22,26.24 Z"></path>
                <path d="M27.37,35.95 L27.37,35.98 L24.63,38.69 L27.37,35.95 Z"></path>
                <path d="M33.43,29.89 L33.43,29.99 L27.37,35.98 L27.37,35.95 L33.43,29.89 Z"></path>
                <path d="M27.94,51.1 L27.94,51.12 L27.93,51.11 L27.94,51.1 Z"></path>
            </g>
        </g>
    </g>
</svg>