<?xml version="1.0" encoding="utf-8"?>
<!-- Generator: Adobe Illustrator 16.0.0, SVG Export Plug-In . SVG Version: 6.00 Build 0)  -->
<!DOCTYPE svg PUBLIC "-//W3C//DTD SVG 1.1//EN" "http://www.w3.org/Graphics/SVG/1.1/DTD/svg11.dtd">
<svg version="1.1" id="Layer_1" xmlns="http://www.w3.org/2000/svg" xmlns:xlink="http://www.w3.org/1999/xlink" x="0px" y="0px"
	 width="101.25px" height="129.5px" viewBox="0 0 101.25 129.5" enable-background="new 0 0 101.25 129.5" xml:space="preserve">
<g opacity="0.7">
	<path fill="none" stroke="#FFFFFF" stroke-width="4" stroke-miterlimit="10" d="M91.376,57.5c3.213,0,5.856,2.533,5.994,5.744
		l1.859,43.4c0.488,11.371-8.6,20.855-19.98,20.855H22c-11.382,0-20.469-9.484-19.981-20.855l1.86-43.4
		C4.016,60.033,6.659,57.5,9.873,57.5"/>
	<path fill="none" stroke="#FFFFFF" stroke-width="4" stroke-miterlimit="10" d="M68.125,112.334H32.458c-2.209,0-4-1.791-4-4V87
		c0-1.104,0.896-2,2-2h39.667c1.104,0,2,0.896,2,2v21.334C72.125,110.543,70.333,112.334,68.125,112.334z"/>
	<path fill="none" stroke="#FFFFFF" stroke-width="4" stroke-miterlimit="10" d="M70.125,84.5c0,10.771-8.805,19.5-19.667,19.5
		s-19.667-8.729-19.667-19.5"/>
	<line fill="none" stroke="#FFFFFF" stroke-width="4" stroke-miterlimit="10" x1="67.625" y1="61.668" x2="32.625" y2="61.668"/>
	<path fill="none" stroke="#FFFFFF" stroke-width="4" stroke-miterlimit="10" d="M20.756,61.668
		c-9.942,0-17.762-8.494-16.942-18.402l2.477-29.932c0-1.656,1.343-3,3-3h81.667c1.656,0,3,1.344,3,3l2.477,29.932
		c0.82,9.908-7,18.402-16.942,18.402"/>
	<path fill="none" stroke="#FFFFFF" stroke-width="4" stroke-miterlimit="10" d="M31.125,74h-8c-1.657,0-3-1.343-3-3V55
		c0-1.656,1.343-3,3-3h8c1.657,0,3,1.344,3,3v16C34.125,72.657,32.781,74,31.125,74z"/>
	<path fill="none" stroke="#FFFFFF" stroke-width="4" stroke-miterlimit="10" d="M77.125,74h-8c-1.656,0-3-1.343-3-3V55
		c0-1.656,1.344-3,3-3h8c1.656,0,3,1.344,3,3v16C80.125,72.657,78.781,74,77.125,74z"/>
	<path fill="none" stroke="#FFFFFF" stroke-width="4" stroke-miterlimit="10" d="M39.625,38.668v-8c0-1.658,1.343-3,3-3h16
		c1.656,0,3,1.342,3,3v8c0,1.656-1.344,3-3,3h-16C40.968,41.668,39.625,40.324,39.625,38.668z"/>
	<path fill="none" stroke="#FFFFFF" stroke-width="4" stroke-miterlimit="10" d="M40.125,11.834C40.125,6.403,44.527,2,49.958,2
		c5.43,0,9.833,4.403,9.833,9.834"/>
</g>
</svg>
