<?xml version="1.0" encoding="utf-8"?>
<!-- Generator: Adobe Illustrator 16.0.0, SVG Export Plug-In . SVG Version: 6.00 Build 0)  -->
<!DOCTYPE svg PUBLIC "-//W3C//DTD SVG 1.1//EN" "http://www.w3.org/Graphics/SVG/1.1/DTD/svg11.dtd">
<svg version="1.1" id="Layer_1" xmlns="http://www.w3.org/2000/svg" xmlns:xlink="http://www.w3.org/1999/xlink" x="0px" y="0px"
	 width="148.167px" height="109px" viewBox="0 0 148.167 109" enable-background="new 0 0 148.167 109" xml:space="preserve">
<g opacity="0.7">
	<path fill="none" stroke="#FFFFFF" stroke-width="4" stroke-linejoin="round" stroke-miterlimit="10" d="M110.125,2
		C85.833,2,74.083,17,74.083,17S62.333,2,38.042,2C13.75,2,2,17,2,17v90c0,0,11.75-15,36.042-15c24.292,0,36.041,15,36.041,15
		s11.75-15,36.042-15s36.042,15,36.042,15V17C146.167,17,134.417,2,110.125,2z"/>
	
		<line fill="none" stroke="#FFFFFF" stroke-width="4" stroke-linejoin="round" stroke-miterlimit="10" x1="74.083" y1="28" x2="74.083" y2="85.668"/>
	<polygon fill="none" stroke="#FFFFFF" stroke-width="4" stroke-linejoin="round" stroke-miterlimit="10" points="112.322,60.85 
		119.972,53.2 127.621,45.551 119.972,37.901 112.322,45.551 104.673,53.2 97.023,45.551 89.374,53.2 97.023,60.85 104.673,68.5 	
		"/>
	<polygon fill="none" stroke="#FFFFFF" stroke-width="4" stroke-linejoin="round" stroke-miterlimit="10" points="42.316,44.5 
		42.316,33.683 42.316,29.865 31.498,29.865 31.498,33.683 31.498,44.5 31.498,55.318 42.316,55.318 	"/>
	
		<rect x="31.498" y="62.318" fill="none" stroke="#FFFFFF" stroke-width="4" stroke-linejoin="round" stroke-miterlimit="10" width="10.818" height="10.818"/>
</g>
</svg>
