<?xml version="1.0" encoding="utf-8"?>
<!-- Generator: Adobe Illustrator 16.0.0, SVG Export Plug-In . SVG Version: 6.00 Build 0)  -->
<!DOCTYPE svg PUBLIC "-//W3C//DTD SVG 1.1//EN" "http://www.w3.org/Graphics/SVG/1.1/DTD/svg11.dtd">
<svg version="1.1" id="Layer_1" xmlns="http://www.w3.org/2000/svg" xmlns:xlink="http://www.w3.org/1999/xlink" x="0px" y="0px"
	 width="107.667px" height="128.428px" viewBox="0 0 107.667 128.428" enable-background="new 0 0 107.667 128.428"
	 xml:space="preserve">
<g>
	<g opacity="0.7">
		<circle fill="none" stroke="#FFFFFF" stroke-width="4" stroke-miterlimit="10" cx="58.167" cy="53.596" r="47.5"/>
		<path fill="none" stroke="#FFFFFF" stroke-width="4" stroke-miterlimit="10" d="M93.619,97.162
			c-9.668,7.877-22.008,12.6-35.451,12.6C27.147,109.762,2,84.615,2,53.596C2,30.33,16.145,10.369,36.304,1.842"/>
		<line fill="none" stroke="#FFFFFF" stroke-width="4" stroke-miterlimit="10" x1="81.804" y1="94.79" x2="86.107" y2="102.326"/>
		<line fill="none" stroke="#FFFFFF" stroke-width="4" stroke-miterlimit="10" x1="29.951" y1="3.941" x2="34.417" y2="11.764"/>
		<line fill="none" stroke="#FFFFFF" stroke-width="4" stroke-miterlimit="10" x1="58.167" y1="109.762" x2="58.167" y2="126.928"/>
		<line fill="none" stroke="#FFFFFF" stroke-width="4" stroke-miterlimit="10" x1="52.917" y1="120.346" x2="62.917" y2="120.346"/>
		<line fill="none" stroke="#FFFFFF" stroke-width="4" stroke-miterlimit="10" x1="42.917" y1="123.346" x2="72.917" y2="123.346"/>
		<line fill="none" stroke="#FFFFFF" stroke-width="4" stroke-miterlimit="10" x1="22.917" y1="126.428" x2="92.917" y2="126.428"/>
	</g>
	<g opacity="0.7">
		<g>
			<path fill="none" stroke="#FFFFFF" stroke-width="4" stroke-miterlimit="10" d="M59.432,36.707l3.212,9.239
				c0.275,0.79,1.012,1.326,1.849,1.343l9.78,0.199c1.896,0.039,2.679,2.448,1.168,3.594l-7.795,5.91
				c-0.667,0.506-0.949,1.372-0.707,2.173l2.833,9.363c0.55,1.815-1.5,3.304-3.057,2.221l-8.029-5.587
				c-0.687-0.479-1.599-0.479-2.285,0l-8.03,5.587c-1.556,1.083-3.605-0.405-3.057-2.221l2.833-9.363
				c0.242-0.801-0.04-1.667-0.706-2.173l-7.795-5.91c-1.511-1.146-0.729-3.555,1.167-3.594l9.781-0.199
				c0.836-0.017,1.573-0.553,1.848-1.343l3.211-9.239C56.277,34.915,58.81,34.915,59.432,36.707z"/>
		</g>
	</g>
</g>
</svg>
