<?xml version="1.0" encoding="utf-8"?>
<!-- Generator: Adobe Illustrator 16.0.0, SVG Export Plug-In . SVG Version: 6.00 Build 0)  -->
<!DOCTYPE svg PUBLIC "-//W3C//DTD SVG 1.1//EN" "http://www.w3.org/Graphics/SVG/1.1/DTD/svg11.dtd">
<svg version="1.1" id="Layer_1" xmlns="http://www.w3.org/2000/svg" xmlns:xlink="http://www.w3.org/1999/xlink" x="0px" y="0px"
	 width="52.895px" height="52.892px" viewBox="318.553 369.196 52.895 52.892"
	 enable-background="new 318.553 369.196 52.895 52.892" xml:space="preserve">
<g>
	<g>
		<g>
			<g>
				<path fill="#F37F7F" d="M355.623,387.844c-0.314-5.54-4.873-9.838-10.434-9.838c-5.498,0-10.019,4.203-10.424,9.654
					c-0.589,0.084-1.19,0.195-1.812,0.338l0.25,1.64c0.243,0.005,0.646,0.093,0.666,0.558c0.068,1.746,0.317,3.066,0.927,3.969
					c-0.196,0.154-0.331,0.332-0.39,0.535c0,0,0.787-0.011,0.862,0.078c0,0-1.149,2.033-0.975,3.357l0.701-0.414
					c0,0-0.412,3.214,0.322,4.218c0,0,0.566-0.826,0.7-0.944c0,0,0.536,3.124,1.003,3.744c0,0,0.436-0.619,0.637-0.768
					c0,0,0.231,1.988,1.235,3.125l0.437-0.707c0,0,1.067,2.535,0.802,3.744c0,0,0.802-0.647,0.802-0.854
					c0,0,0.102,1.387,1.806,2.151c0,0-0.033-0.619,0.135-0.795c0,0,1.705,1.443,0.769,2.417c0,0,1.218,0.184,1.601-0.859
					c0.383,1.043,1.6,0.859,1.6,0.859c-0.937-0.974,0.77-2.417,0.77-2.417c0.167,0.176,0.134,0.795,0.134,0.795
					c1.704-0.766,1.806-2.151,1.806-2.151c0,0.207,0.802,0.854,0.802,0.854c-0.268-1.209,0.803-3.744,0.803-3.744l0.436,0.707
					c1.003-1.137,1.236-3.125,1.236-3.125c0.201,0.147,0.635,0.768,0.635,0.768c0.467-0.62,1.003-3.745,1.003-3.745
					c0.134,0.119,0.7,0.944,0.7,0.944c0.734-1.004,0.322-4.217,0.322-4.217l0.698,0.412c0.177-1.324-0.977-3.361-0.977-3.361
					c0.075-0.088,0.855-0.082,0.855-0.082c-0.064-0.226-0.224-0.42-0.451-0.585c0.604-1.11,0.619-2.583,0.955-3.655
					c0.125-0.395,0.261-0.597,0.692-0.606l0.205-1.64C356.859,388.074,356.248,387.949,355.623,387.844z M334.16,389.046
					c-0.346,0-0.627-0.071-0.627-0.159c0-0.088,0.281-0.16,0.627-0.16s0.627,0.072,0.627,0.16
					C334.787,388.975,334.506,389.046,334.16,389.046z M345.189,379.008c4.953,0,9.026,3.809,9.416,8.686
					c-1.941-0.247-4.031-0.254-6.479,0.361c-0.934,0.234-2.018,0.475-2.979,0.445c-0.577-0.019-1.126-0.152-1.645-0.273
					c-2.612-0.609-5.034-0.935-7.718-0.688C336.246,382.736,340.287,379.008,345.189,379.008z M342.855,393.299
					c0.69-0.976,1.151-2.021,1.26-2.623c0.129-0.716,0.581-0.789,0.992-0.799c0.729-0.02,0.854,0.514,0.981,0.836
					c0.424,1.07,0.82,2.18,1.213,2.836c-0.27,0.015-0.508,0.575-0.729,0.591c-1.103,0.058-1.937-0.124-2.449-0.149
					c-0.172-0.012-0.361,0.068-0.571,0.068h-0.696v-0.739C342.854,393.312,342.971,393.306,342.855,393.299z M338.601,395.057
					c-2.672,0-3.447-0.486-3.803-3.598c0-2.087-0.137-3.309,3.825-3.301c2.672,0.256,5.474,0.23,4.395,3.415
					C342.348,393.551,341.298,394.984,338.601,395.057z M345.18,400.703c-1.945,0-3.541-1.5-3.692-3.406
					c0.474-0.061,1.068-0.191,1.261-0.479c0,0,0.264,0.416,0.297,0.811c0,0,0.517-0.34,1.018-0.873c0,0,0.51,0.603,0.477,0.802
					c0,0,1.006-0.567,1.039-0.802c0,0,0.504,0.668,1.172,0.603c0,0,0.201-0.367,0.402-0.603c0,0,0.454,0.521,1.062,0.395
					c0,0,0.062-0.561,0.168-0.661c0,0,0.16,0.03,0.375,0.067c0.084,0.136,0.129,0.283,0.129,0.443
					C348.885,399.045,347.226,400.703,345.18,400.703z M355.654,391.459c-0.354,3.111-1.13,3.599-3.804,3.599
					c-2.696-0.073-3.745-1.507-4.417-3.483c-1.078-3.186,1.725-3.16,4.396-3.416C355.791,388.15,355.654,389.373,355.654,391.459z
					 M356.326,389.205c-0.346,0-0.626-0.071-0.626-0.159s0.28-0.159,0.626-0.159s0.627,0.071,0.627,0.159
					S356.672,389.205,356.326,389.205z"/>
			</g>
		</g>
		<g>
			<path fill="#F37F7F" d="M344.422,417.082c0-0.331,0.266-0.602,0.603-0.602l0,0c0.329,0,0.595,0.271,0.6,0.602l0,0
				c0,0.33-0.271,0.6-0.6,0.6l0,0C344.688,417.682,344.422,417.412,344.422,417.082z M342.555,417.403c0,0,0,0,0.006,0l0,0
				c-0.336,0-0.57-0.264-0.534-0.594l0,0c0.036-0.324,0.33-0.528,0.659-0.491l0,0c0.331,0.035,0.572,0.274,0.535,0.604l0,0
				c-0.035,0.308-0.294,0.479-0.601,0.479l0,0C342.603,417.403,342.578,417.403,342.555,417.403z M346.82,416.945
				c-0.037-0.331,0.203-0.597,0.535-0.633l0,0c0.329-0.035,0.622,0.146,0.659,0.477l0,0c0.042,0.33-0.197,0.614-0.528,0.614l0,0l0,0
				l0,0c-0.023,0-0.048,0-0.066,0l0,0C347.12,417.403,346.855,417.252,346.82,416.945z M340.121,417.142
				c-0.324-0.077-0.529-0.396-0.457-0.722l0,0c0.072-0.324,0.396-0.528,0.721-0.45l0,0c0.324,0.072,0.529,0.392,0.457,0.715l0,0
				c-0.065,0.282-0.312,0.47-0.589,0.47l0,0C340.211,417.153,340.162,417.147,340.121,417.142z M349.205,416.679
				c-0.072-0.323,0.125-0.648,0.45-0.721l0,0c0.325-0.072,0.648,0.126,0.722,0.45l0,0c0.072,0.324-0.133,0.647-0.451,0.721l0,0l0,0
				l0,0c-0.048,0.013-0.09,0.02-0.139,0.02l0,0C349.512,417.147,349.266,416.955,349.205,416.679z M337.742,416.463L337.742,416.463
				L337.742,416.463c-0.312-0.115-0.476-0.457-0.367-0.77l0,0c0.107-0.312,0.451-0.48,0.763-0.366l0,0
				c0.313,0.107,0.481,0.45,0.373,0.763l0,0c-0.09,0.246-0.325,0.402-0.57,0.402l0,0
				C337.874,416.492,337.808,416.48,337.742,416.463z M351.53,416.078c-0.108-0.312,0.054-0.654,0.366-0.771l0,0
				c0.317-0.106,0.66,0.062,0.77,0.373l0,0c0.107,0.312-0.055,0.654-0.367,0.764l0,0c-0.065,0.023-0.137,0.036-0.204,0.036l0,0
				C351.849,416.48,351.614,416.324,351.53,416.078z M335.459,415.514c-0.301-0.145-0.428-0.499-0.283-0.799l0,0
				c0.146-0.301,0.505-0.428,0.806-0.283l0,0c0.295,0.146,0.428,0.506,0.282,0.8l0,0c-0.107,0.217-0.317,0.344-0.547,0.344l0,0
				C335.633,415.574,335.543,415.555,335.459,415.514z M353.777,415.219c-0.146-0.301-0.023-0.661,0.275-0.805l0,0
				c0.3-0.146,0.661-0.082,0.806,0.219l0,0c0.145,0.295,0.019,0.735-0.276,0.735l0,0c0,0,0,0-0.006,0l0,0
				c-0.084,0-0.168,0.124-0.258,0.124l0,0C354.096,415.492,353.879,415.43,353.777,415.219z M333.295,414.324
				c-0.281-0.183-0.366-0.553-0.186-0.83l0,0c0.174-0.281,0.547-0.365,0.821-0.191l0,0c0.283,0.174,0.367,0.547,0.193,0.828l0,0
				c-0.115,0.182-0.312,0.283-0.511,0.283l0,0C333.506,414.414,333.392,414.384,333.295,414.324z M355.91,414.113
				c-0.18-0.282-0.09-0.654,0.187-0.829l0,0c0.282-0.182,0.649-0.097,0.829,0.187l0,0c0.181,0.282,0.097,0.648-0.188,0.829l0,0
				c-0.103,0.061-0.209,0.09-0.317,0.09l0,0C356.217,414.39,356.024,414.293,355.91,414.113z M331.283,412.894
				c-0.266-0.21-0.308-0.589-0.097-0.847l0,0c0.203-0.259,0.582-0.301,0.841-0.097l0,0c0.26,0.21,0.307,0.583,0.097,0.847l0,0
				c-0.12,0.15-0.295,0.223-0.469,0.223l0,0C331.523,413.02,331.391,412.979,331.283,412.894z M357.904,412.773
				c-0.203-0.259-0.162-0.638,0.097-0.842l0,0c0.259-0.21,0.637-0.169,0.841,0.091l0,0c0.211,0.259,0.168,0.638-0.09,0.847l0,0l0,0
				l0,0c-0.114,0.084-0.246,0.127-0.379,0.127l0,0C358.199,412.996,358.025,412.924,357.904,412.773z M329.438,411.248
				c-0.234-0.234-0.234-0.613-0.006-0.848l0,0c0.239-0.234,0.618-0.24,0.854-0.007l0,0c0.233,0.234,0.233,0.619,0,0.854l0,0
				c-0.113,0.113-0.271,0.174-0.426,0.174l0,0C329.709,411.422,329.553,411.367,329.438,411.248z M359.743,411.224
				c-0.234-0.239-0.234-0.618,0-0.854l0,0c0.234-0.234,0.612-0.234,0.847,0l0,0c0.234,0.233,0.234,0.613,0,0.854l0,0
				c-0.113,0.114-0.27,0.175-0.426,0.175l0,0C360.014,411.397,359.857,411.338,359.743,411.224z M327.786,409.409
				c-0.204-0.259-0.163-0.638,0.097-0.841l0,0c0.258-0.211,0.636-0.169,0.84,0.09l0,0c0.211,0.258,0.169,0.637-0.09,0.848l0,0
				c-0.114,0.083-0.246,0.131-0.378,0.131l0,0C328.08,409.637,327.906,409.559,327.786,409.409z M361.396,409.475
				c-0.266-0.209-0.308-0.588-0.097-0.846l0,0c0.204-0.26,0.583-0.301,0.841-0.098l0,0c0.259,0.211,0.308,0.59,0.097,0.848l0,0
				c-0.12,0.15-0.294,0.223-0.47,0.223l0,0C361.636,409.602,361.504,409.559,361.396,409.475z M326.356,407.396
				c-0.182-0.277-0.098-0.649,0.187-0.83l0,0c0.275-0.175,0.648-0.091,0.828,0.192l0,0c0.174,0.275,0.091,0.648-0.191,0.828l0,0
				c-0.096,0.062-0.211,0.091-0.317,0.091l0,0C326.662,407.679,326.471,407.576,326.356,407.396z M362.838,407.553
				c-0.277-0.174-0.359-0.547-0.187-0.83l0,0c0.175-0.28,0.546-0.364,0.829-0.186l0,0c0.281,0.174,0.365,0.547,0.186,0.829l0,0
				c-0.113,0.181-0.306,0.275-0.51,0.275l0,0C363.047,407.643,362.939,407.613,362.838,407.553z M325.154,405.239
				c-0.146-0.3-0.019-0.655,0.275-0.799l0,0c0.302-0.15,0.661-0.024,0.807,0.275l0,0c0.145,0.301,0.018,0.654-0.283,0.799l0,0
				c-0.084,0.042-0.174,0.062-0.258,0.062l0,0C325.473,405.576,325.257,405.455,325.154,405.239z M364.062,405.479
				c-0.301-0.144-0.427-0.498-0.281-0.799l0,0c0.144-0.301,0.504-0.427,0.805-0.281l0,0c0.301,0.145,0.421,0.504,0.276,0.805l0,0
				l0,0l0,0c-0.104,0.211-0.319,0.337-0.541,0.337l0,0C364.237,405.54,364.146,405.521,364.062,405.479z M324.205,402.963
				c-0.114-0.318,0.055-0.662,0.366-0.77l0,0c0.312-0.108,0.654,0.054,0.764,0.365l0,0c0.114,0.312-0.054,0.655-0.366,0.77l0,0
				c-0.065,0.023-0.133,0.031-0.199,0.031l0,0C324.523,403.359,324.289,403.209,324.205,402.963z M365.049,403.287
				c-0.317-0.108-0.479-0.451-0.373-0.764l0,0c0.108-0.312,0.451-0.48,0.765-0.373l0,0c0.317,0.114,0.479,0.457,0.372,0.77l0,0
				c-0.086,0.246-0.318,0.402-0.571,0.402l0,0C365.181,403.322,365.109,403.311,365.049,403.287z M323.514,400.583
				c-0.071-0.318,0.134-0.643,0.451-0.715l0,0c0.324-0.078,0.648,0.126,0.721,0.45l0,0c0.078,0.317-0.126,0.643-0.449,0.721l0,0
				c-0.042,0.007-0.092,0.013-0.133,0.013l0,0C323.826,401.052,323.58,400.865,323.514,400.583z M365.775,400.875
				c-0.324-0.071-0.529-0.288-0.451-0.83h-0.006c0.071-0.543,0.396-0.391,0.722-0.312l0,0c0.324,0.071,0.528,0.312,0.456,0.854l0,0
				c0,0,0,0-0.006,0l0,0c-0.061,0-0.308,0.388-0.582,0.388l0,0C365.865,400.975,365.817,400.888,365.775,400.875z M323.1,398.15
				c-0.035-0.331,0.199-0.625,0.529-0.662l0,0c0.33-0.041,0.631,0.199,0.666,0.528l0,0c0.037,0.33-0.198,0.625-0.528,0.661l0,0
				c-0.023,0.006-0.048,0.006-0.071,0.006l0,0C323.395,398.685,323.136,398.456,323.1,398.15z M366.238,398.637
				c-0.33-0.036-0.564-0.33-0.529-0.661l0,0c0.037-0.331,0.337-0.57,0.661-0.533l0,0c0.331,0.041,0.571,0.336,0.534,0.666l0,0l0,0
				l0,0c-0.035,0.307-0.293,0.534-0.595,0.534l0,0C366.286,398.643,366.262,398.643,366.238,398.637z M322.961,395.687
				c-0.006-0.331,0.266-0.601,0.602-0.601l0,0c0.33,0,0.596,0.264,0.602,0.594l0,0c0,0.336-0.271,0.607-0.602,0.607l0,0
				C323.232,396.287,322.961,396.017,322.961,395.687z M365.613,395.639c0-0.012,0-0.024,0-0.036l0,0c0-0.019,0-0.03,0-0.042l0,0
				c0-0.336,0.379-0.607,0.709-0.607l0,0c0.33,0,0.658,0.265,0.664,0.602l0,0c0,0.012,0.021,0.029,0.021,0.041l0,0
				c0,0.019,0.021,0.031,0.021,0.043l0,0c0,0.336-0.377,0.606-0.714,0.606l0,0C365.985,396.245,365.613,395.975,365.613,395.639z
				 M323.623,393.535c-0.331,0-0.571-0.162-0.529-0.486l0,0c0.036-0.33,0.33-0.484,0.661-0.447l0,0
				c0.33,0.035,0.564,0.199,0.528,0.529l0,0c-0.029,0.312-0.295,0.404-0.595,0.404l0,0
				C323.664,393.535,323.646,393.535,323.623,393.535z M365.703,393.223c-0.041-0.324,0.198-0.625,0.522-0.66l0,0
				c0.33-0.043,0.632,0.198,0.666,0.528l0,0c0.036,0.325-0.196,0.625-0.527,0.661l0,0c-0.024,0.006-0.042,0.006-0.065,0.006l0,0
				C365.998,393.758,365.733,393.529,365.703,393.223z M323.953,391.498c-0.324-0.072-0.529-0.39-0.457-0.715l0,0
				c0.072-0.324,0.396-0.528,0.721-0.456l0,0c0.318,0.078,0.523,0.396,0.451,0.722l0,0c-0.061,0.275-0.312,0.469-0.583,0.469l0,0
				C324.037,391.518,323.994,391.511,323.953,391.498z M365.071,390.922v0.006c0-0.324,0.241-0.648,0.564-0.727l0,0
				c0.324-0.072,0.706,0.132,0.777,0.45l0,0c0.078,0.325-0.097,0.649-0.421,0.722l0,0c-0.042,0.012-0.19,0.018-0.232,0.018l0,0
				C365.484,391.391,365.071,391.205,365.071,390.922z M324.547,389.168c-0.316-0.108-0.479-0.451-0.371-0.764l0,0
				c0.107-0.312,0.45-0.48,0.762-0.366l0,0c0.313,0.108,0.48,0.45,0.373,0.763l0,0c-0.09,0.246-0.317,0.402-0.563,0.402l0,0
				C324.68,389.203,324.613,389.191,324.547,389.168z M364.652,388.681c-0.114-0.312,0.055-0.655,0.359-0.763l0,0
				c0.312-0.114,0.661,0.054,0.77,0.366l0,0c0.107,0.312-0.056,0.655-0.367,0.763l0,0c-0.065,0.024-0.131,0.037-0.197,0.037l0,0
				C364.971,389.084,364.736,388.928,364.652,388.681z M325.4,386.92c-0.301-0.144-0.427-0.498-0.282-0.799l0,0
				c0.145-0.3,0.499-0.426,0.8-0.282l0,0c0.3,0.145,0.426,0.505,0.281,0.8l0,0c-0.103,0.216-0.317,0.342-0.54,0.342l0,0
				C325.568,386.98,325.484,386.963,325.4,386.92z M363.744,386.529L363.744,386.529c-0.146-0.3-0.019-0.66,0.275-0.805l0,0
				c0.302-0.145,0.661-0.018,0.807,0.277l0,0c0.145,0.3,0.018,0.66-0.276,0.805l0,0c-0.084,0.042-0.175,0.061-0.265,0.061l0,0
				C364.062,386.867,363.854,386.74,363.744,386.529z M326.5,384.781c-0.282-0.174-0.366-0.546-0.191-0.822l0,0
				c0.175-0.283,0.548-0.237,0.828-0.062l0,0c0.283,0.174,0.367,0.416,0.193,0.959h-0.007c-0.114,0-0.308,0.152-0.505,0.152l0,0
				C326.711,385.008,326.596,384.848,326.5,384.781z M362.609,384.493c-0.181-0.282-0.458-0.655-0.177-0.829l0,0
				c0.276-0.18,0.469-0.096,0.469,0.187l0,0c0,0,0,0,0-0.006l0,0c0,0.282,0.451,0.655,0.175,0.829l0,0
				c-0.103,0.065-0.029,0.096-0.144,0.096l0,0C362.734,384.77,362.723,384.674,362.609,384.493z M327.834,382.781
				c-0.258-0.205-0.307-0.583-0.102-0.842l0,0c0.21-0.258,0.588-0.307,0.848-0.096l0,0c0.258,0.204,0.306,0.582,0.096,0.841l0,0
				c-0.121,0.151-0.295,0.229-0.469,0.229l0,0C328.074,382.913,327.942,382.871,327.834,382.781z M361.252,382.595
				c-0.211-0.259-0.169-0.637,0.09-0.847l0,0c0.258-0.211,0.637-0.168,0.841,0.09l0,0c0.21,0.258,0.169,0.637-0.091,0.847l0,0
				c-0.106,0.091-0.239,0.132-0.372,0.132l0,0C361.539,382.816,361.365,382.738,361.252,382.595z M329.378,380.942
				c-0.233-0.234-0.233-0.612,0-0.847l0,0c0.235-0.234,0.613-0.24,0.847-0.006l0,0c0.235,0.234,0.241,0.618,0.009,0.853l0,0
				c-0.121,0.114-0.277,0.175-0.429,0.175l0,0C329.648,381.117,329.498,381.062,329.378,380.942z M359.684,380.858L359.684,380.858
				c-0.233-0.234-0.233-0.618,0-0.853l0,0c0.234-0.234,0.612-0.234,0.848,0l0,0l0,0l0,0c0.233,0.234,0.239,0.612,0.007,0.847l0,0
				c-0.121,0.12-0.277,0.175-0.428,0.175l0,0C359.953,381.027,359.804,380.973,359.684,380.858z M331.121,379.284
				c-0.205-0.258-0.162-0.638,0.096-0.841l0,0c0.258-0.211,0.637-0.168,0.841,0.09l0,0c0.21,0.258,0.168,0.637-0.09,0.848l0,0
				c-0.114,0.09-0.247,0.132-0.378,0.132l0,0C331.415,379.513,331.24,379.434,331.121,379.284z M357.941,379.303
				c-0.266-0.205-0.308-0.584-0.104-0.842l0,0c0.211-0.258,0.59-0.307,0.848-0.096l0,0c0.259,0.204,0.302,0.582,0.097,0.841l0,0
				c-0.113,0.15-0.294,0.228-0.469,0.228l0,0C358.182,379.434,358.049,379.393,357.941,379.303z M333.037,377.836
				c-0.174-0.282-0.096-0.654,0.187-0.828l0,0c0.282-0.182,0.655-0.097,0.829,0.186l0,0c0.181,0.282,0.097,0.648-0.186,0.829l0,0
				c-0.104,0.06-0.211,0.091-0.319,0.091l0,0C333.344,378.113,333.151,378.017,333.037,377.836z M356.03,377.957
				c-0.282-0.175-0.366-0.547-0.192-0.83l0,0c0.174-0.282,0.547-0.366,0.83-0.186l0,0c0.281,0.174,0.365,0.547,0.191,0.822l0,0
				c-0.113,0.188-0.312,0.283-0.511,0.283l0,0C356.24,378.047,356.127,378.017,356.03,377.957z M335.104,376.604
				c-0.145-0.294-0.018-0.655,0.277-0.8l0,0c0.3-0.144,0.66-0.023,0.805,0.277l0,0c0.146,0.301,0.019,0.66-0.276,0.805l0,0
				c-0.084,0.043-0.174,0.061-0.265,0.061l0,0C335.422,376.947,335.205,376.821,335.104,376.604z M353.981,376.833
				c-0.302-0.145-0.428-0.505-0.282-0.806l0,0c0.145-0.294,0.504-0.42,0.805-0.281l0,0c0.295,0.144,0.421,0.504,0.276,0.805l0,0
				c-0.104,0.216-0.312,0.342-0.54,0.342l0,0C354.156,376.893,354.066,376.875,353.981,376.833z M337.297,375.619
				c-0.114-0.312,0.055-0.654,0.366-0.77l0,0c0.312-0.107,0.655,0.055,0.764,0.367l0,0c0.114,0.318-0.054,0.66-0.367,0.77l0,0
				c-0.064,0.023-0.132,0.035-0.197,0.035l0,0C337.615,376.021,337.381,375.865,337.297,375.619z M351.824,375.943
				c-0.318-0.107-0.48-0.45-0.373-0.763l0,0c0.108-0.312,0.451-0.48,0.764-0.372l0,0c0.312,0.107,0.48,0.45,0.373,0.763l0,0
				c-0.09,0.253-0.318,0.408-0.571,0.408l0,0C351.951,375.979,351.885,375.968,351.824,375.943z M339.586,374.88
				c-0.078-0.317,0.126-0.643,0.451-0.721l0,0c0.318-0.072,0.643,0.132,0.715,0.45l0,0c0.078,0.325-0.127,0.649-0.451,0.721l0,0
				c-0.042,0.013-0.09,0.02-0.133,0.02l0,0C339.893,375.35,339.646,375.162,339.586,374.88z M349.571,375.091h0.007
				c-0.325,0-0.529-0.288-0.457-0.606l0,0c0.072-0.324,0.391-0.475,0.715-0.403l0,0c0.324,0.072,0.529,0.417,0.457,0.742l0,0
				c-0.066,0.282-0.312,0.374-0.583,0.374l0,0C349.662,375.197,349.619,375.091,349.571,375.091z M341.941,374.216
				c-0.042-0.331,0.196-0.532,0.527-0.569l0,0l0,0l0,0c0.331-0.035,0.625,0.052,0.667,0.382l0,0
				c0.035,0.331-0.204,0.521-0.527,0.521l0,0c-0.024,0-0.049,0-0.073,0l0,0C342.236,374.549,341.978,374.521,341.941,374.216z
				 M347.271,374.922L347.271,374.922c-0.331-0.035-0.571-0.462-0.534-0.792l0,0c0.035-0.331,0.33-0.667,0.666-0.667l0,0
				c0,0,0,0-0.007,0l0,0c0.33,0,0.57,0.469,0.535,0.799l0,0c-0.03,0.307-0.295,0.601-0.595,0.601l0,0
				C347.318,374.862,347.295,374.928,347.271,374.922z M344.332,374.201c0-0.33,0.271-0.601,0.602-0.601l0,0
				c0.33,0,0.602,0.271,0.602,0.601l0,0c0,0.33-0.266,0.602-0.595,0.602l0,0C344.604,374.803,344.332,374.531,344.332,374.201z"/>
		</g>
		<g>
			<path fill="#F37F7F" d="M345,422.088c-14.582,0-26.447-11.863-26.447-26.447c0-14.582,11.865-26.445,26.447-26.445
				c14.583,0,26.447,11.863,26.447,26.445C371.447,410.225,359.583,422.088,345,422.088z M345,370.396
				c-13.92,0-25.245,11.324-25.245,25.244c0,13.92,11.325,25.246,25.245,25.246s25.244-11.325,25.244-25.246
				C370.244,381.721,358.92,370.396,345,370.396z"/>
		</g>
	</g>
</g>
</svg>
