<?xml version="1.0" encoding="utf-8"?>
<!-- Generator: Adobe Illustrator 16.0.0, SVG Export Plug-In . SVG Version: 6.00 Build 0)  -->
<!DOCTYPE svg PUBLIC "-//W3C//DTD SVG 1.1//EN" "http://www.w3.org/Graphics/SVG/1.1/DTD/svg11.dtd">
<svg version="1.1" id="Layer_1" xmlns="http://www.w3.org/2000/svg" xmlns:xlink="http://www.w3.org/1999/xlink" x="0px" y="0px"
	 width="76.991px" height="85.94px" viewBox="6.9 -5.272 76.991 85.94" enable-background="new 6.9 -5.272 76.991 85.94"
	 xml:space="preserve">
<path fill="#DAB586" stroke="#000000" stroke-miterlimit="10" d="M29.393,10.328c-0.992,0-1.794-0.936-1.794-2.089
	s0.804-2.089,1.794-2.089c0.99,0,1.795,0.936,1.795,2.089"/>
<path fill="#DAB586" stroke="#000000" stroke-width="0.8576" stroke-miterlimit="10" d="M59.6,8.239
	c0-1.153,0.803-2.089,1.789-2.089c0.988,0,1.797,0.936,1.797,2.089s-0.809,2.089-1.797,2.089"/>
<path d="M83.891,62.202c0,4.603-3.461,8.368-7.854,8.731c-7.804,7.086-18.64,9.732-30.639,9.734
	c-12.002-0.002-22.838-2.65-30.638-9.734C10.361,70.57,6.9,66.8,6.9,62.202c0-4.845,4.716-8.771,8.555-8.771
	c8.446,0,14.306,6.063,30.13,6.063H45.21c15.819,0,21.687-6.063,30.129-6.063C79.173,53.432,83.891,57.357,83.891,62.202"/>
<path d="M26.808,63.673c-5.369-4.985-8.726-12.106-8.726-20.013c0-15.084,12.229-27.312,27.314-27.312
	c15.083,0,27.311,12.229,27.311,27.312c0,7.979-3.421,15.158-8.877,20.152"/>
<path d="M65.676,38.311c0,9.135-9.078,16.539-20.282,16.539c-11.204,0-20.284-7.404-20.284-16.539"/>
<path fill="#FFFFFF" d="M65.676,38.311c0.2,2.42-0.355,4.922-1.484,7.133c-1.139,2.219-2.811,4.156-4.789,5.686
	c-3.969,3.096-9.014,4.59-14.021,4.604c-4.968-0.013-10.043-1.506-14.001-4.602c-1.978-1.527-3.651-3.467-4.788-5.686
	c-1.128-2.213-1.683-4.715-1.484-7.135c0.193,2.416,0.965,4.729,2.234,6.711c1.247,1.996,2.943,3.67,4.853,5.006
	c1.924,1.316,4.053,2.339,6.297,2.973c2.239,0.662,4.56,0.986,6.911,0.977c4.637,0.021,9.346-1.287,13.19-3.943
	c1.909-1.336,3.604-3.008,4.852-5.006C64.715,43.039,65.484,40.727,65.676,38.311z"/>
<circle fill="#DAB586" stroke="#000000" stroke-miterlimit="10" cx="45.394" cy="11.06" r="15.832"/>
<path d="M61.529,3.384c-0.389-0.161-3.955,0-7.271,0.274c-3.314,0.275-8.365,1.576-8.938,1.576c-0.568,0-2.763-0.752-6.948-1.372
	c-4.182-0.617-9.12-0.228-9.12-0.228s-0.137,0.023-0.47,0.184c-0.33,0.159-0.239,0.503-0.239,0.503l0.481,1.781
	c0,0,0.135,0.023,0.434,0.229c0.297,0.206,0.479,0.892,0.846,2.063c0.366,1.17,0.844,2.623,1.896,3.696
	c1.052,1.074,4.138,1.372,4.821,1.367c0.686-0.004,1.509,0.166,3.454-0.635c1.942-0.8,3.108-3.75,3.543-4.617
	c0.435-0.871,0.25-0.871,1.374-0.915c1.124-0.045,1.092,0.503,2.167,2.629c1.073,2.125,3.521,3.727,6.604,3.52
	c3.087-0.205,4.366-1.051,4.985-1.621c0.621-0.571,0.848-1.485,0.979-1.807c0.14-0.32,0.979-3.384,1.164-3.726
	C61.479,5.945,61.837,5.9,61.837,5.9s0.278-0.938,0.396-1.668C62.354,3.499,61.915,3.543,61.529,3.384z M41.621,10.584
	c-0.664,0.87-1.553,1.874-4.023,1.874c-2.467,0-3.817-0.448-4.619-1.046c-0.799-0.6-1.347-2.587-1.461-3.434
	c-0.113-0.846-0.228-2.265,0.366-2.676c0.595-0.41,2.492-0.8,5.211-0.457c2.719,0.344,4.525,0.959,4.525,0.959
	s0.846,0.346,0.914,1.233C42.603,7.934,42.283,9.716,41.621,10.584z M59.395,7.979c-0.117,0.846-0.473,2.834-1.271,3.435
	c-0.801,0.601-2.433,1.045-4.901,1.045c-2.47,0-3.354-1.004-4.021-1.874c-0.663-0.868-1.089-2.582-1.021-3.473
	c0.065-0.893,1.021-1.303,1.021-1.303s1.808-0.617,4.524-0.959c2.719-0.343,4.766-0.023,5.36,0.389
	C59.676,5.646,59.509,7.132,59.395,7.979z"/>
<circle stroke="#000000" stroke-width="0.9715" stroke-miterlimit="10" cx="37.876" cy="8.88" r="0.95"/>
<circle stroke="#000000" stroke-width="0.9715" stroke-miterlimit="10" cx="52.027" cy="8.88" r="0.95"/>
<g>
	<g>
		<path fill="#F2F1F1" d="M44.847,48.926c-0.157,0-0.351-0.107-0.427-0.244c-0.147-0.267-0.03-0.554,0.241-0.996
			c0.438-0.713,0.151-1.039-1.226-1.944c-1.145-0.761-2.572-1.7-2.911-3.519c-0.458-2.451-1.668-4.375-2.735-6.072
			c-0.976-1.553-1.82-2.896-1.814-4.25c0.018-3.892-1.725-6.465-2.661-7.849c-0.195-0.288-0.359-0.53-0.473-0.728
			c-2.403-4.188-3.122-7.176-2.136-8.877c0.614-1.063,1.851-1.602,3.672-1.602c0.351,0,0.731,0.021,1.141,0.062
			c1.2,0.12,2.158,0.212,2.928,0.286c3.219,0.305,3.28,0.311,4.141,0.91c0.193,0.133,0.436,0.302,0.795,0.521l0,0
			c0,0,0.708,0.375,1.648,0.375c0.958,0,1.66-0.379,1.666-0.384c1.716-1.04,2.25-1.098,4.826-1.367
			c0.776-0.081,1.75-0.184,3.015-0.34c0.458-0.057,0.896-0.085,1.297-0.085c1.772,0,3.019,0.548,3.685,1.626
			c1.029,1.677,0.568,4.484-1.369,8.353c-0.543,1.08-0.651,1.913-0.771,2.796c-0.188,1.45-0.384,2.952-2.394,5.533
			c-2.028,2.614-1.905,4.178-1.791,5.691c0.062,0.761,0.121,1.548-0.108,2.408c-0.062,0.235-0.117,0.479-0.169,0.729
			c-0.271,1.221-0.573,2.605-2.127,3.962c-0.419,0.37-1.034,0.938-1.702,1.56C46.033,48.312,45.282,48.926,44.847,48.926
			L44.847,48.926z"/>
		<path d="M55.829,13.254c4.336,0,4.899,3.434,1.926,9.354c-1.472,2.93,0.063,4.17-3.112,8.259
			c-3.176,4.087-1.332,5.851-1.978,8.254c-0.366,1.356-0.403,2.938-2.164,4.479c-1.446,1.262-5.148,4.896-5.654,4.896
			c-0.109,0-0.069-0.173,0.182-0.583c1.403-2.28-3.454-2.424-4.079-5.771c-0.893-4.772-4.554-7.625-4.542-10.244
			c0.021-4.801-2.514-7.611-3.191-8.793c-2.157-3.758-4.862-9.83,1.162-9.83c0.337,0,0.703,0.021,1.097,0.061
			c7.423,0.746,5.54,0.355,7.683,1.656c0,0,0.792,0.438,1.872,0.438c1.083,0,1.874-0.438,1.874-0.438
			c2.146-1.301,2.232-0.985,7.688-1.656C55.031,13.281,55.445,13.254,55.829,13.254 M55.829,12.391c-0.42,0-0.874,0.029-1.349,0.088
			c-1.26,0.154-2.229,0.258-3.006,0.338c-2.598,0.272-3.209,0.338-5.021,1.437l0,0c-0.004,0-0.619,0.313-1.426,0.313
			c-0.827,0-1.454-0.33-1.459-0.334c-0.311-0.188-0.547-0.354-0.737-0.486c-0.953-0.663-1.08-0.674-4.346-0.985
			c-0.769-0.071-1.726-0.165-2.926-0.286c-0.417-0.041-0.814-0.062-1.183-0.062h-0.001c-1.986,0-3.348,0.611-4.046,1.816
			c-1.083,1.871-0.385,4.916,2.135,9.308c0.126,0.219,0.295,0.469,0.49,0.757c0.973,1.438,2.603,3.844,2.586,7.602
			c-0.006,1.481,0.868,2.875,1.881,4.484c1.046,1.667,2.232,3.553,2.676,5.924c0.373,1.994,1.948,3.035,3.098,3.797
			c1.375,0.908,1.315,1.004,1.097,1.361c-0.219,0.355-0.55,0.896-0.25,1.432c0.161,0.289,0.468,0.467,0.804,0.467
			c0.565,0,1.048-0.324,4.529-3.562c0.659-0.608,1.279-1.188,1.691-1.549c1.66-1.451,1.994-2.976,2.266-4.194
			c0.055-0.242,0.104-0.479,0.164-0.709c0.253-0.932,0.188-1.758,0.126-2.555c-0.115-1.498-0.229-2.911,1.703-5.395
			c2.075-2.674,2.29-4.306,2.479-5.744c0.11-0.881,0.213-1.644,0.723-2.655c2.014-4.008,2.47-6.961,1.352-8.772
			C59.128,13.006,57.766,12.391,55.829,12.391L55.829,12.391z"/>
	</g>
</g>
<path fill="#DAB586" stroke="#000000" stroke-width="0.9715" stroke-miterlimit="10" d="M48.982,17.249
	c0,1.62-1.66,2.935-3.711,2.935c-2.05,0-3.714-1.312-3.714-2.935H48.982z"/>
</svg>
