<?xml version="1.0" encoding="utf-8"?>
<!-- Generator: Adobe Illustrator 15.1.0, SVG Export Plug-In  -->
<!DOCTYPE svg PUBLIC "-//W3C//DTD SVG 1.1//EN" "http://www.w3.org/Graphics/SVG/1.1/DTD/svg11.dtd" [
	<!ENTITY ns_flows "http://ns.adobe.com/Flows/1.0/">
]>
<svg version="1.1"
	 xmlns="http://www.w3.org/2000/svg" xmlns:xlink="http://www.w3.org/1999/xlink" xmlns:a="http://ns.adobe.com/AdobeSVGViewerExtensions/3.0/"
	 x="0px" y="0px" width="170px" height="146px" viewBox="0 -6.193 170 146" enable-background="new 0 -6.193 170 146"
	 xml:space="preserve">
<defs>
</defs>
<path fill="#FFFFFF" d="M131.661,82.788c-0.7,1.573-1.466,3.174-2.294,4.841c-1.497,2.889-1.748,5.057-2.129,7.791
	c-0.648,4.839-1.348,10.368-8.482,19.386c-5.703,7.263-5.414,11.184-5.065,15.774c0.226,2.573,0.442,5.528-0.442,8.86
	c-0.195,0.625-0.35,1.347-0.515,2.196c-0.956,4.179-2.134,9.396-8.028,14.455c-1.436,1.252-3.663,3.331-5.448,4.93
	c-11.058,10.15-13.254,11.945-16.124,11.945c-1.847,0-3.636-1.041-4.526-2.581c-1.434-2.543-0.19-4.961,0.606-6.32
	c-0.508-0.431-1.398-1.061-2.607-1.848c-4.083-2.638-9.629-6.253-10.996-13.544c-1.338-7.131-5.066-12.971-8.353-18.128
	c-3.313-5.215-6.466-10.118-6.429-15.458c0.061-11.343-5.011-18.694-7.999-23.062c-0.705-1.037-1.275-1.853-1.661-2.574
	c-1.307-2.229-2.455-4.369-3.472-6.382C14.021,98.623,0,124.356,0,152.636c0,23.182,9.911,45.557,27.146,61.327l0.381,0.346
	l0.257,0.473c0.067,0.094,8.641,10.811,57.102,10.811c46.013,0,55.729-9.426,56.619-10.43l0.133-0.255l0.535-0.502
	c17.56-15.839,27.595-38.332,27.595-61.77C169.768,124.606,155.273,98.216,131.661,82.788 M142.013,170.921
	c-0.349,0.906-0.889,2.295-1.779,3.924c-0.509,0.818-0.956,1.762-1.625,2.672c-0.602,0.946-1.276,1.978-2.141,2.987
	c-0.407,0.5-0.858,1.034-1.27,1.604c-0.479,0.501-0.988,1.035-1.466,1.567c-0.509,0.534-1.056,1.13-1.593,1.639
	c-0.608,0.531-1.21,1.063-1.815,1.604c-1.214,1.128-2.614,2.072-4.049,3.107c-1.404,1.13-3.029,1.948-4.649,2.889
	c-1.595,1.043-3.441,1.698-5.231,2.574c-1.748,0.913-3.724,1.414-5.669,2.106c-1.942,0.724-3.985,1.135-6.047,1.636
	c-1.03,0.253-2.078,0.505-3.129,0.726c-1.053,0.152-2.138,0.283-3.221,0.434c-4.391,0.726-8.597,0.76-12.866,0.977
	c-2.238-0.091-4.436-0.188-6.631-0.284c-2.17-0.028-4.335-0.372-6.469-0.655c-1.055-0.13-2.135-0.255-3.185-0.379
	c-1.054-0.222-2.108-0.472-3.126-0.691c-2.068-0.507-4.104-0.85-6.053-1.541c-3.987-1.128-7.644-2.703-10.992-4.429
	c-3.344-1.729-6.337-3.676-8.888-5.751c-1.244-1.035-2.49-2.012-3.508-3.11c-0.509-0.501-1.019-1.006-1.528-1.503
	c-0.447-0.535-0.895-1.041-1.337-1.538c-0.417-0.508-0.859-0.979-1.209-1.482c-0.385-0.47-0.704-0.975-1.054-1.446
	c-0.674-0.875-1.213-1.79-1.687-2.608c-0.993-1.57-1.595-2.916-1.98-3.829c-0.216-0.63-0.38-1.037-0.442-1.26
	c0.288,0.539,1.307,2.265,3.184,4.586c0.57,0.693,1.208,1.51,2.005,2.295c0.386,0.403,0.767,0.816,1.183,1.226
	c0.381,0.441,0.859,0.852,1.337,1.289c0.447,0.44,0.921,0.88,1.43,1.319c0.514,0.438,1.084,0.848,1.625,1.284
	c0.575,0.411,1.121,0.946,1.722,1.353c0.638,0.41,1.245,0.852,1.915,1.29c1.212,0.91,2.673,1.637,4.141,2.481
	c0.348,0.193,0.73,0.412,1.083,0.596c0.381,0.224,0.798,0.377,1.179,0.567c0.796,0.378,1.558,0.721,2.391,1.101
	c3.251,1.413,6.783,2.639,10.575,3.613c1.852,0.599,3.827,0.846,5.771,1.229c0.987,0.186,1.975,0.401,2.993,0.532
	c0.987,0.125,2.005,0.221,3.029,0.342c2.031,0.192,4.078,0.535,6.152,0.535c2.062,0.061,4.108,0.13,6.176,0.191
	c2.141-0.099,4.271-0.159,6.367-0.224c2.208,0,4.147-0.374,6.158-0.561c1.023-0.128,2.011-0.258,2.994-0.348
	c0.993-0.222,1.974-0.409,2.967-0.6c1.969-0.371,3.916-0.688,5.762-1.319c1.855-0.563,3.733-1.003,5.415-1.726
	c1.723-0.693,3.508-1.229,5.066-2.071c1.566-0.82,3.159-1.511,4.558-2.424c1.441-0.849,2.839-1.664,4.084-2.61
	c0.605-0.468,1.202-0.909,1.809-1.345c0.614-0.475,1.122-0.946,1.694-1.384c0.508-0.474,1.048-0.943,1.558-1.353
	c0.483-0.507,0.958-0.946,1.409-1.385c0.92-0.876,1.652-1.822,2.417-2.635c0.734-0.789,1.307-1.639,1.878-2.358
	c1.083-1.474,1.881-2.703,2.392-3.552c0.416-0.751,0.639-1.192,0.669-1.318C142.463,169.602,142.31,170.072,142.013,170.921"/>
<path fill="#FFFFFF" d="M36.816,41.357c0.319,1.003,0.659,2.065,1.059,3.146l-3.43,5.052l-0.447,0.666
	c-4.495,0.526-8.672-3.239-9.292-8.402c-0.634-5.165,2.54-9.785,7.034-10.311c0.099-0.013,0.181-0.013,0.274-0.013l0.729,2.671
	c0,0,0.432,0.061,1.384,0.71c0.623,0.431,1.11,1.542,1.691,3.321C36.106,39.087,36.425,40.135,36.816,41.357"/>
<path fill="#FFFFFF" d="M40.982,39.913l-0.268,0.397c0-0.097-0.016-0.189-0.03-0.27c-0.104-0.72-0.196-1.543-0.247-2.417
	C40.714,38.338,40.89,39.119,40.982,39.913"/>
<path fill="#FFFFFF" d="M129.813,34.527v-0.03c-0.128-1.353-0.477-2.51-1.312-3.047c-1.878-1.319-8.404-2.292-17.076-1.225
	c-8.63,1.065-14.401,2.982-14.401,2.982S94,34.527,93.773,37.326c-0.221,2.795,1.124,8.167,3.252,10.903
	c2.099,2.731,4.942,5.873,12.808,5.873c7.87,0,13.069-1.381,15.615-3.268c1.944-1.411,3.036-5.342,3.636-8.325
	c0.19-0.944,0.313-1.793,0.411-2.449C129.686,38.522,129.973,36.348,129.813,34.527 M106.046,45.872
	c-1.697,0-3.034-1.356-3.034-2.983c0-1.666,1.337-2.988,3.034-2.988c1.656,0,3.024,1.322,3.024,2.988
	C109.071,44.516,107.702,45.872,106.046,45.872 M134.151,38.963c-0.802,2.603-1.693,5.651-2.109,6.941
	c-0.095,0.25-0.155,0.438-0.186,0.535c-0.453,1.004-1.153,3.861-3.122,5.683c-1.18,1.038-3.127,2.421-6.506,3.487
	c3.508,0.695,6.088,2.261,7.652,4.742c1.363,2.207,1.909,5,1.651,8.394c2.455-5.844,3.791-12.286,3.791-19.008v-0.032
	C135.322,45.997,134.911,42.414,134.151,38.963 M84.886,0C65.702,0,49.038,10.558,40.499,26.077
	c5.797-0.156,14.34-0.096,22.02,1.039c13.347,1.944,20.328,4.302,22.142,4.302c1.821,0,17.909-4.083,28.483-4.932
	c5.581-0.47,11.409-0.819,15.812-0.976C120.354,10.275,103.845,0,84.886,0 M91.799,46.154c-3.44-6.692-3.343-8.391-6.913-8.262
	c-3.57,0.157-2.993,0.157-4.397,2.887c-1.373,2.705-5.066,11.974-11.249,14.486c-1.594,0.629-2.932,1.1-4.079,1.382
	c7.905,0.753,8.255,0.944,10.775,2.642c0.633,0.409,1.394,0.939,2.546,1.633c0,0,0.57,0.318,1.527,0.598
	c0.926,0.281,2.232,0.595,3.723,0.595c3.067,0,5.294-1.192,5.294-1.225c5.483-3.27,7.163-3.451,15.394-4.276
	c0.221-0.025,0.472-0.059,0.73-0.09C99.005,54.953,94.289,50.961,91.799,46.154 M75.773,37.108c-0.191-2.798-2.901-3.9-2.901-3.9
	s-5.767-1.917-14.432-3.016c-8.667-1.067-14.689,0.159-16.572,1.444c-1.399,0.943-1.558,3.585-1.429,5.971v0.032
	c0.061,0.845,0.154,1.697,0.257,2.386c0,0.096,0.03,0.19,0.03,0.285c0.443,2.793,2.135,8.701,4.619,10.524
	c2.547,1.887,6.846,3.268,14.721,3.268c7.87,0,10.708-3.142,12.807-5.873C74.97,45.493,75.994,39.9,75.773,37.108 M60.959,45.872
	c-1.693,0-3.03-1.356-3.03-2.983c0-1.666,1.337-2.988,3.03-2.988c1.656,0,3.024,1.322,3.024,2.988
	C63.983,44.516,62.615,45.872,60.959,45.872 M42.86,52.972c-2.454-2.45-3.925-5.56-4.974-8.479
	c-0.411-1.072-0.761-2.143-1.085-3.148c-0.375-1.223-0.699-2.26-0.983-3.141c-0.895,3.618-1.341,7.447-1.373,11.345v0.189
	c0,5.216,0.829,10.243,2.325,15.017c0.16-1.697,0.607-3.141,1.343-4.402c1.656-2.853,4.778-4.488,9.298-4.896
	C45.56,54.824,43.873,54.012,42.86,52.972"/>
<path fill="#FFFFFF" d="M127.554,64.596c-1.5-2.357-3.953-3.863-7.271-4.492c-1.172-0.219-2.479-0.344-3.888-0.344
	c-1.215,0-2.516,0.093-3.91,0.249c-3.415,0.442-6.162,0.724-8.382,0.945c-0.258,0.028-0.485,0.064-0.707,0.091
	C95.625,61.834,94,62.02,88.835,65.104c-0.03,0.027-2.132,1.162-5.029,1.162c-1.44,0-2.68-0.313-3.57-0.569
	c-0.864-0.285-1.404-0.565-1.404-0.565c-1.116-0.658-1.816-1.161-2.422-1.54c-2.392-1.633-2.746-1.79-10.229-2.513
	c-0.669-0.06-1.467-0.124-2.258-0.188c-2.33-0.217-5.226-0.501-8.862-0.881c-1.239-0.124-2.387-0.186-3.441-0.186
	c-0.792,0-1.528,0.029-2.232,0.123c-4.3,0.379-7.263,1.949-8.853,4.649c-0.705,1.193-1.117,2.548-1.244,4.149
	c6.115,19.074,24.209,32.894,45.596,32.894c19.945,0,37.023-11.998,44.197-29.091C129.336,69.34,128.832,66.701,127.554,64.596
	 M84.537,81.689c-6.219,0-11.254-3.897-11.254-8.734h22.436C95.718,77.792,90.718,81.689,84.537,81.689"/>
<path fill="#FFFFFF" d="M127.554,64.596c-1.5-2.357-3.953-3.863-7.271-4.492c-1.177-0.219-2.479-0.344-3.888-0.344
	c-1.215,0-2.516,0.093-3.91,0.249c-3.415,0.442-6.162,0.724-8.382,0.945c-0.258,0.028-0.485,0.064-0.707,0.091
	C95.625,61.834,94,62.02,88.835,65.104c-0.03,0.027-2.132,1.162-5.029,1.162c-1.44,0-2.68-0.316-3.57-0.566
	c-0.864-0.288-1.404-0.568-1.404-0.568c-1.116-0.658-1.816-1.161-2.422-1.538c-2.392-1.633-2.746-1.79-10.229-2.515
	c-0.669-0.06-1.467-0.124-2.258-0.188c-2.33-0.217-5.226-0.501-8.862-0.881c-1.239-0.124-2.392-0.186-3.441-0.186
	c-0.792,0-1.528,0.029-2.232,0.123c-4.3,0.379-7.263,1.949-8.853,4.649c-0.705,1.193-1.117,2.548-1.244,4.149
	c-0.289,3.456,0.699,7.854,3.024,13.194c1.208,2.799,2.772,5.818,4.685,9.113c0.32,0.566,0.823,1.287,1.4,2.166
	c2.839,4.117,8.095,11.785,8.059,23.377c-0.024,4.021,2.526,8.014,5.489,12.632c3.214,5.056,6.851,10.778,8.249,18.066
	c1.019,5.435,5.319,8.229,8.765,10.491c4.171,2.7,5.03,3.678,3.724,5.813c-0.827,1.29-1.183,2.17-0.73,2.956
	c0.226,0.405,0.828,0.723,1.271,0.723c1.311,0,3.605-1.823,12.811-10.278c2.006-1.818,3.889-3.516,5.135-4.613
	c4.68-4.062,5.605-8.168,6.433-11.816c0.16-0.722,0.314-1.447,0.509-2.164c0.7-2.548,0.511-4.905,0.351-7.168
	c-0.379-4.49-0.762-9.144,5.391-16.962c6.079-7.669,6.655-12.131,7.195-16.469c0.386-2.641,0.699-5.122,2.329-8.325
	c1.462-2.827,2.608-5.434,3.51-7.887c1.239-3.394,2.004-6.406,2.195-9.046C129.336,69.34,128.832,66.701,127.554,64.596
	 M95.718,72.955c0,4.838-5,8.734-11.182,8.734c-6.219,0-11.254-3.896-11.254-8.734H95.718z"/>
<path fill="#FFFFFF" d="M133.299,41.943c-0.318,1.002-0.659,2.065-1.06,3.145l3.43,5.05l0.45,0.667
	c4.494,0.527,8.671-3.238,9.292-8.4c0.634-5.164-2.541-9.785-7.035-10.312c-0.098-0.013-0.179-0.013-0.273-0.013l-0.729,2.669
	c0,0-0.434,0.062-1.385,0.713c-0.623,0.43-1.111,1.541-1.693,3.321C134.008,39.673,133.689,40.719,133.299,41.943"/>
</svg>
