<?xml version="1.0" encoding="utf-8"?>
<!-- Generator: Adobe Illustrator 17.1.0, SVG Export Plug-In . SVG Version: 6.00 Build 0)  -->
<!DOCTYPE svg PUBLIC "-//W3C//DTD SVG 1.1//EN" "http://www.w3.org/Graphics/SVG/1.1/DTD/svg11.dtd">
<svg version="1.1" id="Layer_1" xmlns="http://www.w3.org/2000/svg" xmlns:xlink="http://www.w3.org/1999/xlink" x="0px" y="0px"
	 viewBox="0 0 150 203.1" enable-background="new 0 0 150 203.1" xml:space="preserve">
<path fill="#F3F1F2" d="M102.8,23.7c0.1,1.1,0,2.5-0.1,3.5c0,0.4-0.1,1-0.2,1.6l-1-1.1C101.5,26.1,102,24.8,102.8,23.7z"/>
<path fill="#F3F1F2" d="M111.7,27.7c0,3.3-2.3,5.9-5.1,5.9l-0.3-0.3l-1.9-2.2c0.2-0.7,0.8-2.5,1.2-4.2c0.4-1.4,0.8-2.7,1-3
	c0.4-0.7,1.1-0.8,1.1-0.8s0.1-0.4,0.3-1.1C110.1,22.7,111.7,25,111.7,27.7z"/>
<path fill="#F3F1F2" d="M75,168c-25.2,0-44.9-6.2-58.3-18.4l-0.5-0.5l-0.7-0.1C7.9,148.4,2,141.9,2,134.2c0-8.1,8-15,14.5-15
	c2.4,0,4.9,0.3,7.5,0.8c3,6.9,7.5,13.3,13,18.4c1.3,1.7,8.4,8.4,37.9,8.4c29.4,0,36.2-6.2,37.6-8.1c5.6-5.2,10.2-11.6,13.3-18.7
	c2.7-0.6,5.1-0.8,7.5-0.8c6.5,0,14.5,6.9,14.5,15c0,7.7-5.9,14.3-13.4,14.9l-0.7,0.1l-0.5,0.5C119.9,161.8,100.2,168,75,168L75,168z
	"/>
<path fill="#F3F1F2" d="M103.9,54.2c-0.4,1-0.9,2-1.4,3c-0.9,1.8-1.1,3.2-1.3,4.9c-0.4,3.1-0.9,6.5-5.3,12.2c-3.5,4.5-3.3,7-3.1,9.9
	c0.1,1.7,0.3,3.5-0.3,5.6c-0.1,0.4-0.2,0.9-0.3,1.4c-0.6,2.6-1.4,5.9-5,9.1c-0.9,0.8-2.3,2.1-3.4,3.1c-6.9,6.4-8.2,7.5-10,7.5
	c-1.1,0-2.3-0.6-2.8-1.6c-0.9-1.6-0.1-3.1,0.4-4c-0.3-0.3-0.8-0.7-1.6-1.2c-2.5-1.7-6-3.9-6.8-8.5c-0.8-4.5-3.2-8.1-5.2-11.4
	c-2.1-3.2-4-6.3-4-9.7c0-7.1-3.1-11.7-5-14.5c-0.4-0.6-0.7-1.1-1-1.6c-0.8-1.4-1.5-2.7-2.1-4c-14.7,9.8-23.4,26-23.4,43.8
	c0,14.6,6.1,28.7,16.8,38.6l0.2,0.2l0.2,0.3c0.1,0.1,5.4,6.8,35.5,6.8c28.6,0,34.6-6,35.2-6.6l0.1-0.2l0.3-0.3
	c10.9-10,17.1-24.2,17.1-38.9C127.7,80.4,118.7,63.8,103.9,54.2z M110.3,109.6c-0.2,0.6-0.6,1.4-1.1,2.5c-0.3,0.5-0.6,1.1-1,1.7
	c-0.4,0.6-0.8,1.2-1.3,1.9c-0.3,0.3-0.5,0.7-0.8,1c-0.3,0.3-0.6,0.7-0.9,1s-0.6,0.7-1,1c-0.4,0.3-0.7,0.7-1.1,1
	c-0.7,0.7-1.6,1.3-2.5,2c-0.9,0.7-1.9,1.2-2.9,1.8s-2.1,1.1-3.2,1.6c-1.1,0.6-2.3,0.9-3.5,1.3c-1.2,0.5-2.5,0.7-3.8,1
	c-0.6,0.2-1.3,0.3-1.9,0.5c-0.7,0.1-1.3,0.2-2,0.3c-2.7,0.5-5.3,0.5-8,0.6c-1.4-0.1-2.7-0.1-4.1-0.2c-1.4,0-2.7-0.2-4-0.4
	c-0.7-0.1-1.3-0.2-2-0.3c-0.7-0.1-1.3-0.3-1.9-0.4c-1.3-0.3-2.6-0.5-3.8-1c-2.5-0.7-4.7-1.7-6.8-2.8c-2.1-1.1-3.9-2.3-5.5-3.6
	c-0.8-0.7-1.5-1.3-2.2-1.9c-0.3-0.3-0.6-0.7-1-1c-0.3-0.3-0.6-0.7-0.8-1c-0.3-0.3-0.5-0.6-0.8-0.9l-0.6-0.9
	c-0.4-0.6-0.7-1.1-1.1-1.6c-0.6-1-1-1.9-1.2-2.4c-0.2-0.6-0.3-0.9-0.3-1c0.1,0.1,0.7,1.3,2,3c0.4,0.4,0.8,0.9,1.2,1.4
	c0.2,0.3,0.5,0.5,0.7,0.8l0.8,0.8c0.3,0.3,0.6,0.6,0.9,0.8c0.3,0.3,0.7,0.5,1,0.8c0.4,0.3,0.7,0.6,1.1,0.8c0.4,0.3,0.8,0.5,1.2,0.8
	c0.8,0.6,1.7,1,2.6,1.6c0.2,0.1,0.5,0.3,0.7,0.4c0.2,0.1,0.5,0.2,0.7,0.3c0.5,0.2,1,0.5,1.5,0.7c2,0.9,4.2,1.7,6.6,2.3
	c1.1,0.4,2.4,0.5,3.6,0.8c0.6,0.1,1.2,0.2,1.8,0.3c0.6,0.1,1.3,0.1,1.9,0.2c1.3,0.1,2.5,0.3,3.8,0.3s2.5,0.1,3.8,0.1
	c1.3,0,2.6-0.1,4-0.1c1.3,0,2.6-0.2,3.8-0.4c0.6-0.1,1.2-0.1,1.9-0.2c0.6-0.1,1.2-0.2,1.8-0.4c1.2-0.2,2.4-0.4,3.6-0.8
	c1.1-0.4,2.3-0.6,3.4-1.1c1.1-0.4,2.2-0.8,3.1-1.3c1-0.5,2-0.9,2.8-1.5c0.9-0.5,1.8-1,2.5-1.6c0.4-0.3,0.8-0.6,1.1-0.8
	c0.4-0.3,0.7-0.6,1-0.9c0.3-0.3,0.7-0.6,1-0.8c0.3-0.3,0.6-0.6,0.9-0.9c0.6-0.5,1-1.1,1.5-1.6s0.8-1,1.2-1.5
	C109.4,110.8,109.9,110,110.3,109.6c0.1-0.5,0.2-0.7,0.3-0.8C110.5,108.9,110.5,109.2,110.3,109.6z"/>
<path fill="#F3F1F2" d="M45.4,28.1c0.2,0.5,0.3,1.1,0.5,1.7l-2.2,3.4l-0.3,0.5c-2.8,0.3-5.4-2-5.8-5.3c-0.4-3.3,1.6-6.2,4.4-6.5
	c0.1,0,0.2,0,0.3,0l0.5,1.7c0,0,0.3,0,0.9,0.5c0.4,0.2,0.6,0.8,0.9,1.7C44.8,26.4,45.1,27.2,45.4,28.1z"/>
<path fill="#F3F1F2" d="M47.7,27.1l-0.2,0.2c0-0.1,0-0.2,0-0.2c0-0.5-0.1-1-0.2-1.6C47.5,26,47.7,26.5,47.7,27.1z"/>
<path fill="#F3F1F2" d="M49.1,35.4c0.7,0.7,1.7,1.2,2.9,1.6c-0.1,0-0.2,0-0.3,0c-1.4,0-2.6,0.3-3.5,0.9c-1,0.5-1.7,1.2-2.2,2.1
	c-0.5,0.8-0.7,1.7-0.8,2.7c-0.9-3-1.5-6.2-1.5-9.4v-0.2c0-2.5,0.3-5,0.9-7.4c0.2,0.6,0.5,1.4,0.8,2.4c0.2,0.5,0.3,1.1,0.5,1.7
	C46.6,31.7,47.6,33.8,49.1,35.4z"/>
<path fill="#F3F1F2" d="M69.2,25.2c-0.1-1.7-1.8-2.4-1.8-2.4s-3.5-1.2-8.9-1.9c-5.4-0.7-9.1,0.1-10.3,0.9c-0.9,0.6-1,2.2-0.9,3.7
	c0,0,0,0,0,0c0,0.6,0.1,1.2,0.2,1.6c0,0.1,0,0.2,0,0.2c0.3,1.8,1.3,5.4,2.9,6.6c1.6,1.2,4.2,2.1,9.1,2.1s6.7-2,8-3.7
	S69.5,27.1,69.2,25.2z M60.1,30.9c-1.1,0-1.8-0.9-1.8-1.9s0.8-1.9,1.8-1.9S62,27.9,62,29S61.2,30.9,60.1,30.9z"/>
<path fill="#F3F1F2" d="M87.5,37.6c-0.2,0-0.3,0-0.4,0.1c-5.1,0.5-6.2,0.6-9.5,2.7c0,0-1.4,0.8-3.3,0.8c-0.9,0-1.7-0.2-2.3-0.4
	s-0.9-0.4-0.9-0.4c-0.7-0.4-1.2-0.8-1.6-1c-1.6-1.1-1.8-1.2-6.7-1.7c0.7-0.2,1.6-0.5,2.6-0.9c3.8-1.6,6.1-7.4,7-9.1
	c0.9-1.7,0.5-1.7,2.7-1.8c2.2-0.1,2.2,1,4.3,5.2C80.9,34.1,83.8,36.6,87.5,37.6z"/>
<path fill="#F3F1F2" d="M47.4,18.4C52.7,8.6,63.1,2,75,2c11.8,0,22,6.5,27.3,16c-2.7,0.1-6.4,0.3-9.8,0.6C86,19.2,76,21.8,74.9,21.8
	c-1.1,0-5.5-1.5-13.7-2.7C56.3,18.4,51,18.3,47.4,18.4z"/>
<path fill="#F3F1F2" d="M102.8,23.7c-0.1-0.8-0.3-1.6-0.8-1.9c-1.2-0.8-5.2-1.5-10.6-0.8s-9,1.9-9,1.9s-1.9,0.8-2,2.6s0.7,5.2,2,6.9
	c1.4,1.7,3.1,3.7,8,3.7s8.1-0.9,9.7-2.1c1.2-0.9,1.9-3.3,2.2-5.2c0.1-0.6,0.2-1.2,0.2-1.6C102.8,26.2,103,24.8,102.8,23.7z
	 M88.1,30.9c-1.1,0-1.9-0.9-1.9-1.9s0.9-1.9,1.9-1.9S90,27.9,90,29S89.2,30.9,88.1,30.9z"/>
<path fill="#F3F1F2" d="M106.3,33.2L106.3,33.2c0,4.2-0.8,8.3-2.4,12c0.2-2.1-0.2-3.9-1-5.3c-1-1.5-2.5-2.5-4.5-2.9
	c2-0.7,3.2-1.5,4-2.2c1.2-1.1,1.7-2.9,1.9-3.6c0,0,0.1-0.1,0.1-0.2c0.2-0.7,0.8-2.5,1.2-4.2C106.1,28.9,106.3,31.1,106.3,33.2z"/>
<path fill="#F3F1F2" d="M101.2,42.5c-0.9-1.5-2.4-2.4-4.5-2.8c-0.7-0.1-1.5-0.2-2.4-0.2c-0.7,0-1.5,0.1-2.4,0.2
	c-2.1,0.3-3.8,0.5-5.2,0.6h-0.4c-4.8,0.5-5.8,0.7-9,2.6c0,0-1.3,0.7-3.1,0.7c-0.9,0-1.7-0.2-2.2-0.4c-0.6-0.2-0.9-0.4-0.9-0.4
	c-0.7-0.4-1.1-0.8-1.5-1c-1.4-1.1-1.6-1.2-6.3-1.6c-0.4,0-0.9-0.1-1.4-0.1c-1.5-0.1-3.3-0.3-5.5-0.5c-0.7-0.1-1.4-0.1-2.1-0.1
	c-0.5,0-1,0.1-1.4,0.1c-2.7,0.2-4.5,1.2-5.5,2.9c-0.5,0.7-0.7,1.6-0.8,2.6c-0.2,2.2,0.5,4.9,1.9,8.3c0.7,1.7,1.7,3.6,2.9,5.7
	c0.2,0.4,0.5,0.9,0.9,1.4c1.8,2.6,5,7.4,5,14.7c0,2.6,1.6,5.1,3.4,8c2,3.2,4.2,6.8,5.1,11.4c0.7,3.4,3.4,5.2,5.5,6.6
	c2.6,1.8,3.1,2.4,2.3,3.7c-0.6,0.9-0.8,1.4-0.5,1.9c0.1,0.3,0.5,0.5,0.8,0.5c0.8,0,2.2-1.2,7.9-6.5c1.3-1.1,2.4-2.2,3.2-2.9
	c2.9-2.5,3.5-5.1,4-7.4c0.1-0.5,0.2-1,0.3-1.4c0.4-1.6,0.3-3.1,0.2-4.5c-0.2-2.9-0.4-5.8,3.4-10.7c3.8-4.9,4.1-7.7,4.5-10.4
	c0.2-1.6,0.4-3.2,1.4-5.2c0.9-1.8,1.6-3.5,2.2-5c0.8-2.1,1.3-4,1.4-5.7C102.6,45.6,102.3,44,101.2,42.5z M74.7,53.4
	c-3.8,0-7-2.5-7-5.5h14C81.7,50.9,78.6,53.4,74.7,53.4z"/>
<text transform="matrix(1 0 0 1 56.1194 195.7135)" fill="#F3F1F2" font-family="'Pacifico'" font-size="21.153">beta</text>
</svg>
