<?xml version="1.0" encoding="utf-8"?>
<!-- Generator: Adobe Illustrator 15.1.0, SVG Export Plug-In . SVG Version: 6.00 Build 0)  -->
<!DOCTYPE svg PUBLIC "-//W3C//DTD SVG 1.1//EN" "http://www.w3.org/Graphics/SVG/1.1/DTD/svg11.dtd">
<svg version="1.1" id="Layer_1" xmlns="http://www.w3.org/2000/svg" xmlns:xlink="http://www.w3.org/1999/xlink" x="0px" y="0px"
	 width="829.2px" height="928.597px" viewBox="0 0 829.2 928.597" enable-background="new 0 0 829.2 928.597" xml:space="preserve">
<path fill="#FFFFFF" d="M563.896,121.823c0.549,6.043,0,14.009-0.549,19.594c0,2.198-0.549,5.586-1.099,8.974l-5.585-6.043
	C556.663,135.283,559.501,127.958,563.896,121.823z"/>
<path fill="#FFFFFF" d="M613.707,144.256c0,18.404-12.819,33.055-28.568,33.055l-1.648-1.648l-10.622-12.27
	c1.099-3.937,4.487-14.009,6.685-23.44c2.197-7.783,4.486-15.108,5.585-16.756c2.197-3.938,6.043-4.486,6.043-4.486
	s0.55-2.198,1.648-6.043C604.643,116.237,613.707,129.057,613.707,144.256z"/>
<path fill="#FFFFFF" d="M408.603,928.597c-140.918,0-251.07-34.703-325.878-102.827l-2.839-2.839l-3.937-0.549
	C33.555,818.995,0.5,782.644,0.5,739.7c0-45.324,44.684-83.964,81.034-83.964c13.46,0,27.469,1.648,41.937,4.487
	c16.756,38.64,41.937,74.35,72.61,102.827c7.234,9.522,46.973,46.973,211.88,46.973c164.267,0,202.357-34.703,210.232-45.325
	c31.315-29.117,56.953-64.919,74.35-104.566c15.108-3.388,28.568-4.486,41.937-4.486c36.351,0,81.034,38.64,81.034,83.964
	c0,42.944-33.055,79.936-74.991,83.232l-3.937,0.549l-2.839,2.839C659.581,893.894,549.429,928.597,408.603,928.597L408.603,928.597
	z"/>
<path fill="#FFFFFF" d="M570.123,292.316c-2.198,5.585-5.036,11.171-7.783,16.756c-5.036,10.072-6.044,17.947-7.234,27.469
	c-2.198,17.306-5.036,36.351-29.667,68.307c-19.595,25.088-18.404,39.098-17.306,55.305c0.55,9.522,1.648,19.595-1.647,31.315
	c-0.55,2.197-1.099,5.036-1.648,7.783c-3.388,14.559-7.783,33.055-28.019,50.91c-5.036,4.486-12.819,11.72-19.045,17.306
	c-38.64,35.71-45.874,41.937-55.945,41.937c-6.043,0-12.819-3.388-15.658-8.974c-5.036-8.973-0.549-17.306,2.197-22.342
	c-1.648-1.648-4.486-3.937-8.973-6.684c-14.01-9.523-33.604-21.701-38.091-47.522c-4.487-25.088-17.946-45.324-29.117-63.729
	c-11.721-17.947-22.342-35.253-22.342-54.298c0-39.739-17.305-65.377-28.019-81.035c-2.197-3.388-3.937-6.043-5.585-8.973
	c-4.487-7.783-8.424-15.108-11.72-22.342c-81.858,54.755-130.387,145.313-130.387,244.751c0,81.584,34.062,160.421,93.945,215.818
	l1.099,1.099l1.099,1.648c0.55,0.549,30.216,38.091,198.42,38.091c159.963,0,193.384-33.604,196.771-36.9l0.55-1.099l1.648-1.648
	c60.981-55.946,95.593-135.332,95.593-217.465C703.074,438.819,652.805,346.064,570.123,292.316z M605.924,601.987
	c-1.098,3.388-3.387,7.783-6.043,14.009c-1.648,2.838-3.388,6.043-5.585,9.523c-2.198,3.388-4.486,6.684-7.233,10.622
	c-1.648,1.648-2.839,3.937-4.487,5.585c-1.648,1.648-3.388,3.937-5.036,5.585c-1.648,1.648-3.388,3.938-5.585,5.586
	c-2.198,1.647-3.938,3.937-6.044,5.585c-3.937,3.938-8.973,7.234-14.009,11.171c-5.036,3.938-10.622,6.684-16.208,10.072
	c-5.585,3.388-11.72,6.043-17.946,8.973c-6.043,3.388-12.819,5.036-19.595,7.234c-6.685,2.838-14.009,3.937-21.243,5.585
	c-3.388,1.099-7.234,1.648-10.622,2.839c-3.937,0.549-7.233,1.099-11.17,1.648c-15.108,2.838-29.667,2.838-44.684,3.388
	c-7.783-0.549-15.108-0.549-22.983-1.099c-7.783,0-15.108-1.099-22.341-2.197c-3.938-0.55-7.234-1.099-11.171-1.648
	s-7.234-1.648-10.622-2.198c-7.233-1.648-14.559-2.838-21.243-5.585c-14.009-3.938-26.279-9.523-38.091-15.658
	c-11.72-6.043-21.701-12.819-30.674-20.053c-4.486-3.937-8.423-7.233-12.27-10.622c-1.648-1.647-3.388-3.937-5.585-5.585
	c-1.648-1.648-3.388-3.938-4.486-5.585c-1.648-1.648-2.839-3.388-4.487-5.036l-3.388-5.036c-2.197-3.388-3.938-6.043-6.043-8.973
	c-3.388-5.585-5.585-10.622-6.684-13.46c-1.099-3.388-1.648-5.036-1.648-5.586c0.549,0.55,3.938,7.234,11.17,16.757
	c2.198,2.197,4.487,5.036,6.685,7.783c1.099,1.648,2.839,2.839,3.938,4.487l4.486,4.487c1.648,1.648,3.388,3.388,5.036,4.486
	c1.648,1.648,3.938,2.839,5.585,4.487c2.198,1.648,3.938,3.388,6.043,4.487c2.198,1.648,4.487,2.838,6.684,4.487
	c4.487,3.388,9.522,5.585,14.559,8.973c1.099,0.55,2.838,1.648,3.938,2.198c1.099,0.549,2.838,1.099,3.938,1.648
	c2.838,1.099,5.585,2.838,8.424,3.937c11.171,5.036,23.44,9.523,36.9,12.819c6.043,2.198,13.46,2.838,20.053,4.487
	c3.388,0.549,6.684,1.099,10.072,1.648c3.388,0.549,7.233,0.549,10.621,1.099c7.234,0.549,14.009,1.648,21.243,1.648
	c7.233,0,14.009,0.549,21.243,0.549s14.559-0.549,22.342-0.549c7.234,0,14.559-1.099,21.243-2.198
	c3.388-0.549,6.684-0.549,10.622-1.099c3.388-0.55,6.685-1.099,10.072-2.198c6.684-1.099,13.46-2.198,20.052-4.487
	c6.043-2.197,12.819-3.388,19.046-6.043c6.043-2.198,12.27-4.487,17.306-7.234c5.585-2.838,11.171-5.036,15.657-8.424
	c5.036-2.838,10.072-5.585,14.009-8.974c2.198-1.647,4.487-3.388,6.043-4.486c2.198-1.648,3.938-3.388,5.585-5.036
	c1.648-1.648,3.938-3.388,5.585-4.486c1.648-1.648,3.388-3.388,5.036-5.036c3.388-2.838,5.585-6.043,8.424-8.974
	c2.838-2.838,4.487-5.585,6.684-8.424C600.888,608.762,603.635,604.276,605.924,601.987c0.55-2.838,1.099-3.937,1.648-4.486
	C607.023,598.233,607.023,599.881,605.924,601.987z"/>
<path fill="#FFFFFF" d="M243.055,146.362c1.098,2.838,1.648,6.043,2.838,9.522l-12.27,19.045l-1.648,2.839
	c-15.657,1.648-30.216-11.171-32.322-29.667c-2.198-18.405,8.973-34.703,24.63-36.351c0.55,0,1.099,0,1.648,0l2.839,9.522
	c0,0,1.647,0,5.036,2.839c2.198,1.099,3.388,4.486,5.036,9.522C239.666,136.931,241.406,141.326,243.055,146.362z"/>
<path fill="#FFFFFF" d="M255.874,140.869l-1.099,1.099c0-0.55,0-1.099,0-1.099c0-2.839-0.549-5.586-1.099-8.974
	C254.774,134.733,255.874,137.48,255.874,140.869z"/>
<path fill="#FFFFFF" d="M263.748,187.2c3.938,3.938,9.523,6.685,16.208,8.974c-0.55,0-1.099,0-1.648,0
	c-7.783,0-14.559,1.648-19.595,5.036c-5.585,2.838-9.522,6.684-12.27,11.72c-2.838,4.486-3.938,9.522-4.486,15.108
	c-5.036-16.756-8.424-34.703-8.424-52.558v-1.099c0-14.009,1.648-28.019,5.036-41.387c1.099,3.388,2.839,7.783,4.487,13.46
	c1.099,2.839,1.648,6.043,2.838,9.523C249.738,166.598,255.324,178.227,263.748,187.2z"/>
<path fill="#FFFFFF" d="M376.098,130.247c-0.55-9.523-10.072-13.46-10.072-13.46s-19.595-6.685-49.72-10.622
	c-30.216-3.938-50.91,0.549-57.594,5.036c-5.036,3.388-5.585,12.27-5.036,20.693l0,0c0,3.388,0.549,6.684,1.099,8.974
	c0,0.549,0,1.099,0,1.099c1.648,10.072,7.234,30.216,16.207,36.9s23.44,11.72,50.91,11.72c27.377,0,37.358-11.171,44.683-20.693
	C373.899,160.372,377.837,140.869,376.098,130.247z M325.279,162.02c-6.043,0-10.072-5.036-10.072-10.622
	c0-5.585,4.486-10.621,10.072-10.621c5.585,0,10.621,4.486,10.621,10.621C335.9,157.533,331.322,162.02,325.279,162.02z"/>
<path fill="#FFFFFF" d="M478.466,199.561c-1.098,0-1.648,0-2.198,0.55c-28.568,2.838-34.703,3.388-53.016,15.108
	c0,0-7.783,4.486-18.404,4.486c-5.036,0-9.523-1.099-12.819-2.197c-3.388-1.099-5.036-2.197-5.036-2.197
	c-3.938-2.198-6.684-4.487-8.973-5.586c-8.974-6.043-10.072-6.684-37.358-9.522c3.937-1.099,8.973-2.838,14.559-5.036
	c21.243-8.974,34.062-41.388,39.098-50.91c5.036-9.523,2.838-9.523,15.108-10.072s12.27,5.585,24.082,29.118
	C441.475,179.966,457.681,193.884,478.466,199.561z"/>
<path fill="#FFFFFF" d="M254.225,92.156C283.892,37.4,341.944,0.5,408.603,0.5c65.926,0,122.971,36.351,152.637,89.458
	c-15.108,0.549-35.71,1.648-54.755,3.388c-36.352,3.388-92.206,17.947-98.341,17.947c-6.043,0-30.674-8.424-76.639-15.108
	C304.036,92.156,274.37,91.607,254.225,92.156z"/>
<path fill="#FFFFFF" d="M563.896,121.823c-0.549-4.487-1.648-8.974-4.487-10.622c-6.684-4.487-29.118-8.424-59.333-4.487
	c-30.216,3.937-50.36,10.622-50.36,10.622s-10.622,4.487-11.171,14.559c-0.55,9.98,3.937,29.118,11.171,38.64
	c7.783,9.523,17.305,20.694,44.683,20.694c27.469,0,45.325-5.036,54.298-11.721c6.685-5.036,10.621-18.404,12.27-29.117
	c0.55-3.388,1.099-6.685,1.099-8.974C563.896,135.833,565.086,127.958,563.896,121.823z M481.763,162.02
	c-6.043,0-10.621-5.036-10.621-10.622c0-5.585,5.036-10.621,10.621-10.621s10.622,4.486,10.622,10.621
	C492.384,157.533,487.897,162.02,481.763,162.02z"/>
<path fill="#FFFFFF" d="M583.491,174.93L583.491,174.93c0,23.44-4.486,46.332-13.46,67.025c1.099-11.72-1.098-21.701-5.585-29.667
	c-5.585-8.424-14.009-14.009-25.088-16.207c11.171-3.938,17.947-8.424,22.341-12.27c6.685-6.043,9.523-16.207,10.622-20.052
	c0,0,0.549-0.55,0.549-1.099c1.099-3.937,4.487-14.009,6.685-23.44C582.392,150.94,583.491,163.21,583.491,174.93z"/>
<path fill="#FFFFFF" d="M555.014,226.939c-5.036-8.424-13.46-13.46-25.088-15.658c-3.938-0.549-8.424-1.099-13.46-1.099
	c-3.938,0-8.424,0.549-13.46,1.099c-11.72,1.648-21.243,2.839-29.118,3.388h-2.198c-26.828,2.839-32.322,3.938-50.36,14.559
	c0,0-7.233,3.938-17.305,3.938c-5.036,0-9.523-1.099-12.27-2.198c-3.388-1.099-5.036-2.198-5.036-2.198
	c-3.938-2.197-6.043-4.486-8.424-5.585c-7.783-6.043-8.974-6.684-35.252-8.973c-2.198,0-5.037-0.549-7.783-0.549
	c-8.424-0.549-18.405-1.648-30.674-2.839c-3.938-0.549-7.783-0.549-11.72-0.549c-2.838,0-5.585,0.549-7.783,0.549
	c-15.108,1.099-25.088,6.685-30.674,16.208c-2.838,3.937-3.938,8.973-4.487,14.559c-1.099,12.27,2.839,27.469,10.622,46.332
	c3.938,9.522,9.522,20.053,16.207,31.864c1.099,2.198,2.838,5.036,5.036,7.783c10.072,14.559,28.019,41.388,28.019,82.225
	c0,14.559,8.974,28.568,19.045,44.684c11.171,17.947,23.44,38.091,28.568,63.729c3.938,19.045,19.046,29.117,30.674,36.9
	c14.559,10.072,17.306,13.46,12.819,20.693c-3.388,5.036-4.487,7.783-2.838,10.622c0.549,1.648,2.838,2.838,4.487,2.838
	c4.487,0,12.27-6.684,44.134-36.351c7.233-6.043,13.46-12.27,17.947-16.207c16.207-14.009,19.595-28.568,22.342-41.387
	c0.549-2.838,1.099-5.585,1.648-7.783c2.198-8.974,1.648-17.306,1.099-25.089c-1.099-16.207-2.197-32.322,19.046-59.792
	c21.243-27.469,22.982-42.943,25.088-58.143c1.099-8.974,2.198-17.947,7.783-29.118c5.036-10.072,8.973-19.595,12.269-28.019
	c4.487-11.72,7.234-22.341,7.783-31.864C562.797,244.245,561.149,235.363,555.014,226.939z M406.863,287.921
	c-21.243,0-39.098-14.009-39.098-30.674h78.196C445.961,273.912,428.655,287.921,406.863,287.921z"/>
<g>
	<g>
		<g enable-background="new    ">
			<g>
				<polygon fill="#FFFFFF" points="1078.399,1285.028 1079.841,1123.318 1080.462,1124.473 1079.058,1282.315 				"/>
			</g>
			<g>
				<polygon fill="#FFFFFF" points="1080.044,1278.243 1079.058,1282.315 1080.462,1124.473 1081.396,1126.206 				"/>
			</g>
			<g>
				<polygon fill="#C1C1C1" points="1699.96,1112.165 1710.889,1120.783 1097.849,1131.728 1083.728,1123.248 				"/>
			</g>
			<g>
				<polygon fill="#FFFFFF" points="1688.049,1268.737 1695.529,1275.442 1081.32,1284.982 1082.968,1278.198 				"/>
			</g>
			<g>
				<polygon fill="#C1C1C1" points="1074.11,1288.229 1082.293,1284.967 1699.495,1275.379 1701.917,1278.508 				"/>
			</g>
			<g>
				<polygon fill="#C1C1C1" points="1693.008,1269.657 1700.483,1276.361 1081.312,1285.969 1082.959,1279.185 				"/>
			</g>
			<g>
				<path fill="#FFFFFF" d="M1699.913,1278.54l-615.85,9.536l8.508,4.578l613.928-9.462L1699.913,1278.54z M1082.292,1284.967
					l-3.893,0.061l1.593,0.856L1082.292,1284.967z"/>
			</g>
			<g>
				<polygon fill="#C1C1C1" points="1700.483,1276.361 1700.258,1276.364 1701.917,1278.508 1085.191,1288.058 1095.468,1293.59 
					1711.427,1284.106 				"/>
			</g>
			<g>
				<polygon fill="#FFFFFF" points="1688.503,1115.313 1696.001,1112.236 1695.529,1275.442 1688.049,1268.737 				"/>
			</g>
			<g>
				<polygon fill="#C1C1C1" points="1700.952,1111.154 1711.876,1119.777 1711.427,1284.106 1700.483,1276.361 				"/>
			</g>
			<g>
				<polygon fill="#C1C1C1" points="1701.917,1278.508 1699.495,1275.379 1699.96,1112.165 1702.407,1105.107 				"/>
			</g>
			<g>
				<polygon fill="#C1C1C1" points="1693.46,1114.23 1700.952,1111.154 1700.483,1276.361 1693.008,1269.657 				"/>
			</g>
			<g>
				<path fill="#FFFFFF" d="M1701.921,1277.377l-0.004,1.131l-2.003,0.031l6.584,4.652l0.007-2.568L1701.921,1277.377z
					 M1699.495,1275.381l0.456-160.036l-3.95-3.109l-0.472,163.205L1699.495,1275.381z"/>
			</g>
			<g>
				<polygon fill="#C1C1C1" points="1700.307,1111.166 1082.765,1122.282 1084.324,1125.168 1693.46,1114.23 1700.204,1111.461 				
					"/>
			</g>
			<g>
				<polygon fill="#C1C1C1" points="1700.204,1111.461 1702.407,1105.108 1075.647,1116.446 1083.728,1123.248 1698.423,1112.192 
									"/>
			</g>
			<g>
				<polygon fill="#FFFFFF" points="1688.503,1115.313 1688.049,1268.737 1080.044,1278.243 1081.396,1126.206 				"/>
			</g>
			<g>
				<path fill="#C1C1C1" d="M1695.529,1275.442l3.862-0.061l-3.852-3.453L1695.529,1275.442z M1075.647,1116.446l-1.537,171.784
					l8.182-3.263l613.237-9.525l-6.387-5.725l-606.184,9.469l1.365-154.018l606.715-10.894l4.962-2.037l-0.003,0.95l4.954-2.034
					l-0.469,165.208l-0.748-0.671l2.182,2.817l0.49-173.4L1075.647,1116.446z"/>
			</g>
			<g>
				<polygon fill="#FFFFFF" points="1084.325,1125.168 1083.292,1123.256 1082.757,1123.266 1084.315,1126.154 1688.503,1115.313 
					1691.038,1114.273 				"/>
			</g>
			<g>
				<polygon fill="#C1C1C1" points="1082.32,1281.813 1083.721,1124.05 1082.92,1122.568 1075.647,1116.446 1074.11,1288.23 
					1081.476,1285.293 				"/>
			</g>
			<g>
				<path fill="#C1C1C1" d="M1081.317,1285.356l-0.006,0.613l0.164-0.676L1081.317,1285.356z M1082.92,1122.569l-0.155-0.287
					l-0.002,0.155L1082.92,1122.569z M1082.968,1278.197l1.348-152.043l-1.585,0.029l-1.351,152.04L1082.968,1278.197z"/>
			</g>
			<g>
				<polygon fill="#FFFFFF" points="1082.329,1280.827 1082.968,1278.198 1082.353,1278.208 				"/>
			</g>
			<g>
				<path fill="#C1C1C1" d="M1083.701,1126.165l4.741-0.085l-4.715-2.832L1083.701,1126.165z M1096.571,1277.985l-14.219,0.223
					l-0.061,6.76l14.221-0.221L1096.571,1277.985z"/>
			</g>
			<g>
				<polygon fill="#FFFFFF" points="1081.396,1126.206 1079.841,1123.318 1082.757,1123.266 1084.315,1126.154 				"/>
			</g>
		</g>
	</g>
</g>
<g>
	<g>
		<path fill="#FFFFFF" d="M1100.836,531.21c16.717-22.528,30.999-48.306,41.955-76.887c9.28,6.454,18.376,13.429,27.237,20.919
			c9.261,7.83,15.323,16.417,18.129,25.039c2.81,8.636,1.856,16.738-2.698,23.838c-2.313,3.61-5.264,5.845-8.778,6.802
			c-3.521,0.956-7.314,0.407-11.398-1.516c3.402,5.185,4.929,10.523,4.577,15.772c-0.353,5.25-2.144,9.829-5.292,13.655
			c-5.455,6.616-11.628,9.011-18.254,7.802c-6.652-1.209-13.389-5.729-20.6-13.017
			C1117.707,545.536,1109.391,538.062,1100.836,531.21z M1135.969,511.088c-4.439,7.201-9.103,14.142-13.969,20.813
			c4.108,3.646,8.153,7.436,12.127,11.367c3.423,3.39,6.612,5.293,9.647,5.585c3.028,0.292,5.796-1.088,8.236-4.268
			c2.631-3.436,3.825-6.956,3.575-10.464c-0.248-3.506-2.138-7.028-5.656-10.401C1145.357,519.339,1140.7,515.127,1135.969,511.088z
			 M1142.232,500.493c3.52,2.944,7.001,5.979,10.438,9.104c3.829,3.482,7.244,5.427,10.328,5.703
			c3.08,0.279,5.644-1.179,7.623-4.496c2.169-3.638,2.676-7.409,1.509-11.2c-1.168-3.789-3.942-7.675-8.326-11.48
			c-3.479-3.02-6.997-5.955-10.55-8.806C1149.789,486.586,1146.109,493.648,1142.232,500.493z"/>
		<path fill="#FFFFFF" d="M1216.673,612.749c-6.846-12.804-14.3-24.965-22.272-36.444c-5.729,6.639-11.628,12.994-17.679,19.057
			c8.638,13.093,16.569,27.091,23.647,41.927c-3.637,3.087-7.31,6.086-11.017,8.995c-9.519-20.673-20.74-39.697-33.253-56.889
			c20.863-20.659,39.878-44.886,56.15-72.354c16.058,18.558,30.82,39.139,43.877,61.579c-3.134,4.037-6.322,7.989-9.563,11.857
			c-8.796-15.678-18.442-30.448-28.796-44.247c-4.584,6.557-9.324,12.901-14.207,19.026c8.308,11.621,16.097,23.936,23.276,36.906
			C1223.496,605.777,1220.105,609.307,1216.673,612.749z"/>
		<path fill="#FFFFFF" d="M1283.153,677.268c-3.23-10.848-6.837-21.434-10.79-31.738c-20.261,19.951-41.817,37.212-64.134,51.693
			c-1.941-6.759-4.057-13.394-6.336-19.897c21.549-15.047,42.245-32.842,61.551-53.277c-4.408-9.849-9.141-19.408-14.167-28.661
			c3.283-3.849,6.517-7.782,9.694-11.801c14.336,25.424,26.497,53.161,35.908,82.875
			C1291.013,670.155,1287.103,673.757,1283.153,677.268z"/>
		<path fill="#FFFFFF" d="M1242.744,789.408c-0.538-13.897-1.756-27.511-3.597-40.795c-6.541,1.03-13.076,1.943-19.603,2.741
			c-0.998-7.426-2.2-14.744-3.597-21.945c30.165-3.794,60.463-9.924,90.613-18.403c1.775,8.46,3.332,17.047,4.659,25.752
			c-26.152,36.434-56.32,67.867-88.991,93.827c0.513-8.059,0.786-16.041,0.83-23.935
			C1229.736,801.145,1236.304,795.396,1242.744,789.408z M1253.464,746.158c1.389,9.761,2.452,19.694,3.169,29.782
			c11.387-11.534,22.322-23.855,32.717-36.936c-0.026-0.169-0.052-0.338-0.078-0.506
			C1277.337,741.438,1265.394,743.991,1253.464,746.158z"/>
	</g>
</g>
<path fill="none" d="M1162.993,650.074c46.25-178.934-9.859-347.902-125.451-377.78"/>
<text transform="matrix(1 0 0 1 991.2002 302.6802)" font-family="'Roboto-Bold'" font-size="72">BETA</text>
<path fill="none" d="M545.85,278.049c123.429,16.458,206.026,159.368,184.673,319.522"/>
<text transform="matrix(0.6117 0.7911 -0.7911 0.6117 649.7251 324.7871)"><tspan x="0" y="0" fill="#FFFFFF" stroke="#FFFFFF" stroke-miterlimit="10" font-family="'Roboto-Bold'" font-size="120.1281">B</tspan><tspan x="72.232" y="0.183" fill="#FFFFFF" stroke="#FFFFFF" stroke-miterlimit="10" font-family="'Roboto-Bold'" font-size="120.1281" rotate="14.416">E</tspan><tspan x="135.274" y="16.144" fill="#FFFFFF" stroke="#FFFFFF" stroke-miterlimit="10" font-family="'Roboto-Bold'" font-size="120.1281" rotate="26.043">T</tspan><tspan x="193.845" y="44.026" fill="#FFFFFF" stroke="#FFFFFF" stroke-miterlimit="10" font-family="'Roboto-Bold'" font-size="120.1281" rotate="37.129">A</tspan></text>
</svg>
