<?xml version="1.0" encoding="utf-8"?>
<!-- Generator: Adobe Illustrator 16.0.0, SVG Export Plug-In . SVG Version: 6.00 Build 0)  -->
<!DOCTYPE svg PUBLIC "-//W3C//DTD SVG 1.1//EN" "http://www.w3.org/Graphics/SVG/1.1/DTD/svg11.dtd">
<svg version="1.1" id="Layer_1" xmlns="http://www.w3.org/2000/svg" xmlns:xlink="http://www.w3.org/1999/xlink" x="0px" y="0px"
	 width="104.893px" height="104.894px" viewBox="0 0 104.893 104.894" enable-background="new 0 0 104.893 104.894"
	 xml:space="preserve">
<g>
	<path class='logo-path' fill="rgba(255,255,255,0.25)" d="M73.516,36.983c-0.626-10.987-9.667-19.511-20.693-19.511c-10.903,0-19.867,8.335-20.67,19.146
		c-1.167,0.168-2.362,0.389-3.595,0.672l0.496,3.252c0.481,0.01,1.282,0.185,1.319,1.104c0.138,3.463,0.633,6.082,1.838,7.872
		c-0.388,0.306-0.657,0.657-0.772,1.062c0,0,1.561-0.023,1.711,0.152c0,0-2.282,4.034-1.932,6.662l1.39-0.822
		c0,0-0.816,6.373,0.64,8.36c0,0,1.125-1.638,1.39-1.872c0,0,1.063,6.197,1.989,7.426c0,0,0.862-1.228,1.26-1.521
		c0,0,0.463,3.944,2.453,6.198l0.862-1.403c0,0,2.121,5.028,1.591,7.425c0,0,1.591-1.285,1.591-1.695c0,0,0.199,2.748,3.579,4.269
		c0,0-0.066-1.228,0.265-1.579c0,0,3.381,2.865,1.525,4.795c0,0,2.413,0.361,3.172-1.705c0.76,2.066,3.173,1.705,3.173,1.705
		c-1.856-1.93,1.524-4.795,1.524-4.795c0.331,0.352,0.265,1.579,0.265,1.579c3.382-1.521,3.58-4.269,3.58-4.269
		c0,0.41,1.592,1.695,1.592,1.695c-0.531-2.396,1.591-7.425,1.591-7.425l0.861,1.403c1.99-2.254,2.452-6.198,2.452-6.198
		c0.398,0.292,1.26,1.521,1.26,1.521c0.927-1.229,1.988-7.426,1.988-7.426c0.267,0.234,1.391,1.871,1.391,1.871
		c1.455-1.988,0.638-8.361,0.638-8.361l1.387,0.818c0.351-2.627-1.938-6.665-1.938-6.665c0.15-0.176,1.698-0.163,1.698-0.163
		c-0.128-0.448-0.44-0.832-0.896-1.161c1.204-2.201,1.229-5.123,1.896-7.25c0.246-0.782,0.517-1.182,1.375-1.201l0.406-3.252
		C75.964,37.438,74.751,37.192,73.516,36.983 M30.95,39.368c-0.686,0-1.242-0.142-1.242-0.316c0-0.175,0.556-0.316,1.242-0.316
		c0.685,0,1.242,0.142,1.242,0.316C32.192,39.226,31.635,39.368,30.95,39.368 M52.822,19.46c9.825,0,17.902,7.551,18.674,17.223
		c-3.85-0.489-7.997-0.501-12.849,0.718c-1.853,0.465-3.999,0.94-5.909,0.882c-1.146-0.035-2.232-0.302-3.26-0.542
		c-5.18-1.207-9.984-1.853-15.307-1.362C35.086,26.854,43.1,19.46,52.822,19.46 M48.194,47.801c1.371-1.935,2.284-4.008,2.499-5.202
		c0.254-1.419,1.151-1.563,1.968-1.586c1.446-0.038,1.694,1.02,1.947,1.659c0.84,2.122,1.626,4.322,2.403,5.624
		c-0.533,0.03-1.008,1.141-1.447,1.172c-2.187,0.114-3.838-0.247-4.856-0.295c-0.343-0.026-0.717,0.134-1.134,0.134h-1.382v-1.466
		C48.192,47.829,48.423,47.814,48.194,47.801 M39.755,51.288c-5.298,0-6.837-0.965-7.541-7.134c0-4.139-0.271-6.563,7.586-6.548
		c5.298,0.508,10.855,0.458,8.715,6.774C47.187,48.299,45.104,51.145,39.755,51.288 M52.801,62.485c-3.857,0-7.02-2.975-7.323-6.754
		c0.939-0.121,2.121-0.383,2.501-0.953c0,0,0.522,0.822,0.588,1.606c0,0,1.023-0.673,2.018-1.733c0,0,1.009,1.194,0.942,1.593
		c0,0,1.996-1.127,2.062-1.591c0,0,0.998,1.326,2.324,1.193c0,0,0.399-0.729,0.797-1.193c0,0,0.9,1.03,2.108,0.78
		c0,0,0.118-1.112,0.332-1.31c0,0,0.318,0.062,0.744,0.134c0.165,0.269,0.255,0.562,0.255,0.878
		C60.15,59.194,56.86,62.485,52.801,62.485 M73.576,44.153c-0.703,6.169-2.242,7.135-7.541,7.135
		c-5.349-0.143-7.432-2.989-8.76-6.909c-2.141-6.316,3.417-6.266,8.715-6.774C73.847,37.591,73.576,40.014,73.576,44.153
		 M74.908,39.683c-0.685,0-1.242-0.142-1.242-0.315c0-0.174,0.558-0.316,1.242-0.316s1.242,0.142,1.242,0.316
		C76.15,39.542,75.594,39.683,74.908,39.683"/>
	<path class='logo-path' fill="rgba(255,255,255,0.25)" d="M51.301,94.964c0-0.655,0.525-1.192,1.192-1.192c0.655,0,1.179,0.537,1.19,1.192
		c0,0.655-0.535,1.191-1.19,1.191C51.826,96.156,51.301,95.62,51.301,94.964 M47.596,95.805h0.012c-0.667,0-1.132-0.623-1.06-1.279
		c0.071-0.643,0.655-1.098,1.31-1.025c0.655,0.072,1.132,0.622,1.06,1.278c-0.071,0.606-0.583,1.026-1.191,1.026H47.596z
		 M56.055,94.795c-0.071-0.656,0.405-1.232,1.062-1.304c0.655-0.071,1.238,0.364,1.311,1.02c0.083,0.655-0.394,1.294-1.049,1.294
		h-0.131C56.65,95.805,56.127,95.403,56.055,94.795 M42.771,95.083c-0.643-0.155-1.049-0.786-0.906-1.43s0.786-1.048,1.43-0.895
		c0.643,0.144,1.048,0.775,0.905,1.418c-0.13,0.561-0.619,0.931-1.167,0.931C42.949,95.108,42.854,95.096,42.771,95.083
		 M60.785,94.167c-0.143-0.645,0.25-1.287,0.894-1.43c0.643-0.145,1.287,0.25,1.43,0.893c0.144,0.645-0.262,1.287-0.894,1.43
		c-0.095,0.024-0.178,0.037-0.273,0.037C61.394,95.096,60.905,94.714,60.785,94.167 M38.053,93.738L38.053,93.738
		c-0.62-0.228-0.941-0.906-0.727-1.526c0.214-0.619,0.893-0.953,1.512-0.727c0.62,0.215,0.954,0.894,0.739,1.514
		c-0.178,0.488-0.643,0.798-1.132,0.798C38.315,93.796,38.183,93.772,38.053,93.738 M65.396,92.975
		c-0.214-0.619,0.107-1.299,0.728-1.525c0.632-0.215,1.311,0.119,1.525,0.738c0.214,0.619-0.106,1.299-0.727,1.514
		c-0.132,0.047-0.274,0.07-0.405,0.07C66.027,93.772,65.563,93.463,65.396,92.975 M33.524,91.854
		c-0.595-0.285-0.846-0.988-0.559-1.584c0.286-0.596,1-0.847,1.596-0.561c0.584,0.286,0.846,1.001,0.56,1.585
		c-0.214,0.429-0.631,0.679-1.084,0.679C33.87,91.973,33.692,91.938,33.524,91.854 M69.853,91.27
		c-0.287-0.596-0.048-1.311,0.548-1.596c0.596-0.287,1.312-0.043,1.597,0.553c0.286,0.584,0.036,1.578-0.548,1.578h-0.013
		c-0.166,0-0.333,0.127-0.512,0.127C70.484,91.932,70.055,91.688,69.853,91.27 M29.235,89.496c-0.559-0.358-0.727-1.097-0.37-1.646
		c0.346-0.559,1.085-0.726,1.633-0.381c0.561,0.346,0.727,1.086,0.382,1.645c-0.227,0.357-0.619,0.561-1.013,0.561
		C29.652,89.674,29.426,89.615,29.235,89.496 M74.082,89.079c-0.357-0.561-0.179-1.299,0.37-1.645
		c0.56-0.357,1.287-0.19,1.644,0.369c0.358,0.561,0.191,1.287-0.37,1.645c-0.202,0.119-0.416,0.179-0.63,0.179
		C74.69,89.626,74.309,89.436,74.082,89.079 M25.244,86.66c-0.524-0.417-0.608-1.168-0.19-1.681c0.405-0.512,1.155-0.595,1.667-0.19
		c0.513,0.418,0.609,1.156,0.191,1.681c-0.239,0.299-0.584,0.441-0.93,0.441C25.72,86.911,25.459,86.827,25.244,86.66
		 M78.038,86.421c-0.405-0.513-0.322-1.263,0.19-1.668c0.513-0.417,1.264-0.334,1.667,0.179c0.418,0.513,0.334,1.264-0.178,1.681
		c-0.226,0.166-0.488,0.25-0.75,0.25C78.622,86.863,78.276,86.719,78.038,86.421 M21.586,83.395
		c-0.465-0.465-0.465-1.215-0.011-1.681c0.476-0.464,1.226-0.476,1.691-0.011c0.465,0.464,0.465,1.227,0,1.691
		c-0.226,0.227-0.536,0.346-0.845,0.346C22.123,83.741,21.812,83.633,21.586,83.395 M81.684,83.348
		c-0.465-0.478-0.465-1.228,0-1.692c0.465-0.466,1.216-0.466,1.681,0c0.465,0.465,0.465,1.215,0,1.692
		c-0.227,0.226-0.537,0.344-0.847,0.344C82.22,83.692,81.911,83.574,81.684,83.348 M18.31,79.75
		c-0.405-0.513-0.323-1.263,0.191-1.668c0.511-0.418,1.262-0.334,1.667,0.178c0.418,0.513,0.334,1.263-0.178,1.681
		c-0.227,0.166-0.489,0.262-0.751,0.262C18.894,80.202,18.548,80.047,18.31,79.75 M84.96,79.88c-0.523-0.417-0.607-1.168-0.189-1.68
		c0.404-0.513,1.155-0.597,1.667-0.191c0.513,0.417,0.607,1.168,0.191,1.681c-0.239,0.298-0.584,0.44-0.93,0.44
		C85.437,80.13,85.175,80.047,84.96,79.88 M15.474,75.757c-0.357-0.548-0.191-1.286,0.369-1.644c0.548-0.346,1.287-0.18,1.644,0.381
		c0.346,0.548,0.179,1.287-0.38,1.645c-0.191,0.118-0.418,0.178-0.632,0.178C16.081,76.317,15.7,76.116,15.474,75.757
		 M87.819,76.067c-0.548-0.344-0.714-1.084-0.368-1.644s1.084-0.727,1.644-0.368c0.561,0.344,0.727,1.082,0.369,1.644
		c-0.225,0.356-0.607,0.548-1.012,0.548C88.236,76.247,88.022,76.186,87.819,76.067 M13.091,71.481
		c-0.286-0.597-0.036-1.299,0.548-1.586c0.596-0.297,1.31-0.047,1.597,0.549c0.286,0.596,0.036,1.299-0.56,1.585
		c-0.168,0.083-0.346,0.118-0.513,0.118C13.722,72.147,13.294,71.91,13.091,71.481 M90.251,71.957
		c-0.596-0.285-0.846-0.989-0.561-1.584c0.285-0.597,1.001-0.847,1.598-0.56c0.595,0.285,0.834,1,0.548,1.596
		c-0.203,0.417-0.632,0.668-1.073,0.668C90.596,72.077,90.417,72.04,90.251,71.957 M11.209,66.964
		c-0.227-0.631,0.107-1.311,0.726-1.524c0.62-0.215,1.299,0.106,1.513,0.727c0.226,0.619-0.107,1.298-0.727,1.525
		c-0.13,0.047-0.262,0.06-0.393,0.06C11.84,67.751,11.375,67.454,11.209,66.964 M92.204,67.608c-0.63-0.215-0.952-0.894-0.738-1.514
		c0.215-0.619,0.893-0.953,1.513-0.738c0.632,0.227,0.953,0.905,0.739,1.525c-0.167,0.488-0.631,0.799-1.132,0.799
		C92.467,67.68,92.324,67.656,92.204,67.608 M9.838,62.247c-0.143-0.632,0.262-1.275,0.894-1.418c0.643-0.155,1.286,0.25,1.43,0.895
		c0.154,0.631-0.251,1.273-0.894,1.428c-0.084,0.013-0.179,0.024-0.262,0.024C10.458,63.175,9.969,62.807,9.838,62.247
		 M93.646,62.641c-0.643-0.144-1.048-0.836-0.893-1.836h-0.012c0.143-1,0.785-0.811,1.43-0.656c0.643,0.144,1.048,0.656,0.905,1.656
		h-0.012c-0.118,0-0.607,0.899-1.155,0.899C93.825,62.705,93.729,62.665,93.646,62.641 M9.016,57.421
		c-0.072-0.655,0.394-1.239,1.049-1.312c0.655-0.084,1.251,0.394,1.322,1.049c0.072,0.654-0.394,1.238-1.049,1.311
		c-0.048,0.012-0.095,0.012-0.143,0.012C9.599,58.481,9.087,58.029,9.016,57.421 M94.563,58.385c-0.654-0.07-1.12-0.654-1.048-1.31
		c0.071-0.656,0.667-1.132,1.311-1.06c0.654,0.082,1.132,0.666,1.06,1.321c-0.071,0.608-0.583,1.06-1.179,1.06
		C94.66,58.397,94.611,58.397,94.563,58.385 M8.742,52.536c-0.012-0.655,0.525-1.191,1.191-1.191c0.655,0,1.18,0.524,1.192,1.179
		c0,0.668-0.537,1.204-1.192,1.204C9.278,53.728,8.742,53.191,8.742,52.536 M93.446,52.44V52.37v-0.084
		c0-0.667,0.69-1.203,1.346-1.203c0.654,0,1.273,0.524,1.286,1.191c0,0.024,0.029,0.06,0.029,0.084c0,0.035,0.032,0.059,0.032,0.083
		c0,0.667-0.691,1.203-1.357,1.203C94.126,53.644,93.446,53.107,93.446,52.44 M10.053,47.806c-0.656,0-1.132-0.089-1.049-0.733
		c0.072-0.655,0.656-0.843,1.311-0.771c0.655,0.071,1.119,0.222,1.048,0.877c-0.059,0.619-0.584,0.627-1.18,0.627H10.053z
		 M93.503,47.65c-0.083-0.643,0.393-1.239,1.037-1.31c0.656-0.084,1.252,0.393,1.322,1.048c0.071,0.643-0.394,1.239-1.049,1.311
		c-0.047,0.012-0.083,0.012-0.131,0.012C94.087,48.711,93.563,48.258,93.503,47.65 M10.708,44.231
		c-0.643-0.143-1.048-0.775-0.906-1.418c0.143-0.644,0.786-1.049,1.43-0.905c0.632,0.154,1.037,0.786,0.893,1.429
		c-0.118,0.548-0.619,0.93-1.155,0.93C10.875,44.268,10.791,44.255,10.708,44.231 M92.446,43.087V43.1
		c0-0.643,0.38-1.287,1.022-1.442c0.644-0.143,1.353,0.262,1.495,0.893c0.155,0.645-0.218,1.287-0.861,1.43
		c-0.083,0.024-0.291,0.037-0.375,0.037C93.18,44.018,92.446,43.647,92.446,43.087 M11.887,39.608
		c-0.631-0.215-0.953-0.894-0.738-1.513c0.214-0.62,0.894-0.953,1.513-0.727c0.62,0.214,0.953,0.894,0.739,1.513
		c-0.179,0.488-0.632,0.798-1.121,0.798C12.15,39.68,12.018,39.657,11.887,39.608 M91.418,38.644
		c-0.227-0.62,0.107-1.299,0.715-1.514c0.62-0.226,1.311,0.107,1.526,0.727c0.214,0.62-0.108,1.299-0.728,1.513
		c-0.132,0.048-0.262,0.072-0.394,0.072C92.05,39.441,91.586,39.131,91.418,38.644 M13.58,35.151
		c-0.596-0.285-0.846-0.988-0.561-1.584c0.286-0.595,0.989-0.846,1.585-0.56c0.596,0.286,0.846,1.001,0.559,1.585
		c-0.202,0.429-0.63,0.679-1.071,0.679C13.913,35.271,13.746,35.235,13.58,35.151 M89.619,34.377L89.619,34.377
		c-0.286-0.596-0.035-1.311,0.548-1.596c0.596-0.286,1.311-0.036,1.597,0.548c0.286,0.595,0.036,1.31-0.549,1.596
		c-0.166,0.084-0.345,0.119-0.523,0.119C90.251,35.044,89.834,34.794,89.619,34.377 M15.759,30.911
		c-0.559-0.345-0.726-1.084-0.38-1.632c0.345-0.561,1.084-0.595,1.644-0.25c0.559,0.346,0.727,0.777,0.381,1.777h-0.012
		c-0.226,0-0.608,0.427-1.001,0.427C16.177,31.232,15.95,31.042,15.759,30.911 M87.368,30.338c-0.358-0.56-1.158-1.299-0.6-1.644
		c0.549-0.357,0.678-0.191,0.678,0.369v-0.011c0,0.56,1.146,1.298,0.599,1.645c-0.203,0.131,0.066,0.189-0.16,0.189
		C87.491,30.886,87.593,30.697,87.368,30.338 M18.405,26.943c-0.513-0.406-0.607-1.156-0.202-1.669
		c0.416-0.512,1.167-0.607,1.68-0.19c0.512,0.405,0.607,1.155,0.189,1.668c-0.237,0.298-0.582,0.452-0.928,0.452
		C18.881,27.205,18.619,27.122,18.405,26.943 M84.675,26.574c-0.418-0.512-0.334-1.263,0.178-1.68
		c0.514-0.417,1.265-0.333,1.669,0.179c0.416,0.512,0.334,1.263-0.179,1.68c-0.215,0.178-0.476,0.262-0.739,0.262
		C85.246,27.015,84.9,26.859,84.675,26.574 M21.466,23.297c-0.464-0.465-0.464-1.216,0-1.681c0.466-0.464,1.216-0.476,1.681-0.011
		c0.465,0.464,0.477,1.227,0.012,1.692c-0.238,0.226-0.549,0.345-0.847,0.345C22.003,23.643,21.705,23.536,21.466,23.297
		 M81.564,23.13L81.564,23.13c-0.464-0.465-0.464-1.227,0-1.692c0.464-0.465,1.216-0.465,1.681,0
		c0.464,0.465,0.476,1.215,0.012,1.68c-0.239,0.238-0.548,0.346-0.846,0.346C82.101,23.464,81.804,23.356,81.564,23.13
		 M24.922,20.008c-0.405-0.512-0.321-1.263,0.191-1.668c0.512-0.417,1.262-0.334,1.667,0.178c0.418,0.513,0.334,1.264-0.178,1.681
		c-0.227,0.178-0.488,0.262-0.75,0.262C25.506,20.461,25.161,20.307,24.922,20.008 M78.108,20.044
		c-0.522-0.406-0.606-1.156-0.201-1.668c0.417-0.513,1.168-0.608,1.68-0.191c0.512,0.405,0.596,1.155,0.19,1.668
		c-0.227,0.298-0.584,0.453-0.93,0.453C78.586,20.307,78.324,20.224,78.108,20.044 M28.723,17.138
		c-0.345-0.56-0.19-1.299,0.369-1.645c0.56-0.357,1.299-0.19,1.644,0.369c0.358,0.561,0.191,1.287-0.368,1.645
		c-0.203,0.119-0.418,0.179-0.632,0.179C29.331,17.686,28.949,17.495,28.723,17.138 M74.321,17.375
		c-0.561-0.346-0.728-1.084-0.383-1.644c0.347-0.561,1.085-0.727,1.646-0.37c0.56,0.346,0.726,1.085,0.381,1.633
		c-0.226,0.369-0.619,0.559-1.012,0.559C74.736,17.553,74.512,17.495,74.321,17.375 M32.821,14.695
		c-0.286-0.584-0.036-1.299,0.549-1.585c0.595-0.285,1.311-0.048,1.596,0.548c0.286,0.596,0.036,1.311-0.548,1.597
		c-0.166,0.083-0.346,0.119-0.524,0.119C33.453,15.374,33.024,15.124,32.821,14.695 M70.258,15.147
		c-0.596-0.286-0.846-1.001-0.56-1.597c0.285-0.583,1.001-0.834,1.596-0.559c0.584,0.285,0.835,1,0.548,1.596
		c-0.202,0.429-0.619,0.679-1.071,0.679C70.603,15.267,70.425,15.23,70.258,15.147 M37.171,12.741
		c-0.227-0.619,0.107-1.299,0.726-1.525c0.62-0.215,1.3,0.107,1.514,0.727c0.225,0.631-0.107,1.31-0.728,1.525
		c-0.13,0.048-0.261,0.071-0.393,0.071C37.802,13.539,37.337,13.229,37.171,12.741 M65.979,13.383
		c-0.631-0.214-0.953-0.893-0.737-1.513c0.215-0.619,0.893-0.953,1.513-0.738c0.619,0.214,0.953,0.893,0.739,1.513
		c-0.18,0.5-0.633,0.81-1.133,0.81C66.23,13.456,66.099,13.432,65.979,13.383 M41.71,11.274c-0.155-0.631,0.25-1.274,0.893-1.429
		c0.632-0.143,1.276,0.262,1.419,0.893c0.155,0.644-0.25,1.287-0.894,1.43c-0.084,0.024-0.179,0.036-0.263,0.036
		C42.317,12.205,41.83,11.834,41.71,11.274 M61.512,11.806h0.012c-0.643,0-1.048-0.629-0.904-1.261
		c0.143-0.642,0.774-0.969,1.418-0.826c0.644,0.144,1.048,0.814,0.904,1.457c-0.131,0.562-0.62,0.792-1.154,0.792
		C61.691,11.967,61.607,11.806,61.512,11.806 M46.38,10.051c-0.082-0.655,0.394-1.104,1.049-1.175
		c0.656-0.072,1.239,0.172,1.323,0.827c0.071,0.655-0.405,1.102-1.049,1.102H47.56C46.964,10.806,46.453,10.66,46.38,10.051
		 M56.949,11.358L56.949,11.358c-0.655-0.072-1.133-0.747-1.061-1.402c0.071-0.655,0.655-1.151,1.322-1.151h-0.012
		c0.654,0,1.132,0.758,1.061,1.414c-0.06,0.607-0.584,1.105-1.18,1.105C57.044,11.325,56.997,11.371,56.949,11.358 M51.123,9.928
		c0-0.655,0.536-1.191,1.191-1.191c0.656,0,1.192,0.537,1.192,1.191c0,0.656-0.525,1.191-1.18,1.191
		C51.659,11.12,51.123,10.584,51.123,9.928"/>
	<path class='logo-path' fill="rgba(255,255,255,0.25)" d="M52.447,104.894C23.528,104.894,0,81.366,0,52.446C0,23.528,23.528,0,52.447,0
		c28.919,0,52.445,23.528,52.445,52.446C104.893,81.366,81.366,104.894,52.447,104.894 M52.447,2.383
		c-27.605,0-50.064,22.458-50.064,50.063c0,27.605,22.459,50.064,50.064,50.064c27.604,0,50.062-22.459,50.062-50.064
		C102.51,24.841,80.052,2.383,52.447,2.383"/>
</g>
</svg>
