<?xml version="1.0" encoding="utf-8"?>
<!-- Generator: Adobe Illustrator 16.0.0, SVG Export Plug-In . SVG Version: 6.00 Build 0)  -->
<!DOCTYPE svg PUBLIC "-//W3C//DTD SVG 1.1//EN" "http://www.w3.org/Graphics/SVG/1.1/DTD/svg11.dtd">
<svg version="1.1" id="Layer_1" xmlns="http://www.w3.org/2000/svg" xmlns:xlink="http://www.w3.org/1999/xlink" x="0px" y="0px"
	 width="150px" height="170px" viewBox="0 0 150 170" enable-background="new 0 0 150 170" xml:space="preserve">
<path fill="#F3F1F2" d="M101.5,27.7c0-3.3,2.3-5.9,5.1-5.9c2.8,0,5.1,2.7,5.1,5.9c0,3.3-2.3,5.9-5.1,5.9L101.5,27.7z"/>
<path fill="#F3F1F2" d="M75,168c-25.2,0-44.9-6.2-58.3-18.4l-0.5-0.5l-0.7-0.1C7.9,148.4,2,141.9,2,134.2c0-8.1,8-15,14.5-15
	c2.4,0,4.9,0.3,7.5,0.8c3,6.9,7.5,13.3,13,18.4c1.3,1.7,8.4,8.4,37.9,8.4c29.4,0,36.2-6.2,37.6-8.1c5.6-5.2,10.2-11.6,13.3-18.7
	c2.7-0.6,5.1-0.8,7.5-0.8c6.5,0,14.5,6.9,14.5,15c0,7.7-5.9,14.3-13.4,14.9l-0.7,0.1l-0.5,0.5C119.9,161.8,100.2,168,75,168"/>
<path fill="#F3F1F2" d="M127.7,98.1c0,14.7-6.2,28.9-17.1,38.9l-0.3,0.3l-0.1,0.2c-0.6,0.6-6.6,6.6-35.2,6.6
	c-30.1,0-35.4-6.7-35.5-6.8l-0.2-0.3l-0.2-0.2c-10.7-9.9-16.8-24-16.8-38.6c0-17.8,8.7-34,23.4-43.8c0.6,1.3,1.3,2.6,2.1,4
	c0.3,0.5,0.6,1,1,1.6c1.9,2.8,5,7.4,5,14.5c0,3.4,1.9,6.5,4,9.7c2,3.3,4.4,6.9,5.2,11.4c0.8,4.6,4.3,6.8,6.8,8.5
	c0.8,0.5,1.3,0.9,1.6,1.2c-0.5,0.9-1.3,2.4-0.4,4c0.5,1,1.7,1.6,2.8,1.6c1.8,0,3.1-1.1,10-7.5c1.1-1,2.5-2.3,3.4-3.1
	c3.6-3.2,4.4-6.5,5-9.1c0.1-0.5,0.2-1,0.3-1.4c0.6-2.1,0.4-3.9,0.3-5.6c-0.2-2.9-0.4-5.4,3.1-9.9c4.4-5.7,4.9-9.1,5.3-12.2
	c0.2-1.7,0.4-3.1,1.3-4.9c0.5-1,1-2,1.4-3C118.7,63.8,127.7,80.4,127.7,98.1"/>
<path fill="#F3F1F2" d="M43.4,33.6c-2.8,0.3-5.4-2-5.8-5.3c-0.4-3.3,1.6-6.2,4.4-6.5c2.8-0.3,5.4,2,5.7,5.3L43.4,33.6z"/>
<path fill="#F3F1F2" d="M103.9,45.3c0.2-2.1-0.2-3.9-1-5.3c-1-1.6-2.6-2.6-4.7-3h0c-0.8-0.2-1.6-0.2-2.5-0.2c-0.8,0-1.7,0.1-2.6,0.2
	c-2.2,0.3-4,0.5-5.5,0.6c-0.2,0-0.3,0-0.5,0.1c-5.1,0.5-6.2,0.6-9.5,2.7c0,0-1.4,0.8-3.3,0.8c-0.9,0-1.7-0.2-2.3-0.4
	c-0.6-0.2-0.9-0.4-0.9-0.4c-0.7-0.4-1.2-0.8-1.6-1c-1.6-1.1-1.8-1.2-6.7-1.7c-0.5,0-1-0.1-1.5-0.1c-1.5-0.1-3.4-0.3-5.8-0.6
	c-0.8-0.1-1.6-0.1-2.3-0.1c-0.5,0-1,0-1.5,0.1h0C48.9,37.1,47,38.2,46,40c-0.5,0.8-0.7,1.7-0.8,2.7c-0.9-3-1.5-6.2-1.5-9.4
	C43.7,16,57.7,2,75,2s31.3,14,31.3,31.3C106.3,37.5,105.5,41.6,103.9,45.3"/>
<path fill="#00A9E5" d="M60.1,27.1c1,0,1.9,0.8,1.9,1.9s-0.8,1.9-1.9,1.9S58.3,30,58.3,29S59.1,27.1,60.1,27.1"/>
<path fill="#00A9E5" d="M88.1,27.1c1,0,1.9,0.8,1.9,1.9s-0.8,1.9-1.9,1.9S86.2,30,86.2,29S87.1,27.1,88.1,27.1"/>
<path fill="#F3F1F2" d="M102.4,47.6c-0.1,1.7-0.6,3.6-1.4,5.7c-0.6,1.5-1.3,3.2-2.2,5c-1,2-1.2,3.6-1.4,5.2
	c-0.4,2.7-0.7,5.5-4.5,10.4c-3.8,4.9-3.6,7.8-3.4,10.7c0.1,1.4,0.2,2.9-0.2,4.5c-0.1,0.4-0.2,0.9-0.3,1.4c-0.5,2.3-1.1,4.9-4,7.4
	c-0.8,0.7-1.9,1.8-3.2,2.9c-5.7,5.3-7.1,6.5-7.9,6.5c-0.3,0-0.7-0.2-0.8-0.5c-0.3-0.5-0.1-1,0.5-1.9c0.8-1.3,0.3-1.9-2.3-3.7
	c-2.1-1.4-4.8-3.2-5.5-6.6c-0.9-4.6-3.1-8.2-5.1-11.4c-1.8-2.9-3.4-5.4-3.4-8c0-7.3-3.2-12.1-5-14.7c-0.4-0.5-0.7-1-0.9-1.4
	c-1.2-2.1-2.2-4-2.9-5.7c-1.4-3.4-2.1-6.1-1.9-8.3c0.1-1,0.3-1.9,0.8-2.6c1-1.7,2.8-2.7,5.5-2.9h0c0.4,0,0.9-0.1,1.4-0.1
	c0.7,0,1.4,0,2.1,0.1c2.2,0.2,4,0.4,5.5,0.5c0.5,0,1,0.1,1.4,0.1c4.7,0.4,4.9,0.5,6.3,1.6c0.4,0.2,0.8,0.6,1.5,1
	c0,0,0.3,0.2,0.9,0.4c0.5,0.2,1.3,0.4,2.2,0.4c1.8,0,3.1-0.7,3.1-0.7c3.2-1.9,4.2-2.1,9-2.6c0.1,0,0.3,0,0.4,0
	c1.4-0.1,3.1-0.3,5.2-0.6c0.9-0.1,1.7-0.2,2.4-0.2c0.9,0,1.7,0.1,2.4,0.2h0c2.1,0.4,3.6,1.3,4.5,2.8C102.3,44,102.6,45.6,102.4,47.6
	"/>
<path fill="#00A9E5" d="M81.7,47.9c0,3-3.1,5.5-7,5.5c-3.8,0-7-2.5-7-5.5H81.7z"/>
<path fill="#00A9E5" d="M106.9,18.1c-0.8-0.3-7.8,0-14.4,0.5C86,19.2,76,21.8,74.9,21.8c-1.1,0-5.5-1.5-13.7-2.7
	c-8.3-1.2-18-0.5-18-0.5s-0.3,0-0.9,0.4c-0.7,0.3-0.5,1-0.5,1l1,3.5c0,0,0.3,0,0.9,0.5c0.6,0.4,0.9,1.8,1.7,4.1
	c0.7,2.3,1.7,5.2,3.7,7.3c2.1,2.1,8.2,2.7,9.5,2.7c1.4,0,3,0.3,6.8-1.3c3.8-1.6,6.1-7.4,7-9.1c0.9-1.7,0.5-1.7,2.7-1.8
	c2.2-0.1,2.2,1,4.3,5.2c2.1,4.2,7,7.4,13.1,7c6.1-0.4,8.6-2.1,9.9-3.2c1.2-1.1,1.7-2.9,1.9-3.6c0.3-0.6,1.9-6.7,2.3-7.4
	c0.4-0.7,1.1-0.8,1.1-0.8s0.5-1.9,0.8-3.3C108.5,18.3,107.7,18.4,106.9,18.1 M67.5,32.3c-1.3,1.7-3.1,3.7-8,3.7
	c-4.9,0-7.5-0.9-9.1-2.1c-1.6-1.2-2.7-5.1-2.9-6.8c-0.2-1.7-0.5-4.5,0.7-5.3c1.2-0.8,4.9-1.6,10.3-0.9c5.4,0.7,8.9,1.9,8.9,1.9
	s1.7,0.7,1.8,2.4C69.5,27.1,68.8,30.6,67.5,32.3 M102.7,27.2c-0.2,1.7-0.9,5.6-2.5,6.8c-1.6,1.2-4.8,2.1-9.7,2.1c-4.9,0-6.6-2-8-3.7
	c-1.3-1.7-2.1-5.1-2-6.9c0.1-1.8,2-2.6,2-2.6s3.6-1.2,9-1.9c5.4-0.7,9.4,0,10.6,0.8C103.2,22.6,102.9,25.5,102.7,27.2"/>
<path fill="#00A9E5" d="M39.2,109.4c0,0,0.6,1.2,2,3c0.4,0.4,0.8,0.9,1.2,1.4c0.2,0.3,0.5,0.5,0.7,0.8c0.3,0.3,0.5,0.5,0.8,0.8
	c0.3,0.3,0.6,0.6,0.9,0.8c0.3,0.3,0.7,0.5,1,0.8c0.4,0.3,0.7,0.6,1.1,0.8c0.4,0.3,0.8,0.5,1.2,0.8c0.8,0.6,1.7,1,2.6,1.6
	c0.2,0.1,0.5,0.3,0.7,0.4c0.2,0.1,0.5,0.2,0.7,0.3c0.5,0.2,1,0.5,1.5,0.7c2,0.9,4.2,1.7,6.6,2.3c1.1,0.4,2.4,0.5,3.6,0.8
	c0.6,0.1,1.2,0.2,1.8,0.3c0.6,0.1,1.3,0.1,1.9,0.2c1.3,0.1,2.5,0.3,3.8,0.3c1.3,0,2.5,0.1,3.8,0.1c1.3,0,2.6-0.1,4-0.1
	c1.3,0,2.6-0.2,3.8-0.4c0.6-0.1,1.2-0.1,1.9-0.2c0.6-0.1,1.2-0.2,1.8-0.4c1.2-0.2,2.4-0.4,3.6-0.8c1.1-0.4,2.3-0.6,3.4-1.1
	c1.1-0.4,2.2-0.8,3.1-1.3c1-0.5,2-0.9,2.8-1.5c0.9-0.5,1.8-1,2.5-1.6c0.4-0.3,0.8-0.6,1.1-0.8c0.4-0.3,0.7-0.6,1-0.9
	c0.3-0.3,0.7-0.6,1-0.8c0.3-0.3,0.6-0.6,0.9-0.9c0.6-0.5,1-1.1,1.5-1.6c0.5-0.5,0.8-1,1.2-1.5c0.7-0.9,1.2-1.7,1.5-2.2
	c0.3-0.5,0.4-0.8,0.4-0.8s-0.1,0.3-0.3,0.9c-0.2,0.6-0.6,1.4-1.1,2.5c-0.3,0.5-0.6,1.1-1,1.7c-0.4,0.6-0.8,1.2-1.3,1.9
	c-0.3,0.3-0.5,0.7-0.8,1c-0.3,0.3-0.6,0.7-0.9,1c-0.3,0.3-0.6,0.7-1,1c-0.4,0.3-0.7,0.7-1.1,1c-0.7,0.7-1.6,1.3-2.5,2
	c-0.9,0.7-1.9,1.2-2.9,1.8c-1,0.6-2.1,1.1-3.2,1.6c-1.1,0.6-2.3,0.9-3.5,1.3c-1.2,0.5-2.5,0.7-3.8,1c-0.6,0.2-1.3,0.3-1.9,0.5
	c-0.7,0.1-1.3,0.2-2,0.3c-2.7,0.5-5.3,0.5-8,0.6c-1.4-0.1-2.7-0.1-4.1-0.2c-1.4,0-2.7-0.2-4-0.4c-0.7-0.1-1.3-0.2-2-0.3
	c-0.7-0.1-1.3-0.3-1.9-0.4c-1.3-0.3-2.6-0.5-3.8-1c-2.5-0.7-4.7-1.7-6.8-2.8c-2.1-1.1-3.9-2.3-5.5-3.6c-0.8-0.7-1.5-1.3-2.2-1.9
	c-0.3-0.3-0.6-0.7-1-1c-0.3-0.3-0.6-0.7-0.8-1c-0.3-0.3-0.5-0.6-0.8-0.9c-0.2-0.3-0.4-0.6-0.6-0.9c-0.4-0.6-0.7-1.1-1.1-1.6
	c-0.6-1-1-1.9-1.2-2.4C39.3,109.7,39.2,109.4,39.2,109.4"/>
</svg>
