<?xml version="1.0" encoding="utf-8"?>
<!-- Generator: Adobe Illustrator 17.1.0, SVG Export Plug-In . SVG Version: 6.00 Build 0)  -->
<!DOCTYPE svg PUBLIC "-//W3C//DTD SVG 1.1//EN" "http://www.w3.org/Graphics/SVG/1.1/DTD/svg11.dtd">
<svg version="1.1" id="Layer_1" xmlns="http://www.w3.org/2000/svg" xmlns:xlink="http://www.w3.org/1999/xlink" x="0px" y="0px"
	 viewBox="0 0 284 400" enable-background="new 0 0 284 400" xml:space="preserve">
<g>
	<path fill="#69B3A5" d="M229.5,135.4c-2.6-46.5-40.9-82.6-87.6-82.6c-46.2,0-84.1,35.3-87.5,81.1c-4.9,0.7-10,1.6-15.2,2.8
		l2.1,13.8c2,0,5.4,0.8,5.6,4.7c0.6,14.7,2.7,25.8,7.8,33.3c-1.6,1.3-2.8,2.8-3.3,4.5c0,0,6.6-0.1,7.2,0.6c0,0-9.7,17.1-8.2,28.2
		l5.9-3.5c0,0-3.5,27,2.7,35.4c0,0,4.8-6.9,5.9-7.9c0,0,4.5,26.2,8.4,31.4c0,0,3.7-5.2,5.3-6.4c0,0,2,16.7,10.4,26.3l3.7-5.9
		c0,0,9,21.3,6.7,31.5c0,0,6.7-5.4,6.7-7.2c0,0,0.8,11.6,15.2,18.1c0,0-0.3-5.2,1.1-6.7c0,0,14.3,12.1,6.5,20.3
		c0,0,10.2,1.5,13.4-7.2c3.2,8.8,13.4,7.2,13.4,7.2c-7.9-8.2,6.5-20.3,6.5-20.3c1.4,1.5,1.1,6.7,1.1,6.7
		c14.3-6.4,15.2-18.1,15.2-18.1c0,1.7,6.7,7.2,6.7,7.2c-2.2-10.2,6.7-31.5,6.7-31.5l3.7,5.9c8.4-9.5,10.4-26.3,10.4-26.3
		c1.7,1.2,5.3,6.4,5.3,6.4c3.9-5.2,8.4-31.5,8.4-31.5c1.1,1,5.9,7.9,5.9,7.9c6.2-8.4,2.7-35.4,2.7-35.4l5.9,3.5
		c1.5-11.1-8.2-28.2-8.2-28.2c0.6-0.7,7.2-0.7,7.2-0.7c-0.5-1.9-1.9-3.5-3.8-4.9c5.1-9.3,5.2-21.7,8-30.7c1-3.3,2.2-5,5.8-5.1
		l1.7-13.8C239.8,137.3,234.7,136.3,229.5,135.4z M141.8,61.2c41.6,0,75.8,32,79.1,72.9c-16.3-2.1-33.9-2.1-54.4,3
		c-7.8,2-16.9,4-25,3.7c-4.9-0.1-9.5-1.3-13.8-2.3c-21.9-5.1-42.3-7.8-64.8-5.8C66.7,92.5,100.7,61.2,141.8,61.2z M125.1,181.2
		c5.8-8.2,8.2-17,9.1-22c1.1-6,4.2-6.6,7.6-6.7c6.1-0.2,6.8,4.3,7.9,7c3.6,9,6.7,16,10,21.5c-2.3,0.1-4.4,0.3-6.2,0.4
		c-9.3,0.5-16.3,0.7-20.6,0.5c-1.5-0.1-3.1,0.1-4.8,0.1c0,0-0.1,0-0.1,0v-0.6C127,181.3,126.1,181.3,125.1,181.2z M86.7,138
		c22.4,2.2,46,1.9,36.9,28.7c-5.6,16.6-14.4,28.7-37.1,29.3c-22.4,0-29-4.1-31.9-30.2C54.6,148.2,53.4,138,86.7,138z M49.2,145.5
		c-2.9,0-5.3-0.6-5.3-1.3c0-0.7,2.4-1.3,5.3-1.3s5.3,0.6,5.3,1.3C54.5,144.9,52.1,145.5,49.2,145.5z M141.7,243.4
		c-16.3,0-29.7-12.6-31-28.6c4-0.5,9-1.6,10.6-4c0,0,2.2,3.5,2.5,6.8c0,0,4.3-2.9,8.5-7.3c0,0,4.3,5.1,4,6.7c0,0,8.5-4.8,8.7-6.7
		c0,0,4.2,5.6,9.8,5.1c0,0,1.7-3.1,3.4-5.1c0,0,3.8,4.4,8.9,3.3c0,0,0.5-4.7,1.4-5.6c0,0,1.4,0.3,3.2,0.6c0.7,1.1,1.1,2.4,1.1,3.7
		C172.9,229.5,158.9,243.4,141.7,243.4z M229.7,165.8c-3,26.1-9.5,30.2-31.9,30.2c-22.7-0.6-31.5-12.7-37.1-29.3
		c-9.1-26.8,14.5-26.5,36.9-28.7C230.9,138,229.7,148.2,229.7,165.8z M235.4,146.8c-2.9,0-5.3-0.6-5.3-1.3c0-0.7,2.4-1.3,5.3-1.3
		s5.3,0.6,5.3,1.3C240.6,146.2,238.3,146.8,235.4,146.8z"/>
</g>
</svg>
