<?xml version="1.0" encoding="utf-8"?>
<!-- Generator: Adobe Illustrator 16.0.0, SVG Export Plug-In . SVG Version: 6.00 Build 0)  -->
<!DOCTYPE svg PUBLIC "-//W3C//DTD SVG 1.1//EN" "http://www.w3.org/Graphics/SVG/1.1/DTD/svg11.dtd">
<svg version="1.1" id="Layer_1" xmlns="http://www.w3.org/2000/svg" xmlns:xlink="http://www.w3.org/1999/xlink" x="0px" y="0px"
	 width="99.852px" height="95.667px" viewBox="0 0 99.852 95.667" enable-background="new 0 0 99.852 95.667" xml:space="preserve">
<g>
	<g opacity="0.7">
		<g>
			<path fill="none" stroke="#FFFFFF" stroke-width="4" stroke-miterlimit="10" d="M54.77,5.444l8.235,23.691
				c0.703,2.025,2.594,3.399,4.738,3.443l25.076,0.511c4.861,0.099,6.867,6.275,2.994,9.213L75.827,57.456
				c-1.709,1.295-2.431,3.518-1.81,5.57l7.263,24.007c1.407,4.653-3.847,8.471-7.837,5.694L52.855,78.401
				c-1.76-1.225-4.098-1.225-5.857,0L26.41,92.727c-3.991,2.776-9.245-1.041-7.837-5.694l7.263-24.007
				c0.621-2.053-0.101-4.275-1.81-5.57L4.039,42.302c-3.874-2.938-1.867-9.114,2.994-9.213l25.076-0.511
				c2.144-0.044,4.035-1.418,4.739-3.443l8.235-23.691C46.679,0.852,53.173,0.852,54.77,5.444z"/>
		</g>
	</g>
	<g opacity="0.7">
		<g>
			<g>
				<path fill="#FFFFFF" d="M49.926,36.08l2.244,6.457c0.868,2.498,3.229,4.214,5.879,4.271l6.833,0.139l-5.445,4.13
					c-2.108,1.598-3.012,4.374-2.246,6.91l1.979,6.543l-5.612-3.905c-1.071-0.745-2.327-1.139-3.632-1.139s-2.561,0.394-3.634,1.14
					l-5.61,3.904l1.979-6.542c0.767-2.534-0.136-5.312-2.245-6.911l-5.447-4.13l6.839-0.139c2.645-0.058,5.005-1.774,5.874-4.272
					L49.926,36.08 M49.926,28.727c-0.932,0-1.862,0.529-2.23,1.586l-3.792,10.91c-0.324,0.933-1.195,1.564-2.182,1.586
					l-11.548,0.234c-2.238,0.046-3.162,2.891-1.378,4.242L38,54.264c0.787,0.597,1.12,1.619,0.833,2.564l-3.345,11.056
					c-0.496,1.64,0.805,3.055,2.267,3.055c0.448,0,0.911-0.133,1.342-0.433l9.48-6.598c0.405-0.281,0.877-0.423,1.349-0.423
					s0.943,0.142,1.349,0.423l9.48,6.598c0.432,0.3,0.895,0.433,1.343,0.433c1.462,0,2.763-1.415,2.267-3.055l-3.346-11.056
					c-0.285-0.945,0.047-1.968,0.834-2.564l9.203-6.979c1.785-1.352,0.86-4.196-1.378-4.242L58.13,42.809
					c-0.986-0.021-1.857-0.653-2.182-1.586l-3.792-10.91C51.789,29.256,50.858,28.727,49.926,28.727L49.926,28.727z"/>
			</g>
		</g>
	</g>
</g>
</svg>
