<?xml version="1.0" encoding="utf-8"?>
<!-- Generator: Adobe Illustrator 15.1.0, SVG Export Plug-In . SVG Version: 6.00 Build 0)  -->
<!DOCTYPE svg PUBLIC "-//W3C//DTD SVG 1.1 Tiny//EN" "http://www.w3.org/Graphics/SVG/1.1/DTD/svg11-tiny.dtd">
<svg version="1.1" baseProfile="tiny" id="Layer_1" xmlns="http://www.w3.org/2000/svg" xmlns:xlink="http://www.w3.org/1999/xlink"
	 x="0px" y="0px" width="116.097px" height="34.441px" viewBox="0 0 116.097 34.441" xml:space="preserve">
<g>
	<path fill="#FFFFFF" d="M8.495,15.941c-0.992,1.707-2.31,2.926-4.125,2.926C1.608,18.867,0,16.55,0,13.014
		c0-4.311,1.484-9.15,1.484-9.15c0.289-0.692,0-1.502,2.184-1.502c2.022,0,0.826,1.623,0.661,2.235
		c-0.743,3.008-1.197,4.795-1.197,8.214c0,2.191,0.702,3.374,1.898,3.374c1.649,0,2.887-2.643,3.381-5.49V4.149
		c0-1.181-0.413-1.261-0.413-1.546s0.742-0.446,1.32-0.446c1.363,0,2.229,0.812,2.229,1.788v10.328c0,0.367,0,1.87,1.072,1.87
		c1.649,0,2.391-2.602,2.763-4.392c0.166-0.855,0.577-1.22,0.989-1.22c0.66,0,1.443,0.896,1.443,1.667c0,0.041,0,0.121-0.04,0.286
		c-0.743,2.681-2.351,6.34-5.897,6.34C10.02,18.825,8.783,17.569,8.495,15.941"/>
	<path fill="#FFFFFF" d="M23.135,21.226v-4.268c-0.823,0.811-1.939,1.462-3.382,1.462c-3.215,0-4.906-2.683-4.906-6.139
		c0-6.79,4.783-10.937,9.814-10.937c1.112,0,1.896,0.648,1.896,1.708c0,0.689-0.125,0.932-0.536,0.932
		c-0.373,0-0.784-0.08-1.196-0.08c-3.135,0-6.803,2.644-6.803,8.498c0,2.117,0.907,3.335,2.349,3.335
		c1.65,0,2.476-2.157,2.765-3.779V7.361c0-0.771-0.166-1.016-0.166-1.302c0-0.406,0.495-0.691,1.072-0.691
		c1.361,0,2.228,0.813,2.228,1.79v11.058c1.484-1.624,2.804-3.66,3.629-6.462c0.246-0.857,0.577-1.222,0.989-1.222
		c0.66,0,1.444,0.896,1.444,1.667c0,0.041,0,0.245-0.042,0.406c-1.402,4.716-3.795,7.116-6.021,9.026v7.036
		c0,4.27-2.187,5.773-4.291,5.773c-2.308,0-3.957-2.074-3.957-4.677C18.021,25.657,20.413,23.588,23.135,21.226 M23.135,28.668
		v-4.353c-1.32,1.342-2.227,2.888-2.227,5.328c0,1.262,0.412,2.237,1.07,2.237C23.3,31.881,23.135,29.44,23.135,28.668"/>
	<path fill="#FFFFFF" d="M38.022,15.941c-0.989,1.707-2.311,2.926-4.125,2.926c-2.762,0-4.371-2.317-4.371-5.854
		c0-4.311,1.486-9.15,1.486-9.15c0.288-0.692,0-1.502,2.185-1.502c2.02,0,0.825,1.623,0.658,2.235
		c-0.741,3.008-1.196,4.795-1.196,8.214c0,2.191,0.702,3.374,1.898,3.374c1.649,0,2.887-2.643,3.381-5.49V4.149
		c0-1.181-0.411-1.261-0.411-1.546s0.741-0.446,1.319-0.446c1.363,0,2.228,0.812,2.228,1.788v10.328c0,0.367,0,1.87,1.071,1.87
		c1.65,0,2.391-2.602,2.763-4.392c0.166-0.855,0.578-1.22,0.989-1.22c0.66,0,1.443,0.896,1.443,1.667c0,0.041,0,0.121-0.041,0.286
		c-0.743,2.681-2.35,6.34-5.896,6.34C39.545,18.825,38.311,17.569,38.022,15.941"/>
	<path fill="#FFFFFF" d="M49.816,14.191c0-2.601,0.743-5.488,2.063-8.985h-3.135H48.29c-0.04,1.587-0.288,5.123-1.031,7.481
		c-0.535,1.708-2.681,0.243-2.309-1.139c0.454-1.624,0.619-5.001,0.66-7.075c-1.032-0.569-1.773-1.423-1.773-2.603
		C43.837,0.732,44.826,0,45.898,0c0.991,0,2.143,0.488,2.598,2.155c1.362,0.163,1.772,0.163,2.187,0.163h2.143
		c0.494,0,2.144,1.343,1.981,2.276c0,0.488-1.855,5.286-1.855,9.354c0,1.138,0.535,2.194,1.647,2.194
		c1.897,0,2.599-2.602,2.968-4.39c0.167-0.857,0.58-1.222,0.99-1.222c0.661,0,1.446,0.896,1.446,1.667
		c0,0.121-0.04,0.203-0.04,0.285c-0.745,2.685-2.353,6.344-5.9,6.344C52.125,18.828,49.816,17.77,49.816,14.191"/>
	<path fill="#FFFFFF" d="M65.694,15.941c-0.988,1.707-2.308,2.926-4.123,2.926c-2.765,0-4.372-2.317-4.372-5.854
		c0-4.311,1.485-9.15,1.485-9.15c0.289-0.692,0-1.502,2.186-1.502c2.021,0,0.824,1.623,0.658,2.235
		c-0.742,3.008-1.193,4.795-1.193,8.214c0,2.191,0.7,3.374,1.895,3.374c1.649,0,2.887-2.643,3.381-5.49V4.149
		c0-1.181-0.411-1.261-0.411-1.546s0.743-0.446,1.321-0.446c1.359,0,2.225,0.812,2.225,1.788v10.328c0,0.367,0,1.87,1.072,1.87
		c1.648,0,2.393-2.602,2.764-4.392c0.165-0.855,0.577-1.22,0.989-1.22c0.662,0,1.444,0.896,1.444,1.667c0,0.041,0,0.121-0.042,0.286
		c-0.74,2.681-2.35,6.34-5.898,6.34C67.223,18.825,65.984,17.569,65.694,15.941"/>
	<path fill="#FFFFFF" d="M78.356,16.672c0,1.018-0.908,1.912-2.021,1.912c-1.071,0-1.98-0.895-1.98-1.912
		c0-1.097,0.909-1.951,1.98-1.951C77.448,14.721,78.356,15.575,78.356,16.672"/>
	<path fill="#FFFFFF" d="M97.654,18.828c-2.185,0-3.461-1.749-3.461-3.822V6.752c0-1.264-0.084-2.32-0.786-2.32
		c-1.112,0-3.462,3.499-3.709,6.71v5.938c0,0.771,0.038,1.749-1.157,1.749c-0.824,0-1.977-0.286-1.977-1.788V6.752
		c0-1.264-0.087-2.32-0.786-2.32c-1.113,0-3.464,3.499-3.71,6.71v5.938c0,0.771,0.038,1.749-1.155,1.749
		c-0.824,0-1.981-0.286-1.981-1.788V4.146c0-0.771-0.163-1.016-0.163-1.3c0-0.405,0.495-0.691,1.071-0.691
		c1.36,0,2.229,0.813,2.229,1.79v1.708c1.072-2.196,2.514-3.904,4.371-3.904c2.475,0,3.174,1.993,3.259,3.823
		c1.029-2.154,2.472-3.823,4.327-3.823c2.679,0,3.298,2.235,3.298,4.108v8.416c0,0.363,0,1.87,1.074,1.87
		c1.649,0,2.393-2.604,2.762-4.39c0.164-0.857,0.579-1.222,0.989-1.222c0.659,0,1.443,0.896,1.443,1.667
		c0,0.041,0,0.121-0.041,0.285C102.807,15.169,101.202,18.828,97.654,18.828"/>
	<path fill="#FFFFFF" d="M104.707,13.623c0.58,1.383,1.69,2.521,3.836,2.521c3.216,0,4.535-2.644,5.03-5.122
		c0.372-1.832,2.682-1.017,2.516,0.406c-0.29,2.481-1.938,7.4-8.001,7.4c-3.751,0-7.298-2.969-7.298-8.052
		c0-5.165,3.136-9.025,6.31-9.025c2.311,0,3.709,1.667,3.709,4.106C110.808,8.864,108.707,12.444,104.707,13.623 M104.212,11.387
		c2.061-0.937,3.381-3.051,3.381-5.49c0-0.893-0.329-1.422-0.867-1.422c-2.02,0-2.636,4.471-2.555,6.181
		C104.171,10.896,104.212,11.142,104.212,11.387"/>
</g>
</svg>
