<svg width="150px" height="150px" viewBox="0 0 150 150" version="1.1" xmlns="http://www.w3.org/2000/svg" xmlns:xlink="http://www.w3.org/1999/xlink">
    <g id="instagram">
        <rect class="background" fill="#3F729B" x="0" y="0" width="150" height="150"></rect>
        <path d="M105.771161,115.000706 L44.2288393,115.000706 C39.132411,115.000706 35,110.866772 35,105.766675 L35,44.2283775 C35,39.1311075 39.132411,34.9992938 44.2288393,34.9992938 L105.771161,34.9992938 C110.868296,34.9992938 115,39.1311075 115,44.2283775 L115,105.766675 C115,110.866772 110.868296,115.000706 105.771161,115.000706 L105.771161,115.000706 L105.771161,115.000706 Z M74.9996467,59.6141887 C66.5023015,59.6141887 59.6149498,66.501016 59.6149498,74.9985863 C59.6149498,83.4947431 66.5023015,90.3851043 74.9996467,90.3851043 C83.496992,90.3851043 90.3857573,83.4947431 90.3857573,74.9985863 C90.3857573,66.501016 83.496992,59.6141887 74.9996467,59.6141887 L74.9996467,59.6141887 L74.9996467,59.6141887 Z M105.771161,47.3049743 C105.771161,45.6065911 104.392984,44.2283775 102.691112,44.2283775 L93.4622726,44.2283775 C91.7625209,44.2283775 90.3857573,45.6065911 90.3857573,47.3049743 L90.3857573,56.5375919 C90.3857573,58.2359751 91.7625209,59.6141887 93.4622726,59.6141887 L102.691112,59.6141887 C104.392984,59.6141887 105.771161,58.2359751 105.771161,56.5375919 L105.771161,47.3049743 L105.771161,47.3049743 Z M105.771161,68.8425656 L98.8067728,68.8425656 C99.3142248,70.8123508 99.6138896,72.8704832 99.6138896,74.9985863 C99.6138896,88.5955469 88.5941271,99.614895 74.9996467,99.614895 C61.4058733,99.614895 50.3854038,88.5955469 50.3854038,74.9985863 C50.3854038,72.8704832 50.6864824,70.8123508 51.1939343,68.8425656 L44.2288393,68.8425656 L44.2288393,102.692198 C44.2288393,104.389168 45.6070164,105.766675 47.3088884,105.766675 L102.691112,105.766675 C104.392984,105.766675 105.771161,104.389168 105.771161,102.692198 L105.771161,68.8425656 L105.771161,68.8425656 Z" class="icon" fill="#FFFFFF"></path>
    </g>
</svg>