<?xml version="1.0" encoding="utf-8"?>
<!-- Generator: Adobe Illustrator 16.0.0, SVG Export Plug-In . SVG Version: 6.00 Build 0)  -->
<!DOCTYPE svg PUBLIC "-//W3C//DTD SVG 1.1//EN" "http://www.w3.org/Graphics/SVG/1.1/DTD/svg11.dtd">
<svg version="1.1" id="Layer_1" xmlns="http://www.w3.org/2000/svg" xmlns:xlink="http://www.w3.org/1999/xlink" x="0px" y="0px"
	 width="64px" height="64px" viewBox="0 0 64 64" enable-background="new 0 0 64 64" xml:space="preserve">
<g>
	<path fill="#F9D57B" d="M32.315,63.6h-0.631C14.406,63.6,0.4,49.594,0.4,32.316v-0.632C0.4,14.407,14.406,0.4,31.685,0.4h0.631
		C49.594,0.4,63.6,14.407,63.6,31.684v0.632C63.6,49.594,49.594,63.6,32.315,63.6"/>
	<path fill="#FFFFFF" d="M26.283,51.51c0.662,0,1.201-0.449,1.201-1.109l-0.037-0.611l-0.937-19.053
		c0-0.923,0.719-1.731,1.646-1.876h0.002c0.94-0.106,1.642-0.919,1.642-1.888V15.416v-0.032v-1.966c0-0.512-0.43-0.926-0.942-0.926
		c-0.511,0-0.94,0.414-0.94,0.926v0.705v8.397c0,0.523-0.331,0.95-0.856,0.95c-0.524,0-1.024-0.427-1.024-0.95l-0.102-7.65v-1.452
		c0-0.512-0.183-0.926-0.695-0.926h-0.445c-0.511,0-0.694,0.414-0.694,0.926v1.45l-0.102,7.651c0,0.524-0.501,0.949-1.026,0.949
		c-0.523,0-0.854-0.425-0.854-0.949v-8.397v-0.704c0-0.512-0.43-0.926-0.94-0.926c-0.513,0-0.944,0.414-0.944,0.926v1.966v0.032
		v11.556c0,0.97,0.703,1.783,1.645,1.888v0.001c0.934,0.177,1.646,0.953,1.646,1.875l-0.935,19.055L22.552,50.4
		c0,0.66,0.539,1.109,1.2,1.109"/>
	<path fill="#FFFFFF" d="M43.717,49.824l-1.084-36.762c-0.008-0.246-0.221-0.429-0.465-0.41c-2.332,0.187-4.23,2.01-4.259,4.391
		l-0.2,17.449l2.539,0.029l-0.932,15.316l-0.043,0.578c-0.008,0.658,0.525,1.1,1.188,1.105l2.109,0.018
		c0.662,0.008,1.189-0.439,1.197-1.1L43.717,49.824z"/>
</g>
</svg>
