<?xml version="1.0" encoding="utf-8"?>
<!-- Generator: Adobe Illustrator 16.0.0, SVG Export Plug-In . SVG Version: 6.00 Build 0)  -->
<!DOCTYPE svg PUBLIC "-//W3C//DTD SVG 1.1//EN" "http://www.w3.org/Graphics/SVG/1.1/DTD/svg11.dtd">
<svg version="1.1" id="Layer_1" xmlns="http://www.w3.org/2000/svg" xmlns:xlink="http://www.w3.org/1999/xlink" x="0px" y="0px"
	 width="64px" height="64px" viewBox="0 0 64 64" enable-background="new 0 0 64 64" xml:space="preserve">
<g>
	<path d="M32.317,2.011c16.36,0,29.671,13.311,29.671,29.672v0.636c0,16.359-13.312,29.673-29.671,29.673h-0.636
		c-16.36,0-29.671-13.312-29.671-29.673v-0.636c0-16.361,13.311-29.672,29.671-29.672H32.317 M32.317,0.229h-0.636
		c-17.37,0-31.452,14.082-31.452,31.453v0.636c0,17.37,14.082,31.452,31.452,31.452h0.636c17.371,0,31.453-14.082,31.453-31.452
		v-0.636C63.771,14.312,49.688,0.229,32.317,0.229"/>
	<path d="M35.467,14.949l-7.87,0.084h-2.541c-0.769,0-1.394,0.626-1.394,1.395v0.799v0.059v0.488c0,0.79,0.637,1.095,1.059,1.297
		l1.202,0.432c-0.01,0.517-0.276,1.482-0.686,2.428c-0.045,0.105-0.188,0.218-0.341,0.339c-0.288,0.227-0.683,0.539-0.796,1.108
		c-0.099,0.497,0.088,0.944,0.497,1.196c0.25,0.154,0.573,0.22,0.91,0.22c0.553,0,1.142-0.182,1.495-0.458
		c1.072-0.84,1.624-2.184,2.023-3.48c0.022-0.074,0.044-0.146,0.066-0.22l1.324,0.473l0.016,0.818l0.005,0.17
		c-0.606,0.221-1.044,0.797-1.044,1.479v2.315c0,0.019,0.005,0.035,0.007,0.054c-0.002,0.019-0.007,0.036-0.007,0.056
		c0,0.326,0.266,0.591,0.592,0.591h0.181v1.355c0,2.003-2.239,3.991-3.439,4.496c-1.676,0.706-1.997,2.834-2.011,2.924
		l-0.298,11.259c0,0.871,0.709,1.58,1.58,1.58h2.444h2.704h5.861c0.873,0,1.58-0.709,1.58-1.58V33.988v-0.04
		c-0.006-0.062-0.111-1.484-0.632-2.684c-0.188-0.435-0.466-0.912-0.729-1.374c-0.391-0.669-0.867-1.5-0.867-1.903
		c0-0.601-0.004-1.122-0.008-1.397h0.104c0.326,0,0.592-0.265,0.592-0.591c0-0.03-0.005-0.058-0.011-0.085
		c0.006-0.029,0.011-0.057,0.011-0.086v-2.253c0-0.796-0.596-1.449-1.361-1.557v-1.481c0.271-0.116,1.118-0.093,1.637-0.079
		c1.129,0.031,2.195,0.062,2.729-0.521c0.151-0.167,0.323-0.455,0.28-0.889v-0.357L35.467,14.949z M37.354,19.277
		c-1.092-0.031-2.031-0.058-2.539,0.434c-0.205,0.2-0.312,0.461-0.312,0.753v1.532H34.48H34.27h-0.444h-2.208l-0.025-1.261
		l-0.009-0.468l-4.034-1.434l-2.215-0.788l-0.05-0.017l-0.05-0.023c-0.14-0.068-0.353-0.17-0.39-0.232v-0.099v-0.111v-0.279v-0.058
		v-0.799c0-0.115,0.095-0.211,0.212-0.211h2.548l7.469-0.082l3.981,3.067C38.706,19.313,37.846,19.289,37.354,19.277 M26.273,23.403
		c-0.244,0.191-0.803,0.254-1.01,0.185c0.031-0.118,0.14-0.213,0.364-0.392c0.237-0.188,0.53-0.419,0.693-0.797
		c0.175-0.402,0.627-1.521,0.752-2.487l0.903,0.324C27.623,21.438,27.157,22.711,26.273,23.403 M35.172,27.987
		c0,0.721,0.501,1.583,1.029,2.496c0.249,0.435,0.51,0.882,0.672,1.252c0.406,0.945,0.518,2.117,0.531,2.279v12.609
		c0,0.221-0.178,0.396-0.396,0.396h-5.863h-2.703h-2.443c-0.221,0-0.398-0.177-0.399-0.381l0.291-11.134
		c0.038-0.21,0.322-1.565,1.295-1.976c1.407-0.592,4.163-2.909,4.163-5.586V26.59h3.818C35.17,26.861,35.172,27.384,35.172,27.987
		 M35.861,23.575v1.831h-5.284v-1.831c0-0.22,0.177-0.396,0.396-0.396h2.851h0.656h0.983C35.686,23.179,35.861,23.355,35.861,23.575
		"/>
</g>
</svg>
