<?xml version="1.0" encoding="utf-8"?>
<!-- Generator: Adobe Illustrator 16.0.0, SVG Export Plug-In . SVG Version: 6.00 Build 0)  -->
<!DOCTYPE svg PUBLIC "-//W3C//DTD SVG 1.1//EN" "http://www.w3.org/Graphics/SVG/1.1/DTD/svg11.dtd">
<svg version="1.1" id="Layer_1" xmlns="http://www.w3.org/2000/svg" xmlns:xlink="http://www.w3.org/1999/xlink" x="0px" y="0px"
	 width="64px" height="64px" viewBox="0 0 64 64" enable-background="new 0 0 64 64" xml:space="preserve">
<g>
	<path fill="#FFFFFF" d="M32.101,0.898C14.951,0.842,0.954,14.749,0.897,31.899C0.842,49.05,14.75,63.046,31.9,63.102
		c17.149,0.057,31.145-13.85,31.202-31C63.158,14.952,49.25,0.954,32.101,0.898"/>
	<path fill="#E5235B" d="M28.327,42.997c0.003-1.166,0.317-2.045,0.943-2.639c0.626-0.592,1.535-0.887,2.727-0.885
		c1.147,0.005,2.038,0.312,2.668,0.923c0.628,0.614,0.941,1.486,0.939,2.625c-0.005,1.092-0.326,1.954-0.968,2.584
		c-0.638,0.628-1.526,0.938-2.664,0.936c-1.162-0.004-2.064-0.315-2.697-0.934C28.638,44.992,28.323,44.118,28.327,42.997
		 M34.567,35.907l-5.075-0.018l-0.995-20.313l7.194,0.023L34.567,35.907z"/>
</g>
</svg>
