<?xml version="1.0" encoding="utf-8"?>
<!-- Generator: Adobe Illustrator 16.0.0, SVG Export Plug-In . SVG Version: 6.00 Build 0)  -->
<!DOCTYPE svg PUBLIC "-//W3C//DTD SVG 1.1//EN" "http://www.w3.org/Graphics/SVG/1.1/DTD/svg11.dtd">
<svg version="1.1" id="Layer_1" xmlns="http://www.w3.org/2000/svg" xmlns:xlink="http://www.w3.org/1999/xlink" x="0px" y="0px"
	 width="64px" height="64px" viewBox="0 0 64 64" enable-background="new 0 0 64 64" xml:space="preserve">
<g>
	<path d="M32.315,63.6h-0.632c-17.277,0-31.284-14.006-31.284-31.283v-0.632C0.399,14.406,14.406,0.4,31.684,0.4h0.632
		c17.278,0,31.285,14.006,31.285,31.284v0.632C63.601,49.594,49.594,63.6,32.315,63.6"/>
	<path fill="#FFFFFF" d="M26.282,51.51c0.663,0,1.202-0.45,1.202-1.109l-0.038-0.611l-0.936-19.053c0-0.924,0.719-1.731,1.646-1.877
		h0.001c0.941-0.105,1.643-0.918,1.643-1.887V15.416v-0.033v-1.965c0-0.513-0.43-0.927-0.942-0.927c-0.511,0-0.94,0.414-0.94,0.927
		v0.704v8.397c0,0.523-0.331,0.949-0.856,0.949c-0.524,0-1.024-0.426-1.024-0.949l-0.102-7.65v-1.451
		c0-0.513-0.184-0.927-0.695-0.927h-0.445c-0.512,0-0.694,0.414-0.694,0.927v1.449l-0.102,7.65c0,0.525-0.502,0.95-1.026,0.95
		c-0.523,0-0.854-0.425-0.854-0.95v-8.396v-0.703c0-0.513-0.43-0.927-0.94-0.927c-0.513,0-0.945,0.414-0.945,0.927v1.965v0.033
		v11.557c0,0.97,0.704,1.782,1.645,1.887v0.002c0.935,0.177,1.647,0.953,1.647,1.875l-0.935,19.055L22.551,50.4
		c0,0.66,0.54,1.111,1.2,1.111"/>
	<path fill="#FFFFFF" d="M43.718,49.825l-1.086-36.763c-0.007-0.245-0.219-0.43-0.463-0.409c-2.333,0.187-4.231,2.01-4.26,4.391
		L37.71,34.492l2.539,0.029l-0.932,15.316l-0.044,0.578c-0.008,0.659,0.524,1.1,1.188,1.105l2.109,0.018
		c0.661,0.008,1.188-0.439,1.196-1.1L43.718,49.825z"/>
</g>
</svg>
