<?xml version="1.0" encoding="utf-8"?>
<!-- Generator: Adobe Illustrator 16.0.0, SVG Export Plug-In . SVG Version: 6.00 Build 0)  -->
<!DOCTYPE svg PUBLIC "-//W3C//DTD SVG 1.1//EN" "http://www.w3.org/Graphics/SVG/1.1/DTD/svg11.dtd">
<svg version="1.1" id="Layer_1" xmlns="http://www.w3.org/2000/svg" xmlns:xlink="http://www.w3.org/1999/xlink" x="0px" y="0px"
	 width="64px" height="64px" viewBox="0 0 64 64" enable-background="new 0 0 64 64" xml:space="preserve">
<g>
	<path fill="#F9D57B" d="M32.311,2.703c15.982,0,28.986,13.003,28.986,28.987v0.62c0,15.983-13.004,28.987-28.986,28.987H31.69
		c-15.984,0-28.988-13.004-28.988-28.987v-0.62c0-15.984,13.003-28.987,28.988-28.987H32.311 M32.311,0.962H31.69
		c-16.971,0-30.728,13.757-30.728,30.728v0.62c0,16.969,13.757,30.727,30.728,30.727h0.621c16.969,0,30.727-13.758,30.727-30.727
		v-0.62C63.037,14.719,49.279,0.962,32.311,0.962"/>
	<path fill="#F9D57B" d="M26.385,51.162c0.65,0,1.179-0.443,1.179-1.09l-0.037-0.6l-0.919-18.715c0-0.906,0.707-1.701,1.617-1.842
		l0,0c0.924-0.104,1.614-0.903,1.614-1.854V15.71v-0.031v-1.931c0-0.503-0.424-0.91-0.927-0.91c-0.502,0-0.924,0.407-0.924,0.91
		v0.691v8.248c0,0.515-0.326,0.933-0.841,0.933c-0.516,0-1.007-0.417-1.007-0.933l-0.1-7.514v-1.425c0-0.503-0.179-0.91-0.682-0.91
		h-0.438c-0.502,0-0.681,0.407-0.681,0.91v1.424l-0.1,7.515c0,0.515-0.492,0.932-1.008,0.932c-0.515,0-0.84-0.417-0.84-0.932v-8.248
		v-0.691c0-0.503-0.421-0.91-0.924-0.91c-0.504,0-0.927,0.407-0.927,0.91v1.931v0.032v11.351c0,0.952,0.692,1.75,1.614,1.854
		l0.002,0.001c0.917,0.173,1.617,0.935,1.617,1.841l-0.918,18.715l-0.037,0.6c0,0.648,0.529,1.09,1.179,1.09"/>
	<path fill="#F9D57B" d="M43.508,49.506l-1.064-36.107c-0.008-0.24-0.217-0.421-0.457-0.401c-2.291,0.182-4.156,1.973-4.184,4.312
		l-0.195,17.137l2.494,0.029L39.188,49.52l-0.043,0.566c-0.008,0.648,0.516,1.08,1.166,1.088l2.072,0.018
		c0.65,0.006,1.166-0.434,1.174-1.082L43.508,49.506z"/>
</g>
</svg>
