<?xml version="1.0" encoding="utf-8"?>
<!-- Generator: Adobe Illustrator 16.0.0, SVG Export Plug-In . SVG Version: 6.00 Build 0)  -->
<!DOCTYPE svg PUBLIC "-//W3C//DTD SVG 1.1//EN" "http://www.w3.org/Graphics/SVG/1.1/DTD/svg11.dtd">
<svg version="1.1" id="Layer_1" xmlns="http://www.w3.org/2000/svg" xmlns:xlink="http://www.w3.org/1999/xlink" x="0px" y="0px"
	 width="64px" height="64px" viewBox="0 0 64 64" enable-background="new 0 0 64 64" xml:space="preserve">
<g>
	<path fill="#FFFFFF" d="M32,2.185C15.561,2.185,2.186,15.56,2.186,32C2.186,48.439,15.56,61.814,32,61.814
		c16.442,0,29.814-13.373,29.814-29.813S48.441,2.185,32,2.185"/>
	<path d="M27.937,41.896c0-1.119,0.299-1.959,0.898-2.531c0.598-0.57,1.468-0.855,2.61-0.855c1.102,0,1.955,0.291,2.56,0.875
		c0.605,0.584,0.91,1.422,0.91,2.512c0,1.047-0.309,1.873-0.921,2.48c-0.609,0.605-1.459,0.906-2.55,0.906
		c-1.116,0-1.98-0.295-2.59-0.887C28.242,43.807,27.937,42.971,27.937,41.896 M33.896,35.08h-4.863l-1.018-19.469h6.899
		L33.896,35.08z"/>
</g>
</svg>
