<?xml version="1.0" encoding="utf-8"?>
<!-- Generator: Adobe Illustrator 16.0.0, SVG Export Plug-In . SVG Version: 6.00 Build 0)  -->
<!DOCTYPE svg PUBLIC "-//W3C//DTD SVG 1.1//EN" "http://www.w3.org/Graphics/SVG/1.1/DTD/svg11.dtd">
<svg version="1.1" id="Layer_1" xmlns="http://www.w3.org/2000/svg" xmlns:xlink="http://www.w3.org/1999/xlink" x="0px" y="0px"
	 width="64px" height="64px" viewBox="0 0 64 64" enable-background="new 0 0 64 64" xml:space="preserve">
<g>
	<path fill="#99E567" d="M32.315,63.6h-0.631c-17.278,0-31.285-14.006-31.285-31.284v-0.631C0.399,14.406,14.406,0.4,31.685,0.4
		h0.631c17.277,0,31.285,14.006,31.285,31.284v0.631C63.601,49.594,49.593,63.6,32.315,63.6"/>
	<path fill="#FFFFFF" d="M35.45,15.041l-7.83,0.084h-2.526c-0.767,0-1.388,0.622-1.388,1.387v0.795v0.059v0.485
		c0,0.785,0.634,1.089,1.055,1.291l1.195,0.428c-0.011,0.515-0.276,1.474-0.683,2.415c-0.044,0.104-0.188,0.217-0.339,0.336
		c-0.286,0.227-0.68,0.537-0.793,1.104c-0.097,0.494,0.089,0.939,0.496,1.189c0.25,0.153,0.569,0.22,0.904,0.22
		c0.55,0,1.136-0.182,1.487-0.457c1.065-0.834,1.615-2.172,2.013-3.46c0.023-0.074,0.045-0.147,0.065-0.221l1.319,0.472l0.016,0.812
		l0.003,0.169c-0.604,0.22-1.038,0.793-1.038,1.471v2.301c0,0.019,0.005,0.036,0.007,0.055c-0.002,0.018-0.007,0.036-0.007,0.055
		c0,0.324,0.264,0.588,0.59,0.588h0.178v1.348c0,1.992-2.225,3.97-3.419,4.472c-1.669,0.703-1.989,2.82-2,2.908l-0.297,11.197
		c0,0.867,0.705,1.572,1.57,1.572h2.431h2.689h5.834c0.867,0,1.57-0.705,1.57-1.572V33.979v-0.041
		c-0.007-0.06-0.109-1.476-0.629-2.668c-0.188-0.431-0.463-0.907-0.729-1.366c-0.384-0.666-0.861-1.493-0.861-1.895
		c0-0.596-0.004-1.116-0.008-1.39h0.104c0.326,0,0.588-0.264,0.588-0.588c0-0.029-0.004-0.057-0.008-0.085
		c0.004-0.028,0.008-0.056,0.008-0.085v-2.241c0-0.792-0.59-1.442-1.354-1.548V20.6c0.271-0.117,1.111-0.093,1.629-0.079
		c1.121,0.03,2.183,0.061,2.713-0.517c0.15-0.167,0.318-0.454,0.281-0.884v-0.356L35.45,15.041z M37.324,19.345
		c-1.083-0.03-2.02-0.056-2.524,0.434c-0.205,0.198-0.311,0.457-0.311,0.748v1.523h-0.021h-0.21h-0.445h-2.195l-0.025-1.252
		l-0.009-0.465l-4.013-1.427l-2.203-0.784l-0.048-0.016l-0.05-0.023c-0.141-0.068-0.352-0.169-0.388-0.231v-0.098v-0.112v-0.276
		v-0.058v-0.795c0-0.116,0.094-0.211,0.211-0.211h2.532l7.43-0.08l3.961,3.05C38.671,19.382,37.813,19.358,37.324,19.345
		 M26.305,23.45c-0.245,0.19-0.799,0.251-1.006,0.184c0.032-0.118,0.14-0.212,0.363-0.39c0.235-0.186,0.528-0.417,0.69-0.794
		c0.174-0.4,0.622-1.511,0.745-2.473l0.9,0.322C27.646,21.495,27.185,22.761,26.305,23.45 M35.157,28.01
		c0,0.716,0.496,1.574,1.02,2.482c0.252,0.431,0.51,0.877,0.668,1.247c0.41,0.938,0.52,2.104,0.531,2.265v12.544
		c0,0.217-0.176,0.395-0.396,0.395h-5.831H28.46h-2.431c-0.219,0-0.396-0.178-0.397-0.381l0.291-11.072
		c0.038-0.207,0.32-1.557,1.288-1.965c1.398-0.588,4.141-2.894,4.141-5.556v-1.348h3.8C35.153,26.889,35.157,27.41,35.157,28.01
		 M35.843,23.621v1.823h-5.259v-1.823c0-0.217,0.177-0.395,0.394-0.395h2.836h0.655h0.978
		C35.665,23.226,35.843,23.403,35.843,23.621"/>
</g>
</svg>
