<?xml version="1.0" encoding="UTF-8" standalone="no"?>
<svg width="76px" height="53px" viewBox="0 0 76 53" version="1.1" xmlns="http://www.w3.org/2000/svg" xmlns:xlink="http://www.w3.org/1999/xlink" xmlns:sketch="http://www.bohemiancoding.com/sketch/ns">
    <!-- Generator: Sketch 3.4.3 (16618) - http://www.bohemiancoding.com/sketch -->
    <title>Path</title>
    <desc>Created with Sketch.</desc>
    <defs></defs>
    <g id="Pending" stroke="none" stroke-width="1" fill="none" fill-rule="evenodd" sketch:type="MSPage">
        <g id="6-work-in-your-pjs" sketch:type="MSArtboardGroup" transform="translate(-12.000000, -24.000000)" stroke="#2B3234" stroke-width="3" stroke-linecap="round" stroke-linejoin="round">
            <path d="M85.8872381,53.4704781 L63.7442944,28.204991 C63.4243804,27.8786622 62.8479914,27.4078033 62.1302239,26.9860301 C60.9602268,26.2997397 59.7141028,25.9252342 58.4697913,26.0124976 L41.5306614,26.0134066 C40.2854437,25.9252342 39.0393197,26.2997397 37.8693225,26.9869391 C37.1515551,27.4087123 36.5751661,27.8795712 36.2552521,28.2059 L14.1132146,53.4713871 C13.944648,53.6622758 13.9673048,53.9549719 14.161247,54.1185908 L22.914022,61.5114386 C23.1079642,61.6750576 23.3970649,61.6477877 23.5574751,61.451445 L34.1463571,48.4310156 L34.1463571,74.545503 C34.1463571,74.7963854 34.3493621,75 34.5994931,75 L65.4000533,75 C65.6501844,75 65.8531893,74.7963854 65.8531893,74.545503 L65.8531893,48.4310156 L76.4420714,61.451445 C76.6024815,61.6477877 76.8915823,61.6750576 77.0855245,61.5114386 L85.8382995,54.1185908 C86.0331479,53.9540629 86.0548985,53.6622758 85.8872381,53.4704781 L85.8872381,53.4704781 Z M39.6601562,28 L49.6601562,41.4238281 L49.6601562,63.7753906 C49.6601562,71.608724 36,75.0351562 36,75.0351562 M60,28 L50,41.4238281 L50,63.7753906 C50,71.608724 63.6601562,75.0351562 63.6601562,75.0351562 M60.881618,27 L63.0556644,38 L49.9999998,43 L60.881618,27 L60.881618,27 Z M39.1552297,27 L36.9811833,38 L50.0368478,43 L39.1552297,27 L39.1552297,27 Z" id="Path" sketch:type="MSShapeGroup"></path>
        </g>
    </g>
</svg>