<svg viewBox="0 0 260 148" version="1.1" xmlns="http://www.w3.org/2000/svg" xmlns:xlink="http://www.w3.org/1999/xlink">
    <title>Shape</title>
    <g fill="none" fill-rule="evenodd">
        <path d="M216,17 C216,14.2 213.8,12 211,12 L49,12 C46.2,12 44,14.2 44,17 L44,114 C44,116.8 46.2,119 49,119 L211,119 C213.8,119 216,116.8 216,114 L216,17 L216,17 Z M130.5,22 L136.8,22 L124.8,33 L130.4,22.2 C130.4,22.2 130.5,23 130.5,22 L130.5,22 Z M54,22 L119.2,22 L103,53.1 L103,53.3 C103,53.4 102.9,53.5 102.9,53.6 C102.8,53.7 102.8,53.9 102.8,54 C102.8,54.1 102.7,54.2 102.7,54.3 C102.7,54.4 102.7,54.5 102.6,54.6 L102.6,54.8 L102.6,55 L102.6,55.3 L102.6,55.6 L102.6,56 L102.6,56.3 L102.6,56.6 C102.6,56.7 102.7,56.9 102.7,57 C102.7,57.1 102.7,57.2 102.8,57.3 C102.8,57.4 102.9,57.5 102.9,57.6 C102.9,57.7 103,57.8 103.1,58 C103.1,58.1 103.2,58.2 103.2,58.3 C103.2,58.4 103.3,58.5 103.3,58.5 C103.4,58.6 103.4,58.7 103.5,58.8 C103.6,58.9 103.6,59 103.7,59.1 C103.7,59.1 103.7,59.2 103.8,59.2 L103.9,59.3 C104,59.4 104.1,59.5 104.2,59.6 C104.3,59.7 104.4,59.8 104.5,59.8 C104.6,59.9 104.6,59.9 104.7,60 C104.8,60.1 104.9,60.1 105,60.2 C105.1,60.2 105.1,60.3 105.2,60.3 C105.3,60.3 105.4,60.4 105.4,60.4 C105.5,60.4 105.5,60.5 105.6,60.5 L105.7,60.5 C106,60.6 106.2,60.7 106.5,60.7 L106.6,60.7 L106.7,60.7 L121.2,63.4 L103.3,91.5 C101.8,93.8 102.5,96.9 104.8,98.4 C105.6,98.9 106.6,99.2 107.5,99.2 C109.1,99.2 110.8,98.4 111.7,96.9 L133.6,62.6 C133.6,62.6 133.6,62.6 133.6,62.5 C133.8,62.3 133.9,62 134,61.7 L134,61.6 C134.1,61.3 134.2,61 134.2,60.7 L134.2,60.7 C134.2,60.4 134.3,60.2 134.3,59.9 L134.3,59.7 C134.3,59.5 134.3,59.3 134.2,59 C134.2,58.7 134.1,58.4 134,58.2 C134,58.1 133.9,57.9 133.9,57.8 C133.9,57.7 133.8,57.6 133.7,57.5 C133.5,57.2 133.4,56.9 133.2,56.7 C133.1,56.6 133,56.4 132.8,56.3 C132.7,56.2 132.7,56.2 132.6,56.2 C132.4,56 132.2,55.9 132,55.7 L132,55.7 C131.9,55.6 131.8,55.6 131.7,55.6 C131.5,55.5 131.3,55.4 131.1,55.3 C130.9,55.2 130.7,55.2 130.5,55.1 C130.4,55.1 130.3,55 130.2,55 L130.2,55 L130.2,55 L118.5,52.6 L151.8,22 L206,22 L206,110 L54,110 L54,22 L54,22 Z M255,123 L229,123 L229,5 C229,2.2 226.9,0 224.1,0 L35.9,0 C33.1,0 31,2.3 31,5 L31,123 L5,123 C2.2,123 0,125.2 0,128 L0,143 C0,145.8 2.2,148 5,148 L255,148 C257.8,148 260,145.8 260,143 L260,128 C260,125.2 257.8,123 255,123 L255,123 Z M41,10 L219,10 L219,122 L152.6,122 L151.1,122 L41,122 L41,10 L41,10 Z M250,138 L10,138 L10,133 L106.1,133 L112.5,135.6 C113.1,135.8 113.8,136 114.4,136 L144.4,136 C145,136 145.6,135.9 146.1,135.7 L152.9,133.2 C153.1,133.1 153.2,133.1 153.3,133 L250,133 L250,138 L250,138 Z" fill="#000000"></path>
    </g>
</svg>