<svg viewBox="0 0 56 93" version="1.1" xmlns="http://www.w3.org/2000/svg" xmlns:xlink="http://www.w3.org/1999/xlink">
    <g fill="none" fill-rule="evenodd">
        <g fill="#FFFFFF">
            <path d="M14,7.5 C11.5,7.5 9.4,9.5 9.4,12.1 C9.4,14.7 11.4,16.7 14,16.7 C16.5,16.7 18.6,14.7 18.6,12.1 C18.6,9.5 16.5,7.5 14,7.5 L14,7.5 Z M14,14.8 C12.5,14.8 11.3,13.6 11.3,12.1 C11.3,10.6 12.5,9.4 14,9.4 C15.5,9.4 16.7,10.6 16.7,12.1 C16.7,13.6 15.5,14.8 14,14.8 L14,14.8 Z"></path>
            <path d="M23.4,10.1 C22.3,10.1 21.4,11 21.4,12.1 C21.4,13.2 22.3,14.1 23.4,14.1 C24.5,14.1 25.4,13.2 25.4,12.1 C25.4,11 24.6,10.1 23.4,10.1 L23.4,10.1 Z M23.3,12.1 C23.3,12 23.4,12 23.4,12 C23.5,12 23.6,12.1 23.6,12.1 C23.6,12.3 23.3,12.3 23.3,12.1 L23.3,12.1 Z"></path>
            <path d="M42.2,1.9 L50.2,1.9 C50.7,1.9 51.1,1.5 51.1,1 C51.1,0.5 50.7,0 50.2,0 L42.2,0 C41.7,0 41.3,0.4 41.3,0.9 C41.3,1.4 41.7,1.9 42.2,1.9 L42.2,1.9 Z"></path>
            <path d="M52.4,2.3 L6.2,2.3 C4.2,2.3 2.6,3.9 2.6,5.9 L2.6,88.7 C2.6,90.7 4.2,92.3 6.2,92.3 L52.4,92.3 C54.4,92.3 56,90.7 56,88.7 L56,5.9 C55.9,3.9 54.3,2.3 52.4,2.3 L52.4,2.3 Z M6.2,89.8 C5.6,89.8 5.1,89.3 5.1,88.7 L5.1,52.1 L26.7,47.6 L31.9,79 L31.9,79.2 L45.5,82 L42.6,89.7 L6.2,89.7 L6.2,89.8 Z M53.5,88.7 C53.5,89.3 53,89.8 52.4,89.8 L43.4,89.8 L46.4,81.6 L32.5,78.7 L27.2,46.9 L5.1,51.5 L5.1,5.9 C5.1,5.3 5.6,4.8 6.2,4.8 L52.4,4.8 C53,4.8 53.5,5.3 53.5,5.9 L53.5,88.7 L53.5,88.7 Z"></path>
            <path d="M2.2,31.9 L2.2,15.7 C2.2,15.2 1.8,14.8 1.3,14.8 C0.8,14.8 0.4,15.2 0.4,15.7 L0.4,31.9 C0.4,32.4 0.8,32.8 1.3,32.8 C1.8,32.8 2.2,32.4 2.2,31.9 L2.2,31.9 Z"></path>
        </g>
    </g>
</svg>