<svg class="category-household" width="250px" height="250px" viewBox="0 0 250 250" version="1.1" xmlns="http://www.w3.org/2000/svg" xmlns:xlink="http://www.w3.org/1999/xlink">
	<circle class="background" cx="125" cy="125" r="125" fill="#000000"></circle>
	<path d="M135.981589,91.5735 C136.848589,91.2025 139.333589,91.2705 140.979589,91.3155 C144.359589,91.4095 147.502589,91.4945 149.020589,89.8335 C149.440589,89.3725 149.918589,88.5665 149.805589,87.3525 L149.804589,86.3765 L135.348589,75.2505 L111.761589,75.5055 L104.117589,75.5055 C101.944589,75.5055 100.177589,77.2735 100.177589,79.4475 L100.177589,83.4935 C100.177589,85.7085 101.935589,86.5525 103.219589,87.1685 L106.981589,88.5125 L106.977589,88.6925 C106.943589,90.3095 106.106589,93.2825 104.894589,96.0905 C104.735589,96.4615 104.283589,96.8185 103.803589,97.1975 C102.955589,97.8675 101.811589,98.7725 101.491589,100.3915 C101.217589,101.7815 101.733589,103.0275 102.872589,103.7275 C103.539589,104.1365 104.439589,104.3535 105.474589,104.3535 C107.084589,104.3535 108.789589,103.8315 109.818589,103.0245 C113.088589,100.4655 114.687589,96.3625 115.820589,92.6875 C115.864589,92.5445 115.906589,92.4035 115.947589,92.2635 L116.094589,91.7715 L120.487589,93.3435 L120.556589,96.6635 L120.387589,96.7255 C118.610589,97.3735 117.416589,99.0655 117.416589,100.9375 L117.416589,107.8985 C117.416589,107.9215 117.419589,107.9445 117.422589,107.9675 L117.431589,108.0415 L117.422589,108.1565 C117.419589,108.1805 117.416589,108.2035 117.416589,108.2265 C117.416589,109.0685 118.101589,109.7545 118.943589,109.7545 L119.734589,109.7545 L119.734589,114.0805 C119.734589,120.2085 112.904589,126.2905 109.243589,127.8315 C104.313589,129.9075 103.381589,136.1675 103.344589,136.4335 L102.450589,170.2565 C102.450589,172.7305 104.469589,174.7495 106.951589,174.7495 L140.062589,174.7495 C142.545589,174.7495 144.564589,172.7305 144.564589,170.2495 L144.560589,132.1415 C144.525589,131.6905 144.181589,127.6035 142.684589,124.1605 C142.122589,122.8715 141.296589,121.4415 140.497589,120.0595 C139.250589,117.8995 137.853589,115.4805 137.853589,114.2065 C137.853589,112.4055 137.842589,110.8365 137.835589,110.0065 L137.833589,109.7545 L138.395589,109.7545 C139.237589,109.7545 139.923589,109.0685 139.923589,108.2265 C139.923589,108.1645 139.914589,108.1055 139.906589,108.0465 L139.900589,107.9365 C139.913589,107.8505 139.923589,107.7845 139.923589,107.7145 L139.923589,100.9395 C139.923589,98.7205 138.256589,96.8135 136.046589,96.5045 L135.830589,96.4745 L135.830589,91.6385 L135.981589,91.5735 L135.981589,91.5735 Z M113.144589,90.9685 C112.036589,94.7295 110.638589,98.5015 107.934589,100.6205 L107.933589,100.6205 C107.339589,101.0855 106.238589,101.3085 105.421589,101.3085 C105.116589,101.3085 104.851589,101.2765 104.666589,101.2155 L104.442589,101.1425 L104.502589,100.9145 C104.622589,100.4625 105.010589,100.1385 105.686589,99.6035 C106.375589,99.0615 107.231589,98.3865 107.698589,97.3025 C108.127589,96.3095 109.558589,92.8375 109.935589,89.8935 L109.974589,89.5845 L113.210589,90.7425 L113.144589,90.9685 L113.144589,90.9685 Z M137.847589,121.5855 C138.605589,122.8965 139.388589,124.2495 139.880589,125.3805 C141.142589,128.2845 141.471589,131.9025 141.504589,132.3065 L141.505589,170.2505 C141.505589,171.0475 140.856589,171.6955 140.060589,171.6955 L106.948589,171.6955 C106.165589,171.6955 105.502589,171.0555 105.501589,170.2975 L106.376589,136.8125 C106.529589,135.9735 107.421589,131.9135 110.424589,130.6475 C114.601589,128.8925 122.788589,122.0165 122.788589,114.0815 L122.788589,109.7555 L134.775589,109.7555 L134.777589,110.0035 C134.784589,110.8165 134.796589,112.3935 134.796589,114.2075 C134.796589,116.3065 136.277589,118.8705 137.847589,121.5855 L137.847589,121.5855 Z M136.865589,100.9395 L136.865589,106.6985 L120.468589,106.6985 L120.468589,100.9395 C120.468589,100.1435 121.116589,99.4965 121.913589,99.4965 L135.421589,99.4965 C136.218589,99.4965 136.865589,100.1435 136.865589,100.9395 L136.865589,100.9395 Z M133.638589,89.5015 C133.072589,90.0515 132.773589,90.7715 132.772589,91.5845 L132.772589,96.4395 L123.602589,96.4395 L123.498589,91.1705 L104.546589,84.4175 C103.771589,84.0435 103.390589,83.8325 103.266589,83.6185 L103.232589,83.5605 L103.232589,79.4465 C103.232589,78.9575 103.629589,78.5595 104.117589,78.5595 L111.778589,78.5595 L134.324589,78.3155 L146.745589,87.8785 L146.293589,88.0245 C145.202589,88.3765 142.630589,88.3055 141.093589,88.2625 C137.875589,88.1715 135.092589,88.0915 133.638589,89.5015 L133.638589,89.5015 Z" class="icon" fill="#FFFFFF"></path>
</svg>