<svg class="category-sports" width="250px" height="250px" viewBox="0 0 250 250" version="1.1" xmlns="http://www.w3.org/2000/svg" xmlns:xlink="http://www.w3.org/1999/xlink">
    <circle class="background" cx="125" cy="125" r="125" fill="#000000"></circle>
    <path d="M162.165657,143.937374 L150.823232,143.937374 L150.706061,143.594949 C148.046465,135.785859 139.639394,115.782828 139.060606,114.49798 L139.059596,114.49596 C138.7,113.685859 137.806061,113.548485 137.437374,113.527273 L136.976768,113.540404 C131.651515,113.540404 122.817172,110.207071 117.810101,104.822222 C115.317172,102.146465 114.161616,99.3787879 114.375758,96.5969697 C114.623232,93.3171717 113.645455,90.230303 111.693939,88.1262626 C110.167677,86.4818182 108.134343,85.5767677 105.970707,85.5767677 C104.073737,85.5767677 101.112121,86.2777778 97.7707071,89.6181818 C96.2454545,91.1444444 90.1616162,96.9545455 79.689899,106.887879 C79.1181818,107.430303 78.7767677,107.753535 78.7484848,107.780808 C78.4212121,108.088889 78.2353535,108.513131 78.2313131,108.952525 C78.2282828,109.39899 78.4060606,109.832323 78.7181818,110.141414 L133.511111,163.945455 C133.828283,164.252525 134.240404,164.423232 134.669697,164.423232 L173.338384,164.423232 C174.242424,164.423232 174.986869,163.678788 175,162.764646 L175,156.762626 C175,149.690909 169.242424,143.937374 162.165657,143.937374 L162.165657,143.937374 Z M145.419192,140.194949 L145.921212,139.958586 L146.109091,140.479798 C146.79899,142.39596 147.455556,144.288889 148.062626,146.108081 C148.29697,146.777778 148.929293,147.233333 149.634343,147.233333 L162.156566,147.233333 C165.621212,147.233333 168.820202,149.121212 170.506061,152.160606 L170.921212,152.910101 L137.269697,152.90202 L130.317172,145.923232 L145.294949,140.248485 C145.338384,140.232323 145.378788,140.213131 145.419192,140.194949 L145.419192,140.194949 Z M143.343434,133.122222 C143.766667,134.20404 144.193939,135.317172 144.624242,136.453535 L144.820202,136.971717 L144.285859,137.119192 C144.233333,137.133333 144.179798,137.149495 144.128283,137.169697 L127.769697,143.367677 L123.991919,139.574747 L143.164646,132.663636 L143.343434,133.122222 L143.343434,133.122222 Z M140.150505,125.250505 L140.337374,125.69697 C140.790909,126.780808 141.263636,127.923232 141.747475,129.118182 L141.944444,129.605051 L121.421212,136.994949 L117.911111,133.472727 L140.150505,125.250505 L140.150505,125.250505 Z M88.4121212,103.134343 C92.6787879,99.0767677 98.530303,93.5010101 100.085859,91.9434343 C102.086869,89.9292929 104.119192,88.8636364 105.961616,88.8636364 C107.563636,88.8636364 108.647475,89.679798 109.273737,90.3636364 C110.587879,91.7747475 111.267677,94.0111111 111.089899,96.3434343 C110.806061,99.9949495 112.292929,103.7 115.387879,107.059596 C120.919192,113.029293 130.231313,116.542424 136.182828,116.815152 L136.494949,116.830303 L136.622222,117.114141 C137.153535,118.308081 137.845455,119.867677 138.646465,121.721212 L138.857576,122.210101 L115.357576,130.910101 L88.0373737,103.490909 L88.4121212,103.134343 L88.4121212,103.134343 Z M171.69596,161.135354 L135.339394,161.135354 L135.191919,160.990909 L82.2474747,108.993939 L85.6545455,105.756566 L135.90202,156.189899 L171.69596,156.19798 L171.69596,161.135354 Z M102.429293,148.243434 L76.6434343,148.243434 C75.7373737,148.243434 75,148.980808 75,149.887879 C75,150.793939 75.7373737,151.531313 76.6434343,151.531313 L102.429293,151.531313 C103.335354,151.531313 104.072727,150.793939 104.072727,149.887879 C104.072727,148.980808 103.335354,148.243434 102.429293,148.243434 Z M76.6434343,134.340404 L85.2393939,134.340404 C86.1454545,134.340404 86.8828283,133.60404 86.8828283,132.69697 C86.8828283,131.790909 86.1454545,131.053535 85.2393939,131.053535 L76.6434343,131.053535 C75.7373737,131.053535 75,131.790909 75,132.69697 C75,133.60404 75.7373737,134.340404 76.6434343,134.340404 Z M76.6434343,142.936364 L93.8343434,142.936364 C94.740404,142.936364 95.4777778,142.19798 95.4777778,141.291919 C95.4777778,140.384848 94.740404,139.648485 93.8343434,139.648485 L76.6434343,139.648485 C75.7373737,139.648485 75,140.384848 75,141.291919 C75,142.19798 75.7373737,142.936364 76.6434343,142.936364 Z" class="icon" fill="#FFFFFF"></path>
</svg>