<?xml version="1.0" encoding="utf-8"?>
<!-- Generator: Adobe Illustrator 17.1.0, SVG Export Plug-In . SVG Version: 6.00 Build 0)  -->
<!DOCTYPE svg PUBLIC "-//W3C//DTD SVG 1.1//EN" "http://www.w3.org/Graphics/SVG/1.1/DTD/svg11.dtd">
<svg version="1.1" id="Layer_1" xmlns="http://www.w3.org/2000/svg" xmlns:xlink="http://www.w3.org/1999/xlink" x="0px" y="0px"
	 viewBox="0 0 653 816" enable-background="new 0 0 653 816" xml:space="preserve">
<g opacity="0.4">
	<g>
		<path fill="#B5B4B5" d="M653,451.5H0v-35h653V451.5z M3,448.5h647v-29H3V448.5z"/>
	</g>
	<g>
		<path fill="#B5B4B5" d="M651.5,419.5H1.5c-0.6,0-1.2-0.4-1.4-1c-0.2-0.6,0-1.3,0.5-1.7l112.1-85c0.3-0.2,0.6-0.3,0.9-0.3h428.8
			c0.3,0,0.7,0.1,0.9,0.3l109.1,85c0.5,0.4,0.7,1.1,0.5,1.7C652.7,419.1,652.1,419.5,651.5,419.5z M6,416.5h641.2l-105.2-82H114.1
			L6,416.5z"/>
	</g>
	<g>
		<path fill="#B5B4B5" d="M280.8,507.8H68.5c-0.8,0-1.5-0.7-1.5-1.5V450c0-0.8,0.7-1.5,1.5-1.5h212.3c0.8,0,1.5,0.7,1.5,1.5v56.3
			C282.3,507.2,281.7,507.8,280.8,507.8z M70,504.8h209.3v-53.3H70V504.8z"/>
	</g>
	<g>
		<path fill="#B5B4B5" d="M280.8,564.2H68.5c-0.8,0-1.5-0.7-1.5-1.5v-56.3c0-0.8,0.7-1.5,1.5-1.5h212.3c0.8,0,1.5,0.7,1.5,1.5v56.3
			C282.3,563.5,281.7,564.2,280.8,564.2z M70,561.2h209.3v-53.3H70V561.2z"/>
	</g>
	<g>
		<path fill="#B5B4B5" d="M48.5,797.5h-11c-0.8,0-1.5-0.7-1.5-1.5l-5-346c0-0.4,0.1-0.8,0.4-1.1c0.3-0.3,0.7-0.4,1.1-0.4h20
			c0.4,0,0.8,0.2,1.1,0.4c0.3,0.3,0.4,0.7,0.4,1.1l-4,346C50,796.8,49.3,797.5,48.5,797.5z M39,794.5h8l4-343H34L39,794.5z"/>
	</g>
	<g>
		<path fill="#B5B4B5" d="M616.2,797.5h-11c-0.8,0-1.5-0.7-1.5-1.5l-5-346c0-0.4,0.1-0.8,0.4-1.1c0.3-0.3,0.7-0.4,1.1-0.4h20
			c0.4,0,0.8,0.2,1.1,0.4c0.3,0.3,0.4,0.7,0.4,1.1l-4,346C617.7,796.8,617,797.5,616.2,797.5z M606.7,794.5h8l4-343h-17L606.7,794.5
			z"/>
	</g>
	<g>
		<path fill="#B5B4B5" d="M49,816H37.5c-1.1,0-2-0.9-2-2v-18c0-1.1,0.9-2,2-2H49c1.1,0,2,0.9,2,2v18C51,815.1,50.1,816,49,816z
			 M39.5,812H47v-14h-7.5V812z"/>
	</g>
	<g>
		<path fill="#B5B4B5" d="M615.9,816h-11.5c-1.1,0-2-0.9-2-2v-18c0-1.1,0.9-2,2-2h11.5c1.1,0,2,0.9,2,2v18
			C617.9,815.1,617,816,615.9,816z M606.5,812h7.5v-14h-7.5V812z"/>
	</g>
	<g>
		<path fill="#B5B4B5" d="M181.8,485.5h-14.2c-1.1,0-2-0.9-2-2v-9c0-1.1,0.9-2,2-2h14.2c1.1,0,2,0.9,2,2v9
			C183.8,484.6,182.9,485.5,181.8,485.5z M169.6,481.5h10.2v-5h-10.2V481.5z"/>
	</g>
	<g>
		<rect x="155.5" y="459.5" fill="#FFFFFF" width="45" height="18.7"/>
	</g>
	<g>
		<path fill="#B5B4B5" d="M181.8,539h-14.2c-1.1,0-2-0.9-2-2v-9c0-1.1,0.9-2,2-2h14.2c1.1,0,2,0.9,2,2v9
			C183.8,538.1,182.9,539,181.8,539z M169.6,535h10.2v-5h-10.2V535z"/>
	</g>
	<g>
		<rect x="155.5" y="513" fill="#FFFFFF" width="45" height="18.7"/>
	</g>
	<g>
		<rect x="155.5" y="510.5" fill="#FFFFFF" width="45" height="18.7"/>
	</g>
	<g>
		<path fill="#B5B4B5" d="M551.3,135H101.2c-0.8,0-1.5-0.7-1.5-1.5v-24c0-0.8,0.7-1.5,1.5-1.5h450.1c0.8,0,1.5,0.7,1.5,1.5v24
			C552.8,134.3,552.1,135,551.3,135z M102.7,132h447.1v-21H102.7V132z"/>
	</g>
	<g>
		<path fill="#B5B4B5" d="M157,196.5h-8.2c-0.8,0-1.4-0.6-1.5-1.4l-3.8-61.5c0-0.4,0.1-0.8,0.4-1.1c0.3-0.3,0.7-0.5,1.1-0.5h15
			c0.4,0,0.8,0.2,1.1,0.5c0.3,0.3,0.4,0.7,0.4,1.1l-3,61.5C158.5,195.9,157.8,196.5,157,196.5z M150.2,193.5h5.4l2.9-58.5h-11.8
			L150.2,193.5z"/>
	</g>
	<g>
		<path fill="#B5B4B5" d="M511.8,196.5h-8.2c-0.8,0-1.4-0.6-1.5-1.4l-3.8-61.5c0-0.4,0.1-0.8,0.4-1.1c0.3-0.3,0.7-0.5,1.1-0.5h15
			c0.4,0,0.8,0.2,1.1,0.5c0.3,0.3,0.4,0.7,0.4,1.1l-3,61.5C513.3,195.9,512.6,196.5,511.8,196.5z M505,193.5h5.4l2.9-58.5h-11.8
			L505,193.5z"/>
	</g>
	<g>
		<path fill="#B5B4B5" d="M236.5,111H178c-0.8,0-1.5-0.7-1.5-1.5V31.3c0-0.8,0.7-1.5,1.5-1.5h58.5c0.8,0,1.5,0.7,1.5,1.5v78.2
			C238,110.3,237.3,111,236.5,111z M179.5,108H235V32.8h-55.5V108z"/>
	</g>
	<g>
		<path fill="#B5B4B5" d="M481.5,111H423c-0.8,0-1.5-0.7-1.5-1.5V31.3c0-0.8,0.7-1.5,1.5-1.5h58.5c0.8,0,1.5,0.7,1.5,1.5v78.2
			C483,110.3,482.3,111,481.5,111z M424.5,108H480V32.8h-55.5V108z"/>
	</g>
	<g>
		<path fill="#B5B4B5" d="M207.5,88.1c-11.9,0-21.5-9.6-21.5-21.5s9.6-21.5,21.5-21.5S229,54.7,229,66.6S219.4,88.1,207.5,88.1z
			 M207.5,48.1c-10.2,0-18.5,8.3-18.5,18.5s8.3,18.5,18.5,18.5S226,76.8,226,66.6S217.7,48.1,207.5,48.1z"/>
	</g>
	<g>
		<path fill="#B5B4B5" d="M452.3,88.1c-11.9,0-21.5-9.6-21.5-21.5s9.6-21.5,21.5-21.5s21.5,9.6,21.5,21.5S464.1,88.1,452.3,88.1z
			 M452.3,48.1c-10.2,0-18.5,8.3-18.5,18.5s8.3,18.5,18.5,18.5s18.5-8.3,18.5-18.5S462.5,48.1,452.3,48.1z"/>
	</g>
	<g>
		<path fill="#B5B4B5" d="M207.3,71.4c-2.6,0-4.7-2.1-4.7-4.7s2.1-4.7,4.7-4.7s4.7,2.1,4.7,4.7S209.8,71.4,207.3,71.4z M207.3,64
			c-1.5,0-2.7,1.2-2.7,2.7c0,1.5,1.2,2.7,2.7,2.7s2.7-1.2,2.7-2.7C210,65.2,208.7,64,207.3,64z"/>
	</g>
	<g>
		<path fill="#B5B4B5" d="M452.3,71.4c-2.6,0-4.7-2.1-4.7-4.7s2.1-4.7,4.7-4.7s4.7,2.1,4.7,4.7S454.8,71.4,452.3,71.4z M452.3,64
			c-1.5,0-2.7,1.2-2.7,2.7c0,1.5,1.2,2.7,2.7,2.7s2.7-1.2,2.7-2.7C455,65.2,453.7,64,452.3,64z"/>
	</g>
	<g>
		<path fill="#B5B4B5" d="M290.2,111h-20.1c-0.8,0-1.5-0.7-1.5-1.5V8.7c0-0.8,0.7-1.5,1.5-1.5h20.1c0.8,0,1.5,0.7,1.5,1.5v100.8
			C291.7,110.3,291,111,290.2,111z M271.6,108h17.1V10.2h-17.1V108z"/>
	</g>
	<g>
		<path fill="#B5B4B5" d="M306.2,111.5h-16c-1.1,0-2-0.9-2-2V2c0-1.1,0.9-2,2-2h16c1.1,0,2,0.9,2,2v107.5
			C308.2,110.6,307.3,111.5,306.2,111.5z M292.2,107.5h12V4h-12V107.5z"/>
	</g>
	<g>
		<path fill="#B5B4B5" d="M369.9,111.1c-0.1,0-0.2,0-0.2,0c-0.4-0.1-0.7-0.3-1-0.6L309,29.2c-0.5-0.7-0.3-1.6,0.3-2.1l10-7.3
			c0.3-0.2,0.7-0.3,1.1-0.3c0.4,0.1,0.7,0.3,1,0.6l59.7,81.3c0.5,0.7,0.3,1.6-0.3,2.1l-10,7.3C370.6,111,370.3,111.1,369.9,111.1z
			 M312.4,28.6l57.9,78.9l7.5-5.5l-57.9-78.9L312.4,28.6z"/>
	</g>
	<g>
		<rect x="290.2" y="10.8" fill="#B5B4B5" width="16" height="4"/>
	</g>
	<g>
		<rect x="290.2" y="97" fill="#B5B4B5" width="16" height="4"/>
	</g>
	<g>
		<rect x="270.1" y="16.3" fill="#B5B4B5" width="20.1" height="8"/>
	</g>
	<g>
		<rect x="270.1" y="93" fill="#B5B4B5" width="20.1" height="8"/>
	</g>
	<g>
		<rect x="279.1" y="34.3" fill="#B5B4B5" width="2" height="31"/>
	</g>
	<g>
		<rect x="297.2" y="26.7" fill="#B5B4B5" width="2" height="23.1"/>
	</g>
	<g>
		
			<rect x="320.2" y="26.5" transform="matrix(0.5718 0.8204 -0.8204 0.5718 164.3412 -249.4634)" fill="#B5B4B5" width="2" height="12.4"/>
	</g>
	<g>
		
			<rect x="322.2" y="29.5" transform="matrix(0.5718 0.8204 -0.8204 0.5718 167.6614 -249.82)" fill="#B5B4B5" width="2" height="12.4"/>
	</g>
	<g>
		<g>
			<rect x="220.8" y="342.8" fill="#FFFFFF" width="31" height="34.5"/>
			<path fill="#B5B4B5" d="M251.8,378.8h-31c-0.8,0-1.5-0.7-1.5-1.5v-34.5c0-0.8,0.7-1.5,1.5-1.5h31c0.8,0,1.5,0.7,1.5,1.5v34.5
				C253.3,378.1,252.6,378.8,251.8,378.8z M222.3,375.8h28v-31.5h-28V375.8z"/>
		</g>
		<g>
			<path fill="#FFFFFF" d="M351.9,355.1H120.6c-1.8,0-3.3-1.5-3.3-3.3V216c0-1.8,1.5-3.3,3.3-3.3h231.4c1.8,0,3.3,1.5,3.3,3.3v135.8
				C355.2,353.6,353.8,355.1,351.9,355.1z"/>
			<path fill="#B5B4B5" d="M351.9,357.1H120.6c-2.9,0-5.3-2.4-5.3-5.3V216c0-2.9,2.4-5.3,5.3-5.3h231.4c2.9,0,5.3,2.4,5.3,5.3v135.8
				C357.2,354.7,354.9,357.1,351.9,357.1z M120.6,214.8c-0.7,0-1.3,0.6-1.3,1.3v135.8c0,0.7,0.6,1.3,1.3,1.3h231.4
				c0.7,0,1.3-0.6,1.3-1.3V216c0-0.7-0.6-1.3-1.3-1.3H120.6z"/>
		</g>
		<g>
			<rect x="129.6" y="225.9" fill="#FFFFFF" width="213.4" height="114.6"/>
			<path fill="#B5B4B5" d="M343,342H129.6c-0.8,0-1.5-0.7-1.5-1.5V225.9c0-0.8,0.7-1.5,1.5-1.5H343c0.8,0,1.5,0.7,1.5,1.5v114.6
				C344.5,341.3,343.8,342,343,342z M131.1,339h210.4V227.4H131.1V339z"/>
		</g>
		<g>
			<rect x="198.2" y="377.3" fill="#FFFFFF" width="76.1" height="5"/>
			<path fill="#B5B4B5" d="M274.3,383.8h-76.1c-0.8,0-1.5-0.7-1.5-1.5v-5c0-0.8,0.7-1.5,1.5-1.5h76.1c0.8,0,1.5,0.7,1.5,1.5v5
				C275.8,383.1,275.2,383.8,274.3,383.8z M199.7,380.8h73.1v-2h-73.1V380.8z"/>
		</g>
	</g>
	<g>
		<g>
			
				<rect x="444" y="212.8" transform="matrix(0.718 0.696 -0.696 0.718 289.385 -277.5299)" fill="#FFFFFF" width="86.3" height="11.1"/>
			<path fill="#B5B4B5" d="M514.3,253.9c-0.4,0-0.8-0.2-1-0.4l-62-60.1c-0.6-0.6-0.6-1.5,0-2.1l7.7-8c0.3-0.3,0.7-0.4,1.1-0.5
				c0.4,0,0.8,0.1,1.1,0.4l62,60.1c0.6,0.6,0.6,1.5,0,2.1l-7.7,8C515.1,253.7,514.7,253.9,514.3,253.9
				C514.3,253.9,514.3,253.9,514.3,253.9z M454.5,192.3l59.8,58l5.7-5.8l-59.8-58L454.5,192.3z"/>
		</g>
		<g>
			<rect x="396.4" y="184.3" fill="#FFFFFF" width="62.8" height="15"/>
			<path fill="#B5B4B5" d="M459.2,200.8h-62.8c-0.8,0-1.5-0.7-1.5-1.5v-15c0-0.8,0.7-1.5,1.5-1.5h62.8c0.8,0,1.5,0.7,1.5,1.5v15
				C460.7,200.2,460,200.8,459.2,200.8z M397.9,197.8h59.8v-12h-59.8V197.8z"/>
		</g>
		<g>
			<path fill="#FFFFFF" d="M411.9,164.5c-20.5-14-48.5-8.8-62.6,11.7l74.3,50.9C437.6,206.5,432.4,178.5,411.9,164.5z"/>
			<path fill="#B5B4B5" d="M423.6,228.6c-0.3,0-0.6-0.1-0.8-0.3l-74.3-50.9c-0.3-0.2-0.6-0.6-0.6-1c-0.1-0.4,0-0.8,0.2-1.1
				c8.7-12.7,23-20.2,38.4-20.2c9.4,0,18.5,2.8,26.2,8.1c21.2,14.5,26.6,43.5,12.1,64.6C424.5,228.3,424.1,228.6,423.6,228.6z
				 M351.5,175.8l71.7,49.1c12.5-19.7,7.2-45.9-12.1-59.2c-7.3-5-15.8-7.6-24.5-7.6C372.6,158.1,359.6,164.7,351.5,175.8z"/>
		</g>
		<g>
			<rect x="514.3" y="255.4" fill="#FFFFFF" width="12.4" height="89.1"/>
			<path fill="#B5B4B5" d="M526.7,346h-12.4c-0.8,0-1.5-0.7-1.5-1.5v-89.1c0-0.8,0.7-1.5,1.5-1.5h12.4c0.8,0,1.5,0.7,1.5,1.5v89.1
				C528.2,345.3,527.5,346,526.7,346z M515.8,343h9.4v-86.1h-9.4V343z"/>
		</g>
		<g>
			<circle fill="#FFFFFF" cx="521" cy="250" r="7.7"/>
			<path fill="#B5B4B5" d="M521,259.3c-5.1,0-9.2-4.1-9.2-9.2s4.1-9.2,9.2-9.2s9.2,4.1,9.2,9.2S526.1,259.3,521,259.3z M521,243.8
				c-3.4,0-6.2,2.8-6.2,6.2s2.8,6.2,6.2,6.2s6.2-2.8,6.2-6.2S524.4,243.8,521,243.8z"/>
		</g>
		<g>
			
				<rect x="448.4" y="217.6" transform="matrix(0.721 0.6929 -0.6929 0.721 287.3369 -276.4864)" fill="#B5B4B5" width="77.2" height="2"/>
		</g>
		<g>
			<path fill="#FFFFFF" d="M520.1,337.7c-9.6-0.1-17.4,5.8-17.5,13.1l34.6,0.4C537.4,343.9,529.7,337.8,520.1,337.7z"/>
			<path fill="#B5B4B5" d="M537.3,352.7C537.3,352.7,537.3,352.7,537.3,352.7l-34.7-0.4c-0.4,0-0.8-0.2-1.1-0.5
				c-0.3-0.3-0.4-0.7-0.4-1.1c0.1-8.1,8.5-14.6,18.7-14.6l0.3,0c10.4,0.1,18.8,6.8,18.7,15C538.8,352.1,538.1,352.7,537.3,352.7z
				 M504.3,349.4l31.4,0.3c-0.9-5.8-7.5-10.4-15.6-10.5l-0.2,0C512,339.2,505.4,343.7,504.3,349.4z"/>
		</g>
		<g>
			<rect x="519" y="257.8" fill="#B5B4B5" width="2" height="79.5"/>
		</g>
	</g>
</g>
</svg>
