<?xml version="1.0" encoding="utf-8"?>
<!-- Generator: Adobe Illustrator 16.0.0, SVG Export Plug-In . SVG Version: 6.00 Build 0)  -->
<!DOCTYPE svg PUBLIC "-//W3C//DTD SVG 1.1//EN" "http://www.w3.org/Graphics/SVG/1.1/DTD/svg11.dtd">
<svg version="1.1" id="Layer_1" xmlns="http://www.w3.org/2000/svg" xmlns:xlink="http://www.w3.org/1999/xlink" x="0px" y="0px"
	 width="388.907px" height="486.087px" viewBox="110.359 176.349 388.907 486.087"
	 enable-background="new 110.359 176.349 388.907 486.087" xml:space="preserve">
<g opacity="0.4">
	
		<rect x="111.859" y="425.329" fill="none" stroke="#B5B4B5" stroke-width="3" stroke-miterlimit="10" width="385.907" height="18.998"/>
	<polygon fill="none" stroke="#B5B4B5" stroke-width="3" stroke-linejoin="round" stroke-miterlimit="10" points="497.766,425.329 
		111.859,425.329 178.413,374.864 432.993,374.864 	"/>
	
		<rect x="151.637" y="444.327" fill="none" stroke="#B5B4B5" stroke-width="3" stroke-linejoin="round" stroke-miterlimit="10" width="126.043" height="33.426"/>
	
		<rect x="151.637" y="477.812" fill="none" stroke="#B5B4B5" stroke-width="3" stroke-linejoin="round" stroke-miterlimit="10" width="126.043" height="33.425"/>
	<polygon fill="none" stroke="#B5B4B5" stroke-width="3" stroke-linejoin="round" stroke-miterlimit="10" points="139.763,649.749 
		133.232,649.749 130.264,444.327 142.138,444.327 	"/>
	<polygon fill="none" stroke="#B5B4B5" stroke-width="3" stroke-linejoin="round" stroke-miterlimit="10" points="476.809,649.749 
		470.277,649.749 467.31,444.327 479.184,444.327 	"/>
	
		<rect x="133.232" y="649.749" fill="none" stroke="#B5B4B5" stroke-width="4" stroke-linejoin="round" stroke-miterlimit="10" width="6.828" height="10.687"/>
	
		<rect x="469.803" y="649.749" fill="none" stroke="#B5B4B5" stroke-width="4" stroke-linejoin="round" stroke-miterlimit="10" width="6.827" height="10.687"/>
	
		<rect x="210.473" y="458.873" fill="none" stroke="#B5B4B5" stroke-width="4" stroke-linejoin="round" stroke-miterlimit="10" width="8.431" height="5.344"/>
	<rect x="203.29" y="449.968" fill="#FFFFFF" width="26.716" height="11.103"/>
	
		<rect x="210.473" y="490.637" fill="none" stroke="#B5B4B5" stroke-width="4" stroke-linejoin="round" stroke-miterlimit="10" width="8.431" height="5.343"/>
	<rect x="203.29" y="481.73" fill="#FFFFFF" width="26.716" height="11.103"/>
	<rect x="203.29" y="480.246" fill="#FFFFFF" width="26.716" height="11.103"/>
	
		<rect x="171.051" y="242.171" fill="none" stroke="#B5B4B5" stroke-width="3" stroke-linejoin="round" stroke-miterlimit="10" width="267.226" height="14.249"/>
	<polygon fill="none" stroke="#B5B4B5" stroke-width="3" stroke-linejoin="round" stroke-miterlimit="10" points="204.18,292.933 
		199.312,292.933 197.056,256.42 205.961,256.42 	"/>
	<polygon fill="none" stroke="#B5B4B5" stroke-width="3" stroke-linejoin="round" stroke-miterlimit="10" points="414.826,292.933 
		409.957,292.933 407.701,256.42 416.606,256.42 	"/>
	
		<rect x="216.647" y="195.803" fill="none" stroke="#B5B4B5" stroke-width="3" stroke-linejoin="round" stroke-miterlimit="10" width="34.732" height="46.428"/>
	
		<rect x="362.104" y="195.803" fill="none" stroke="#B5B4B5" stroke-width="3" stroke-linejoin="round" stroke-miterlimit="10" width="34.732" height="46.428"/>
	
		<circle fill="none" stroke="#B5B4B5" stroke-width="3" stroke-linejoin="round" stroke-miterlimit="10" cx="234.162" cy="216.702" r="11.874"/>
	
		<circle fill="none" stroke="#B5B4B5" stroke-width="3" stroke-linejoin="round" stroke-miterlimit="10" cx="379.441" cy="216.702" r="11.874"/>
	
		<circle fill="none" stroke="#B5B4B5" stroke-width="2" stroke-linejoin="round" stroke-miterlimit="10" cx="233.984" cy="216.761" r="2.197"/>
	
		<circle fill="none" stroke="#B5B4B5" stroke-width="2" stroke-linejoin="round" stroke-miterlimit="10" cx="379.441" cy="216.761" r="2.197"/>
	
		<rect x="271.328" y="182.326" fill="none" stroke="#B5B4B5" stroke-width="3" stroke-linejoin="round" stroke-miterlimit="10" width="11.934" height="59.845"/>
	
		<rect x="283.261" y="178.349" fill="none" stroke="#B5B4B5" stroke-width="4" stroke-linejoin="round" stroke-miterlimit="10" width="9.499" height="63.823"/>
	
		<rect x="312.165" y="186" transform="matrix(-0.806 0.5919 -0.5919 -0.806 698.2265 203.0078)" fill="none" stroke="#B5B4B5" stroke-width="3" stroke-linejoin="round" stroke-miterlimit="10" width="7.362" height="59.845"/>
	
		<line fill="none" stroke="#B5B4B5" stroke-width="4" stroke-linejoin="round" stroke-miterlimit="10" x1="283.261" y1="184.76" x2="292.76" y2="184.76"/>
	
		<line fill="none" stroke="#B5B4B5" stroke-width="4" stroke-linejoin="round" stroke-miterlimit="10" x1="283.261" y1="235.938" x2="292.76" y2="235.938"/>
	<rect x="271.328" y="186.898" fill="#B5B4B5" width="11.934" height="4.75"/>
	<rect x="271.328" y="232.375" fill="#B5B4B5" width="11.934" height="4.75"/>
	
		<line fill="none" stroke="#B5B4B5" stroke-width="2" stroke-linejoin="round" stroke-miterlimit="10" x1="277.265" y1="197.584" x2="277.265" y2="215.93"/>
	
		<line fill="none" stroke="#B5B4B5" stroke-width="2" stroke-linejoin="round" stroke-miterlimit="10" x1="288.011" y1="193.013" x2="288.011" y2="206.728"/>
	
		<line fill="none" stroke="#B5B4B5" stroke-width="2" stroke-linejoin="round" stroke-miterlimit="10" x1="298.638" y1="198.712" x2="304.634" y2="194.497"/>
	
		<line fill="none" stroke="#B5B4B5" stroke-width="2" stroke-linejoin="round" stroke-miterlimit="10" x1="299.826" y1="200.494" x2="305.822" y2="196.278"/>
	<g>
		
			<rect x="242.058" y="380.683" fill="#FFFFFF" stroke="#B5B4B5" stroke-width="3" stroke-linejoin="round" stroke-miterlimit="10" width="18.405" height="20.482"/>
		<path fill="#FFFFFF" stroke="#B5B4B5" stroke-width="4" stroke-linejoin="round" stroke-miterlimit="10" d="M319.893,387.985
			H182.569c-1.069,0-1.959-0.891-1.959-1.959V305.46c0-1.069,0.891-1.959,1.959-1.959h137.383c1.068,0,1.959,0.891,1.959,1.959
			v80.625C321.852,387.094,321.021,387.985,319.893,387.985z"/>
		
			<rect x="187.913" y="311.278" fill="#FFFFFF" stroke="#B5B4B5" stroke-width="3" stroke-linejoin="round" stroke-miterlimit="10" width="126.696" height="68.039"/>
		
			<rect x="228.641" y="401.165" fill="#FFFFFF" stroke="#B5B4B5" stroke-width="3" stroke-linejoin="round" stroke-miterlimit="10" width="45.181" height="2.969"/>
	</g>
	<g>
		
			<rect x="374.612" y="303.475" transform="matrix(-0.718 -0.696 0.696 -0.718 474.0858 805.6062)" fill="#FFFFFF" stroke="#B5B4B5" stroke-width="3" stroke-linejoin="round" stroke-miterlimit="10" width="51.235" height="6.59"/>
		
			<rect x="346.312" y="286.64" fill="#FFFFFF" stroke="#B5B4B5" stroke-width="3" stroke-linejoin="round" stroke-miterlimit="10" width="37.284" height="8.906"/>
		<path fill="#FFFFFF" stroke="#B5B4B5" stroke-width="3" stroke-linejoin="round" stroke-miterlimit="10" d="M355.515,274.825
			c-12.171-8.312-28.794-5.225-37.166,6.946l44.112,30.22C370.773,299.82,367.686,283.196,355.515,274.825z"/>
		
			<rect x="416.311" y="328.793" fill="#FFFFFF" stroke="#B5B4B5" stroke-width="3" stroke-linejoin="round" stroke-miterlimit="10" width="7.361" height="52.899"/>
		
			<circle fill="#FFFFFF" stroke="#B5B4B5" stroke-width="3" stroke-linejoin="round" stroke-miterlimit="10" cx="420.288" cy="325.587" r="4.572"/>
		
			<line fill="none" stroke="#B5B4B5" stroke-width="2" stroke-linejoin="round" stroke-miterlimit="10" x1="383.597" y1="291.093" x2="416.666" y2="322.856"/>
		<path fill="#FFFFFF" stroke="#B5B4B5" stroke-width="3" stroke-linejoin="round" stroke-miterlimit="10" d="M419.754,377.714
			c-5.7-0.059-10.331,3.443-10.391,7.777l20.543,0.238C430.024,381.335,425.453,377.773,419.754,377.714z"/>
		
			<line fill="none" stroke="#B5B4B5" stroke-width="2" stroke-linejoin="round" stroke-miterlimit="10" x1="419.694" y1="330.218" x2="419.694" y2="377.417"/>
	</g>
</g>
</svg>
