<?xml version="1.0" encoding="utf-8"?>
<!-- Generator: Adobe Illustrator 16.0.0, SVG Export Plug-In . SVG Version: 6.00 Build 0)  -->
<!DOCTYPE svg PUBLIC "-//W3C//DTD SVG 1.1//EN" "http://www.w3.org/Graphics/SVG/1.1/DTD/svg11.dtd">
<svg version="1.1" id="Layer_1" xmlns="http://www.w3.org/2000/svg" xmlns:xlink="http://www.w3.org/1999/xlink" x="0px" y="0px"
	 width="88.959px" height="162.676px" viewBox="261.532 261.332 88.959 162.676"
	 enable-background="new 261.532 261.332 88.959 162.676" xml:space="preserve">
<g>
	<path fill="white" d="M334.557,345.654c0,0-0.059,0.06-0.118,0.178s-0.179,0.237-0.356,0.416s-0.356,0.416-0.594,0.653
		c-0.237,0.237-0.534,0.475-0.831,0.771s-0.712,0.535-1.128,0.772c-0.178,0.119-0.416,0.237-0.653,0.356
		c-0.237,0.119-0.475,0.237-0.712,0.356c-0.238,0.119-0.535,0.178-0.772,0.297c-0.297,0.06-0.534,0.119-0.831,0.178
		c-0.534,0.178-1.128,0.178-1.722,0.237c-0.594,0-1.188,0-1.781,0c-0.594-0.059-1.188-0.119-1.722-0.297s-1.009-0.416-1.425-0.653
		c-0.415-0.297-0.771-0.594-1.128-0.891c-0.178-0.119-0.297-0.297-0.475-0.416c-0.119-0.178-0.238-0.297-0.356-0.416
		c-0.237-0.297-0.416-0.535-0.534-0.772c-0.297-0.416-0.356-0.712-0.356-0.712l0.178-0.238c0,0,0.297,0,0.831,0.119
		c0.238,0.059,0.535,0.119,0.832,0.178c0.178,0.06,0.297,0.119,0.475,0.119c0.178,0.059,0.356,0.059,0.534,0.119
		c0.356,0.059,0.771,0.178,1.128,0.297c0.416,0.059,0.831,0.178,1.188,0.356c0.416,0.119,0.831,0.297,1.247,0.475
		c0.415,0.119,0.891,0.297,1.365,0.356c0.475,0,0.95,0.119,1.425,0.06c0.237,0,0.476,0,0.713,0c0.237-0.06,0.475-0.06,0.712-0.119
		c0.237,0,0.476-0.06,0.653-0.119c0.237-0.06,0.416-0.119,0.653-0.178c0.415-0.119,0.771-0.238,1.128-0.416
		c0.712-0.297,1.247-0.594,1.662-0.832c0.178-0.119,0.356-0.237,0.416-0.296c0.118-0.06,0.178-0.119,0.178-0.119L334.557,345.654z"
		/>
</g>
<g>
	<path fill="white" d="M291.692,345.654c0,0-0.06,0.06-0.119,0.178c-0.06,0.119-0.178,0.237-0.356,0.416s-0.356,0.416-0.594,0.653
		c-0.237,0.237-0.534,0.475-0.831,0.771s-0.712,0.535-1.128,0.772c-0.178,0.119-0.416,0.237-0.653,0.356
		c-0.237,0.119-0.475,0.237-0.712,0.356s-0.534,0.178-0.772,0.297c-0.297,0.06-0.534,0.119-0.831,0.178
		c-0.534,0.178-1.128,0.178-1.722,0.237c-0.594,0-1.188,0-1.781,0c-0.594-0.059-1.188-0.119-1.722-0.297s-1.009-0.416-1.425-0.653
		c-0.416-0.297-0.772-0.594-1.128-0.891c-0.178-0.119-0.297-0.297-0.475-0.416c-0.119-0.178-0.237-0.297-0.356-0.416
		c-0.238-0.297-0.416-0.535-0.535-0.772c-0.297-0.416-0.356-0.712-0.356-0.712l0.178-0.238c0,0,0.297,0,0.832,0.119
		c0.237,0.059,0.534,0.119,0.831,0.178c0.178,0.06,0.297,0.119,0.475,0.119c0.178,0.059,0.356,0.059,0.534,0.119
		c0.356,0.059,0.772,0.178,1.128,0.297c0.416,0.059,0.831,0.178,1.188,0.356c0.416,0.119,0.831,0.297,1.247,0.475
		c0.416,0.119,0.891,0.297,1.366,0.356c0.475,0,0.95,0.119,1.425,0.06c0.237,0,0.475,0,0.712,0c0.238-0.06,0.475-0.06,0.712-0.119
		c0.238,0,0.475-0.06,0.653-0.119c0.237-0.06,0.416-0.119,0.653-0.178c0.416-0.119,0.772-0.238,1.128-0.416
		c0.712-0.297,1.247-0.594,1.662-0.832c0.178-0.119,0.356-0.237,0.416-0.296c0.119-0.06,0.178-0.119,0.178-0.119L291.692,345.654z"
		/>
</g>
<path fill="white" d="M342.632,333.721c-0.95-19.949-17.337-35.563-37.344-35.563c-19.771,0-36.038,15.258-37.285,34.91
	c-2.078,0.297-4.274,0.712-6.471,1.188l0.891,5.877c0.89,0,2.315,0.356,2.375,2.019c0.238,6.234,1.128,10.983,3.325,14.189
	c-0.653,0.534-1.128,1.188-1.365,1.9c0,0,2.791,0,3.087,0.297c0,0-4.156,7.302-3.503,12.052l2.493-1.484
	c0,0-1.484,11.518,1.128,15.08c0,0,2.019-2.969,2.494-3.384c0,0,1.899,11.162,3.562,13.417c0,0,1.543-2.196,2.256-2.731
	c0,0,0.832,7.125,4.453,11.162l1.543-2.553c0,0,3.8,9.084,2.85,13.418c0,0,2.85-2.315,2.85-3.088c0,0,0.356,4.928,6.471,7.719
	c0,0-0.119-2.197,0.475-2.851c0,0,6.115,5.166,2.731,8.669c0,0,4.334,0.652,5.7-3.088c1.366,3.74,5.7,3.088,5.7,3.088
	c-3.325-3.503,2.73-8.669,2.73-8.669c0.594,0.653,0.476,2.851,0.476,2.851c6.114-2.731,6.471-7.719,6.471-7.719
	c0,0.713,2.85,3.088,2.85,3.088c-0.949-4.334,2.851-13.418,2.851-13.418l1.543,2.553c3.562-4.037,4.453-11.162,4.453-11.162
	c0.712,0.535,2.256,2.731,2.256,2.731c1.662-2.196,3.562-13.417,3.562-13.417c0.475,0.416,2.493,3.384,2.493,3.384
	c2.612-3.562,1.128-15.08,1.128-15.08l2.494,1.484c0.652-4.75-3.503-12.052-3.503-12.052c0.297-0.297,3.087-0.297,3.087-0.297
	c-0.237-0.832-0.771-1.484-1.603-2.078c2.196-3.978,2.196-9.262,3.443-13.062c0.415-1.425,0.95-2.137,2.493-2.137l0.713-5.878
	C347.025,334.552,344.828,334.136,342.632,333.721z M305.288,301.779c17.811,0,32.475,13.893,33.722,31.407
	c-6.946-0.89-14.427-0.89-23.214,1.306c-3.324,0.832-7.243,1.722-10.687,1.603c-2.078-0.059-4.037-0.534-5.877-0.95
	c-9.381-2.197-18.049-3.325-27.607-2.434C273.109,315.375,287.655,301.779,305.288,301.779z M281.777,334.849
	c9.559,0.891,19.592,0.831,15.733,12.23c-2.375,7.065-6.175,12.23-15.792,12.467c-9.559,0-12.349-1.722-13.596-12.883
	C268.122,339.183,267.647,334.849,281.777,334.849z M310.274,353.312L310.274,353.312c-3.978,0.178-6.946,0.119-8.787,0.06
	c-0.594-0.06-1.306-0.119-2.078-0.119l0,0l0,0c-0.416,0-0.832-0.06-1.247-0.06c2.434-3.443,3.443-7.184,3.859-9.321
	c0.475-2.553,1.781-2.791,3.265-2.85c2.612-0.059,2.909,1.84,3.384,2.969c1.543,3.8,2.85,6.828,4.274,9.143
	C311.938,353.253,311.047,353.312,310.274,353.312z M265.806,338.055c-1.247,0-2.256-0.238-2.256-0.594
	c0-0.297,1.009-0.594,2.256-0.594c1.247,0,2.256,0.237,2.256,0.594C268.062,337.758,267.053,338.055,265.806,338.055z
	 M305.228,379.732c-6.946,0-12.646-5.343-13.18-12.171c1.722-0.237,3.8-0.712,4.512-1.722c0,0,0.95,1.484,1.069,2.909
	c0,0,1.84-1.188,3.622-3.146c0,0,1.84,2.137,1.722,2.85c0,0,3.622-2.019,3.741-2.85c0,0,1.78,2.375,4.215,2.137
	c0,0,0.713-1.306,1.425-2.137c0,0,1.604,1.84,3.8,1.425c0,0,0.237-2.019,0.594-2.375c0,0,0.594,0.119,1.306,0.238
	c0.297,0.475,0.476,1.009,0.476,1.603C318.527,373.795,312.59,379.732,305.228,379.732z M342.75,346.663
	c-1.246,11.103-4.037,12.884-13.596,12.884c-9.678-0.238-13.418-5.403-15.792-12.468c-3.859-11.399,6.174-11.281,15.732-12.23
	C343.226,334.849,342.75,339.183,342.75,346.663z M345.125,338.589c-1.247,0-2.256-0.237-2.256-0.594
	c0-0.297,1.009-0.594,2.256-0.594s2.256,0.238,2.256,0.594C347.381,338.352,346.372,338.589,345.125,338.589z"/>
<path fill="white" d="M326.482,278.269c-1.484-2.671-6.649-2.612-7.064,0.831c-0.119,1.069,0.712,2.197,1.306,3.028
	c0.594,0.891,1.307,1.722,1.959,2.553c0.891,1.009,1.781,2.019,2.731,2.969c1.128-0.713,2.256-1.484,3.325-2.256
	c0.89-0.653,1.722-1.306,2.493-2.019s1.841-1.603,1.959-2.672C333.548,277.2,328.501,276.013,326.482,278.269z"/>
<path fill="white" d="M339.247,263.485c-0.594-2.256-4.452-3.146-5.343-0.653c-0.297,0.771,0.118,1.722,0.415,2.494
	c0.297,0.771,0.653,1.543,1.01,2.256c0.475,0.891,0.95,1.84,1.484,2.672c0.949-0.297,1.899-0.713,2.85-1.069
	c0.771-0.297,1.484-0.653,2.196-1.069c0.653-0.356,1.663-0.831,1.9-1.603C344.709,263.96,341.147,262.179,339.247,263.485z"/>
<path fill="white" d="M340.731,291.627c-3.324-2.494-9.736,0.475-8.312,4.987c0.475,1.425,2.137,2.315,3.324,3.028
	c1.247,0.771,2.554,1.425,3.859,2.078c1.662,0.772,3.325,1.484,5.047,2.197c1.009-1.543,1.959-3.087,2.85-4.69
	c0.712-1.306,1.365-2.612,1.959-3.918c0.534-1.306,1.365-2.969,0.891-4.394C348.925,286.343,341.979,287.649,340.731,291.627z"/>
</svg>
