<?xml version="1.0" encoding="utf-8"?>
<!-- Generator: Adobe Illustrator 16.0.0, SVG Export Plug-In . SVG Version: 6.00 Build 0)  -->
<!DOCTYPE svg PUBLIC "-//W3C//DTD SVG 1.1//EN" "http://www.w3.org/Graphics/SVG/1.1/DTD/svg11.dtd">
<svg version="1.1" id="Layer_1" xmlns="http://www.w3.org/2000/svg" xmlns:xlink="http://www.w3.org/1999/xlink" x="0px" y="0px"
	 width="23.077px" height="40.116px" viewBox="326.076 363.118 23.077 40.116"
	 enable-background="new 326.076 363.118 23.077 40.116" xml:space="preserve">
<path fill="#FFFFFF" stroke="#8E8E8E" stroke-width="2" stroke-miterlimit="10" d="M348.153,398.672
	c0,1.959-1.604,3.562-3.562,3.562h-13.952c-1.959,0-3.562-1.604-3.562-3.562V367.68c0-1.959,1.604-3.562,3.562-3.562h13.952
	c1.959,0,3.562,1.603,3.562,3.562V398.672z"/>
<polygon fill="#526DB4" points="336.754,382.642 335.15,382.048 332.242,389.944 334.319,389.113 335.389,391.132 338.298,383.235 
	"/>
<polyline fill="#EA7A6D" points="327.552,367.562 347.56,388.994 347.56,394.931 327.552,373.202 "/>
<polygon fill="#526DB4" points="338.179,382.642 339.781,382.048 342.69,389.944 340.613,389.113 339.544,391.132 336.635,383.235 
	"/>
<polygon fill="#526DB4" stroke="#FFFFFF" stroke-miterlimit="10" points="337.585,372.311 338.06,372.608 338.595,372.371 
	338.95,372.786 339.544,372.608 339.841,373.083 340.435,372.964 340.672,373.499 341.266,373.499 341.444,374.033 341.979,374.152 
	342.098,374.686 342.632,374.864 342.632,375.458 343.166,375.695 343.047,376.289 343.522,376.586 343.344,377.18 343.76,377.536 
	343.522,378.07 343.819,378.545 343.522,379.02 343.76,379.495 343.344,379.911 343.522,380.445 343.047,380.801 343.166,381.335 
	342.632,381.632 342.632,382.226 342.098,382.404 341.979,382.938 341.444,383.057 341.266,383.592 340.672,383.592 
	340.435,384.066 339.841,384.007 339.544,384.482 338.95,384.304 338.595,384.72 338.06,384.423 337.585,384.779 337.11,384.423 
	336.635,384.72 336.22,384.304 335.686,384.482 335.329,384.007 334.795,384.066 334.498,383.592 333.904,383.592 333.726,383.057 
	333.191,382.938 333.073,382.404 332.538,382.226 332.538,381.632 332.063,381.335 332.123,380.801 331.648,380.445 
	331.826,379.911 331.41,379.495 331.707,379.02 331.352,378.545 331.707,378.07 331.41,377.536 331.826,377.18 331.648,376.586 
	332.123,376.289 332.063,375.695 332.538,375.458 332.538,374.864 333.073,374.686 333.191,374.152 333.726,374.033 
	333.904,373.499 334.498,373.499 334.795,372.964 335.329,373.083 335.686,372.608 336.22,372.786 336.635,372.371 337.11,372.608 
	"/>
</svg>
