<?xml version="1.0" encoding="utf-8"?>
<!-- Generator: Adobe Illustrator 16.0.0, SVG Export Plug-In . SVG Version: 6.00 Build 0)  -->
<!DOCTYPE svg PUBLIC "-//W3C//DTD SVG 1.1//EN" "http://www.w3.org/Graphics/SVG/1.1/DTD/svg11.dtd">
<svg version="1.1" id="Layer_1" xmlns="http://www.w3.org/2000/svg" xmlns:xlink="http://www.w3.org/1999/xlink" x="0px" y="0px"
	 width="73.363px" height="79.656px" viewBox="260.769 343.348 73.363 79.656"
	 enable-background="new 260.769 343.348 73.363 79.656" xml:space="preserve">
<g>
	<g>
		<path fill="#FFFFFF" stroke="#8E8E8E" stroke-width="2" stroke-miterlimit="10" d="M282.846,418.442
			c0,1.959-1.603,3.562-3.562,3.562h-13.952c-1.959,0-3.562-1.603-3.562-3.562v-30.992c0-1.959,1.603-3.562,3.562-3.562h13.952
			c1.959,0,3.562,1.603,3.562,3.562V418.442z"/>
		<polygon fill="#526DB4" points="271.446,402.412 269.843,401.818 266.935,409.715 269.072,408.884 270.081,410.902 
			273.049,403.006 		"/>
		<polyline fill="#EA7A6D" points="262.303,387.332 282.252,408.765 282.252,414.701 262.303,392.972 		"/>
		<polygon fill="#526DB4" points="272.872,402.412 274.475,401.818 277.383,409.715 275.306,408.884 274.237,410.902 
			271.328,403.006 		"/>
		<polygon fill="#526DB4" stroke="#FFFFFF" stroke-miterlimit="10" points="272.278,392.082 272.752,392.378 273.287,392.141 
			273.703,392.557 274.237,392.378 274.534,392.854 275.127,392.734 275.365,393.269 275.958,393.269 276.137,393.803 
			276.73,393.863 276.79,394.457 277.324,394.634 277.324,395.228 277.858,395.466 277.74,396.06 278.215,396.356 278.037,396.891 
			278.452,397.307 278.215,397.841 278.512,398.315 278.215,398.79 278.452,399.266 278.037,399.681 278.215,400.215 
			277.74,400.571 277.858,401.105 277.324,401.402 277.324,401.938 276.79,402.115 276.73,402.709 276.137,402.827 275.958,403.362 
			275.365,403.362 275.127,403.837 274.534,403.777 274.237,404.253 273.703,404.074 273.287,404.431 272.752,404.193 
			272.278,404.55 271.803,404.193 271.328,404.431 270.912,404.074 270.378,404.253 270.021,403.777 269.487,403.837 
			269.19,403.362 268.656,403.362 268.478,402.827 267.884,402.709 267.766,402.115 267.231,401.938 267.231,401.402 
			266.756,401.105 266.815,400.571 266.341,400.215 266.519,399.681 266.163,399.266 266.4,398.79 266.044,398.315 266.4,397.841 
			266.163,397.307 266.519,396.891 266.341,396.356 266.815,396.06 266.756,395.466 267.231,395.228 267.231,394.634 
			267.766,394.457 267.884,393.863 268.478,393.803 268.656,393.269 269.19,393.269 269.487,392.734 270.021,392.854 
			270.378,392.378 270.912,392.557 271.328,392.141 271.803,392.378 		"/>
	</g>
	<g>
		<path fill="#FFFFFF" stroke="#8E8E8E" stroke-width="2" stroke-miterlimit="10" d="M308.196,418.442
			c0,1.959-1.603,3.562-3.562,3.562h-13.952c-1.959,0-3.562-1.603-3.562-3.562v-30.992c0-1.959,1.603-3.562,3.562-3.562h13.952
			c1.959,0,3.562,1.603,3.562,3.562V418.442z"/>
		<polygon fill="#526DB4" points="296.798,402.412 295.254,401.818 292.286,409.715 294.423,408.884 295.432,410.902 298.4,403.006 
					"/>
		<polyline fill="#EA7A6D" points="287.655,387.332 307.603,408.765 307.603,414.701 287.655,392.972 		"/>
		<polygon fill="#526DB4" points="298.223,402.412 299.826,401.818 302.794,409.715 300.657,408.884 299.588,410.902 
			296.679,403.006 		"/>
		<polygon fill="#526DB4" stroke="#FFFFFF" stroke-miterlimit="10" points="297.629,392.082 298.104,392.378 298.638,392.141 
			299.054,392.557 299.588,392.378 299.944,392.854 300.479,392.734 300.775,393.269 301.31,393.269 301.488,393.803 
			302.082,393.863 302.141,394.457 302.675,394.634 302.675,395.228 303.209,395.466 303.15,396.06 303.566,396.356 
			303.388,396.891 303.803,397.307 303.566,397.841 303.863,398.315 303.566,398.79 303.803,399.266 303.388,399.681 
			303.566,400.215 303.15,400.571 303.209,401.105 302.675,401.402 302.675,401.938 302.141,402.115 302.082,402.709 
			301.488,402.827 301.31,403.362 300.775,403.362 300.479,403.837 299.944,403.777 299.588,404.253 299.054,404.074 
			298.638,404.431 298.104,404.193 297.629,404.55 297.213,404.193 296.679,404.431 296.263,404.074 295.729,404.253 
			295.373,403.777 294.838,403.837 294.542,403.362 294.007,403.362 293.829,402.827 293.235,402.709 293.176,402.115 
			292.583,401.938 292.583,401.402 292.107,401.105 292.167,400.571 291.751,400.215 291.87,399.681 291.514,399.266 
			291.751,398.79 291.395,398.315 291.751,397.841 291.514,397.307 291.87,396.891 291.751,396.356 292.167,396.06 292.107,395.466 
			292.583,395.228 292.583,394.634 293.176,394.457 293.235,393.863 293.829,393.803 294.007,393.269 294.542,393.269 
			294.838,392.734 295.373,392.854 295.729,392.378 296.263,392.557 296.679,392.141 297.213,392.378 		"/>
	</g>
	<g>
		<path fill="#FFFFFF" stroke="#8E8E8E" stroke-width="2" stroke-miterlimit="10" d="M333.132,418.442
			c0,1.959-1.603,3.562-3.562,3.562h-13.952c-1.959,0-3.562-1.603-3.562-3.562v-30.992c0-1.959,1.604-3.562,3.562-3.562h13.952
			c1.959,0,3.562,1.603,3.562,3.562V418.442z"/>
		<polygon fill="#526DB4" points="321.733,402.412 320.189,401.818 317.221,409.715 319.358,408.884 320.367,410.902 
			323.336,403.006 		"/>
		<polyline fill="#EA7A6D" points="312.59,387.332 332.538,408.765 332.538,414.701 312.59,392.972 		"/>
		<polygon fill="#526DB4" points="323.158,402.412 324.761,401.818 327.729,409.715 325.592,408.884 324.523,410.902 
			321.614,403.006 		"/>
		<polygon fill="#526DB4" stroke="#FFFFFF" stroke-miterlimit="10" points="322.564,392.082 323.039,392.378 323.573,392.141 
			323.989,392.557 324.523,392.378 324.88,392.854 325.414,392.734 325.711,393.269 326.245,393.269 326.424,393.803 
			327.018,393.863 327.076,394.457 327.61,394.634 327.61,395.228 328.146,395.466 328.086,396.06 328.501,396.356 328.323,396.891 
			328.739,397.307 328.501,397.841 328.798,398.315 328.501,398.79 328.739,399.266 328.323,399.681 328.501,400.215 
			328.086,400.571 328.146,401.105 327.61,401.402 327.61,401.938 327.076,402.115 327.018,402.709 326.424,402.827 
			326.245,403.362 325.711,403.362 325.414,403.837 324.88,403.777 324.523,404.253 323.989,404.074 323.573,404.431 
			323.039,404.193 322.564,404.55 322.148,404.193 321.614,404.431 321.199,404.074 320.664,404.253 320.309,403.777 
			319.773,403.837 319.477,403.362 318.942,403.362 318.765,402.827 318.171,402.709 318.111,402.115 317.518,401.938 
			317.518,401.402 317.043,401.105 317.103,400.571 316.687,400.215 316.806,399.681 316.449,399.266 316.687,398.79 
			316.33,398.315 316.687,397.841 316.449,397.307 316.806,396.891 316.687,396.356 317.103,396.06 317.043,395.466 
			317.518,395.228 317.518,394.634 318.111,394.457 318.171,393.863 318.765,393.803 318.942,393.269 319.477,393.269 
			319.773,392.734 320.309,392.854 320.664,392.378 321.199,392.557 321.614,392.141 322.148,392.378 		"/>
	</g>
	<g>
		<path fill="#FFFFFF" stroke="#8E8E8E" stroke-width="2" stroke-miterlimit="10" d="M295.61,378.901
			c0,1.959-1.603,3.562-3.562,3.562h-13.952c-1.959,0-3.562-1.603-3.562-3.562V347.91c0-1.959,1.603-3.562,3.562-3.562h13.952
			c1.959,0,3.562,1.603,3.562,3.562V378.901z"/>
		<polygon fill="#526DB4" points="284.211,362.872 282.608,362.337 279.699,370.174 281.836,369.343 282.846,371.361 
			285.755,363.465 		"/>
		<polyline fill="#EA7A6D" points="275.068,347.792 295.017,369.224 295.017,375.161 275.068,353.432 		"/>
		<polygon fill="#526DB4" points="285.636,362.872 287.239,362.337 290.148,370.174 288.07,369.343 287.001,371.361 
			284.092,363.465 		"/>
		<polygon fill="#526DB4" stroke="#FFFFFF" stroke-miterlimit="10" points="285.042,352.541 285.517,352.897 286.052,352.6 
			286.467,353.016 287.001,352.838 287.298,353.312 287.892,353.194 288.129,353.729 288.723,353.729 288.901,354.263 
			289.495,354.381 289.554,354.916 290.089,355.094 290.089,355.688 290.623,355.925 290.504,356.519 290.979,356.875 
			290.801,357.409 291.217,357.825 290.979,358.3 291.276,358.775 290.979,359.25 291.217,359.725 290.801,360.14 290.979,360.675 
			290.504,361.031 290.623,361.625 290.089,361.862 290.089,362.456 289.554,362.634 289.495,363.168 288.901,363.287 
			288.723,363.821 288.129,363.821 287.892,364.355 287.298,364.237 287.001,364.712 286.467,364.534 286.052,364.949 
			285.517,364.652 285.042,365.009 284.567,364.652 284.092,364.949 283.677,364.534 283.143,364.712 282.786,364.237 
			282.252,364.355 281.955,363.821 281.421,363.821 281.243,363.287 280.649,363.168 280.53,362.634 279.996,362.456 
			279.996,361.862 279.521,361.625 279.58,361.031 279.105,360.675 279.283,360.14 278.927,359.725 279.165,359.25 278.809,358.775 
			279.165,358.3 278.927,357.825 279.283,357.409 279.105,356.875 279.58,356.519 279.521,355.925 279.996,355.688 279.996,355.094 
			280.53,354.916 280.649,354.381 281.243,354.263 281.421,353.729 281.955,353.729 282.252,353.194 282.786,353.312 
			283.143,352.838 283.677,353.016 284.092,352.6 284.567,352.897 		"/>
	</g>
	<g>
		<path fill="#FFFFFF" stroke="#8E8E8E" stroke-width="2" stroke-miterlimit="10" d="M321.021,378.901
			c0,1.959-1.603,3.562-3.562,3.562h-13.952c-1.959,0-3.562-1.603-3.562-3.562V347.91c0-1.959,1.603-3.562,3.562-3.562h13.952
			c1.96,0,3.562,1.603,3.562,3.562V378.901z"/>
		<polygon fill="#526DB4" points="309.621,362.872 308.019,362.337 305.109,370.174 307.188,369.343 308.256,371.361 
			311.165,363.465 		"/>
		<polyline fill="#EA7A6D" points="300.419,347.792 320.427,369.224 320.427,375.161 300.419,353.432 		"/>
		<polygon fill="#526DB4" points="311.047,362.872 312.649,362.337 315.559,370.174 313.48,369.343 312.412,371.361 
			309.503,363.465 		"/>
		<polygon fill="#526DB4" stroke="#FFFFFF" stroke-miterlimit="10" points="310.453,352.541 310.928,352.897 311.462,352.6 
			311.818,353.016 312.412,352.838 312.709,353.312 313.303,353.194 313.54,353.729 314.134,353.729 314.312,354.263 
			314.846,354.381 314.965,354.916 315.499,355.094 315.499,355.688 316.033,355.925 315.915,356.519 316.39,356.875 
			316.212,357.409 316.627,357.825 316.39,358.3 316.687,358.775 316.39,359.25 316.627,359.725 316.212,360.14 316.39,360.675 
			315.915,361.031 316.033,361.625 315.499,361.862 315.499,362.456 314.965,362.634 314.846,363.168 314.312,363.287 
			314.134,363.821 313.54,363.821 313.303,364.355 312.709,364.237 312.412,364.712 311.818,364.534 311.462,364.949 
			310.928,364.652 310.453,365.009 309.978,364.652 309.503,364.949 309.087,364.534 308.553,364.712 308.196,364.237 
			307.603,364.355 307.365,363.821 306.771,363.821 306.594,363.287 306.06,363.168 305.94,362.634 305.406,362.456 
			305.406,361.862 304.931,361.625 304.991,361.031 304.516,360.675 304.694,360.14 304.278,359.725 304.575,359.25 
			304.219,358.775 304.575,358.3 304.278,357.825 304.694,357.409 304.516,356.875 304.991,356.519 304.931,355.925 
			305.406,355.688 305.406,355.094 305.94,354.916 306.06,354.381 306.594,354.263 306.771,353.729 307.365,353.729 
			307.603,353.194 308.196,353.312 308.553,352.838 309.087,353.016 309.503,352.6 309.978,352.897 		"/>
	</g>
</g>
</svg>
