<?xml version="1.0" encoding="utf-8"?>
<!-- Generator: Adobe Illustrator 16.0.0, SVG Export Plug-In . SVG Version: 6.00 Build 0)  -->
<!DOCTYPE svg PUBLIC "-//W3C//DTD SVG 1.1//EN" "http://www.w3.org/Graphics/SVG/1.1/DTD/svg11.dtd">
<svg version="1.1" id="Layer_1" xmlns="http://www.w3.org/2000/svg" xmlns:xlink="http://www.w3.org/1999/xlink" x="0px" y="0px"
	 width="70.294px" height="73.847px" viewBox="239.09 247.168 70.294 73.847" enable-background="new 239.09 247.168 70.294 73.847"
	 xml:space="preserve">
<circle fill="#FFFFFF" stroke="#B5B4B5" stroke-width="2" stroke-linejoin="round" stroke-miterlimit="10" cx="298.044" cy="253.571" r="5.403"/>
<g>
	<polygon fill="#EA7A6D" points="303.269,321.015 282.015,321.015 276.077,275.3 309.206,275.3 	"/>
	<polygon fill="#EA7A6D" points="303.269,310.032 282.015,310.032 276.077,264.316 309.206,264.316 	"/>
	<polygon fill="#EA7A6D" points="303.269,299.939 282.015,299.939 276.077,254.224 309.206,254.224 	"/>
	<rect x="275.899" y="273.519" fill="#FFFFFF" width="33.484" height="1.9"/>
	<rect x="275.899" y="262.417" fill="#FFFFFF" width="33.484" height="1.899"/>
</g>
<g>
	<path fill="#010101" d="M270.912,302.67c-1.959,0.475-4.215,1.009-6.234,0.95c-1.188-0.059-2.375-0.297-3.443-0.594
		c-7.362-1.722-13.952-2.375-22.145-0.475l0.534,3.443c0.534,0,1.365,0.178,1.425,1.188c0.297,7.837,2.375,11.636,9.796,11.399
		c9.203-0.237,11.578-7.599,12.112-10.39c0.297-1.484,1.069-1.663,1.9-1.663c1.543-0.059,1.722,1.069,1.959,1.781
		c3.147,7.956,5.047,9.796,11.696,10.39c10.033,0.891,8.905-6.59,10.271-10.924c0.237-0.832,0.534-1.247,1.484-1.247l0.416-3.443
		C284.686,301.72,278.63,300.71,270.912,302.67z M241.524,304.748c-0.712,0-1.306-0.178-1.306-0.356s0.594-0.356,1.306-0.356
		s1.306,0.178,1.306,0.356C242.889,304.57,242.296,304.748,241.524,304.748z M260.166,310.032c-1.425,4.156-3.622,7.184-9.262,7.303
		c-5.64,0-7.243-1.009-8.015-7.54c0-4.394-0.297-6.946,8.015-6.946C256.544,303.382,262.422,303.382,260.166,310.032z
		 M286.705,309.794c-0.772,6.531-2.375,7.54-8.015,7.54c-5.64-0.178-7.896-3.147-9.262-7.303c-2.256-6.709,3.622-6.649,9.262-7.184
		C287.001,302.848,286.705,305.401,286.705,309.794z M288.129,305.104c-0.712,0-1.306-0.178-1.306-0.356
		c0-0.178,0.594-0.356,1.306-0.356s1.306,0.178,1.306,0.356C289.436,304.926,288.842,305.104,288.129,305.104z"/>
</g>
</svg>
