<?xml version="1.0" encoding="iso-8859-1"?>
<!-- Generator: Adobe Illustrator 18.0.0, SVG Export Plug-In . SVG Version: 6.00 Build 0)  -->
<!DOCTYPE svg PUBLIC "-//W3C//DTD SVG 1.1//EN" "http://www.w3.org/Graphics/SVG/1.1/DTD/svg11.dtd">
<svg version="1.1" id="Capa_1" xmlns="http://www.w3.org/2000/svg" xmlns:xlink="http://www.w3.org/1999/xlink" x="0px" y="0px"
	 viewBox="0 0 316.441 316.441" style="enable-background:new 0 0 316.441 316.441;" xml:space="preserve">
	<path fill="#7c7d80" d="M316.441,52.81c0-3.039-2.463-5.503-5.502-5.503h-38.176H163.729V14.625c0-3.039-2.463-5.502-5.502-5.502
		c-3.039,0-5.504,2.463-5.504,5.502v32.682H43.686H5.504C2.465,47.307,0,49.771,0,52.81c0,3.039,2.465,5.503,5.504,5.503h32.678
		v166.299c0,3.04,2.465,5.504,5.504,5.504h101.252l-67.021,67.02c-2.148,2.148-2.148,5.633,0,7.782
		c1.074,1.075,2.482,1.612,3.891,1.612c1.408,0,2.818-0.538,3.893-1.612l67.016-67.017v63.079c0,3.039,2.465,5.503,5.504,5.503
		c3.039,0,5.502-2.464,5.502-5.503v-63.078l67.803,67.804c1.074,1.075,2.482,1.612,3.891,1.612c1.408,0,2.816-0.537,3.891-1.612
		c2.15-2.148,2.15-5.633,0.002-7.781L171.5,230.116h101.264c3.039,0,5.504-2.464,5.504-5.504V58.313h32.672
		C313.978,58.313,316.441,55.849,316.441,52.81z M267.262,219.11H49.188V58.313h109.039h109.035V219.11z"/>
	<path d="M146.775,119.483c-0.939-0.94-2.137-1.469-3.363-1.587c-0.176-0.017-0.352-0.024-0.527-0.024
		c-0.176,0-0.352,0.008-0.527,0.024c-1.229,0.118-2.424,0.646-3.365,1.587L77.65,180.825c-2.148,2.149-2.148,5.634,0,7.783
		c1.074,1.074,2.482,1.611,3.891,1.611s2.816-0.537,3.891-1.611l57.453-57.451l26.783,26.782c1.074,1.075,2.482,1.612,3.891,1.612
		c1.408,0,2.816-0.538,3.891-1.612l51.949-51.947v8.21c0,3.04,2.463,5.504,5.502,5.504c3.039,0,5.504-2.464,5.504-5.504V92.709
		v-0.002c0-0.184-0.01-0.364-0.027-0.543c-0.008-0.079-0.023-0.158-0.035-0.237c-0.014-0.099-0.025-0.197-0.045-0.295
		c-0.018-0.092-0.043-0.183-0.066-0.273c-0.021-0.083-0.039-0.167-0.064-0.248c-0.027-0.089-0.061-0.176-0.092-0.264
		c-0.029-0.082-0.057-0.165-0.09-0.245c-0.033-0.081-0.074-0.161-0.111-0.241c-0.039-0.082-0.076-0.166-0.119-0.246
		c-0.041-0.078-0.09-0.152-0.135-0.229c-0.047-0.078-0.092-0.157-0.143-0.232c-0.057-0.086-0.121-0.167-0.182-0.25
		c-0.047-0.061-0.09-0.124-0.137-0.183c-0.115-0.14-0.236-0.274-0.367-0.404c-0.129-0.13-0.264-0.251-0.402-0.365
		c-0.063-0.05-0.127-0.095-0.191-0.143c-0.08-0.06-0.158-0.122-0.24-0.178c-0.078-0.052-0.16-0.097-0.24-0.146
		c-0.074-0.044-0.146-0.091-0.223-0.131c-0.08-0.044-0.166-0.081-0.25-0.121c-0.078-0.037-0.156-0.076-0.238-0.109
		c-0.08-0.034-0.164-0.062-0.246-0.091c-0.088-0.031-0.174-0.065-0.262-0.092c-0.082-0.024-0.166-0.043-0.25-0.064
		c-0.09-0.023-0.18-0.048-0.271-0.066c-0.096-0.02-0.193-0.031-0.291-0.045c-0.08-0.012-0.16-0.027-0.242-0.035
		c-0.176-0.018-0.354-0.026-0.535-0.026c-0.002,0-0.004-0.001-0.008-0.001h-21.502c-3.039,0-5.502,2.464-5.502,5.503
		c0,3.04,2.463,5.503,5.502,5.503h8.217l-48.057,48.057L146.775,119.483z"/>
</svg>
