<?xml version="1.0" encoding="UTF-8" standalone="no"?>
<svg width="102px" height="150px" viewBox="0 0 38 56" version="1.1" xmlns="http://www.w3.org/2000/svg" xmlns:xlink="http://www.w3.org/1999/xlink" xmlns:sketch="http://www.bohemiancoding.com/sketch/ns">
    <!-- Generator: Sketch 3.3.2 (12043) - http://www.bohemiancoding.com/sketch -->
    <title>chill</title>
    <desc>Created with Sketch.</desc>
    <defs></defs>
    <g id="Page-1" stroke="none" stroke-width="1" fill="none" fill-rule="evenodd" sketch:type="MSPage">
        <g id="chill" sketch:type="MSLayerGroup" transform="translate(-16.000000, -7.000000)">
            <path d="M49.868,44.409 C52.148,40.587 53.5,35.861 53.5,30.75 C53.5,18.068 45.188,7.75 34.973,7.75 C24.787,7.75 16.5,18.068 16.5,30.75 C16.5,43.223 24.518,53.402 34.473,53.734 L34.473,56.605 L25.5,60.004 L25.5,62.25 L26.5,62.25 L26.5,60.695 L34.974,57.484 L43.5,60.695 L43.5,62.25 L44.5,62.25 L44.5,60.004 L35.473,56.604 L35.473,53.735 C41.33,53.541 46.52,49.963 49.808,44.514 C49.85,44.473 49.879,44.444 49.891,44.432 L49.868,44.409 L49.868,44.409 Z M34.973,8.75 C44.638,8.75 52.5,18.619 52.5,30.75 C52.5,35.659 51.212,40.197 49.038,43.861 C48.678,44.189 47.527,45.146 45.517,46.091 C42.438,44.704 38.9,43.999 34.996,43.999 C31.096,43.999 27.569,44.694 24.496,46.05 C22.091,44.902 20.899,43.725 20.838,43.661 C18.741,40.033 17.5,35.572 17.5,30.75 C17.5,18.619 25.338,8.75 34.973,8.75 L34.973,8.75 Z M44.236,46.636 C41.976,47.513 38.927,48.25 35.004,48.25 C31.085,48.25 28.031,47.496 25.768,46.6 C28.505,45.539 31.602,45 34.997,45 C38.394,45 41.494,45.553 44.236,46.636 L44.236,46.636 Z M34.973,52.75 C30.092,52.75 25.675,50.215 22.502,46.139 C24.833,47.541 28.914,49.25 35.004,49.25 C41.005,49.25 45.05,47.619 47.396,46.254 C44.219,50.264 39.823,52.75 34.973,52.75 L34.973,52.75 Z" id="Shape" fill="#ffffff" sketch:type="MSShapeGroup"></path>
        </g>
    </g>
</svg>