<?xml version="1.0" encoding="UTF-8" standalone="no"?>
<svg width="80px" height="150px" viewBox="0 0 32 60" version="1.1" xmlns="http://www.w3.org/2000/svg" xmlns:xlink="http://www.w3.org/1999/xlink" xmlns:sketch="http://www.bohemiancoding.com/sketch/ns">
    <!-- Generator: Sketch 3.3.2 (12043) - http://www.bohemiancoding.com/sketch -->
    <title>country</title>
    <desc>Created with Sketch.</desc>
    <defs></defs>
    <g id="Page-1" stroke="none" stroke-width="1" fill="none" fill-rule="evenodd" sketch:type="MSPage">
        <g id="country" sketch:type="MSLayerGroup" transform="translate(-19.000000, -5.000000)">
            <path d="M44.386,43.7326667 C44.0566667,43.4853333 43.6673333,43.112 43.69,42.732 C43.712,42.334 44.1653333,41.982 44.338,41.8826667 L44.45,41.7913333 C45.864,40.256 46.6113333,38.4473333 46.6113333,36.5633333 C46.6113333,32.172 42.536,28.51 37.1646667,27.7213333 L37.1646667,15.7093333 L38.3173333,15.7093333 L38.3173333,13.3406667 L39.2853333,13.3406667 L39.2853333,11.304 L38.3173333,11.304 L38.3173333,9.522 L39.2853333,9.522 L39.2853333,7.486 L38.3173333,7.486 L38.3173333,5 L31.6826667,5 L31.6826667,7.486 L30.5226667,7.486 L30.5226667,9.52266667 L31.6826667,9.52266667 L31.6826667,11.3046667 L30.5226667,11.3046667 L30.5226667,13.3413333 L31.6826667,13.3413333 L31.6826667,15.71 L32.8353333,15.71 L32.8353333,27.722 C27.4646667,28.5113333 23.3886667,32.1726667 23.3886667,36.564 C23.3886667,38.448 24.136,40.2566667 25.6006667,41.84 C25.7853333,41.9906667 26.2606667,42.49 26.246,42.99 C26.2366667,43.3073333 26.0266667,43.6153333 25.6213333,43.9073333 C24.062,45.0346667 19.61,49.1313333 19.61,53.0333333 C19.61,60.75 25.1713333,65 35.2686667,65 C45.1613333,65 50.39,60.862 50.39,53.0326667 C50.39,49.492 47.2893333,45.9066667 44.386,43.7326667 L44.386,43.7326667 Z M32.63,14.7613333 L32.63,5.948 L37.3686667,5.948 L37.3686667,14.7613333 L37.164,14.7613333 L32.8346667,14.7613333 L32.63,14.7613333 L32.63,14.7613333 Z M33.7833333,27.558 L33.7833333,15.7093333 L36.2166667,15.7093333 L36.2166667,27.558 L33.7833333,27.558 L33.7833333,27.558 Z M35.2686667,64.052 C28.5573333,64.052 20.558,62.1406667 20.558,53.0326667 C20.558,49.7866667 24.3433333,45.9993333 26.1766667,44.6746667 C26.8353333,44.198 27.1773333,43.6386667 27.1933333,43.0106667 C27.22,41.9466667 26.2546667,41.1493333 26.2473333,41.1493333 C24.9973333,39.7913333 24.336,38.206 24.336,36.5633333 C24.336,32.1206667 29.12,28.506 35,28.506 C40.8793333,28.506 45.6633333,32.1206667 45.6633333,36.5633333 C45.6633333,38.1866667 45.018,39.7546667 43.796,41.102 C43.548,41.26 42.7953333,41.81 42.7433333,42.672 C42.7046667,43.316 43.0653333,43.928 43.8173333,44.4913333 C46.536,46.5286667 49.442,49.8413333 49.442,53.0326667 C49.442,60.3453333 44.6733333,64.052 35.2686667,64.052 L35.2686667,64.052 Z M31.4453333,50.6406667 L38.554,50.6406667 L38.554,52.2033333 L31.4453333,52.2033333 L31.4453333,50.6406667 Z M35,36.9446667 C32.7786667,36.9446667 30.9713333,38.752 30.9713333,40.9733333 C30.9713333,43.1946667 32.7786667,45.002 35,45.002 C37.2213333,45.002 39.028,43.1946667 39.028,40.9733333 C39.028,38.752 37.2213333,36.9446667 35,36.9446667 L35,36.9446667 Z M35,44.054 C33.3013333,44.054 31.9193333,42.672 31.9193333,40.9733333 C31.9193333,39.2746667 33.3013333,37.8926667 35,37.8926667 C36.6993333,37.8926667 38.08,39.2746667 38.08,40.9733333 C38.08,42.672 36.6993333,44.054 35,44.054 L35,44.054 Z" id="Shape" fill="#ffffff" sketch:type="MSShapeGroup"></path>
        </g>
    </g>
</svg>