<?xml version="1.0" encoding="UTF-8" standalone="no"?>
<svg width="150px" height="150px" viewBox="0 0 60 60" version="1.1" xmlns="http://www.w3.org/2000/svg" xmlns:xlink="http://www.w3.org/1999/xlink" xmlns:sketch="http://www.bohemiancoding.com/sketch/ns">
    <!-- Generator: Sketch 3.3.2 (12043) - http://www.bohemiancoding.com/sketch -->
    <title>dance</title>
    <desc>Created with Sketch.</desc>
    <defs></defs>
    <g id="Page-1" stroke="none" stroke-width="1" fill="none" fill-rule="evenodd" sketch:type="MSPage">
        <g id="dance" sketch:type="MSLayerGroup" transform="translate(-5.000000, -5.000000)">
            <g id="turntable" transform="translate(5.000000, 5.000000)" fill="#ffffff" sketch:type="MSShapeGroup">
                <path d="M53.928913,26.2806522 C54.4441304,28.3278261 54.7206522,30.468913 54.7206522,32.673913 C54.7206522,47.1280435 42.9613043,58.8873913 28.5065217,58.8873913 C14.0517391,58.8873913 2.2923913,47.1280435 2.2923913,32.673913 C2.2923913,18.2197826 14.0517391,6.45978261 28.5065217,6.45978261 C37.5854348,6.45978261 45.5986957,11.1 50.3047826,18.1323913 L50.3047826,16.998913 C45.4219565,10.2280435 37.4732609,5.80826087 28.5065217,5.80826087 C13.6923913,5.80826087 1.64021739,17.8604348 1.64021739,32.6745652 C1.64021739,47.4886957 13.6923913,59.5402174 28.5065217,59.5402174 C43.3213043,59.5402174 55.3728261,47.4880435 55.3728261,32.6745652 C55.3728261,29.565 54.836087,26.5806522 53.8597826,23.8004348 C53.883913,24.54 53.9086957,25.3871739 53.928913,26.2806522 L53.928913,26.2806522 Z M23.958913,53.6504348 C15.7082609,51.8628261 9.20934783,45.3215217 7.48956522,37.0467391 L6.85108696,37.181087 C8.62369565,45.7082609 15.3215217,52.4484783 23.823913,54.288913 L23.958913,53.6504348 L23.958913,53.6504348 Z M32.7867391,11.6380435 C41.0882609,13.3245652 47.6602174,19.8182609 49.4706522,28.0747826 L50.1091304,27.9404348 C48.2458696,19.4315217 41.475,12.738913 32.9217391,10.9995652 L32.7867391,11.6380435 L32.7867391,11.6380435 Z M24.45,51.3182609 C17.1202174,49.725 11.3478261,43.9102174 9.82173913,36.5556522 L9.18326087,36.69 C10.7621739,44.2969565 16.7334783,50.31 24.3156522,51.9567391 L24.45,51.3182609 L24.45,51.3182609 Z M32.2956522,13.9708696 C39.6769565,15.4636957 45.5223913,21.2302174 47.1391304,28.5658696 L47.7776087,28.4315217 C46.1080435,20.8434783 40.0630435,14.8780435 32.43,13.3323913 L32.2956522,13.9708696 L32.2956522,13.9708696 Z M24.9215217,49.08 C18.4754348,47.6719565 13.4002174,42.555 12.0606522,36.0841304 L11.4221739,36.2184783 C12.8152174,42.941087 18.0886957,48.2569565 24.7871739,49.7178261 L24.9215217,49.08 L24.9215217,49.08 Z M31.8241304,16.2097826 C38.321087,17.5167391 43.47,22.5854348 44.9008696,29.0373913 L45.5393478,28.9030435 C44.0556522,22.1993478 38.7084783,16.9317391 31.9591304,15.5713043 L31.8241304,16.2097826 L31.8241304,16.2097826 Z M25.3930435,46.841087 C19.8306522,45.6195652 15.4532609,41.1997826 14.298913,35.6126087 L13.6604348,35.7469565 C14.8676087,41.5858696 19.443913,46.2045652 25.2580435,47.478913 L25.3930435,46.841087 L25.3930435,46.841087 Z M31.3526087,18.4486957 C36.9658696,19.5697826 41.4176087,23.94 42.6619565,29.5082609 L43.3004348,29.373913 C42.0026087,23.553913 37.3526087,18.9847826 31.4876087,17.8102174 L31.3526087,18.4486957 L31.3526087,18.4486957 Z M52.5065217,3.56086957 C50.4169565,3.56086957 48.7167391,5.26173913 48.7167391,7.35130435 C48.7167391,8.61978261 49.3454348,9.74152174 50.3047826,10.4295652 L50.3047826,9.58108696 C49.7282609,9.01173913 49.368913,8.2226087 49.368913,7.35 C49.368913,5.61978261 50.7769565,4.2123913 52.5065217,4.2123913 C54.2367391,4.2123913 55.6447826,5.61978261 55.6447826,7.35 C55.6447826,8.17565217 55.3180435,8.92173913 54.795,9.48195652 L54.795,10.3636957 C55.7054348,9.67043478 56.2969565,8.57869565 56.2969565,7.34934783 C56.2969565,5.26108696 54.596087,3.56086957 52.5065217,3.56086957 L52.5065217,3.56086957 Z M52.5065217,0.190434783 C48.5582609,0.190434783 45.3463043,3.4023913 45.3463043,7.35065217 C45.3463043,10.5306522 47.4313043,13.23 50.3047826,14.1613043 L50.3047826,13.4673913 C47.7984783,12.5621739 45.9984783,10.1654348 45.9984783,7.35130435 C45.9984783,3.76304348 48.9182609,0.84326087 52.5065217,0.84326087 C56.0954348,0.84326087 59.0145652,3.76304348 59.0145652,7.35130435 C59.0145652,10.1334783 57.2563043,12.5067391 54.795,13.436087 L54.795,14.13 C57.6228261,13.1726087 59.6667391,10.4986957 59.6667391,7.35130435 C59.6667391,3.4023913 56.4547826,0.190434783 52.5065217,0.190434783 L52.5065217,0.190434783 Z M6.05934783,56.1632609 C5.09543478,56.1632609 4.31152174,55.3793478 4.31152174,54.4147826 C4.31152174,53.4508696 5.09543478,52.6669565 6.05934783,52.6669565 C7.02326087,52.6669565 7.80717391,53.4508696 7.80717391,54.4147826 C7.80717391,55.3793478 7.02326087,56.1632609 6.05934783,56.1632609 L6.05934783,56.1632609 Z M6.05934783,53.3197826 C5.45543478,53.3197826 4.96369565,53.8115217 4.96369565,54.4154348 C4.96369565,55.02 5.45543478,55.5117391 6.05934783,55.5117391 C6.66326087,55.5117391 7.155,55.02 7.155,54.4154348 C7.155,53.8115217 6.66326087,53.3197826 6.05934783,53.3197826 L6.05934783,53.3197826 Z M6.05934783,9.14413043 C4.3676087,9.14413043 2.99152174,7.76804348 2.99152174,6.07630435 C2.99152174,4.38456522 4.3676087,3.00847826 6.05934783,3.00847826 C7.75108696,3.00847826 9.12717391,4.38456522 9.12717391,6.07630435 C9.12717391,7.76804348 7.75043478,9.14413043 6.05934783,9.14413043 L6.05934783,9.14413043 Z M6.05934783,3.66065217 C4.7276087,3.66065217 3.64369565,4.74456522 3.64369565,6.07630435 C3.64369565,7.40804348 4.7276087,8.49195652 6.05934783,8.49195652 C7.39108696,8.49195652 8.475,7.40804348 8.475,6.07630435 C8.475,4.74456522 7.39108696,3.66065217 6.05934783,3.66065217 L6.05934783,3.66065217 Z M6.05934783,11.8115217 C2.89695652,11.8115217 0.324130435,9.23869565 0.324130435,6.07630435 C0.324130435,2.91391304 2.89695652,0.341086957 6.05934783,0.341086957 C9.22173913,0.341086957 11.7945652,2.91391304 11.7945652,6.07630435 C11.7945652,9.23869565 9.22173913,11.8115217 6.05934783,11.8115217 L6.05934783,11.8115217 Z M6.05934783,0.992608696 C3.25630435,0.992608696 0.976304348,3.27326087 0.976304348,6.07565217 C0.976304348,8.87804348 3.25695652,11.1586957 6.05934783,11.1586957 C8.86173913,11.1586957 11.1423913,8.87804348 11.1423913,6.07565217 C11.1423913,3.27326087 8.86173913,0.992608696 6.05934783,0.992608696 L6.05934783,0.992608696 Z M28.5065217,33.72 C29.0842596,33.72 29.5526087,33.2516509 29.5526087,32.673913 C29.5526087,32.0961752 29.0842596,31.6278261 28.5065217,31.6278261 C27.9287839,31.6278261 27.4604348,32.0961752 27.4604348,32.673913 C27.4604348,33.2516509 27.9287839,33.72 28.5065217,33.72 Z M28.5065217,42.8765217 C22.8808696,42.8765217 18.303913,38.2995652 18.303913,32.673913 C18.303913,27.0482609 22.8808696,22.4706522 28.5065217,22.4706522 C34.1321739,22.4706522 38.7091304,27.0476087 38.7091304,32.673913 C38.7091304,38.3002174 34.1328261,42.8765217 28.5065217,42.8765217 L28.5065217,42.8765217 Z M28.5065217,23.1234783 C23.2402174,23.1234783 18.956087,27.4076087 18.956087,32.6745652 C18.956087,37.9402174 23.2402174,42.225 28.5065217,42.225 C33.7728261,42.225 38.0569565,37.9408696 38.0569565,32.6745652 C38.0569565,27.4076087 33.7728261,23.1234783 28.5065217,23.1234783 L28.5065217,23.1234783 Z M43.5763043,45.4473913 L41.8506522,43.7217391 L42.1036957,43.4915217 C44.4528261,41.3556522 50.696087,35.5291304 51.3717391,34.2443478 C51.9502174,33.1434783 51.6854348,26.2115217 51.3573913,21.626087 L50.3047826,21.626087 L50.3047826,5.52717391 L54.795,5.52717391 L54.795,21.626087 L53.7795652,21.626087 C53.8734783,23.8813043 54.243913,33.7708696 53.6080435,35.0608696 C52.9421739,36.4128261 44.7404348,44.3276087 43.8078261,45.2256522 L43.5763043,45.4473913 L43.5763043,45.4473913 Z M42.795,43.7432609 L43.5854348,44.5336957 C46.2495652,41.9621739 52.5169565,35.7984783 53.0230435,34.7726087 C53.4795652,33.843913 53.3276087,26.2154348 53.1130435,21.3136957 L53.0986957,20.9732609 L54.1428261,20.9732609 L54.1428261,6.17934783 L50.9569565,6.17934783 L50.9569565,20.973913 L51.963913,20.973913 L51.986087,21.2758696 C52.0734783,22.4602174 52.8169565,32.8956522 51.948913,34.5476087 C51.1552174,36.0554348 44.2402174,42.4219565 42.795,43.7432609 L42.795,43.7432609 Z" id="Shape"></path>
                <path d="M36.8458696,53.505 L33.6397826,50.298913 L41.8578261,43.1686957 L44.0902174,45.4004348 L36.8458696,53.505 L36.8458696,53.505 Z M34.5965217,50.3334783 L36.8191304,52.556087 L43.1928261,45.4258696 L41.8252174,44.058913 L34.5965217,50.3334783 L34.5965217,50.3334783 Z" id="Shape"></path>
                <path d="M53.8076931,26.3111599 C54.3288857,28.3820759 54.5956522,30.5132761 54.5956522,32.673913 C54.5956522,47.0591084 42.8921683,58.7623913 28.5065217,58.7623913 C14.1208752,58.7623913 2.4173913,47.0591084 2.4173913,32.673913 C2.4173913,18.2885926 14.1210003,6.58478261 28.5065217,6.58478261 C37.309888,6.58478261 45.3829373,11.0023447 50.200898,18.201911 L50.4297826,18.5439374 L50.4297826,18.1323913 L50.4297826,16.998913 C45.3559545,9.92281604 37.2771364,5.68326087 28.5065217,5.68326087 C13.6233557,5.68326087 1.51521739,17.7913992 1.51521739,32.6745652 C1.51521739,47.5576081 13.6232325,59.6652174 28.5065217,59.6652174 C43.3900139,59.6652174 55.4978261,47.5574052 55.4978261,32.6745652 C55.4978261,29.6112041 54.9792319,26.6110137 53.9777221,23.759019 L53.7083349,22.9918861 L53.7348491,23.8045111 C53.7621963,24.6426658 53.7855001,25.4683318 53.803945,26.2834799 L53.8076931,26.3111599 Z M54.0538811,26.2778244 C54.035416,25.4617888 54.0120891,24.6353025 53.9847161,23.7963585 L53.7418431,23.8418506 C54.73407,26.6674107 55.2478261,29.6396112 55.2478261,32.6745652 C55.2478261,47.419334 43.2519427,59.4152174 28.5065217,59.4152174 C13.7613018,59.4152174 1.76521739,47.419535 1.76521739,32.6745652 C1.76521739,17.9294704 13.7614269,5.93326087 28.5065217,5.93326087 C37.1958248,5.93326087 45.1996263,10.1334493 50.2033962,17.072028 L50.1797826,18.1323913 L50.4086672,18.0628716 C45.5448245,10.7947429 37.3942929,6.33478261 28.5065217,6.33478261 C13.9829282,6.33478261 2.1673913,18.1505224 2.1673913,32.673913 C2.1673913,47.1971805 13.982805,59.0123913 28.5065217,59.0123913 C43.0302385,59.0123913 54.8456522,47.1971805 54.8456522,32.673913 C54.8456522,30.4925982 54.5763212,28.3409098 54.050133,26.2501444 L54.0538811,26.2778244 Z M23.9853818,53.5282693 C15.7781719,51.7500729 9.320676,45.2428871 7.61194995,37.0213034 L7.4638265,36.9244178 L6.82534824,37.0587656 L6.72870328,37.2065278 C8.51034458,45.7771532 15.2418776,52.5591334 23.7974679,54.4110836 L23.9462092,54.3147714 L24.0812092,53.6762931 L23.9853818,53.5282693 L23.9853818,53.5282693 Z M23.9324443,53.7726003 L23.8366169,53.6245765 L23.7016169,54.2630547 L23.8503582,54.1667424 C15.3913013,52.3356879 8.73499489,45.6294981 6.97347063,37.1556461 L6.87682567,37.3034083 L7.51530393,37.1690605 L7.36718048,37.0721749 C9.0960171,45.3905211 15.6287202,51.9734929 23.9324443,53.7726003 L23.9324443,53.7726003 Z M32.7618527,11.7605411 C41.0060935,13.4354257 47.5467934,19.8845974 49.348553,28.1015557 L49.4963909,28.197104 L50.1348692,28.0627562 L50.2312371,27.9136962 C48.3555076,19.3478427 41.5398025,12.6245326 32.9466487,10.8770723 L32.799443,10.9737069 L32.664443,11.6121852 L32.7618527,11.7605411 L32.7618527,11.7605411 Z M32.8116255,11.5155459 L32.9090353,11.6639018 L33.0440353,11.0254235 L32.8968296,11.1220581 C41.3929245,12.849781 48.1324535,19.4979476 49.9870237,27.9671734 L50.0833917,27.8181134 L49.4449135,27.9524612 L49.5927513,28.0480095 C47.7698073,19.7344391 41.1529219,13.2101481 32.8116255,11.5155459 L32.8116255,11.5155459 Z M24.476551,51.1961132 C17.1901888,49.6122906 11.4591827,43.8316344 9.94413196,36.5302554 L9.79600041,36.4333308 L9.15752215,36.5676786 L9.06086949,36.7154038 C10.6487624,44.3656241 16.6536005,50.4205658 24.2891225,52.0788914 L24.4379735,51.9824778 L24.5723214,51.3439996 L24.476551,51.1961132 L24.476551,51.1961132 Z M24.423449,51.4404085 L24.3276786,51.2925222 L24.1933308,51.9310004 L24.3421819,51.8345869 C16.8031371,50.1972148 10.8734631,44.2180642 9.30565224,36.6645962 L9.20899959,36.8123214 L9.84747785,36.6779735 L9.6993463,36.5810489 C11.2344705,43.9791668 17.0406196,49.835617 24.423449,51.4404085 L24.423449,51.4404085 Z M32.2708733,14.093389 C39.5949589,15.5746429 45.4090503,21.2967293 47.01706,28.5927732 L47.1648692,28.6881909 L47.8033474,28.5538431 L47.8996886,28.404661 C46.2176531,20.7599409 40.127988,14.7636574 32.4548083,13.2098779 L32.3076786,13.3066526 L32.1733308,13.9451308 L32.2708733,14.093389 L32.2708733,14.093389 Z M32.320431,13.8483501 L32.4179735,13.9966083 L32.5523214,13.35813 L32.4051917,13.4549048 C39.9813106,14.98903 45.9947456,20.9102524 47.6555288,28.4583825 L47.75187,28.3092004 L47.1133917,28.4435482 L47.2612009,28.5389659 C45.6319081,21.1463538 39.7415767,15.3492339 32.320431,13.8483501 L32.320431,13.8483501 Z M24.948197,48.9578794 C18.5450758,47.5592211 13.511529,42.4760747 12.1830569,36.0587909 L12.0349135,35.9618091 L11.3964352,36.0961569 L11.2997742,36.2438417 C12.7018405,43.0099934 18.0090454,48.3675238 24.7605388,49.8399554 L24.90949,49.74359 L25.0438378,49.1057639 L24.948197,48.9578794 L24.948197,48.9578794 Z M24.8948465,49.2021206 L24.7992057,49.0542361 L24.6648578,49.6920622 L24.8138091,49.5956968 C18.1587244,48.1442909 12.926599,42.862552 11.5445737,36.1931149 L11.4479126,36.3407996 L12.0863909,36.2064518 L11.9382475,36.10947 C13.2867409,42.623468 18.3953427,47.782409 24.8948465,49.2021206 L24.8948465,49.2021206 Z M31.7994787,16.3323277 C38.2396917,17.6278694 43.3568487,22.6525565 44.7788346,29.0644554 L44.9266083,29.1597127 L45.5650865,29.0253649 L45.6613944,28.8760315 C44.1651626,22.1156947 38.7733112,16.8172932 31.9838294,15.4487688 L31.8368343,15.545446 L31.7018343,16.1839243 L31.7994787,16.3323277 L31.7994787,16.3323277 Z M31.8487821,16.0872375 L31.9464266,16.2356409 L32.0814266,15.5971627 L31.9344315,15.6938399 C38.626861,17.0428019 43.9424336,22.2662468 45.4173013,28.9300554 L45.5136091,28.7807221 L44.8751308,28.9150699 L45.0229045,29.0103272 C43.5795148,22.501916 38.3860542,17.4023041 31.8487821,16.0872375 L31.8487821,16.0872375 Z M25.419855,46.7189963 C19.9008044,45.5069923 15.5646963,41.1213506 14.4213276,35.587317 L14.2731743,35.4902873 L13.6346961,35.6246351 L13.5380236,35.7722646 C14.7541957,41.6547007 19.3641754,46.3150555 25.2312811,47.6010145 L25.3803343,47.5047967 L25.5153343,46.8669706 L25.419855,46.7189963 L25.419855,46.7189963 Z M25.3662319,46.9631777 L25.2707527,46.8152033 L25.1357527,47.4530294 L25.2848058,47.3568115 C19.5140316,46.0919666 14.9790311,41.5074102 13.782846,35.7216485 L13.6861735,35.8692779 L14.3246518,35.7349301 L14.1764985,35.6379004 C15.3398368,41.2685894 19.7508843,45.7300265 25.3662319,46.9631777 L25.3662319,46.9631777 Z M31.328127,18.5712748 C36.8851199,19.6811238 41.3046711,24.0077744 42.5399655,29.5355224 L42.6876952,29.6305822 L43.3261735,29.4962344 L43.4224382,29.346707 C42.1120964,23.4705813 37.4177659,18.8703494 31.5121547,17.6876511 L31.3653126,17.7843591 L31.2303126,18.4228373 L31.328127,18.5712748 L31.328127,18.5712748 Z M31.3770903,18.3261165 L31.4749048,18.474554 L31.6099048,17.8360757 L31.4630627,17.9327837 C37.2716241,19.0960461 41.8895996,23.6214536 43.1784314,29.4011191 L43.2746961,29.2515917 L42.6362178,29.3859395 L42.7839475,29.4809993 C41.5270977,23.856794 37.0311487,19.4553516 31.3770903,18.3261165 L31.3770903,18.3261165 Z M52.5065217,3.43586957 C50.3480384,3.43586957 48.5917391,5.19258607 48.5917391,7.35130435 C48.5917391,8.62588773 49.2107829,9.79877444 50.231932,10.5311417 L50.4297826,10.4295652 L50.4297826,9.58108696 C49.8214315,8.92807009 49.493913,8.16435516 49.493913,7.35 C49.493913,5.6890473 50.845763,4.3373913 52.5065217,4.3373913 C54.1678357,4.3373913 55.5197826,5.68895033 55.5197826,7.35 C55.5197826,8.11681087 55.2247732,8.83847194 54.7036322,9.39665158 L54.67,10.3636957 L54.67,10.6159921 L54.8707275,10.4631459 C55.8403219,9.72483727 56.4219565,8.58403607 56.4219565,7.34934783 C56.4219565,5.19196014 54.6650313,3.43586957 52.5065217,3.43586957 L52.5065217,3.43586957 Z M52.5065217,3.68586957 C54.5269867,3.68586957 56.1719565,5.33005793 56.1719565,7.34934783 C56.1719565,8.50490094 55.6275973,9.57259127 54.7192725,10.2642454 L54.92,10.3636957 L54.92,9.48195652 C55.4499946,8.96357633 55.7697826,8.18130117 55.7697826,7.35 C55.7697826,5.55086309 54.3058908,4.0873913 52.5065217,4.0873913 C50.7076998,4.0873913 49.243913,5.55096808 49.243913,7.35 C49.243913,8.23205723 49.5987842,9.05955389 50.2169494,9.67002693 L50.1797826,10.4295652 L50.3776332,10.3279887 C49.4211175,9.64197641 48.8417391,8.54424275 48.8417391,7.35130435 C48.8417391,5.33064396 50.4861228,3.68586957 52.5065217,3.68586957 L52.5065217,3.68586957 Z M52.5065217,0.0654347826 C48.4892253,0.0654347826 45.2213043,3.33335571 45.2213043,7.35065217 C45.2213043,10.5273948 47.2852119,13.3140522 50.2662433,14.2802149 L50.4297826,14.1613043 L50.4297826,13.4673913 L50.3472449,13.3498245 C47.8354732,12.4426324 46.1234783,10.0559327 46.1234783,7.35130435 C46.1234783,3.83207907 48.9872965,0.96826087 52.5065217,0.96826087 C56.0261722,0.96826087 58.8895652,3.83185202 58.8895652,7.35130435 C58.8895652,10.0236984 57.2191688,12.3871471 54.7508448,13.3191454 L54.67,13.436087 L54.67,14.13 L54.8350851,14.2483984 C57.7714746,13.2542518 59.7917391,10.492868 59.7917391,7.35130435 C59.7917391,3.33345845 56.5239209,0.0654347826 52.5065217,0.0654347826 L52.5065217,0.0654347826 Z M52.5065217,0.315434783 C56.3858462,0.315434783 59.5417391,3.47152612 59.5417391,7.35130435 C59.5417391,10.3847287 57.5906773,13.0515234 54.7549149,14.0116016 L54.92,14.13 L54.92,13.436087 L54.8391552,13.5530285 C57.4038278,12.5846505 59.1395652,10.1287506 59.1395652,7.35130435 C59.1395652,3.69378471 56.1642472,0.71826087 52.5065217,0.71826087 C48.8492253,0.71826087 45.8734783,3.69400788 45.8734783,7.35130435 C45.8734783,10.162288 47.6524255,12.6423263 50.2623203,13.5849581 L50.1797826,13.4673913 L50.1797826,14.1613043 L50.3433219,14.0423938 C47.4645517,13.1093743 45.4713043,10.4181212 45.4713043,7.35065217 C45.4713043,3.4714269 48.6272965,0.315434783 52.5065217,0.315434783 L52.5065217,0.315434783 Z M6.05934783,56.0382609 C5.16437664,56.0382609 4.43652174,55.3102185 4.43652174,54.4147826 C4.43652174,53.5199052 5.16447038,52.7919565 6.05934783,52.7919565 C6.95422528,52.7919565 7.68217391,53.5199052 7.68217391,54.4147826 C7.68217391,55.3102185 6.95431901,56.0382609 6.05934783,56.0382609 L6.05934783,56.0382609 Z M6.05934783,56.2882609 C7.09240461,56.2882609 7.93217391,55.4482752 7.93217391,54.4147826 C7.93217391,53.381834 7.09229646,52.5419565 6.05934783,52.5419565 C5.02639919,52.5419565 4.18652174,53.381834 4.18652174,54.4147826 C4.18652174,55.4482752 5.02629104,56.2882609 6.05934783,56.2882609 L6.05934783,56.2882609 Z M6.05934783,53.1947826 C5.38639919,53.1947826 4.83869565,53.7424861 4.83869565,54.4154348 C4.83869565,55.0889231 5.38628672,55.6367391 6.05934783,55.6367391 C6.73240893,55.6367391 7.28,55.0889231 7.28,54.4154348 C7.28,53.7424861 6.73229646,53.1947826 6.05934783,53.1947826 L6.05934783,53.1947826 Z M6.05934783,53.4447826 C6.59422528,53.4447826 7.03,53.8805573 7.03,54.4154348 C7.03,54.9508749 6.59431475,55.3867391 6.05934783,55.3867391 C5.5243809,55.3867391 5.08869565,54.9508749 5.08869565,54.4154348 C5.08869565,53.8805573 5.52447038,53.4447826 6.05934783,53.4447826 L6.05934783,53.4447826 Z M6.05934783,9.01913043 C4.43664429,9.01913043 3.11652174,7.69900788 3.11652174,6.07630435 C3.11652174,4.45360081 4.43664429,3.13347826 6.05934783,3.13347826 C7.68205136,3.13347826 9.00217391,4.45360081 9.00217391,6.07630435 C9.00217391,7.6987787 7.68162841,9.01913043 6.05934783,9.01913043 L6.05934783,9.01913043 Z M6.05934783,9.26913043 C7.81969138,9.26913043 9.25217391,7.8368581 9.25217391,6.07630435 C9.25217391,4.31552962 7.82012255,2.88347826 6.05934783,2.88347826 C4.2985731,2.88347826 2.86652174,4.31552962 2.86652174,6.07630435 C2.86652174,7.83707907 4.2985731,9.26913043 6.05934783,9.26913043 L6.05934783,9.26913043 Z M6.05934783,3.53565217 C4.6585731,3.53565217 3.51869565,4.67552962 3.51869565,6.07630435 C3.51869565,7.47707907 4.6585731,8.61695652 6.05934783,8.61695652 C7.46012255,8.61695652 8.6,7.47707907 8.6,6.07630435 C8.6,4.67552962 7.46012255,3.53565217 6.05934783,3.53565217 L6.05934783,3.53565217 Z M6.05934783,3.78565217 C7.32205136,3.78565217 8.35,4.81360081 8.35,6.07630435 C8.35,7.33900788 7.32205136,8.36695652 6.05934783,8.36695652 C4.79664429,8.36695652 3.76869565,7.33900788 3.76869565,6.07630435 C3.76869565,4.81360081 4.79664429,3.78565217 6.05934783,3.78565217 L6.05934783,3.78565217 Z M6.05934783,11.6865217 C2.96599212,11.6865217 0.449130435,9.16966006 0.449130435,6.07630435 C0.449130435,2.98294864 2.96599212,0.466086957 6.05934783,0.466086957 C9.15270354,0.466086957 11.6695652,2.98294864 11.6695652,6.07630435 C11.6695652,9.16966006 9.15270354,11.6865217 6.05934783,11.6865217 L6.05934783,11.6865217 Z M6.05934783,11.9365217 C9.29077472,11.9365217 11.9195652,9.30773125 11.9195652,6.07630435 C11.9195652,2.84487745 9.29077472,0.216086957 6.05934783,0.216086957 C2.82792093,0.216086957 0.199130435,2.84487745 0.199130435,6.07630435 C0.199130435,9.30773125 2.82792093,11.9365217 6.05934783,11.9365217 L6.05934783,11.9365217 Z M6.05934783,0.867608696 C3.18749137,0.867608696 0.851304348,3.20400264 0.851304348,6.07565217 C0.851304348,8.94707907 3.18792093,11.2836957 6.05934783,11.2836957 C8.93077472,11.2836957 11.2673913,8.94707907 11.2673913,6.07565217 C11.2673913,3.20422528 8.93077472,0.867608696 6.05934783,0.867608696 L6.05934783,0.867608696 Z M6.05934783,1.1176087 C8.79270354,1.1176087 11.0173913,3.34229646 11.0173913,6.07565217 C11.0173913,8.80900788 8.79270354,11.0336957 6.05934783,11.0336957 C3.32599212,11.0336957 1.10130435,8.80900788 1.10130435,6.07565217 C1.10130435,3.34206887 3.32556751,1.1176087 6.05934783,1.1176087 L6.05934783,1.1176087 Z M28.5065217,33.845 C29.1532952,33.845 29.6776087,33.3206865 29.6776087,32.673913 C29.6776087,32.0271396 29.1532952,31.5028261 28.5065217,31.5028261 C27.8597483,31.5028261 27.3354348,32.0271396 27.3354348,32.673913 C27.3354348,33.3206865 27.8597483,33.845 28.5065217,33.845 L28.5065217,33.845 Z M28.5065217,33.595 C27.9978195,33.595 27.5854348,33.1826153 27.5854348,32.673913 C27.5854348,32.1652108 27.9978195,31.7528261 28.5065217,31.7528261 C29.015224,31.7528261 29.4276087,32.1652108 29.4276087,32.673913 C29.4276087,33.1826153 29.015224,33.595 28.5065217,33.595 L28.5065217,33.595 Z M28.5065217,42.7515217 C22.9499052,42.7515217 18.428913,38.2305296 18.428913,32.673913 C18.428913,27.1171699 22.9500317,22.5956522 28.5065217,22.5956522 C34.0632381,22.5956522 38.5841304,27.116744 38.5841304,32.673913 C38.5841304,38.2311818 34.0637905,42.7515217 28.5065217,42.7515217 L28.5065217,42.7515217 Z M28.5065217,43.0015217 C34.2018617,43.0015217 38.8341304,38.369253 38.8341304,32.673913 C38.8341304,26.9786753 34.2013117,22.3456522 28.5065217,22.3456522 C22.8119556,22.3456522 18.178913,26.9791036 18.178913,32.673913 C18.178913,38.3686008 22.811834,43.0015217 28.5065217,43.0015217 L28.5065217,43.0015217 Z M28.5065217,22.9984783 C23.1710795,22.9984783 18.831087,27.3386754 18.831087,32.6745652 C18.831087,38.0094768 23.1714056,42.35 28.5065217,42.35 C33.8418617,42.35 38.1819565,38.0099052 38.1819565,32.6745652 C38.1819565,27.3386754 33.841964,22.9984783 28.5065217,22.9984783 L28.5065217,22.9984783 Z M28.5065217,23.2484783 C33.7038901,23.2484783 37.9319565,27.4767439 37.9319565,32.6745652 C37.9319565,37.871834 33.7037905,42.1 28.5065217,42.1 C23.3094794,42.1 19.081087,37.8714082 19.081087,32.6745652 C19.081087,27.4767439 23.3091533,23.2484783 28.5065217,23.2484783 L28.5065217,23.2484783 Z M43.6646927,45.359003 L41.9390405,43.6333508 L41.9347719,43.8141993 L42.1878153,43.5839819 C46.4842817,39.6775612 50.9252945,35.3618393 51.4823734,34.3025291 C51.9974439,33.3223273 51.917153,27.6987779 51.4820727,21.6171672 L51.3573913,21.501087 L50.3047826,21.501087 L50.4297826,21.626087 L50.4297826,5.52717391 L50.3047826,5.65217391 L54.795,5.65217391 L54.67,5.52717391 L54.67,21.626087 L54.795,21.501087 L53.7795652,21.501087 L53.6546735,21.6312878 C53.7462055,23.8293276 53.8225486,26.3696775 53.8424774,28.7065008 C53.8719704,32.1648205 53.7652016,34.4593162 53.4959245,35.0056036 C53.2116515,35.5827807 51.4526969,37.4801834 48.7193837,40.2252802 C47.7203896,41.2285812 46.6454936,42.2906029 45.5515674,43.3592461 C44.8263832,44.0676698 44.2074576,44.6673005 43.7211221,45.135611 L43.4898438,45.3571163 L43.6646927,45.359003 L43.6646927,45.359003 Z M43.487916,45.5357797 L43.6627649,45.5376663 L43.8942866,45.3159272 C44.3812702,44.8469933 45.0006157,44.2469557 45.7262655,43.5380773 C46.8209585,42.4686849 47.8966471,41.4058801 48.8965402,40.4016763 C51.6679018,37.618367 53.4170722,35.7315187 53.7201802,35.1160995 C54.0164205,34.5151116 54.122569,32.2339457 54.0924683,28.7043688 C54.0725117,26.3642781 53.9960939,23.821445 53.904457,21.6208861 L53.7795652,21.751087 L54.795,21.751087 L54.92,21.626087 L54.92,5.52717391 L54.795,5.40217391 L50.3047826,5.40217391 L50.1797826,5.52717391 L50.1797826,21.626087 L50.3047826,21.751087 L51.3573913,21.751087 L51.23271,21.6350067 C51.6608698,27.6198816 51.7415661,33.2718276 51.261086,34.1862025 C50.7256597,35.2043393 46.2666672,39.5375336 42.0196052,43.399035 L41.7665325,43.629279 L41.7622638,43.8101275 L43.487916,45.5357797 L43.487916,45.5357797 Z M42.7066117,43.8316492 L43.4970464,44.622084 L43.6722461,44.6236334 C48.3314799,40.1263607 52.7130992,35.6834232 53.1351446,34.827911 C53.5424321,33.9993721 53.5243709,27.8521066 53.2379239,21.3082292 L53.2235848,20.9679973 L53.0986957,21.0982609 L54.1428261,21.0982609 L54.2678261,20.9732609 L54.2678261,6.17934783 L54.1428261,6.05434783 L50.9569565,6.05434783 L50.8319565,6.17934783 L50.8319565,20.973913 L50.9569565,21.098913 L51.963913,21.098913 L51.8392487,20.9830677 L51.8614226,21.2850242 C51.9062365,21.8923522 51.9598658,22.6907343 52.0144283,23.6242131 C52.0965822,25.0297349 52.1616644,26.4250597 52.2008435,27.7401083 C52.3078324,31.3312032 52.2058067,33.7899922 51.8382594,34.4894642 C51.4951491,35.1412893 49.929753,36.8008493 47.529316,39.1255876 C45.9266338,40.6777286 44.1847667,42.303285 42.7106551,43.6510061 L42.7066117,43.8316492 L42.7066117,43.8316492 Z M42.8833883,43.6548725 L42.8793449,43.8355157 C44.3550725,42.486317 46.0985326,40.859274 47.7032384,39.3051733 C50.1327031,36.9523226 51.6977296,35.2931544 52.0595247,34.6058329 C52.4577341,33.8480085 52.5597086,31.3904536 52.4507326,27.7326634 C52.4114754,26.4149906 52.3462856,25.0173614 52.2640024,23.6096253 C52.2093598,22.6747779 52.1556469,21.8751507 52.110748,21.266671 L52.0885774,20.9647584 L51.963913,20.848913 L50.9569565,20.848913 L51.0819565,20.973913 L51.0819565,6.17934783 L50.9569565,6.30434783 L54.1428261,6.30434783 L54.0178261,6.17934783 L54.0178261,20.9732609 L54.1428261,20.8482609 L53.0986957,20.8482609 L52.9738065,20.9785244 L52.9881543,21.3189592 C53.2697105,27.7511097 53.2879246,33.9504165 52.9108645,34.7174645 C52.5097492,35.5305497 48.0934281,40.0086748 43.4986234,44.443758 L43.6738231,44.4453073 L42.8833883,43.6548725 L42.8833883,43.6548725 Z" id="Shape"></path>
                <path d="M36.9342579,53.4166117 L33.728171,50.2105247 L33.7217008,50.3933292 L41.9397443,43.2631118 L41.7694507,43.2570969 L44.001842,45.488836 L43.9970216,45.3171308 L36.7526738,53.421696 L36.9342579,53.4166117 L36.9342579,53.4166117 Z M36.7574812,53.5933883 L36.9390653,53.588304 L44.1834131,45.4837388 L44.1785928,45.3120335 L41.9462015,43.0802944 L41.7759079,43.0742795 L33.5578644,50.2044969 L33.5513943,50.3873014 L36.7574812,53.5933883 L36.7574812,53.5933883 Z M34.5081334,50.4218666 L36.7307421,52.6444753 L36.9123244,52.639393 L43.28602,45.5091756 L43.2811934,45.3374601 L41.9135847,43.9705036 L41.7432788,43.9645146 L34.5145831,50.2390798 L34.5081334,50.4218666 L34.5081334,50.4218666 Z M34.6849101,50.2450899 L34.6784603,50.4278767 L41.907156,44.1533115 L41.7368501,44.1473225 L43.1044588,45.514279 L43.0996321,45.3425636 L36.7259365,52.472781 L36.9075188,52.4676986 L34.6849101,50.2450899 L34.6849101,50.2450899 Z" id="Shape"></path>
            </g>
        </g>
    </g>
</svg>