<?xml version="1.0" encoding="iso-8859-1"?>
<!-- Generator: Adobe Illustrator 17.1.0, SVG Export Plug-In . SVG Version: 6.00 Build 0)  -->
<!DOCTYPE svg PUBLIC "-//W3C//DTD SVG 1.1//EN" "http://www.w3.org/Graphics/SVG/1.1/DTD/svg11.dtd">
<svg version="1.1" id="Capa_1" xmlns="http://www.w3.org/2000/svg" xmlns:xlink="http://www.w3.org/1999/xlink" x="0px" y="0px"
	 viewBox="0 0 492.713 492.713" style="enable-background:new 0 0 492.713 492.713;" xml:space="preserve">
<path fill="#7c7d80" d="M420.225,71.818C373.733,25.505,311.991,0,246.374,0l-0.919,0.001C179.651,0.242,117.88,26.094,71.52,72.795
	C25.16,119.496-0.239,181.455,0.002,247.258c0.24,65.648,25.983,127.313,72.487,173.637c46.492,46.313,108.233,71.818,173.85,71.818
	l0.919-0.001c65.804-0.241,127.575-26.093,173.935-72.793c46.36-46.701,71.759-108.659,71.519-174.463
	C492.471,179.807,466.728,118.142,420.225,71.818z M247.203,477.711l-0.865,0.001c-127.094,0-230.872-103.406-231.337-230.51
	c-0.226-61.797,23.626-119.983,67.164-163.84c43.537-43.857,101.547-68.135,163.344-68.361L246.374,15
	c127.095,0,230.872,103.406,231.337,230.51C478.178,373.079,374.773,477.245,247.203,477.711z M392.566,99.583
	C353.47,60.638,301.55,39.189,246.372,39.189l-0.773,0.001C131.367,39.609,38.773,132.883,39.191,247.115
	c0.202,55.205,21.85,107.061,60.956,146.015c39.096,38.945,91.015,60.394,146.194,60.394l0.773-0.001
	c114.231-0.418,206.825-93.692,206.407-207.924C453.32,190.394,431.672,138.538,392.566,99.583z M438.334,238.154l-83.301,0.305
	c-1.531-21.207-9.171-40.758-21.162-56.9l36.913-31.487c0.166-0.142,0.321-0.292,0.471-0.445c0.187-0.132,0.37-0.274,0.547-0.426
	c3.15-2.69,3.523-7.424,0.833-10.574c-19.944-23.356-45.844-40.696-74.896-50.147c-3.939-1.28-8.171,0.873-9.452,4.813
	c-1.281,3.939,0.873,8.171,4.812,9.452c24.052,7.823,45.716,21.613,63.101,40.052l-32.075,27.361
	c-18.248-18.619-43.088-30.742-70.666-32.53l-0.305-83.304C353.111,57.821,434.102,138.294,438.334,238.154z M253.513,152.659
	c23.005,1.745,43.746,11.837,59.181,27.247l-58.897,50.24L253.513,152.659z M238.829,238.884l-86.17,0.315
	c1.666-22.279,11.099-43.018,27.009-59.045c15.91-16.027,36.58-25.612,58.845-27.44L238.829,238.884z M238.884,253.884l0.315,86.17
	c-45.83-3.476-82.67-40.081-86.482-85.854L238.884,253.884z M253.884,253.829l86.17-0.315
	c-1.666,22.279-11.099,43.018-27.009,59.045c-15.91,16.027-36.579,25.612-58.845,27.441L253.884,253.829z M266.787,238.782
	l55.649-47.469c9.796,13.493,16.1,29.674,17.56,47.201L266.787,238.782z M238.154,54.378l0.305,83.297
	c-26.276,1.871-50.702,13.04-69.436,31.912c-18.734,18.872-29.724,43.379-31.403,69.667l-83.296,0.305
	C57.817,139.538,138.161,58.603,238.154,54.378z M54.379,254.559l83.301-0.305c3.903,54.036,47.475,97.326,101.574,100.832
	l0.305,83.304C139.602,434.892,58.612,354.419,54.379,254.559z M254.559,438.334l-0.305-83.297
	c26.276-1.871,50.701-13.04,69.436-31.912c18.734-18.872,29.724-43.378,31.403-69.667l83.297-0.305
	C434.896,353.174,354.552,434.11,254.559,438.334z M107.475,156.663c-0.037-10.191,8.194-18.484,18.386-18.521
	s18.484,8.194,18.521,18.386c0.037,10.191-8.194,18.484-18.386,18.521S107.513,166.854,107.475,156.663z M140.228,320.675
	c0.029,7.897-6.35,14.322-14.247,14.351c-7.897,0.029-14.322-6.35-14.351-14.247c-0.029-7.897,6.349-14.322,14.247-14.351
	C133.773,306.4,140.199,312.778,140.228,320.675z"/>
</svg>
