<?xml version="1.0" encoding="UTF-8" standalone="no"?>
<svg width="150px" height="135px" viewBox="0 0 60 54" version="1.1" xmlns="http://www.w3.org/2000/svg" xmlns:xlink="http://www.w3.org/1999/xlink" xmlns:sketch="http://www.bohemiancoding.com/sketch/ns">
    <!-- Generator: Sketch 3.3.2 (12043) - http://www.bohemiancoding.com/sketch -->
    <title>focus</title>
    <desc>Created with Sketch.</desc>
    <defs></defs>
    <g id="Page-1" stroke="none" stroke-width="1" fill="none" fill-rule="evenodd" sketch:type="MSPage">
        <g id="focus" sketch:type="MSLayerGroup" transform="translate(-5.000000, -8.000000)">
            <path d="M16.8637462,39.2139965 L12.8020375,43.275005 L12.1081652,42.5776318 L16.1698739,38.519424 L16.8637462,39.2139965 L16.8637462,39.2139965 Z M23.9228992,51.7078991 L24.9010421,51.7078991 L24.9010421,41.290012 L23.9228992,41.290012 L23.9228992,51.7078991 L23.9228992,51.7078991 Z M37.0812668,42.9452231 L32.6547676,38.519424 L31.9601951,39.2139965 L36.3866944,43.6397955 L37.0812668,42.9452231 L37.0812668,42.9452231 Z M16.0732499,49.1473633 L16.9631709,49.5478627 L20.5683661,41.4860607 L19.6784451,41.0904625 L16.0732499,49.1473633 L16.0732499,49.1473633 Z M28.2611765,41.4860607 L31.8635711,49.5478627 L32.7541923,49.1473633 L29.148997,41.0904625 L28.2611765,41.4860607 L28.2611765,41.4860607 Z M64.5714936,28.5860572 L45.9699742,60.3781522 L60.7128354,60.3781522 L60.7128354,61.3569953 L29.5242902,61.3569953 L29.5242902,60.3781522 L44.833592,60.3781522 L63.6325604,28.2492736 L29.1980092,15.8596968 L29.1980092,18.0547419 C29.1980092,18.658992 29.0761789,19.2492386 28.8962342,19.8317832 C35.656413,21.3623633 41.269707,26.2908872 43.5977851,32.8501161 L43.826742,33.5068792 L32.6372633,33.5068792 C31.3846522,37.0084488 28.1365456,39.3596326 24.4151214,39.3596326 C20.684595,39.3596326 17.4364884,37.0084488 16.1838773,33.5068792 L5,33.5068792 L5.23175755,32.8501161 C7.55983569,26.2908872 13.1724295,21.3623633 19.9333084,19.8317832 C19.7533638,19.2492386 19.6315335,18.6596922 19.6315335,18.0547419 L19.6315335,15.4851038 C19.6315335,13.6520486 20.4304319,12.0661548 21.5913202,11.2035405 L21.5913202,10.7127187 C21.5913202,9.57073507 22.5183504,8.64300468 23.660334,8.64300468 L25.166408,8.64300468 C26.3083916,8.64300468 27.2375223,9.57073507 27.2375223,10.7127187 L27.2375223,11.2035405 C28.2492736,11.9541269 28.9683521,13.2585509 29.1398947,14.8010339 L64.1317844,27.3866594 L64.1513893,27.3495501 L64.3642421,27.4769818 L64.9061767,27.6674291 L64.8697677,27.7710548 L65,27.8473738 L64.5882978,28.5496482 L64.5742943,28.5909584 L64.5714936,28.5860572 L64.5714936,28.5860572 Z M23.535703,10.5194707 L25.2966403,10.5194707 L26.2362737,10.5194707 C26.1536532,10.0125448 25.7027412,9.62394828 25.166408,9.62394828 L23.660334,9.62394828 C23.1240008,9.62394828 22.6758895,10.0125448 22.5904683,10.5194707 L23.535703,10.5194707 L23.535703,10.5194707 Z M20.6131773,18.0547419 C20.6131773,18.5840734 20.6936973,19.1057029 20.8596385,19.6168298 C23.2654359,19.1855227 25.585112,19.1855227 27.9678037,19.6168298 C28.1337449,19.1057029 28.2163654,18.5840734 28.2163654,18.0547419 L28.2163654,15.4851038 C28.2163654,13.2858577 26.9056399,11.4997141 25.2966403,11.4997141 L23.535703,11.4997141 C21.9176012,11.4997141 20.6131773,13.2858577 20.6131773,15.4851038 L20.6131773,18.0547419 L20.6131773,18.0547419 Z M31.581401,33.5068792 L17.2404397,33.5068792 C18.4349363,36.4378071 21.2216284,38.378689 24.4158216,38.378689 C27.6002124,38.378689 30.3925058,36.4371069 31.581401,33.5068792 L31.581401,33.5068792 Z M28.1918593,20.6537874 C25.6425262,20.137059 23.193318,20.137059 20.6383835,20.6537874 C14.209387,21.928804 8.81034624,26.4449255 6.4045488,32.5266358 L42.4249939,32.5266358 C40.0198966,26.4449255 34.6229564,21.928804 28.1918593,20.6537874 L28.1918593,20.6537874 Z" id="Shape" fill="#ffffff" sketch:type="MSShapeGroup"></path>
        </g>
    </g>
</svg>