<?xml version="1.0" encoding="UTF-8" standalone="no"?>
<svg width="100px" height="65px" viewBox="0 0 46 30" version="1.1" xmlns="http://www.w3.org/2000/svg" xmlns:xlink="http://www.w3.org/1999/xlink" xmlns:sketch="http://www.bohemiancoding.com/sketch/ns">
    <!-- Generator: Sketch 3.3.2 (12043) - http://www.bohemiancoding.com/sketch -->
    <title>hip-hop</title>
    <desc>Created with Sketch.</desc>
    <defs></defs>
    <g id="Page-1" stroke="none" stroke-width="1" fill="none" fill-rule="evenodd" sketch:type="MSPage">
        <g id="hip-hop" sketch:type="MSLayerGroup" transform="translate(-12.000000, -20.000000)">
            <path d="M14.3748469,49.9996939 C13.3435204,49.9996939 12.5,49.1557143 12.5,48.1253061 L12.5,21.8751531 C12.5,20.8438265 13.3435204,20.0003061 14.3748469,20.0003061 L55.6246939,20.0003061 C56.6560204,20.0003061 57.5,20.8438265 57.5,21.8751531 L57.5,48.1253061 C57.5,49.1557143 56.6560204,49.9996939 55.6246939,49.9996939 L14.3748469,49.9996939 L14.3748469,49.9996939 Z M19.9998469,20.9375 L14.3748469,20.9375 C13.8591837,20.9375 13.4371939,21.3594898 13.4371939,21.8751531 L13.4371939,48.1253061 C13.4371939,48.6409694 13.8591837,49.0625 14.3748469,49.0625 L55.6246939,49.0625 C56.1403571,49.0625 56.5623469,48.6409694 56.5623469,48.1253061 L56.5623469,21.8751531 C56.5623469,21.3594898 56.1403571,20.9375 55.6246939,20.9375 L49.9996939,20.9375 L49.9996939,25.6248469 C49.9996939,27.1718367 48.7341837,28.4373469 47.1871939,28.4373469 L22.8123469,28.4373469 C21.2653571,28.4373469 19.9998469,27.1718367 19.9998469,25.6248469 L19.9998469,20.9375 L19.9998469,20.9375 Z M16.2496939,41.5621939 C16.2496939,41.0465306 16.6716837,40.625 17.1873469,40.625 L52.8121939,40.625 C53.3278571,40.625 53.7498469,41.0465306 53.7498469,41.5621939 L53.7498469,45.3118878 C53.7498469,45.8284694 53.3278571,46.25 52.8121939,46.25 L17.1873469,46.25 C16.6716837,46.25 16.2496939,45.8284694 16.2496939,45.3118878 L16.2496939,41.5621939 L16.2496939,41.5621939 Z M17.1873469,45.3118878 L52.8121939,45.3118878 L52.8121939,41.5621939 L17.1873469,41.5621939 L17.1873469,45.3118878 L17.1873469,45.3118878 Z M20.9375,25.6248469 C20.9375,26.6561735 21.7810204,27.4996939 22.8123469,27.4996939 L47.1871939,27.4996939 C48.2185204,27.4996939 49.0625,26.6561735 49.0625,25.6248469 L49.0625,20.9375 L20.9375,20.9375 L20.9375,25.6248469 L20.9375,25.6248469 Z M24.6871939,31.7186735 C26.2341837,31.7186735 27.4996939,32.9841837 27.4996939,34.5311735 C27.4996939,36.0781633 26.2341837,37.3436735 24.6871939,37.3436735 C23.1406633,37.3436735 21.8746939,36.0781633 21.8746939,34.5311735 C21.8746939,32.9841837 23.1406633,31.7186735 24.6871939,31.7186735 L24.6871939,31.7186735 Z M24.6871939,36.4060204 C25.7185204,36.4060204 26.5625,35.5620408 26.5625,34.5311735 C26.5625,33.4998469 25.7185204,32.6563265 24.6871939,32.6563265 C23.6563265,32.6563265 22.8123469,33.4998469 22.8123469,34.5311735 C22.8123469,35.5625 23.6563265,36.4060204 24.6871939,36.4060204 L24.6871939,36.4060204 Z M24.6871939,22.8123469 C25.3438265,22.8123469 25.6248469,23.0938265 25.6248469,23.75 C25.6248469,24.4066327 25.3438265,24.6876531 24.6871939,24.6876531 C24.0310204,24.6876531 23.75,24.4066327 23.75,23.75 C23.75,23.0938265 24.0310204,22.8123469 24.6871939,22.8123469 L24.6871939,22.8123469 Z M29.3745408,31.7186735 L40.625,31.7186735 L40.625,37.3436735 L29.3745408,37.3436735 L29.3745408,31.7186735 L29.3745408,31.7186735 Z M30.3121939,36.4060204 L31.9528571,36.4060204 C32.0938265,35.8435204 32.1870408,35.1873469 32.1870408,34.5311735 C32.1870408,33.9218367 32.0938265,33.2656633 31.9528571,32.6563265 L30.3121939,32.6563265 L30.3121939,36.4060204 L30.3121939,36.4060204 Z M32.890051,36.4060204 L35.140051,36.4060204 C35.0463776,35.7962245 34.9990816,35.2337245 34.9990816,34.5311735 C34.9990816,33.9218367 35.0463776,33.2656633 35.140051,32.6563265 L32.890051,32.6563265 C33.0310204,33.2656633 33.1246939,33.9218367 33.1246939,34.5311735 C33.1246939,35.1878061 33.0310204,35.8439796 32.890051,36.4060204 L32.890051,36.4060204 Z M34.9995408,24.2188265 C35.6561735,24.2188265 35.9371939,24.4998469 35.9371939,25.1564796 C35.9371939,25.8131122 35.6561735,26.0941327 34.9995408,26.0941327 C34.3433673,26.0941327 34.0623469,25.8131122 34.0623469,25.1564796 C34.0623469,24.4998469 34.3433673,24.2188265 34.9995408,24.2188265 L34.9995408,24.2188265 Z M36.0781633,36.4060204 L39.6873469,36.4060204 L39.6873469,32.6558673 L36.0781633,32.6558673 C35.9844898,33.2652041 35.9371939,33.9213776 35.9371939,34.5307143 C35.9371939,35.1878061 35.9844898,35.7962245 36.0781633,36.4060204 L36.0781633,36.4060204 Z M45.3123469,31.7186735 C46.8588776,31.7186735 48.1248469,32.9841837 48.1248469,34.5311735 C48.1248469,36.0781633 46.8588776,37.3436735 45.3123469,37.3436735 C43.7653571,37.3436735 42.4998469,36.0781633 42.4998469,34.5311735 C42.4998469,32.9841837 43.7653571,31.7186735 45.3123469,31.7186735 L45.3123469,31.7186735 Z M45.3123469,36.4060204 C46.3432143,36.4060204 47.1871939,35.5620408 47.1871939,34.5311735 C47.1871939,33.4998469 46.3432143,32.6563265 45.3123469,32.6563265 C44.2810204,32.6563265 43.4375,33.4998469 43.4375,34.5311735 C43.4375,35.5625 44.2810204,36.4060204 45.3123469,36.4060204 L45.3123469,36.4060204 Z M45.3123469,22.8123469 C45.9685204,22.8123469 46.25,23.0938265 46.25,23.75 C46.25,24.4066327 45.9685204,24.6876531 45.3123469,24.6876531 C44.6561735,24.6876531 44.3746939,24.4066327 44.3746939,23.75 C44.3746939,23.0938265 44.6561735,22.8123469 45.3123469,22.8123469 L45.3123469,22.8123469 Z" id="Shape" fill="#ffffff" sketch:type="MSShapeGroup"></path>
        </g>
    </g>
</svg>