<?xml version="1.0" encoding="UTF-8" standalone="no"?>
<svg width="90px" height="76px" viewBox="0 0 90 76" version="1.1" xmlns="http://www.w3.org/2000/svg" xmlns:xlink="http://www.w3.org/1999/xlink" xmlns:sketch="http://www.bohemiancoding.com/sketch/ns">
    <!-- Generator: Sketch 3.3.2 (12043) - http://www.bohemiancoding.com/sketch -->
    <title>Shape</title>
    <desc>Created with Sketch.</desc>
    <defs></defs>
    <g id="Page-1" stroke="none" stroke-width="1" fill="none" fill-rule="evenodd" sketch:type="MSPage">
        <path d="M82.5,60.5 L7.5,60.5 C3.358,60.5 0,63.857 0,68 C0,72.143 3.358,75.5 7.5,75.5 L82.5,75.5 C86.643,75.5 90,72.143 90,68 C90,63.857 86.643,60.5 82.5,60.5 L82.5,60.5 Z M82.5,30.5 L7.5,30.5 C3.358,30.5 0,33.858 0,38 C0,42.143 3.358,45.5 7.5,45.5 L82.5,45.5 C86.643,45.5 90,42.143 90,38 C90,33.858 86.643,30.5 82.5,30.5 L82.5,30.5 Z M7.5,15.5 L82.5,15.5 C86.643,15.5 90,12.142 90,8 C90,3.858 86.643,0.5 82.5,0.5 L7.5,0.5 C3.358,0.5 0,3.858 0,8 C0,12.142 3.358,15.5 7.5,15.5 L7.5,15.5 Z" id="Shape" fill="#ffffff" sketch:type="MSShapeGroup"></path>
    </g>
</svg>