<?xml version="1.0" encoding="UTF-8" standalone="no"?>
<svg width="150px" height="150px" viewBox="0 0 60 60" version="1.1" xmlns="http://www.w3.org/2000/svg" xmlns:xlink="http://www.w3.org/1999/xlink" xmlns:sketch="http://www.bohemiancoding.com/sketch/ns">
    <!-- Generator: Sketch 3.3.2 (12043) - http://www.bohemiancoding.com/sketch -->
    <title>mood</title>
    <desc>Created with Sketch.</desc>
    <defs></defs>
    <g id="Page-1" stroke="none" stroke-width="1" fill="none" fill-rule="evenodd" sketch:type="MSPage">
        <g id="mood" sketch:type="MSLayerGroup" transform="translate(-5.000000, -5.000000)">
            <path d="M54.8017653,48.86431 C53.2434353,48.86431 51.718824,49.3390155 50.4355324,50.2137167 C49.877522,48.206466 48.7734019,46.4478077 47.3142445,45.0745997 C50.4031361,42.161574 52.1684059,38.1113707 52.1684059,33.8714174 C52.1684059,25.370354 45.2521184,18.4534055 36.7503939,18.4534055 C28.5508149,18.4534055 21.7555178,24.9915152 21.3641172,33.1296074 C21.1214752,33.1183678 20.8801556,33.1018391 20.6361913,33.1018391 C12.0141376,33.1018391 5,40.117299 5,48.740675 C5,57.3633899 12.0141376,64.3781887 20.6361913,64.3781887 L54.8017653,64.3781887 C59.0780818,64.3781887 62.5570517,60.8985576 62.5570517,56.6215799 C62.5570517,52.3446023 59.0780818,48.86431 54.8017653,48.86431 L54.8017653,48.86431 Z M36.7510551,19.4444689 C44.7053476,19.4444689 51.1773424,25.9164637 51.1773424,33.8707562 C51.1773424,37.8707122 49.4973609,41.6901742 46.5605338,44.4213838 C44.63196,42.9020617 42.2101685,42.0022369 39.6230896,42.0022369 C38.0746769,42.0022369 36.5718835,42.3189276 35.147767,42.943053 C33.0010138,37.5738559 28.0430519,33.8462937 22.3657591,33.2089454 C22.7161684,25.5812608 29.0691563,19.4444689 36.7510551,19.4444689 L36.7510551,19.4444689 Z M54.8017653,63.3864641 L20.6368525,63.3864641 C12.5622307,63.3864641 5.99238576,56.815958 5.99238576,48.740675 C5.99238576,40.6640698 12.5622307,34.0935637 20.6368525,34.0935637 C26.7862062,34.0935637 32.3193684,37.989058 34.4072793,43.78668 L34.5957069,44.3103106 L35.0942138,44.0630406 C36.5249419,43.3542881 38.0482309,42.9946226 39.6230896,42.9946226 C44.4633668,42.9946226 48.6781964,46.4306178 49.6461196,51.1651111 L49.8127293,51.9809699 L50.4507388,51.4447775 C51.6705601,50.4199954 53.215667,49.8560346 54.8024264,49.8560346 C58.5319721,49.8560346 61.5659883,52.8907119 61.5659883,56.6209188 C61.5659883,60.3511256 58.5313109,63.3864641 54.8017653,63.3864641 Z M62.6628329,45.1399991 L56.5074915,42.589377 L56.8871237,41.6732218 L63.0424651,44.2238439 L62.6628329,45.1399991 Z M10.8427739,22.602652 L16.9981707,25.1516886 L16.6187369,26.0679429 L10.4633401,23.5189064 L10.8427739,22.602652 Z M47.1030649,7.5813826 L48.0192201,7.96101478 L45.4683449,14.1169669 L44.5521897,13.7373347 L47.1030649,7.5813826 Z M63.0378504,23.5212716 L56.8824535,26.0709744 L56.5029205,25.15472 L62.6583174,22.6050172 L63.0378504,23.5212716 Z M26.3986906,7.58179965 L28.9495658,13.7377518 L28.0334106,14.117384 L25.4825354,7.96143183 L26.3986906,7.58179965 Z M17.1261266,13.545459 L21.8375813,18.2569138 L21.1363329,18.9581622 L16.4248781,14.2467075 L17.1261266,13.545459 Z M56.3749727,13.5445439 L57.0762211,14.2457923 L52.3647664,18.9572471 L51.6635179,18.2559986 L56.3749727,13.5445439 Z M58.3362718,33.3748939 L65,33.3748939 L65,34.3666185 L58.3362718,34.3666185 L58.3362718,33.3748939 Z M36.2551928,5.62181133 L37.2469174,5.62181133 L37.2469174,12.2855396 L36.2551928,12.2855396 L36.2551928,5.62181133 Z" id="Shape" fill="#ffffff" sketch:type="MSShapeGroup"></path>
        </g>
    </g>
</svg>