<?xml version="1.0" encoding="iso-8859-1"?>
<!-- Generator: Adobe Illustrator 16.0.0, SVG Export Plug-In . SVG Version: 6.00 Build 0)  -->
<!DOCTYPE svg PUBLIC "-//W3C//DTD SVG 1.1//EN" "http://www.w3.org/Graphics/SVG/1.1/DTD/svg11.dtd">
<svg version="1.1" id="Capa_1" xmlns="http://www.w3.org/2000/svg" xmlns:xlink="http://www.w3.org/1999/xlink" x="0px" y="0px"
	 width="373.008px" height="373.008px" viewBox="0 0 373.008 373.008" style="enable-background:new 0 0 373.008 373.008;"
	 xml:space="preserve">
		<path fill="#ffffff" d="M25.307,2.588C28.295,0.864,31.627,0,34.963,0c3.338,0,6.663,0.864,9.655,2.588l200.384,167.2
			c5.957,3.445,9.65,9.823,9.65,16.719c0,6.895-3.683,13.272-9.65,16.713L44.618,370.427c-5.969,3.441-13.333,3.441-19.306,0
			c-5.973-3.453-9.655-9.833-9.655-16.724V19.305C15.658,12.413,19.335,6.036,25.307,2.588z M278.204,7.924v357.167
			c0,4.263,3.46,7.722,7.723,7.722h63.697c4.268,0,7.727-3.459,7.727-7.722V7.924c0-4.269-3.459-7.727-7.727-7.727h-63.697
			C281.664,0.197,278.204,3.655,278.204,7.924z"/>
</svg>
