<?xml version="1.0" encoding="UTF-8" standalone="no"?>
<svg width="90px" height="90px" viewBox="0 0 90 90" version="1.1" xmlns="http://www.w3.org/2000/svg" xmlns:xlink="http://www.w3.org/1999/xlink" xmlns:sketch="http://www.bohemiancoding.com/sketch/ns">
    <!-- Generator: Sketch 3.3.2 (12043) - http://www.bohemiancoding.com/sketch -->
    <title>Shape</title>
    <desc>Created with Sketch.</desc>
    <defs></defs>
    <g id="Page-1" stroke="none" stroke-width="1" fill="none" fill-rule="evenodd" sketch:type="MSPage">
        <path d="M45,0 C20.147,0 0,20.147 0,45 C0,69.852 20.147,90 45,90 C69.852,90 90,69.852 90,45 C90,20.147 69.852,0 45,0 L45,0 Z M45,85 C22.908,85 5,67.091 5,45 C5,22.908 22.908,5 45,5 C67.091,5 85,22.908 85,45 C85,67.091 67.091,85 45,85 L45,85 Z M27,49 C29.209139,49 31,47.209139 31,45 C31,42.790861 29.209139,41 27,41 C24.790861,41 23,42.790861 23,45 C23,47.209139 24.790861,49 27,49 Z M45,49 C47.209139,49 49,47.209139 49,45 C49,42.790861 47.209139,41 45,41 C42.790861,41 41,42.790861 41,45 C41,47.209139 42.790861,49 45,49 Z M63,49 C65.209139,49 67,47.209139 67,45 C67,42.790861 65.209139,41 63,41 C60.790861,41 59,42.790861 59,45 C59,47.209139 60.790861,49 63,49 Z" id="Shape" fill="#ffffff" sketch:type="MSShapeGroup"></path>
    </g>
</svg>