<?xml version="1.0" encoding="UTF-8" standalone="no"?>
<svg width="69px" height="150px" viewBox="0 0 24 52" version="1.1" xmlns="http://www.w3.org/2000/svg" xmlns:xlink="http://www.w3.org/1999/xlink" xmlns:sketch="http://www.bohemiancoding.com/sketch/ns">
    <!-- Generator: Sketch 3.3.2 (12043) - http://www.bohemiancoding.com/sketch -->
    <title>party</title>
    <desc>Created with Sketch.</desc>
    <defs></defs>
    <g id="Page-1" stroke="none" stroke-width="1" fill="none" fill-rule="evenodd" sketch:type="MSPage">
        <g id="party" sketch:type="MSLayerGroup" transform="translate(-23.000000, -9.000000)">
            <path d="M34.4619182,38.0981843 C26.6472043,38.0621716 24.0953696,30.7709664 24.0701045,30.6974679 C21.0163975,23.9252036 25.4637001,12.920346 25.5097503,12.8121279 C26.0335719,11.5894939 25.4936327,9.74115214 25.4884521,9.72215641 C25.4395237,9.55810241 25.4711832,9.38023334 25.573645,9.24323385 C25.6761068,9.10565874 25.8372827,9.02449518 26.0088198,9.02449518 L43.9994998,9.02449518 C44.1704613,9.02449518 44.3316372,9.10565874 44.4346746,9.24323385 C44.5365608,9.38023334 44.5682203,9.55810241 44.5192919,9.72273204 C44.5141113,9.74115214 43.9741721,11.5900695 44.4979937,12.8127036 C44.541496,12.9136718 48.4152982,22.5001944 46.4385311,29.3242677 L46.4385311,29.3242677 C46.4365517,29.3316577 46.4344181,29.3389946 46.4321333,29.3462741 C46.2914307,29.8285025 46.1214092,30.2968463 45.9186438,30.7469719 C45.912902,30.7710874 43.360793,38.0614558 35.5469771,38.0981789 L35.5469771,55.9197142 C37.7024812,55.9577631 45.3804315,56.247755 45.3804315,58.4444682 C45.3804315,60.9461478 35.4272464,60.9755048 35.0041598,60.9755048 C34.5804975,60.9755048 24.6278881,60.9461478 24.6278881,58.4444682 C24.6278881,56.2470538 32.3072057,55.9575885 34.4619182,55.9196817 L34.4619182,38.0981843 Z M35.5469771,57.001387 C40.7948459,57.0577272 43.8950965,57.9228434 44.2781038,58.4444682 C43.881496,58.9844073 40.5808446,59.8910215 35.0041598,59.8910215 C29.427475,59.8910215 26.1268236,58.9844073 25.7302159,58.4444682 C26.1137938,57.9228244 29.2137363,57.0576642 34.4619182,57.0013809 L34.4619182,57.5844798 C34.4619182,57.8838064 34.7042576,58.1267215 35.0041598,58.1267215 C35.3034864,58.1267215 35.5464015,57.8838064 35.5469771,57.5839042 L35.5469771,57.001387 Z M24.4869785,28.5692323 C22.8948305,22.1614201 26.4667946,13.3345397 26.5073138,13.2398196 C26.9568793,12.189874 26.8331192,10.8929839 26.6892122,10.1095541 L26.6892122,10.1095541 L43.319683,10.1095541 C43.175776,10.8935596 43.052016,12.189874 43.5015815,13.2398196 C43.5423129,13.335036 47.1515921,22.2541562 45.4817225,28.7072765 C44.2185429,28.9093672 39.5519663,29.5409984 35.2062053,28.6522614 C30.7628661,27.7430985 26.0089288,28.3352968 24.4869785,28.5692323 L24.4869785,28.5692323 Z M24.8045369,29.620935 C24.8878134,29.8521488 24.9792036,30.0789927 25.0791805,30.3008602 C25.191428,30.621485 27.4513438,37.0132592 34.5206322,37.0132592 L35.488263,37.0132592 C42.5581271,37.0132592 44.8180429,30.621485 44.910719,30.3492129 C44.9827319,30.1892494 45.0503361,30.0267673 45.1137053,29.8619882 C44.0988446,30.0060565 42.3233012,30.2047303 40.2406484,30.2047303 C38.6052891,30.2047303 36.7816993,30.0826971 34.9880422,29.7154464 C30.9047639,28.8806532 26.4104265,29.3895048 24.8045369,29.620935 L24.8045369,29.620935 Z" id="Shape" fill="#ffffff" sketch:type="MSShapeGroup"></path>
        </g>
    </g>
</svg>