<?xml version="1.0" encoding="UTF-8" standalone="no"?>
<svg width="90px" height="90px" viewBox="0 0 90 90" version="1.1" xmlns="http://www.w3.org/2000/svg" xmlns:xlink="http://www.w3.org/1999/xlink" xmlns:sketch="http://www.bohemiancoding.com/sketch/ns">
    <!-- Generator: Sketch 3.3.2 (12043) - http://www.bohemiancoding.com/sketch -->
    <title>Shape</title>
    <desc>Created with Sketch.</desc>
    <defs></defs>
    <g id="Page-1" stroke="none" stroke-width="1" fill="none" fill-rule="evenodd" sketch:type="MSPage">
        <path d="M45,0 C20.147,0 0,20.147 0,45 C0,69.852 20.147,90 45,90 C69.852,90 90,69.852 90,45 C90,20.147 69.852,0 45,0 L45,0 Z M45,85 C22.908,85 5,67.091 5,45 C5,22.908 22.908,5 45,5 C67.091,5 85,22.908 85,45 C85,67.091 67.091,85 45,85 L45,85 Z M55,22.5 C52.8,22.5 51,24.3 51,26.5 L51,63.5 C51,65.7 52.8,67.5 55,67.5 C57.2,67.5 59,65.7 59,63.5 L59,26.5 C59,24.3 57.2,22.5 55,22.5 L55,22.5 Z M35,22.5 C32.8,22.5 31,24.3 31,26.5 L31,63.5 C31,65.7 32.8,67.5 35,67.5 C37.2,67.5 39,65.7 39,63.5 L39,26.5 C39,24.3 37.2,22.5 35,22.5 L35,22.5 Z" id="Shape" fill="#ffffff" sketch:type="MSShapeGroup"></path>
    </g>
</svg>