<?xml version="1.0" encoding="UTF-8" standalone="no"?>
<svg width="90px" height="90px" viewBox="0 0 90 90" version="1.1" xmlns="http://www.w3.org/2000/svg" xmlns:xlink="http://www.w3.org/1999/xlink" xmlns:sketch="http://www.bohemiancoding.com/sketch/ns">
    <!-- Generator: Sketch 3.3.2 (12043) - http://www.bohemiancoding.com/sketch -->
    <title>Shape</title>
    <desc>Created with Sketch.</desc>
    <defs></defs>
    <g id="Page-1" stroke="none" stroke-width="1" fill="none" fill-rule="evenodd" sketch:type="MSPage">
        <path d="M45,0 C20.147,0 0,20.147 0,45 C0,69.852 20.147,90 45,90 C69.852,90 90,69.852 90,45 C90,20.147 69.852,0 45,0 L45,0 Z M45,85 C22.908,85 5,67.091 5,45 C5,22.908 22.908,5 45,5 C67.091,5 85,22.908 85,45 C85,67.091 67.091,85 45,85 L45,85 Z M62.471,41.642 L51.072,33.75 L41.231,26.937 C38.522,25.062 34.822,27 34.822,30.295 L34.822,45 L34.822,59.705 C34.822,63 38.522,64.938 41.231,63.063 L51.072,56.25 L62.471,48.358 C64.817,46.734 64.817,43.266 62.471,41.642 L62.471,41.642 Z" id="Shape" fill="#ffffff" sketch:type="MSShapeGroup"></path>
    </g>
</svg>