<?xml version="1.0" encoding="UTF-8" standalone="no"?>
<svg width="105px" height="125px" viewBox="0 0 42 50" version="1.1" xmlns="http://www.w3.org/2000/svg" xmlns:xlink="http://www.w3.org/1999/xlink" xmlns:sketch="http://www.bohemiancoding.com/sketch/ns">
    <!-- Generator: Sketch 3.3.2 (12043) - http://www.bohemiancoding.com/sketch -->
    <title>pop</title>
    <desc>Created with Sketch.</desc>
    <defs></defs>
    <g id="Page-1" stroke="none" stroke-width="1" fill="none" fill-rule="evenodd" sketch:type="MSPage">
        <g id="pop" sketch:type="MSLayerGroup" transform="translate(-14.000000, -10.000000)">
            <path d="M47.2062653,10 C45.814154,10 44.5380519,10.3480278 43.4359637,10.9860789 L43.4359637,10.9860789 C41.0577735,12.3201856 39.4916482,14.8723898 39.4916482,17.7146172 C39.4916482,18.0046404 39.4916482,18.2946636 39.5496528,18.5846868 L21.452205,29.9535963 C21.1621818,30.1276102 21.1041772,30.4756381 21.2781911,30.7656613 L22.6122978,32.9698376 C21.1621818,33.8399072 17.6238987,36.0440835 16.1157781,38.6542923 C13.7955925,42.6566125 15.477727,46.5429234 16.8118338,49.6171694 C17.2758709,50.6612529 17.6819034,51.6473318 17.9139219,52.5174014 C18.551973,55.1856148 17.8559173,57.5058005 15.9417642,58.9559165 C15.7097456,59.1299304 15.651741,59.5359629 15.8257549,59.7679814 C15.9417642,59.9419954 16.1157781,60 16.289792,60 C16.4058013,60 16.5218106,59.9419954 16.6378199,59.8839907 C18.9000008,58.1438515 19.7700704,55.3596288 19.0740147,52.2853828 C18.8419962,51.3573086 18.3779591,50.3132251 17.9139219,49.2111369 C16.5218106,46.136891 15.0716946,42.7146172 17.101857,39.2343387 C18.4359637,36.8561485 21.8002328,34.7099768 23.1343396,33.9559165 L24.5264509,36.3341067 C24.5844556,36.450116 24.7584695,36.5661253 24.8744788,36.6241299 L24.9904881,36.6241299 C25.1064973,36.6241299 25.2225066,36.5661253 25.2805113,36.5081206 L35.6633419,30.0116009 L35.6633419,43.9907193 L28.1807433,43.9907193 C27.3106737,43.9907193 26.5566134,44.512761 26.2665902,45.324826 C26.2085855,45.4408353 26.1505809,45.5568445 26.1505809,45.6728538 L26.1505809,46.0208817 C26.1505809,46.136891 26.2085855,46.2529002 26.2665902,46.3689095 C26.5566134,47.1229698 27.3106737,47.7030162 28.1807433,47.7030162 L48.0183303,47.7030162 C48.8883999,47.7030162 49.6424602,47.1809745 49.9324834,46.3689095 C49.9904881,46.2529002 50.0484927,46.136891 50.0484927,46.0208817 L50.0484927,45.6728538 C50.0484927,45.5568445 49.9904881,45.4408353 49.9324834,45.324826 C49.6424602,44.5707657 48.8883999,43.9907193 48.0183303,43.9907193 L40.3617178,43.9907193 L40.3617178,27.1693735 L44.0160101,24.9071926 C44.0160101,24.9071926 44.0160101,24.9071926 44.0740147,24.8491879 C45.0600936,25.3132251 46.1041772,25.5452436 47.26427,25.5452436 C48.9464045,25.5452436 50.4545252,25.0232019 51.7306273,24.0951276 L51.7886319,24.0951276 L51.8466366,24.037123 C53.7607897,22.6450116 55.0368918,20.324826 55.0368918,17.7726218 C54.9788871,13.4802784 51.4986087,10 47.2062653,10 L47.2062653,10 Z M51.5566134,22.7030162 L44.5960565,11.6821346 C45.4081215,11.3341067 46.2781911,11.1020882 47.26427,11.1020882 C50.9185623,11.1020882 53.876799,14.0603248 53.876799,17.7146172 C53.8187943,19.7447796 52.9487247,21.4849188 51.5566134,22.7030162 L51.5566134,22.7030162 Z M42.8559173,24.1531323 L40.3037131,25.7192575 L39.7236667,26.0672854 L39.1436203,26.4153132 L36.8814393,27.8074246 L36.3013929,28.1554524 L35.7213465,28.5034803 L25.2225066,35.2320186 L24.0044092,33.1438515 C24.0044092,33.0278422 24.0044092,32.9118329 23.9464045,32.8538283 C23.8883999,32.737819 23.7723906,32.6798144 23.6563813,32.6218097 L22.4962885,30.649652 L39.7236667,19.8607889 L39.9556853,19.7447796 L40.8257549,21.0788863 L41.5798152,22.2969838 L42.8559173,24.1531323 L42.8559173,24.1531323 Z M48.8303953,45.7888631 C48.7723906,46.1948956 48.4243628,46.4849188 47.9603257,46.4849188 L28.1807433,46.4849188 C27.7747108,46.4849188 27.426683,46.1948956 27.3106737,45.7888631 C27.3686783,45.3828306 27.7747108,45.0928074 28.1807433,45.0928074 L36.3593976,45.0928074 L39.7816714,45.0928074 L48.0183303,45.0928074 C48.4243628,45.0928074 48.7723906,45.3828306 48.8303953,45.7888631 L48.8303953,45.7888631 Z M39.201625,43.9327146 L36.939444,43.9327146 L36.939444,29.2575406 L39.201625,27.8654292 L39.201625,43.9327146 L39.201625,43.9327146 Z M43.7259869,23.3410673 L40.7097456,18.7006961 C40.651741,18.4106729 40.651741,18.1206497 40.651741,17.7726218 C40.651741,15.5104408 41.8118338,13.4802784 43.6099776,12.262181 L50.6865438,23.3990719 C49.7004649,23.9791183 48.5403721,24.3851508 47.26427,24.3851508 C45.9301632,24.3271462 44.7120658,23.9791183 43.7259869,23.3410673 L43.7259869,23.3410673 Z" id="Shape" fill="#ffffff" sketch:type="MSShapeGroup"></path>
        </g>
    </g>
</svg>