<?xml version="1.0" encoding="UTF-8" standalone="no"?>
<svg width="100px" height="109px" viewBox="0 0 46 50" version="1.1" xmlns="http://www.w3.org/2000/svg" xmlns:xlink="http://www.w3.org/1999/xlink" xmlns:sketch="http://www.bohemiancoding.com/sketch/ns">
    <!-- Generator: Sketch 3.3.2 (12043) - http://www.bohemiancoding.com/sketch -->
    <title>rock</title>
    <desc>Created with Sketch.</desc>
    <defs></defs>
    <g id="Page-1" stroke="none" stroke-width="1" fill="none" fill-rule="evenodd" sketch:type="MSPage">
        <g id="rock" sketch:type="MSLayerGroup" transform="translate(-12.000000, -10.000000)">
            <path d="M50.702786,59.2525006 L45.2241093,59.2525006 C44.9477347,59.2525006 44.7234307,59.0281966 44.7234307,58.7518219 L44.7234307,56.7491071 L25.2219954,56.7491071 L25.2219954,58.7518219 C25.2219954,59.0281966 24.9976913,59.2525006 24.7213167,59.2525006 L19.24264,59.2525006 C18.9662654,59.2525006 18.7419613,59.0281966 18.7419613,58.7518219 L18.7419613,56.7491071 L16.0125114,56.7491071 C14.0756359,56.7491071 12.5,55.1734713 12.5,53.2365957 L12.5,14.2597605 C12.5,12.3231353 14.0756359,10.7474994 16.0125114,10.7474994 L53.9874886,10.7474994 C55.9243641,10.7474994 57.5,12.3231353 57.5,14.2597605 L57.5,53.2363454 C57.5,55.1732209 55.9243641,56.7488568 53.9874886,56.7488568 L51.2032144,56.7488568 L51.2032144,58.7515716 C51.2034647,59.0281966 50.9791606,59.2525006 50.702786,59.2525006 L50.702786,59.2525006 Z M45.724788,58.2511432 L50.2021073,58.2511432 L50.2021073,56.7491071 L45.724788,56.7491071 L45.724788,58.2511432 L45.724788,58.2511432 Z M19.7433187,58.2511432 L24.220638,58.2511432 L24.220638,56.7491071 L19.7433187,56.7491071 L19.7433187,58.2511432 L19.7433187,58.2511432 Z M50.702786,55.7477497 L53.9877389,55.7477497 C55.3723659,55.7477497 56.4988929,54.6212227 56.4988929,53.2365957 L56.4988929,14.2597605 C56.4988929,12.8753839 55.3723659,11.7488568 53.9877389,11.7488568 L16.0125114,11.7488568 C14.6278845,11.7488568 13.5013574,12.8753839 13.5013574,14.2597605 L13.5013574,53.2363454 C13.5013574,54.6209723 14.6278845,55.7474994 16.0125114,55.7474994 L50.702786,55.7474994 L50.702786,55.7477497 Z M43.7761466,53.4008183 L43.7743942,53.4008183 L26.1707815,53.4008183 L26.1672768,53.4008183 L18.3907352,53.4008183 C17.0061083,53.4008183 15.8795812,52.2742913 15.8795812,50.8896643 L15.8795812,47.2985464 L15.8795812,47.2950416 L15.8795812,30.7989302 L15.8795812,30.7954255 L15.8795812,27.05861 C15.8795812,25.6739831 17.0061083,24.547456 18.3907352,24.547456 L51.6092648,24.547456 C52.9938917,24.547456 54.1204188,25.6739831 54.1204188,27.05861 L54.1204188,50.889414 C54.1204188,52.2740409 52.9938917,53.400568 51.6092648,53.400568 L43.7776486,53.400568 C43.7771479,53.4008183 43.7766472,53.4008183 43.7761466,53.4008183 L43.7761466,53.4008183 Z M51.1145942,52.3994609 L51.6095151,52.3994609 C52.4418935,52.3994609 53.1193117,51.7220427 53.1193117,50.8896643 L53.1193117,47.5591496 L51.4723292,45.912167 L48.0554474,49.3287985 L51.0567658,52.3301169 C51.078295,52.3518965 51.0978215,52.3749277 51.1145942,52.3994609 L51.1145942,52.3994609 Z M44.9847849,52.3994609 L49.7099401,52.3994609 L47.3472374,50.0367582 L44.9847849,52.3994609 L44.9847849,52.3994609 Z M42.8649113,52.3994609 L43.5688656,52.3994609 L46.639528,49.3287985 L43.2228966,45.912167 L39.8060148,49.3287985 L42.8073333,52.3301169 C42.8286121,52.3518965 42.8481386,52.3749277 42.8649113,52.3994609 L42.8649113,52.3994609 Z M36.735102,52.3994609 L41.4602572,52.3994609 L39.0975545,50.0367582 L36.735102,52.3994609 L36.735102,52.3994609 Z M34.6149781,52.3994609 L35.3301976,52.3994609 C35.3469703,52.3749277 35.3664968,52.3521468 35.388026,52.3303673 L38.3893444,49.3290488 L34.9724627,45.9124174 L31.5558312,49.3287985 L34.5568994,52.3301169 C34.5786789,52.3518965 34.597955,52.3749277 34.6149781,52.3994609 L34.6149781,52.3994609 Z M28.4851688,52.3994609 L33.2100737,52.3994609 L30.8473709,50.0370085 L28.4851688,52.3994609 L28.4851688,52.3994609 Z M26.3765604,52.3994609 L27.080765,52.3994609 C27.0975378,52.3749277 27.1170642,52.3521468 27.1385934,52.3303673 L30.1396615,49.3290488 L26.7230301,45.9124174 L23.3061483,49.3290488 L26.3765604,52.3994609 L26.3765604,52.3994609 Z M20.2352355,52.3994609 L24.9603908,52.3994609 L22.597688,50.0367582 L20.2352355,52.3994609 L20.2352355,52.3994609 Z M16.8809386,47.504075 L16.8809386,50.889414 C16.8809386,51.7217923 17.5583569,52.3992106 18.3907352,52.3992106 L18.8305815,52.3992106 C18.8473542,52.3746773 18.8668807,52.3518965 18.8884098,52.3301169 L21.8897283,49.3287985 L18.4728465,45.912167 L16.8809386,47.504075 L16.8809386,47.504075 Z M27.4309898,45.2042074 L30.8476212,48.6208388 L34.264503,45.203957 L30.8478716,41.7870753 L27.4309898,45.2042074 L27.4309898,45.2042074 Z M35.680923,45.203957 L39.0975545,48.6208388 L42.5141859,45.203957 L39.0975545,41.7873256 L35.680923,45.203957 L35.680923,45.203957 Z M19.1810565,45.203957 L22.597688,48.6208388 L26.0143194,45.203957 L22.5979383,41.7870753 L19.1810565,45.203957 L19.1810565,45.203957 Z M43.9306059,45.203957 L47.3472374,48.6208388 L50.7638688,45.203957 L47.3472374,41.7870753 L43.9306059,45.203957 L43.9306059,45.203957 Z M52.1802888,45.203957 L53.1193117,46.1432303 L53.1193117,44.2649341 L52.1802888,45.203957 L52.1802888,45.203957 Z M16.8809386,44.3197585 L16.8809386,46.0879053 L17.7648868,45.2037067 L16.8809386,44.3197585 L16.8809386,44.3197585 Z M23.305898,41.0791156 L26.7225294,44.495747 L30.1394112,41.0788652 L26.7227798,37.6622338 L23.305898,41.0791156 L23.305898,41.0791156 Z M48.055197,41.0791156 L51.4720788,44.495747 L53.1190614,42.8487644 L53.1190614,39.3037089 C53.1030397,39.2911919 53.0875186,39.2776736 53.0724983,39.2626533 L51.4718285,37.6619835 L48.055197,41.0791156 L48.055197,41.0791156 Z M16.8809386,42.9038391 L18.4728465,44.495747 L21.8897283,41.0791156 L18.4728465,37.6622338 L16.8809386,39.2541417 L16.8809386,42.9038391 L16.8809386,42.9038391 Z M39.8055141,41.0791156 L43.2223959,44.495747 L46.6390273,41.0791156 L43.2221456,37.6622338 L39.8055141,41.0791156 L39.8055141,41.0791156 Z M31.5558312,41.0791156 L34.9724627,44.495747 L38.3893444,41.0791156 L34.9724627,37.6622338 L31.5558312,41.0791156 L31.5558312,41.0791156 Z M43.9306059,36.9542741 L47.3472374,40.3711559 L50.7641191,36.9542741 L47.3472374,33.537142 L43.9306059,36.9542741 L43.9306059,36.9542741 Z M19.1810565,36.9542741 L22.5979383,40.3711559 L26.0145698,36.9542741 L22.5979383,33.537142 L19.1810565,36.9542741 L19.1810565,36.9542741 Z M35.680923,36.9542741 L39.0975545,40.3709056 L42.5141859,36.9542741 L39.0975545,33.5373924 L35.680923,36.9542741 L35.680923,36.9542741 Z M27.4309898,36.9542741 L30.8476212,40.3709056 L34.264503,36.9542741 L30.8478716,33.537142 L27.4309898,36.9542741 L27.4309898,36.9542741 Z M52.1802888,36.9542741 L53.1193117,37.893297 L53.1193117,36.0152512 L52.1802888,36.9542741 L52.1802888,36.9542741 Z M16.8809386,36.0700755 L16.8809386,37.8382224 L17.7648868,36.9542741 L16.8809386,36.0700755 L16.8809386,36.0700755 Z M48.055197,32.8291823 L51.4720788,36.2460641 L53.1190614,34.5990815 L53.1190614,31.0592831 L51.4720788,29.4123006 L48.055197,32.8291823 L48.055197,32.8291823 Z M16.8809386,34.6541562 L18.4728465,36.2460641 L21.8897283,32.8291823 L18.4730969,29.4125509 L16.8809386,31.0044588 L16.8809386,34.6541562 L16.8809386,34.6541562 Z M39.8055141,32.8291823 L43.2221456,36.2460641 L46.6390273,32.8291823 L43.2221456,29.4125509 L39.8055141,32.8291823 L39.8055141,32.8291823 Z M23.305898,32.8291823 L26.7227798,36.2458138 L30.1394112,32.8291823 L26.7227798,29.4123006 L23.305898,32.8291823 L23.305898,32.8291823 Z M31.5558312,32.8291823 L34.9724627,36.2458138 L38.3893444,32.8291823 L34.972713,29.4123006 L31.5558312,32.8291823 L31.5558312,32.8291823 Z M35.6806727,28.7040905 L39.0975545,32.1209723 L42.5141859,28.7043409 L39.3744298,25.5643344 C39.3691727,25.5590773 39.3641659,25.5540705 39.3591591,25.5485631 L38.8356995,25.5485631 L35.6806727,28.7040905 L35.6806727,28.7040905 Z M43.9306059,28.7040905 L47.3472374,32.1212227 L50.7638688,28.7043409 L47.6085916,25.5490637 L47.0856327,25.5490637 L43.9306059,28.7040905 L43.9306059,28.7040905 Z M19.1810565,28.7043409 L22.597688,32.1209723 L26.0145698,28.7040905 L22.8595429,25.5488134 L22.336584,25.5488134 L19.1810565,28.7043409 L19.1810565,28.7043409 Z M27.4309898,28.7040905 L30.8478716,32.120722 L34.264503,28.7040905 L31.1092258,25.5488134 L30.5857663,25.5488134 C30.5807595,25.5540705 30.5757527,25.5593276 30.5704956,25.5645848 L27.4309898,28.7040905 L27.4309898,28.7040905 Z M52.1802888,28.7040905 L53.1193117,29.6433638 L53.1193117,27.7650676 L52.1802888,28.7040905 L52.1802888,28.7040905 Z M16.8809386,27.8201423 L16.8809386,29.5882891 L17.7648868,28.7040905 L16.8809386,27.8201423 L16.8809386,27.8201423 Z M16.9848294,26.5081138 L18.4728465,27.9961309 L20.9204143,25.5488134 L18.3907352,25.5488134 C17.7523699,25.5488134 17.2053784,25.9471033 16.9848294,26.5081138 L16.9848294,26.5081138 Z M40.7748281,25.5488134 L43.2223959,27.9961309 L45.6697134,25.5488134 L40.7748281,25.5488134 L40.7748281,25.5488134 Z M49.0247613,25.5488134 L51.4720788,27.9961309 L52.9993992,26.4688105 C52.769087,25.9285782 52.2326098,25.5485631 51.6092648,25.5485631 L49.0247613,25.5485631 L49.0247613,25.5488134 Z M32.5251452,25.5488134 L34.9724627,27.9961309 L37.4197801,25.5488134 L32.5251452,25.5488134 L32.5251452,25.5488134 Z M24.2754623,25.5488134 L26.7227798,27.9961309 L29.1700972,25.5488134 L24.2754623,25.5488134 L24.2754623,25.5488134 Z M52.3895725,22.6576443 L48.2309353,22.6576443 C47.9545606,22.6576443 47.7302566,22.4333402 47.7302566,22.1569656 L47.7302566,14.4064593 C47.7302566,14.1300847 47.9545606,13.9057806 48.2309353,13.9057806 L52.3895725,13.9057806 C52.6659472,13.9057806 52.8902512,14.1300847 52.8902512,14.4064593 L52.8902512,22.1569656 C52.8902512,22.4335905 52.6659472,22.6576443 52.3895725,22.6576443 L52.3895725,22.6576443 Z M48.7313636,21.6562869 L51.8886435,21.6562869 L51.8886435,14.907138 L48.7313636,14.907138 L48.7313636,21.6562869 L48.7313636,21.6562869 Z M43.8422361,22.6576443 C42.8043292,22.6576443 41.9596842,21.8132496 41.9596842,20.7750923 C41.9596842,19.7369351 42.8040789,18.8925404 43.8422361,18.8925404 C44.8803934,18.8925404 45.724788,19.7369351 45.724788,20.7750923 C45.724788,21.8132496 44.8803934,22.6576443 43.8422361,22.6576443 L43.8422361,22.6576443 Z M43.8422361,19.8941482 C43.3565778,19.8941482 42.9610416,20.289434 42.9610416,20.7753427 C42.9610416,21.2612514 43.3563275,21.6565372 43.8422361,21.6565372 C44.3281448,21.6565372 44.7234307,21.2612514 44.7234307,20.7753427 C44.7234307,20.289434 44.3281448,19.8941482 43.8422361,19.8941482 L43.8422361,19.8941482 Z M38.1184773,20.7645781 C36.7496217,20.7645781 35.6358619,19.6508183 35.6358619,18.2819628 C35.6358619,16.9131072 36.7496217,15.7993474 38.1184773,15.7993474 C39.4873328,15.7993474 40.6010926,16.9131072 40.6010926,18.2819628 C40.6010926,19.6508183 39.4873328,20.7645781 38.1184773,20.7645781 L38.1184773,20.7645781 Z M38.1184773,16.8007048 C37.30162,16.8007048 36.6372193,17.4651055 36.6372193,18.2819628 C36.6372193,19.0988201 37.30162,19.7632207 38.1184773,19.7632207 C38.9353346,19.7632207 39.5997352,19.0988201 39.5997352,18.2819628 C39.5997352,17.4651055 38.9353346,16.8007048 38.1184773,16.8007048 L38.1184773,16.8007048 Z M31.7430851,20.7645781 C30.3742295,20.7645781 29.2604697,19.6508183 29.2604697,18.2819628 C29.2604697,16.9131072 30.3742295,15.7993474 31.7430851,15.7993474 C33.1119406,15.7993474 34.2257004,16.9131072 34.2257004,18.2819628 C34.2257004,19.6508183 33.1119406,20.7645781 31.7430851,20.7645781 L31.7430851,20.7645781 Z M31.7430851,16.8007048 C30.9262278,16.8007048 30.2618271,17.4651055 30.2618271,18.2819628 C30.2618271,19.0988201 30.9262278,19.7632207 31.7430851,19.7632207 C32.5599424,19.7632207 33.224343,19.0988201 33.224343,18.2819628 C33.224343,17.4651055 32.5599424,16.8007048 31.7430851,16.8007048 L31.7430851,16.8007048 Z M25.3676929,20.7645781 C23.9988373,20.7645781 22.8850775,19.6508183 22.8850775,18.2819628 C22.8850775,16.9131072 23.9988373,15.7993474 25.3676929,15.7993474 C26.7365484,15.7993474 27.8503082,16.9131072 27.8503082,18.2819628 C27.8503082,19.6508183 26.7365484,20.7645781 25.3676929,20.7645781 L25.3676929,20.7645781 Z M25.3676929,16.8007048 C24.5508356,16.8007048 23.8864349,17.4651055 23.8864349,18.2819628 C23.8864349,19.0988201 24.5508356,19.7632207 25.3676929,19.7632207 C26.1845502,19.7632207 26.8489508,19.0988201 26.8489508,18.2819628 C26.8489508,17.4651055 26.1845502,16.8007048 25.3676929,16.8007048 L25.3676929,16.8007048 Z M18.992551,20.1642643 C17.9546441,20.1642643 17.1099991,19.3198697 17.1099991,18.2817124 C17.1099991,17.2435552 17.9543937,16.3991605 18.992551,16.3991605 C20.0307083,16.3991605 20.8751029,17.2435552 20.8751029,18.2817124 C20.8751029,19.3198697 20.030458,20.1642643 18.992551,20.1642643 L18.992551,20.1642643 Z M18.992551,17.4007683 C18.5068927,17.4007683 18.1113565,17.7960541 18.1113565,18.2819628 C18.1113565,18.7678714 18.5066423,19.1631573 18.992551,19.1631573 C19.4784597,19.1631573 19.8737455,18.7678714 19.8737455,18.2819628 C19.8737455,17.7960541 19.4782094,17.4007683 18.992551,17.4007683 L18.992551,17.4007683 Z M43.8422361,17.6706341 C42.8043292,17.6706341 41.9596842,16.8262395 41.9596842,15.7880822 C41.9596842,14.7499249 42.8040789,13.9055303 43.8422361,13.9055303 C44.8803934,13.9055303 45.724788,14.7499249 45.724788,15.7880822 C45.724788,16.8262395 44.8803934,17.6706341 43.8422361,17.6706341 L43.8422361,17.6706341 Z M43.8422361,14.907138 C43.3565778,14.907138 42.9610416,15.3024238 42.9610416,15.7883325 C42.9610416,16.2742412 43.3563275,16.669527 43.8422361,16.669527 C44.3281448,16.669527 44.7234307,16.2742412 44.7234307,15.7883325 C44.7234307,15.3024238 44.3281448,14.907138 43.8422361,14.907138 L43.8422361,14.907138 Z" id="Shape" fill="#ffffff" sketch:type="MSShapeGroup"></path>
        </g>
    </g>
</svg>