<?xml version="1.0" encoding="UTF-8" standalone="no"?>
<svg width="90px" height="90px" viewBox="0 0 90 90" version="1.1" xmlns="http://www.w3.org/2000/svg" xmlns:xlink="http://www.w3.org/1999/xlink" xmlns:sketch="http://www.bohemiancoding.com/sketch/ns">
    <!-- Generator: Sketch 3.3.2 (12043) - http://www.bohemiancoding.com/sketch -->
    <title>Shape</title>
    <desc>Created with Sketch.</desc>
    <defs></defs>
    <g id="Page-1" stroke="none" stroke-width="1" fill="none" fill-rule="evenodd" sketch:type="MSPage">
        <path d="M45,0 C20.147,0 0,20.147 0,45 C0,69.852 20.147,90 45,90 C69.852,90 90,69.852 90,45 C90,20.147 69.852,0 45,0 L45,0 Z M45,85 C22.908,85 5,67.091 5,45 C5,22.908 22.908,5 45,5 C67.091,5 85,22.908 85,45 C85,67.091 67.091,85 45,85 Z M49.0001031,40.9998969 L49.0001031,26.4999653 C49.0001031,24.299449 47.2005163,22.4998622 45,22.4998622 C42.7994837,22.4998622 40.9998969,24.299449 40.9998969,26.4999653 L40.9998969,40.9998969 L26.4999653,40.9998969 C24.299449,40.9998969 22.4998622,42.7994837 22.4998622,45 C22.4998622,47.2005163 24.299449,49.0001031 26.4999653,49.0001031 L40.9998969,49.0001031 L40.9998969,63.5000347 C40.9998969,65.700551 42.7994837,67.5001378 45,67.5001378 C47.2005163,67.5001378 49.0001031,65.700551 49.0001031,63.5000347 L49.0001031,49.0001031 L63.5000347,49.0001031 C65.700551,49.0001031 67.5001378,47.2005163 67.5001378,45 C67.5001378,42.7994837 65.700551,40.9998969 63.5000347,40.9998969 L49.0001031,40.9998969 Z" id="Shape" fill="#ffffff" sketch:type="MSShapeGroup"></path>
    </g>
</svg>