<?xml version="1.0" encoding="UTF-8" standalone="no"?>
<svg width="125px" height="86px" viewBox="0 0 38 26" version="1.1" xmlns="http://www.w3.org/2000/svg" xmlns:xlink="http://www.w3.org/1999/xlink" xmlns:sketch="http://www.bohemiancoding.com/sketch/ns">
    <!-- Generator: Sketch 3.3.2 (12043) - http://www.bohemiancoding.com/sketch -->
    <title>workout</title>
    <desc>Created with Sketch.</desc>
    <defs></defs>
    <g id="Page-1" stroke="none" stroke-width="1" fill="none" fill-rule="evenodd" sketch:type="MSPage">
        <g id="workout" sketch:type="MSLayerGroup" transform="translate(-16.000000, -22.000000)">
            <path d="M52.8367347,31.9461516 L50.6071429,31.9461516 L50.6071429,28.4081633 C50.6071429,27.4969388 49.8704082,26.7602041 48.9591837,26.7602041 L46.4387755,26.7602041 C46.1961516,26.7602041 45.9634985,26.8183673 45.7596501,26.9058892 L45.7596501,24.5306122 C45.7596501,23.6193878 45.0229155,22.8826531 44.111691,22.8826531 L41.5918367,22.8826531 C40.6800583,22.8826531 39.9433236,23.6193878 39.9433236,24.5306122 L39.9433236,31.9461516 L30.0555685,31.9461516 L30.0555685,24.5306122 C30.0555685,23.6193878 29.3188338,22.8826531 28.4076093,22.8826531 L25.8872012,22.8826531 C24.9759767,22.8826531 24.239242,23.6193878 24.239242,24.5306122 L24.239242,26.9058892 C24.0353936,26.8089504 23.8027405,26.7602041 23.5606706,26.7602041 L21.0408163,26.7602041 C20.1295918,26.7602041 19.3928571,27.4969388 19.3928571,28.4081633 L19.3928571,31.9461516 L17.1632653,31.9461516 C16.5234694,31.9461516 16,32.469621 16,33.1094169 L16,36.5992128 C16,37.2384548 16.5234694,37.7624781 17.1632653,37.7624781 L19.3928571,37.7624781 L19.3928571,41.5918367 C19.3928571,42.5030612 20.1295918,43.2397959 21.0408163,43.2397959 L23.5612245,43.2397959 C23.8038484,43.2397959 24.0359475,43.1821866 24.2397959,43.0941108 L24.2397959,45.4693878 C24.2397959,46.3806122 24.9765306,47.1173469 25.8877551,47.1173469 L28.4081633,47.1173469 C29.3193878,47.1173469 30.0561224,46.3806122 30.0561224,45.4693878 L30.0561224,37.7624781 L39.9438776,37.7624781 L39.9438776,45.4693878 C39.9438776,46.3806122 40.6806122,47.1173469 41.5923907,47.1173469 L44.1127988,47.1173469 C45.0240233,47.1173469 45.760758,46.3806122 45.760758,45.4693878 L45.760758,43.0941108 C45.9640525,43.1910496 46.1972595,43.2397959 46.4398834,43.2397959 L48.9602915,43.2397959 C49.871516,43.2397959 50.6082507,42.5030612 50.6082507,41.5918367 L50.6082507,37.7624781 L52.8367347,37.7624781 C53.4759767,37.7624781 54,37.2390087 54,36.5992128 L54,33.1094169 C54,32.4701749 53.4759767,31.9461516 52.8367347,31.9461516 L52.8367347,31.9461516 Z M17.1632653,36.7930904 C17.0569096,36.7930904 16.9693878,36.7061224 16.9693878,36.5992128 L16.9693878,33.1094169 C16.9693878,33.0030612 17.0563557,32.9155394 17.1632653,32.9155394 L19.3928571,32.9155394 L19.3928571,36.7930904 L17.1632653,36.7930904 L17.1632653,36.7930904 Z M29.0867347,45.4693878 C29.0867347,45.8477259 28.7865015,46.1479592 28.4081633,46.1479592 L25.8877551,46.1479592 C25.5099708,46.1479592 25.2091837,45.8477259 25.2091837,45.4693878 L25.2091837,41.5918367 L25.2091837,39.6043149 L24.2397959,39.6043149 L24.2397959,41.5918367 C24.2397959,41.9701749 23.9395627,42.2704082 23.5612245,42.2704082 L21.0408163,42.2704082 C20.6630321,42.2704082 20.3622449,41.9701749 20.3622449,41.5918367 L20.3622449,28.4081633 C20.3622449,28.0298251 20.6624781,27.7295918 21.0408163,27.7295918 L23.5612245,27.7295918 C23.9395627,27.7295918 24.2397959,28.0298251 24.2397959,28.4081633 L24.2397959,35 L25.2091837,35 L25.2091837,28.4081633 L25.2091837,24.5306122 C25.2091837,24.1522741 25.5094169,23.8520408 25.8877551,23.8520408 L28.4081633,23.8520408 C28.7865015,23.8520408 29.0867347,24.1522741 29.0867347,24.5306122 L29.0867347,45.4693878 L29.0867347,45.4693878 Z M30.0561224,36.7930904 L30.0561224,32.9155394 L39.9438776,32.9155394 L39.9438776,36.7930904 L30.0561224,36.7930904 L30.0561224,36.7930904 Z M49.6377551,41.5918367 C49.6377551,41.9701749 49.3375219,42.2704082 48.9591837,42.2704082 L46.4387755,42.2704082 C46.0604373,42.2704082 45.7596501,41.9701749 45.7596501,41.5918367 L45.7596501,39.6043149 L44.7902624,39.6043149 L44.7902624,41.5918367 L44.7902624,45.4693878 C44.7902624,45.8477259 44.4900292,46.1479592 44.111691,46.1479592 L41.5918367,46.1479592 C41.2134985,46.1479592 40.9127114,45.8477259 40.9127114,45.4693878 L40.9127114,24.5306122 C40.9127114,24.1522741 41.2134985,23.8520408 41.5918367,23.8520408 L44.1122449,23.8520408 C44.4905831,23.8520408 44.7908163,24.1522741 44.7908163,24.5306122 L44.7908163,28.4081633 L44.7908163,35 L45.7602041,35 L45.7602041,28.4081633 C45.7602041,28.0298251 46.0609913,27.7295918 46.4393294,27.7295918 L48.9597376,27.7295918 C49.3380758,27.7295918 49.638309,28.0298251 49.638309,28.4081633 L49.638309,41.5918367 L49.6377551,41.5918367 Z M53.0306122,36.5997668 C53.0306122,36.7061224 52.9436443,36.7936443 52.8367347,36.7936443 L50.6071429,36.7936443 L50.6071429,32.9160933 L52.8367347,32.9160933 C52.9430904,32.9160933 53.0306122,33.0036152 53.0306122,33.1099708 L53.0306122,36.5997668 L53.0306122,36.5997668 Z" id="Shape" fill="#ffffff" sketch:type="MSShapeGroup"></path>
        </g>
    </g>
</svg>