<svg class="bg-university-icon" height="35" width="35" viewBox="0 0 100 100" version="1.1" xmlns="http://www.w3.org/2000/svg" xmlns:xlink="http://www.w3.org/1999/xlink"><path d="M14,59.4003632 L86,59.4003632 L86,67.4016015 L14,67.4016015 L14,59.4003632 Z M22.3478261,47.0030958 L77.3459525,47.0030958 C80.6606958,47.0030958 83.3478261,49.6965468 83.3478261,53.0040245 L83.3478261,59.0049532 M24.442771,67.7819727 L24.442771,75.999364 L19.2094029,75.999364 L19.2094029,67.7819727 M79.7471188,67.7819727 L79.7471188,75.999364 L74.5137507,75.999364 L74.5137507,67.7819727 M14,59 L14,32.0050741 C14,29.7931328 15.7953562,28 18,28 L18,28 C20.209139,28 22,29.8006843 22,32.0050741 L22,59" fill="none" stroke="#000000" stroke-width="3" stroke-linecap="round" stroke-linejoin="round"></path></svg>