<svg class="bg-university-icon" height="35" width="35" viewBox="0 0 100 100" version="1.1" xmlns="http://www.w3.org/2000/svg" xmlns:xlink="http://www.w3.org/1999/xlink"><path d="M35.1764706,50 L64.8235294,50 M82.8235294,50 L86,50 M14,50 L17.1764706,50 M18.2352941,42.3333604 C18.2352941,40.6764912 19.577484,39.3333333 21.2336271,39.3333333 L23.7075494,39.3333333 C25.3634829,39.3333333 26.7058824,40.6678289 26.7058824,42.3333604 L26.7058824,57.6666396 C26.7058824,59.3235088 25.3636925,60.6666667 23.7075494,60.6666667 L21.2336271,60.6666667 C19.5776935,60.6666667 18.2352941,59.3321711 18.2352941,57.6666396 L18.2352941,42.3333604 Z M26.7058824,36.9961002 C26.7058824,35.3413998 28.0480722,34 29.7042153,34 L32.1781376,34 C33.8340712,34 35.1764706,35.3342595 35.1764706,36.9961002 L35.1764706,63.0038998 C35.1764706,64.6586002 33.8342807,66 32.1781376,66 L29.7042153,66 C28.0482818,66 26.7058824,64.6657405 26.7058824,63.0038998 L26.7058824,36.9961002 Z M64.8235294,36.9961002 C64.8235294,35.3413998 66.1657193,34 67.8218624,34 L70.2957847,34 C71.9517182,34 73.2941176,35.3342595 73.2941176,36.9961002 L73.2941176,63.0038998 C73.2941176,64.6586002 71.9519278,66 70.2957847,66 L67.8218624,66 C66.1659288,66 64.8235294,64.6657405 64.8235294,63.0038998 L64.8235294,36.9961002 Z M73.2941176,42.3333604 C73.2941176,40.6764912 74.6363075,39.3333333 76.2924506,39.3333333 L78.7663729,39.3333333 C80.4223065,39.3333333 81.7647059,40.6678289 81.7647059,42.3333604 L81.7647059,57.6666396 C81.7647059,59.3235088 80.422516,60.6666667 78.7663729,60.6666667 L76.2924506,60.6666667 C74.6365171,60.6666667 73.2941176,59.3321711 73.2941176,57.6666396 L73.2941176,42.3333604 Z" fill="none" stroke="#000000" stroke-width="3" stroke-linecap="round" stroke-linejoin="round"></path></svg>