<svg xmlns="http://www.w3.org/2000/svg" xmlns:xlink="http://www.w3.org/1999/xlink" version="1.1" width="96" height="96" viewBox="0 0 96 96">
<path d="M76.68 88h-24.956c-4.448 0-7.548-4.68-7.548-8.884 0-3.58 2.24-7.488 5.64-8.584 0.776-7.048 6.308-12.532 13-12.532 4.484 0 8.624 2.524 11.008 6.58 0.936-0.3 1.896-0.456 2.86-0.456 5.688 0 10.32 5.092 10.32 11.368-0.004 5.9-4.416 12.508-10.324 12.508zM62.82 62c-5.016 0-9.092 4.592-9.092 10.236 0 1.104-0.9 2-2 2-1.756 0-3.548 2.464-3.548 4.888 0 2.416 1.788 4.884 3.548 4.884h24.96c3.188 0 6.32-4.22 6.32-8.516 0-5.084-4.788-9.032-9.132-6.576-0.492 0.28-1.088 0.336-1.632 0.148-0.54-0.18-0.98-0.588-1.196-1.12-1.5-3.612-4.728-5.944-8.228-5.944z" fill="#000000"/>
	<path d="M45 96h-34c-1.104 0-2-0.9-2-2v-69.672c0-0.492 0.18-0.964 0.508-1.332l20-22.328c0.384-0.424 0.92-0.668 1.492-0.668h48c1.104 0 2 0.896 2 2v50c0 1.1-0.896 2-2 2-1.1 0-2-0.9-2-2v-48h-45.1l-18.9 21.092v66.908h32c1.104 0 2 0.9 2 2s-0.896 2-2 2z" fill="#000000"/>
	<path d="M31 28h-18c-1.104 0-2-0.896-2-2s0.9-2 2-2h16v-20c0-1.104 0.896-2 2-2s2 0.896 2 2v22c0 1.104-0.896 2-2 2z" fill="#000000"/>
</svg>