<svg width="160px" height="160px" viewBox="0 0 160 160" version="1.1" xmlns="http://www.w3.org/2000/svg" xmlns:xlink="http://www.w3.org/1999/xlink">
	<path d="M80,160 C124.18278,160 160,124.18278 160,80 C160,35.81722 124.18278,0 80,0 C35.81722,0 0,35.81722 0,80 C0,124.18278 35.81722,160 80,160 L80,160 Z M80,150 C41.3400675,150 10,118.659932 10,80 C10,41.3400675 41.3400675,10 80,10 C118.659932,10 150,41.3400675 150,80 C150,118.659932 118.659932,150 80,150 L80,150 Z" fill-opacity="0.1" fill="#FFFFFF"></path>
	<path d="M80,0 C35.81722,-3.01980663e-14 3.01980663e-14,35.81722 0,80 C0,124.18278 35.81722,160 80,160 C124.18278,160 160,124.18278 160,80 C160,77.2385763 157.761424,75 155,75 C152.238576,75 150,77.2385763 150,80 C150,118.659932 118.659932,150 80,150 C41.3400675,150 10,118.659932 10,80 C10,41.3400675 41.3400675,10 80,10 C82.7614237,10 85,7.76142375 85,5 C85,2.23857625 82.7614237,1.77635684e-15 80,0 L80,0 Z" fill="#69B3A5"></path>
</svg>