<svg width="150px" height="150px" viewBox="0 0 150 150" version="1.1" xmlns="http://www.w3.org/2000/svg" xmlns:xlink="http://www.w3.org/1999/xlink">
    <g id="linkedin">
        <rect class="background" fill="#0077B5" x="0" y="0" width="150" height="150"></rect>
        <path d="M44.6146867,35.0686984 C49.9149516,35.0686984 54.2223872,39.376134 54.2223872,44.6787276 C54.2223872,49.9859789 49.9149516,54.2934144 44.6146867,54.2934144 C39.3012255,54.2934144 35,49.9859789 35,44.6787276 C35,39.376134 39.3012255,35.0686984 44.6146867,35.0686984 L44.6146867,35.0686984 L44.6146867,35.0686984 Z M36.321185,61.585548 L52.9012022,61.585548 L52.9012022,114.931302 L36.321185,114.931302 L36.321185,61.585548 L36.321185,61.585548 Z M63.3006822,61.5855481 L79.202253,61.5855481 L79.202253,68.8745766 L79.4242618,68.8745766 C81.6381393,64.6812505 87.0455273,60.2597056 95.1115864,60.2597056 C111.900416,60.2597056 115,71.3089104 115,85.6711689 L115,114.931302 L98.4316264,114.931302 L98.4316264,88.9888801 C98.4316264,82.8029089 98.3182936,74.8455253 89.8167554,74.8455253 C81.1894643,74.8455253 79.8651743,81.5841896 79.8651743,88.5417576 L79.8651743,114.931302 L63.3006822,114.931302 L63.3006822,61.5855481 L63.3006822,61.5855481 Z" class="icon" fill="#FFFFFF"></path>
    </g>
</svg>