<svg width="33px" height="32px" viewBox="0 0 33 32" version="1.1" xmlns="http://www.w3.org/2000/svg" xmlns:xlink="http://www.w3.org/1999/xlink">
    <path d="M25.272,31.876317 C24.793,31.876317 24.317,31.759317 23.896,31.537317 L21.192,30.123317 C20.703,29.867317 20.515,29.263317 20.771,28.773317 C21.026,28.284317 21.629,28.093317 22.12,28.352317 L24.825,29.767317 C25.142,29.931317 25.547,29.903317 25.841,29.692317 C26.085,29.516317 26.232,29.229317 26.232,28.927317 C26.232,28.875317 26.229,28.822317 26.22,28.770317 L26.198,28.647317 C26.106,28.104317 26.473,27.587317 27.018,27.494317 C27.561,27.408317 28.078,27.769317 28.171,28.314317 L28.19,28.429317 C28.219,28.590317 28.232,28.760317 28.232,28.927317 C28.232,29.867317 27.776,30.759317 27.012,31.314317 C26.5,31.683317 25.899,31.876317 25.272,31.876317 L25.272,31.876317 Z M8.228,31.876317 C7.764,31.876317 7.3,31.766317 6.885,31.556317 C6.393,31.307317 6.195,30.705317 6.444,30.212317 C6.693,29.721317 7.294,29.521317 7.788,29.770317 C8.063,29.910317 8.407,29.906317 8.674,29.767317 L10.56,28.780317 C11.05,28.522317 11.654,28.714317 11.91,29.202317 C12.166,29.691317 11.977,30.296317 11.488,30.552317 L9.603,31.538317 C9.182,31.759317 8.707,31.876317 8.228,31.876317 L8.228,31.876317 Z M14.569,28.811317 C14.209,28.811317 13.861,28.616317 13.682,28.275317 C13.426,27.786317 13.615,27.182317 14.104,26.926317 L16.75,25.541317 L18.576,26.497317 C19.065,26.753317 19.254,27.357317 18.998,27.847317 C18.742,28.335317 18.139,28.527317 17.648,28.269317 L16.75,27.799317 L15.032,28.697317 C14.884,28.775317 14.726,28.811317 14.569,28.811317 L14.569,28.811317 Z M6.555,28.097317 C6.499,28.097317 6.442,28.092317 6.384,28.082317 C5.84,27.988317 5.475,27.471317 5.569,26.927317 L6.248,22.984317 C6.341,22.441317 6.855,22.072317 7.403,22.169317 C7.947,22.263317 8.312,22.780317 8.219,23.324317 L7.54,27.267317 C7.456,27.753317 7.033,28.097317 6.555,28.097317 L6.555,28.097317 Z M26.504,25.539317 C26.026,25.539317 25.604,25.195317 25.519,24.709317 L24.841,20.767317 C24.747,20.222317 25.112,19.705317 25.656,19.611317 C26.21,19.520317 26.718,19.884317 26.811,20.427317 L27.49,24.369317 C27.584,24.914317 27.219,25.431317 26.675,25.524317 C26.617,25.534317 26.56,25.539317 26.504,25.539317 L26.504,25.539317 Z M7.057,20.491317 C6.806,20.491317 6.555,20.397317 6.36,20.209317 L3.489,17.425317 C3.092,17.040317 3.083,16.407317 3.467,16.010317 C3.852,15.613317 4.485,15.604317 4.881,15.989317 L7.753,18.773317 C8.149,19.158317 8.159,19.791317 7.774,20.187317 C7.579,20.390317 7.317,20.491317 7.057,20.491317 L7.057,20.491317 Z M28.307,18.685317 C28.046,18.685317 27.785,18.583317 27.589,18.381317 C27.204,17.984317 27.214,17.352317 27.61,16.967317 L30.481,14.182317 C30.878,13.798317 31.51,13.808317 31.896,14.204317 C32.28,14.600317 32.271,15.233317 31.874,15.618317 L29.003,18.402317 C28.809,18.591317 28.558,18.685317 28.307,18.685317 L28.307,18.685317 Z M1.343,14.896317 C1.025,14.896317 0.712,14.744317 0.518,14.462317 C0.179,13.969317 0,13.392317 0,12.794317 C0,12.484317 0.049,12.178317 0.145,11.882317 C0.497,10.807317 1.413,10.038317 2.535,9.87531699 L2.862,11.849317 C2.457,11.908317 2.16,12.156317 2.046,12.503317 C2.016,12.597317 2,12.695317 2,12.794317 C2,12.986317 2.058,13.171317 2.167,13.330317 C2.479,13.785317 2.364,14.408317 1.908,14.720317 C1.735,14.839317 1.538,14.896317 1.343,14.896317 L1.343,14.896317 Z M32.001,12.495317 C31.728,12.495317 31.455,12.383317 31.258,12.164317 C31.107,11.997317 30.902,11.887317 30.68,11.855317 L28.07,11.478317 C27.523,11.399317 27.145,10.892317 27.224,10.345317 C27.302,9.80031699 27.81,9.42331699 28.355,9.49931699 L30.965,9.87531699 C31.649,9.97531699 32.281,10.312317 32.744,10.825317 C33.113,11.236317 33.081,11.868317 32.67,12.238317 C32.479,12.410317 32.24,12.495317 32.001,12.495317 L32.001,12.495317 Z M6.676,11.287317 C6.188,11.287317 5.76,10.928317 5.688,10.430317 C5.609,9.88431699 5.988,9.37631699 6.535,9.29731699 L10.493,8.72531699 C11.038,8.64931699 11.546,9.02531699 11.626,9.57231699 C11.705,10.118317 11.326,10.625317 10.779,10.705317 L6.821,11.277317 C6.772,11.284317 6.724,11.287317 6.676,11.287317 L6.676,11.287317 Z M24.255,10.916317 C24.207,10.916317 24.159,10.913317 24.11,10.906317 L21.649,10.550317 L20.512,8.25431699 C20.266,7.75931699 20.468,7.15931699 20.963,6.91431699 C21.457,6.66831699 22.059,6.87131699 22.303,7.36531699 L22.976,8.72131699 L24.397,8.92631699 C24.943,9.00531699 25.322,9.51331699 25.243,10.059317 C25.172,10.557317 24.744,10.916317 24.255,10.916317 L24.255,10.916317 Z M12.716,7.55031699 C12.567,7.55031699 12.416,7.51731699 12.273,7.44631699 C11.778,7.20131699 11.576,6.60131699 11.821,6.10631699 L13.598,2.52231699 C13.844,2.02831699 14.442,1.82531699 14.938,2.07131699 C15.433,2.31631699 15.635,2.91631699 15.39,3.41131699 L13.613,6.99531699 C13.438,7.34731699 13.084,7.55031699 12.716,7.55031699 L12.716,7.55031699 Z M19.63,5.22631699 C19.262,5.22631699 18.907,5.02231699 18.733,4.67031699 L17.611,2.40731699 C17.503,2.18931699 17.318,2.02231699 17.088,1.93731699 C16.571,1.74531699 16.308,1.16831699 16.5,0.651316995 C16.693,0.133316995 17.269,-0.129683005 17.787,0.063316995 C18.495,0.327316995 19.069,0.844316995 19.403,1.52031699 L20.524,3.78231699 C20.771,4.27731699 20.568,4.87631699 20.073,5.12231699 C19.931,5.19331699 19.779,5.22631699 19.63,5.22631699 L19.63,5.22631699 Z" fill="#FFFFFF"></path>
</svg>