<svg width="32px" height="30px" viewBox="0 0 32 30" version="1.1" xmlns="http://www.w3.org/2000/svg" xmlns:xlink="http://www.w3.org/1999/xlink">
    <path d="M24.2725495,30 C23.9605676,30 23.6478018,29.9262928 23.3609038,29.7761485 L15.7498771,25.7943998 L8.13924238,29.7761485 C7.85234441,29.9262928 7.53918666,30 7.22759666,30 C6.82115788,30 6.41667879,29.8744248 6.07530157,29.6275642 C5.47211036,29.1915607 5.16992685,28.4517588 5.29573866,27.7205366 L6.74904145,19.2874971 L0.591709497,13.315654 C0.0578911564,12.7973637 -0.134549963,12.0224631 0.0959090558,11.31659 C0.326760012,10.6107168 0.939749648,10.0963263 1.67815916,9.9894704 L10.1871138,8.75945714 L13.9924311,1.0868887 C14.3228341,0.42157398 15.0040208,0 15.7498771,0 C16.4961254,0 17.1773121,0.42157398 17.5073231,1.0868887 L21.3126405,8.75945714 L29.821987,9.9894704 C30.5603965,10.0963263 31.1733862,10.6107168 31.4038452,11.31659 C31.6346962,12.0224631 31.442255,12.7973637 30.9084367,13.315654 L24.7507128,19.2874971 L26.2044075,27.7201466 C26.3306113,28.4517588 26.0280358,29.1915607 25.4244527,29.6275642 C25.0834674,29.8744248 24.6789883,30 24.2725495,30 L24.2725495,30 Z" fill="#FFFFFF"></path>
</svg>