<svg width="32px" height="30px" viewBox="0 0 32 30" version="1.1" xmlns="http://www.w3.org/2000/svg" xmlns:xlink="http://www.w3.org/1999/xlink">
    <path d="M24.2880079,28.0040091 L24.2880079,28.0040091 L24.2882606,28.0041413 C24.2832377,28.0015127 24.2770133,28 24.2725495,28 C24.2663124,28 24.2586581,28.0024492 24.2533264,28.0063106 C24.2382768,28.0171818 24.2297182,28.0381109 24.2334791,28.0599127 L22.7797843,19.6272632 L22.6004224,18.5868136 L23.358335,17.8517798 L29.5152472,11.8807244 C29.5016166,11.8939585 29.4959296,11.9168932 29.5026103,11.9373201 C29.5085563,11.955532 29.5221156,11.9669085 29.5358638,11.968898 L21.0265172,10.7388847 L19.9874003,10.5886819 L19.5209029,9.64809442 L15.7156272,1.97561012 C15.7235996,1.99168284 15.7370454,2 15.7498771,2 C15.7629426,2 15.7760376,1.99189984 15.7841688,1.97552598 L11.9788514,9.64809442 L11.5123576,10.5886745 L10.47325,10.7388828 L1.9645974,11.9688524 C1.97786336,11.9669327 1.99108763,11.9558393 1.99714395,11.9373201 C2.00399152,11.9163466 1.99840743,11.8938399 1.98413298,11.879981 L8.14146494,17.8518241 L8.89927638,18.5868066 L8.71998788,19.6271589 L7.26677656,28.0596672 C7.2704839,28.0381201 7.26211879,28.0176523 7.24725093,28.0069054 C7.24091797,28.0023259 7.23364734,28 7.22759666,28 C7.22293769,28 7.21707938,28.0014232 7.21210083,28.0040287 L14.8227356,24.02228 L15.7498533,23.5372286 L16.6769812,24.0222604 L24.2880079,28.0040091 Z M23.3609038,29.7761485 L15.7498771,25.7943998 L8.13924238,29.7761485 C7.85234441,29.9262928 7.53918666,30 7.22759666,30 C6.82115788,30 6.41667879,29.8744248 6.07530157,29.6275642 C5.47211036,29.1915607 5.16992685,28.4517588 5.29573866,27.7205366 L6.74904145,19.2874971 L0.591709497,13.315654 C0.0578911564,12.7973637 -0.134549963,12.0224631 0.0959090558,11.31659 C0.326760012,10.6107168 0.939749648,10.0963263 1.67815916,9.9894704 L10.1871138,8.75945714 L13.9924311,1.0868887 C14.3228341,0.42157398 15.0040208,0 15.7498771,0 C16.4961254,0 17.1773121,0.42157398 17.5073231,1.0868887 L21.3126405,8.75945714 L29.821987,9.9894704 C30.5603965,10.0963263 31.1733862,10.6107168 31.4038452,11.31659 C31.6346962,12.0224631 31.442255,12.7973637 30.9084367,13.315654 L24.7507128,19.2874971 L26.2044075,27.7201466 C26.3306113,28.4517588 26.0280358,29.1915607 25.4244527,29.6275642 C25.0834674,29.8744248 24.6789883,30 24.2725495,30 C23.9605676,30 23.6478018,29.9262928 23.3609038,29.7761485 L23.3609038,29.7761485 Z" fill="#FFFFFF"></path>
</svg>