<svg width="150px" height="150px" viewBox="0 0 150 150" version="1.1" xmlns="http://www.w3.org/2000/svg" xmlns:xlink="http://www.w3.org/1999/xlink">
    <g id="twitter">
        <rect class="background" fill="#55ACEE" x="0" y="0" width="150" height="150"></rect>
        <path d="M115,50.1891438 C112.056513,51.4945316 108.893266,52.3767877 105.573174,52.7735835 C108.962032,50.7421998 111.564322,47.5256959 112.789824,43.6932222 C109.618677,45.5739054 106.106039,46.9398662 102.367497,47.6761038 C99.3733864,44.4862285 95.1078312,42.4928856 90.387249,42.4928856 C81.3226892,42.4928856 73.9737738,49.8415085 73.9737738,58.905483 C73.9737738,60.1918505 74.119207,61.4445663 74.3989538,62.6457807 C60.7580746,61.9613373 48.6642891,55.4270822 40.5691869,45.4972384 C39.1564066,47.9213212 38.3470134,50.7407366 38.3470134,53.7486009 C38.3470134,59.4427374 41.2448517,64.4664765 45.6488167,67.4096711 C42.958155,67.3245181 40.4275577,66.5862321 38.2144555,65.356926 C38.213285,65.4253997 38.213285,65.4941658 38.213285,65.5632246 C38.213285,73.5155274 43.8708438,80.149274 51.3792385,81.6568638 C50.0018654,82.0320055 48.5519222,82.2324518 47.0548666,82.2324518 C45.9973298,82.2324518 44.9690552,82.1297414 43.9671166,81.9380738 C46.0555617,88.4588683 52.1169392,93.2040309 59.2990599,93.3365887 C53.681883,97.7385056 46.6048136,100.36245 38.9152858,100.36245 C37.5905849,100.36245 36.2840265,100.284904 35,100.133326 C42.2634698,104.790117 50.8908519,107.507114 60.159662,107.507114 C90.3489154,107.507114 106.857493,82.4975675 106.857493,60.8086982 C106.857493,60.0970408 106.841691,59.3891877 106.810088,58.6854311 C110.016643,56.3713742 112.799481,53.4805589 115,50.1891438" class="icon" fill="#FFFFFF"></path>
    </g>
</svg>