<svg viewBox="0 0 87 75" version="1.1" xmlns="http://www.w3.org/2000/svg" xmlns:xlink="http://www.w3.org/1999/xlink">
    <g fill="none" fill-rule="evenodd">
        <g fill="#FFFFFF">
            <path d="M83.5,28.739 C82.349,26.26 80.164,25.804 78.513,26.451 C76.735,27.148 75.805,28.953 76.352,30.647 C76.486,31.064 76.654,31.553 76.837,32.095 C77.781,34.865 79.362,39.499 78.891,41.683 C78.689,42.62 77.87,45.737 75.767,46.512 C73.863,47.215 73.119,47.096 71.765,46.878 L71.402,46.82 C70.906,46.742 70.629,46.306 70.871,44.514 L70.937,44.51 C71.015,43.385 71.351,42.41 71.701,41.383 C72.123,40.137 72.564,38.843 72.527,37.285 C72.423,34.351 70.632,31.448 67.386,31.071 C67.086,31.034 66.765,31.019 66.443,31.028 C66.11,31.039 65.793,31.073 65.496,31.133 C62.266,31.713 60.66,34.729 60.756,37.657 C60.813,39.208 61.332,40.471 61.84,41.691 C62.173,42.5 62.5,43.277 62.695,44.138 C62.791,45.006 62.834,46.682 61.775,46.923 C60.255,47.269 59.356,47.257 57.332,46.512 C55.231,45.739 54.41,42.62 54.209,41.682 C53.738,39.498 55.318,34.861 56.264,32.09 C56.45,31.55 56.616,31.062 56.75,30.647 C57.295,28.952 56.365,27.148 54.587,26.451 C52.934,25.803 50.752,26.26 49.6,28.739 C47.801,32.602 46.439,40.245 46.668,42.491 C47.106,46.767 50.955,53.444 56.863,54.984 L56.957,73.937 C56.959,74.466 57.389,74.892 57.916,74.892 L57.922,74.892 C58.451,74.89 58.879,74.457 58.876,73.927 L58.779,54.207 C58.775,53.743 58.443,53.347 57.986,53.267 C52.757,52.344 48.982,46.255 48.578,42.297 C48.4,40.551 49.619,33.247 51.34,29.549 C52.182,27.739 53.501,28.089 53.885,28.239 C54.602,28.519 55.188,29.235 54.922,30.059 C54.79,30.464 54.627,30.942 54.446,31.472 C53.373,34.622 51.75,39.383 52.332,42.087 C52.657,43.599 53.731,47.233 56.668,48.316 C59.15,49.229 60.431,49.199 62.2,48.797 C63.793,48.435 64.649,47.046 64.652,44.933 L64.727,44.928 C64.705,44.687 64.658,44.465 64.619,44.237 C64.606,44.067 64.602,43.904 64.579,43.726 C64.558,43.576 64.502,43.441 64.424,43.323 C64.194,42.45 63.884,41.663 63.592,40.945 C63.125,39.842 62.686,38.803 62.647,37.598 C62.587,35.432 63.759,33.038 66.495,32.952 C69.239,32.866 70.565,35.182 70.632,37.347 C70.671,38.552 70.298,39.62 69.916,40.741 C69.606,41.637 69.282,42.615 69.122,43.728 C69.057,43.835 69.01,43.957 68.991,44.089 C68.839,45.129 68.376,48.292 71.107,48.718 L71.461,48.774 C72.963,49.017 74.053,49.191 76.432,48.316 C79.373,47.232 80.444,43.599 80.77,42.088 C81.352,39.384 79.729,34.626 78.657,31.477 C78.475,30.946 78.313,30.467 78.181,30.059 C77.914,29.236 78.5,28.52 79.215,28.24 C79.6,28.089 80.919,27.74 81.76,29.55 C83.482,33.248 84.7,40.552 84.524,42.298 C84.085,46.599 80.391,50.829 74.885,53.34 C74.544,53.495 74.325,53.834 74.323,54.209 L74.225,73.929 C74.221,74.459 74.65,74.891 75.18,74.894 L75.184,74.894 C75.712,74.894 76.142,74.468 76.145,73.939 L76.241,54.824 C82.056,51.999 85.94,47.318 86.432,42.494 C86.661,40.245 85.298,32.603 83.5,28.739 L83.5,28.739 Z"></path>
            <path d="M13.005,31.739 L15.617,31.739 L20.289,36.405 L24.954,31.739 L27.571,31.739 C30.452,31.739 32.8,29.391 32.8,26.505 L32.8,17.954 C32.8,15.067 30.452,12.719 27.571,12.719 L13.005,12.719 C10.118,12.719 7.771,15.067 7.771,17.954 L7.771,26.505 C7.771,29.391 10.118,31.739 13.005,31.739 L13.005,31.739 Z M10.011,17.954 C10.011,16.303 11.355,14.959 13.005,14.959 L27.571,14.959 C29.217,14.959 30.561,16.303 30.561,17.954 L30.561,26.505 C30.561,28.156 29.217,29.5 27.571,29.5 L24.026,29.5 L20.289,33.238 L18.792,31.74 L18.784,31.74 L16.552,29.5 L13.005,29.5 C11.355,29.5 10.011,28.156 10.011,26.505 L10.011,17.954 L10.011,17.954 Z"></path>
            <path d="M19.945,25.257 C19.249,25.257 18.655,25.79 18.655,26.503 C18.655,27.214 19.249,27.749 19.945,27.749 C20.657,27.749 21.25,27.214 21.25,26.503 C21.25,25.79 20.657,25.257 19.945,25.257 L19.945,25.257 Z"></path>
            <path d="M20.331,19.368 C21.117,19.368 21.637,19.872 21.637,20.629 C21.637,21.445 20.999,21.92 20.168,21.92 L18.952,21.92 L19.098,24.337 L20.924,24.337 L20.998,23.477 C22.748,23.24 23.861,22.201 23.861,20.629 C23.861,18.671 22.332,17.366 20.256,17.366 C18,17.366 16.754,18.627 16.636,20.54 L18.967,20.54 C19.024,19.828 19.544,19.368 20.331,19.368 L20.331,19.368 Z"></path>
            <path d="M59.36,19.896 L61.971,19.896 L66.643,24.562 L71.309,19.896 L73.926,19.896 C76.805,19.896 79.155,17.547 79.155,14.661 L79.155,6.111 C79.155,3.225 76.805,0.876 73.926,0.876 L59.36,0.876 C56.473,0.876 54.125,3.225 54.125,6.111 L54.125,14.661 C54.125,17.548 56.474,19.896 59.36,19.896 L59.36,19.896 Z M56.366,6.111 C56.366,4.46 57.71,3.116 59.36,3.116 L73.926,3.116 C75.571,3.116 76.914,4.46 76.914,6.111 L76.914,14.661 C76.914,16.313 75.57,17.657 73.926,17.657 L70.381,17.657 L66.643,21.394 L65.147,19.896 L65.14,19.896 L62.907,17.656 L59.36,17.656 C57.71,17.656 56.366,16.312 56.366,14.66 L56.366,6.111 L56.366,6.111 Z"></path>
            <path d="M66.543,15.825 C67.255,15.825 67.849,15.291 67.849,14.579 C67.849,13.867 67.255,13.332 66.543,13.332 C65.831,13.332 65.251,13.867 65.251,14.579 C65.251,15.291 65.831,15.825 66.543,15.825 L66.543,15.825 Z"></path>
            <path d="M67.595,12.369 L67.804,5.575 L65.281,5.575 L65.489,12.369 L67.595,12.369 Z"></path>
            <path d="M9.952,63.716 C9.431,63.593 8.918,63.915 8.797,64.43 L6.614,73.712 C6.493,74.228 6.812,74.745 7.328,74.866 C7.403,74.884 7.476,74.892 7.55,74.892 C7.985,74.892 8.38,74.594 8.484,74.151 L10.666,64.87 C10.786,64.354 10.468,63.837 9.952,63.716 L9.952,63.716 Z"></path>
            <path d="M41.718,38.526 C40.399,38.213 39.042,38.43 37.89,39.141 C36.738,39.851 35.925,40.965 35.611,42.284 C35.099,44.446 36.06,46.616 37.844,47.742 L36.974,51.377 C36.597,51.447 36.25,51.576 35.931,51.768 C35.042,52.293 34.466,53.246 34.164,54.673 C33.935,55.768 32.962,60.862 32.374,63.985 C31.501,62.494 30.388,60.484 29.672,58.82 C28.724,56.599 26.324,55.716 24.405,55.006 C24.078,54.884 23.764,54.77 23.476,54.654 C23.289,54.583 23.265,54.507 23.245,54.455 C23.13,54.141 23.336,53.476 23.522,53.111 C23.602,52.96 23.633,52.803 23.635,52.646 C23.905,51.952 24.248,51.312 24.609,50.649 C25.235,49.493 25.89,48.293 26.117,46.751 C26.512,43.842 25.239,40.677 22.102,39.757 C21.813,39.669 21.498,39.6 21.18,39.555 C20.85,39.509 20.531,39.49 20.229,39.497 C16.946,39.522 14.854,42.224 14.453,45.125 C14.245,46.663 14.543,47.996 14.837,49.284 C15.093,50.43 15.352,51.515 15.258,52.767 L15.269,52.768 C15.23,53.313 15.109,53.845 14.969,54.018 C12.185,54.055 8.527,54.563 6.796,56.748 C4.999,59.017 3.175,65.284 1.843,69.86 C1.345,71.571 0.915,73.049 0.698,73.543 C0.484,74.03 0.706,74.597 1.19,74.81 C1.315,74.866 1.446,74.892 1.577,74.892 C1.945,74.892 2.298,74.678 2.456,74.319 C2.724,73.71 3.128,72.321 3.686,70.399 C4.827,66.479 6.737,59.916 8.299,57.942 C9.293,56.689 11.69,55.977 15.047,55.939 C16.412,55.924 17.217,54.577 17.201,52.338 C17.199,52.245 17.181,52.156 17.156,52.069 C17.135,50.87 16.9,49.807 16.689,48.845 C16.417,47.68 16.16,46.581 16.326,45.387 C16.633,43.241 18.193,41.081 20.904,41.459 C23.623,41.838 24.538,44.346 24.236,46.492 C24.07,47.686 23.522,48.676 22.957,49.715 C22.486,50.569 21.99,51.507 21.643,52.614 C21.633,52.64 21.623,52.663 21.614,52.69 C21.39,53.259 21.122,54.232 21.442,55.108 C21.659,55.716 22.118,56.177 22.758,56.433 C23.067,56.561 23.399,56.683 23.738,56.81 C25.396,57.418 27.283,58.116 27.904,59.575 C29.273,62.763 31.917,66.967 32.031,67.14 C32.242,67.472 32.633,67.645 33.023,67.575 C33.408,67.498 33.716,67.197 33.785,66.806 C33.805,66.704 35.718,56.618 36.045,55.062 C36.191,54.352 36.41,53.866 36.698,53.591 C36.761,53.513 36.832,53.462 36.91,53.418 C37.311,53.175 37.933,53.181 38.752,53.431 C38.873,53.462 39.136,53.629 39.187,54.41 C39.226,54.916 39.174,55.697 38.924,56.881 C38.855,57.221 38.721,57.899 38.547,58.795 C37.882,62.2 36.641,68.548 36.014,70.635 C35.93,70.897 35.085,71.851 33.869,72.063 C32.793,72.249 31.796,71.755 30.898,70.604 C27.967,66.854 27.418,66.143 27.418,66.143 C27.18,65.843 26.797,65.714 26.426,65.804 C26.061,65.9 25.78,66.2 25.717,66.572 L24.455,73.766 C24.365,74.291 24.717,74.79 25.236,74.88 C25.293,74.886 25.35,74.893 25.402,74.893 C25.861,74.893 26.265,74.567 26.349,74.099 L27.232,69.03 C27.744,69.683 28.441,70.579 29.381,71.789 C31.206,74.118 33.222,74.143 34.265,73.945 C36.013,73.618 37.535,72.256 37.849,71.187 C38.501,69.011 39.756,62.604 40.435,59.161 C40.601,58.285 40.736,57.606 40.806,57.273 C41.023,56.223 41.624,53.324 40.166,52.057 L41.017,48.498 C41.785,48.428 42.522,48.185 43.193,47.776 C44.351,47.065 45.158,45.951 45.472,44.633 C45.784,43.314 45.568,41.957 44.858,40.805 C44.148,39.646 43.034,38.84 41.718,38.526 L41.718,38.526 Z M43.604,44.184 C43.405,45.004 42.906,45.695 42.19,46.136 C41.473,46.577 40.628,46.713 39.815,46.52 C38.125,46.117 37.077,44.415 37.479,42.725 C37.678,41.913 38.176,41.215 38.893,40.779 C39.61,40.337 40.455,40.203 41.268,40.395 C42.086,40.587 42.786,41.093 43.219,41.81 C43.661,42.526 43.797,43.372 43.604,44.184 L43.604,44.184 Z"></path>
        </g>
    </g>
</svg>