<?xml version="1.0" encoding="UTF-8" standalone="no"?>
<svg width="1600px" height="1200px" viewBox="0 0 1600 1200" version="1.1" xmlns="http://www.w3.org/2000/svg" xmlns:xlink="http://www.w3.org/1999/xlink" style="background: #101A21;">
    <!-- Generator: Sketch 40 (33762) - http://www.bohemiancoding.com/sketch -->
    <title>night</title>
    <desc>Created with Sketch.</desc>
    <defs>
        <linearGradient x1="50%" y1="0%" x2="50%" y2="100%" id="linearGradient-1">
            <stop stop-color="#3F6670" offset="0%"></stop>
            <stop stop-color="#222F40" offset="100%"></stop>
        </linearGradient>
        <linearGradient x1="50%" y1="0%" x2="50%" y2="81.1208104%" id="linearGradient-2">
            <stop stop-color="#3F6670" offset="0%"></stop>
            <stop stop-color="#222F40" offset="100%"></stop>
        </linearGradient>
        <linearGradient x1="50%" y1="0%" x2="50%" y2="100%" id="linearGradient-3">
            <stop stop-color="#3C3F5A" offset="0%"></stop>
            <stop stop-color="#0C121E" offset="100%"></stop>
        </linearGradient>
        <linearGradient x1="50%" y1="0%" x2="50%" y2="100%" id="linearGradient-4">
            <stop stop-color="#FF7F88" offset="0%"></stop>
            <stop stop-color="#FFE88D" offset="100%"></stop>
        </linearGradient>
        <linearGradient x1="67.2523594%" y1="63.96875%" x2="38.0035295%" y2="100%" id="linearGradient-5">
            <stop stop-color="#FF4D8A" offset="0%"></stop>
            <stop stop-color="#FFE88D" offset="100%"></stop>
        </linearGradient>
        <linearGradient x1="50%" y1="0%" x2="50%" y2="100%" id="linearGradient-6">
            <stop stop-color="#FF73BD" offset="0%"></stop>
            <stop stop-color="#F9FBCA" offset="100%"></stop>
        </linearGradient>
        <linearGradient x1="50%" y1="28.3295421%" x2="50%" y2="100%" id="linearGradient-7">
            <stop stop-color="#433E59" offset="0%"></stop>
            <stop stop-color="#161929" offset="100%"></stop>
        </linearGradient>
        <linearGradient x1="50%" y1="0%" x2="50%" y2="100%" id="linearGradient-8">
            <stop stop-color="#394A58" offset="0%"></stop>
            <stop stop-color="#171F32" offset="100%"></stop>
        </linearGradient>
        <linearGradient x1="50%" y1="0%" x2="50%" y2="100%" id="linearGradient-9">
            <stop stop-color="#19A381" offset="0%"></stop>
            <stop stop-color="#2CD9C1" offset="100%"></stop>
        </linearGradient>
        <linearGradient x1="50%" y1="0%" x2="50%" y2="100%" id="linearGradient-10">
            <stop stop-color="#645D81" offset="0%"></stop>
            <stop stop-color="#192135" offset="100%"></stop>
        </linearGradient>
        <filter x="-50%" y="-50%" width="200%" height="200%" filterUnits="objectBoundingBox" id="filter-11">
            <feGaussianBlur stdDeviation="32" in="SourceGraphic"></feGaussianBlur>
        </filter>
        <filter x="-50%" y="-50%" width="200%" height="200%" filterUnits="objectBoundingBox" id="filter-12">
            <feGaussianBlur stdDeviation="22" in="SourceGraphic"></feGaussianBlur>
        </filter>
        <linearGradient x1="50%" y1="0%" x2="61.2998724%" y2="50%" id="linearGradient-13">
            <stop stop-color="#645D81" offset="0%"></stop>
            <stop stop-color="#192135" offset="100%"></stop>
        </linearGradient>
        <linearGradient x1="50%" y1="33.0243714%" x2="64.1747286%" y2="77.6495443%" id="linearGradient-14">
            <stop stop-color="#FF867D" offset="0%"></stop>
            <stop stop-color="#FFFFB7" offset="48.8779496%"></stop>
            <stop stop-color="#FFFFFB" offset="100%"></stop>
        </linearGradient>
        <linearGradient x1="50%" y1="33.0243714%" x2="59.2122525%" y2="63.5867615%" id="linearGradient-15">
            <stop stop-color="#FF5F75" offset="0%"></stop>
            <stop stop-color="#FFCDA8" offset="100%"></stop>
        </linearGradient>
        <linearGradient x1="50%" y1="33.0243714%" x2="55.4652502%" y2="70.7667222%" id="linearGradient-16">
            <stop stop-color="#FF5F75" offset="0%"></stop>
            <stop stop-color="#FFCDA8" offset="100%"></stop>
        </linearGradient>
        <linearGradient x1="68.3199698%" y1="2.40061951%" x2="39.431594%" y2="64.6268161%" id="linearGradient-17">
            <stop stop-color="#42385B" offset="0%"></stop>
            <stop stop-color="#1A1B2E" offset="100%"></stop>
        </linearGradient>
        <linearGradient x1="50%" y1="0%" x2="50%" y2="100%" id="linearGradient-18">
            <stop stop-color="#42385B" offset="0%"></stop>
            <stop stop-color="#1A1B2E" offset="100%"></stop>
        </linearGradient>
        <linearGradient x1="38.1611628%" y1="19.6173607%" x2="51.7530113%" y2="92.4758958%" id="linearGradient-19">
            <stop stop-color="#E000FF" offset="0%"></stop>
            <stop stop-color="#FFFEFC" offset="100%"></stop>
        </linearGradient>
        <filter x="-50%" y="-50%" width="200%" height="200%" filterUnits="objectBoundingBox" id="filter-20">
            <feGaussianBlur stdDeviation="22" in="SourceGraphic"></feGaussianBlur>
        </filter>
        <linearGradient x1="50%" y1="0%" x2="50%" y2="50%" id="linearGradient-21">
            <stop stop-color="#487FA4" offset="0%"></stop>
            <stop stop-color="#122039" offset="100%"></stop>
        </linearGradient>
        <linearGradient x1="26.8715558%" y1="0%" x2="100%" y2="100%" id="linearGradient-22">
            <stop stop-color="#60BBC6" offset="0%"></stop>
            <stop stop-color="#7FF9FF" offset="100%"></stop>
        </linearGradient>
        <filter x="-50%" y="-50%" width="200%" height="200%" filterUnits="objectBoundingBox" id="filter-23">
            <feGaussianBlur stdDeviation="22" in="SourceGraphic"></feGaussianBlur>
        </filter>
    </defs>
    <g id="Page-1" stroke="none" stroke-width="1" fill="none" fill-rule="evenodd">
        <g id="night">
            <g id="Group" transform="translate(-172.000000, -309.000000)">
                <polygon id="Rectangle" fill="#1F282F" transform="translate(902.062500, 878.945312) rotate(45.000000) translate(-902.062500, -878.945312) " points="251.9883 762.029626 1552.1367 319.712237 1149.59799 1142.56119 356.231308 1438.17839"></polygon>
                <polygon id="Rectangle-Copy" fill="#09101D" transform="translate(828.478516, 829.220703) rotate(45.000000) translate(-828.478516, -829.220703) " points="167.966204 745.544559 1488.99083 318.347102 1131.38655 1044.14564 329.83289 1340.0943"></polygon>
            </g>
            <g id="tree" transform="translate(869.000000, 299.000000)">
                <rect id="Rectangle-3" fill="#523341" x="47.212766" y="191.708543" width="7.67021277" height="26.2914573" rx="3.83510638"></rect>
                <polygon id="Triangle" fill="url(#linearGradient-1)" points="51.330369 0.877237751 101.676841 181.93911 47.6322307 199.411118"></polygon>
                <polygon id="Triangle-Copy" fill="url(#linearGradient-2)" points="51.330369 0.877237751 0.0722032912 177.165652 47.6322307 199.411118"></polygon>
            </g>
            <g id="tree" transform="translate(978.000000, 312.000000)">
                <rect id="Rectangle-3" fill="#523341" x="36.0425532" y="143.341709" width="5.73404255" height="19.6582915" rx="2.86702128"></rect>
                <polygon id="Triangle" fill="url(#linearGradient-1)" points="39.1207613 0.6559163 76.7584151 136.037041 36.3561336 149.100974"></polygon>
                <polygon id="Triangle-Copy" fill="url(#linearGradient-2)" points="39.1207613 0.6559163 0.801550033 132.467896 36.3561336 149.100974"></polygon>
            </g>
            <g id="sixth" transform="translate(538.000000, -21.000000)">
                <polygon id="1f" fill="url(#linearGradient-3)" points="0 566.673357 138 639 138.820312 253.65625 0 183"></polygon>
                <polygon id="1f" fill="url(#linearGradient-4)" points="99.5267987 562.104019 119 572 119.820312 436.65625 100.461153 427.785468"></polygon>
                <polygon id="1f" fill="url(#linearGradient-4)" points="58.531431 541.270805 77.8532138 551.089837 77.8635829 417.430777 58.7854411 408.688763"></polygon>
                <polygon id="1f" fill="url(#linearGradient-4)" points="18 520.673357 35.9991009 527.794429 35.9991009 398.247574 18 390"></polygon>
                <path d="M99.5267987,401.584358 L119,411 L119.820312,282.225673 L100.461153,273.785468 L99.5267987,401.584358 Z M58.531431,380.753479 L77.8532138,390.089837 L77.8635829,263.001046 L58.7854411,254.688763 L58.531431,380.753479 Z M18,360.035109 L35.9991009,366.794429 L35.9991009,243.828595 L18,236 L18,360.035109 Z" id="1f" fill="url(#linearGradient-5)"></path>
                <polygon id="1f" fill="#141C32" points="308.296875 568.444504 308.296875 193.788524 138 253.65625 138 639"></polygon>
                <polygon id="1f" fill="#343850" points="152 126 308.296875 193.788524 138 253.65625 0 183"></polygon>
                <polygon id="1f" fill="#15192F" points="278.105292 226.338677 226 244.65625 226 630 278.105292 611.096718"></polygon>
                <polygon id="1f" fill="url(#linearGradient-6)" points="263.105292 301.338677 245 308.338677 245 583 263.105292 576.096718"></polygon>
                <polygon id="1f" fill="url(#linearGradient-7)" points="225.296875 629.444504 225.296875 244.788524 197 233.65625 197 615"></polygon>
                <polygon id="1f" fill="#0C0C0E" points="278.304688 225.818359 225.296875 244.788524 197 233.65625 250.326396 215.297527"></polygon>
                <polygon id="2f" fill="url(#linearGradient-3)" points="48 182.451203 141.786408 231.677419 142.343902 103.40872 48 56"></polygon>
                <polygon id="2f" fill="#141C32" points="257.522148 191.656664 257.522148 62.6621643 141.786408 103.40872 141.786408 231.677419"></polygon>
                <polygon id="2f" fill="#343850" points="164 22 257.522148 62.6621643 141.786408 103.40872 48 56"></polygon>
                <polygon id="2f" fill="#15192F" points="237.003597 84.8161151 201.592233 97.2832329 201.592233 224.551932 237.003597 211.686174"></polygon>
                <polygon id="2f" fill="url(#linearGradient-7)" points="201.114381 224.173856 201.114381 97.3732597 181.883495 89.7965261 181.883495 214.342786"></polygon>
                <polygon id="2f" fill="#1B161C" points="237.139108 84.4619816 201.114381 97.3732597 181.883495 89.7965261 218.124735 77.3014009"></polygon>
                <path d="M112.134215,196.105079 L124.931275,202.570628 L126.964662,117.234136 L114.231899,111.416383 L112.134215,196.105079 L112.134215,196.105079 Z M85.2052622,181.825031 L97.902886,188.236284 L99.3799788,104.007522 L86.8319826,98.2778 L85.2052622,181.825031 L85.2052622,181.825031 Z M58.582485,167.624918 L70.4333056,172.312921 L71.85583,90.8165532 L60.0173793,85.419882 L58.582485,167.624918 L58.582485,167.624918 Z" id="2f" fill="url(#linearGradient-5)"></path>
                <polygon id="2f" fill="url(#linearGradient-6)" points="229.105292 107.338677 214 112.338677 214 200 229.105292 195.096718"></polygon>
                <polygon id="3f" fill="url(#linearGradient-3)" points="98 56.0408742 154.087379 82.8570381 154.331614 26.0106829 98 -1.42108547e-14"></polygon>
                <polygon id="3f" fill="#141C32" points="209.790655 62.1205669 209.790655 4.95255009 154.087379 26.0106829 154.087379 82.8570381"></polygon>
                <polygon id="3f" fill="#15192F" points="195.801576 17.7707783 180.288026 23.2959782 180.288026 79.6991517 195.801576 73.9972819"></polygon>
                <polygon id="3f" fill="url(#linearGradient-7)" points="180.078681 79.5315954 180.078681 23.3358764 171.653722 19.9780059 171.653722 75.1746439"></polygon>
                <polygon id="3f" fill="#1B161C" points="195.860943 17.6138327 180.078681 23.3358764 171.653722 19.9780059 187.530836 14.4403936"></polygon>
                <path d="M136.164793,68.6332331 L142.89523,72.0336996 L143.964662,27.1521497 L137.268041,24.0923826 L136.164793,68.6332331 L136.164793,68.6332331 Z M122.001882,61.1228394 L128.680022,64.4947492 L129.456879,20.1957944 L122.857433,17.1823264 L122.001882,61.1228394 L122.001882,61.1228394 Z M108,53.6544858 L114.232775,56.120076 L114.980933,13.2581867 L108.754663,10.419882 L108,53.6544858 L108,53.6544858 Z" id="3f" fill="url(#linearGradient-5)"></path>
                <polygon id="3f" fill="url(#linearGradient-6)" points="192.105292 26.3386774 186 28.5327602 186 67 192.105292 64.8483586"></polygon>
            </g>
            <g id="third" transform="translate(990.000000, 370.000000)">
                <polygon id="Rectangle-2-Copy-6" fill="#0C0C0E" points="195 2 345 77 150.679736 140.737047 0.837833655 64.5655283"></polygon>
                <polygon id="Rectangle-2-Copy-5" fill="url(#linearGradient-8)" points="344.569682 198.309806 344.569682 77 150.72432 140.524259 150 267.201406"></polygon>
                <polygon id="Rectangle-2-Copy-20" fill="#3A3750" points="344.522059 85.3261719 344.522059 76.690194 194.671875 0.064453125 194.590634 9.27284013"></polygon>
                <polygon id="Rectangle-2-Copy-21" fill="#494564" points="2.015625 73.1347656 2.015625 63.4987877 195.671875 0.064453125 195.671875 9.27284013"></polygon>
                <polygon id="Rectangle-2-Copy-19" fill="#2B333C" points="344.522059 90.3261719 344.522059 76.690194 150.676697 140.214453 150.595456 154.42284"></polygon>
                <polygon id="Rectangle-4" fill="url(#linearGradient-9)" transform="translate(248.425781, 169.096680) scale(-1, 1) translate(-248.425781, -169.096680) " points="207 146 289.851562 172.193359 289.851562 192.193359 207 166"></polygon>
            </g>
            <g id="second" transform="translate(800.000000, 435.000000)">
                <polygon id="Rectangle-2" fill="url(#linearGradient-8)" points="2.60424326 187.723114 159.057273 266.340733 159.057273 135.9625 2.4235409 59"></polygon>
                <polygon id="Rectangle-2-Copy-4" fill="url(#linearGradient-8)" points="340.676697 75.2144531 158.354511 134.9625 158.354511 266.190248 339.952377 201.8916"></polygon>
                <polygon id="Rectangle-2-Copy-3" fill="#303943" points="190 0 340 75 340 90 160 150 0 75 0 60"></polygon>
                <polygon id="Rectangle-2-Copy-2" fill="#0C0C0E" points="196.369141 7.015625 340 75 160 135 16.5799502 66.3608616"></polygon>
                <polygon id="Rectangle-4" fill="url(#linearGradient-9)" points="40 133 117.851562 168.193359 117.851562 188.193359 40 153"></polygon>
                <polyline id="Line" stroke="#303943" stroke-width="7" stroke-linecap="round" stroke-linejoin="round" points="192.5 2.5 340.851562 77.0136719 341.2436 87.3351356"></polyline>
            </g>
            <g id="fifth" transform="translate(81.000000, 60.000000)">
                <polygon id="Rectangle-2" fill="#232935" points="0 451.244073 130.820312 511.244073 128.953125 122.65625 0 57.4264547"></polygon>
                <polygon id="Rectangle-2-Copy" fill="url(#linearGradient-10)" points="281.296875 462.444504 281.296875 71.7885237 128.953125 122.65625 129.984375 512.071525"></polygon>
                <polygon id="Rectangle-2-Copy-11" fill="#0C0C0E" points="144 0 281.296875 71.7885237 128.953125 122.65625 0.699996948 57"></polygon>
            </g>
            <ellipse id="Oval" fill="#FFF9B4" opacity="0.599999964" filter="url(#filter-11)" cx="292" cy="655" rx="69" ry="54"></ellipse>
            <path d="M802,918 C840.107648,918 932.710938,874.987439 932.710938,845.164062 C932.710938,815.340686 901.818585,791.164062 863.710938,791.164062 C825.60329,791.164062 733,834.176624 733,864 C733,893.823376 763.892352,918 802,918 Z" id="Oval-Copy" fill="#F083FD" filter="url(#filter-12)"></path>
            <g id="fourth" transform="translate(190.000000, 268.000000)">
                <polygon id="Rectangle-2-Copy-2" fill="#0C0C0E" points="235.976562 14.0123249 410 99.3554688 200 176.982422 26.5136719 87.7753906"></polygon>
                <polygon id="Rectangle-2-Copy-9" fill="url(#linearGradient-13)" points="328.575636 92 328.575636 51.3135625 202.310682 97.9876751 202.310682 138.350905"></polygon>
                <polygon id="Rectangle-2-Copy-10" fill="#232935" points="98 86.5566406 98 43.8702031 202.310682 95.9876751 202.310682 138.350905"></polygon>
                <polygon id="Rectangle-2-Copy" fill="url(#linearGradient-10)" points="403.296875 373.444504 403.296875 102.788524 198.953125 177.65625 198.953125 447.071525"></polygon>
                <polygon id="Rectangle-2-Copy-7" fill="#232935" transform="translate(113.125000, 267.430024) scale(-1, 1) translate(-113.125000, -267.430024) " points="199.296875 359.444504 199.296875 87.7885237 26.953125 176.65625 26.953125 447.071525"></polygon>
                <polygon id="Rectangle-2-Copy-12" fill="url(#linearGradient-14)" transform="translate(102.186076, 364.051590) scale(-1, 1) translate(-102.186076, -364.051590) " points="160.736568 300.779492 43.6355839 363.835028 43.6355839 427.323689 160.736568 367.926588"></polygon>
                <polygon id="Rectangle-2-Copy-13" fill="#0C0C0E" points="407.425781 279.324219 407.425781 296.734375 174 377.982422 0.513671875 288.775391 198.94683 222.840096"></polygon>
                <polygon id="Rectangle-2-Copy-15" fill="url(#linearGradient-10)" points="403.296875 282.444504 403.296875 102.788524 198.953125 177.65625 198.953125 354.071525"></polygon>
                <polygon id="Rectangle-2-Copy-14" fill="#232935" transform="translate(113.125000, 221.930024) scale(-1, 1) translate(-113.125000, -221.930024) " points="199.296875 269.444504 199.296875 87.7885237 26.953125 176.65625 26.953125 356.071525"></polygon>
                <polygon id="Rectangle-2-Copy-8" fill="#0C0C0E" points="223.942011 0 328.575636 51.3135625 202.310682 97.9876751 98 44.3509052"></polygon>
                <polygon id="Rectangle-2-Copy-16" fill="url(#linearGradient-15)" transform="translate(139.186076, 195.551590) scale(-1, 1) translate(-139.186076, -195.551590) " points="197.736568 146.779492 80.6355839 204.415462 80.6355839 244.323689 197.736568 188.987369"></polygon>
                <polygon id="Rectangle-2-Copy-22" fill="url(#linearGradient-16)" points="314.736568 164.779492 197.635584 204.415462 197.635584 244.323689 314.736568 206.987369"></polygon>
            </g>
            <g id="first" transform="translate(535.000000, 597.000000)">
                <polygon id="Rectangle-2" fill="url(#linearGradient-17)" points="0.71875 203.570312 186.820312 289.28125 184.953125 161.3125 2.8828125 77.421875"></polygon>
                <polygon id="Rectangle-2-Copy-2" fill="#0C1115" points="220.976562 0.01171875 406.466797 84.2050781 184.953125 161.3125 2.8828125 77.421875"></polygon>
                <polygon id="Rectangle-2-Copy-17" stroke="#33363C" stroke-width="5" stroke-linecap="round" stroke-linejoin="round" points="218.250673 13.497629 372.724261 83.6126426 188.250875 147.82659 36.6253484 77.963689"></polygon>
                <polygon id="Rectangle-2-Copy-18" stroke="#33363C" stroke-width="5" stroke-linecap="round" stroke-linejoin="round" points="215.572228 26.7488145 339.56902 83.0305185 191.491226 134.575404 69.7805891 78.4960726"></polygon>
                <polygon id="wall1" fill="url(#linearGradient-18)" points="403 213 406.296875 84.421875 184.953125 161.3125 186 289"></polygon>
                <polygon id="window" fill="url(#linearGradient-19)" points="381.072266 221.005859 380.856445 177.938477 208.461914 236.782227 208.816406 281.148438"></polygon>
                <polygon id="scaffold" fill="#2A143D" points="395.072266 157.005859 390.464844 154.306641 198.020508 221.567383 198.144531 237.018555 202.348907 239.777344 202.348907 224.616003"></polygon>
                <polygon id="scaffold" fill="#101026" points="395.072266 157.005859 394.856445 173.938477 201.816406 239.782227 201.816406 224.148438"></polygon>
                <polygon id="scaffold" fill="#2A143D" points="402.851562 101.105469 398.244141 98.40625 197.020508 169.567383 197.020508 195 201.820007 197 202.106445 172.088867"></polygon>
                <polygon id="scaffold" fill="#101026" points="403.072266 102.005859 401.856445 128.938477 201.816406 197 201.816406 172.148438"></polygon>
                <polygon id="window-copy" fill="url(#linearGradient-19)" points="220.746756 167.810372 204.461914 173.782227 204.816406 194.148438 220.297471 188.251806"></polygon>
                <polygon id="window-copy" fill="url(#linearGradient-19)" points="246.284841 159 230 164.971854 230.354492 185.338065 245.835557 179.441434"></polygon>
            </g>
            <g id="tree" transform="translate(1083.000000, 514.000000)">
                <rect id="Rectangle-3" fill="#523341" x="44" y="175" width="7" height="24" rx="3.5"></rect>
                <polygon id="Triangle" fill="url(#linearGradient-1)" points="47.7578125 0.80078125 93.7050781 166.082031 44.3828125 182.03125"></polygon>
                <polygon id="Triangle-Copy" fill="url(#linearGradient-2)" points="47.7578125 0.80078125 0.978515625 161.724609 44.3828125 182.03125"></polygon>
            </g>
            <g id="tree-copy" transform="translate(422.000000, 534.000000)">
                <rect id="Rectangle-3" fill="#523341" x="44" y="175" width="7" height="24" rx="3.5"></rect>
                <polygon id="Triangle" fill="url(#linearGradient-1)" points="47.7578125 0.80078125 93.7050781 166.082031 44.3828125 182.03125"></polygon>
                <polygon id="Triangle-Copy" fill="url(#linearGradient-2)" points="47.7578125 0.80078125 0.978515625 161.724609 44.3828125 182.03125"></polygon>
            </g>
            <g id="tree" transform="translate(1002.000000, 567.000000)">
                <rect id="Rectangle-3" fill="#523341" x="36.0425532" y="143.341709" width="5.73404255" height="19.6582915" rx="2.86702128"></rect>
                <polygon id="Triangle" fill="url(#linearGradient-1)" points="39.1207613 0.6559163 76.7584151 136.037041 36.3561336 149.100974"></polygon>
                <polygon id="Triangle-Copy" fill="url(#linearGradient-2)" points="39.1207613 0.6559163 0.801550033 132.467896 36.3561336 149.100974"></polygon>
            </g>
            <g id="tree" transform="translate(1314.000000, 491.000000)">
                <rect id="Rectangle-3" fill="#523341" x="30.4255319" y="120.477387" width="4.84042553" height="16.5226131" rx="2.42021277"></rect>
                <polygon id="Triangle" fill="url(#linearGradient-1)" points="33.0240193 0.551291614 64.7960647 114.337881 30.6902427 125.317996"></polygon>
                <polygon id="Triangle-Copy" fill="url(#linearGradient-2)" points="33.0240193 0.551291614 0.676633145 111.338048 30.6902427 125.317996"></polygon>
            </g>
            <g id="lamp" transform="translate(1022.000000, 700.000000)">
                <ellipse id="Oval" fill="#3496E9" filter="url(#filter-20)" cx="46.5" cy="108" rx="46.5" ry="29"></ellipse>
                <path d="M37.5,2.5 L37.5,86.5" id="Line" stroke="url(#linearGradient-21)" stroke-width="3" stroke-linecap="round" stroke-linejoin="round"></path>
                <path d="M37.9530193,0.359497417 L44.6953125,0.359497417 L56.7008696,6.68637366 C59.7795926,8.63293652 59.4260777,11.0016976 55.9186628,11.9750985 L53.9446184,12.5229483 C50.4338946,13.4972676 45.46875,12.2259521 42.8634256,9.691914 L36.8933579,3.88519782 C35.3094233,2.34460244 37.9530193,0.359497417 37.9530193,0.359497417 Z" id="Combined-Shape" fill="url(#linearGradient-22)"></path>
            </g>
            <g id="lamp-copy" transform="translate(415.500000, 744.500000) scale(-1, 1) translate(-415.500000, -744.500000) translate(369.000000, 676.000000)">
                <ellipse id="Oval" fill="#3496E9" filter="url(#filter-23)" cx="46.5" cy="108" rx="46.5" ry="29"></ellipse>
                <path d="M37.5,2.5 L37.5,86.5" id="Line" stroke="url(#linearGradient-21)" stroke-width="3" stroke-linecap="round" stroke-linejoin="round"></path>
                <path d="M37.9530193,0.359497417 L44.6953125,0.359497417 L56.7008696,6.68637366 C59.7795926,8.63293652 59.4260777,11.0016976 55.9186628,11.9750985 L53.9446184,12.5229483 C50.4338946,13.4972676 45.46875,12.2259521 42.8634256,9.691914 L36.8933579,3.88519782 C35.3094233,2.34460244 37.9530193,0.359497417 37.9530193,0.359497417 Z" id="Combined-Shape" fill="url(#linearGradient-22)"></path>
            </g>
            <path d="M262,594.509091 L262,649.490909" id="Line" stroke="#0C0C0E" stroke-width="2" stroke-linecap="round" stroke-linejoin="round"></path>
            <path d="M307,616.527273 L307,673.472727" id="Line-Copy" stroke="#0C0C0E" stroke-width="2" stroke-linecap="round" stroke-linejoin="round"></path>
        </g>
    </g>
</svg>
