<svg width="1600px" height="1200px" viewBox="0 0 1600 1200" version="1.1" xmlns="http://www.w3.org/2000/svg" xmlns:xlink="http://www.w3.org/1999/xlink"  style="background: #101A21;">
    <!-- Generator: Sketch 40.1 (33804) - http://www.bohemiancoding.com/sketch -->


    <defs><filter x="-50%" y="-50%" width="200%" height="200%" filterUnits="objectBoundingBox" id="filter-1">
            <feGaussianBlur stdDeviation="32" in="SourceGraphic"></feGaussianBlur>
        </filter><filter x="-50%" y="-50%" width="200%" height="200%" filterUnits="objectBoundingBox" id="filter-2">
            <feGaussianBlur stdDeviation="22" in="SourceGraphic"></feGaussianBlur>
        </filter>















































    <linearGradient x1="50%" y1="0%" x2="50%" y2="100%" id="linearGradient-1">
            <stop stop-color="#3F6670" offset="0%"></stop>
            <stop stop-color="#222F40" offset="100%"></stop>
        </linearGradient><linearGradient x1="50%" y1="0%" x2="50%" y2="81.1208104%" id="linearGradient-2">
            <stop stop-color="#3F6670" offset="0%"></stop>
            <stop stop-color="#222F40" offset="100%"></stop>
        </linearGradient><linearGradient x1="50%" y1="0%" x2="50%" y2="100%" id="linearGradient-3">
            <stop stop-color="#3C3F5A" offset="0%"></stop>
            <stop stop-color="#0C121E" offset="100%"></stop>
        </linearGradient><linearGradient x1="50%" y1="0%" x2="50%" y2="100%" id="linearGradient-4">
            <stop stop-color="#FF7F88" offset="0%"></stop>
            <stop stop-color="#FFE88D" offset="100%"></stop>
        </linearGradient><linearGradient x1="67.2523594%" y1="63.96875%" x2="38.0035295%" y2="100%" id="linearGradient-5">
            <stop stop-color="#FF4D8A" offset="0%"></stop>
            <stop stop-color="#FFE88D" offset="100%"></stop>
        </linearGradient><linearGradient x1="50%" y1="0%" x2="50%" y2="100%" id="linearGradient-6">
            <stop stop-color="#FF73BD" offset="0%"></stop>
            <stop stop-color="#F9FBCA" offset="100%"></stop>
        </linearGradient><linearGradient x1="50%" y1="28.3295421%" x2="50%" y2="100%" id="linearGradient-7">
            <stop stop-color="#433E59" offset="0%"></stop>
            <stop stop-color="#161929" offset="100%"></stop>
        </linearGradient><linearGradient x1="50%" y1="0%" x2="50%" y2="100%" id="linearGradient-8">
            <stop stop-color="#394A58" offset="0%"></stop>
            <stop stop-color="#171F32" offset="100%"></stop>
        </linearGradient><linearGradient x1="50%" y1="0%" x2="50%" y2="100%" id="linearGradient-9">
            <stop stop-color="#19A381" offset="0%"></stop>
            <stop stop-color="#2CD9C1" offset="100%"></stop>
        </linearGradient><linearGradient x1="50%" y1="0%" x2="50%" y2="100%" id="linearGradient-10">
            <stop stop-color="#645D81" offset="0%"></stop>
            <stop stop-color="#192135" offset="100%"></stop>
        </linearGradient><linearGradient x1="50%" y1="33.0243714%" x2="64.1747286%" y2="77.6495443%" id="linearGradient-12">
            <stop stop-color="#FF867D" offset="0%"></stop>
            <stop stop-color="#FFFFB7" offset="48.8779496%"></stop>
            <stop stop-color="#FFFFFB" offset="100%"></stop>
        </linearGradient><linearGradient x1="50%" y1="33.0243714%" x2="59.2122525%" y2="63.5867615%" id="linearGradient-13">
            <stop stop-color="#FF5F75" offset="0%"></stop>
            <stop stop-color="#FFCDA8" offset="100%"></stop>
        </linearGradient><linearGradient x1="50%" y1="33.0243714%" x2="55.4652502%" y2="70.7667222%" id="linearGradient-14">
            <stop stop-color="#FF5F75" offset="0%"></stop>
            <stop stop-color="#FFCDA8" offset="100%"></stop>
        </linearGradient><linearGradient x1="50%" y1="0%" x2="61.2998724%" y2="50%" id="linearGradient-15">
            <stop stop-color="#645D81" offset="0%"></stop>
            <stop stop-color="#192135" offset="100%"></stop>
        </linearGradient><linearGradient x1="68.3199698%" y1="2.40061951%" x2="39.431594%" y2="64.6268161%" id="linearGradient-17">
            <stop stop-color="#42385B" offset="0%"></stop>
            <stop stop-color="#1A1B2E" offset="100%"></stop>
        </linearGradient><linearGradient x1="50%" y1="0%" x2="50%" y2="100%" id="linearGradient-18">
            <stop stop-color="#42385B" offset="0%"></stop>
            <stop stop-color="#1A1B2E" offset="100%"></stop>
        </linearGradient><linearGradient x1="38.1611628%" y1="19.6173607%" x2="51.7530113%" y2="92.4758958%" id="linearGradient-19">
            <stop stop-color="#E000FF" offset="0%"></stop>
            <stop stop-color="#FFFEFC" offset="100%"></stop>
        </linearGradient><linearGradient x1="50%" y1="0%" x2="50%" y2="50%" id="linearGradient-21">
            <stop stop-color="#487FA4" offset="0%"></stop>
            <stop stop-color="#122039" offset="100%"></stop>
        </linearGradient><linearGradient x1="26.8715558%" y1="0%" x2="100%" y2="100%" id="linearGradient-22">
            <stop stop-color="#60BBC6" offset="0%"></stop>
            <stop stop-color="#7FF9FF" offset="100%"></stop>
        </linearGradient></defs>
    <g fill="none" fill-rule="evenodd" stroke-linecap="round" stroke-linejoin="round"><g fill="#1F282F"><polygon id="groundwork" points="353.0625 27.6015625 1585.17187 634.179687 718.691955 931.38391 -0.735065928 602.550369 2.30266309 506.229532"></polygon></g><g fill="#09101D"><polygon id="groundwork" points="248.59375 -6 1484.77344 626.03125 718.691955 886.38391 6.41354011 558.246537 0.90546037 427.008615"></polygon></g><g fill="#523341"><rect id="tree-6" x="916.212766" y="490.708543" width="7.67021277" height="26.2914573" rx="3.83510638"></rect></g><g fill="url(#linearGradient-1)"><polygon id="tree-6" points="920.330369 299.877238 970.676841 480.93911 916.632231 498.411118"></polygon></g><g fill="url(#linearGradient-2)"><polygon id="tree-6" points="920.330369 299.877238 869.072203 476.165652 916.632231 498.411118"></polygon></g><g fill="#523341"><rect id="tree-5" x="1014.04255" y="455.341709" width="5.73404255" height="19.6582915" rx="2.86702128"></rect></g><g fill="url(#linearGradient-1)"><polygon id="tree-5" points="1017.12076 312.655916 1054.75842 448.037041 1014.35613 461.100974"></polygon></g><g fill="url(#linearGradient-2)"><polygon id="tree-5" points="1017.12076 312.655916 978.80155 444.467896 1014.35613 461.100974"></polygon></g><g fill="url(#linearGradient-3)"><polygon id="sixth-1f-left-wall" points="538 545.673357 676 618 676.820312 232.65625 538 162"></polygon></g><g fill="url(#linearGradient-4)"><polygon id="sixth-1f-window" points="637.526799 541.104019 657 551 657.820312 415.65625 638.461153 406.785468"></polygon><polygon id="sixth-1f-window" points="596.531431 520.270805 615.853214 530.089837 615.863583 396.430777 596.785441 387.688763"></polygon><polygon id="sixth-1f-window" points="556 499.673357 573.999101 506.794429 573.999101 377.247574 556 369"></polygon></g><g fill="url(#linearGradient-5)"><path d="M637.526799,380.584358 L657,390 L657.820312,261.225673 L638.461153,252.785468 L637.526799,380.584358 Z M596.531431,359.753479 L615.853214,369.089837 L615.863583,242.001046 L596.785441,233.688763 L596.531431,359.753479 Z M556,339.035109 L573.999101,345.794429 L573.999101,222.828595 L556,215 L556,339.035109 Z" id="sixth-1f-window"></path></g><g fill="#141C32"><polygon id="sixth-1f-right-wall" points="846.296875 547.444504 846.296875 172.788524 676 232.65625 676 618"></polygon></g><g fill="#343850"><polygon id="sixth-1f-roof" points="690 105 846.296875 172.788524 676 232.65625 538 162"></polygon></g><g fill="#15192F"><polygon id="sixth-1f" points="816.105292 205.338677 764 223.65625 764 609 816.105292 590.096718"></polygon></g><g fill="url(#linearGradient-6)"><polygon id="sixth-1f" points="801.105292 280.338677 783 287.338677 783 562 801.105292 555.096718"></polygon></g><g fill="url(#linearGradient-7)"><polygon id="sixth-1f-window" points="763.296875 608.444504 763.296875 223.788524 735 212.65625 735 594"></polygon></g><g fill="#0C0C0E"><polygon id="sixth-1f" points="816.304688 204.818359 763.296875 223.788524 735 212.65625 788.326396 194.297527"></polygon></g><g fill="url(#linearGradient-3)"><polygon id="sixth-2f-left-wall" points="586 161.451203 679.786408 210.677419 680.343902 82.4087203 586 35"></polygon></g><g fill="#141C32"><polygon id="sixth-2f-right-wall" points="795.522148 170.656664 795.522148 41.6621643 679.786408 82.4087203 679.786408 210.677419"></polygon></g><g fill="#343850"><polygon id="sixth-2f-roof" points="702 1 795.522148 41.6621643 679.786408 82.4087203 586 35"></polygon></g><g fill="#15192F"><polygon id="sixth-2f" points="775.003597 63.8161151 739.592233 76.2832329 739.592233 203.551932 775.003597 190.686174"></polygon></g><g fill="url(#linearGradient-7)"><polygon id="sixth-2f" points="739.114381 203.173856 739.114381 76.3732597 719.883495 68.7965261 719.883495 193.342786"></polygon></g><g fill="#1B161C"><polygon id="sixth-2f" points="775.139108 63.4619816 739.114381 76.3732597 719.883495 68.7965261 756.124735 56.3014009"></polygon></g><g fill="url(#linearGradient-5)"><path d="M650.134215,175.105079 L662.931275,181.570628 L664.964662,96.2341361 L652.231899,90.4163826 L650.134215,175.105079 L650.134215,175.105079 Z M623.205262,160.825031 L635.902886,167.236284 L637.379979,83.0075215 L624.831983,77.2778 L623.205262,160.825031 L623.205262,160.825031 Z M596.582485,146.624918 L608.433306,151.312921 L609.85583,69.8165532 L598.017379,64.419882 L596.582485,146.624918 L596.582485,146.624918 Z" id="sixth-2f-window"></path></g><g fill="url(#linearGradient-6)"><polygon id="sixth-2f-window" points="767.105292 86.3386774 752 91.3386774 752 179 767.105292 174.096718"></polygon></g><g fill="url(#linearGradient-3)"><polygon id="sixth-3f" points="636 35.0408742 692.087379 61.8570381 692.331614 5.01068287 636 -21"></polygon></g><g fill="#141C32"><polygon id="sixth-3f" points="747.790655 41.1205669 747.790655 -16.0474499 692.087379 5.01068287 692.087379 61.8570381"></polygon></g><g fill="#15192F"><polygon id="sixth-3f" points="733.801576 -3.22922173 718.288026 2.29597822 718.288026 58.6991517 733.801576 52.9972819"></polygon></g><g fill="url(#linearGradient-7)"><polygon id="sixth-3f" points="718.078681 58.5315954 718.078681 2.33587644 709.653722 -1.02199413 709.653722 54.1746439"></polygon></g><g fill="#1B161C"><polygon id="sixth-3f" points="733.860943 -3.38616726 718.078681 2.33587644 709.653722 -1.02199413 725.530836 -6.55960641"></polygon></g><g fill="url(#linearGradient-5)"><path d="M674.164793,47.6332331 L680.89523,51.0336996 L681.964662,6.15214971 L675.268041,3.0923826 L674.164793,47.6332331 L674.164793,47.6332331 Z M660.001882,40.1228394 L666.680022,43.4947492 L667.456879,-0.804205613 L660.857433,-3.81767356 L660.001882,40.1228394 L660.001882,40.1228394 Z M646,32.6544858 L652.232775,35.120076 L652.980933,-7.74181331 L646.754663,-10.580118 L646,32.6544858 L646,32.6544858 Z" id="sixth-3f-window"></path></g><g fill="url(#linearGradient-6)"><polygon id="sixth-3f-window" points="730.105292 5.33867741 724 7.53276019 724 46 730.105292 43.8483586"></polygon></g><g fill="url(#linearGradient-8)"><polygon id="third-front-wall" points="1334.56968 568.309806 1334.56968 447 1140.72432 510.524259 1140 637.201406"></polygon></g><g fill="#0C0C0E"><polygon id="third-roof" points="1185 372 1335 447 1140.67974 510.737047 990.837834 434.565528"></polygon></g><g fill="#3A3750"><polygon id="third-roof-crowning" points="1334.52206 455.326172 1334.52206 446.690194 1184.67188 370.064453 1184.59063 379.27284"></polygon></g><g fill="#494564"><polygon id="third-roof-crowning" points="992.015625 443.134766 992.015625 433.498788 1185.67188 370.064453 1185.67188 379.27284"></polygon></g><g fill="#2B333C"><polygon id="third-roof-crowning" points="1334.52206 460.326172 1334.52206 446.690194 1140.6767 510.214453 1140.59546 524.42284"></polygon></g><g fill="url(#linearGradient-9)"><polygon id="third-roof-crowning" points="1279.85156 516 1197 542.193359 1197 562.193359 1279.85156 536"></polygon></g><g fill="url(#linearGradient-8)"><polygon id="second-left-wall" points="802.604243 622.723114 959.057273 701.340733 959.057273 570.9625 802.423541 494"></polygon><polygon id="second-right-wall" points="1140.6767 510.214453 958.354511 569.9625 958.354511 701.190248 1139.95238 636.8916"></polygon></g><g fill="url(#linearGradient-9)"><polygon id="second-window" points="840 568 917.851562 603.830997 917.851562 624.193359 840 588.362362"></polygon></g><g fill="#303943"><polygon id="second-roof-crowning" points="990 435 1140 510 1140 525 960 585 800 510 800 495"></polygon></g><g fill="#0C0C0E"><polygon id="second-roof-outer" points="996.369141 442.015625 1140 510 960 570 816.57995 501.360862"></polygon></g><g stroke="#303943" stroke-width="7"><polyline id="second-roof-separate" points="992.5 437.5 1140.85156 512.013672 1141.2436 522.335136"></polyline></g><g fill="#232935"><polygon id="fifth-left-w" points="81 511.244073 211.820312 571.244073 209.953125 182.65625 81 117.426455"></polygon></g><g fill="url(#linearGradient-10)"><polygon id="fifth-right-wall" points="362.296875 522.444504 362.296875 131.788524 209.953125 182.65625 210.984375 572.071525"></polygon></g><g fill="#0C0C0E"><polygon id="fifth-roof" points="225 60 362.296875 131.788524 209.953125 182.65625 81.6999969 117"></polygon></g><g fill="#FFF9B4" opacity="0.599999964" filter="url(#filter-11)" ry="54"><ellipse id="fourth-glow" cx="292" cy="655" rx="69"></ellipse></g><g fill="#0C0C0E"><polygon id="fourth-roof" points="425.976562 282.012325 600 367.355469 390 444.982422 216.513672 355.775391"></polygon></g><g fill="url(#linearGradient-10)"><polygon id="fourth-right-wall" points="593.296875 641.444504 593.296875 370.788524 388.953125 445.65625 388.953125 715.071525"></polygon></g><g fill="#232935"><polygon id="fourth-left-wall" points="216.953125 627.444504 216.953125 355.788524 389.296875 444.65625 389.296875 715.071525"></polygon></g><g fill="url(#linearGradient-12)"><polygon id="fourth-window" points="233.635584 568.779492 350.736568 631.835028 350.736568 695.323689 233.635584 635.926588"></polygon></g><g fill="#0C0C0E"><polygon id="fourth-scaffold" points="597.425781 547.324219 597.425781 564.734375 364 645.982422 190.513672 556.775391 388.94683 490.840096"></polygon></g><g fill="url(#linearGradient-10)"><polygon id="fourth-right-wall" points="593.296875 550.444504 593.296875 370.788524 388.953125 445.65625 388.953125 622.071525"></polygon></g><g fill="#232935"><polygon id="fourth-left-wall" points="216.953125 537.444504 216.953125 355.788524 389.296875 444.65625 389.296875 624.071525"></polygon></g><g fill="url(#linearGradient-13)"><polygon id="fourth-window-top-left" points="270.635584 414.779492 387.736568 472.415462 387.736568 512.323689 270.635584 456.987369"></polygon></g><g fill="url(#linearGradient-14)"><polygon id="fourth-window-top-righ" points="504.736568 432.779492 387.635584 472.415462 387.635584 512.323689 504.736568 474.987369"></polygon></g><g fill="url(#linearGradient-15)"><polygon id="fourth-rooftop-wall-right" points="518.575636 360 518.575636 319.313562 392.310682 365.987675 392.310682 406.350905"></polygon></g><g fill="#232935"><polygon id="fourth-rooftop-wall-left" points="288 354.556641 288 311.870203 392.310682 363.987675 392.310682 406.350905"></polygon></g><g fill="#0C0C0E"><polygon id="fourth-rooftop-roof" points="413.942011 268 518.575636 319.313562 392.310682 365.987675 288 312.350905"></polygon></g><g fill="#F083FD" filter="url(#filter-16)"><path d="M802,918 C840.107648,918 932.710938,874.987439 932.710938,845.164062 C932.710938,815.340686 901.818585,791.164062 863.710938,791.164062 C825.60329,791.164062 733,834.176624 733,864 C733,893.823376 763.892352,918 802,918 Z" id="first-glow"></path></g><g fill="url(#linearGradient-17)"><polygon id="first-left-wall" points="535.71875 800.570312 721.820312 886.28125 719.953125 758.3125 537.882812 674.421875"></polygon></g><g fill="#0C1115"><polygon id="first-roof" points="755.976562 597.011719 941.466797 681.205078 719.953125 758.3125 537.882812 674.421875"></polygon></g><g stroke="#33363C" stroke-width="5"><polygon id="first-roof" points="753.250673 610.497629 907.724261 680.612643 723.250875 744.82659 571.625348 674.963689"></polygon><polygon id="first-roof" points="750.572228 623.748815 874.56902 680.030518 726.491226 731.575404 604.780589 675.496073"></polygon></g><g fill="url(#linearGradient-18)"><polygon id="first-right-wall" points="938 810 941.296875 681.421875 719.953125 758.3125 721 886"></polygon></g><g fill="url(#linearGradient-19)"><polygon id="first-window" points="916.072266 818.005859 915.856445 774.938477 743.461914 833.782227 743.816406 878.148438"></polygon></g><g fill="#2A143D"><polygon id="first-scaffold" points="930.072266 754.005859 925.464844 751.306641 733.020508 818.567383 733.144531 834.018555 737.348907 836.777344 737.348907 821.616003"></polygon></g><g fill="#101026"><polygon id="first-scaffold" points="930.072266 754.005859 929.856445 770.938477 736.816406 836.782227 736.816406 821.148438"></polygon></g><g fill="#2A143D"><polygon id="first-scaffold" points="937.851562 698.105469 933.244141 695.40625 732.020508 766.567383 732.020508 792 736.820007 794 737.106445 769.088867"></polygon></g><g fill="#101026"><polygon id="first-scaffold" points="938.072266 699.005859 936.856445 725.938477 736.816406 794 736.816406 769.148438"></polygon></g><g fill="url(#linearGradient-19)"><polygon id="first-window" points="755.746756 764.810372 739.461914 770.782227 739.816406 791.148438 755.297471 785.251806"></polygon><polygon id="first-window" points="781.284841 756 765 761.971854 765.354492 782.338065 780.835557 776.441434"></polygon></g><g fill="#523341"><rect id="tree-4" x="466" y="709" width="7" height="24" rx="3.5"></rect></g><g fill="url(#linearGradient-1)"><polygon id="tree-4" points="469.757812 534.800781 515.705078 700.082031 466.382812 716.03125"></polygon></g><g fill="url(#linearGradient-2)"><polygon id="tree-4" points="469.757812 534.800781 422.978516 695.724609 466.382812 716.03125"></polygon></g><g fill="#523341"><rect id="tree-3" x="1038.04255" y="710.341709" width="5.73404255" height="19.6582915" rx="2.86702128"></rect></g><g fill="url(#linearGradient-1)"><polygon id="tree-3" points="1041.12076 567.655916 1078.75842 703.037041 1038.35613 716.100974"></polygon></g><g fill="url(#linearGradient-2)"><polygon id="tree-3" points="1041.12076 567.655916 1002.80155 699.467896 1038.35613 716.100974"></polygon></g><g fill="#523341"><rect id="tree-2" x="1127" y="689" width="7" height="24" rx="3.5"></rect></g><g fill="url(#linearGradient-1)"><polygon id="tree-2" points="1130.75781 514.800781 1176.70508 680.082031 1127.38281 696.03125"></polygon></g><g fill="url(#linearGradient-2)"><polygon id="tree-2" points="1130.75781 514.800781 1083.97852 675.724609 1127.38281 696.03125"></polygon></g><g fill="#523341"><rect id="tree-1" x="1344.42553" y="611.477387" width="4.84042553" height="16.5226131" rx="2.42021277"></rect></g><g fill="url(#linearGradient-1)"><polygon id="tree-1" points="1347.02402 491.551292 1378.79606 605.337881 1344.69024 616.317996"></polygon></g><g fill="url(#linearGradient-2)"><polygon id="tree-1" points="1347.02402 491.551292 1314.67663 602.338048 1344.69024 616.317996"></polygon></g><g fill="#3496E9" filter="url(#filter-20)" ry="29"><ellipse id="lamp-2" cx="1068.5" cy="808" rx="46.5"></ellipse></g><g fill="url(#linearGradient-21)"><path d="M1058,786.5 C1058,787.328427 1058.67157,788 1059.5,788 C1060.32843,788 1061,787.328427 1061,786.5 L1061,702.5 C1061,701.671573 1060.32843,701 1059.5,701 C1058.67157,701 1058,701.671573 1058,702.5 L1058,786.5 Z" id="lamp-2-post"></path></g><g fill="url(#linearGradient-22)"><path d="M1059.95302,700.359497 L1066.69531,700.359497 L1078.70087,706.686374 C1081.77959,708.632937 1081.42608,711.001698 1077.91866,711.975099 L1075.94462,712.522948 C1072.43389,713.497268 1067.46875,712.225952 1064.86343,709.691914 L1058.89336,703.885198 C1057.30942,702.344602 1059.95302,700.359497 1059.95302,700.359497 Z" id="lamp-2"></path></g><g fill="#3496E9" filter="url(#filter-23)"><path d="M415.5,813 C389.818759,813 369,800.016258 369,784 C369,767.983742 389.818759,755 415.5,755 C441.181241,755 462,767.983742 462,784 C462,800.016258 441.181241,813 415.5,813 L415.5,813 Z" id="lamp-1"></path></g><g fill="url(#linearGradient-21)"><path d="M423,762.5 C423,763.328427 423.671573,764 424.5,764 C425.328427,764 426,763.328427 426,762.5 L426,678.5 C426,677.671573 425.328427,677 424.5,677 C423.671573,677 423,677.671573 423,678.5 L423,762.5 Z" id="lamp-1-post"></path></g><g fill="url(#linearGradient-22)"><path d="M424.046981,676.359497 L417.304687,676.359497 L405.29913,682.686374 C402.220407,684.632937 402.573922,687.001698 406.081337,687.975099 L408.055382,688.522948 C411.566105,689.497268 416.53125,688.225952 419.136574,685.691914 L425.106642,679.885198 C426.690577,678.344602 424.046981,676.359497 424.046981,676.359497 L424.046981,676.359497 Z" id="lamp-1"></path></g></g>
</svg>
