<?xml version="1.0" encoding="utf-8"?>
<!-- Generator: Adobe Illustrator 16.0.0, SVG Export Plug-In . SVG Version: 6.00 Build 0)  -->
<!DOCTYPE svg PUBLIC "-//W3C//DTD SVG 1.1//EN" "http://www.w3.org/Graphics/SVG/1.1/DTD/svg11.dtd">
<svg version="1.1" id="Layer_1" xmlns="http://www.w3.org/2000/svg" xmlns:xlink="http://www.w3.org/1999/xlink" x="0px" y="0px"
	 width="118px" height="165px" viewBox="0 0 118 165" style="enable-background:new 0 0 118 165;" xml:space="preserve">
<style type="text/css">
<![CDATA[
	.st0{font-family:'OpenSans';}
	.st1{fill:#FFFFFF;}
	.st2{fill:#66A6D1;}
	.st3{font-size:26;}
]]>
</style>
<path class="st2" d="M59.6,118h-1.2C26.2,118,0,91.8,0,59.6v-1.2C0,26.2,26.2,0,58.4,0h1.2C91.8,0,118,26.2,118,58.4v1.2
	C118,91.8,91.8,118,59.6,118"/>
<text transform="matrix(1 0 0 1 9.1406 158)" class="st2 st0 st3">Request</text>
<polygon class="st1" points="61.3,56.7 86.8,56.7 86.8,61.5 61.3,61.5 61.3,86.8 56.5,86.8 56.5,61.5 31.2,61.5 31.2,56.7 
	56.5,56.7 56.5,31.2 61.3,31.2 "/>
</svg>
