<?xml version="1.0" encoding="utf-8"?>
<!-- Generator: Adobe Illustrator 16.0.0, SVG Export Plug-In . SVG Version: 6.00 Build 0)  -->
<!DOCTYPE svg PUBLIC "-//W3C//DTD SVG 1.1//EN" "http://www.w3.org/Graphics/SVG/1.1/DTD/svg11.dtd">
<svg version="1.1" id="Layer_1" xmlns="http://www.w3.org/2000/svg" xmlns:xlink="http://www.w3.org/1999/xlink" x="0px" y="0px"
	 width="51.2px" height="48.6px" viewBox="0 0 51.2 48.6" style="enable-background:new 0 0 51.2 48.6;" xml:space="preserve">
<style type="text/css">
<![CDATA[
	.st0{fill:none;}
	.st1{fill:#68A7CF;}
]]>
</style>
<line class="st0" x1="-49.4" y1="76.5" x2="-49.4" y2="-1257.5"/>
<line class="st0" x1="-49.4" y1="76.5" x2="-49.4" y2="-1257.5"/>
<line class="st0" x1="-49.4" y1="76.5" x2="-49.4" y2="-1257.5"/>
<polygon class="st1" points="42.8,46.5 33.3,46.5 33.3,31.7 18.5,31.7 18.5,46.5 9,46.5 9,26.4 6.9,26.4 6.9,48.6 20.6,48.6
	20.6,33.8 31.2,33.8 31.2,48.6 44.9,48.6 44.9,26.4 42.8,26.4 "/>
<polygon class="st1" points="27.6,1.5 27.6,1.5 26.1,0 16.4,9.8 16.4,2.1 14.3,2.1 14.3,11.9 0,26.1 1.5,27.6 26.1,3 49.7,27.6
	51.2,26.1 "/>
<line class="st0" x1="-49.4" y1="76.5" x2="-49.4" y2="-1257.5"/>
<line class="st0" x1="-49.4" y1="-1257.5" x2="-49.4" y2="76.5"/>
</svg>
