<?xml version="1.0" encoding="utf-8"?>
<!-- Generator: Adobe Illustrator 16.0.0, SVG Export Plug-In . SVG Version: 6.00 Build 0)  -->
<!DOCTYPE svg PUBLIC "-//W3C//DTD SVG 1.1//EN" "http://www.w3.org/Graphics/SVG/1.1/DTD/svg11.dtd">
<svg version="1.1" id="Layer_1" xmlns="http://www.w3.org/2000/svg" xmlns:xlink="http://www.w3.org/1999/xlink" x="0px" y="0px"
	 width="354.766px" height="308.264px" viewBox="153.708 265.644 354.766 308.264"
	 enable-background="new 153.708 265.644 354.766 308.264" xml:space="preserve">
<g>
	<g>
		<path fill="#FFFFFF" d="M383.907,306.525c-6.977-24.113-28.58-40.881-52.876-40.881c-23.991,0-45.35,16.34-52.632,39.963
			c-4.284,0.49-8.629,1.224-13.219,2.326l1.346,9.18c1.285,0,3.488,0.551,3.55,3.121c0.367,9.853,1.713,17.258,5.08,22.277
			c-1.041,0.857-1.714,1.836-2.02,2.938c0,0,4.162-0.123,4.59,0.428c0,0-6.242,11.383-5.263,18.789l3.733-2.326
			c0,0-2.203,17.993,1.714,23.562c0,0,3.06-4.651,3.794-5.263c0,0,2.876,17.503,5.386,20.931c0,0,2.325-3.488,3.427-4.284
			c0,0,1.285,11.139,6.67,17.503l2.326-3.978c0,0,5.753,14.198,4.345,20.931c0,0,4.345-3.611,4.345-4.774
			c0,0,0.551,7.772,9.73,12.057c0,0-0.184-3.488,0.734-4.468c0,0,9.181,8.079,4.162,13.525c0,0,6.548,1.041,8.629-4.835
			c2.081,5.814,8.629,4.835,8.629,4.835c-5.018-5.446,4.162-13.525,4.162-13.525c0.918,0.979,0.734,4.468,0.734,4.468
			c9.18-4.284,9.73-12.057,9.73-12.057c0,1.163,4.346,4.774,4.346,4.774c-1.469-6.732,4.345-20.931,4.345-20.931l2.326,3.978
			c5.386-6.364,6.671-17.503,6.671-17.503c1.102,0.796,3.427,4.284,3.427,4.284c2.509-3.488,5.386-20.931,5.386-20.931
			c0.734,0.673,3.794,5.263,3.794,5.263c3.979-5.63,1.714-23.562,1.714-23.562l3.733,2.326c0.918-7.405-5.264-18.789-5.264-18.789
			c0.429-0.489,4.59-0.428,4.59-0.428c-0.367-1.285-1.224-2.326-2.447-3.244c3.243-6.181,3.366-14.443,5.141-20.44
			c0.673-2.204,1.407-3.305,3.733-3.366l1.102-9.18C392.721,308.117,388.375,307.199,383.907,306.525z M330.97,269.132
			c22.338,0,42.228,15.055,49.205,36.904c-10.037-1.163-20.869-1.102-33.416,2.203c-5.018,1.285-10.832,2.631-16.034,2.509
			c-3.121-0.123-6.059-0.857-8.874-1.53c-13.525-3.244-26.071-5.08-39.841-3.978C289.231,283.82,308.938,269.132,330.97,269.132z
			 M340.272,337.676c-0.612,0.062-1.225,0.184-1.775,0.184l0,0c-2.815,0-2.081,2.448-7.466,2.448c-2.388,0-4.346-2.203-5.753-2.326
			c-0.918-0.061-2.999-0.184-2.999-0.184l0,0c-0.857-0.061-1.347-1.102-0.918-1.836c2.999-4.957,4.284-10.037,4.835-13.036
			c0.673-3.978,2.692-4.406,4.896-4.468c3.917-0.122,4.346,2.876,5.08,4.651c1.896,4.957,3.61,9.119,5.324,12.485
			C341.863,336.452,341.251,337.615,340.272,337.676z M271.605,313.809c-1.836,0-3.366-0.429-3.366-0.918
			c0-0.49,1.53-0.918,3.366-0.918s3.366,0.428,3.366,0.918C275.033,313.38,273.503,313.809,271.605,313.809z M295.535,347.407
			c-14.382,0-18.543-2.693-20.441-20.135c0-11.689-0.734-18.482,20.563-18.482c14.382,1.408,29.438,1.285,23.623,19.094
			C315.67,338.961,310.039,346.979,295.535,347.407z M349.452,361.361c-2.57,6.181-9.792,10.71-18.299,10.71
			c-8.568,0-15.851-4.468-18.421-10.71c-0.979-2.387,0.734-5.141,3.243-5.141h30.294
			C348.718,356.22,350.492,358.974,349.452,361.361z M387.273,327.272c-1.897,17.381-6.059,20.135-20.44,20.135
			c-14.505-0.428-20.135-8.446-23.746-19.461c-5.813-17.81,9.241-17.687,23.623-19.095
			C388.008,308.79,387.273,315.583,387.273,327.272z M390.945,314.665c-1.836,0-3.365-0.428-3.365-0.918
			c0-0.489,1.529-0.918,3.365-0.918s3.366,0.429,3.366,0.918C394.312,314.298,392.781,314.665,390.945,314.665z"/>
	</g>
</g>
<path fill="#FFFFFF" d="M179.928,453.038l18.176,0.307c0,0,13.525,5.019-0.796,9.485c0,0,22.338,4.162,0.184,10.037
	c0,0,17.197,7.038-4.039,9.058c0,0,11.261,4.468-0.306,6.916c0,0-42.779,4.161-39.229-20.809c0,0,7.099-33.17,37.148-17.074
	C191.005,450.896,197.431,453.772,179.928,453.038z"/>
<path fill="#FFFFFF" d="M482.256,452.732l-18.176,0.306c0,0-13.525,5.019,0.795,9.486c0,0-22.338,4.161-0.184,10.037
	c0,0-17.197,7.038,4.039,9.058c0,0-11.261,4.467,0.307,6.915c0,0,42.778,4.162,39.229-20.808c0,0-7.099-33.171-37.148-17.075
	C471.179,450.529,464.753,453.405,482.256,452.732z"/>
<path fill="#FFFFFF" d="M467.14,573.357c-1.102-32.681,25.826-86.781,25.826-86.781l-11.812-0.796
	c-30.906-21.175,6.182-40.453,6.182-40.453l-57.345-54.651l-43.819,6.426c8.996-1.591,17.993-17.136,17.993-17.136l-39.352,1.591
	c-1.102,5.875-24.174,19.033-24.174,19.033c0.856,0.184,1.652,0.429,2.509,0.674l54.835-2.571c0,0,48.349,19.278,85.436,48.226
	c0,0-33.722,20.869-2.265,39.658c0,0-39.78,26.01-37.944,61.995L467.14,573.357C467.14,573.419,467.14,573.357,467.14,573.357z"/>
<path fill="#FFFFFF" d="M318.852,401.631c0.796-0.307,1.652-0.49,2.51-0.674c0,0-23.073-13.097-24.174-19.033l-39.352-1.591
	c0,0,8.997,15.544,17.993,17.136l-43.88-6.426l-57.345,54.651c0,0,37.087,19.278,6.181,40.453l-11.812,0.796
	c0,0,26.989,54.101,25.827,86.781c0,0,0,0.062,0.122,0.184l23.746-24.725c2.02-36.169-37.944-62.24-37.944-62.24
	c31.457-18.728-2.265-39.658-2.265-39.658c37.087-28.947,85.436-48.226,85.436-48.226L318.852,401.631z"/>
<g>
	<circle fill="none" stroke="#FFFFFF" stroke-width="7" stroke-miterlimit="10" cx="270.32" cy="410.565" r="11.995"/>
	<circle fill="none" stroke="#FFFFFF" stroke-width="7" stroke-miterlimit="10" cx="272.769" cy="431.129" r="11.995"/>
	<circle fill="none" stroke="#FFFFFF" stroke-width="7" stroke-miterlimit="10" cx="285.926" cy="450.04" r="11.996"/>
	<circle fill="none" stroke="#FFFFFF" stroke-width="7" stroke-miterlimit="10" cx="305.694" cy="463.259" r="11.995"/>
</g>
<g>
	<circle fill="none" stroke="#FFFFFF" stroke-width="7" stroke-miterlimit="10" cx="391.68" cy="409.342" r="11.995"/>
	<circle fill="none" stroke="#FFFFFF" stroke-width="7" stroke-miterlimit="10" cx="389.171" cy="429.905" r="11.996"/>
	<circle fill="none" stroke="#FFFFFF" stroke-width="7" stroke-miterlimit="10" cx="376.013" cy="448.815" r="11.995"/>
	<circle fill="none" stroke="#FFFFFF" stroke-width="7" stroke-miterlimit="10" cx="356.245" cy="462.035" r="11.995"/>
</g>
</svg>
