<svg viewBox="0 0 100 100" version="1.1" xmlns="http://www.w3.org/2000/svg" xmlns:xlink="http://www.w3.org/1999/xlink">
    <g fill="none" fill-rule="evenodd">
        <path d="M24.2857143,39.7142857 L24.2857143,39.7142857 C24.2085714,25.5128 35.7985143,14 50,14 C64.2014857,14 75.7914286,25.5128 75.7142857,39.7142857 C75.6001143,60.8658286 50,86 50,86 C50,86 24.4009143,60.8658286 24.2857143,39.7142857 L24.2857143,39.7142857 Z" fill="#66B2A4"></path>
        <path d="M35.8571107,33.4287704 C37.7287417,27.2101253 43.5096666,22.8782051 50.0301876,22.8782051 C56.4601458,22.8782051 62.1806955,27.0893749 64.1277955,33.1872696 C65.2598304,33.30802 66.4371467,33.5042394 67.6597444,33.7910215 L67.2974932,36.1607479 C66.9503359,36.1607479 66.3616777,36.2965921 66.3465839,36.9607193 C66.2409273,39.4964774 65.8786762,41.4133899 64.988142,42.7114565 C65.2598304,42.9378635 65.4560498,43.1944581 65.5315188,43.4812403 C65.5315188,43.4812403 64.4145777,43.4510527 64.3089211,43.5868969 C64.3089211,43.5868969 65.969239,46.5150938 65.7126444,48.4320062 L64.7164537,47.8282543 C64.7164537,47.8282543 65.3051118,52.4620505 64.2485459,53.9110551 C64.2485459,53.9110551 63.4334808,52.718645 63.2372614,52.5526133 C63.2372614,52.5526133 62.4674777,57.0505652 61.7882567,57.9561932 C61.7882567,57.9561932 61.169411,57.065659 60.8826288,56.8392521 C60.8826288,56.8392521 60.5505652,59.7221676 59.1015606,61.3522979 L58.467621,60.3410134 C58.467621,60.3410134 56.9280536,63.9937126 57.3204923,65.7445933 C57.3204923,65.7445933 56.1582698,64.8087778 56.1582698,64.5069018 C56.1582698,64.5069018 56.0224257,66.4992832 53.5621365,67.6162243 C53.5621365,67.6162243 53.6074179,66.7256902 53.3659171,66.4690956 C53.3659171,66.4690956 50.9056279,68.5520398 52.2640698,69.9557631 C52.2640698,69.9557631 50.4980954,70.2123577 49.9547186,68.7029778 C49.3962481,70.2123577 47.6453674,69.9557631 47.6453674,69.9557631 C49.0038093,68.5520398 46.5435201,66.4690956 46.5435201,66.4690956 C46.3020193,66.7256902 46.3473007,67.6162243 46.3473007,67.6162243 C43.8870116,66.4992832 43.7511674,64.5069018 43.7511674,64.5069018 C43.7511674,64.8087778 42.5889449,65.7445933 42.5889449,65.7445933 C42.9813836,63.9937126 41.4418162,60.3410134 41.4418162,60.3410134 L40.8078766,61.3522979 C39.358872,59.7221676 39.0268084,56.8392521 39.0268084,56.8392521 C38.7400262,57.065659 38.1060867,57.9561932 38.1060867,57.9561932 C37.4419595,57.0505652 36.6721758,52.5526133 36.6721758,52.5526133 C36.4759564,52.718645 35.6608913,53.9110551 35.6608913,53.9110551 C34.6043254,52.4620505 35.1929835,47.8282543 35.1929835,47.8282543 L34.181699,48.4169124 C33.9251044,46.5 35.6005161,43.5718031 35.6005161,43.5718031 C35.4797657,43.4359589 34.3628246,43.4510527 34.3628246,43.4510527 C34.4533874,43.1189891 34.6797944,42.8473007 35.011858,42.6058 C34.1364176,41.0058573 34.1213238,38.8776317 33.6383223,37.3229704 C33.4571967,36.7644999 33.2609773,36.4626239 32.6421316,36.4475301 L32.3402556,34.0928975 C33.4873843,33.8363029 34.6647006,33.609896 35.8571107,33.4287704 M50.0301876,23.783833 C44.0530433,23.783833 38.7249324,27.6629393 36.8533014,33.30802 C39.5399975,32.9910502 42.4380069,33.0212378 45.7888302,33.8664905 C47.1472721,34.2136479 48.7019333,34.5608053 50.0905628,34.5155239 C50.9207217,34.4853363 51.7055992,34.2891169 52.4602892,34.1230851 C56.0828009,33.2778324 59.4487179,32.8099246 63.1316048,33.0967068 C61.1995986,27.5723765 55.9318629,23.783833 50.0301876,23.783833 M47.5397108,41.5039527 C47.7057426,41.5039527 47.8717744,41.5643278 48.0227124,41.5643278 L48.0227124,41.5643278 C48.7774023,41.5643278 48.5811829,42.1831736 50.0301876,42.1831736 C50.6641271,42.1831736 51.1773163,41.5945154 51.5697551,41.5794216 C51.8112558,41.549234 52.3848202,41.5190464 52.3848202,41.5190464 L52.3848202,41.5039527 C52.626321,41.4888589 52.7621652,41.2322643 52.626321,41.0209511 C51.8263496,39.7379782 51.4791923,38.4399115 51.3282543,37.655034 C51.1471287,36.6286557 50.6188457,36.5229991 50.0301876,36.5079053 C48.9736217,36.4777177 48.8528713,37.2475014 48.6717457,37.7154092 C48.1585566,38.9983821 47.7057426,40.0700418 47.2378348,40.9454821 C47.1170845,41.1718891 47.2680224,41.4888589 47.5397108,41.5039527 M65.9239576,35.3004014 C66.4220529,35.3004014 66.8295855,35.1947448 66.8295855,35.0739944 C66.8295855,34.9381502 66.4220529,34.8475874 65.9239576,34.8475874 C65.4258622,34.8475874 65.0183296,34.953244 65.0183296,35.0739944 C65.0183296,35.1947448 65.4258622,35.3004014 65.9239576,35.3004014 M59.5241869,43.9793356 C63.3731056,43.9793356 64.4900467,43.2699271 65.0032358,38.7870689 C65.0032358,35.7683092 65.1994552,34.0023347 59.4939993,34.0174285 C55.6450807,34.3947735 51.5999427,34.3494921 53.1546039,38.9531007 C54.120607,41.8058286 55.6299869,43.873679 59.5241869,43.9793356 M45.0794216,47.6622225 C45.7737364,49.2621652 47.7057426,50.3791063 49.9849062,50.3791063 C52.2791636,50.3791063 54.2262636,49.2772589 54.9205784,47.6773163 C55.1922667,47.0584705 54.724359,46.4094372 54.045138,46.4094372 L45.9397682,46.4094372 C45.275641,46.4094372 44.8077333,47.0433768 45.0794216,47.6622225 M34.9514828,38.7870689 C35.4646719,43.2699271 36.581613,43.9793356 40.4305317,43.9793356 C44.3096379,43.873679 45.8341116,41.8058286 46.7850209,38.9531007 C48.3547759,34.3494921 44.3096379,34.3947735 40.4607193,34.0174285 C34.7552634,34.0174285 34.9514828,35.7683092 34.9514828,38.7870689 M33.9854796,35.5268084 C34.483575,35.5268084 34.8760138,35.4362456 34.8760138,35.3004014 C34.8760138,35.179651 34.483575,35.0739944 33.9854796,35.0739944 C33.4873843,35.0739944 33.0798517,35.179651 33.0798517,35.3004014 C33.0798517,35.4362456 33.4873843,35.5268084 33.9854796,35.5268084" fill="#FFFFFF"></path>
    </g>
</svg>