<?xml version="1.0" encoding="utf-8"?>
<!-- Generator: Adobe Illustrator 17.1.0, SVG Export Plug-In . SVG Version: 6.00 Build 0)  -->
<!DOCTYPE svg PUBLIC "-//W3C//DTD SVG 1.1//EN" "http://www.w3.org/Graphics/SVG/1.1/DTD/svg11.dtd">
<svg version="1.1" id="Layer_1" xmlns="http://www.w3.org/2000/svg" xmlns:xlink="http://www.w3.org/1999/xlink" x="0px" y="0px"
	 viewBox="0 0 750.6 566.5" enable-background="new 0 0 750.6 566.5" xml:space="preserve">
<linearGradient id="SVGID_1_" gradientUnits="userSpaceOnUse" x1="375.3198" y1="566.4724" x2="375.3198" y2="-6.539267e-10">
	<stop  offset="0" style="stop-color:#FCD65E"/>
	<stop  offset="0.9643" style="stop-color:#EC995F"/>
	<stop  offset="1" style="stop-color:#EB975F"/>
</linearGradient>
<path fill="url(#SVGID_1_)" d="M750.6,427.9c0-32.4-26.3-58.7-58.7-58.7c-5.1,0-10.1,0.7-14.8,1.9c-6.6-11.9-18.3-20.5-32.2-22.8
	c0.1-1.3,0.2-2.7,0.2-4.1c0-17.8-10.2-33.2-25.1-40.7c0-0.9,0.1-1.7,0.1-2.6c0-33.1-26.8-60-60-60c-0.9,0-1.9,0-2.8,0.1
	c0-18.9-12.9-34.8-30.3-39.6c-3.8-18.8-20.4-32.9-40.3-32.9c-2.6,0-5.1,0.3-7.6,0.7c0.1-1,0.2-2,0.2-3.1c0-12.9-7.6-24-18.5-29.1
	c0.6-2.4,1-4.9,1-7.6c0-9.3-4.3-17.5-11-22.9c3.9-5,6.3-11.3,6.3-18.2c0-5-1.3-9.8-3.5-13.9c2.2-4.2,3.5-8.9,3.5-13.9
	c0-16.3-13.2-29.4-29.4-29.4c-2.9,0-5.8,0.4-8.5,1.2c0.1-0.9,0.1-1.8,0.1-2.8c0-16.3-13.2-29.4-29.4-29.4c-4.5,0-8.7,1-12.5,2.8
	c-3.8-1.8-8-2.8-12.5-2.8c-16.3,0-29.4,13.2-29.4,29.4c0,2.3,0.3,4.5,0.8,6.6c-7.8,5.3-12.9,14.2-12.9,24.3c0,0.2,0,0.4,0,0.6
	c-10.8,4.3-18.5,14.9-18.5,27.3c0,5.5,1.5,10.6,4.1,14.9c-9.5,4.9-16,14.8-16,26.2c0,2.6,0.3,5.1,1,7.6
	c-10.9,5.1-18.5,16.2-18.5,29.1c0,1,0.1,2.1,0.2,3.1c-2.5-0.5-5-0.7-7.6-0.7c-19.9,0-36.5,14.1-40.3,32.9
	c-17.5,4.7-30.3,20.7-30.3,39.6c0,8.9,2.8,17.2,7.7,23.9c-14.9,9.1-24.8,25.5-24.8,44.2c0,5,0.7,9.9,2.1,14.5
	c-0.7,0-1.4-0.1-2.1-0.1c-19.3,0-35.7,11.9-42.4,28.8c-6.1-3.1-13-4.8-20.4-4.8c-17.5,0-32.6,9.8-40.3,24.2
	c-5.5-1.7-11.3-2.6-17.4-2.6c-32.3,0-58.5,26.1-58.7,58.4l-1,0.3L0,565.5l750,1V436.5C750.4,433.7,750.6,430.8,750.6,427.9z
	 M347.7,114.5c0.1,0,0.2-0.1,0.2-0.1l-0.1,0.4C347.8,114.7,347.8,114.6,347.7,114.5z M323.3,194L323.3,194L323.3,194L323.3,194z"/>
<path opacity="0.3" fill="#ECBF91" d="M750.6,427.9c0-32.4-26.3-58.7-58.7-58.7c-5.1,0-10.1,0.7-14.8,1.9
	c-6.6-11.9-18.3-20.5-32.2-22.8c0.1-1.3,0.2-2.7,0.2-4.1c0-17.8-10.2-33.2-25.1-40.7c0-0.9,0.1-1.7,0.1-2.6c0-33.1-26.8-60-60-60
	c-0.9,0-1.9,0-2.8,0.1c0-18.9-12.9-34.8-30.3-39.6c-3.8-18.8-20.4-32.9-40.3-32.9c-2.6,0-5.1,0.3-7.6,0.7c0.1-1,0.2-2,0.2-3.1
	c0-12.9-7.6-24-18.5-29.1c0.6-2.4,1-4.9,1-7.6c0-9.3-4.3-17.5-11-22.9c3.9-5,6.3-11.3,6.3-18.2c0-5-1.3-9.8-3.5-13.9
	c2.2-4.2,3.5-8.9,3.5-13.9c0-16.3-13.2-29.4-29.4-29.4c-2.9,0-5.8,0.4-8.5,1.2c0.1-0.9,0.1-1.8,0.1-2.8c0-16.3-13.2-29.4-29.4-29.4
	c-4.5,0-8.7,1-12.5,2.8c-3.8-1.8-8-2.8-12.5-2.8c-16.3,0-29.4,13.2-29.4,29.4c0,2.3,0.3,4.5,0.8,6.6c-7.8,5.3-12.9,14.2-12.9,24.3
	c0,0.2,0,0.4,0,0.6c-10.8,4.3-18.5,14.9-18.5,27.3c0,5.5,1.5,10.6,4.1,14.9c-9.5,4.9-16,14.8-16,26.2c0,2.6,0.3,5.1,1,7.6
	c-10.9,5.1-18.5,16.2-18.5,29.1c0,1,0.1,2.1,0.2,3.1c-2.5-0.5-5-0.7-7.6-0.7c-19.9,0-36.5,14.1-40.3,32.9
	c-17.5,4.7-30.3,20.7-30.3,39.6c0,8.9,2.8,17.2,7.7,23.9c-14.9,9.1-24.8,25.5-24.8,44.2c0,5,0.7,9.9,2.1,14.5
	c-0.7,0-1.4-0.1-2.1-0.1c-19.3,0-35.7,11.9-42.4,28.8c-6.1-3.1-13-4.8-20.4-4.8c-17.5,0-32.6,9.8-40.3,24.2
	c-5.5-1.7-11.3-2.6-17.4-2.6c-32.3,0-58.5,26.1-58.7,58.4l-1,0.3L0,565.5l750,1V436.5C750.4,433.7,750.6,430.8,750.6,427.9z
	 M347.7,114.5c0.1,0,0.2-0.1,0.2-0.1l-0.1,0.4C347.8,114.7,347.8,114.6,347.7,114.5z M323.3,194L323.3,194L323.3,194L323.3,194z"/>
<path opacity="0.6" fill="#F9F5C3" d="M750.6,427.9c0-32.4-26.3-58.7-58.7-58.7c-5.1,0-10.1,0.7-14.8,1.9
	c-6.6-11.9-18.3-20.5-32.2-22.8c0.1-1.3,0.2-2.7,0.2-4.1c0-17.8-10.2-33.2-25.1-40.7c0-0.9,0.1-1.7,0.1-2.6c0-33.1-26.8-60-60-60
	c-0.9,0-1.9,0-2.8,0.1c0-18.9-12.9-34.8-30.3-39.6c-3.8-18.8-20.4-32.9-40.3-32.9c-2.6,0-5.1,0.3-7.6,0.7c0.1-1,0.2-2,0.2-3.1
	c0-12.9-7.6-24-18.5-29.1c0.6-2.4,1-4.9,1-7.6c0-9.3-4.3-17.5-11-22.9c3.9-5,6.3-11.3,6.3-18.2c0-5-1.3-9.8-3.5-13.9
	c2.2-4.2,3.5-8.9,3.5-13.9c0-16.3-13.2-29.4-29.4-29.4c-2.9,0-5.8,0.4-8.5,1.2c0.1-0.9,0.1-1.8,0.1-2.8c0-16.3-13.2-29.4-29.4-29.4
	c-4.5,0-8.7,1-12.5,2.8c-3.8-1.8-8-2.8-12.5-2.8c-16.3,0-29.4,13.2-29.4,29.4c0,2.3,0.3,4.5,0.8,6.6c-7.8,5.3-12.9,14.2-12.9,24.3
	c0,0.2,0,0.4,0,0.6c-10.8,4.3-18.5,14.9-18.5,27.3c0,5.5,1.5,10.6,4.1,14.9c-9.5,4.9-16,14.8-16,26.2c0,2.6,0.3,5.1,1,7.6
	c-10.9,5.1-18.5,16.2-18.5,29.1c0,1,0.1,2.1,0.2,3.1c-2.5-0.5-5-0.7-7.6-0.7c-19.9,0-36.5,14.1-40.3,32.9
	c-17.5,4.7-30.3,20.7-30.3,39.6c0,8.9,2.8,17.2,7.7,23.9c-14.9,9.1-24.8,25.5-24.8,44.2c0,5,0.7,9.9,2.1,14.5
	c-0.7,0-1.4-0.1-2.1-0.1c-19.3,0-35.7,11.9-42.4,28.8c-6.1-3.1-13-4.8-20.4-4.8c-17.5,0-32.6,9.8-40.3,24.2
	c-5.5-1.7-11.3-2.6-17.4-2.6c-32.3,0-58.5,26.1-58.7,58.4l-1,0.3L0,565.5l750,1V436.5C750.4,433.7,750.6,430.8,750.6,427.9z
	 M347.7,114.5c0.1,0,0.2-0.1,0.2-0.1l-0.1,0.4C347.8,114.7,347.8,114.6,347.7,114.5z M323.3,194L323.3,194L323.3,194L323.3,194z"/>
</svg>
