<?xml version="1.0" encoding="utf-8"?>
<!-- Generator: Adobe Illustrator 17.1.0, SVG Export Plug-In . SVG Version: 6.00 Build 0)  -->
<!DOCTYPE svg PUBLIC "-//W3C//DTD SVG 1.1//EN" "http://www.w3.org/Graphics/SVG/1.1/DTD/svg11.dtd">
<svg version="1.1" id="Layer_1" xmlns="http://www.w3.org/2000/svg" xmlns:xlink="http://www.w3.org/1999/xlink" x="0px" y="0px"
	 viewBox="0 0 218 460.6" enable-background="new 0 0 218 460.6" xml:space="preserve">
<g>
	
		<line fill="none" stroke="#FFFFFF" stroke-width="3" stroke-linecap="round" stroke-miterlimit="10" x1="123.2" y1="273.7" x2="95.8" y2="273.7"/>
	
		<line fill="none" stroke="#FFFFFF" stroke-width="3" stroke-linecap="round" stroke-miterlimit="10" x1="123.2" y1="284.2" x2="95.8" y2="284.2"/>
	
		<line fill="none" stroke="#FFFFFF" stroke-width="3" stroke-linecap="round" stroke-miterlimit="10" x1="123.2" y1="294.7" x2="95.8" y2="294.7"/>
	
		<line fill="none" stroke="#FFFFFF" stroke-width="3" stroke-linecap="round" stroke-miterlimit="10" x1="123.2" y1="305.2" x2="95.8" y2="305.2"/>
</g>
<path fill="#F6F7F8" d="M87.5,275.9h-1.8c-0.7,0-1.3-0.7-1.3-1.5v-1.6c0-0.8,0.6-1.5,1.3-1.5h1.8c0.7,0,1.3,0.7,1.3,1.5v1.6
	C88.8,275.3,88.2,275.9,87.5,275.9z"/>
<path fill="#F6F7F8" d="M87.5,286.4h-1.8c-0.7,0-1.3-0.7-1.3-1.5v-1.6c0-0.8,0.6-1.5,1.3-1.5h1.8c0.7,0,1.3,0.7,1.3,1.5v1.6
	C88.8,285.7,88.2,286.4,87.5,286.4z"/>
<path fill="#F6F7F8" d="M87.5,296.7h-1.8c-0.7,0-1.3-0.7-1.3-1.5v-1.6c0-0.8,0.6-1.5,1.3-1.5h1.8c0.7,0,1.3,0.7,1.3,1.5v1.6
	C88.8,296.1,88.2,296.7,87.5,296.7z"/>
<path fill="#F6F7F8" d="M87.5,307.4h-1.8c-0.7,0-1.3-0.7-1.3-1.5v-1.6c0-0.8,0.6-1.5,1.3-1.5h1.8c0.7,0,1.3,0.7,1.3,1.5v1.6
	C88.8,306.8,88.2,307.4,87.5,307.4z"/>
<path fill="#3A7D70" d="M29.2,310.9c0,0-50.1,69.3-19,139.3L56.3,401"/>
<path fill="#3A7D70" d="M188.8,310.9c0,0,50.1,69.3,19,139.3L161.6,401"/>
<linearGradient id="SVGID_1_" gradientUnits="userSpaceOnUse" x1="108.3492" y1="429.5795" x2="108.3492" y2="407.1473">
	<stop  offset="0" style="stop-color:#FFFFFF"/>
	<stop  offset="1" style="stop-color:#C4C4C4"/>
</linearGradient>
<path fill="url(#SVGID_1_)" d="M147.5,425.1c0,2.5-1.3,4.5-3,4.5H72.2c-1.7,0-3-2-3-4.5l-2-13.4c0-2.5,1.3-4.5,3-4.5h76.4
	c1.7,0,3,2,3,4.5L147.5,425.1z"/>
<path opacity="0.5" fill="#92CDEC" d="M147.5,425.1c0,2.5-1.3,4.5-3,4.5H72.2c-1.7,0-3-2-3-4.5l-2-13.4c0-2.5,1.3-4.5,3-4.5h76.4
	c1.7,0,3,2,3,4.5L147.5,425.1z"/>
<path fill="#68B2A4" d="M194.9,193.9h0.2c0,0-0.1-14.3-2.8-34.5c0,0,0-0.1,0-0.1h0c-6-45.9-24.7-144.2-83.7-151.8
	c-84.9,11-86.5,186.4-86.5,186.4h0.2c-2,49.4,0.3,142.5,38.6,216.2h47.7V193.9h0l0,216.2h47.7C194.5,336.5,196.9,243.4,194.9,193.9z
	"/>
<path fill="#3A7D70" d="M50,57.3c0,0,23.3-52.4,58.5-57.3v57.3"/>
<path fill="#3A7D70" d="M164.9,57.3c0,0-21.1-52.4-56.3-57.3l-2.2,57.3"/>
<path fill="#3A7D70" d="M110.5,445.5c0,2.3,0.2,15.1-2.1,15.1l0,0c-2.3,0-2.1-12.8-2.1-15.1l-2-135.9c0-2.3,1.8-4.1,4.1-4.1l0,0
	c2.3,0,4.1,1.8,4.1,4.1L110.5,445.5z"/>
<path fill="none" d="M151.1,152.2"/>
<path fill="none" d="M133.1,152.2"/>
<path fill="none" d="M150.5,147.3"/>
<path fill="none" d="M141.7,142.4"/>
<circle fill="#999DBF" stroke="#DEDEDD" stroke-width="3" stroke-miterlimit="10" cx="109.3" cy="236.3" r="39.8"/>
<g>
	<defs>
		<path id="SVGID_2_" d="M194.7,193.8h0.2c0,0-0.1-14.3-2.8-34.5c0,0,0-0.1,0-0.1h0c-6-45.9-24.7-144.2-83.7-151.8
			C23.5,18.3,22,193.8,22,193.8h0.2c-2,49.4,0.3,142.5,38.6,216.2h47.7V193.8h0l0,216.2h47.7C194.4,336.3,196.8,243.2,194.7,193.8z"
			/>
	</defs>
	<clipPath id="SVGID_3_">
		<use xlink:href="#SVGID_2_"  overflow="visible"/>
	</clipPath>
	<rect x="28.2" y="98.9" clip-path="url(#SVGID_3_)" fill="#D0E0E2" width="161.6" height="4.7"/>
	<rect x="28.2" y="57.1" clip-path="url(#SVGID_3_)" fill="#ADBEC2" width="161.6" height="2.4"/>
</g>
<g>
	<circle fill="#FFFFFF" cx="100.7" cy="231" r="1.1"/>
	<path fill="#FFFFFF" d="M124.7,225.7c-0.4-7.9-6.9-14.1-14.8-14.1c-7.9,0-14.3,6.1-14.8,13.9c-0.8,0.1-1.7,0.3-2.6,0.5l0.4,2.3
		c0.3,0,0.9,0.1,0.9,0.8c0.1,2.5,0.5,4.4,1.3,5.6c-0.3,0.2-0.5,0.5-0.5,0.7c0,0,1.1,0,1.2,0.1c0,0-1.6,2.9-1.4,4.8l1-0.6
		c0,0-0.6,4.6,0.5,6c0,0,0.8-1.2,1-1.3c0,0,0.8,4.4,1.4,5.3c0,0,0.6-0.9,0.9-1.1c0,0,0.3,2.8,1.8,4.4l0.6-1c0,0,1.5,3.6,1.1,5.3
		c0,0,1.1-0.9,1.1-1.2c0,0,0.1,2,2.6,3.1c0,0,0-0.9,0.2-1.1c0,0,2.4,2.1,1.1,3.4c0,0,1.7,0.3,2.3-1.2c0.5,1.5,2.3,1.2,2.3,1.2
		c-1.3-1.4,1.1-3.4,1.1-3.4c0.2,0.3,0.2,1.1,0.2,1.1c2.4-1.1,2.6-3.1,2.6-3.1c0,0.3,1.1,1.2,1.1,1.2c-0.4-1.7,1.1-5.3,1.1-5.3l0.6,1
		c1.4-1.6,1.8-4.4,1.8-4.4c0.3,0.2,0.9,1.1,0.9,1.1c0.7-0.9,1.4-5.3,1.4-5.3c0.2,0.2,1,1.3,1,1.3c1-1.4,0.5-6,0.5-6l1,0.6
		c0.3-1.9-1.4-4.8-1.4-4.8c0.1-0.1,1.2-0.1,1.2-0.1c-0.1-0.3-0.3-0.6-0.6-0.8c0.9-1.6,0.9-3.7,1.4-5.2c0.2-0.6,0.4-0.8,1-0.9
		l0.3-2.3C126.4,226,125.6,225.8,124.7,225.7z M109.8,213c7.1,0,12.9,5.5,13.4,12.5c-2.8-0.4-5.7-0.4-9.2,0.5
		c-1.3,0.3-2.9,0.7-4.2,0.6c-0.8,0-1.6-0.2-2.3-0.4c-3.7-0.9-7.2-1.3-11-1C97.1,218.4,102.8,213,109.8,213z M100.5,226.1
		c3.8,0.4,7.8,0.3,6.3,4.9c-1,2.8-2.4,4.9-6.3,5c-3.8,0-4.9-0.7-5.4-5.1C95.1,227.9,94.9,226.1,100.5,226.1z M111.8,233.5
		L111.8,233.5c-1.6,0.1-2.8,0.1-3.5,0c-0.2,0-0.5,0-0.8-0.1c0,0,0,0,0,0l0,0c-0.2,0-0.3,0-0.5,0c1-1.4,1.4-2.9,1.5-3.7
		c0.2-1,0.7-1.1,1.3-1.1c1,0,1.2,0.7,1.3,1.2c0.6,1.5,1.1,2.7,1.7,3.6C112.5,233.4,112.1,233.5,111.8,233.5z M94.2,227.4
		c-0.5,0-0.9-0.1-0.9-0.2c0-0.1,0.4-0.2,0.9-0.2s0.9,0.1,0.9,0.2C95,227.3,94.6,227.4,94.2,227.4z M109.8,244c-2.8,0-5-2.1-5.2-4.8
		c0.7-0.1,1.5-0.3,1.8-0.7c0,0,0.4,0.6,0.4,1.2c0,0,0.7-0.5,1.4-1.2c0,0,0.7,0.9,0.7,1.1c0,0,1.4-0.8,1.5-1.1c0,0,0.7,1,1.7,0.9
		c0,0,0.3-0.5,0.6-0.9c0,0,0.6,0.7,1.5,0.6c0,0,0.1-0.8,0.2-0.9c0,0,0.2,0,0.5,0.1c0.1,0.2,0.2,0.4,0.2,0.6
		C115.1,241.6,112.7,244,109.8,244z M124.7,230.8c-0.5,4.4-1.6,5.1-5.4,5.1c-3.8-0.1-5.3-2.1-6.3-5c-1.5-4.5,2.5-4.5,6.3-4.9
		C124.9,226.1,124.7,227.9,124.7,230.8z M125.7,227.6c-0.5,0-0.9-0.1-0.9-0.2c0-0.1,0.4-0.2,0.9-0.2c0.5,0,0.9,0.1,0.9,0.2
		C126.6,227.5,126.2,227.6,125.7,227.6z"/>
	<path fill="#FFFFFF" d="M105.8,220.5c0,0,0.5,0.1,1.3,0.2c0.2,0,0.4,0.1,0.6,0.1c0.2,0,0.5,0,0.7,0.1c0.2,0,0.5,0,0.7,0
		c0.1,0,0.3,0,0.4,0c0.1,0,0.3,0,0.4,0c0.3,0,0.5,0,0.8,0c0.3,0,0.5,0,0.7-0.1c0.2,0,0.5-0.1,0.7-0.1c0.2,0,0.4,0,0.6-0.1
		c0.2,0,0.4,0,0.5-0.1c0.2,0,0.3,0,0.4-0.1c0.2,0,0.4,0,0.4,0l0,0c0,0-0.1,0.1-0.3,0.1c-0.1,0-0.2,0.1-0.4,0.1
		c-0.2,0-0.3,0.1-0.5,0.1c-0.1,0-0.2,0-0.3,0.1c-0.1,0-0.2,0-0.3,0.1c-0.2,0-0.5,0.1-0.7,0.1c-0.2,0-0.5,0-0.8,0c-0.3,0-0.5,0-0.8,0
		c-0.1,0-0.3,0-0.4,0c-0.1,0-0.3,0-0.4,0c-0.3,0-0.5,0-0.8-0.1c-0.2,0-0.5-0.1-0.7-0.1c-0.2,0-0.4-0.1-0.6-0.1
		C106.3,220.7,105.8,220.6,105.8,220.5L105.8,220.5z"/>
	<path fill="#FFFFFF" d="M114,219.1c0,0-0.5,0.1-1.3,0.2c-0.4,0.1-0.8,0.1-1.3,0.2c-0.2,0-0.5,0-0.8,0.1c-0.3,0-0.5,0-0.8,0
		c-0.3,0-0.5,0-0.8,0c-0.3,0-0.5,0-0.8,0c-0.2,0-0.5-0.1-0.7-0.1c-0.2,0-0.4-0.1-0.6-0.1c-0.1,0-0.2,0-0.3-0.1
		c-0.1,0-0.2-0.1-0.2-0.1c-0.1,0-0.1-0.1-0.2-0.1c-0.1,0-0.1-0.1-0.2-0.1c-0.2-0.1-0.3-0.2-0.3-0.2l0,0c0,0,0.1,0,0.3,0.1
		c0.1,0,0.1,0,0.2,0c0.1,0,0.1,0,0.2,0c0.2,0,0.3,0.1,0.5,0.1c0.1,0,0.2,0,0.3,0c0.1,0,0.2,0,0.3,0c0.2,0,0.4,0,0.7,0.1
		c0.2,0,0.5,0,0.7,0.1c0.3,0,0.5,0,0.8,0c0.3,0,0.5,0,0.8,0c0.3,0,0.5,0,0.7,0c0.2,0,0.5,0,0.7,0c0.2,0,0.4,0,0.6,0
		C113.4,219.2,114,219.1,114,219.1L114,219.1z"/>
	<path fill="#FFFFFF" d="M116.3,231c0,0,0.1-0.1,0.2-0.2c0.1-0.1,0.1-0.2,0.2-0.3c0.1-0.1,0.2-0.2,0.3-0.3c0.1-0.1,0.1-0.1,0.2-0.2
		c0.1-0.1,0.2-0.1,0.2-0.2c0,0,0.1-0.1,0.1-0.1c0,0,0.1,0,0.1-0.1c0.1,0,0.2-0.1,0.3-0.1c0.1,0,0.2-0.1,0.3-0.1c0.1,0,0.2,0,0.3-0.1
		l0.2,0c0.1,0,0.1,0,0.2,0c0.1,0,0.2,0,0.3,0c0.1,0,0.2,0,0.3,0c0.1,0,0.2,0,0.3,0c0.1,0,0.2,0,0.3,0.1c0.1,0,0.2,0,0.3,0.1
		c0.2,0.1,0.4,0.2,0.6,0.3c0.2,0.1,0.3,0.2,0.4,0.3c0.1,0.1,0.1,0.1,0.2,0.2c0.1,0.1,0.1,0.1,0.2,0.2c0.1,0.1,0.2,0.2,0.2,0.3
		c0.1,0.2,0.2,0.2,0.2,0.2l0,0.1c0,0-0.1,0-0.3-0.1c-0.1,0-0.2-0.1-0.3-0.1c-0.1,0-0.1-0.1-0.2-0.1c-0.1,0-0.1-0.1-0.2-0.1
		c-0.1-0.1-0.3-0.1-0.5-0.2c-0.2-0.1-0.3-0.1-0.5-0.2c-0.1,0-0.2-0.1-0.3-0.1c-0.1,0-0.2-0.1-0.3-0.1c-0.1,0-0.2-0.1-0.3-0.1
		c-0.1,0-0.2,0-0.3-0.1l-0.3,0c0,0-0.1,0-0.1,0l-0.1,0c-0.1,0-0.2,0-0.3,0c-0.1,0-0.2,0-0.3,0.1c-0.1,0-0.2,0.1-0.3,0.1
		c0,0-0.1,0-0.1,0c0,0-0.1,0-0.1,0.1c-0.1,0-0.2,0.1-0.2,0.1c-0.1,0-0.1,0.1-0.2,0.1c-0.1,0.1-0.3,0.2-0.4,0.2
		c-0.1,0.1-0.2,0.2-0.3,0.2C116.5,231,116.4,231.1,116.3,231L116.3,231z"/>
</g>
</svg>
