<?xml version="1.0" encoding="utf-8"?>
<!-- Generator: Adobe Illustrator 16.0.0, SVG Export Plug-In . SVG Version: 6.00 Build 0)  -->
<!DOCTYPE svg PUBLIC "-//W3C//DTD SVG 1.1//EN" "http://www.w3.org/Graphics/SVG/1.1/DTD/svg11.dtd">
<svg version="1.1" id="Layer_1" xmlns="http://www.w3.org/2000/svg" xmlns:xlink="http://www.w3.org/1999/xlink" x="0px" y="0px"
	 width="41.7px" height="41.5px" viewBox="0 0 41.7 41.5" style="enable-background:new 0 0 41.7 41.5;" xml:space="preserve">
<style type="text/css">
<![CDATA[
	.st0{fill:none;stroke:#FFFFFF;stroke-width:1.5;stroke-miterlimit:10;}
]]>
</style>
<path class="st0" d="M41,23.4v-5.3l-6.5-1.3c-0.3-1-0.7-1.9-1.2-2.8L37,8.5l-3.8-3.7l-5.5,3.6c-0.9-0.5-1.8-0.9-2.8-1.2l-1.3-6.4
	h-5.3l-1.3,6.4c-1,0.3-1.9,0.7-2.8,1.2L8.5,4.7L4.8,8.5L8.4,14c-0.5,0.9-0.9,1.8-1.2,2.8l-6.5,1.3v5.3l6.5,1.3
	c0.3,1,0.7,1.9,1.2,2.8L4.8,33l3.8,3.7l5.5-3.6c0.9,0.5,1.8,0.9,2.8,1.2l1.3,6.4h5.3l1.3-6.4c1-0.3,1.9-0.7,2.8-1.2l5.5,3.6L37,33
	l-3.6-5.5c0.5-0.9,0.9-1.8,1.2-2.8L41,23.4z"/>
<ellipse class="st0" cx="20.9" cy="20.7" rx="6.9" ry="6.9"/>
</svg>
