<?xml version="1.0" encoding="utf-8"?>
<!-- Generator: Adobe Illustrator 16.0.0, SVG Export Plug-In . SVG Version: 6.00 Build 0)  -->
<!DOCTYPE svg PUBLIC "-//W3C//DTD SVG 1.1//EN" "http://www.w3.org/Graphics/SVG/1.1/DTD/svg11.dtd">
<svg version="1.1" id="Layer_1" xmlns="http://www.w3.org/2000/svg" xmlns:xlink="http://www.w3.org/1999/xlink" x="0px" y="0px"
	 width="150px" height="150px" viewBox="0 0 150 150" style="enable-background:new 0 0 150 150;" xml:space="preserve">
<style type="text/css">
<![CDATA[
	.st0{fill:#E4753B;}
	.st1{fill:#FFFFFF;}
]]>
</style>
<path class="st0" d="M75.8,150h-1.5C33.2,150,0,116.8,0,75.8v-1.5C0,33.2,33.2,0,74.2,0h1.5c41,0,74.2,33.2,74.2,74.2v1.5
	C150,116.8,116.8,150,75.8,150"/>
<path class="st1" d="M61.4,121.3c1.6,0,2.8-1.1,2.8-2.6l-0.1-1.4L62,72c0-2.2,1.7-4.1,3.9-4.5l0,0c2.2-0.3,3.9-2.2,3.9-4.5V35.6
	v-0.1v-4.7c0-1.2-1-2.2-2.2-2.2c-1.2,0-2.2,1-2.2,2.2v1.7v19.9c0,1.2-0.8,2.3-2,2.3c-1.2,0-2.4-1-2.4-2.3l-0.2-18.2v-3.4
	c0-1.2-0.4-2.2-1.6-2.2h-1.1c-1.2,0-1.6,1-1.6,2.2v3.4L56,52.5c0,1.2-1.2,2.3-2.4,2.3c-1.2,0-2-1-2-2.3V32.6v-1.7
	c0-1.2-1-2.2-2.2-2.2c-1.2,0-2.2,1-2.2,2.2v4.7v0.1v27.4c0,2.3,1.7,4.2,3.9,4.5l0,0c2.2,0.4,3.9,2.3,3.9,4.5l-2.2,45.2l-0.1,1.4
	c0,1.6,1.3,2.6,2.9,2.6"/>
<path class="st1" d="M102.8,117.3l-2.6-87.3c0-0.6-0.5-1-1.1-1c-5.5,0.4-10,4.8-10.1,10.4l-0.5,41.4l6,0.1l-2.2,36.4l-0.1,1.4
	c0,1.6,1.2,2.6,2.8,2.6l5,0c1.6,0,2.8-1,2.8-2.6L102.8,117.3z"/>
</svg>
