<?xml version="1.0" encoding="utf-8"?>
<!-- Generator: Adobe Illustrator 16.0.0, SVG Export Plug-In . SVG Version: 6.00 Build 0)  -->
<!DOCTYPE svg PUBLIC "-//W3C//DTD SVG 1.1//EN" "http://www.w3.org/Graphics/SVG/1.1/DTD/svg11.dtd">
<svg version="1.1" id="Layer_1" xmlns="http://www.w3.org/2000/svg" xmlns:xlink="http://www.w3.org/1999/xlink" x="0px" y="0px"
	 width="150px" height="150px" viewBox="0 0 150 150" style="enable-background:new 0 0 150 150;" xml:space="preserve">
<style type="text/css">
<![CDATA[
	.st0{fill:#E2B15A;}
	.st1{fill:#FFFFFF;}
]]>
</style>
<path class="st0" d="M75.8,150h-1.5C33.2,150,0,116.8,0,75.8v-1.5C0,33.2,33.2,0,74.2,0h1.5c41,0,74.2,33.2,74.2,74.2v1.5
	C150,116.8,116.8,150,75.8,150"/>
<path class="st1" d="M110.6,42.4c-4.7-15.6-19.2-26.5-35.6-26.5c-16.2,0-30.6,10.6-35.4,25.9c-2.9,0.3-5.8,0.8-8.9,1.5l0.9,5.9
	c0.9,0,2.3,0.3,2.4,2c0.3,6.4,1.2,11.2,3.4,14.5c-0.7,0.6-1.2,1.2-1.4,1.9c0,0,2.8-0.1,3.1,0.3c0,0-4.2,7.4-3.6,12.2l2.5-1.5
	c0,0-1.5,11.6,1.2,15.3c0,0,2.1-3,2.5-3.4c0,0,1.9,11.3,3.6,13.6c0,0,1.6-2.2,2.3-2.8c0,0,0.8,7.2,4.5,11.3l1.6-2.6
	c0,0,3.9,9.2,2.9,13.6c0,0,2.9-2.4,2.9-3.1c0,0,0.4,5,6.5,7.8c0,0-0.1-2.2,0.5-2.9c0,0,6.2,5.2,2.8,8.8c0,0,4.4,0.7,5.8-3.1
	c1.4,3.8,5.8,3.1,5.8,3.1c-3.4-3.5,2.8-8.8,2.8-8.8c0.6,0.6,0.5,2.9,0.5,2.9c6.2-2.8,6.5-7.8,6.5-7.8c0,0.7,2.9,3.1,2.9,3.1
	c-1-4.4,2.9-13.6,2.9-13.6l1.6,2.6c3.6-4.1,4.5-11.3,4.5-11.3c0.7,0.5,2.3,2.8,2.3,2.8c1.7-2.2,3.6-13.6,3.6-13.6
	c0.5,0.4,2.5,3.4,2.5,3.4c2.7-3.6,1.2-15.3,1.2-15.3l2.5,1.5c0.6-4.8-3.5-12.2-3.5-12.2c0.3-0.3,3.1-0.3,3.1-0.3
	c-0.2-0.8-0.8-1.5-1.6-2.1c2.2-4,2.2-9.4,3.5-13.3c0.4-1.4,0.9-2.2,2.5-2.2l0.7-5.9C116.5,43.4,113.6,42.8,110.6,42.4 M74.9,18.2
	c15,0,28.4,9.7,33.1,23.9c-6.8-0.8-14-0.7-22.5,1.4c-3.4,0.9-7.3,1.7-10.8,1.6c-2.1-0.1-4.1-0.6-6-1C59.7,42,51.2,40.8,42,41.5
	C46.8,27.7,60.1,18.2,74.9,18.2 M81.2,62.7c-0.4,0-0.8,0.2-1.2,0.2h0c-1.9,0-1.4,1.5-5,1.5c-1.6,0-2.9-1.5-3.9-1.5
	c-0.6,0-2-0.2-2-0.2c0,0,0,0,0,0c-0.6,0-0.9-0.7-0.6-1.2c2-3.2,2.9-6.5,3.3-8.5c0.5-2.6,1.8-2.9,3.3-2.9c2.6-0.1,2.9,1.9,3.4,3
	c1.3,3.2,2.4,6,3.6,8.1C82.3,61.8,81.9,62.6,81.2,62.7 M35,47.1c-1.3,0-2.3-0.3-2.3-0.6s1-0.6,2.3-0.6c1.3,0,2.3,0.3,2.3,0.6
	C37.2,46.8,36.2,47.1,35,47.1 M51,68.9c-9.7,0-12.5-1.8-13.8-13c0-7.6-0.5-12,13.9-12c9.7,0.9,19.8,0.8,15.9,12.4
	C64.6,63.4,60.8,68.6,51,68.9 M87.4,78.1c-1.7,4-6.6,6.8-12.3,6.8c-5.8,0-10.7-2.8-12.4-6.8c-0.7-1.5,0.5-3.2,2.2-3.2h20.4
	C86.9,75,88.1,76.6,87.4,78.1 M112.9,55.8c-1.3,11.3-4.1,13-13.8,13c-9.8-0.3-13.6-5.5-16-12.6C79.2,44.7,89.3,44.8,99,43.9
	C113.4,43.8,112.9,48.3,112.9,55.8 M115.3,47.7c-1.3,0-2.3-0.3-2.3-0.6c0-0.3,1-0.6,2.3-0.6s2.3,0.3,2.3,0.6
	C117.6,47.4,116.5,47.7,115.3,47.7"/>
</svg>
