<?xml version="1.0" encoding="utf-8"?>
<!-- Generator: Adobe Illustrator 18.0.0, SVG Export Plug-In . SVG Version: 6.00 Build 0)  -->
<!DOCTYPE svg PUBLIC "-//W3C//DTD SVG 1.1//EN" "http://www.w3.org/Graphics/SVG/1.1/DTD/svg11.dtd">
<svg version="1.1" id="Layer_1" xmlns="http://www.w3.org/2000/svg" xmlns:xlink="http://www.w3.org/1999/xlink" x="0px" y="0px"
	 viewBox="0 0 300 300" enable-background="new 0 0 300 300" xml:space="preserve">
<g>
	<g>
		<path fill="#7F9499" d="M185.4,130c1.4,4,1.1,8.3-1,10.8l-58.1,58.1l-34.5,9.5c-0.5,0.2-0.6,0-0.5-0.5l9.8-34.1l58-58.1
			c2.7-2.1,6.8-2.2,10.8-0.6l-63.7,63.6l-0.2,0.2l-4.1,12.9c0,0,1.9,0.6,3.7,2.4s2.2,3.8,2.2,3.8l13.2-4L185.4,130z"/>
		<path fill="#7F9499" d="M116,179.1l60.7-60.5c1.1,0.5,2.1,1.4,2.9,2.2c1.1,1,1.7,1.7,2.4,2.9l-60.8,60.5l-4.9-0.2L116,179.1z"/>
		<path fill="#7F9499" d="M203,122.4l-11.3,11.4c0,0,5.4-8.4-6-19.5c-10-10-19.5-5.6-19.5-5.6l11.4-11.4c7-7.1,18.4-8.1,25.7-1
			C211.1,104,210,115.6,203,122.4"/>
	</g>
	<path fill="none" stroke="#7F9499" stroke-width="4.986" stroke-miterlimit="10" d="M151.3,266.5H149
		c-63.9,0-115.5-51.6-115.5-115.3v-2.3c0-63.8,51.6-115.4,115.3-115.4h2.3c63.7,0,115.3,51.6,115.3,115.3v2.3
		C266.7,214.9,215.1,266.5,151.3,266.5"/>
</g>
</svg>
