<?xml version="1.0" encoding="iso-8859-1"?>
<!-- Generator: Adobe Illustrator 18.0.0, SVG Export Plug-In . SVG Version: 6.00 Build 0)  -->
<!DOCTYPE svg PUBLIC "-//W3C//DTD SVG 1.1//EN" "http://www.w3.org/Graphics/SVG/1.1/DTD/svg11.dtd">
<svg version="1.1" id="Capa_1" xmlns="http://www.w3.org/2000/svg" xmlns:xlink="http://www.w3.org/1999/xlink" x="0px" y="0px"
	 viewBox="0 0 481.817 481.817" style="enable-background:new 0 0 481.817 481.817;" xml:space="preserve">
<g>
	<path style="fill:#020202;" d="M384.448,81.809h-73.637v25.213c0,2.585-0.344,5.083-0.713,7.571h74.35
		c0.936,0,1.705,0.769,1.705,1.705v295.083H207.985V205.743c-2.29-1.552-4.45-3.314-6.349-5.378L175.2,171.598v275.729
		c0,19.017,15.471,34.489,34.489,34.489h174.758c19.017,0,34.489-15.473,34.489-34.489v-331.03
		C418.937,97.281,403.465,81.809,384.448,81.809z M297.051,427.334c10.542,0,19.058,8.524,19.058,19.042
		c0,10.509-8.516,19.049-19.058,19.049c-10.501,0-19.025-8.54-19.025-19.049C278.027,435.858,286.551,427.334,297.051,427.334z"/>
	<path style="fill:#020202;" d="M225.777,178.176c0.681,0.746,1.633,1.146,2.61,1.146c0.431,0,0.864-0.08,1.28-0.241
		c1.36-0.528,2.257-1.841,2.257-3.305v-49.762h27.117c10.484,0,18.985-8.499,18.985-18.993V18.994
		C278.027,8.501,269.526,0,259.041,0H81.865C71.381,0,62.88,8.501,62.88,18.994v88.028c0,10.494,8.501,18.993,18.985,18.993h95.976
		L225.777,178.176z M100.875,40.3h43.99c3.826,0,6.931,3.106,6.931,6.932c0,3.826-3.104,6.931-6.931,6.931h-43.99
		c-3.826,0-6.933-3.104-6.933-6.931C93.943,43.406,97.049,40.3,100.875,40.3z M93.943,77.663c0-3.826,3.106-6.931,6.933-6.931
		h87.242c3.826,0,6.932,3.105,6.932,6.931c0,3.826-3.106,6.932-6.932,6.932h-87.242C97.049,84.595,93.943,81.489,93.943,77.663z"/>
</g>
<g>
</g>
<g>
</g>
<g>
</g>
<g>
</g>
<g>
</g>
<g>
</g>
<g>
</g>
<g>
</g>
<g>
</g>
<g>
</g>
<g>
</g>
<g>
</g>
<g>
</g>
<g>
</g>
<g>
</g>
</svg>
