<svg width="92px" height="136px" viewBox="0 0 92 136" version="1.1" xmlns="http://www.w3.org/2000/svg" xmlns:xlink="http://www.w3.org/1999/xlink">
    <g fill="none" fill-rule="evenodd" stroke-linecap="round" stroke-linejoin="round">
        <g transform="translate(-830.000000, -2498.000000)" stroke="#FFFFFF" stroke-width="5">
            <path d="M854.926937,2563.05158 C861.945569,2585.50644 875.982831,2630.41617 875.982831,2630.41617 M896.53609,2561.42638 C889.424738,2585.66919 876.127459,2631 876.127459,2631 M840.568496,2526.57248 C840.568496,2528.89315 841.191459,2531.19297 842.371993,2533.22529 C842.857286,2534.05906 842.974306,2535.05959 842.698963,2535.98716 C842.420178,2536.91473 841.773122,2537.6825 840.912674,2538.10633 C836.032217,2540.5069 833,2545.39141 833,2550.84915 C833,2558.67618 839.3088,2565.04412 847.059711,2565.04412 C850.518709,2565.04412 853.853804,2563.74482 856.445471,2561.39289 C857.588145,2560.35762 859.260855,2560.21171 860.55841,2561.02117 C863.435746,2562.82073 866.729539,2563.77262 870.081842,2563.77262 C875.127506,2563.77262 879.82899,2561.7125 883.30864,2557.97095 C884.427221,2556.7724 886.237603,2556.52922 887.621202,2557.39078 C890.877135,2559.41616 894.601152,2560.48616 898.390562,2560.48616 C909.755352,2560.48616 918.999999,2551.15139 918.999999,2539.68355 C919.00344,2530.01874 912.219673,2521.48647 902.875214,2519.38815 C901.453755,2519.06854 900.383358,2517.88388 900.207827,2516.42478 C899.130547,2507.62849 891.696281,2501 882.919717,2501 C875.182574,2501 868.295553,2506.24929 866.168527,2513.76366 C865.86565,2514.83714 865.070596,2515.69523 864.031176,2516.07738 C862.998639,2516.463 861.835314,2516.31014 860.92324,2515.68481 C858.758354,2514.20139 856.228639,2513.41626 853.605995,2513.41626 C846.416096,2513.41626 840.568496,2519.31867 840.568496,2526.57248 Z M868.439495,2603.97948 C868.439495,2603.97948 873.012315,2606.63488 875.298725,2607.45654 C877.585135,2608.2782 882.157955,2608.90943 882.157955,2608.90943 M861.399049,2582.72577 C861.399049,2582.72577 866.418117,2588.79826 874.977053,2591.32846 C883.535989,2593.85867 885.975787,2592.92269 885.975787,2592.92269 M857.20369,2561.53142 C859.929864,2564.33093 865.686581,2569.27997 874.474164,2572.09891 C887.214347,2576.18578 892.271722,2574.87423 892.271722,2574.87423" id="Line"></path>
        </g>
    </g>
</svg>