<?xml version="1.0" encoding="utf-8"?>
<!-- Generator: Adobe Illustrator 16.0.0, SVG Export Plug-In . SVG Version: 6.00 Build 0)  -->
<!DOCTYPE svg PUBLIC "-//W3C//DTD SVG 1.1//EN" "http://www.w3.org/Graphics/SVG/1.1/DTD/svg11.dtd">
<svg version="1.1" id="Layer_1" xmlns="http://www.w3.org/2000/svg" xmlns:xlink="http://www.w3.org/1999/xlink" x="0px" y="0px"
	 width="401.208px" height="401.208px" viewBox="105.396 195.396 401.208 401.208"
	 enable-background="new 105.396 195.396 401.208 401.208" xml:space="preserve">
<g>
	<path fill="#7AC943" d="M399.024,320.52L272.136,447.408l-59.16-59.16c-4.488-4.488-11.424-4.488-15.912,0
		c-4.488,4.488-4.488,11.424,0,15.912l67.32,67.32c2.04,2.039,4.896,3.264,7.752,3.264c2.856,0,5.712-1.225,7.752-3.264
		l134.64-134.641c4.487-4.488,4.487-11.424,0-15.912C410.04,316.44,403.512,316.44,399.024,320.52z"/>
	<path fill="#FFFFFF" stroke="#FFFFFF" stroke-width="3" stroke-miterlimit="10" d="M306,595.104
		c-109.752,0-199.104-89.352-199.104-199.104S196.248,196.896,306,196.896S505.104,286.248,505.104,396S415.752,595.104,306,595.104
		z M306,199.752c-108.12,0-196.248,88.128-196.248,196.248S197.88,592.248,306,592.248S502.248,504.12,502.248,396
		S414.12,199.752,306,199.752z"/>
</g>
</svg>
