<?xml version="1.0" encoding="utf-8"?>
<!-- Generator: Adobe Illustrator 16.0.0, SVG Export Plug-In . SVG Version: 6.00 Build 0)  -->
<!DOCTYPE svg PUBLIC "-//W3C//DTD SVG 1.1//EN" "http://www.w3.org/Graphics/SVG/1.1/DTD/svg11.dtd">
<svg version="1.1" id="Layer_1" xmlns="http://www.w3.org/2000/svg" xmlns:xlink="http://www.w3.org/1999/xlink" x="0px" y="0px"
	 width="418.778px" height="418.778px" viewBox="96.611 186.611 418.778 418.778"
	 enable-background="new 96.611 186.611 418.778 418.778" xml:space="preserve">
<g>
	<path fill="#FFFFFF" stroke="#FFFFFF" stroke-width="1.802" stroke-miterlimit="10" d="M306,604.488
		c-115.056,0-208.488-93.433-208.488-208.488c0-115.056,93.432-208.488,208.488-208.488c115.056,0,208.488,93.432,208.488,208.488
		C514.488,511.056,421.056,604.488,306,604.488z M306,190.368c-113.424,0-205.632,92.208-205.632,205.632
		S192.576,601.632,306,601.632S511.632,509.424,511.632,396S419.424,190.368,306,190.368z"/>
	<path fill="#FFFFFF" stroke="#FFFFFF" stroke-width="1.802" stroke-miterlimit="10" d="M270.504,468.216
		c-10.608,0-19.176-10.607-19.176-23.664v-98.736c0-13.056,8.568-23.664,19.176-23.664s19.176,10.608,19.176,23.664v99.144
		C289.68,458.016,281.112,468.216,270.504,468.216z M270.504,325.008c-8.976,0-16.728,9.384-16.728,20.808v99.144
		c0,11.424,7.344,20.808,16.728,20.808c9.384,0,16.728-9.384,16.728-20.808v-99.144C286.824,334.392,279.48,325.008,270.504,325.008
		z"/>
	<path fill="#FFFFFF" stroke="#FFFFFF" stroke-width="1.802" stroke-miterlimit="10" d="M341.496,469.848
		c-10.608,0-19.176-10.607-19.176-23.664V347.04c0-13.056,8.567-23.664,19.176-23.664c10.607,0,19.176,10.608,19.176,23.664v99.144
		C361.08,459.24,352.512,469.848,341.496,469.848z M341.496,326.232c-8.977,0-16.729,9.384-16.729,20.808v99.144
		c0,11.425,7.345,20.809,16.729,20.809s16.728-9.384,16.728-20.809V347.04C358.224,335.616,350.88,326.232,341.496,326.232z"/>
</g>
</svg>
