<svg xmlns="http://www.w3.org/2000/svg" xmlns:xlink="http://www.w3.org/1999/xlink" version="1.1" x="0px" y="0px" viewBox="0 0 48 48" enable-background="new 0 0 48 48" xml:space="preserve"><g><polygon fill="none" stroke="#000000" stroke-width="2" stroke-miterlimit="10" points="22.845,43.477 40.444,43.477    41.822,26.512 21.466,26.512  "></polygon><path fill="none" stroke="#000000" stroke-width="2" stroke-linecap="round" stroke-miterlimit="10" d="M42.089,26.058   c-1.173-3.932-4.502-6.933-8.616-7.627c-0.111-0.948-0.882-1.685-1.827-1.685c-0.946,0-1.718,0.737-1.828,1.685   c-4.115,0.694-7.443,3.696-8.617,7.627"></path><g><path fill="none" stroke="#000000" stroke-width="2" stroke-miterlimit="10" d="M21.629,44.79    c-1.071-0.644-2.298-1.295-3.424-1.882c-1.391-0.725-1.99-2.197-2.4-3.637c-0.419-1.462-0.968-2.968-1.111-4.494    c-0.089-0.956,0.11-1.886-0.205-2.81c-0.093-0.271-0.199-0.504-0.316-0.707c1.104-0.077,1.974-0.684,1.974-1.426    c0-0.792-0.992-1.441-2.205-1.441H8.419c-1.213,0-2.206,0.649-2.206,1.441c0,0.773,0.944,1.403,2.113,1.436    c-0.28,0.69-0.46,1.436-0.829,2.073c-0.391,0.675-0.949,1.147-1.171,1.905c-0.408,1.396-0.416,2.906-0.416,4.361    c0,1.452,0.04,2.885,0.425,4.295c0.313,1.146,0.9,2.002,1.412,3.014c0.315-0.021,0.445-0.267,0.651-0.488    c0.536,0.228,0.72,0.564,1.352,0.551c0.47-0.01,0.9-0.312,1.297-0.342c0.516-0.037,0.84,0.438,1.374,0.35    c0.616-0.101,0.797-0.438,1.384-0.317c0.383,0.077,1.032,0.398,1.449,0.195c0.334-0.164,0.365-0.644,0.789-0.719    c0.2-0.035,0.28,0.099,0.399,0.114c0.604,0.077,0.785,0.071,1.392-0.12c0.533-0.168,0.541,0.023,1.046,0.018    c0.775-0.008,1.605-0.327,2.375-0.462c0.241-0.045,0.811,0.122,0.968-0.112C22.45,45.246,21.867,44.933,21.629,44.79z"></path><path fill="none" stroke="#000000" stroke-width="2" stroke-miterlimit="10" d="M9.398,27.623h3.565    c1.214,0,2.207-0.696,2.207-1.546c0-0.849-0.992-1.544-2.207-1.544h-0.35c0.006-0.075,0.016-0.149,0.016-0.228V3.207    C12.629,1.992,11.978,1,11.181,1S9.733,1.992,9.733,3.207v21.099c0,0.079,0.01,0.153,0.016,0.228h-0.35    c-1.214,0-2.207,0.695-2.207,1.544C7.192,26.927,8.184,27.623,9.398,27.623z"></path></g></g></svg>