
<!-- Generator: Adobe Illustrator 16.0.0, SVG Export Plug-In . SVG Version: 6.00 Build 0)  -->
<!DOCTYPE svg PUBLIC "-//W3C//DTD SVG 1.1//EN" "http://www.w3.org/Graphics/SVG/1.1/DTD/svg11.dtd">
<svg version="1.1" id="Layer_1" xmlns="http://www.w3.org/2000/svg" xmlns:xlink="http://www.w3.org/1999/xlink" x="0px" y="0px"
	 width="370.2px" height="370.2px" viewBox="120.9 210.9 370.2 370.2" enable-background="new 120.9 210.9 370.2 370.2"
	 xml:space="preserve">
<g>
	<circle fill="#E2B15A" stroke="#E2B15A" stroke-width="3" stroke-miterlimit="10" cx="306" cy="396" r="183.6"/>
	<g>
		<path fill="#FFFFFF" d="M386.784,322.152c-11.017-35.496-43.656-59.976-80.784-59.976c-36.72,0-69.36,24.072-80.376,58.752
			c-6.528,0.816-13.056,1.632-19.992,3.264l2.04,13.464c2.04,0,5.304,0.816,5.304,4.488c0.408,14.28,2.856,25.296,7.752,32.64
			c-1.632,1.224-2.448,2.856-3.264,4.488c0,0,6.528,0,6.936,0.408c0,0-9.384,16.728-8.16,27.744l5.712-3.264
			c0,0-3.264,26.52,2.448,34.68c0,0,4.488-6.936,5.712-7.752c0,0,4.488,25.704,8.16,30.6c0,0,3.672-4.896,5.304-6.119
			c0,0,2.04,16.319,10.2,25.703l3.672-5.712c0,0,8.976,20.809,6.528,30.601c0,0,6.528-5.305,6.528-6.937
			c0,0,0.816,11.425,14.688,17.544c0,0-0.408-4.896,1.224-6.527c0,0,13.872,11.832,6.12,19.992c0,0,10.2,1.632,13.056-6.937
			c3.265,8.568,13.057,6.937,13.057,6.937c-7.752-8.16,6.119-19.992,6.119-19.992c1.225,1.632,1.225,6.527,1.225,6.527
			c13.872-6.119,14.688-17.544,14.688-17.544c0,1.633,6.528,6.937,6.528,6.937c-2.04-9.792,6.528-30.601,6.528-30.601l3.672,5.712
			c8.16-9.384,10.2-25.703,10.2-25.703c1.632,1.224,5.304,6.119,5.304,6.119c3.672-4.896,8.16-30.6,8.16-30.6
			c1.224,0.816,5.712,7.752,5.712,7.752c6.12-8.16,2.448-34.68,2.448-34.68l5.712,3.264c1.632-11.016-8.16-27.744-8.16-27.744
			c0.815-0.816,6.936-0.816,6.936-0.816c-0.407-2.04-1.632-3.264-3.672-4.896c4.896-8.976,4.896-21.216,7.752-30.192
			c0.816-3.264,2.04-4.896,5.712-4.896l1.632-13.464C400.248,324.192,393.312,322.968,386.784,322.152z M306,267.072
			c34.272,0,64.464,22.032,75.072,54.264c-15.504-1.632-31.824-1.632-51,3.264c-7.752,2.04-16.729,4.08-24.48,3.672
			c-4.896,0-9.384-1.224-13.464-2.04c-20.808-4.896-39.984-7.344-60.792-5.712C241.944,288.696,272.136,267.072,306,267.072z
			 M319.872,367.848c-0.816,0-2.04,0.408-2.856,0.408l0,0c-4.487,0-3.264,3.672-11.424,3.672c-3.672,0-6.528-3.264-8.976-3.264
			c-1.224,0-4.488-0.408-4.488-0.408l0,0c-1.224,0-2.04-1.632-1.224-2.856c4.488-7.344,6.528-14.688,7.344-19.176
			c1.224-5.712,4.08-6.528,7.344-6.528c6.12,0,6.528,4.08,7.752,6.936c2.856,7.344,5.712,13.464,8.16,18.36
			C322.32,366.216,321.504,367.848,319.872,367.848z M215.424,332.76c-2.856,0-5.304-0.408-5.304-1.224s2.448-1.224,5.304-1.224
			s5.304,0.408,5.304,1.224C220.32,331.944,217.872,332.76,215.424,332.76z M251.736,382.128c-22.032,0-28.152-4.08-31.416-29.376
			c0-17.136-1.224-27.336,31.416-26.928c22.032,2.04,44.88,2.04,35.904,28.152C282.336,369.888,273.768,381.312,251.736,382.128z
			 M334.152,404.976c-4.08,8.977-15.097,14.28-28.152,14.28c-13.056,0-24.072-4.896-28.152-13.872
			c-1.632-3.672,1.224-5.712,4.896-5.712h46.104C332.928,400.08,335.784,401.712,334.152,404.976z M391.68,352.344
			c-2.855,25.704-9.384,29.376-31.416,29.376c-22.031-0.408-30.6-12.24-36.312-28.56c-8.977-26.112,14.28-26.112,35.904-28.152
			C392.904,325.416,391.68,335.208,391.68,352.344z M397.392,333.984c-2.855,0-5.304-0.408-5.304-1.224
			c0-0.816,2.448-1.224,5.304-1.224c2.856,0,5.305,0.408,5.305,1.224C402.288,333.576,400.248,333.984,397.392,333.984z"/>
	</g>
</g>
</svg>
