
<!-- Generator: Adobe Illustrator 16.0.0, SVG Export Plug-In . SVG Version: 6.00 Build 0)  -->
<!DOCTYPE svg PUBLIC "-//W3C//DTD SVG 1.1//EN" "http://www.w3.org/Graphics/SVG/1.1/DTD/svg11.dtd">
<svg version="1.1" id="Layer_1" xmlns="http://www.w3.org/2000/svg" xmlns:xlink="http://www.w3.org/1999/xlink" x="0px" y="0px"
	 width="358.776px" height="358.776px" viewBox="126.612 216.612 358.776 358.776"
	 enable-background="new 126.612 216.612 358.776 358.776" xml:space="preserve">
<g>
	<circle fill="none" stroke="#FFFFFF" stroke-width="3" stroke-miterlimit="10" cx="306" cy="396" r="177.888"/>
	<path fill="#FFFFFF" d="M424.32,334.392c0-8.16-6.937-15.096-15.097-15.096h-206.04c-8.16,0-15.096,6.936-15.096,15.096v123.216
		c0,8.159,6.936,15.096,15.096,15.096h206.04c8.16,0,15.097-6.937,15.097-15.096V334.392z M203.592,328.68h205.632
		c2.856,0,5.712,2.856,5.712,5.712v13.464H197.472v-13.464C197.472,331.536,200.736,328.68,203.592,328.68z M409.224,460.872
		H203.592c-2.856,0-5.712-1.632-5.712-4.488v-73.44h217.056v73.44C414.936,459.24,412.08,460.872,409.224,460.872z"/>
</g>
</svg>
