
<!-- Generator: Adobe Illustrator 16.0.0, SVG Export Plug-In . SVG Version: 6.00 Build 0)  -->
<!DOCTYPE svg PUBLIC "-//W3C//DTD SVG 1.1//EN" "http://www.w3.org/Graphics/SVG/1.1/DTD/svg11.dtd">
<svg version="1.1" id="Layer_1" xmlns="http://www.w3.org/2000/svg" xmlns:xlink="http://www.w3.org/1999/xlink" x="0px" y="0px"
	 width="50px" height="50px" viewBox="0 0 50 50" enable-background="new 0 0 50 50" xml:space="preserve">
<path fill="rgba(255,255,255,0.5)" d="M24,12.5c3.3,1.7-0.7,7-2.1,12.5h14.6c0.2-0.2,0.3-0.3,0.5-0.5L37,5c0-2.8,2.3-5,5.2-5h2.6
	C47.7,0,50,2.2,50,5v24.9c0,4.1-3.5,7.5-7.8,7.5l-20.4,0c1.4,5.9,5.8,9.7,2.2,12.4C21.2,51.9,0,34,0,31.5C0,29,21,11,24,12.5"/>
</svg>
