<?xml version="1.0" encoding="utf-8"?>
<!-- Generator: Adobe Illustrator 16.0.0, SVG Export Plug-In . SVG Version: 6.00 Build 0)  -->
<!DOCTYPE svg PUBLIC "-//W3C//DTD SVG 1.1//EN" "http://www.w3.org/Graphics/SVG/1.1/DTD/svg11.dtd">
<svg version="1.1" id="Layer_1" xmlns="http://www.w3.org/2000/svg" xmlns:xlink="http://www.w3.org/1999/xlink" x="0px" y="0px"
	 width="257.448px" height="226.032px" viewBox="130.56 320.928 257.448 226.032"
	 enable-background="new 130.56 320.928 257.448 226.032" xml:space="preserve">
<g>
	<path fill="#FFFFFF" d="M305.184,546.96c10.2,0,18.768-8.16,18.768-17.952V338.88c0-9.792-8.568-17.952-18.768-17.952h-91.8
		c-10.2,0-18.768,8.16-18.768,17.952v190.128c0,9.792,8.568,17.952,18.768,17.952H305.184L305.184,546.96z M204.816,529.008V338.88
		c0-4.488,3.672-7.752,8.568-7.752h91.8c4.896,0,8.568,3.672,8.568,7.752v190.128c0,4.488-3.672,7.752-8.568,7.752h-91.8
		C208.488,536.76,204.816,533.496,204.816,529.008z"/>
	<path fill="#FFFFFF" d="M219.096,502.08h80.376c2.856,0,4.896-2.448,4.896-4.896V359.28l0,0c0-0.408,0-0.816-0.408-1.224
		c0-0.408,0-0.408,0-0.816c0-0.408-0.408-0.408-0.408-0.816c-0.408-0.408-0.408-0.816-0.816-0.816l0,0c0,0-0.408-0.408-0.816-0.408
		c-0.408,0-0.408-0.408-0.816-0.408c-0.408,0-0.816,0-1.224-0.408c-0.408,0-0.408,0-0.816,0h-79.968h-0.408
		c-0.408,0-0.816,0-0.816,0c-0.408,0-0.816,0-0.816,0.408h-0.408l-0.408,0.408c-0.408,0.408-0.408,0.408-0.816,0.816
		c-0.408,0.408-0.408,0.408-0.408,0.816s-0.408,0.408-0.408,0.816c0,0.408,0,0.816,0,0.816v0.408v137.496
		C214.2,500.04,216.24,502.08,219.096,502.08z M223.992,461.688C224.4,461.688,224.4,461.688,223.992,461.688l23.664-13.464
		L223.992,487.8V461.688z M294.168,440.472l-31.416-26.111l31.416-8.568V440.472z M252.144,421.296l5.304,9.384l-19.176,11.017
		L252.144,421.296z M263.568,440.88l30.192,51h-60.384L263.568,440.88z M271.728,435.168l22.44,18.768v18.769L271.728,435.168z
		 M294.168,395.592h-0.408l-26.52,7.344l26.928-30.191V395.592z M252.96,403.752l-24.48-39.168h59.568L252.96,403.752z
		 M246.432,411.912l-22.44,33.048v-68.136L246.432,411.912z"/>
	<path fill="#FFFFFF" d="M249.288,347.04h20.4c2.856,0,4.896-2.448,4.896-4.896c0-2.856-2.448-4.896-4.896-4.896h-20.4
		c-2.856,0-4.896,2.448-4.896,4.896C243.984,345,246.432,347.04,249.288,347.04z"/>
	<path fill="#FFFFFF" d="M259.08,506.16c-6.936,0-13.056,5.712-13.056,13.056s5.712,13.056,13.056,13.056
		c6.936,0,13.056-5.712,13.056-13.056S266.424,506.16,259.08,506.16z M259.08,521.664c-1.632,0-2.856-1.224-2.856-2.856
		c0-1.632,1.224-2.855,2.856-2.855s2.856,1.224,2.856,2.855C261.936,520.44,260.712,521.664,259.08,521.664z"/>
	<path fill="#FFFFFF" d="M152.184,380.496l23.664,11.832c0.816,0.408,1.632,0.408,2.448,0.408c2.04,0,3.672-0.816,4.488-2.856
		c1.224-2.448,0.408-5.712-2.04-6.936l-24.072-11.424c-2.448-1.224-5.712-0.408-6.936,2.04
		C148.512,376.416,149.736,379.272,152.184,380.496z"/>
	<path fill="#FFFFFF" d="M130.56,416.808c0,2.856,2.448,4.896,4.896,4.896h44.88c2.856,0,4.896-2.448,4.896-4.896
		c0-2.447-2.448-4.896-4.896-4.896h-44.88C133.008,411.912,130.56,413.952,130.56,416.808z"/>
	<path fill="#FFFFFF" d="M166.464,464.952c1.632,0,2.856-0.816,4.08-2.04l11.832-15.096c1.632-2.04,1.224-5.305-0.816-6.937
		s-5.304-1.224-6.936,0.816l-11.832,15.096c-1.632,2.04-1.224,5.304,0.816,6.936C164.016,464.544,165.24,464.952,166.464,464.952z"
		/>
	<path fill="#FFFFFF" d="M361.896,371.52l-23.663,11.832c-2.448,1.224-3.673,4.488-2.04,6.936c0.815,1.632,2.855,2.856,4.487,2.856
		c0.816,0,1.632,0,2.448-0.408l23.664-11.832c2.448-1.224,3.672-4.488,2.04-6.936C367.2,371.52,364.344,370.296,361.896,371.52z"/>
	<path fill="#FFFFFF" d="M388.008,416.808c0-2.855-2.448-4.896-4.896-4.896h-44.88c-2.856,0-4.896,2.448-4.896,4.896
		c0,2.448,2.448,4.896,4.896,4.896h44.88C385.56,421.704,388.008,419.664,388.008,416.808z"/>
	<path fill="#FFFFFF" d="M344.352,441.696c-1.632-2.04-4.896-2.448-6.936-0.816s-2.448,4.896-0.816,6.937l11.832,15.096
		c0.816,1.224,2.448,2.04,4.08,2.04c1.225,0,2.04-0.408,3.265-1.225c2.04-1.632,2.447-4.896,0.815-6.936L344.352,441.696z"/>
</g>
</svg>
