<svg viewBox="0 0 200 207" version="1.1" xmlns="http://www.w3.org/2000/svg" xmlns:xlink="http://www.w3.org/1999/xlink"><title>Shape</title><g fill="none" fill-rule="evenodd"><path d="M196.616036,147.327596 L196.616036,118.936292 C196.616036,112.857518 191.33458,108.45682 183.633358,105.585858 C184.266885,101.200612 184.588284,96.747377 184.588284,92.2941422 C184.588284,41.4017955 143.189579,1.42108547e-14 92.2972326,1.42108547e-14 C41.4048859,1.42108547e-14 1.70530257e-13,41.4017955 1.70530257e-13,92.2941422 C1.70530257e-13,143.186489 41.4017955,184.591375 92.2941422,184.591375 C100.604169,184.591375 108.790581,183.494291 116.705039,181.321755 L116.705039,189.158954 C116.705039,201.195976 137.413663,206.672126 156.663628,206.672126 C175.907412,206.672126 196.619126,201.195976 196.619126,189.158954 L196.619126,175.922864 C198.813295,171.55307 200,166.682634 200,161.629865 C199.99691,156.567826 198.810204,151.700481 196.616036,147.327596 L196.616036,147.327596 Z M92.2910518,171.812661 C48.4447672,171.812661 12.7756231,136.140427 12.7756231,92.2941422 C12.7756231,48.4478576 48.4478576,12.7787135 92.2910518,12.7787135 C136.134246,12.7787135 171.80339,48.4478576 171.80339,92.2941422 C171.80339,95.7059196 171.583973,99.1176971 171.15132,102.486209 C166.463217,101.772332 161.512431,101.420029 156.657447,101.420029 C152.222754,101.420029 147.713893,101.716705 143.402815,102.313148 C143.955993,99.2845775 144.237217,96.1972897 144.237217,93.0945501 C144.237217,64.8917595 121.29425,41.9487924 93.0914597,41.9487924 C64.8886691,41.9487924 41.9457021,64.8917595 41.9457021,93.0945501 L51.6371278,93.0945501 C51.6371278,70.2350233 70.2319329,51.6371278 93.0914597,51.6371278 C115.947896,51.6371278 134.548882,70.2350233 134.548882,93.0945501 C134.548882,96.976065 134.004976,100.811224 132.944976,104.504226 C123.510051,107.294838 116.701948,112.038568 116.701948,118.936292 L116.701948,127.162878 C109.760959,131.99623 101.654897,134.548882 93.085279,134.548882 C85.2233571,134.548882 77.5684905,132.336171 70.9612621,128.161071 L65.7848788,136.350572 C73.9465674,141.511504 83.3845821,144.240308 93.085279,144.240308 C101.330408,144.240308 109.445741,142.219201 116.701948,138.445849 L116.701948,167.992954 C108.849298,170.527064 100.650525,171.812661 92.2910518,171.812661 L92.2910518,171.812661 Z M186.927701,135.992089 C183.658081,134.134771 179.442805,134.879553 177.038491,137.911213 C174.380765,141.264274 174.937034,146.14089 178.290094,148.801706 C182.227236,151.929169 184.492483,156.59873 184.492483,161.623685 C184.492483,166.642459 182.233416,171.31511 178.296275,174.439483 C174.940124,177.100298 174.380765,181.976915 177.047762,185.329975 C178.580589,187.258371 180.839656,188.259654 183.126536,188.259654 C184.430675,188.259654 185.740995,187.928983 186.927701,187.255281 L186.927701,189.13114 C186.825718,189.597787 185.215631,191.7456 179.087411,193.813063 C173.051903,195.852713 165.087999,196.97452 156.657447,196.97452 C148.229986,196.97452 140.266082,195.852713 134.230573,193.813063 C128.102353,191.7456 126.492266,189.600878 126.390284,189.13114 L126.390284,130.889874 C134.20585,134.663226 145.668062,136.455645 156.657447,136.455645 C167.649922,136.455645 179.112134,134.663226 186.927701,130.889874 L186.927701,135.992089 L186.927701,135.992089 Z M179.087411,123.605853 C173.051903,125.642412 165.087999,126.76422 156.657447,126.76422 C148.229986,126.76422 140.266082,125.642412 134.230573,123.605853 C128.102353,121.5353 126.492266,119.393668 126.390284,118.967196 L126.390284,118.957925 C126.492266,118.485097 128.102353,116.340374 134.230573,114.266731 C140.266082,112.230171 148.229986,111.111454 156.657447,111.111454 C165.087999,111.111454 173.051903,112.230171 179.087411,114.266731 C185.234173,116.346555 186.83808,118.497458 186.927701,118.911569 C186.83808,119.378216 185.240354,121.526029 179.087411,123.605853 L179.087411,123.605853 Z" fill="#FFFFFF"></path></g></svg>