<svg width="1280px" height="800px" viewBox="0 0 1280 800" version="1.1" xmlns="http://www.w3.org/2000/svg" xmlns:xlink="http://www.w3.org/1999/xlink">
	<defs>
		<linearGradient x1="50%" y1="0%" x2="50%" y2="100%" id="sky-gradient">
			<stop stop-color="#76a3ab" offset="0%"></stop>
			<stop stop-color="#9cbdbe" offset="50%"></stop>
			<stop stop-color="#76a3ab" offset="100%"></stop>
		</linearGradient>
		<filter x="-50%" y="-50%" width="200%" height="200%" filterUnits="objectBoundingBox" id="filter-2">
			<feGaussianBlur stdDeviation="8" in="SourceGraphic"></feGaussianBlur>
		</filter>
		<filter x="-50%" y="-50%" width="200%" height="200%" filterUnits="objectBoundingBox" id="filter-3">
			<feGaussianBlur stdDeviation="8" in="SourceGraphic"></feGaussianBlur>
		</filter>
		<filter x="-50%" y="-50%" width="200%" height="200%" filterUnits="objectBoundingBox" id="filter-4">
			<feGaussianBlur stdDeviation="8" in="SourceGraphic"></feGaussianBlur>
		</filter>
		<filter x="-50%" y="-50%" width="200%" height="200%" filterUnits="objectBoundingBox" id="filter-5">
			<feGaussianBlur stdDeviation="8" in="SourceGraphic"></feGaussianBlur>
		</filter>
		<filter x="-50%" y="-50%" width="200%" height="200%" filterUnits="objectBoundingBox" id="filter-6">
			<feGaussianBlur stdDeviation="8" in="SourceGraphic"></feGaussianBlur>
		</filter>
		<filter x="-50%" y="-50%" width="200%" height="200%" filterUnits="objectBoundingBox" id="filter-7">
			<feGaussianBlur stdDeviation="8" in="SourceGraphic"></feGaussianBlur>
		</filter>
		<filter x="-50%" y="-50%" width="200%" height="200%" filterUnits="objectBoundingBox" id="filter-8">
			<feGaussianBlur stdDeviation="8" in="SourceGraphic"></feGaussianBlur>
		</filter>
		<filter x="-50%" y="-50%" width="200%" height="200%" filterUnits="objectBoundingBox" id="filter-9">
			<feGaussianBlur stdDeviation="8" in="SourceGraphic"></feGaussianBlur>
		</filter>
		<filter x="-50%" y="-50%" width="200%" height="200%" filterUnits="objectBoundingBox" id="filter-10">
			<feGaussianBlur stdDeviation="8" in="SourceGraphic"></feGaussianBlur>
		</filter>
		<filter x="-50%" y="-50%" width="200%" height="200%" filterUnits="objectBoundingBox" id="filter-11">
			<feGaussianBlur stdDeviation="8" in="SourceGraphic"></feGaussianBlur>
		</filter>
		<filter x="-50%" y="-50%" width="200%" height="200%" filterUnits="objectBoundingBox" id="filter-12">
			<feGaussianBlur stdDeviation="8" in="SourceGraphic"></feGaussianBlur>
		</filter>
		<filter x="-50%" y="-50%" width="200%" height="200%" filterUnits="objectBoundingBox" id="filter-13">
			<feGaussianBlur stdDeviation="3.23494945" in="SourceGraphic"></feGaussianBlur>
		</filter>
	</defs>
    <rect fill="url(#sky-gradient)" x="0" y="0" width="1278.52023" height="846.427746"></rect>
	<g stroke="#DCE1B9" stroke-width="3" stroke-linecap="round" stroke-linejoin="round" fill="#FFFFFF">
	    <path d="M1096.56546,678.843931 L1102.21907,681.81621 L1101.13933,675.520822 L1105.7132,671.062403 L1099.39227,670.143918 L1096.56546,664.416185 L1093.73866,670.143918 L1087.41773,671.062403 L1091.99159,675.520822 L1090.91185,681.81621 L1096.56546,678.843931 L1096.56546,678.843931 Z M53.7424391,699.722615 L48.5237214,702.466257 L49.5204078,696.65513 L45.2983766,692.539667 L51.1330802,691.691835 L53.7424391,686.404696 L56.3517979,691.691835 L62.1865015,692.539667 L57.9644703,696.65513 L58.9611567,702.466257 L53.7424391,699.722615 L53.7424391,699.722615 Z M237.569029,688.872832 L233.65499,690.930564 L234.402505,686.572218 L231.235982,683.485621 L235.61201,682.849747 L237.569029,678.884393 L239.526048,682.849747 L243.902076,683.485621 L240.735552,686.572218 L241.483067,690.930564 L237.569029,688.872832 L237.569029,688.872832 Z M494.713537,687.14458 L488.625033,690.345496 L489.787834,683.565848 L484.862131,678.764474 L491.669285,677.775336 L494.713537,671.607008 L497.757789,677.775336 L504.564944,678.764474 L499.63924,683.565848 L500.802041,690.345496 L494.713537,687.14458 L494.713537,687.14458 Z M313.441861,680.855563 L306.918464,684.285116 L308.164322,677.021207 L302.886783,671.876877 L310.180163,670.817087 L313.441861,664.208164 L316.70356,670.817087 L323.996939,671.876877 L318.7194,677.021207 L319.965258,684.285116 L313.441861,680.855563 L313.441861,680.855563 Z M146.333047,722.988439 L142.419009,725.046171 L143.166523,720.687825 L140,717.601228 L144.376028,716.965354 L146.333047,713 L148.290066,716.965354 L152.666094,717.601228 L149.49957,720.687825 L150.247085,725.046171 L146.333047,722.988439 L146.333047,722.988439 Z M414.066138,710.526083 L409.282314,713.041089 L410.195943,707.714222 L406.325748,703.941714 L411.674226,703.164534 L414.066138,698.317991 L416.458051,703.164534 L421.806529,703.941714 L417.936334,707.714222 L418.849963,713.041089 L414.066138,710.526083 L414.066138,710.526083 Z M465.555078,647.647399 L459.031681,651.076952 L460.277539,643.813042 L455,638.668713 L462.29338,637.608923 L465.555078,631 L468.816777,637.608923 L476.110156,638.668713 L470.832617,643.813042 L472.078475,651.076952 L465.555078,647.647399 L465.555078,647.647399 Z M1007.24847,727.993665 L1006.33484,733.320532 L1010.20503,737.09304 L1004.85655,737.870219 L1002.46464,742.716763 L1000.07273,737.870219 L994.72425,737.09304 L998.594446,733.320532 L997.680817,727.993665 L1002.46464,730.508671 L1007.24847,727.993665 L1007.24847,727.993665 Z M927.21505,733.515005 L931.998875,731 L931.085245,736.326867 L934.955441,740.099375 L929.606962,740.876554 L927.21505,745.723098 L924.823138,740.876554 L919.474659,740.099375 L923.344855,736.326867 L922.431226,731 L927.21505,733.515005 L927.21505,733.515005 Z M836.854809,733.985164 L840.333954,732.156069 L839.669496,736.030154 L842.484183,738.773797 L838.594381,739.339018 L836.854809,742.863777 L835.115236,739.339018 L831.225434,738.773797 L834.040121,736.030154 L833.375663,732.156069 L836.854809,733.985164 L836.854809,733.985164 Z M1060.33305,737.057732 L1064.24709,735 L1063.49957,739.358346 L1066.66609,742.444943 L1062.29007,743.080817 L1060.33305,747.046171 L1058.37603,743.080817 L1054,742.444943 L1057.16652,739.358346 L1056.41901,735 L1060.33305,737.057732 L1060.33305,737.057732 Z M1003.60915,682.17341 L1008.82787,679.429768 L1007.83118,685.240896 L1012.05321,689.356359 L1006.21851,690.204191 L1003.60915,695.491329 L1000.99979,690.204191 L995.165087,689.356359 L999.387118,685.240896 L998.390432,679.429768 L1003.60915,682.17341 L1003.60915,682.17341 Z M910.326925,677.746846 L915.980536,674.774566 L914.900792,681.069955 L919.474659,685.528373 L913.15373,686.446858 L910.326925,692.174591 L907.50012,686.446858 L901.179191,685.528373 L905.753058,681.069955 L904.673314,674.774566 L910.326925,677.746846 L910.326925,677.746846 Z M583.370448,628.457202 L588.154273,625.942197 L587.240644,631.269063 L591.110839,635.041571 L585.762361,635.818751 L583.370448,640.665294 L580.978536,635.818751 L575.630058,635.041571 L579.500253,631.269063 L578.586624,625.942197 L583.370448,628.457202 L583.370448,628.457202 Z M736.490305,650.882371 L741.709023,648.138728 L740.712336,653.949856 L744.934368,658.065319 L739.099664,658.913151 L736.490305,664.20029 L733.880946,658.913151 L728.046243,658.065319 L732.268274,653.949856 L731.271588,648.138728 L736.490305,650.882371 L736.490305,650.882371 Z M747.10852,726.236994 L746.444062,730.111079 L749.25875,732.854721 L745.368948,733.419943 L743.629375,736.944702 L741.889802,733.419943 L738,732.854721 L740.814687,730.111079 L740.15023,726.236994 L743.629375,728.066089 L747.10852,726.236994 L747.10852,726.236994 Z M589.333047,756.057732 L593.247085,754 L592.49957,758.358346 L595.666094,761.444943 L591.290066,762.080817 L589.333047,766.046171 L587.376028,762.080817 L583,761.444943 L586.166523,758.358346 L585.419009,754 L589.333047,756.057732 L589.333047,756.057732 Z M201.662527,775.271676 L205.141672,773.442581 L204.477214,777.316666 L207.291902,780.060309 L203.402099,780.62553 L201.662527,784.150289 L199.922954,780.62553 L196.033152,780.060309 L198.847839,777.316666 L198.183382,773.442581 L201.662527,775.271676 L201.662527,775.271676 Z M828.256549,676.699422 L832.170587,674.64169 L831.423072,679.000036 L834.589595,682.086633 L830.213568,682.722507 L828.256549,686.687861 L826.299529,682.722507 L821.923502,682.086633 L825.090025,679.000036 L824.34251,674.64169 L828.256549,676.699422 L828.256549,676.699422 Z M51.8514062,748.200916 L57.9399101,745 L56.7771093,751.779649 L61.7028125,756.581023 L54.8956582,757.57016 L51.8514062,763.738488 L48.8071543,757.57016 L42,756.581023 L46.9257031,751.779649 L45.7629023,745 L51.8514062,748.200916 L51.8514062,748.200916 Z M484.862131,723.972279 L490.515742,721 L489.435998,727.295388 L494.009865,731.753807 L487.688936,732.672291 L484.862131,738.400025 L482.035326,732.672291 L475.714397,731.753807 L480.288264,727.295388 L479.20852,721 L484.862131,723.972279 L484.862131,723.972279 Z M175.766573,678.104046 L179.680611,676.046315 L178.933096,680.40466 L182.09962,683.491258 L177.723592,684.127132 L175.766573,688.092486 L173.809554,684.127132 L169.433526,683.491258 L172.600049,680.40466 L171.852535,676.046315 L175.766573,678.104046 L175.766573,678.104046 Z M124.642125,621.058358 L129.425949,618.543353 L128.51232,623.870219 L132.382515,627.642727 L127.034037,628.419907 L124.642125,633.26645 L122.250212,628.419907 L116.901734,627.642727 L120.771929,623.870219 L119.8583,618.543353 L124.642125,621.058358 L124.642125,621.058358 Z M234.000165,616.05383 L240.523562,612.624277 L239.277704,619.888187 L244.555243,625.032516 L237.261863,626.092306 L234.000165,632.701229 L230.738466,626.092306 L223.445087,625.032516 L228.722626,619.888187 L227.476768,612.624277 L234.000165,616.05383 L234.000165,616.05383 Z M314.849205,751.427746 L320.502816,754.400025 L319.423072,748.104637 L323.996939,743.646218 L317.67601,742.727733 L314.849205,737 L312.022399,742.727733 L305.70147,743.646218 L310.275338,748.104637 L309.195594,754.400025 L314.849205,751.427746 L314.849205,751.427746 Z M1111.72033,777.861272 L1115.63437,779.919003 L1114.88685,775.560658 L1118.05338,772.47406 L1113.67735,771.838186 L1111.72033,767.872832 L1109.76331,771.838186 L1105.38728,772.47406 L1108.55381,775.560658 L1107.80629,779.919003 L1111.72033,777.861272 L1111.72033,777.861272 Z M1232.62937,761.878613 L1236.10852,763.707708 L1235.44406,759.833623 L1238.25875,757.08998 L1234.36895,756.524759 L1232.62937,753 L1230.8898,756.524759 L1227,757.08998 L1229.81469,759.833623 L1229.15023,763.707708 L1232.62937,761.878613 L1232.62937,761.878613 Z M1167.53757,709.549133 L1173.62608,712.750049 L1172.46328,705.9704 L1177.38898,701.169026 L1170.58182,700.179889 L1167.53757,694.011561 L1164.49332,700.179889 L1157.68617,701.169026 L1162.61187,705.9704 L1161.44907,712.750049 L1167.53757,709.549133 L1167.53757,709.549133 Z M945.555078,632.647399 L952.078475,636.076952 L950.832617,628.813042 L956.110156,623.668713 L948.816777,622.608923 L945.555078,616 L942.29338,622.608923 L935,623.668713 L940.277539,628.813042 L939.031681,636.076952 L945.555078,632.647399 L945.555078,632.647399 Z" opacity="0.1"></path>
	    <path d="M298.17341,609.294798 L292.5198,612.267077 L293.599543,605.971689 L289.025676,601.51327 L295.346605,600.594785 L298.17341,594.867052 L301.000216,600.594785 L307.321145,601.51327 L302.747278,605.971689 L303.827021,612.267077 L298.17341,609.294798 L298.17341,609.294798 L298.17341,609.294798 Z M31.8150289,486.224735 L25.2916319,489.654288 L26.5374899,482.390379 L21.2599508,477.24605 L28.5533304,476.18626 L31.8150289,469.577337 L35.0767274,476.18626 L42.370107,477.24605 L37.092568,482.390379 L38.3384259,489.654288 L31.8150289,486.224735 L31.8150289,486.224735 L31.8150289,486.224735 Z M432.83237,496.83237 L427.178759,499.804649 L428.258503,493.509261 L423.684636,489.050842 L430.005565,488.132358 L432.83237,482.404624 L435.659175,488.132358 L441.980104,489.050842 L437.406237,493.509261 L438.485981,499.804649 L432.83237,496.83237 L432.83237,496.83237 L432.83237,496.83237 Z M247.861272,521.988439 L243.947233,524.046171 L244.694748,519.687825 L241.528225,516.601228 L245.904253,515.965354 L247.861272,512 L249.818291,515.965354 L254.194319,516.601228 L251.027795,519.687825 L251.77531,524.046171 L247.861272,521.988439 L247.861272,521.988439 L247.861272,521.988439 Z M524.992006,461.687861 L521.512861,463.516956 L522.177319,459.642871 L519.362631,456.899229 L523.252434,456.334008 L524.992006,452.809249 L526.731579,456.334008 L530.621381,456.899229 L527.806694,459.642871 L528.471151,463.516956 L524.992006,461.687861 L524.992006,461.687861 L524.992006,461.687861 Z M411.375723,620.023121 L407.896577,621.852216 L408.561035,617.978131 L405.746348,615.234489 L409.63615,614.669268 L411.375723,611.144509 L413.115295,614.669268 L417.005098,615.234489 L414.19041,617.978131 L414.854868,621.852216 L411.375723,620.023121 L411.375723,620.023121 L411.375723,620.023121 Z M855.647905,503.491329 L860.43173,506.006335 L859.5181,500.679468 L863.388296,496.90696 L858.039817,496.129781 L855.647905,491.283237 L853.255993,496.129781 L847.907514,496.90696 L851.77771,500.679468 L850.864081,506.006335 L855.647905,503.491329 L855.647905,503.491329 L855.647905,503.491329 Z M756.193118,498.682081 L761.411835,501.425723 L760.415149,495.614596 L764.63718,491.499132 L758.802477,490.6513 L756.193118,485.364162 L753.583759,490.6513 L747.749055,491.499132 L751.971086,495.614596 L750.9744,501.425723 L756.193118,498.682081 L756.193118,498.682081 L756.193118,498.682081 Z M937.107613,455.398844 L941.021652,457.456576 L940.274137,453.09823 L943.44066,450.011632 L939.064632,449.375758 L937.107613,445.410405 L935.150594,449.375758 L930.774566,450.011632 L933.94109,453.09823 L933.193575,457.456576 L937.107613,455.398844 L937.107613,455.398844 L937.107613,455.398844 Z M1167.87912,604.780901 L1172.66294,602.265896 L1171.74931,607.592763 L1175.61951,611.365271 L1170.27103,612.14245 L1167.87912,616.988994 L1165.48721,612.14245 L1160.13873,611.365271 L1164.00892,607.592763 L1163.09529,602.265896 L1167.87912,604.780901 L1167.87912,604.780901 L1167.87912,604.780901 Z M1143.42672,520.662717 L1148.64544,517.919075 L1147.64875,523.730203 L1151.87078,527.845666 L1146.03608,528.693498 L1143.42672,533.980636 L1140.81736,528.693498 L1134.98266,527.845666 L1139.20469,523.730203 L1138.208,517.919075 L1143.42672,520.662717 L1143.42672,520.662717 L1143.42672,520.662717 Z M1236.57973,459.468208 L1242.66823,462.669124 L1241.50543,455.889475 L1246.43114,451.088101 L1239.62398,450.098964 L1236.57973,443.930636 L1233.53548,450.098964 L1226.72832,451.088101 L1231.65403,455.889475 L1230.49123,462.669124 L1236.57973,459.468208 L1236.57973,459.468208 L1236.57973,459.468208 Z M679.953757,483.514451 L674.300146,486.48673 L675.37989,480.191342 L670.806023,475.732923 L677.126952,474.814439 L679.953757,469.086705 L682.780563,474.814439 L689.101492,475.732923 L684.527624,480.191342 L685.607368,486.48673 L679.953757,483.514451 L679.953757,483.514451 L679.953757,483.514451 Z M110.925868,477.978059 L105.272257,475.00578 L106.352001,481.301168 L101.778134,485.759587 L108.099063,486.678072 L110.925868,492.405805 L113.752673,486.678072 L120.073602,485.759587 L115.499735,481.301168 L116.579479,475.00578 L110.925868,477.978059 L110.925868,477.978059 L110.925868,477.978059 Z M139.569029,597.618569 L136.089884,599.447664 L136.754341,595.573579 L133.939654,592.829937 L137.829456,592.264715 L139.569029,588.739956 L141.308601,592.264715 L145.198404,592.829937 L142.383716,595.573579 L143.048174,599.447664 L139.569029,597.618569 L139.569029,597.618569 L139.569029,597.618569 Z M10.0892599,632.763078 L6.17522165,634.820809 L6.92273644,630.462464 L3.75621301,627.375866 L8.13224076,626.739992 L10.0892599,622.774638 L12.046279,626.739992 L16.4223067,627.375866 L13.2557833,630.462464 L14.0032981,634.820809 L10.0892599,632.763078 L10.0892599,632.763078 L10.0892599,632.763078 Z M209.858046,565.433598 L205.074222,567.948603 L205.987851,562.621736 L202.117655,558.849228 L207.466134,558.072049 L209.858046,553.225505 L212.249958,558.072049 L217.598437,558.849228 L213.728241,562.621736 L214.64187,567.948603 L209.858046,565.433598 L209.858046,565.433598 L209.858046,565.433598 Z M316.67052,549.908767 L311.451803,552.652409 L312.448489,546.841282 L308.226458,542.725818 L314.061161,541.877986 L316.67052,536.590848 L319.279879,541.877986 L325.114583,542.725818 L320.892551,546.841282 L321.889238,552.652409 L316.67052,549.908767 L316.67052,549.908767 L316.67052,549.908767 Z M679.953757,587.098266 L674.300146,590.070545 L675.37989,583.775157 L670.806023,579.316738 L677.126952,578.398254 L679.953757,572.67052 L682.780563,578.398254 L689.101492,579.316738 L684.527624,583.775157 L685.607368,590.070545 L679.953757,587.098266 L679.953757,587.098266 L679.953757,587.098266 Z M1004.32846,541.595376 L1009.54717,544.339018 L1008.55049,538.52789 L1012.77252,534.412427 L1006.93781,533.564595 L1004.32846,528.277457 L1001.7191,533.564595 L995.884393,534.412427 L1000.10642,538.52789 L999.109738,544.339018 L1004.32846,541.595376 L1004.32846,541.595376 L1004.32846,541.595376 Z M915.904454,566.381503 L921.558064,569.353782 L920.478321,563.058394 L925.052188,558.599975 L918.731259,557.681491 L915.904454,551.953757 L913.077648,557.681491 L906.756719,558.599975 L911.330586,563.058394 L910.250843,569.353782 L915.904454,566.381503 L915.904454,566.381503 L915.904454,566.381503 Z M1242.59181,632.231214 L1249.11521,635.660767 L1247.86935,628.396857 L1253.14689,623.252528 L1245.85351,622.192738 L1242.59181,615.583815 L1239.33011,622.192738 L1232.03673,623.252528 L1237.31427,628.396857 L1236.06841,635.660767 L1242.59181,632.231214 L1242.59181,632.231214 L1242.59181,632.231214 Z M812.718976,624.462428 L817.937694,627.20607 L816.941008,621.394942 L821.163039,617.279479 L815.328335,616.431647 L812.718976,611.144509 L810.109617,616.431647 L804.274914,617.279479 L808.496945,621.394942 L807.500259,627.20607 L812.718976,624.462428 L812.718976,624.462428 L812.718976,624.462428 Z M604.485549,497.572254 L599.701725,500.08726 L600.615354,494.760393 L596.745159,490.987885 L602.093637,490.210705 L604.485549,485.364162 L606.877461,490.210705 L612.22594,490.987885 L608.355744,494.760393 L609.269374,500.08726 L604.485549,497.572254 L604.485549,497.572254 L604.485549,497.572254 Z M495.722543,575.630058 L492.243398,577.459153 L492.907856,573.585068 L490.093168,570.841425 L493.982971,570.276204 L495.722543,566.751445 L497.462116,570.276204 L501.351918,570.841425 L498.537231,573.585068 L499.201688,577.459153 L495.722543,575.630058 L495.722543,575.630058 L495.722543,575.630058 Z M788.716763,575.630058 L792.195908,577.459153 L791.53145,573.585068 L794.346138,570.841425 L790.456336,570.276204 L788.716763,566.751445 L786.97719,570.276204 L783.087388,570.841425 L785.902076,573.585068 L785.237618,577.459153 L788.716763,575.630058 L788.716763,575.630058 L788.716763,575.630058 Z M1048.41618,593.017341 L1054.0698,595.98962 L1052.99005,589.694232 L1057.56392,585.235813 L1051.24299,584.317329 L1048.41618,578.589595 L1045.58938,584.317329 L1039.26845,585.235813 L1043.84232,589.694232 L1042.76257,595.98962 L1048.41618,593.017341 L1048.41618,593.017341 L1048.41618,593.017341 Z M1190.06002,580.069364 L1184.8413,582.813006 L1185.83799,577.001879 L1181.61595,572.886416 L1187.45066,572.038584 L1190.06002,566.751445 L1192.66938,572.038584 L1198.50408,572.886416 L1194.28205,577.001879 L1195.27873,582.813006 L1190.06002,580.069364 L1190.06002,580.069364 L1190.06002,580.069364 Z M873.063584,531.236994 L876.542729,533.066089 L875.878271,529.192004 L878.692959,526.448362 L874.803156,525.88314 L873.063584,522.358382 L871.324011,525.88314 L867.434209,526.448362 L870.248896,529.192004 L869.584439,533.066089 L873.063584,531.236994 L873.063584,531.236994 L873.063584,531.236994 Z M509.454434,499.791908 L505.540396,501.849639 L506.287911,497.491294 L503.121387,494.404696 L507.497415,493.768822 L509.454434,489.803468 L511.411453,493.768822 L515.787481,494.404696 L512.620958,497.491294 L513.368472,501.849639 L509.454434,499.791908 L509.454434,499.791908 L509.454434,499.791908 Z M63.3403576,533.066089 L59.8612126,531.236994 L60.5256702,535.111079 L57.7109827,537.854721 L61.6007851,538.419943 L63.3403576,541.944702 L65.0799302,538.419943 L68.9697326,537.854721 L66.1550451,535.111079 L66.8195027,531.236994 L63.3403576,533.066089 L63.3403576,533.066089 L63.3403576,533.066089 Z M326.521926,456.010164 L320.433423,452.809249 L321.596223,459.588897 L316.67052,464.390271 L323.477675,465.379409 L326.521926,471.547737 L329.566178,465.379409 L336.373333,464.390271 L331.44763,459.588897 L332.61043,452.809249 L326.521926,456.010164 L326.521926,456.010164 L326.521926,456.010164 Z" opacity="0.200000003"></path>
	    <path d="M1150.78935,371.421965 L1145.57064,374.165608 L1146.56732,368.35448 L1142.34529,364.239017 L1148.17999,363.391185 L1150.78935,358.104046 L1153.39871,363.391185 L1159.23342,364.239017 L1155.01138,368.35448 L1156.00807,374.165608 L1150.78935,371.421965 L1150.78935,371.421965 L1150.78935,371.421965 Z M77.6878613,419.144509 L72.9040368,421.659514 L73.817666,416.332647 L69.9474707,412.560139 L75.295949,411.78296 L77.6878613,406.936416 L80.0797735,411.78296 L85.4282519,412.560139 L81.5580566,416.332647 L82.4716858,421.659514 L77.6878613,419.144509 L77.6878613,419.144509 L77.6878613,419.144509 Z M178.312139,435.421965 L173.528314,437.936971 L174.441943,432.610104 L170.571748,428.837596 L175.920226,428.060416 L178.312139,423.213873 L180.704051,428.060416 L186.052529,428.837596 L182.182334,432.610104 L183.095963,437.936971 L178.312139,435.421965 L178.312139,435.421965 L178.312139,435.421965 Z M649.851406,419.514451 L655.93991,422.715367 L654.777109,415.935718 L659.702812,411.134344 L652.895658,410.145207 L649.851406,403.976879 L646.807154,410.145207 L640,411.134344 L644.925703,415.935718 L643.762902,422.715367 L649.851406,419.514451 L649.851406,419.514451 L649.851406,419.514451 Z M1058.3038,445.780347 L1064.8272,449.2099 L1063.58134,441.94599 L1068.85888,436.801661 L1061.5655,435.741871 L1058.3038,429.132948 L1055.04211,435.741871 L1047.74873,436.801661 L1053.02626,441.94599 L1051.78041,449.2099 L1058.3038,445.780347 L1058.3038,445.780347 L1058.3038,445.780347 Z M1036.10727,374.751445 L1040.8911,377.26645 L1039.97747,371.939584 L1043.84766,368.167076 L1038.49918,367.389896 L1036.10727,362.543353 L1033.71536,367.389896 L1028.36688,368.167076 L1032.23708,371.939584 L1031.32345,377.26645 L1036.10727,374.751445 L1036.10727,374.751445 L1036.10727,374.751445 Z M1185.70877,397.155998 L1189.62281,395.098266 L1188.87529,399.456611 L1192.04182,402.543209 L1187.66579,403.179083 L1185.70877,407.144437 L1183.75175,403.179083 L1179.37572,402.543209 L1182.54225,399.456611 L1181.79473,395.098266 L1185.70877,397.155998 L1185.70877,397.155998 L1185.70877,397.155998 Z M876.349034,246.751445 L881.132859,244.23644 L880.219229,249.563307 L884.089425,253.335815 L878.740946,254.112994 L876.349034,258.959538 L873.957122,254.112994 L868.608643,253.335815 L872.478839,249.563307 L871.56521,244.23644 L876.349034,246.751445 L876.349034,246.751445 L876.349034,246.751445 Z M1263.99166,278.358453 L1270.51506,281.788006 L1269.2692,274.524097 L1274.54674,269.379768 L1267.25336,268.319978 L1263.99166,261.711054 L1260.72997,268.319978 L1253.43659,269.379768 L1258.71413,274.524097 L1257.46827,281.788006 L1263.99166,278.358453 L1263.99166,278.358453 L1263.99166,278.358453 Z M784.691428,448 L788.605467,450.057732 L787.857952,445.699386 L791.024475,442.612789 L786.648447,441.976915 L784.691428,438.011561 L782.734409,441.976915 L778.358382,442.612789 L781.524905,445.699386 L780.77739,450.057732 L784.691428,448 L784.691428,448 L784.691428,448 Z M1191.48299,299.815101 L1197.13661,302.78738 L1196.05686,296.491992 L1200.63073,292.033573 L1194.3098,291.115088 L1191.48299,285.387355 L1188.65619,291.115088 L1182.33526,292.033573 L1186.90913,296.491992 L1185.82938,302.78738 L1191.48299,299.815101 L1191.48299,299.815101 L1191.48299,299.815101 Z M1150.04947,276.878685 L1154.83329,279.39369 L1153.91966,274.066823 L1157.78986,270.294315 L1152.44138,269.517136 L1150.04947,264.670592 L1147.65756,269.517136 L1142.30908,270.294315 L1146.17927,274.066823 L1145.26564,279.39369 L1150.04947,276.878685 L1150.04947,276.878685 L1150.04947,276.878685 Z M1241.79513,346.427817 L1246.57896,348.942823 L1245.66533,343.615956 L1249.53552,339.843448 L1244.18705,339.066269 L1241.79513,334.219725 L1239.40322,339.066269 L1234.05474,339.843448 L1237.92494,343.615956 L1237.01131,348.942823 L1241.79513,346.427817 L1241.79513,346.427817 L1241.79513,346.427817 Z M1135.25178,319.052095 L1139.16582,321.109827 L1138.4183,316.751481 L1141.58483,313.664883 L1137.2088,313.029009 L1135.25178,309.063656 L1133.29476,313.029009 L1128.91873,313.664883 L1132.08526,316.751481 L1131.33774,321.109827 L1135.25178,319.052095 L1135.25178,319.052095 L1135.25178,319.052095 Z M992.454093,273.549205 L995.933238,275.3783 L995.26878,271.504215 L998.083468,268.760572 L994.193665,268.195351 L992.454093,264.670592 L990.71452,268.195351 L986.824718,268.760572 L989.639405,271.504215 L988.974948,275.3783 L992.454093,273.549205 L992.454093,273.549205 L992.454093,273.549205 Z M1108.61594,304.254407 L1112.52998,306.312139 L1111.78247,301.953793 L1114.94899,298.867196 L1110.57296,298.231322 L1108.61594,294.265968 L1106.65892,298.231322 L1102.2829,298.867196 L1105.44942,301.953793 L1104.7019,306.312139 L1108.61594,304.254407 L1108.61594,304.254407 L1108.61594,304.254407 Z M842.997445,317.202384 L849.085949,320.4033 L847.923148,313.623651 L852.848852,308.822277 L846.041697,307.83314 L842.997445,301.664812 L839.953193,307.83314 L833.146039,308.822277 L838.071742,313.623651 L836.908941,320.4033 L842.997445,317.202384 L842.997445,317.202384 L842.997445,317.202384 Z M985.722708,419.144509 L992.246105,422.574061 L991.000247,415.310152 L996.277786,410.165823 L988.984407,409.106033 L985.722708,402.49711 L982.46101,409.106033 L975.16763,410.165823 L980.445169,415.310152 L979.199311,422.574061 L985.722708,419.144509 L985.722708,419.144509 L985.722708,419.144509 Z M791.839163,286.459887 L797.492773,289.432166 L796.41303,283.136778 L800.986897,278.678359 L794.665968,277.759874 L791.839163,272.032141 L789.012357,277.759874 L782.691428,278.678359 L787.265296,283.136778 L786.185552,289.432166 L791.839163,286.459887 L791.839163,286.459887 L791.839163,286.459887 Z M923.644844,371.583887 L928.428669,374.098892 L927.515039,368.772025 L931.385235,364.999517 L926.036756,364.222338 L923.644844,359.375794 L921.252932,364.222338 L915.904454,364.999517 L919.774649,368.772025 L918.86102,374.098892 L923.644844,371.583887 L923.644844,371.583887 L923.644844,371.583887 Z M790.393228,370.312139 L796.916625,373.741691 L795.670767,366.477782 L800.948306,361.333453 L793.654927,360.273663 L790.393228,353.66474 L787.13153,360.273663 L779.83815,361.333453 L785.115689,366.477782 L783.869831,373.741691 L790.393228,370.312139 L790.393228,370.312139 L790.393228,370.312139 Z M595.912271,436.531792 L601.130988,439.275434 L600.134302,433.464307 L604.356333,429.348843 L598.521629,428.501011 L595.912271,423.213873 L593.302912,428.501011 L587.468208,429.348843 L591.690239,433.464307 L590.693553,439.275434 L595.912271,436.531792 L595.912271,436.531792 L595.912271,436.531792 Z M366.982659,304.83237 L361.763941,302.088728 L362.760628,307.899855 L358.538596,312.015319 L364.3733,312.863151 L366.982659,318.150289 L369.592018,312.863151 L375.426721,312.015319 L371.20469,307.899855 L372.201377,302.088728 L366.982659,304.83237 L366.982659,304.83237 L366.982659,304.83237 Z M426.587382,351.815029 L420.933771,354.787308 L422.013515,348.49192 L417.439648,344.033501 L423.760577,343.115017 L426.587382,337.387283 L429.414187,343.115017 L435.735116,344.033501 L431.161249,348.49192 L432.240993,354.787308 L426.587382,351.815029 L426.587382,351.815029 L426.587382,351.815029 Z M480.598943,415.445087 L476.684905,417.502818 L477.432419,413.144473 L474.265896,410.057875 L478.641924,409.422001 L480.598943,405.456647 L482.555962,409.422001 L486.93199,410.057875 L483.765466,413.144473 L484.512981,417.502818 L480.598943,415.445087 L480.598943,415.445087 L480.598943,415.445087 Z M532.39085,402.49711 L527.172133,405.240752 L528.168819,399.429625 L523.946788,395.314161 L529.781492,394.466329 L532.39085,389.179191 L535.000209,394.466329 L540.834913,395.314161 L536.612882,399.429625 L537.609568,405.240752 L532.39085,402.49711 L532.39085,402.49711 L532.39085,402.49711 Z M580.483336,330.566402 L576.569298,328.508671 L577.316812,332.867016 L574.150289,335.953614 L578.526317,336.589488 L580.483336,340.554841 L582.440355,336.589488 L586.816383,335.953614 L583.649859,332.867016 L584.397374,328.508671 L580.483336,330.566402 L580.483336,330.566402 L580.483336,330.566402 Z M530.911082,265.618497 L524.822578,262.417581 L525.985378,269.19723 L521.059675,273.998604 L527.86683,274.987741 L530.911082,281.156069 L533.955333,274.987741 L540.762488,273.998604 L535.836785,269.19723 L536.999585,262.417581 L530.911082,265.618497 L530.911082,265.618497 L530.911082,265.618497 Z M737.897649,336.647399 L731.809145,339.848315 L732.971946,333.068666 L728.046243,328.267292 L734.853397,327.278155 L737.897649,321.109827 L740.941901,327.278155 L747.749055,328.267292 L742.823352,333.068666 L743.986153,339.848315 L737.897649,336.647399 L737.897649,336.647399 L737.897649,336.647399 Z M227.144509,369.572254 L222.360684,367.057249 L223.274313,372.384116 L219.404118,376.156624 L224.752596,376.933803 L227.144509,381.780347 L229.536421,376.933803 L234.884899,376.156624 L231.014704,372.384116 L231.928333,367.057249 L227.144509,369.572254 L227.144509,369.572254 L227.144509,369.572254 Z M246.05559,316.67052 L240.836873,313.926878 L241.833559,319.738005 L237.611528,323.853469 L243.446231,324.701301 L246.05559,329.988439 L248.664949,324.701301 L254.499653,323.853469 L250.277621,319.738005 L251.274308,313.926878 L246.05559,316.67052 L246.05559,316.67052 L246.05559,316.67052 Z M26.0876594,254.349458 L22.3151513,250.479263 L21.5379719,255.827741 L16.6914284,258.219653 L21.5379719,260.611565 L22.3151513,265.960044 L26.0876594,262.089848 L31.4145262,263.003478 L28.8995208,258.219653 L31.4145262,253.435829 L26.0876594,254.349458 L26.0876594,254.349458 L26.0876594,254.349458 Z M248.035935,426.02856 L245.292292,423.213873 L244.727071,427.103675 L241.202312,428.843248 L244.727071,430.58282 L245.292292,434.472623 L248.035935,431.657935 L251.91002,432.322393 L250.080925,428.843248 L251.91002,425.364103 L248.035935,426.02856 L248.035935,426.02856 L248.035935,426.02856 Z M442.125615,247.587513 L438.353107,243.717318 L437.575928,249.065796 L432.729384,251.457708 L437.575928,253.84962 L438.353107,259.198099 L442.125615,255.327903 L447.452482,256.241533 L444.937477,251.457708 L447.452482,246.673884 L442.125615,247.587513 L442.125615,247.587513 L442.125615,247.587513 Z M255.963069,250.865874 L252.876471,247.69935 L252.240597,252.075378 L248.275243,254.032397 L252.240597,255.989416 L252.876471,260.365444 L255.963069,257.19892 L260.321414,257.946435 L258.263683,254.032397 L260.321414,250.118359 L255.963069,250.865874 L255.963069,250.865874 L255.963069,250.865874 Z M29.6823523,371.771291 L26.2032072,369.942197 L26.8676648,373.816282 L24.0529773,376.559924 L27.9427797,377.125145 L29.6823523,380.649904 L31.4219248,377.125145 L35.3117273,376.559924 L32.4970398,373.816282 L33.1614974,369.942197 L29.6823523,371.771291 L29.6823523,371.771291 L29.6823523,371.771291 Z M320.369942,373.271676 L314.716331,370.299397 L315.796075,376.594785 L311.222208,381.053204 L317.543137,381.971689 L320.369942,387.699422 L323.196748,381.971689 L329.517677,381.053204 L324.943809,376.594785 L326.023553,370.299397 L320.369942,373.271676 L320.369942,373.271676 L320.369942,373.271676 Z M175.805444,292.897976 L176.552959,297.256322 L173.386436,300.342919 L177.762463,300.978793 L179.719482,304.944147 L181.676502,300.978793 L186.052529,300.342919 L182.886006,297.256322 L183.633521,292.897976 L179.719482,294.955708 L175.805444,292.897976 Z M135.000506,354.699976 L130.216682,352.184971 L131.130311,357.511838 L127.260116,361.284346 L132.608594,362.061525 L135.000506,366.908069 L137.392418,362.061525 L142.740897,361.284346 L138.870702,357.511838 L139.784331,352.184971 L135.000506,354.699976 L135.000506,354.699976 L135.000506,354.699976 Z M335.907514,245.641618 L330.688797,242.897976 L331.685483,248.709104 L327.463452,252.824567 L333.298156,253.672399 L335.907514,258.959538 L338.516873,253.672399 L344.351577,252.824567 L340.129546,248.709104 L341.126232,242.897976 L335.907514,245.641618 L335.907514,245.641618 L335.907514,245.641618 Z M651.294962,317.040462 L657.81836,320.470015 L656.572502,313.206106 L661.850041,308.061777 L654.556661,307.001987 L651.294962,300.393064 L648.033264,307.001987 L640.739884,308.061777 L646.017423,313.206106 L644.771565,320.470015 L651.294962,317.040462 L651.294962,317.040462 L651.294962,317.040462 Z M946.58126,317.572326 L950.495299,319.630058 L949.747784,315.271712 L952.914307,312.185115 L948.538279,311.549241 L946.58126,307.583887 L944.624241,311.549241 L940.248214,312.185115 L943.414737,315.271712 L942.667222,319.630058 L946.58126,317.572326 L946.58126,317.572326 L946.58126,317.572326 Z M52.5317919,317.040462 L47.7479674,319.555468 L48.6615966,314.228601 L44.7914013,310.456093 L50.1398797,309.678914 L52.5317919,304.83237 L54.9237041,309.678914 L60.2721825,310.456093 L56.4019872,314.228601 L57.3156164,319.555468 L52.5317919,317.040462 L52.5317919,317.040462 L52.5317919,317.040462 Z" opacity="0.3"></path>
	    <path d="M597.82659,205.687861 L592.607872,208.431503 L593.604558,202.620376 L589.382527,198.504913 L595.217231,197.657081 L597.82659,192.369942 L600.435948,197.657081 L606.270652,198.504913 L602.048621,202.620376 L603.045307,208.431503 L597.82659,205.687861 L597.82659,205.687861 L597.82659,205.687861 Z M1246.23444,245.80354 L1241.45062,248.318545 L1242.36424,242.991679 L1238.49405,239.21917 L1243.84253,238.441991 L1246.23444,233.595448 L1248.62635,238.441991 L1253.97483,239.21917 L1250.10463,242.991679 L1251.01826,248.318545 L1246.23444,245.80354 L1246.23444,245.80354 L1246.23444,245.80354 Z M646.65896,256 L643.179814,257.829095 L643.844272,253.95501 L641.029585,251.211368 L644.919387,250.646146 L646.65896,247.121387 L648.398532,250.646146 L652.288335,251.211368 L649.473647,253.95501 L650.138105,257.829095 L646.65896,256 L646.65896,256 L646.65896,256 Z M975.436752,245.063656 L969.783141,248.035935 L970.862885,241.740547 L966.289017,237.282128 L972.609946,236.363643 L975.436752,230.63591 L978.263557,236.363643 L984.584486,237.282128 L980.010619,241.740547 L981.090362,248.035935 L975.436752,245.063656 L975.436752,245.063656 L975.436752,245.063656 Z M1135.25178,245.063656 L1131.33774,247.121387 L1132.08526,242.763042 L1128.91873,239.676444 L1133.29476,239.04057 L1135.25178,235.075216 L1137.2088,239.04057 L1141.58483,239.676444 L1138.4183,242.763042 L1139.16582,247.121387 L1135.25178,245.063656 L1135.25178,245.063656 L1135.25178,245.063656 Z M1182.33526,124.300578 L1177.11654,127.04422 L1178.11323,121.233093 L1173.8912,117.117629 L1179.7259,116.269797 L1182.33526,110.982659 L1184.94462,116.269797 L1190.77932,117.117629 L1186.55729,121.233093 L1187.55398,127.04422 L1182.33526,124.300578 L1182.33526,124.300578 L1182.33526,124.300578 Z M1066.44253,243.953829 L1062.96339,245.782924 L1063.62784,241.908839 L1060.81316,239.165197 L1064.70296,238.599975 L1066.44253,235.075216 L1068.1821,238.599975 L1072.07191,239.165197 L1069.25722,241.908839 L1069.92168,245.782924 L1066.44253,243.953829 L1066.44253,243.953829 L1066.44253,243.953829 Z M298.587382,215.676301 L294.673344,217.734032 L295.420859,213.375687 L292.254335,210.289089 L296.630363,209.653215 L298.587382,205.687861 L300.544401,209.653215 L304.920429,210.289089 L301.753906,213.375687 L302.50142,217.734032 L298.587382,215.676301 L298.587382,215.676301 L298.587382,215.676301 Z M413.595376,89.1560694 L407.071979,92.5856221 L408.317837,85.3217128 L403.040298,80.1773836 L410.333677,79.1175936 L413.595376,72.5086705 L416.857074,79.1175936 L424.150454,80.1773836 L418.872915,85.3217128 L420.118773,92.5856221 L413.595376,89.1560694 L413.595376,89.1560694 L413.595376,89.1560694 Z M452.069364,130.589595 L445.545967,134.019148 L446.791825,126.755239 L441.514286,121.61091 L448.807666,120.55112 L452.069364,113.942197 L455.331063,120.55112 L462.624442,121.61091 L457.346903,126.755239 L458.592761,134.019148 L452.069364,130.589595 L452.069364,130.589595 L452.069364,130.589595 Z M653.317919,135.028902 L646.794522,138.458455 L648.04038,131.194545 L642.762841,126.050216 L650.056221,124.990426 L653.317919,118.381503 L656.579618,124.990426 L663.872997,126.050216 L658.595458,131.194545 L659.841316,138.458455 L653.317919,135.028902 L653.317919,135.028902 L653.317919,135.028902 Z M58.4508671,230.473988 L54.5368288,232.53172 L55.2843436,228.173375 L52.1178202,225.086777 L56.4938479,224.450903 L58.4508671,220.485549 L60.4078862,224.450903 L64.7839139,225.086777 L61.6173905,228.173375 L62.3649053,232.53172 L58.4508671,230.473988 L58.4508671,230.473988 L58.4508671,230.473988 Z M23.4533734,165.323025 L18.2346558,168.066667 L19.2313422,162.25554 L15.009311,158.140076 L20.8440146,157.292244 L23.4533734,152.005106 L26.0627322,157.292244 L31.8974359,158.140076 L27.6754047,162.25554 L28.672091,168.066667 L23.4533734,165.323025 L23.4533734,165.323025 L23.4533734,165.323025 Z M143.669681,215.192796 L138.01607,218.165075 L139.095814,211.869687 L134.521946,207.411269 L140.842875,206.492784 L143.669681,200.765051 L146.496486,206.492784 L152.817415,207.411269 L148.243548,211.869687 L149.323292,218.165075 L143.669681,215.192796 L143.669681,215.192796 L143.669681,215.192796 Z M160.229001,148.346821 L155.445176,150.861826 L156.358805,145.534959 L152.48861,141.762451 L157.837088,140.985272 L160.229001,136.138728 L162.620913,140.985272 L167.969391,141.762451 L164.099196,145.534959 L165.012825,150.861826 L160.229001,148.346821 L160.229001,148.346821 L160.229001,148.346821 Z M200.670592,188.136587 L196.756554,190.194319 L197.504069,185.835973 L194.337545,182.749375 L198.713573,182.113501 L200.670592,178.148148 L202.627611,182.113501 L207.003639,182.749375 L203.837115,185.835973 L204.58463,190.194319 L200.670592,188.136587 L200.670592,188.136587 L200.670592,188.136587 Z M1133.8288,210.49711 L1129.04498,213.012115 L1129.95861,207.685248 L1126.08841,203.91274 L1131.43689,203.135561 L1133.8288,198.289017 L1136.22072,203.135561 L1141.56919,203.91274 L1137.699,207.685248 L1138.61263,213.012115 L1133.8288,210.49711 L1133.8288,210.49711 L1133.8288,210.49711 Z M1014.70742,201.248555 L1011.22827,203.07765 L1011.89273,199.203565 L1009.07804,196.459923 L1012.96784,195.894701 L1014.70742,192.369942 L1016.44699,195.894701 L1020.33679,196.459923 L1017.5221,199.203565 L1018.18656,203.07765 L1014.70742,201.248555 L1014.70742,201.248555 L1014.70742,201.248555 Z M1145.66695,166.843931 L1141.75291,168.901662 L1142.50043,164.543317 L1139.33391,161.456719 L1143.70993,160.820845 L1145.66695,156.855491 L1147.62397,160.820845 L1152,161.456719 L1148.83348,164.543317 L1149.58099,168.901662 L1145.66695,166.843931 L1145.66695,166.843931 L1145.66695,166.843931 Z M1015.4473,147.606936 L1009.79369,150.579215 L1010.87343,144.283827 L1006.29957,139.825409 L1012.62049,138.906924 L1015.4473,133.179191 L1018.27411,138.906924 L1024.59503,139.825409 L1020.02117,144.283827 L1021.10091,150.579215 L1015.4473,147.606936 L1015.4473,147.606936 L1015.4473,147.606936 Z M772.853278,209.017341 L768.069454,211.532346 L768.983083,206.20548 L765.112887,202.432972 L770.461366,201.655792 L772.853278,196.809249 L775.24519,201.655792 L780.593669,202.432972 L776.723473,206.20548 L777.637103,211.532346 L772.853278,209.017341 L772.853278,209.017341 L772.853278,209.017341 Z M1084.93964,157.225434 L1080.15582,159.740439 L1081.06945,154.413572 L1077.19925,150.641064 L1082.54773,149.863885 L1084.93964,145.017341 L1087.33155,149.863885 L1092.68003,150.641064 L1088.80984,154.413572 L1089.72347,159.740439 L1084.93964,157.225434 L1084.93964,157.225434 L1084.93964,157.225434 Z M953.297011,125.410405 L949.382973,127.468136 L950.130488,123.109791 L946.963964,120.023193 L951.339992,119.387319 L953.297011,115.421965 L955.25403,119.387319 L959.630058,120.023193 L956.463534,123.109791 L957.211049,127.468136 L953.297011,125.410405 L953.297011,125.410405 L953.297011,125.410405 Z M1245.49456,162.982587 L1242.01541,164.811682 L1242.67987,160.937597 L1239.86518,158.193955 L1243.75498,157.628733 L1245.49456,154.103974 L1247.23413,157.628733 L1251.12393,158.193955 L1248.30924,160.937597 L1248.9737,164.811682 L1245.49456,162.982587 L1245.49456,162.982587 L1245.49456,162.982587 Z M912.603369,71.7687861 L906.514865,74.969702 L907.677666,68.1900533 L902.751963,63.3886795 L909.559117,62.399542 L912.603369,56.2312139 L915.647621,62.399542 L922.454776,63.3886795 L917.529072,68.1900533 L918.691873,74.969702 L912.603369,71.7687861 L912.603369,71.7687861 L912.603369,71.7687861 Z M576.369942,123.930636 L570.716331,126.902915 L571.796075,120.607527 L567.222208,116.149108 L573.543137,115.230623 L576.369942,109.50289 L579.196748,115.230623 L585.517677,116.149108 L580.943809,120.607527 L582.023553,126.902915 L576.369942,123.930636 L576.369942,123.930636 L576.369942,123.930636 Z M1221.07837,22.0346103 L1217.16433,24.0923419 L1217.91185,19.7339963 L1214.74532,16.6473988 L1219.12135,16.0115248 L1221.07837,12.046171 L1223.03539,16.0115248 L1227.41142,16.6473988 L1224.24489,19.7339963 L1224.99241,24.0923419 L1221.07837,22.0346103 L1221.07837,22.0346103 L1221.07837,22.0346103 Z M1181.12461,71.6068646 L1176.34079,74.12187 L1177.25442,68.7950031 L1173.38422,65.0224951 L1178.7327,64.2453157 L1181.12461,59.3987721 L1183.51653,64.2453157 L1188.865,65.0224951 L1184.99481,68.7950031 L1185.90844,74.12187 L1181.12461,71.6068646 L1181.12461,71.6068646 L1181.12461,71.6068646 Z M1261.03213,76.046171 L1254.50873,79.4757237 L1255.75459,72.2118144 L1250.47705,67.0674853 L1257.77043,66.0076952 L1261.03213,59.3987721 L1264.29383,66.0076952 L1271.58721,67.0674853 L1266.30967,72.2118144 L1267.55552,79.4757237 L1261.03213,76.046171 L1261.03213,76.046171 L1261.03213,76.046171 Z M1136.04846,76.9479769 L1130.82974,79.6916191 L1131.82642,73.8804916 L1127.60439,69.7650283 L1133.4391,68.9171962 L1136.04846,63.6300578 L1138.65781,68.9171962 L1144.49252,69.7650283 L1140.27049,73.8804916 L1141.26717,79.6916191 L1136.04846,76.9479769 L1136.04846,76.9479769 L1136.04846,76.9479769 Z M1087.1593,40.1617779 L1081.94058,42.9054201 L1082.93726,37.0942927 L1078.71523,32.9788293 L1084.54994,32.1309973 L1087.1593,26.8438588 L1089.76865,32.1309973 L1095.60336,32.9788293 L1091.38133,37.0942927 L1092.37801,42.9054201 L1087.1593,40.1617779 L1087.1593,40.1617779 L1087.1593,40.1617779 Z M546.448654,12.2080925 L541.664829,14.7230979 L542.578458,9.39623101 L538.708263,5.62372296 L544.056742,4.84654356 L546.448654,0 L548.840566,4.84654356 L554.189044,5.62372296 L550.318849,9.39623101 L551.232478,14.7230979 L546.448654,12.2080925 L546.448654,12.2080925 L546.448654,12.2080925 Z M595.281024,55.1213873 L588.757627,58.5509401 L590.003485,51.2870307 L584.725946,46.1427016 L592.019325,45.0829115 L595.281024,38.4739884 L598.542722,45.0829115 L605.836102,46.1427016 L600.558563,51.2870307 L601.804421,58.5509401 L595.281024,55.1213873 L595.281024,55.1213873 L595.281024,55.1213873 Z M660.716763,56.6011561 L655.932939,59.1161614 L656.846568,53.7892946 L652.976372,50.0167865 L658.324851,49.2396071 L660.716763,44.3930636 L663.108675,49.2396071 L668.457154,50.0167865 L664.586958,53.7892946 L665.500587,59.1161614 L660.716763,56.6011561 L660.716763,56.6011561 L660.716763,56.6011561 Z M661.130735,19.2369942 L657.65159,21.066089 L658.316047,17.1920041 L655.50136,14.4483618 L659.391162,13.8831405 L661.130735,10.3583815 L662.870307,13.8831405 L666.76011,14.4483618 L663.945422,17.1920041 L664.60988,21.066089 L661.130735,19.2369942 L661.130735,19.2369942 L661.130735,19.2369942 Z M903.072931,21.8265896 L897.419321,24.7988687 L898.499064,18.5034806 L893.925197,14.045062 L900.246126,13.1265772 L903.072931,7.39884393 L905.899737,13.1265772 L912.220666,14.045062 L907.646798,18.5034806 L908.726542,24.7988687 L903.072931,21.8265896 L903.072931,21.8265896 L903.072931,21.8265896 Z M531.650966,183.121387 L527.736928,185.179119 L528.484443,180.820773 L525.317919,177.734176 L529.693947,177.098302 L531.650966,173.132948 L533.607985,177.098302 L537.984013,177.734176 L534.817489,180.820773 L535.565004,185.179119 L531.650966,183.121387 L531.650966,183.121387 L531.650966,183.121387 Z M100.298365,193.849711 L95.0796472,196.593353 L96.0763335,190.782226 L91.8543023,186.666762 L97.689006,185.81893 L100.298365,180.531792 L102.907724,185.81893 L108.742427,186.666762 L104.520396,190.782226 L105.517082,196.593353 L100.298365,193.849711 L100.298365,193.849711 L100.298365,193.849711 Z M709.22322,53.6416185 L704.439396,56.1566239 L705.353025,50.829757 L701.48283,47.057249 L706.831308,46.2800696 L709.22322,41.433526 L711.615133,46.2800696 L716.963611,47.057249 L713.093416,50.829757 L714.007045,56.1566239 L709.22322,53.6416185 L709.22322,53.6416185 L709.22322,53.6416185 Z M737.338827,21.8265896 L733.424789,23.8843213 L734.172304,19.5259757 L731.00578,16.4393782 L735.381808,15.8035041 L737.338827,11.8381503 L739.295846,15.8035041 L743.671874,16.4393782 L740.505351,19.5259757 L741.252865,23.8843213 L737.338827,21.8265896 L737.338827,21.8265896 L737.338827,21.8265896 Z M789.037731,54.3179191 L783.819014,57.0615613 L784.8157,51.2504338 L780.593669,47.1349705 L786.428372,46.2871384 L789.037731,41 L791.64709,46.2871384 L797.481794,47.1349705 L793.259762,51.2504338 L794.256449,57.0615613 L789.037731,54.3179191 L789.037731,54.3179191 L789.037731,54.3179191 Z M804.668307,20.716763 L801.189162,22.5458578 L801.853619,18.6717728 L799.038932,15.9281306 L802.928734,15.3629092 L804.668307,11.8381503 L806.40788,15.3629092 L810.297682,15.9281306 L807.482994,18.6717728 L808.147452,22.5458578 L804.668307,20.716763 L804.668307,20.716763 L804.668307,20.716763 Z M724.020908,95.8150289 L720.10687,97.8727606 L720.854385,93.514415 L717.687861,90.4278175 L722.063889,89.7919434 L724.020908,85.8265896 L725.977927,89.7919434 L730.353955,90.4278175 L727.187432,93.514415 L727.934946,97.8727606 L724.020908,95.8150289 L724.020908,95.8150289 L724.020908,95.8150289 Z M866.818596,50.3121387 L863.339451,52.1412335 L864.003908,48.2671486 L861.189221,45.5235063 L865.079023,44.958285 L866.818596,41.433526 L868.558169,44.958285 L872.447971,45.5235063 L869.633283,48.2671486 L870.297741,52.1412335 L866.818596,50.3121387 L866.818596,50.3121387 L866.818596,50.3121387 Z M772.113394,153.156069 L766.02489,156.356985 L767.187691,149.577337 L762.261987,144.775963 L769.069142,143.786825 L772.113394,137.618497 L775.157646,143.786825 L781.9648,144.775963 L777.039097,149.577337 L778.201898,156.356985 L772.113394,153.156069 L772.113394,153.156069 L772.113394,153.156069 Z M750.656746,81.017341 L746.742708,83.0750727 L747.490223,78.7167271 L744.323699,75.6301296 L748.699727,74.9942556 L750.656746,71.0289017 L752.613765,74.9942556 L756.989793,75.6301296 L753.82327,78.7167271 L754.570784,83.0750727 L750.656746,81.017341 L750.656746,81.017341 L750.656746,81.017341 Z M1072.36161,96.9248555 L1066.2731,100.125771 L1067.4359,93.3461227 L1062.5102,88.5447488 L1069.31736,87.5556114 L1072.36161,81.3872832 L1075.40586,87.5556114 L1082.21301,88.5447488 L1077.28731,93.3461227 L1078.45011,100.125771 L1072.36161,96.9248555 L1072.36161,96.9248555 L1072.36161,96.9248555 Z M835.003567,87.6763006 L828.48017,91.1058533 L829.726028,83.841944 L824.448489,78.6976149 L831.741869,77.6378248 L835.003567,71.0289017 L838.265266,77.6378248 L845.558645,78.6976149 L840.281106,83.841944 L841.526964,91.1058533 L835.003567,87.6763006 L835.003567,87.6763006 L835.003567,87.6763006 Z M1017.34104,41.0635838 L1011.68743,44.0358629 L1012.76717,37.7404748 L1008.19331,33.2820562 L1014.51424,32.3635714 L1017.34104,26.6358382 L1020.16785,32.3635714 L1026.48877,33.2820562 L1021.91491,37.7404748 L1022.99465,44.0358629 L1017.34104,41.0635838 L1017.34104,41.0635838 L1017.34104,41.0635838 Z M892.71455,193.479769 L888.800512,195.5375 L889.548026,191.179155 L886.381503,188.092557 L890.757531,187.456683 L892.71455,183.491329 L894.671569,187.456683 L899.047597,188.092557 L895.881073,191.179155 L896.628588,195.5375 L892.71455,193.479769 L892.71455,193.479769 L892.71455,193.479769 Z M669.595376,182.381503 L664.811551,184.896508 L665.72518,179.569641 L661.854985,175.797133 L667.203463,175.019954 L669.595376,170.17341 L671.987288,175.019954 L677.335766,175.797133 L673.465571,179.569641 L674.3792,184.896508 L669.595376,182.381503 L669.595376,182.381503 L669.595376,182.381503 Z M861.639405,152.786127 L855.116008,156.21568 L856.361866,148.951771 L851.084327,143.807441 L858.377707,142.747651 L861.639405,136.138728 L864.901104,142.747651 L872.194483,143.807441 L866.916944,148.951771 L868.162802,156.21568 L861.639405,152.786127 L861.639405,152.786127 L861.639405,152.786127 Z M956.939642,53.2716763 L951.720924,56.0153185 L952.717611,50.2041911 L948.495579,46.0887277 L954.330283,45.2408957 L956.939642,39.9537572 L959.549001,45.2408957 L965.383704,46.0887277 L961.161673,50.2041911 L962.158359,56.0153185 L956.939642,53.2716763 L956.939642,53.2716763 L956.939642,53.2716763 Z M21.1307347,12.2080925 L16.3469102,14.7230979 L17.2605394,9.39623101 L13.3903441,5.62372296 L18.7388225,4.84654356 L21.1307347,0 L23.522647,4.84654356 L28.8711253,5.62372296 L25.00093,9.39623101 L25.9145592,14.7230979 L21.1307347,12.2080925 L21.1307347,12.2080925 L21.1307347,12.2080925 Z M69.9631047,55.1213873 L63.4397076,58.5509401 L64.6855656,51.2870307 L59.4080266,46.1427016 L66.7014062,45.0829115 L69.9631047,38.4739884 L73.2248032,45.0829115 L80.5181828,46.1427016 L75.2406437,51.2870307 L76.4865017,58.5509401 L69.9631047,55.1213873 L69.9631047,55.1213873 L69.9631047,55.1213873 Z M103.997787,22.566474 L99.2139623,25.0814794 L100.127591,19.7546125 L96.2573961,15.9821045 L101.605875,15.2049251 L103.997787,10.3583815 L106.389699,15.2049251 L111.738177,15.9821045 L107.867982,19.7546125 L108.781611,25.0814794 L103.997787,22.566474 L103.997787,22.566474 L103.997787,22.566474 Z M135.812816,19.2369942 L132.333671,21.066089 L132.998128,17.1920041 L130.183441,14.4483618 L134.073243,13.8831405 L135.812816,10.3583815 L137.552388,13.8831405 L141.442191,14.4483618 L138.627503,17.1920041 L139.291961,21.066089 L135.812816,19.2369942 L135.812816,19.2369942 L135.812816,19.2369942 Z M377.755012,21.8265896 L372.101401,24.7988687 L373.181145,18.5034806 L368.607278,14.045062 L374.928207,13.1265772 L377.755012,7.39884393 L380.581818,13.1265772 L386.902747,14.045062 L382.328879,18.5034806 L383.408623,24.7988687 L377.755012,21.8265896 L377.755012,21.8265896 L377.755012,21.8265896 Z M6.33304686,54.3815029 L2.41900865,56.4392346 L3.16652343,52.080889 L0,48.9942915 L4.37602775,48.3584174 L6.33304686,44.3930636 L8.29006597,48.3584174 L12.6660937,48.9942915 L9.49957029,52.080889 L10.2470851,56.4392346 L6.33304686,54.3815029 L6.33304686,54.3815029 L6.33304686,54.3815029 Z M49.9862261,106.543353 L44.7675084,109.286995 L45.7641948,103.475867 L41.5421636,99.360404 L47.3768672,98.512572 L49.9862261,93.2254335 L52.5955849,98.512572 L58.4302885,99.360404 L54.2082573,103.475867 L55.2049437,109.286995 L49.9862261,106.543353 L49.9862261,106.543353 L49.9862261,106.543353 Z M142.471775,76.5780347 L136.818164,79.5503137 L137.897908,73.2549257 L133.324041,68.7965071 L139.64497,67.8780223 L142.471775,62.150289 L145.298581,67.8780223 L151.61951,68.7965071 L147.045642,73.2549257 L148.125386,79.5503137 L142.471775,76.5780347 L142.471775,76.5780347 L142.471775,76.5780347 Z M183.905301,53.6416185 L179.121477,56.1566239 L180.035106,50.829757 L176.164911,47.057249 L181.513389,46.2800696 L183.905301,41.433526 L186.297213,46.2800696 L191.645692,47.057249 L187.775496,50.829757 L188.689126,56.1566239 L183.905301,53.6416185 L183.905301,53.6416185 L183.905301,53.6416185 Z M92.1596365,123.190751 L87.375812,125.705757 L88.2894412,120.37889 L84.4192458,116.606382 L89.7677242,115.829203 L92.1596365,110.982659 L94.5515487,115.829203 L99.9000271,116.606382 L96.0298318,120.37889 L96.9434609,125.705757 L92.1596365,123.190751 L92.1596365,123.190751 L92.1596365,123.190751 Z M212.020908,21.8265896 L208.10687,23.8843213 L208.854385,19.5259757 L205.687861,16.4393782 L210.063889,15.8035041 L212.020908,11.8381503 L213.977927,15.8035041 L218.353955,16.4393782 L215.187432,19.5259757 L215.934946,23.8843213 L212.020908,21.8265896 L212.020908,21.8265896 L212.020908,21.8265896 Z M260.225345,59.0615613 L261.222031,53.2504338 L257,49.1349705 L262.834704,48.2871384 L265.444062,43 L268.053421,48.2871384 L273.888125,49.1349705 L269.666094,53.2504338 L270.66278,59.0615613 L265.444062,56.3179191 L260.225345,59.0615613 Z M279.350388,20.716763 L275.871243,22.5458578 L276.5357,18.6717728 L273.721013,15.9281306 L277.610815,15.3629092 L279.350388,11.8381503 L281.08996,15.3629092 L284.979763,15.9281306 L282.165075,18.6717728 L282.829533,22.5458578 L279.350388,20.716763 L279.350388,20.716763 L279.350388,20.716763 Z M198.702989,95.8150289 L194.788951,97.8727606 L195.536466,93.514415 L192.369942,90.4278175 L196.74597,89.7919434 L198.702989,85.8265896 L200.660008,89.7919434 L205.036036,90.4278175 L201.869512,93.514415 L202.617027,97.8727606 L198.702989,95.8150289 L198.702989,95.8150289 L198.702989,95.8150289 Z M341.500677,50.3121387 L338.021532,52.1412335 L338.685989,48.2671486 L335.871302,45.5235063 L339.761104,44.958285 L341.500677,41.433526 L343.240249,44.958285 L347.130052,45.5235063 L344.315364,48.2671486 L344.979822,52.1412335 L341.500677,50.3121387 L341.500677,50.3121387 L341.500677,50.3121387 Z M246.795475,153.156069 L240.706971,156.356985 L241.869771,149.577337 L236.944068,144.775963 L243.751223,143.786825 L246.795475,137.618497 L249.839727,143.786825 L256.646881,144.775963 L251.721178,149.577337 L252.883978,156.356985 L246.795475,153.156069 L246.795475,153.156069 L246.795475,153.156069 Z M225.338827,81.017341 L221.424789,83.0750727 L222.172304,78.7167271 L219.00578,75.6301296 L223.381808,74.9942556 L225.338827,71.0289017 L227.295846,74.9942556 L231.671874,75.6301296 L228.505351,78.7167271 L229.252865,83.0750727 L225.338827,81.017341 L225.338827,81.017341 L225.338827,81.017341 Z M309.685648,87.6763006 L303.162251,91.1058533 L304.408109,83.841944 L299.13057,78.6976149 L306.42395,77.6378248 L309.685648,71.0289017 L312.947347,77.6378248 L320.240726,78.6976149 L314.963187,83.841944 L316.209045,91.1058533 L309.685648,87.6763006 L309.685648,87.6763006 L309.685648,87.6763006 Z M463.907514,30.7052023 L458.253904,33.6774814 L459.333647,27.3820933 L454.75978,22.9236747 L461.080709,22.0051899 L463.907514,16.2774566 L466.73432,22.0051899 L473.055249,22.9236747 L468.481382,27.3820933 L469.561125,33.6774814 L463.907514,30.7052023 L463.907514,30.7052023 L463.907514,30.7052023 Z M367.396631,193.479769 L363.482592,195.5375 L364.230107,191.179155 L361.063584,188.092557 L365.439612,187.456683 L367.396631,183.491329 L369.35365,187.456683 L373.729678,188.092557 L370.563154,191.179155 L371.310669,195.5375 L367.396631,193.479769 L367.396631,193.479769 L367.396631,193.479769 Z M410.309925,148.346821 L405.526101,150.861826 L406.43973,145.534959 L402.569535,141.762451 L407.918013,140.985272 L410.309925,136.138728 L412.701838,140.985272 L418.050316,141.762451 L414.180121,145.534959 L415.09375,150.861826 L410.309925,148.346821 L410.309925,148.346821 L410.309925,148.346821 Z M336.321486,152.786127 L329.798089,156.21568 L331.043947,148.951771 L325.766408,143.807441 L333.059788,142.747651 L336.321486,136.138728 L339.583185,142.747651 L346.876564,143.807441 L341.599025,148.951771 L342.844883,156.21568 L336.321486,152.786127 L336.321486,152.786127 L336.321486,152.786127 Z" opacity="0.5"></path>
	</g>
	<g fill="#9EABD8">
	    <polygon filter="url(#filter-2)" points="852.790417 441.985247 871.201907 451.66474 867.685625 431.163244 882.580833 416.644005 861.996162 413.652877 852.790417 395 843.584672 413.652877 823 416.644005 837.895208 431.163244 834.378927 451.66474 852.790417 441.985247"></polygon>
	    <polygon filter="url(#filter-3)" points="882.790417 623.985247 901.201907 633.66474 897.685625 613.163244 912.580833 598.644005 891.996162 595.652877 882.790417 577 873.584672 595.652877 853 598.644005 867.895208 613.163244 864.378927 633.66474 882.790417 623.985247"></polygon>
	    <polygon filter="url(#filter-4)" points="631.865198 330.191328 625.115485 309.398271 611.986149 327.176325 589.249187 326.898032 602.848753 344.348932 595.546251 364.969994 617.080581 357.977189 635.304348 371 635.01373 349.227309 653.57914 336.654787"></polygon>
	    <polygon filter="url(#filter-5)" points="1090.82353 540 1092.6231 529.507701 1085 522.077014 1095.53487 520.546209 1100.2462 511 1104.95754 520.546209 1115.4924 522.077014 1107.8693 529.507701 1109.66887 540 1100.2462 535.046209"></polygon>
	    <polygon filter="url(#filter-6)" points="571.379498 153.944835 556.202738 161.585346 559.101241 145.402484 546.822985 133.941718 563.791118 131.58067 571.379498 116.857016 578.967878 131.58067 595.936011 133.941718 583.657754 145.402484 586.556258 161.585346 571.379498 153.944835"></polygon>
	    <polygon filter="url(#filter-7)" points="497.052959 103.579312 487.197146 108.76082 489.079439 97.7862107 481.105918 90.0139491 492.125052 88.4127752 497.052959 78.4277457 501.980866 88.4127752 513 90.0139491 505.02648 97.7862107 506.908772 108.76082 497.052959 103.579312"></polygon>
	    <polygon filter="url(#filter-8)" points="634.525164 711.09467 624.961189 716.122749 626.787746 705.473106 619.050328 697.930988 629.743177 696.377226 634.525164 686.687861 639.307151 696.377226 650 697.930988 642.262582 705.473106 644.089139 716.122749"></polygon>
	    <polygon filter="url(#filter-9)" points="222.512296 242.062558 212.269323 232 210.159154 245.906114 197 252.125117 210.159154 258.34412 212.269323 272.250234 222.512296 262.187675 236.975607 264.563123 230.146958 252.125117 236.975607 239.687111 222.512296 242.062558"></polygon>
	    <polygon filter="url(#filter-10)" points="284.076543 399.8574 276.417471 392 274.839615 402.85866 265 407.7148 274.839615 412.57094 276.417471 423.4296 284.076543 415.5722 294.891326 417.427081 289.785278 407.7148 294.891326 398.002519 284.076543 399.8574"></polygon>
	    <polygon filter="url(#filter-11)" points="294.819396 287.933329 282.570336 294.099934 284.909698 281.038855 275 271.788948 288.694866 269.883362 294.819396 258 300.943927 269.883362 314.638793 271.788948 304.729095 281.038855 307.068457 294.099934 294.819396 287.933329"></polygon>
	    <polygon filter="url(#filter-12)" points="389.819739 506.373593 380.660636 511.188818 382.409869 500.990008 375 493.76717 385.240187 492.279184 389.819739 483 394.39929 492.279184 404.639477 493.76717 397.229608 500.990008 398.978841 511.188818 389.819739 506.373593"></polygon>
	    <polygon filter="url(#filter-13)" points="1216.63906 202.566402 1210.98545 205.538681 1212.0652 199.243293 1207.49133 194.784875 1213.81226 193.86639 1216.63906 188.138657 1219.46587 193.86639 1225.7868 194.784875 1221.21293 199.243293 1222.29267 205.538681 1216.63906 202.566402"></polygon>
	</g>
</svg>
