<svg xmlns="http://www.w3.org/2000/svg" xmlns:xlink="http://www.w3.org/1999/xlink" version="1.1" x="0px" y="0px" viewBox="-0.5 -5.315 42 74.375" enable-background="new -0.5 -5.315 42 59.5" xml:space="preserve"><path d="M35.368,33.844C37.648,30.022,39,25.296,39,20.185c0-12.682-8.312-23-18.527-23C10.287-2.815,2,7.503,2,20.185  c0,12.473,8.018,22.652,17.973,22.984v2.871L11,49.439v2.246h1V50.13l8.474-3.211L29,50.13v1.555h1v-2.246l-9.027-3.4v-2.869  c5.857-0.194,11.047-3.772,14.335-9.221c0.042-0.041,0.071-0.07,0.083-0.082L35.368,33.844z M20.473-1.815  c9.665,0,17.527,9.869,17.527,22c0,4.909-1.288,9.447-3.462,13.111c-0.36,0.328-1.511,1.285-3.521,2.23  c-3.079-1.387-6.617-2.092-10.521-2.092c-3.9,0-7.427,0.695-10.5,2.051c-2.405-1.148-3.597-2.325-3.658-2.389  C4.241,29.468,3,25.007,3,20.185C3,8.054,10.838-1.815,20.473-1.815z M29.736,36.071c-2.26,0.877-5.309,1.614-9.232,1.614  c-3.919,0-6.973-0.754-9.236-1.65c2.737-1.061,5.834-1.6,9.229-1.6C23.894,34.435,26.994,34.988,29.736,36.071z M20.473,42.185  c-4.881,0-9.298-2.535-12.471-6.611c2.331,1.402,6.412,3.111,12.502,3.111c6.001,0,10.046-1.631,12.392-2.996  C29.719,39.699,25.323,42.185,20.473,42.185z"/><text x="-0.5" y="69.185" fill="#000000" font-size="5px" font-weight="bold" font-family="'Helvetica Neue', Helvetica, Arial-Unicode, Arial, Sans-serif">Created by Heury &amp; Heury</text><text x="-0.5" y="74.185" fill="#000000" font-size="5px" font-weight="bold" font-family="'Helvetica Neue', Helvetica, Arial-Unicode, Arial, Sans-serif">from the Noun Project</text></svg>