<svg xmlns="http://www.w3.org/2000/svg" xmlns:xlink="http://www.w3.org/1999/xlink" version="1.1" x="0px" y="0px" viewBox="0 0 100 125" enable-background="new 0 0 100 100" xml:space="preserve"><g><path d="M50,52.917c-3.332,0-6.043,2.711-6.043,6.043s2.711,6.043,6.043,6.043s6.042-2.711,6.042-6.043S53.332,52.917,50,52.917z    M50,63.581c-2.548,0-4.621-2.073-4.621-4.621s2.073-4.621,4.621-4.621c2.549,0,4.62,2.073,4.62,4.621S52.549,63.581,50,63.581z"/><rect x="44.668" y="73.461" width="10.663" height="2.344"/><path d="M64.079,63.099c-0.494-0.371-1.078-0.931-1.044-1.501c0.033-0.597,0.713-1.125,0.972-1.274l0.168-0.137   c2.121-2.303,3.242-5.016,3.242-7.842c0-6.587-6.113-12.08-14.17-13.263V21.064h1.729v-3.553h1.452v-3.055h-1.452v-2.673h1.452   V8.729h-1.452V5h-9.952v3.729h-1.74v3.055h1.74v2.673h-1.74v3.055h1.74v3.553h1.729v18.018c-8.056,1.184-14.17,6.676-14.17,13.263   c0,2.826,1.121,5.539,3.318,7.914c0.277,0.226,0.99,0.975,0.968,1.725c-0.014,0.476-0.329,0.938-0.937,1.376   c-2.339,1.691-9.017,7.836-9.017,13.689C26.915,88.625,35.257,95,50.403,95c14.839,0,22.682-6.207,22.682-17.951   C73.085,71.738,68.434,66.36,64.079,63.099z M46.445,19.642V6.422h7.108v13.22h-0.307h-6.494H46.445z M48.175,38.837V21.064h3.65   v17.773H48.175z M50.403,93.578c-10.067,0-22.066-2.867-22.066-16.529c0-4.869,5.678-10.55,8.428-12.537   c0.988-0.715,1.501-1.554,1.525-2.496c0.04-1.596-1.408-2.792-1.419-2.792c-1.875-2.037-2.867-4.415-2.867-6.879   c0-6.664,7.176-12.086,15.996-12.086c8.819,0,15.995,5.422,15.995,12.086c0,2.435-0.968,4.787-2.801,6.808   c-0.372,0.237-1.501,1.062-1.579,2.355c-0.058,0.966,0.483,1.884,1.611,2.729c4.078,3.056,8.437,8.025,8.437,12.812   C71.663,88.018,64.51,93.578,50.403,93.578z"/></g><text x="0" y="115" fill="#000000" font-size="5px" font-weight="bold" font-family="'Helvetica Neue', Helvetica, Arial-Unicode, Arial, Sans-serif">Created by Giuditta Valentina Gentile</text><text x="0" y="120" fill="#000000" font-size="5px" font-weight="bold" font-family="'Helvetica Neue', Helvetica, Arial-Unicode, Arial, Sans-serif">from the Noun Project</text></svg>