<svg xmlns="http://www.w3.org/2000/svg" xmlns:xlink="http://www.w3.org/1999/xlink" version="1.1" x="0px" y="0px" viewBox="0 0 100 125" enable-background="new 0 0 100 100" xml:space="preserve"><g><path d="M47.71,69.744c-8.626,0-15.644-7.018-15.644-15.644s7.018-15.645,15.644-15.645S63.354,45.473,63.354,54.1   S56.337,69.744,47.71,69.744z M47.71,39.456c-8.075,0-14.644,6.569-14.644,14.645c0,8.074,6.569,14.644,14.644,14.644   s14.644-6.569,14.644-14.644C62.354,46.025,55.785,39.456,47.71,39.456z"/></g><circle cx="47.71" cy="54.1" r="1.604"/><path d="M13.291,22.111c-4.849,0-8.794-3.945-8.794-8.794s3.945-8.794,8.794-8.794s8.794,3.945,8.794,8.794  S18.14,22.111,13.291,22.111z M13.291,5.522c-4.298,0-7.794,3.497-7.794,7.794s3.497,7.794,7.794,7.794s7.794-3.497,7.794-7.794  S17.588,5.522,13.291,5.522z"/><path d="M13.291,18.021c-2.594,0-4.704-2.11-4.704-4.704s2.11-4.704,4.704-4.704s4.704,2.11,4.704,4.704  S15.884,18.021,13.291,18.021z M13.291,9.613c-2.042,0-3.704,1.662-3.704,3.704s1.662,3.704,3.704,3.704s3.704-1.662,3.704-3.704  S15.333,9.613,13.291,9.613z"/><g><path d="M13.291,90.117c-1.478,0-2.68-1.202-2.68-2.681c0-1.478,1.202-2.68,2.68-2.68s2.68,1.202,2.68,2.68   C15.971,88.915,14.769,90.117,13.291,90.117z M13.291,85.757c-0.926,0-1.68,0.754-1.68,1.68c0,0.927,0.754,1.681,1.68,1.681   s1.68-0.754,1.68-1.681C14.971,86.511,14.217,85.757,13.291,85.757z"/></g><g><path d="M60.497,86.041l-4.916-4.916l12.601-10.933l3.423,3.422L60.497,86.041z M57.048,81.178l3.408,3.408l9.773-10.933   l-2.097-2.096L57.048,81.178z"/></g><path d="M70.817,73.686l-2.646-2.646l0.388-0.353c3.602-3.275,13.175-12.209,14.211-14.179c0.887-1.688,0.481-12.317-0.022-19.348  h-1.614V12.475h6.885V37.16h-1.557c0.144,3.458,0.712,18.622-0.263,20.6c-1.021,2.073-13.597,14.209-15.027,15.586L70.817,73.686z   M69.619,71.073l1.212,1.212c4.085-3.943,13.695-13.394,14.471-14.967c0.7-1.424,0.467-13.121,0.138-20.637l-0.022-0.522h1.601  V13.475h-4.885V36.16h1.544l0.034,0.463c0.134,1.816,1.274,17.817-0.057,20.35C82.438,59.285,71.835,69.047,69.619,71.073z"/><path d="M84.51,4.292c-6.054,0-10.979,4.925-10.979,10.979c0,4.876,3.197,9.015,7.603,10.443v-1.064  c-3.843-1.388-6.603-5.063-6.603-9.378c0-5.502,4.477-9.979,9.979-9.979c5.503,0,9.979,4.477,9.979,9.979  c0,4.266-2.696,7.905-6.47,9.33v1.064c4.336-1.468,7.47-5.568,7.47-10.394C95.489,9.217,90.564,4.292,84.51,4.292z"/><path d="M84.51,9.46c-3.204,0-5.811,2.608-5.811,5.812c0,1.945,0.964,3.665,2.435,4.72v-1.301c-0.884-0.873-1.435-2.083-1.435-3.421  c0-2.653,2.159-4.811,4.811-4.811c2.653,0,4.812,2.158,4.812,4.811c0,1.266-0.501,2.41-1.303,3.269v1.352  c1.396-1.063,2.303-2.737,2.303-4.622C90.322,12.067,87.714,9.46,84.51,9.46z"/><g><path d="M52.074,32.288c8.607,1.719,15.433,8.42,17.341,16.958l0.979-0.206c-1.99-8.924-9.12-15.93-18.113-17.731L52.074,32.288z"/><path d="M42.936,75.823c-8.529-1.873-15.241-8.65-17.011-17.217l-0.979,0.206c1.851,8.953,8.868,16.035,17.783,17.989   L42.936,75.823z"/></g><g><path d="M52.797,28.855c9.962,2.004,17.857,9.776,20.051,19.669l0.979-0.206c-2.275-10.279-10.474-18.356-20.823-20.442   L52.797,28.855z"/><path d="M42.213,79.256c-9.884-2.159-17.666-10.005-19.72-19.927l-0.979,0.206c2.136,10.308,10.222,18.459,20.493,20.699   L42.213,79.256z"/></g><g><path d="M53.52,25.422c11.318,2.289,20.281,11.131,22.76,22.379l0.979-0.206C74.699,35.96,65.43,26.813,53.726,24.443L53.52,25.422   z"/><path d="M41.49,82.688C30.251,80.245,21.4,71.329,19.06,60.052l-0.979,0.206c2.421,11.664,11.577,20.884,23.203,23.409   L41.49,82.688z"/></g><g><path d="M54.273,21.845c12.729,2.586,22.806,12.543,25.582,25.203l0.979-0.206C77.977,33.795,67.595,23.533,54.48,20.866   L54.273,21.845z"/><path d="M40.737,86.264c-12.651-2.741-22.616-12.771-25.253-25.459l-0.979,0.206c2.718,13.075,12.988,23.41,26.025,26.232   L40.737,86.264z"/></g><path d="M86.691,44.297c0.79,3.139,1.214,6.422,1.214,9.803c0,22.163-18.031,40.194-40.195,40.194S7.515,76.263,7.515,54.1  c0-22.163,18.031-40.195,40.195-40.195c13.921,0,26.208,7.115,33.424,17.898v-1.738C73.647,19.683,61.459,12.906,47.71,12.906  c-22.715,0-41.195,18.48-41.195,41.195c0,22.715,18.48,41.194,41.195,41.194c22.716,0,41.195-18.48,41.195-41.194  c0-4.768-0.823-9.344-2.32-13.607C86.622,41.628,86.66,42.927,86.691,44.297z"/><text x="0" y="115" fill="#000000" font-size="5px" font-weight="bold" font-family="'Helvetica Neue', Helvetica, Arial-Unicode, Arial, Sans-serif">Created by Anton Noskov</text><text x="0" y="120" fill="#000000" font-size="5px" font-weight="bold" font-family="'Helvetica Neue', Helvetica, Arial-Unicode, Arial, Sans-serif">from the Noun Project</text></svg>