<svg xmlns="http://www.w3.org/2000/svg" xmlns:xlink="http://www.w3.org/1999/xlink" version="1.1" x="0px" y="0px" viewBox="0 0 100 125" enable-background="new 0 0 100 100" xml:space="preserve"><path d="M21.18,54.036l-5.801,5.8l-0.991-0.996l5.801-5.796L21.18,54.036z M31.262,71.88h1.397V57.001h-1.397V71.88z M50.055,59.365  l-6.322-6.321l-0.992,0.992l6.322,6.321L50.055,59.365z M20.051,68.223l1.271,0.572l5.149-11.514L25.2,56.716L20.051,68.223z   M37.458,57.281l5.145,11.514l1.272-0.572l-5.149-11.507L37.458,57.281z M89.317,38.857L62.75,84.263h21.056v1.398H39.262v-1.398  h21.865l26.849-45.887l-49.18-17.695v3.135c0,0.863-0.174,1.706-0.431,2.538c9.655,2.186,17.672,9.225,20.997,18.593l0.327,0.938  H43.708c-1.789,5.001-6.428,8.359-11.743,8.359c-5.328,0-9.967-3.358-11.756-8.359H4.236l0.331-0.938  c3.325-9.368,11.341-16.407,20.997-18.593c-0.257-0.832-0.431-1.674-0.431-2.538v-3.67c0-2.618,1.141-4.883,2.799-6.115V13.33  c0-1.631,1.324-2.956,2.955-2.956h2.151c1.631,0,2.958,1.325,2.958,2.956v0.701c1.445,1.072,2.472,2.935,2.717,5.138l49.976,17.975  l0.028-0.053l0.304,0.182l0.774,0.272l-0.052,0.148l0.186,0.109l-0.588,1.003l-0.02,0.059L89.317,38.857z M30.709,13.054h2.515  h1.342c-0.118-0.724-0.762-1.279-1.528-1.279h-2.151c-0.766,0-1.406,0.555-1.528,1.279H30.709z M26.535,23.816  c0,0.756,0.115,1.501,0.352,2.231c3.436-0.616,6.749-0.616,10.152,0c0.237-0.73,0.355-1.475,0.355-2.231v-3.67  c0-3.141-1.872-5.692-4.17-5.692h-2.515c-2.311,0-4.174,2.551-4.174,5.692V23.816z M42.2,45.885H21.718  c1.706,4.186,5.686,6.958,10.248,6.958C36.514,52.843,40.502,50.07,42.2,45.885z M37.359,27.528c-3.641-0.738-7.139-0.738-10.788,0  c-9.182,1.821-16.893,8.271-20.329,16.957h51.445C54.252,35.799,46.544,29.349,37.359,27.528z"/><text x="0" y="115" fill="#000000" font-size="5px" font-weight="bold" font-family="'Helvetica Neue', Helvetica, Arial-Unicode, Arial, Sans-serif">Created by Tyler Glaude</text><text x="0" y="120" fill="#000000" font-size="5px" font-weight="bold" font-family="'Helvetica Neue', Helvetica, Arial-Unicode, Arial, Sans-serif">from the Noun Project</text></svg>