<svg xmlns="http://www.w3.org/2000/svg" xmlns:xlink="http://www.w3.org/1999/xlink" version="1.1" x="0px" y="0px" viewBox="0 0 100 125" enable-background="new 0 0 100 100" xml:space="preserve"><g><path d="M5.083,82.666C2.837,82.666,1,80.828,1,78.584V21.417c0-2.246,1.837-4.083,4.083-4.083h89.833   c2.246,0,4.084,1.837,4.084,4.083v57.167c0,2.244-1.838,4.082-4.084,4.082H5.083z M17.333,19.375H5.083   c-1.123,0-2.042,0.919-2.042,2.042v57.167c0,1.123,0.919,2.041,2.042,2.041h89.833c1.123,0,2.042-0.918,2.042-2.041V21.417   c0-1.123-0.919-2.042-2.042-2.042h-12.25v10.208c0,3.369-2.756,6.125-6.125,6.125H23.458c-3.369,0-6.125-2.756-6.125-6.125V19.375z    M9.166,64.291c0-1.123,0.919-2.041,2.042-2.041h77.583c1.123,0,2.042,0.918,2.042,2.041v8.166c0,1.125-0.919,2.043-2.042,2.043   H11.208c-1.123,0-2.042-0.918-2.042-2.043V64.291z M11.208,72.457h77.583v-8.166H11.208V72.457z M19.375,29.583   c0,2.246,1.837,4.083,4.083,4.083h53.083c2.246,0,4.084-1.837,4.084-4.083V19.375h-61.25V29.583z M27.541,42.854   c3.369,0,6.125,2.756,6.125,6.125c0,3.369-2.756,6.125-6.125,6.125c-3.368,0-6.125-2.756-6.125-6.125   C21.416,45.61,24.173,42.854,27.541,42.854z M27.541,53.062c2.246,0,4.084-1.838,4.084-4.083c0-2.246-1.838-4.083-4.084-4.083   c-2.245,0-4.083,1.837-4.083,4.083C23.458,51.225,25.296,53.062,27.541,53.062z M27.541,23.458c1.43,0,2.042,0.613,2.042,2.042   c0,1.43-0.612,2.042-2.042,2.042c-1.429,0-2.041-0.612-2.041-2.042C25.5,24.071,26.112,23.458,27.541,23.458z M37.749,42.854H62.25   v12.25H37.749V42.854z M39.791,53.062h3.573c0.307-1.225,0.51-2.654,0.51-4.083c0-1.327-0.203-2.756-0.51-4.083h-3.573V53.062z    M45.405,53.062h4.9c-0.204-1.328-0.307-2.553-0.307-4.083c0-1.327,0.103-2.756,0.307-4.083h-4.9   c0.307,1.327,0.511,2.756,0.511,4.083C45.916,50.409,45.712,51.838,45.405,53.062z M49.999,26.521c1.43,0,2.042,0.612,2.042,2.042   s-0.612,2.042-2.042,2.042c-1.429,0-2.041-0.612-2.041-2.042S48.57,26.521,49.999,26.521z M52.348,53.062h7.86v-8.167h-7.86   c-0.204,1.327-0.307,2.756-0.307,4.083C52.041,50.409,52.144,51.734,52.348,53.062z M72.458,42.854   c3.368,0,6.125,2.756,6.125,6.125c0,3.369-2.757,6.125-6.125,6.125c-3.369,0-6.125-2.756-6.125-6.125   C66.333,45.61,69.089,42.854,72.458,42.854z M72.458,53.062c2.245,0,4.083-1.838,4.083-4.083c0-2.246-1.838-4.083-4.083-4.083   c-2.246,0-4.083,1.837-4.083,4.083C68.375,51.225,70.212,53.062,72.458,53.062z M72.458,23.458c1.429,0,2.042,0.613,2.042,2.042   c0,1.43-0.613,2.042-2.042,2.042s-2.042-0.612-2.042-2.042C70.416,24.071,71.029,23.458,72.458,23.458z"/></g><text x="0" y="115" fill="#000000" font-size="5px" font-weight="bold" font-family="'Helvetica Neue', Helvetica, Arial-Unicode, Arial, Sans-serif">Created by Yorlmar Campos</text><text x="0" y="120" fill="#000000" font-size="5px" font-weight="bold" font-family="'Helvetica Neue', Helvetica, Arial-Unicode, Arial, Sans-serif">from the Noun Project</text></svg>