<svg xmlns="http://www.w3.org/2000/svg" xmlns:xlink="http://www.w3.org/1999/xlink" version="1.1" x="0px" y="0px" viewBox="0 0 100 125" enable-background="new 0 0 100 100" xml:space="preserve"><g><rect x="51.898" y="5.565" width="1.5" height="10.079"/><rect x="85.296" y="47.542" width="10.079" height="1.5"/><rect x="78.547" y="16.603" transform="matrix(0.7071 0.7071 -0.7071 0.7071 38.5289 -49.7323)" width="1.5" height="10.078"/><rect x="20.959" y="20.893" transform="matrix(0.7071 0.7071 -0.7071 0.7071 22.9183 -12.0439)" width="10.078" height="1.5"/><rect x="33.187" y="12.723" transform="matrix(0.3828 0.9238 -0.9238 0.3828 36.0394 -26.999)" width="10.079" height="1.5"/><rect x="82.428" y="33.124" transform="matrix(-0.9239 0.3827 -0.3827 -0.9239 181.239 31.6963)" width="10.077" height="1.5"/><rect x="66.321" y="8.433" transform="matrix(0.9238 0.3828 -0.3828 0.9238 10.2664 -24.6492)" width="1.5" height="10.079"/><rect x="12.791" y="33.12" transform="matrix(0.9239 0.3826 -0.3826 0.9239 14.3154 -4.2446)" width="10.077" height="1.5"/><rect x="82.431" y="61.962" transform="matrix(-0.9238 -0.3828 0.3828 -0.9238 144.2707 154.132)" width="10.078" height="1.5"/><path d="M79.95,70.97c-2.357,0-4.663,0.718-6.604,2.041c-0.844-3.036-2.514-5.696-4.721-7.773   c4.672-4.406,7.342-10.532,7.342-16.945c0-12.858-10.461-23.32-23.32-23.32c-12.402,0-22.68,9.889-23.272,22.198   c-0.367-0.017-0.732-0.042-1.101-0.042c-13.041,0-23.65,10.611-23.65,23.654c0,13.042,10.609,23.652,23.65,23.652H79.95   c6.468,0,11.73-5.263,11.73-11.732S86.418,70.97,79.95,70.97z M52.648,26.472c12.031,0,21.82,9.789,21.82,21.82   c0,6.05-2.541,11.827-6.983,15.958c-2.917-2.298-6.58-3.659-10.493-3.659c-2.342,0-4.615,0.479-6.769,1.423   c-3.247-8.121-10.746-13.759-19.333-14.723C31.42,35.754,41.029,26.472,52.648,26.472z M79.95,92.935H28.275   c-12.213,0-22.15-9.938-22.15-22.152c0-12.216,9.937-22.154,22.15-22.154c9.301,0,17.67,5.892,20.828,14.661l0.285,0.792   l0.754-0.374c2.164-1.072,4.468-1.616,6.85-1.616c7.321,0,13.696,5.197,15.16,12.358l0.252,1.234l0.965-0.811   c1.845-1.55,4.182-2.403,6.582-2.403c5.641,0,10.23,4.59,10.23,10.232S85.591,92.935,79.95,92.935z"/></g><text x="0" y="115" fill="#000000" font-size="5px" font-weight="bold" font-family="'Helvetica Neue', Helvetica, Arial-Unicode, Arial, Sans-serif">Created by Juan Pablo Bravo</text><text x="0" y="120" fill="#000000" font-size="5px" font-weight="bold" font-family="'Helvetica Neue', Helvetica, Arial-Unicode, Arial, Sans-serif">from the Noun Project</text></svg>