<svg xmlns="http://www.w3.org/2000/svg" xmlns:xlink="http://www.w3.org/1999/xlink" version="1.1" x="0px" y="0px" viewBox="0 0 100 125" enable-background="new 0 0 100 100" xml:space="preserve"><g><g><path d="M50,5C25.147,5,5,25.147,5,50c0,24.852,20.147,45,45,45c24.852,0,45-20.148,45-45C95,25.147,74.852,5,50,5z M50,90    c-22.092,0-40-17.909-40-40c0-22.092,17.908-40,40-40c22.091,0,40,17.908,40,40C90,72.091,72.091,90,50,90z"/><path d="M55.657,50L65.91,39.747c1.556-1.556,1.556-4.101,0-5.657c-1.556-1.556-4.101-1.556-5.657,0L50,44.343L39.747,34.09    c-1.556-1.556-4.101-1.556-5.657,0c-1.556,1.556-1.556,4.101,0,5.657L44.343,50L34.09,60.253c-1.556,1.556-1.556,4.101,0,5.657    c1.556,1.556,4.101,1.556,5.657,0L50,55.657L60.253,65.91c1.556,1.556,4.101,1.556,5.657,0c1.556-1.556,1.556-4.101,0-5.657    L55.657,50z"/></g></g><g display="none"><path display="inline" d="M50,5C25.147,5,5,25.147,5,50c0,24.852,20.147,45,45,45c24.852,0,45-20.148,45-45   C95,25.147,74.852,5,50,5z M65.91,65.91c-1.556,1.556-4.101,1.556-5.657,0L50,55.657L39.747,65.91   c-1.556,1.556-4.101,1.556-5.657,0c-1.556-1.556-1.556-4.101,0-5.657L44.343,50L34.09,39.747c-1.556-1.556-1.556-4.101,0-5.657   c1.556-1.556,4.101-1.556,5.657,0L50,44.343L60.253,34.09c1.556-1.556,4.101-1.556,5.657,0c1.556,1.556,1.556,4.101,0,5.657   L55.657,50L65.91,60.253C67.466,61.809,67.466,64.354,65.91,65.91z"/></g><text x="0" y="115" fill="#000000" font-size="5px" font-weight="bold" font-family="'Helvetica Neue', Helvetica, Arial-Unicode, Arial, Sans-serif">Created by Marc Grützmacher</text><text x="0" y="120" fill="#000000" font-size="5px" font-weight="bold" font-family="'Helvetica Neue', Helvetica, Arial-Unicode, Arial, Sans-serif">from the Noun Project</text></svg>