<svg xmlns="http://www.w3.org/2000/svg" xmlns:xlink="http://www.w3.org/1999/xlink" version="1.1" x="0px" y="0px" viewBox="0 0 100 125" enable-background="new 0 0 100 100" xml:space="preserve"><g><g><path d="M50,5C25.147,5,5,25.147,5,50c0,24.852,20.147,45,45,45c24.852,0,45-20.148,45-45C95,25.147,74.852,5,50,5z M50,90    c-22.092,0-40-17.909-40-40c0-22.092,17.908-40,40-40c22.091,0,40,17.908,40,40C90,72.091,72.091,90,50,90z"/><path d="M67.471,46.642L56.072,38.75l-9.841-6.813c-2.709-1.875-6.409,0.063-6.409,3.358V50v14.705c0,3.295,3.7,5.233,6.409,3.358    l9.841-6.813l11.399-7.892C69.817,51.734,69.817,48.266,67.471,46.642z"/></g></g><g display="none"><path display="inline" d="M50,5C25.147,5,5,25.147,5,50c0,24.852,20.147,45,45,45c24.852,0,45-20.148,45-45   C95,25.147,74.852,5,50,5z M60.5,72.5h-21c-6.6,0-12-5.4-12-12v-21c0-6.6,5.4-12,12-12h21c6.6,0,12,5.4,12,12v21   C72.5,67.1,67.1,72.5,60.5,72.5z"/></g><text x="0" y="115" fill="#000000" font-size="5px" font-weight="bold" font-family="'Helvetica Neue', Helvetica, Arial-Unicode, Arial, Sans-serif">Created by Marc Grützmacher</text><text x="0" y="120" fill="#000000" font-size="5px" font-weight="bold" font-family="'Helvetica Neue', Helvetica, Arial-Unicode, Arial, Sans-serif">from the Noun Project</text></svg>