<svg xmlns="http://www.w3.org/2000/svg" xmlns:xlink="http://www.w3.org/1999/xlink" version="1.1" x="0px" y="0px" viewBox="0 0 100 125" enable-background="new 0 0 100 100" xml:space="preserve"><g><g><path d="M50,5C25.147,5,5,25.147,5,50c0,24.852,20.147,45,45,45c24.852,0,45-20.148,45-45C95,25.147,74.852,5,50,5z M50,90    c-22.092,0-40-17.909-40-40c0-22.092,17.908-40,40-40c22.091,0,40,17.908,40,40C90,72.091,72.091,90,50,90z"/><path d="M40,27.5c-2.2,0-4,1.8-4,4v37c0,2.2,1.8,4,4,4s4-1.8,4-4v-37C44,29.3,42.2,27.5,40,27.5z"/><path d="M60,27.5c-2.2,0-4,1.8-4,4v37c0,2.2,1.8,4,4,4s4-1.8,4-4v-37C64,29.3,62.2,27.5,60,27.5z"/></g></g><g display="none"><path display="inline" d="M50,5C25.147,5,5,25.147,5,50c0,24.852,20.147,45,45,45c24.852,0,45-20.148,45-45   C95,25.147,74.852,5,50,5z M68.5,54h-37c-2.2,0-4-1.8-4-4v0c0-2.2,1.8-4,4-4h37c2.2,0,4,1.8,4,4v0C72.5,52.2,70.7,54,68.5,54z"/></g><text x="0" y="115" fill="#000000" font-size="5px" font-weight="bold" font-family="'Helvetica Neue', Helvetica, Arial-Unicode, Arial, Sans-serif">Created by Marc Grützmacher</text><text x="0" y="120" fill="#000000" font-size="5px" font-weight="bold" font-family="'Helvetica Neue', Helvetica, Arial-Unicode, Arial, Sans-serif">from the Noun Project</text></svg>