<svg xmlns="http://www.w3.org/2000/svg" xmlns:xlink="http://www.w3.org/1999/xlink" version="1.1" x="0px" y="0px" viewBox="0 0 51.693 125" enable-background="new 0 0 51.693 100" xml:space="preserve"><path d="M26.694,55.508h-1.681c-13.655,0-18.11-12.729-18.154-12.857C1.554,30.886,9.28,11.768,9.36,11.58  c0.91-2.124-0.028-5.335-0.037-5.368C9.238,5.927,9.293,5.618,9.471,5.38C9.649,5.141,9.929,5,10.227,5h31.254  c0.297,0,0.577,0.141,0.756,0.38c0.177,0.238,0.232,0.547,0.147,0.833c-0.009,0.032-0.947,3.244-0.037,5.368  c0.081,0.188,7.806,19.306,2.468,31.156C44.805,42.779,40.349,55.508,26.694,55.508z M11.409,6.885  c0.25,1.361,0.465,3.614-0.316,5.438c-0.077,0.18-7.495,18.512-2.481,29.639c0.195,0.557,4.121,11.661,16.402,11.661h1.681  c12.282,0,16.208-11.104,16.369-11.577c5.047-11.211-2.371-29.543-2.448-29.723c-0.781-1.824-0.566-4.076-0.316-5.438H11.409z"/><path d="M25.854,90.302c-0.521,0-0.942-0.422-0.942-0.942V54.565c0-0.521,0.422-0.942,0.942-0.942s0.943,0.421,0.943,0.942v34.794  C26.796,89.88,26.374,90.302,25.854,90.302z"/><path d="M25.854,95.251c-0.736,0-18.026-0.051-18.026-4.397c0-4.346,17.291-4.396,18.026-4.396s18.026,0.051,18.026,4.396  C43.88,95.2,26.589,95.251,25.854,95.251z M9.743,90.854c0.689,0.938,6.423,2.513,16.111,2.513c9.688,0,15.422-1.575,16.111-2.513  c-0.688-0.937-6.423-2.512-16.111-2.512C16.166,88.342,10.432,89.917,9.743,90.854z"/><path d="M34.951,41.795c-2.841,0-6.009-0.212-9.125-0.85c-8.78-1.795-18.654-0.014-18.753,0.003  c-0.516,0.09-1.003-0.244-1.098-0.755c-0.094-0.512,0.244-1.003,0.756-1.098c0.418-0.077,10.325-1.869,19.474,0.003  c8.787,1.797,18.329,0.016,18.425-0.002c0.511-0.096,1.004,0.238,1.103,0.749c0.098,0.511-0.237,1.005-0.749,1.103  C44.715,40.998,40.449,41.795,34.951,41.795z"/><text x="0" y="115" fill="#000000" font-size="5px" font-weight="bold" font-family="'Helvetica Neue', Helvetica, Arial-Unicode, Arial, Sans-serif">Created by Gabriela Muñiz</text><text x="0" y="120" fill="#000000" font-size="5px" font-weight="bold" font-family="'Helvetica Neue', Helvetica, Arial-Unicode, Arial, Sans-serif">from the Noun Project</text></svg>