<svg xmlns="http://www.w3.org/2000/svg" xmlns:xlink="http://www.w3.org/1999/xlink" version="1.1" x="0px" y="0px" viewBox="0 0 100 125" enable-background="new 0 0 100 100" xml:space="preserve"><path fill="#000000" d="M70.9,7.4c-2.4,0-4.6,0.6-6.5,1.7c0,0,0,0,0,0c0,0,0,0,0,0c-4.1,2.3-6.8,6.7-6.8,11.6c0,0.5,0,1,0.1,1.5  L26.5,41.8c-0.5,0.3-0.6,0.9-0.3,1.4l2.3,3.8c-2.5,1.5-8.6,5.3-11.2,9.8c-4,6.9-1.1,13.6,1.2,18.9c0.8,1.8,1.5,3.5,1.9,5  c1.1,4.6-0.1,8.6-3.4,11.1c-0.4,0.3-0.5,1-0.2,1.4c0.2,0.3,0.5,0.4,0.8,0.4c0.2,0,0.4-0.1,0.6-0.2c3.9-3,5.4-7.8,4.2-13.1  c-0.4-1.6-1.2-3.4-2-5.3C18,69.7,15.5,63.8,19,57.8c2.3-4.1,8.1-7.8,10.4-9.1l2.4,4.1c0.1,0.2,0.4,0.4,0.6,0.5c0.1,0,0.2,0,0.2,0  c0.2,0,0.4-0.1,0.5-0.2l17.9-11.2v24.1H38.1c-1.5,0-2.8,0.9-3.3,2.3c-0.1,0.2-0.2,0.4-0.2,0.6v0.6c0,0.2,0.1,0.4,0.2,0.6  c0.5,1.3,1.8,2.3,3.3,2.3h34.2c1.5,0,2.8-0.9,3.3-2.3c0.1-0.2,0.2-0.4,0.2-0.6v-0.6c0-0.2-0.1-0.4-0.2-0.6c-0.5-1.3-1.8-2.3-3.3-2.3  H59.1v-29l6.3-3.9c0,0,0,0,0.1-0.1c1.7,0.8,3.5,1.2,5.5,1.2c2.9,0,5.5-0.9,7.7-2.5c0,0,0,0,0.1,0c0,0,0.1-0.1,0.1-0.1  c3.3-2.4,5.5-6.4,5.5-10.8C84.3,13.4,78.3,7.4,70.9,7.4z M78.4,29.3l-12-19c1.4-0.6,2.9-1,4.6-1c6.3,0,11.4,5.1,11.4,11.4  C82.3,24.2,80.8,27.2,78.4,29.3z M63.4,31.8l-4.4,2.7l-1,0.6l-1,0.6l-3.9,2.4l-1,0.6l-1,0.6L33,50.9l-2.1-3.6c0-0.2,0-0.4-0.1-0.5  c-0.1-0.2-0.3-0.3-0.5-0.4l-2-3.4l29.7-18.6l0.4-0.2l1.5,2.3l1.3,2.1L63.4,31.8L63.4,31.8z M73.7,69.1c-0.1,0.7-0.7,1.2-1.5,1.2  H38.1c-0.7,0-1.3-0.5-1.5-1.2c0.1-0.7,0.8-1.2,1.5-1.2h14.1h5.9h14.2C73,67.9,73.6,68.4,73.7,69.1z M57.1,65.9h-3.9V40.6l3.9-2.4  V65.9z M64.9,30.4l-5.2-8c-0.1-0.5-0.1-1-0.1-1.6c0-3.9,2-7.4,5.1-9.5l12.2,19.2c-1.7,1-3.7,1.7-5.9,1.7  C68.7,32.1,66.6,31.5,64.9,30.4z"/><text x="0" y="115" fill="#000000" font-size="5px" font-weight="bold" font-family="'Helvetica Neue', Helvetica, Arial-Unicode, Arial, Sans-serif">Created by Milky - Digital innovation</text><text x="0" y="120" fill="#000000" font-size="5px" font-weight="bold" font-family="'Helvetica Neue', Helvetica, Arial-Unicode, Arial, Sans-serif">from the Noun Project</text></svg>