<svg xmlns="http://www.w3.org/2000/svg" xmlns:xlink="http://www.w3.org/1999/xlink" version="1.1" x="0px" y="0px" viewBox="0 0 100 125" enable-background="new 0 0 100 100" xml:space="preserve"><path d="M82.2,44.487h-4.025V38.1c0-1.645-1.33-2.975-2.975-2.975h-4.55c-0.438,0-0.858,0.105-1.226,0.263V31.1  c0-1.645-1.33-2.975-2.975-2.975H61.9c-1.646,0-2.976,1.33-2.976,2.975v13.387h-17.85V31.1c0-1.645-1.33-2.975-2.975-2.975h-4.55  c-1.645,0-2.975,1.33-2.975,2.975v4.288c-0.368-0.175-0.788-0.263-1.225-0.263H24.8c-1.645,0-2.975,1.33-2.975,2.975v6.387H17.8  c-1.155,0-2.1,0.945-2.1,2.1v6.3c0,1.154,0.945,2.1,2.1,2.1h4.025V61.9c0,1.645,1.33,2.975,2.975,2.975h4.55  c0.438,0,0.857-0.104,1.225-0.263V68.9c0,1.645,1.33,2.975,2.975,2.975h4.55c1.645,0,2.975-1.33,2.975-2.975V54.987h17.85V68.9  c0,1.645,1.33,2.975,2.976,2.975h4.55c1.645,0,2.975-1.33,2.975-2.975v-4.288c0.367,0.175,0.788,0.263,1.226,0.263h4.55  c1.645,0,2.975-1.33,2.975-2.975v-6.913H82.2c1.154,0,2.1-0.945,2.1-2.1v-6.3C84.3,45.433,83.354,44.487,82.2,44.487z M17.8,53.237  c-0.192,0-0.35-0.157-0.35-0.35v-6.3c0-0.192,0.157-0.35,0.35-0.35h4.025v7H17.8z M39.325,68.9c0,0.683-0.542,1.225-1.225,1.225  h-4.55c-0.682,0-1.225-0.542-1.225-1.225v-7v-3.588h-1.75V61.9c0,0.683-0.542,1.225-1.225,1.225H24.8  c-0.682,0-1.225-0.542-1.225-1.225V38.1c0-0.683,0.542-1.225,1.225-1.225h4.55c0.683,0,1.225,0.542,1.225,1.225V50h1.75V38.1v-7  c0-0.683,0.542-1.225,1.225-1.225h4.55c0.683,0,1.225,0.542,1.225,1.225V68.9z M41.075,53.237v-7h17.85v7H41.075z M76.425,61.9  c0,0.683-0.542,1.225-1.225,1.225h-4.55c-0.683,0-1.226-0.542-1.226-1.225v-3.588h-1.75V61.9v7c0,0.683-0.542,1.225-1.225,1.225  H61.9c-0.683,0-1.226-0.542-1.226-1.225V31.1c0-0.683,0.543-1.225,1.226-1.225h4.55c0.683,0,1.225,0.542,1.225,1.225v7V50h1.75V38.1  c0-0.683,0.543-1.225,1.226-1.225h4.55c0.683,0,1.225,0.542,1.225,1.225V61.9z M82.55,52.888c0,0.192-0.157,0.35-0.35,0.35h-4.025  v-7H82.2c0.192,0,0.35,0.158,0.35,0.35V52.888z"/><text x="0" y="115" fill="#000000" font-size="5px" font-weight="bold" font-family="'Helvetica Neue', Helvetica, Arial-Unicode, Arial, Sans-serif">Created by Anton Gajdosik</text><text x="0" y="120" fill="#000000" font-size="5px" font-weight="bold" font-family="'Helvetica Neue', Helvetica, Arial-Unicode, Arial, Sans-serif">from the Noun Project</text></svg>