<?xml version="1.0" encoding="utf-8"?>
<!-- Generator: Adobe Illustrator 16.0.0, SVG Export Plug-In . SVG Version: 6.00 Build 0)  -->
<!DOCTYPE svg PUBLIC "-//W3C//DTD SVG 1.1//EN" "http://www.w3.org/Graphics/SVG/1.1/DTD/svg11.dtd">
<svg version="1.1" id="Layer_1" xmlns="http://www.w3.org/2000/svg" xmlns:xlink="http://www.w3.org/1999/xlink" x="0px" y="0px"
	 width="496.542px" height="328.848px" viewBox="57.528 231.576 496.542 328.848"
	 enable-background="new 57.528 231.576 496.542 328.848" xml:space="preserve">
<g>
	<path fill="#51CE9E" d="M494.496,231.576h-377.4c-33.048,0-59.568,26.928-59.568,59.976v209.305
		c0,33.048,26.52,59.567,59.568,59.567h376.992c33.048,0,59.977-26.928,59.977-59.567V291.552
		C554.472,258.504,527.544,231.576,494.496,231.576z M494.496,261.768l-167.688,167.28c-5.712,5.712-13.056,8.568-20.808,8.568l0,0
		c-8.16,0-15.504-2.856-20.808-8.568c-14.688-14.688-123.624-125.256-166.872-167.28H494.496L494.496,261.768z M524.688,500.856
		c0,16.319-13.464,29.783-30.191,29.783h-377.4c-16.32,0-29.784-13.464-29.784-29.783V291.552c0-5.304,1.224-10.2,3.672-14.688
		c28.56,28.152,113.832,113.832,172.584,173.399c11.016,11.425,26.112,17.137,42.024,17.544l0,0
		c15.912,0,31.008-6.119,42.024-17.544L521.016,277.68c2.04,4.08,3.672,8.976,3.672,13.872V500.856L524.688,500.856z"/>
</g>
</svg>
