<?xml version="1.0" encoding="utf-8"?>
<!-- Generator: Adobe Illustrator 16.0.0, SVG Export Plug-In . SVG Version: 6.00 Build 0)  -->
<!DOCTYPE svg PUBLIC "-//W3C//DTD SVG 1.1//EN" "http://www.w3.org/Graphics/SVG/1.1/DTD/svg11.dtd">
<svg version="1.1" id="Layer_1" xmlns="http://www.w3.org/2000/svg" xmlns:xlink="http://www.w3.org/1999/xlink" x="0px" y="0px"
	 width="110.489px" height="176.272px" viewBox="250.352 307.464 110.489 176.272"
	 enable-background="new 250.352 307.464 110.489 176.272" xml:space="preserve">
<path fill="#FFFFFF" d="M360.672,347.448c-0.408-1.224-1.632-2.448-3.264-2.856l-33.048-4.896l-15.097-30.192
	c-0.407-1.224-2.04-2.04-3.672-2.04s-2.856,0.816-3.672,2.04l-15.096,30.192l-33.048,4.896c-1.632,0-2.856,1.224-3.264,2.856
	c-0.408,1.224,0,2.856,0.816,4.08l24.072,23.256l-5.304,32.64c0,1.632,0.408,2.856,1.632,4.08c0.408,0.408,1.632,0.816,2.448,0.816
	c0.408,0,1.224,0,1.632-0.408l8.976-4.896v73.032c0,1.632,0.816,2.856,2.448,3.672c0.408,0,0.816,0,1.632,0
	c0.816,0,2.04-0.407,2.856-1.224L306,467.808l14.28,14.688c1.224,1.224,2.855,1.632,4.487,0.815c1.633-0.407,2.448-2.04,2.448-3.672
	v-72.216l8.977,4.896c1.224,0.815,2.855,0.407,4.079-0.408c1.225-0.816,1.633-2.448,1.633-4.08l-5.712-33.048l24.071-23.256
	C360.672,350.304,361.08,349.08,360.672,347.448L360.672,347.448z M319.056,470.664l-10.199-10.608
	c-0.816-0.815-1.633-1.224-2.856-1.224c-1.224,0-2.04,0.408-2.856,1.224l-10.2,10.608v-67.32L306,396.408l13.056,6.936V470.664
	L319.056,470.664z M328.848,370.704c-0.815,0.816-1.224,2.04-1.224,3.672l4.896,26.928l-24.479-12.647
	c-0.408-0.408-1.224-0.408-1.632-0.408s-1.224,0-1.632,0.408l-24.48,12.647l4.896-27.336c0-1.224,0-2.448-1.224-3.672
	l-19.584-19.176l27.336-4.08c1.224,0,2.448-0.816,2.856-2.04l12.24-24.888L319.056,345c0.408,1.224,1.632,2.04,2.856,2.04
	l27.336,4.08L328.848,370.704L328.848,370.704z"/>
</svg>
