<svg viewBox="0 0 36 59" version="1.1" xmlns="http://www.w3.org/2000/svg" xmlns:xlink="http://www.w3.org/1999/xlink"><title>skillbuilding1</title><g fill="none" fill-rule="evenodd"><g id="skillbuilding1" fill="#FFFFFF"><g><path d="M33,59 L1,59 L1,42 L33,42 L33,59 L33,59 Z M3,57 L31,57 L31,44 L3,44 L3,57 L3,57 Z"></path><path d="M33,44 L1,44 L1,27 L33,27 L33,44 L33,44 Z M3,42 L31,42 L31,29 L3,29 L3,42 L3,42 Z"></path><path d="M12,29 L7,29 C6.448,29 6,28.553 6,28 L6,25.5 C6,24.948 6.448,24.5 7,24.5 L12,24.5 C12.552,24.5 13,24.948 13,25.5 L13,28 C13,28.553 12.552,29 12,29 L12,29 Z M8,27 L11,27 L11,26.5 L8,26.5 L8,27 L8,27 Z"></path><path d="M27,29 L22,29 C21.447,29 21,28.553 21,28 L21,25.5 C21,24.948 21.447,24.5 22,24.5 L27,24.5 C27.553,24.5 28,24.948 28,25.5 L28,28 C28,28.553 27.553,29 27,29 L27,29 Z M23,27 L26,27 L26,26.5 L23,26.5 L23,27 L23,27 Z"></path><path d="M32.341,24.16 L0.84,18.535 L3.828,1.8 L35.329,7.425 L32.341,24.16 L32.341,24.16 Z M3.16,16.918 L30.723,21.84 L33.008,9.042 L5.445,4.12 L3.16,16.918 L3.16,16.918 Z"></path><path d="M14.48,5.718 C14.421,5.718 14.363,5.713 14.304,5.702 L9.382,4.823 C8.839,4.726 8.476,4.206 8.573,3.663 L9.012,1.202 C9.058,0.941 9.207,0.709 9.425,0.557 C9.643,0.405 9.911,0.347 10.173,0.393 L15.095,1.272 C15.638,1.369 16.001,1.889 15.904,2.432 L15.465,4.893 C15.419,5.154 15.27,5.386 15.052,5.538 C14.883,5.656 14.684,5.718 14.48,5.718 L14.48,5.718 Z M10.719,3.03 L13.672,3.557 L13.76,3.065 L10.807,2.538 L10.719,3.03 L10.719,3.03 Z"></path><path d="M29.247,8.354 C29.188,8.354 29.13,8.349 29.071,8.338 L24.149,7.459 C23.605,7.362 23.244,6.843 23.34,6.299 L23.778,3.838 C23.825,3.577 23.972,3.345 24.19,3.193 C24.408,3.041 24.676,2.983 24.938,3.029 L29.86,3.908 C30.404,4.005 30.765,4.524 30.669,5.068 L30.231,7.529 C30.184,7.79 30.037,8.022 29.819,8.174 C29.65,8.292 29.45,8.354 29.247,8.354 L29.247,8.354 Z M25.485,5.667 L28.438,6.194 L28.525,5.702 L25.572,5.175 L25.485,5.667 L25.485,5.667 Z"></path></g></g></g></svg>