<?xml version="1.0" encoding="utf-8"?>
<!-- Generator: Adobe Illustrator 16.0.0, SVG Export Plug-In . SVG Version: 6.00 Build 0)  -->
<!DOCTYPE svg PUBLIC "-//W3C//DTD SVG 1.1//EN" "http://www.w3.org/Graphics/SVG/1.1/DTD/svg11.dtd">
<svg version="1.1" id="Layer_1" xmlns="http://www.w3.org/2000/svg" xmlns:xlink="http://www.w3.org/1999/xlink" x="0px" y="0px"
	 width="150px" height="150px" viewBox="0 0 150 150" style="enable-background:new 0 0 150 150;" xml:space="preserve">
<style type="text/css">
<![CDATA[
	.st0{fill:#FFFFFF;}
	.st1{fill:#A0CF68;}
]]>
</style>
<path class="st1" d="M75.8,150h-1.5C33.2,150,0,116.8,0,75.8v-1.5C0,33.2,33.2,0,74.2,0h1.5c41,0,74.2,33.2,74.2,74.2v1.5
	C150,116.8,116.8,150,75.8,150"/>
<path class="st0" d="M83.2,34.7l-18.6,0.2h-6c-1.8,0-3.3,1.5-3.3,3.3v1.9v0.1v1.2c0,1.9,1.5,2.6,2.5,3.1l2.8,1
	c0,1.2-0.7,3.5-1.6,5.7c-0.1,0.2-0.4,0.5-0.8,0.8c-0.7,0.5-1.6,1.3-1.9,2.6c-0.2,1.2,0.2,2.2,1.2,2.8c0.6,0.4,1.4,0.5,2.1,0.5
	c1.3,0,2.7-0.4,3.5-1.1c2.5-2,3.8-5.2,4.8-8.2c0.1-0.2,0.1-0.3,0.2-0.5l3.1,1.1l0,1.9l0,0.4c-1.4,0.5-2.5,1.9-2.5,3.5v5.5
	c0,0,0,0.1,0,0.1c0,0,0,0.1,0,0.1c0,0.8,0.6,1.4,1.4,1.4h0.4v3.2c0,4.7-5.3,9.4-8.1,10.6c-4,1.7-4.7,6.7-4.7,6.9l-0.7,26.6
	c0,2.1,1.7,3.7,3.7,3.7h5.8H73h13.8c2.1,0,3.7-1.7,3.7-3.7V79.7l0-0.1c0-0.1-0.3-3.5-1.5-6.3c-0.4-1-1.1-2.2-1.7-3.2
	c-0.9-1.6-2-3.5-2-4.5c0-1.4,0-2.6,0-3.3h0.2c0.8,0,1.4-0.6,1.4-1.4c0-0.1,0-0.1,0-0.2c0-0.1,0-0.1,0-0.2v-5.3
	c0-1.9-1.4-3.4-3.2-3.7v-3.5c0.6-0.3,2.6-0.2,3.9-0.2c2.7,0.1,5.2,0.1,6.4-1.2c0.4-0.4,0.8-1.1,0.7-2.1v-0.8L83.2,34.7z M87.6,45
	c-2.6-0.1-4.8-0.1-6,1c-0.5,0.5-0.7,1.1-0.7,1.8v3.6h0h-0.5h-1.1h-5.2l-0.1-3l0-1.1l-9.5-3.4l-5.2-1.9l-0.1,0L59,42
	c-0.3-0.2-0.8-0.4-0.9-0.5v-0.2v-0.3v-0.7v-0.1v-1.9c0-0.3,0.2-0.5,0.5-0.5h6l17.6-0.2l9.4,7.2C90.8,45.1,88.8,45,87.6,45
	 M61.5,54.7c-0.6,0.5-1.9,0.6-2.4,0.4c0.1-0.3,0.3-0.5,0.9-0.9c0.6-0.4,1.3-1,1.6-1.9c0.4-1,1.5-3.6,1.8-5.9l2.1,0.8
	C64.7,50.1,63.6,53.1,61.5,54.7 M82.5,65.5c0,1.7,1.2,3.7,2.4,5.9c0.6,1,1.2,2.1,1.6,3c1,2.2,1.2,5,1.3,5.4v29.8
	c0,0.5-0.4,0.9-0.9,0.9H73h-6.4h-5.8c-0.5,0-0.9-0.4-0.9-0.9l0.7-26.3c0.1-0.5,0.8-3.7,3.1-4.7c3.3-1.4,9.8-6.9,9.8-13.2v-3.2h9
	C82.5,62.9,82.5,64.1,82.5,65.5 M84.1,55.1v4.3H71.6v-4.3c0-0.5,0.4-0.9,0.9-0.9h6.7h1.6h2.3C83.7,54.2,84.1,54.6,84.1,55.1"/>
</svg>
