<?xml version="1.0" encoding="utf-8"?>
<!-- Generator: Adobe Illustrator 18.0.0, SVG Export Plug-In . SVG Version: 6.00 Build 0)  -->
<!DOCTYPE svg PUBLIC "-//W3C//DTD SVG 1.1//EN" "http://www.w3.org/Graphics/SVG/1.1/DTD/svg11.dtd">
<svg version="1.1" id="Layer_1" xmlns="http://www.w3.org/2000/svg" xmlns:xlink="http://www.w3.org/1999/xlink" x="0px" y="0px"
	 viewBox="0 0 300 300" enable-background="new 0 0 300 300" xml:space="preserve">
<g>
	<g>
		<path fill="#68A5D9" d="M112.1,120.8l89.4,8.3l-6.8,37.4h-69.2h-1L112.1,120.8 M119.2,184.6l0.5,0.2l-4.4,4.4c0-0.2,0-0.5,0-0.8
			c0-1.7,1.1-3.2,2.9-3.6L119.2,184.6 M194,184.7c2.1,0,3.7,1.6,3.7,3.6S196,192,194,192c-1.7,0-3.3-1.3-3.7-3l-0.2-1l0.3-1
			C191,185.9,192.4,184.7,194,184.7 M120.9,191.6c-0.6,0.3-1.3,0.6-2.1,0.6s-1.4-0.2-2.1-0.6H120.9 M105.7,101.4H91.1v6.3h10.8
			l17.5,64.7l-3,6.3c-4.3,1.1-7.6,5.1-7.6,9.7c0,5.6,4.4,10,10,10c4.9,0,8.9-3.5,9.8-8.1H184l0,0c1,4.6,4.9,8.1,9.8,8.1
			c5.6,0,10-4.4,10-10c0-5.6-4.4-10-10-10c-4.4,0-8.1,2.9-9.5,6.8l0,0h-55.9l0,0c-1-2.7-3-4.9-5.7-6l0,0l2.7-6.3h74.5l9.1-49.5
			l-99.6-9.2L105.7,101.4z M208.7,123.3L208.7,123.3L208.7,123.3L208.7,123.3z"/>
		<path fill="#68A5D9" d="M199.2,188.7c0,2.7-2.2,4.9-4.9,4.9s-4.9-2.2-4.9-4.9c0-2.7,2.2-4.9,4.9-4.9S199.2,186,199.2,188.7"/>
		<path fill="#68A5D9" d="M123,188.7c0,2.7-2.2,4.9-4.9,4.9s-4.9-2.2-4.9-4.9c0-2.7,2.2-4.9,4.9-4.9C120.8,183.8,123,186,123,188.7"
			/>
	</g>
	<path fill="none" stroke="#68A5D9" stroke-width="4.986" stroke-miterlimit="10" d="M151.3,266.5H149
		c-63.9,0-115.5-51.6-115.5-115.3v-2.3c0-63.8,51.6-115.4,115.3-115.4h2.3c63.7,0,115.3,51.6,115.3,115.3v2.3
		C266.7,214.9,215.1,266.5,151.3,266.5"/>
</g>
</svg>
