<?xml version="1.0" encoding="utf-8"?>
<!-- Generator: Adobe Illustrator 16.0.0, SVG Export Plug-In . SVG Version: 6.00 Build 0)  -->
<!DOCTYPE svg PUBLIC "-//W3C//DTD SVG 1.1//EN" "http://www.w3.org/Graphics/SVG/1.1/DTD/svg11.dtd">
<svg version="1.1" id="Layer_1" xmlns="http://www.w3.org/2000/svg" xmlns:xlink="http://www.w3.org/1999/xlink" x="0px" y="0px"
	 width="150px" height="150px" viewBox="0 0 150 150" style="enable-background:new 0 0 150 150;" xml:space="preserve">
<style type="text/css">
<![CDATA[
	.st0{fill:#61C19A;}
	.st1{fill:#FFFFFF;}
]]>
</style>
<path class="st0" d="M75.8,150h-1.5C33.2,150,0,116.8,0,75.8v-1.5C0,33.2,33.2,0,74.2,0h1.5c41,0,74.2,33.2,74.2,74.2v1.5
	C150,116.8,116.8,150,75.8,150"/>
<path class="st1" d="M75.2,40.9c18.4,0,33.4,15,33.4,33.4s-15,33.4-33.4,33.4c-18.4,0-33.4-15-33.4-33.4S56.8,40.9,75.2,40.9
	 M75.2,37.9c-20.1,0-36.4,16.3-36.4,36.4s16.3,36.4,36.4,36.4s36.4-16.3,36.4-36.4S95.3,37.9,75.2,37.9"/>
<path class="st1" d="M62.5,67.1c0-2,0.3-3.8,0.9-5.4s1.5-3,2.6-4.2c1.1-1.2,2.5-2,4.1-2.7c1.6-0.6,3.4-0.9,5.4-0.9
	c1.7,0,3.2,0.2,4.6,0.7c1.4,0.5,2.7,1.2,3.7,2.1c1.1,0.9,1.9,2.1,2.5,3.4c0.6,1.4,0.9,2.9,0.9,4.6c0,1.3-0.1,2.3-0.4,3.3
	c-0.3,0.9-0.6,1.7-1.1,2.4c-0.5,0.7-1,1.3-1.5,1.8c-0.6,0.5-1.2,1-1.7,1.5c-0.7,0.6-1.3,1.1-1.9,1.7c-0.6,0.5-1.1,1.1-1.5,1.8
	c-0.4,0.7-0.8,1.5-1,2.3c-0.2,0.9-0.4,2-0.4,3.3h-5.8c0-1.6,0.1-2.9,0.2-4s0.4-2.1,0.8-2.9c0.4-0.8,0.8-1.6,1.3-2.2s1.1-1.2,1.9-1.9
	c0.6-0.5,1.1-1,1.6-1.4s1-0.9,1.4-1.4c0.4-0.5,0.7-1.1,1-1.8c0.2-0.6,0.4-1.4,0.4-2.3c0-1.1-0.2-2-0.6-2.8c-0.4-0.8-0.8-1.4-1.4-1.9
	c-0.5-0.5-1.1-0.8-1.7-1c-0.6-0.2-1.2-0.3-1.6-0.3c-2.2,0-3.9,0.7-4.9,2.2c-1.1,1.5-1.6,3.4-1.6,5.9H62.5z M71.1,86.6h7.2v6.8h-7.2
	V86.6z"/>
</svg>
