<?xml version="1.0" encoding="utf-8"?>
<!-- Generator: Adobe Illustrator 16.0.0, SVG Export Plug-In . SVG Version: 6.00 Build 0)  -->
<!DOCTYPE svg PUBLIC "-//W3C//DTD SVG 1.1//EN" "http://www.w3.org/Graphics/SVG/1.1/DTD/svg11.dtd">
<svg version="1.1" id="Layer_1" xmlns="http://www.w3.org/2000/svg" xmlns:xlink="http://www.w3.org/1999/xlink" x="0px" y="0px"
	 width="150px" height="150px" viewBox="0 0 150 150" style="enable-background:new 0 0 150 150;" xml:space="preserve">
<style type="text/css">
<![CDATA[
	.st0{fill:#FFFFFF;}
	.st1{fill:#66A6D1;}
]]>
</style>
<g>
	<g>
		<g>
			<path class="st1" d="M75.8,150h-1.5C33.2,150,0,116.8,0,75.8v-1.5C0,33.2,33.2,0,74.2,0h1.5c41,0,74.2,33.2,74.2,74.2v1.5
				C150,116.8,116.8,150,75.8,150"/>
			<path class="st0" d="M46,38v14h-9v3h9v12h-9v3h9v10h-9v3h9v12h-9v3h9v12h66V38H46z M109,107H49v-9h9v-3h-9V83h9v-3h-9V70h9v-3h-9
				V55h9v-3h-9V41h32v29.3l6.5-6l6.5,6V41h15V107z"/>
		</g>
	</g>
</g>
</svg>
