<?xml version="1.0" encoding="utf-8"?>
<!-- Generator: Adobe Illustrator 18.0.0, SVG Export Plug-In . SVG Version: 6.00 Build 0)  -->
<!DOCTYPE svg PUBLIC "-//W3C//DTD SVG 1.1//EN" "http://www.w3.org/Graphics/SVG/1.1/DTD/svg11.dtd">
<svg version="1.1" id="Layer_1" xmlns="http://www.w3.org/2000/svg" xmlns:xlink="http://www.w3.org/1999/xlink" x="0px" y="0px"
	 viewBox="0 0 300 300" enable-background="new 0 0 300 300" xml:space="preserve">
<g>
	<g>
		<path fill="#DB1A88" d="M198.1,149.9c16-15.2,24-30,18.9-38.7c-2.9-4.8-9.2-7.1-17.9-7.1c-7,0-15.6,1.6-24.8,4.4
			c-0.8-3.5-1.7-6.8-2.9-9.8c1.9-1.9,3.2-4.4,3.2-7.5c0-5.6-4.6-10.2-10.2-10.2c-0.5,0-1,0-1.4,0.2c-3.8-5.2-8.1-8.3-12.7-8.3
			c-10,0-18.9,14.3-24,35.5c-9.4-2.9-17.8-4.3-24.8-4.3c-8.7,0-15.2,2.4-17.9,7.1c-5.1,8.7,2.9,23.6,19.1,38.7
			c-2.1,1.9-4,3.8-5.7,5.7c-3.2-1.9-7.1-2.2-10.5-0.3c-4.9,2.9-6.5,9-3.7,13.8c0.6,1.1,1.4,2.1,2.4,2.9c-3.2,6.7-4,12.4-1.4,16.7
			c2.9,4.8,9.2,7.1,17.9,7.1c7,0,15.6-1.6,24.8-4.4c5.1,21.4,13.8,35.5,24,35.5c10,0,18.9-14.3,24-35.7c4.4,1.4,8.9,2.4,12.9,3.2
			c0.6,2.7,2.2,5.2,4.8,6.8c4.9,2.9,11.1,1.1,13.8-3.6c0.5-0.8,0.8-1.7,1-2.7c4.8-1,8.4-3.2,10.2-6.3
			C222.1,179.9,214.2,165.2,198.1,149.9 M199.1,110.1c6.5,0,11.1,1.4,12.7,4.1c2.2,4-1.1,12.5-8.9,21.7c-2.7,3.3-5.9,6.5-9.4,9.8
			c-4.6-4-9.8-7.9-15.4-11.9c-0.5-7-1.4-13.5-2.5-19.5C184.3,111.7,192.4,110.1,199.1,110.1 M161.6,169.3c-3.7,2.2-7.5,4.1-11.3,6
			c-3.8-1.9-7.5-3.8-11.3-6c-3.8-2.2-7.3-4.4-10.6-6.7c-0.3-4.1-0.5-8.3-0.5-12.5c0-4.4,0.2-8.6,0.5-12.5c3.5-2.2,7-4.6,10.6-6.7
			c3.7-2.2,7.5-4.1,11.3-6c3.8,1.9,7.5,3.8,11.3,6c3.8,2.2,7.3,4.4,10.6,6.7c0.3,4.1,0.5,8.3,0.5,12.7s-0.2,8.6-0.5,12.5
			C168.8,164.8,165.3,167.1,161.6,169.3 M171.6,170.2c-0.5,4.8-1.1,9.2-1.9,13.3c-4-1.4-8.3-3.2-12.4-4.9c2.4-1.3,4.9-2.5,7.3-4
			C167,173.1,169.4,171.7,171.6,170.2 M143.4,178.6c-4.3,1.9-8.4,3.6-12.4,5.1c-0.8-4.1-1.4-8.6-1.9-13.3c2.2,1.4,4.6,2.9,7,4.3
			C138.6,175.9,141,177.2,143.4,178.6 M122.1,158.2c-3.8-2.7-7.1-5.6-10.3-8.3c3.2-2.7,6.7-5.6,10.3-8.3c-0.2,2.7-0.2,5.4-0.2,8.3
			C121.9,152.8,121.9,155.5,122.1,158.2 M129.1,129.6c0.5-4.8,1.1-9.2,1.9-13.3c4,1.4,8.3,3.2,12.4,4.9c-2.4,1.3-4.9,2.5-7.3,4
			C133.7,126.8,131.3,128.2,129.1,129.6 M157.3,121.4c4.3-1.9,8.4-3.6,12.4-5.1c0.8,4.1,1.4,8.6,1.9,13.3c-2.2-1.4-4.6-2.9-7-4.3
			C162.1,123.9,159.7,122.6,157.3,121.4 M178.6,141.8c3.8,2.7,7.3,5.6,10.3,8.3c-3.2,2.7-6.7,5.6-10.3,8.3c0.2-2.7,0.2-5.4,0.2-8.3
			C178.8,147.2,178.8,144.5,178.6,141.8 M150.3,79c2.2,0,4.8,1.7,7.1,4.9c-1.9,1.9-3.2,4.4-3.2,7.3c0,5.6,4.6,10.2,10.2,10.2
			c0.5,0,1,0,1.3-0.2c1,2.9,1.7,5.9,2.5,9.2c-5.9,2.1-11.9,4.6-18.1,7.6c-6.2-3-12.2-5.6-18.1-7.5C136.8,90.6,144.5,79,150.3,79
			 M88.9,114.4c1.6-2.7,6.2-4.1,12.7-4.1c6.7,0,14.8,1.6,23.5,4.3c-1.1,6-2.1,12.7-2.5,19.5c-5.6,3.8-10.8,7.9-15.4,11.9
			C92.2,131.8,85.9,119.5,88.9,114.4 M101.6,189.7c-6.5,0-11.1-1.4-12.7-4.1c-1.4-2.4-0.6-6.5,1.9-11.4c1.9,0.2,4-0.3,5.7-1.3
			c4.4-2.5,6.2-7.9,4.3-12.5c1.9-2.1,4-4.3,6.4-6.3c4.6,4,9.8,7.9,15.4,11.9c0.5,7,1.4,13.5,2.5,19.5
			C116.4,188.3,108.3,189.7,101.6,189.7 M150.3,221c-5.9,0-13.5-11.6-18.1-31.4c5.9-2.1,11.9-4.6,18.1-7.6c6.2,3,12.2,5.6,18.1,7.5
			C163.8,209.4,156.2,221,150.3,221 M211.8,185.6c-0.8,1.4-2.7,2.5-5.4,3.3c-0.8-2.1-2.2-4-4.3-5.1c-4.9-2.9-11.1-1.1-13.8,3.6
			c-0.2,0.3-0.3,0.6-0.5,1c-3.8-0.6-7.9-1.7-12.2-3c1.1-6,2.1-12.7,2.5-19.5c5.6-3.8,10.8-7.9,15.4-11.9
			C208.5,168,214.8,180.5,211.8,185.6"/>
	</g>
	<path fill="none" stroke="#DB1A88" stroke-width="4.986" stroke-miterlimit="10" d="M151.3,266.5H149
		c-63.9,0-115.5-51.6-115.5-115.3v-2.3c0-63.8,51.6-115.4,115.3-115.4h2.3c63.7,0,115.3,51.6,115.3,115.3v2.3
		C266.7,214.9,215.1,266.5,151.3,266.5"/>
</g>
</svg>
