<?xml version="1.0" encoding="utf-8"?>
<!-- Generator: Adobe Illustrator 16.0.0, SVG Export Plug-In . SVG Version: 6.00 Build 0)  -->
<!DOCTYPE svg PUBLIC "-//W3C//DTD SVG 1.1//EN" "http://www.w3.org/Graphics/SVG/1.1/DTD/svg11.dtd">
<svg version="1.1" id="Layer_1" xmlns="http://www.w3.org/2000/svg" xmlns:xlink="http://www.w3.org/1999/xlink" x="0px" y="0px"
	 width="150px" height="150px" viewBox="0 0 150 150" style="enable-background:new 0 0 150 150;" xml:space="preserve">
<style type="text/css">
<![CDATA[
	.st0{fill:#7F9499;}
	.st1{fill:#FFFFFF;}
]]>
</style>
<path class="st0" d="M75.8,150h-1.5C33.2,150,0,116.8,0,75.8v-1.5C0,33.2,33.2,0,74.2,0h1.5c41,0,74.2,33.2,74.2,74.2v1.5
	C150,116.8,116.8,150,75.8,150"/>
<path class="st1" d="M97.5,60.6c0.9,2.5,0.7,5.2-0.6,6.8l-36.6,36.6l-21.7,6c-0.3,0.1-0.4,0-0.3-0.3l6.2-21.5L81,51.6
	c1.7-1.3,4.3-1.4,6.8-0.4L47.7,91.3l-0.1,0.1L45,99.5c0,0,1.2,0.4,2.3,1.5c1.1,1.1,1.4,2.4,1.4,2.4l8.3-2.5L97.5,60.6z"/>
<path class="st1" d="M53.8,91.5L92,53.4c0.7,0.3,1.3,0.9,1.8,1.4c0.7,0.6,1.1,1.1,1.5,1.8L57,94.7l-3.1-0.1L53.8,91.5z"/>
<path class="st1" d="M108.6,55.8l-7.1,7.2c0,0,3.4-5.3-3.8-12.3c-6.3-6.3-12.3-3.5-12.3-3.5l7.2-7.2c4.4-4.5,11.6-5.1,16.2-0.6
	C113.7,44.2,113,51.5,108.6,55.8"/>
</svg>
