<svg viewBox="0 0 60 64" version="1.1" xmlns="http://www.w3.org/2000/svg" xmlns:xlink="http://www.w3.org/1999/xlink">
    <g fill="none" fill-rule="evenodd">
        <g fill="#FFFFFF">
            <path d="M6.405,22.006 L12.76,23.389 C12.903,23.42 13.046,23.435 13.187,23.435 C14.107,23.435 14.936,22.796 15.139,21.86 C15.374,20.781 14.69,19.715 13.61,19.481 L7.255,18.098 C6.181,17.865 5.111,18.547 4.876,19.627 C4.641,20.706 5.325,21.771 6.405,22.006 L6.405,22.006 Z"></path>
            <path d="M26.349,12.171 C26.472,13.186 27.334,13.931 28.332,13.931 C28.412,13.931 28.493,13.927 28.575,13.916 C29.672,13.784 30.453,12.787 30.32,11.69 L29.539,5.233 C29.406,4.136 28.409,3.348 27.313,3.488 C26.216,3.62 25.435,4.617 25.568,5.714 L26.349,12.171 L26.349,12.171 Z"></path>
            <path d="M17.7,15.287 C18.094,15.705 18.624,15.916 19.157,15.916 C19.649,15.916 20.141,15.736 20.528,15.372 C21.332,14.615 21.37,13.349 20.613,12.545 L9.983,1.26 C9.226,0.456 7.96,0.417 7.156,1.175 C6.352,1.932 6.314,3.198 7.071,4.002 L17.7,15.287 L17.7,15.287 Z"></path>
            <path d="M59.035,24.697 L54.072,16.17 C53.802,15.707 53.358,15.371 52.839,15.238 L47.385,13.845 L41.722,12.328 C41.246,12.202 40.738,12.254 40.296,12.478 L27.391,19.052 L27.354,19.045 L27.348,19.074 L11.581,27.105 C10.442,27.605 9.311,28.237 8.217,28.987 C7.56,29.438 6.928,29.94 6.339,30.478 C2.751,33.751 0.693,38.413 0.693,43.266 C0.693,52.958 7.718,60.758 17.845,62.242 L27.829,63.353 C27.902,63.362 27.976,63.366 28.05,63.366 C28.16,63.366 28.265,63.354 28.375,63.352 C28.454,63.362 28.533,63.37 28.611,63.37 C28.747,63.37 28.879,63.353 29.008,63.327 C39.318,62.918 46.443,55.994 46.443,46.181 C46.443,43.947 46.026,41.787 45.202,39.743 L58.671,27.166 C59.354,26.527 59.505,25.503 59.035,24.697 L59.035,24.697 Z M41.428,16.391 L46.372,17.715 L47.858,18.094 L40.921,21.702 L33.755,20.298 L41.428,16.391 L41.428,16.391 Z M32.718,25.971 L25.575,24.466 L27.976,23.243 L35.229,24.664 L32.718,25.971 L32.718,25.971 Z M4.693,43.266 C4.693,39.534 6.276,35.95 9.035,33.433 C9.49,33.018 9.977,32.632 10.48,32.286 C11.381,31.669 12.309,31.151 13.235,30.748 C13.272,30.732 13.308,30.714 13.344,30.696 L19.896,27.359 L27.124,28.881 L22.906,31.075 C21.808,31.513 20.756,32.074 19.771,32.746 C19.159,33.169 18.574,33.634 18.036,34.126 C14.712,37.156 12.806,41.474 12.806,45.971 C12.806,50.803 14.603,55.036 17.683,58.149 C10.005,56.729 4.693,50.705 4.693,43.266 L4.693,43.266 Z M41.424,37.798 C40.774,38.406 40.603,39.371 41.006,40.166 C41.96,42.045 42.444,44.068 42.444,46.18 C42.444,53.88 36.923,59.1 28.649,59.344 C21.557,58.194 16.806,52.854 16.806,45.971 C16.806,42.597 18.237,39.357 20.734,37.079 C21.14,36.708 21.581,36.358 22.037,36.044 C22.795,35.525 23.612,35.093 24.466,34.76 C24.533,34.734 24.598,34.704 24.661,34.671 L51.95,20.475 L54.775,25.329 L41.424,37.798 L41.424,37.798 Z"></path>
        </g>
    </g>
</svg>