<?xml version="1.0" encoding="UTF-8" standalone="no"?>
<svg width="1280px" height="250px" viewBox="0 0 1280 250" version="1.1" xmlns="http://www.w3.org/2000/svg" xmlns:xlink="http://www.w3.org/1999/xlink" style="background: #2B3234;">
    <!-- Generator: Sketch 40 (33762) - http://www.bohemiancoding.com/sketch -->
    <title>faq-chalkboard</title>
    <desc>Created with Sketch.</desc>
    <defs>
		<filter x="-50%" y="-50%" width="200%" height="200%" filterUnits="objectBoundingBox" id="filter-2">
            <feMorphology radius="2" operator="dilate" in="SourceAlpha" result="shadowSpreadOuter1"></feMorphology>
            <feOffset dx="0" dy="0" in="shadowSpreadOuter1" result="shadowOffsetOuter1"></feOffset>
            <feMorphology radius="2" operator="erode" in="SourceAlpha" result="shadowInner"></feMorphology>
            <feOffset dx="0" dy="0" in="shadowInner" result="shadowInner"></feOffset>
            <feComposite in="shadowOffsetOuter1" in2="shadowInner" operator="out" result="shadowOffsetOuter1"></feComposite>
            <feGaussianBlur stdDeviation="2" in="shadowOffsetOuter1" result="shadowBlurOuter1"></feGaussianBlur>
            <feColorMatrix values="0 0 0 0 1   0 0 0 0 1   0 0 0 0 1  0 0 0 1 0" type="matrix" in="shadowBlurOuter1"></feColorMatrix>
        </filter>
        <path d="M100,180 L100.1,180" id="path-3"></path>
        <filter x="-50%" y="-50%" width="200%" height="200%" filterUnits="objectBoundingBox" id="filter-4">
            <feMorphology radius="2" operator="dilate" in="SourceAlpha" result="shadowSpreadOuter1"></feMorphology>
            <feOffset dx="0" dy="0" in="shadowSpreadOuter1" result="shadowOffsetOuter1"></feOffset>
            <feMorphology radius="2" operator="erode" in="SourceAlpha" result="shadowInner"></feMorphology>
            <feOffset dx="0" dy="0" in="shadowInner" result="shadowInner"></feOffset>
            <feComposite in="shadowOffsetOuter1" in2="shadowInner" operator="out" result="shadowOffsetOuter1"></feComposite>
            <feGaussianBlur stdDeviation="2" in="shadowOffsetOuter1" result="shadowBlurOuter1"></feGaussianBlur>
            <feColorMatrix values="0 0 0 0 1   0 0 0 0 1   0 0 0 0 1  0 0 0 1 0" type="matrix" in="shadowBlurOuter1"></feColorMatrix>
        </filter>
	</defs>
    <g id="Page-1" stroke="none" stroke-width="1" fill="none" fill-rule="evenodd">
        <g id="faq-chalkboard">
            <rect id="basket-book" stroke="#618181" stroke-linecap="round" stroke-linejoin="round" fill="#B9CAAB" x="251" y="50" width="15.8355804" height="63"></rect>
            <rect id="basket-book" stroke="#CA9F94" stroke-linecap="round" stroke-linejoin="round" fill="#D3764B" x="269.165792" y="57" width="21.5939733" height="56"></rect>
            <path d="M301.5,72.5 L301.5,78.5 L238.5,78.5 L238.5,72.5 L301.5,72.5 Z M245,79 L296,79 L296,115 L245,115 L245,79 Z M288.5,113 C290.432997,113 292,111.432997 292,109.5 C292,107.567003 290.432997,106 288.5,106 C286.567003,106 285,107.567003 285,109.5 C285,111.432997 286.567003,113 288.5,113 Z M276.5,113 C278.432997,113 280,111.432997 280,109.5 C280,107.567003 278.432997,106 276.5,106 C274.567003,106 273,107.567003 273,109.5 C273,111.432997 274.567003,113 276.5,113 Z M264.5,113 C266.432997,113 268,111.432997 268,109.5 C268,107.567003 266.432997,106 264.5,106 C262.567003,106 261,107.567003 261,109.5 C261,111.432997 262.567003,113 264.5,113 Z M252.5,113 C254.432997,113 256,111.432997 256,109.5 C256,107.567003 254.432997,106 252.5,106 C250.567003,106 249,107.567003 249,109.5 C249,111.432997 250.567003,113 252.5,113 Z M288.5,101 C290.432997,101 292,99.4329966 292,97.5 C292,95.5670034 290.432997,94 288.5,94 C286.567003,94 285,95.5670034 285,97.5 C285,99.4329966 286.567003,101 288.5,101 Z M276.5,101 C278.432997,101 280,99.4329966 280,97.5 C280,95.5670034 278.432997,94 276.5,94 C274.567003,94 273,95.5670034 273,97.5 C273,99.4329966 274.567003,101 276.5,101 Z M264.5,101 C266.432997,101 268,99.4329966 268,97.5 C268,95.5670034 266.432997,94 264.5,94 C262.567003,94 261,95.5670034 261,97.5 C261,99.4329966 262.567003,101 264.5,101 Z M252.5,101 C254.432997,101 256,99.4329966 256,97.5 C256,95.5670034 254.432997,94 252.5,94 C250.567003,94 249,95.5670034 249,97.5 C249,99.4329966 250.567003,101 252.5,101 Z M288.5,89 C290.432997,89 292,87.4329966 292,85.5 C292,83.5670034 290.432997,82 288.5,82 C286.567003,82 285,83.5670034 285,85.5 C285,87.4329966 286.567003,89 288.5,89 Z M252.5,89 C254.432997,89 256,87.4329966 256,85.5 C256,83.5670034 254.432997,82 252.5,82 C250.567003,82 249,83.5670034 249,85.5 C249,87.4329966 250.567003,89 252.5,89 Z M281,79 L281,84.5 C281,87.5375661 278.529281,90 275.509927,90 L265.490073,90 C262.457989,90 260,87.5313853 260,84.5 L260,79 L281,79 Z" id="basket" stroke="#FFE8E8" stroke-linecap="round" stroke-linejoin="round" fill="#DAD7D7"></path>
            <rect id="aqua-book" stroke="#749E94" stroke-linecap="round" stroke-linejoin="round" fill="#94CABE" x="69" y="59" width="15" height="56"></rect>
            <path d="M69,70 L84,70 L84,97 L69,97 L69,70 Z M69.5,65 L83.5,65 C83.7761424,65 84,64.7761424 84,64.5 C84,64.2238576 83.7761424,64 83.5,64 L69.5,64 C69.2238576,64 69,64.2238576 69,64.5 C69,64.7761424 69.2238576,65 69.5,65" id="aqua-detail" stroke="#749E94" stroke-linecap="round" stroke-linejoin="round" fill="#749E95"></path>
            <rect id="aqua-shadow" stroke="#40484B" stroke-linecap="round" stroke-linejoin="round" fill="#40484B" opacity="0.300000012" x="77" y="59" width="7.5" height="56"></rect>
            <polygon id="thin" stroke="#CA94A2" stroke-linecap="round" stroke-linejoin="round" fill="#623742" points="83.4771769 55.4242036 86.3137326 54.4474992 106.824526 114.015169 103.987971 114.991874"></polygon>
            <path d="M233.5,108.5 C233.5,106.567003 230.813708,105 227.5,105 C224.186292,105 221.5,106.567003 221.5,108.5" id="globe" stroke="#BCBBC9" stroke-width="2" stroke-linecap="round" stroke-linejoin="round" fill="#40484B"></path>
            <rect id="globe" stroke="#BCBBC9" stroke-width="2" stroke-linecap="round" stroke-linejoin="round" fill="#40484B" x="214" y="109" width="27" height="8" rx="2"></rect>
            <path d="M214.5,112 L240.5,112" id="globe" stroke="#BCBBC9" stroke-width="2" stroke-linecap="round" stroke-linejoin="round"></path>
            <path d="M202.958369,95.0416306 C216.236195,108.319456 237.763805,108.319456 251.041631,95.0416306 C264.319456,81.7638046 264.319456,60.2361954 251.041631,46.9583694" id="globe" stroke="#BCBBC9" stroke-width="2" stroke-linecap="round" stroke-linejoin="round"></path>
            <path d="M253.870058,44.1299423 L200.129942,97.8700577" id="globe" stroke="#BCBBC9" stroke-width="2" stroke-linecap="round" stroke-linejoin="round"></path>
            <circle id="globe" stroke="#BCBBC9" stroke-width="2" stroke-linecap="round" stroke-linejoin="round" fill="#2F3940" transform="translate(227.000000, 71.000000) rotate(-7.000000) translate(-227.000000, -71.000000) " cx="227" cy="71" r="28"></circle>
            <path d="M244.238521,48.9356989 L209.761479,93.0643011" id="globe" stroke="#BCBBC9" stroke-width="2" stroke-linecap="round" stroke-linejoin="round"></path>
            <path d="M246.687903,51.3265707 C241.738156,46.3768232 226.888913,51.3265707 216.989418,61.2260656 C207.089924,71.1255605 202.140176,85.9748029 207.089924,90.9245504" id="globe" stroke="#BCBBC9" stroke-width="2" stroke-linecap="round" stroke-linejoin="round" transform="translate(225.918008, 70.154656) rotate(-7.000000) translate(-225.918008, -70.154656) "></path>
            <path d="M246.910076,51.0754496 C251.859824,56.0251971 246.910076,70.8744395 237.010582,80.7739344 C227.111087,90.6734293 212.261844,95.6231768 207.312097,90.6734293" id="globe" stroke="#BCBBC9" stroke-width="2" stroke-linecap="round" stroke-linejoin="round" transform="translate(228.081992, 71.845344) rotate(-7.000000) translate(-228.081992, -71.845344) "></path>
            <path d="M249.064301,88.2385213 L204.935699,53.7614787" id="globe" stroke="#BCBBC9" stroke-width="2" stroke-linecap="round" stroke-linejoin="round"></path>
            <path d="M254.531519,74.7437249 L216.707003,45.191974" id="globe" stroke="#BCBBC9" stroke-width="2" stroke-linecap="round" stroke-linejoin="round"></path>
            <path d="M237.292997,96.808026 L199.468481,67.2562751" id="globe" stroke="#BCBBC9" stroke-width="2" stroke-linecap="round" stroke-linejoin="round"></path>
            <circle id="globe" stroke="#BCBBC9" stroke-width="2" stroke-linecap="round" stroke-linejoin="round" transform="translate(227.000000, 71.000000) rotate(-7.000000) translate(-227.000000, -71.000000) " cx="227" cy="71" r="28"></circle>
            <rect id="maroon-book" stroke="#CA94A2" stroke-linecap="round" stroke-linejoin="round" fill="#623742" x="42" y="55" width="15" height="60"></rect>
            <rect id="maroon-detail" stroke="#CA94A2" stroke-linecap="round" stroke-linejoin="round" fill="#CA94A1" x="42" y="58" width="15" height="9"></rect>
            <polygon id="maroon-detail" stroke="#623742" stroke-linecap="round" stroke-linejoin="round" fill="#623742" points="52 62.5 49.5 65 47 62.5 49.5 60"></polygon>
            <path d="M42.5,71.5 L56.5,71.5" id="maroon-detail" stroke="#CA94A2" stroke-linecap="round" stroke-linejoin="round"></path>
            <path d="M42.5,110.5 L56.5,110.5" id="maroon-detail" stroke="#CA94A2" stroke-linecap="round" stroke-linejoin="round"></path>
            <path d="M42.5,104.5 L56.5,104.5" id="maroon-detail" stroke="#CA94A2" stroke-linecap="round" stroke-linejoin="round"></path>
            <path d="M42.5,96.5 L56.5,96.5" id="maroon-detail" stroke="#CA94A2" stroke-linecap="round" stroke-linejoin="round"></path>
            <path d="M42.5,86.5 L56.5,86.5" id="maroon-detail" stroke="#CA94A2" stroke-linecap="round" stroke-linejoin="round"></path>
            <path d="M52,86.5 L49.5,89 L47,86.5 L49.5,84 L52,86.5 Z M51,96.5 L49.5,98 L48,96.5 L49.5,95 L51,96.5 Z M50.5,104.5 L49.5,105.5 L48.5,104.5 L49.5,103.5 L50.5,104.5 Z" id="maroon-detail" stroke="#CA94A1" stroke-linecap="round" stroke-linejoin="round" fill="#7B636A"></path>
            <rect id="maroon-shadow" stroke="#2B3234" stroke-linecap="round" stroke-linejoin="round" fill="#2B3234" opacity="0.300000012" x="50" y="55" width="7.5" height="60"></rect>
            <polygon id="olive-book" stroke="#618181" stroke-linecap="round" stroke-linejoin="round" fill="#B9CAAB" points="136 104 136 115 73 115 73 104"></polygon>
            <path d="M109,104 L109,115 L80,115 L80,104 L109,104 Z M128,104.5 L128,114.5 C128,114.776142 128.223858,115 128.5,115 C128.776142,115 129,114.776142 129,114.5 L129,104.5 C129,104.223858 128.776142,104 128.5,104 C128.223858,104 128,104.223858 128,104.5 Z M113,104.5 L113,114.5 C113,114.776142 113.223858,115 113.5,115 C113.776142,115 114,114.776142 114,114.5 L114,104.5 C114,104.223858 113.776142,104 113.5,104 C113.223858,104 113,104.223858 113,104.5 Z M121,113 C122.656854,113 124,111.656854 124,110 C124,108.343146 122.656854,107 121,107 C119.343146,107 118,108.343146 118,110 C118,111.656854 119.343146,113 121,113 Z" id="olive-detail" stroke="#618181" stroke-linecap="round" stroke-linejoin="round" fill="#618181"></path>
            <polygon id="olive-shadow" stroke="#40484B" stroke-linecap="round" stroke-linejoin="round" fill="#40484B" opacity="0.300000012" points="136 110 136 114 74 114 74 110"></polygon>
            <rect id="orange-book" stroke="#CA9F94" stroke-linecap="round" stroke-linejoin="round" fill="#D3764B" x="58" y="52" width="11" height="63"></rect>
            <path d="M58,55 L69,55 L69,64 L58,64 L58,55 Z M58.3666667,68 L68.6333333,68 C68.9094757,68 69.1333333,67.7761424 69.1333333,67.5 C69.1333333,67.2238576 68.9094757,67 68.6333333,67 L58.3666667,67 C58.0905243,67 57.8666667,67.2238576 57.8666667,67.5 C57.8666667,67.7761424 58.0905243,68 58.3666667,68 Z M58.3666667,108 L68.6333333,108 C68.9094757,108 69.1333333,107.776142 69.1333333,107.5 C69.1333333,107.223858 68.9094757,107 68.6333333,107 L58.3666667,107 C58.0905243,107 57.8666667,107.223858 57.8666667,107.5 C57.8666667,107.776142 58.0905243,108 58.3666667,108 Z" id="orange-detail" stroke="#CA9F94" stroke-linecap="round" stroke-linejoin="round" fill="#CA9F94"></path>
            <path d="M65.625,100.375 L63.5,98.25 L61.375,100.375 L60.5,99.5 L59.5,100.5 L60.5,101.5 L61.375,100.625 L63.5,102.75 L65.625,100.625 L66.5,101.5 L67.5,100.5 L66.5,99.5 L65.625,100.375 L65.625,100.375 Z M65.625,74.375 L63.5,72.25 L61.375,74.375 L60.5,73.5 L59.5,74.5 L60.5,75.5 L61.375,74.625 L63.5,76.75 L65.625,74.625 L66.5,75.5 L67.5,74.5 L66.5,73.5 L65.625,74.375 L65.625,74.375 Z" id="orange-detail" stroke="#CA9F94" stroke-linecap="round" stroke-linejoin="round" fill="#7F543F"></path>
            <rect id="orange-shadow" stroke="#2B3234" stroke-linecap="round" stroke-linejoin="round" fill="#2B3234" opacity="0.300000012" x="64" y="52" width="5.5" height="63"></rect>
            <path d="M294.102906,125 L318.013563,125 L319.006781,125 C321.21592,125 323.006781,123.209139 323.006781,121 C323.006781,118.790861 321.21592,117 319.006781,117 L318.013563,117 L30,117 C27.790861,117 26,118.790861 26,121 C26,123.209139 27.790861,125 30,125 L57.3251281,125 L59.214017,142 L64.214017,142 L66.1029059,125 L285.325128,125 L287.214017,142 L292.214017,142 L294.102906,125 L294.102906,125 Z" id="shelf-bot" stroke="#6C6350" stroke-linecap="round" stroke-linejoin="round" fill="#6C6350"></path>
            <path d="M319.963127,115 L29.0404031,115 C26.8089501,115 25,116.790861 25,119 C25,121.209139 26.8089501,123 29.0404031,123 L319.963127,123 L320.966378,123 C323.197831,123 325.006781,121.209139 325.006781,119 C325.006781,116.790861 323.197831,115 320.966378,115 L319.963127,115 Z" id="shelf-top" stroke="#6C6350" stroke-linecap="round" stroke-linejoin="round" fill="#AE9367"></path>
            <path d="M1153,215 C1169.56854,215 1183,201.568542 1183,185 C1183,168.431458 1178.39062,189.8125 1153.4082,184.220703 C1128.42578,178.628906 1123,168.431458 1123,185 C1123,201.568542 1136.43146,215 1153,215 Z" id="fish-water" stroke="#B7C6E2" stroke-width="2" stroke-linecap="round" stroke-linejoin="round" fill="#1A1B42"></path>
            <path d="M1174.40833,163.983721 C1179.72248,169.396381 1183,176.815438 1183,185 C1183,201.568542 1169.56854,215 1153,215 C1136.43146,215 1123,201.568542 1123,185 C1123,176.815428 1126.27753,169.396363 1131.59169,163.983702 C1129.02142,163.776488 1127,161.619342 1127,159 C1127,156.238576 1129.23925,154 1131.99767,154 L1153,154 L1174.00233,154 C1176.76247,154 1179,156.244195 1179,159 C1179,161.624598 1176.97716,163.776877 1174.40833,163.983721 L1174.40833,163.983721 Z" id="fish-bowl" stroke="#B7C6E2" stroke-width="2" stroke-linecap="round" stroke-linejoin="round"></path>
            <path d="M1131.46809,164 L1174.53191,164" id="fish-line" stroke="#B7C6E2" stroke-width="2" stroke-linecap="round" stroke-linejoin="round"></path>
            <path d="M1163,194 C1163,194 1161,196.25 1161,198.5 C1161,200.75 1163,203 1163,203 L1156,198.5 L1163,194 Z" id="fish-tail" stroke="#FDF27E" stroke-linecap="round" stroke-linejoin="round" fill="#D8C964"></path>
            <path d="M1149,205 C1153.97056,205 1158,199 1158,199 C1158,199 1153.97056,193 1149,193 C1144.02944,193 1142.63604,196 1142.63604,196 C1141.18019,197.656854 1141.09928,200.406733 1142.63604,202 C1142.63604,202 1144.02944,205 1149,205 Z" id="fish-body" stroke="#FDF27E" stroke-linecap="round" stroke-linejoin="round" fill="#D8C964"></path>
            <path d="M1011,183.304689 C1008.32877,183.304689 1007.79874,182 1005.0421,182 C998.388753,182 994,184.525102 994,193.477307 C994,202.429512 999.393838,213 1006.04719,213 C1007.81347,213 1009.48837,212.250117 1011,210.98811 C1012.51127,212.250117 1014.18617,213 1015.95245,213 C1022.6058,213 1028,202.429512 1028,193.477307 C1028,184.525102 1023.35961,182 1016.70626,182 C1014.35045,182 1013.67123,183.304689 1011,183.304689 Z" id="apple-fruit" stroke="#F25A5B" stroke-width="2" stroke-linecap="round" stroke-linejoin="round" fill="#800304"></path>
            <path d="M1008.84571,180.637708 L1008.9628,180.6946 L1009,181 L1008.70529,180.85698 C1007.23574,181.084153 1002.34857,181.436962 1000.09593,176.674231 L1000,176.484986 L1000.16158,176.419402 C1005.20924,174.590956 1008.11185,179.24978 1008.84571,180.637708 L1008.84571,180.637708 Z" id="apple-leaf" stroke="#69B383" stroke-width="2" stroke-linecap="round" stroke-linejoin="round" fill="#384E4A"></path>
            <path d="M1010.22177,183 C1008.63757,182.909822 1008.66931,179.193014 1009.88294,177.496906 C1010.65325,176.420378 1011.83889,175.906511 1013,176.013979" id="apple-stem" stroke="#69B383" stroke-width="2" stroke-linecap="round" stroke-linejoin="round"></path>
            <ellipse id="apple-hole" stroke="#F25A5B" stroke-linecap="round" stroke-linejoin="round" fill="#F4C0C1" cx="1002.5" cy="191.5" rx="2.5" ry="2.5"></ellipse>
            <path d="M998,191.412138 L998,184.755488 C998,183.785959 998.790553,183 999.751364,183 L1000.06403,183 C1001.03129,183 1001.8154,183.778807 1001.8154,184.753934 L1001.8154,189.717196 C1001.8154,191.100328 1004.28236,191.332176 1004.28236,191.332176 C1004.82248,191.429287 1005.10642,191.929727 1004.91618,192.450987 L1004.72089,192.986092 C1004.53082,193.506883 1003.93844,193.957371 1003.38037,193.973827 C1003.38037,193.973827 998,194.527015 998,191.412138 Z" id="apple-worm" stroke="#CC619E" stroke-linecap="round" stroke-linejoin="round" fill="#E8B8D4"></path>
            <path d="M1000.0059,185.3626 C999.720186,185.367027 999.611061,185.49398 999.622111,185.509125 C999.689776,185.601407 999.740076,185.70464 999.768581,185.816452 C999.903433,186.345651 999.498313,186.865875 998.86371,186.978397 C998.229043,187.090868 997.605218,186.75305 997.470304,186.223852 C997.384508,185.887147 997,185.883639 997,185.883639 L997.007939,185.683218 C997.007939,185.683218 997.172398,185.657201 997.367426,185.565382 C997.57717,185.46657 997.820058,185.300488 997.864311,185.269443 C998.006963,185.16949 998.180219,185.096472 998.375239,185.061906 C998.788499,184.988623 999.19718,185.106337 999.469269,185.343513 C999.481107,185.353827 999.589908,185.211385 1000.00261,185.205372 C1000.38356,185.199822 1000.49825,185.339009 1000.50965,185.328356 C1000.77166,185.083399 1001.17517,184.953853 1001.59124,185.015054 C1001.78758,185.043918 1001.96379,185.111845 1002.11053,185.207582 C1002.15606,185.237319 1002.40574,185.396225 1002.61949,185.488867 C1002.81824,185.574949 1002.98369,185.59616 1002.98369,185.59616 L1003,185.796228 C1003,185.796228 1002.61587,185.810933 1002.54421,186.149933 C1002.4315,186.682738 1001.82219,187.038521 1001.1832,186.944606 C1000.54428,186.850636 1000.11765,186.34253 1000.2303,185.809726 C1000.25411,185.697151 1000.30006,185.592516 1000.36383,185.498319 C1000.37424,185.482861 1000.25987,185.359164 999.974149,185.363062 M998.671854,186.866605 C999.197839,186.858942 999.616799,186.497155 999.607625,186.058531 C999.598452,185.619907 999.16462,185.270543 998.638635,185.278206 C998.112649,185.285869 997.69369,185.647656 997.702863,186.08628 C997.712037,186.524904 998.145868,186.874268 998.671854,186.866605 L998.671854,186.866605 Z M1001.37027,186.827293 C1000.84428,186.834956 1000.41045,186.485593 1000.40128,186.046968 C1000.3921,185.608344 1000.81106,185.246557 1001.33705,185.238894 C1001.86303,185.231232 1002.29686,185.580595 1002.30604,186.019219 C1002.31521,186.457843 1001.89625,186.81963 1001.37027,186.827293 L1001.37027,186.827293 L1001.37027,186.827293 Z M1001.49203,186.12281 C1001.56539,186.121742 1001.62382,186.07124 1001.62254,186.010011 C1001.62126,185.948782 1001.56075,185.900013 1001.48739,185.901082 C1001.41403,185.90215 1001.3556,185.952653 1001.35688,186.013881 C1001.35816,186.07511 1001.41867,186.123879 1001.49203,186.12281 L1001.49203,186.12281 Z M998.835007,186.12281 C998.908368,186.121742 998.9668,186.07124 998.96552,186.010011 C998.964239,185.948782 998.90373,185.900013 998.83037,185.901082 C998.757009,185.90215 998.698577,185.952653 998.699858,186.013881 C998.701138,186.07511 998.761647,186.123879 998.835007,186.12281 L998.835007,186.12281 Z" id="apple-glasses" stroke="#40484B" stroke-width="0.5" stroke-linecap="round" stroke-linejoin="round" fill="#40484B"></path>
            <polygon id="saqua" stroke="#749E94" stroke-linecap="round" stroke-linejoin="round" fill="#94CABE" points="1232 197 1232 212 1176 212 1176 197"></polygon>
            <polygon id="saqua" stroke="#749E94" stroke-linecap="round" stroke-linejoin="round" fill="#749E95" points="1221 197 1221 212 1194 212 1194 197"></polygon>
            <path d="M1226.5,197.5 L1226.5,211.5" id="saqua" stroke="#749E94" stroke-linecap="round" stroke-linejoin="round"></path>
            <polygon id="saqua" stroke="#40484B" stroke-linecap="round" stroke-linejoin="round" fill="#40484B" opacity="0.300000012" points="1232 205 1232 212.5 1176 212.5 1176 205"></polygon>
            <polygon id="smaroon" stroke="#CA94A2" stroke-linecap="round" stroke-linejoin="round" fill="#623742" points="1229 185 1229 196.25 1178 196.25 1178 185"></polygon>
            <polygon id="smaroon" stroke="#CA94A2" stroke-linecap="round" stroke-linejoin="round" fill="#CA94A1" points="1226.45 185 1226.45 196.25 1218.8 196.25 1218.8 185"></polygon>
            <path d="M1214.975,185.375 L1214.975,195.875" id="smaroon" stroke="#CA94A2" stroke-linecap="round" stroke-linejoin="round"></path>
            <path d="M1181.825,185.375 L1181.825,195.875" id="smaroon" stroke="#CA94A2" stroke-linecap="round" stroke-linejoin="round"></path>
            <polygon id="smaroon" stroke="#2B3234" stroke-linecap="round" stroke-linejoin="round" fill="#2B3234" opacity="0.300000012" points="1229 191 1229 196.625 1178 196.625 1178 191"></polygon>
            <path d="M1224.29761,223 L1250.01356,223 L1251.00678,223 C1253.21592,223 1255.00678,221.209139 1255.00678,219 C1255.00678,216.790861 1253.21592,215 1251.00678,215 L1250.01356,215 L962,215 C959.790861,215 958,216.790861 958,219 C958,221.209139 959.790861,223 962,223 L991.214017,223 L991.214017,250 L996.214017,250 L996.214017,223 L1219.37769,223 L1219.37769,250 L1224.29761,250 L1224.29761,223 L1224.29761,223 Z" id="desk-leg" stroke="#6C6350" stroke-linecap="round" stroke-linejoin="round" fill="#6C6350"></path>
            <path d="M1251.96313,213 L961.040403,213 C958.80895,213 957,214.790861 957,217 C957,219.209139 958.80895,221 961.040403,221 L1251.96313,221 L1252.96638,221 C1255.19783,221 1257.00678,219.209139 1257.00678,217 C1257.00678,214.790861 1255.19783,213 1252.96638,213 L1251.96313,213 Z" id="desk-top" stroke="#6C6350" stroke-linecap="round" stroke-linejoin="round" fill="#AE9367"></path>
            <rect id="board" stroke="#DAB475" stroke-width="8" stroke-linecap="round" stroke-linejoin="round" fill="#344744" x="377" y="25" width="530" height="190" rx="3"></rect>
            <rect id="shelf" fill="#B79762" x="361" y="207" width="560" height="20" rx="3.2"></rect>
            <rect id="chalk" stroke="#E3DDDD" stroke-linecap="round" stroke-linejoin="round" fill="#FFFFFF" x="671" y="199" width="30" height="8" rx="4"></rect>
            <rect id="eraser-bottom" stroke="#726A6A" stroke-linecap="round" stroke-linejoin="round" fill="#757575" x="584" y="191" width="54" height="16"></rect>
            <rect id="eraser-top" stroke="#726A6A" stroke-linecap="round" stroke-linejoin="round" fill="#40484B" x="582" y="190" width="58" height="8"></rect>
            <text id="Frequently-Asked-Que" font-family="SourceSansPro-Semibold, Source Sans Pro" font-size="28" font-weight="500" fill="#FFFFFF">
                <tspan x="473" y="132">Frequently Asked Questions</tspan>
            </text>
        </g>
    </g>
</svg>
