<?xml version="1.0" encoding="UTF-8" standalone="no"?>
<svg width="200px" height="132px" viewBox="0 0 200 132" version="1.1" xmlns="http://www.w3.org/2000/svg" xmlns:xlink="http://www.w3.org/1999/xlink" style="background: #AEE1F6;">
    <!-- Generator: Sketch 3.7.2 (28276) - http://www.bohemiancoding.com/sketch -->
    <title>mini-stadium-200</title>
    <desc>Created with Sketch.</desc>
    <defs>
		<filter x="-50%" y="-50%" width="200%" height="200%" filterUnits="objectBoundingBox" id="filter-2">
            <feMorphology radius="2" operator="dilate" in="SourceAlpha" result="shadowSpreadOuter1"></feMorphology>
            <feOffset dx="0" dy="0" in="shadowSpreadOuter1" result="shadowOffsetOuter1"></feOffset>
            <feMorphology radius="2" operator="erode" in="SourceAlpha" result="shadowInner"></feMorphology>
            <feOffset dx="0" dy="0" in="shadowInner" result="shadowInner"></feOffset>
            <feComposite in="shadowOffsetOuter1" in2="shadowInner" operator="out" result="shadowOffsetOuter1"></feComposite>
            <feGaussianBlur stdDeviation="2" in="shadowOffsetOuter1" result="shadowBlurOuter1"></feGaussianBlur>
            <feColorMatrix values="0 0 0 0 1   0 0 0 0 1   0 0 0 0 1  0 0 0 1 0" type="matrix" in="shadowBlurOuter1"></feColorMatrix>
        </filter>
	</defs>
    <g id="subscenes" stroke="none" stroke-width="1" fill="none" fill-rule="evenodd">
        <g id="mini-stadium-200">
            <rect id="mini-stadium-inside-1" stroke="#4C7935" stroke-width="0.694444444" stroke-linecap="round" stroke-linejoin="round" fill="#5BBA47" x="7.87037037" y="83.3333333" width="184.490741" height="28.7292636"></rect>
            <path d="M59.4907407,56.5972222 L59.4907407,59.837963 L59.4907407,56.5972222 L59.4907407,56.5972222 L59.4907407,56.5972222 L59.4907407,56.5972222 L59.4907407,56.5972222 Z M140.277778,56.5972222 L140.277778,59.837963 L140.277778,56.5972222 L140.277778,56.5972222 L140.277778,56.5972222 L140.277778,56.5972222 L140.277778,56.5972222 Z M113.425926,56.5972222 L113.425926,59.837963 L113.425926,56.5972222 L113.425926,56.5972222 L113.425926,56.5972222 L113.425926,56.5972222 L113.425926,56.5972222 Z M72.9165718,58.5240695 L86.3425926,60.4509168 L72.9165718,58.5240695 L59.490551,60.4509168 L72.9165718,58.5240695 L72.9165718,58.5240695 L72.9165718,58.5240695 Z M100.000095,58.5240695 L113.426116,60.4509168 L100.000095,58.5240695 L86.5740741,60.4509168 L100.000095,58.5240695 L100.000095,58.5240695 L100.000095,58.5240695 Z M72.9165718,58.5240695 L59.490551,56.5972222 L72.9165718,58.5240695 L86.3425926,56.5972222 L72.9165718,58.5240695 L72.9165718,58.5240695 L72.9165718,58.5240695 Z M100.000095,58.5240695 L113.426021,60.4509032 L126.851947,58.5240695 L140.277968,60.4509168 L126.851947,58.5240695 L113.426021,60.4509032 L100.000095,58.5240695 L113.426116,56.5972222 L126.851947,58.5240695 L140.277968,56.5972222 L126.851947,58.5240695 L113.425926,56.5972222 L100.000095,58.5240695 L100.000095,58.5240695 Z M100.000095,58.5240695 L86.5740741,56.5972222 L100.000095,58.5240695 L113.426021,56.5972358 L100.000095,58.5240695 L100.000095,58.5240695 Z M86.3425926,56.5972222 L86.3425926,59.837963 L86.3425926,56.5972222 L86.3425926,56.5972222 L86.3425926,56.5972222 Z" id="mini-stadium-inside-2" stroke="#8DA3B3" stroke-width="0.925925926" stroke-linecap="round" stroke-linejoin="round"></path>
            <path d="M53.7037037,20.6004698 C53.7037037,20.3455457 53.9112297,20.1388889 54.168957,20.1388889 L145.831043,20.1388889 C146.087995,20.1388889 146.296296,20.3471792 146.296296,20.6004698 L146.296296,56.714345 C146.296296,56.9692691 146.08877,57.1759259 145.831043,57.1759259 L54.168957,57.1759259 C53.9120047,57.1759259 53.7037037,56.9676356 53.7037037,56.714345 L53.7037037,20.6004698 L53.7037037,20.6004698 Z" id="mini-stadium-inside-3" stroke="#000000" stroke-width="0.694444444" stroke-linecap="round" stroke-linejoin="round" fill="#637074"></path>
            <path d="M57.1759259,24.0250575 C57.1759259,23.7964412 57.3850776,23.6111111 57.6367363,23.6111111 L142.363264,23.6111111 C142.617762,23.6111111 142.824074,23.7954768 142.824074,24.0250575 L142.824074,53.2897574 C142.824074,53.5183736 142.614922,53.7037037 142.363264,53.7037037 L57.6367363,53.7037037 C57.3822378,53.7037037 57.1759259,53.519338 57.1759259,53.2897574 L57.1759259,24.0250575 L57.1759259,24.0250575 Z" id="mini-stadium-inside-4" stroke="#000000" stroke-width="0.694444444" stroke-linecap="round" stroke-linejoin="round" fill="#2B3234"></path>
            <path d="M100.079439,74.8262485 L99.898828,83.5871044 C99.4554585,83.5871044 38.4673145,83.5648148 8.40147707,83.5648148 C7.56891053,83.5648148 8.40147707,60.9664351 8.40147707,60.9664351 L4.16666667,57.4598524 L4.16666667,51.8527561 C4.16666667,47.9947716 28.5840492,49.9697085 29.5796338,50.4215134 C33.1137131,52.0253092 37.0968875,53.8329082 37.0968875,53.8329082 C44.2641777,57.0854865 56.4438545,59.7222222 64.3042443,59.7222222 C64.3042443,59.7222222 96.5546192,59.7289571 100.079439,59.7422469 C103.604254,59.7289571 135.854634,59.7222222 135.854634,59.7222222 C143.715024,59.7222222 155.894701,57.0854865 163.061991,53.8329082 C163.061991,53.8329082 167.045165,52.0253092 170.579245,50.4215134 C171.574829,49.9697085 195.992212,47.9947716 195.992212,51.8527561 L195.992212,57.4598524 L191.757401,60.9664351 C191.757401,60.9664351 192.589968,83.5648148 191.757401,83.5648148 C161.691564,83.5648148 100.70342,83.5871044 100.26005,83.5871044 L100.079439,74.8262485 L100.079439,74.8262485 Z" id="mini-stadium-inside-5" stroke="#8DA3B3" stroke-width="0.694444444" stroke-linecap="round" stroke-linejoin="round" fill="#E5E5E5"></path>
            <path d="M64.3746487,65.4651969 C56.5142589,65.4651969 44.3345821,63.2327194 37.1672919,60.4788189 C37.1672919,60.4788189 33.1841175,58.9483568 29.6500382,57.5904513 C28.900599,57.3024929 8.47188142,57.1909825 8.47188142,57.1909825 L8.47188142,66.5186499 C8.47188142,66.5186499 7.63931489,83.5228857 8.47188142,83.5228857 L98.6693936,83.5228857 C99.0926381,83.5354075 99.5258628,83.5417579 99.9692323,83.5417579 L192.101976,83.5417579 L191.883001,66.5186499 L191.883001,57.1759259 C191.883001,57.1759259 171.013756,57.3250547 170.273919,57.6093235 C166.73984,58.967229 162.756665,60.4976911 162.756665,60.4976911 C155.589375,63.2515916 143.409698,65.4840691 135.549309,65.4840691 L100.460764,65.4840691 C100.290658,65.4715473 64.3746487,65.4651969 64.3746487,65.4651969 Z" id="mini-stadium-inside-6" stroke="#8DA3B3" stroke-width="0.694444444" stroke-linecap="round" stroke-linejoin="round" fill="#495862"></path>
            <path d="M64.3042443,65.5105434 C56.4438545,65.5105434 44.2641777,63.278066 37.0968875,60.5241654 C37.0968875,60.5241654 33.1137131,58.9937033 29.5796338,57.6357978 C28.8301946,57.3478395 8.40147707,57.236329 8.40147707,57.236329 L8.40147707,66.5639964 C8.40147707,66.5639964 7.56891053,83.5682322 8.40147707,83.5682322 C38.4673145,83.5682322 99.4554585,83.5871044 99.898828,83.5871044 L100.39036,65.5294156 C100.220254,65.5168938 64.3042443,65.5105434 64.3042443,65.5105434 Z" id="mini-stadium-inside-7" stroke="#8DA3B3" stroke-width="0.694444444" stroke-linecap="round" stroke-linejoin="round" fill-opacity="0.3" fill="#F25A5B"></path>
            <path d="M156.041315,65.4501403 C148.180926,65.4501403 136.001249,63.2176629 128.833959,60.4637623 C128.833959,60.4637623 124.850784,58.9333002 121.316705,57.5753947 C120.567266,57.2874364 100.138548,57.1759259 100.138548,57.1759259 L100.138548,66.5035933 C100.138548,66.5035933 99.3059816,83.5078291 100.138548,83.5078291 C130.204385,83.5078291 191.192529,83.5267013 191.635899,83.5267013 L192.127431,65.4690125 C191.957325,65.4564907 156.041315,65.4501403 156.041315,65.4501403 Z" id="mini-stadium-inside-8" stroke="#8DA3B3" stroke-width="0.694444444" stroke-linecap="round" stroke-linejoin="round" fill-opacity="0.3" fill="#003CB6" transform="translate(145.947975, 70.351314) scale(-1, 1) translate(-145.947975, -70.351314) "></path>
            <polygon id="mini-stadium-inside-9" stroke="#8DA3B3" stroke-width="0.694444444" stroke-linecap="round" stroke-linejoin="round" fill-opacity="0.5" fill="#6589A2" points="48.1481481 78.2277499 63.8596685 65.7407407 136.459033 65.7407407 151.953645 78.2571809"></polygon>
            <polygon id="mini-stadium-inside-10" stroke="#8DA3B3" stroke-width="0.694444444" stroke-linecap="round" stroke-linejoin="round" fill-opacity="0.3" fill="#F25A5B" points="100.135024 78.149828 48.2322749 78.1351125 63.9437953 65.6481033 100.243477 65.6481033"></polygon>
            <polygon id="mini-stadium-inside-11" stroke="#8DA3B3" stroke-width="0.694444444" stroke-linecap="round" stroke-linejoin="round" fill-opacity="0.3" fill="#003CB6" transform="translate(126.005601, 71.991603) scale(-1, 1) translate(-126.005601, -71.991603) " points="151.902749 78.2424654 100 78.2277499 115.71152 65.7407407 152.011202 65.7407407"></polygon>
            <path d="M51.9925629,75.462963 L148.238919,75.462963 L51.9925629,75.462963 L51.9925629,75.462963 Z M61.6867779,67.3611111 L138.776185,67.3611111 L61.6867779,67.3611111 L61.6867779,67.3611111 Z M59.7222222,68.9814815 L140.740741,68.9814815 L59.7222222,68.9814815 L59.7222222,68.9814815 Z M57.6382649,70.6018519 L142.824698,70.6018519 L57.6382649,70.6018519 L57.6382649,70.6018519 Z M55.4543246,72.2222222 L144.545675,72.2222222 L55.4543246,72.2222222 L55.4543246,72.2222222 Z M53.3767277,73.8425926 L146.391791,73.8425926 L53.3767277,73.8425926 L53.3767277,73.8425926 Z" id="mini-stadium-inside-12" stroke="#8DA3B3" stroke-width="0.5" stroke-linecap="round" stroke-linejoin="round" opacity="0.5"></path>
            <polygon id="mini-stadium-inside-13" stroke="#495862" stroke-width="0.694444444" stroke-linecap="round" stroke-linejoin="round" fill="#6F828F" points="7.87037037 81.0164287 7.87037037 84.8701233 192.370004 84.8701233 192.370004 81.0164287 159.249054 78.2386509 41.3979432 78.2574229"></polygon>
            <path d="M29.4759115,57.8369141 L40.5011212,78.3185041" id="mini-stadium-inside-14" stroke="#A5989F" stroke-width="0.5" stroke-linecap="round" stroke-linejoin="round" opacity="0.5"></path>
            <path d="M170.593714,57.8369141 L159.568504,78.3185041" id="mini-stadium-inside-15" stroke="#A5989F" stroke-width="0.5" stroke-linecap="round" stroke-linejoin="round" opacity="0.5"></path>
            <rect id="mini-stadium-inside-16" stroke="#FFFFFF" stroke-width="0.694444444" stroke-linecap="round" stroke-linejoin="round" fill="#F25A5B" x="58.3333333" y="13.1944444" width="37.037037" height="6.94444444"></rect>
            <rect id="mini-stadium-inside-17" stroke="#FFFFFF" stroke-width="0.694444444" stroke-linecap="round" stroke-linejoin="round" fill="#0547BB" x="104.62963" y="13.1944444" width="37.037037" height="6.94444444"></rect>
            <path d="M4.39814815,65.9722222 C4.39814815,65.9722222 68.2098765,76.6203704 100.115741,76.6203704 C132.021605,76.6203704 195.833333,65.9722222 195.833333,65.9722222 L195.833333,109.977561 C195.833333,111.129094 194.895113,112.137913 193.761352,112.227829 C193.761352,112.227829 132.021605,117.248987 100.115741,117.248987 C68.2098765,117.248987 6.45178052,112.226381 6.45178052,112.226381 C5.31759068,112.135926 4.39814815,111.121039 4.39814815,109.977561 L4.39814815,65.9722222 Z" id="mini-stadium-outside-4" stroke="#2B3234" stroke-width="0.694444444" stroke-linecap="round" stroke-linejoin="round" fill="#6F828F"></path>
            <path d="M100.115741,84.6742983 C67.0524691,84.6742983 0.925925926,73.9230686 0.925925926,73.9230686 L0.925925926,65.2777778 C0.925925926,65.2777778 67.0524691,75.9259259 100.115741,75.9259259 C133.179012,75.9259259 199.305556,65.2777778 199.305556,65.2777778 L199.305556,73.9230686 C199.305556,73.9230686 133.179012,84.6742983 100.115741,84.6742983 Z" id="mini-stadium-outside-3" stroke="#8DA3B3" stroke-width="0.694444444" stroke-linecap="round" stroke-linejoin="round" fill="#E5E5E5"></path>
            <path d="M2.02546296,58.2813404 C2.51281797,56.0991012 3.91141319,51.7256355 3.91141319,51.7256355 C3.98846395,51.4822257 4.17660418,51.4461247 4.33577917,51.6503164 L8.10185185,56.4814815 L8.10185185,66.2037037 L1.38572857,65.3371072 C1.13178658,65.3043404 0.953182488,65.0666555 0.985633786,64.8191139 C0.985633786,64.8191139 1.53810796,60.4635796 2.02546296,58.2813404 Z" id="mini-stadium-outside-2" stroke="#8DA3B3" stroke-width="0.694444444" fill="#E5E5E5"></path>
            <path d="M193.173432,58.380943 C193.660787,56.1987038 195.059382,51.8252381 195.059382,51.8252381 C195.136433,51.5818283 195.324573,51.5457273 195.483748,51.749919 L199.249821,56.5810841 L199.249821,66.3033063 L192.533697,65.4367098 C192.279755,65.4039431 192.101151,65.1662581 192.133602,64.9187165 C192.133602,64.9187165 192.686077,60.5631822 193.173432,58.380943 Z" id="mini-stadium-outside-1" stroke="#8DA3B3" stroke-width="0.694444444" fill="#E5E5E5" transform="translate(195.689725, 58.960819) scale(-1, 1) translate(-195.689725, -58.960819) "></path>
            <rect id="mini-stadium-invisible-container" x="0" y="0" width="200" height="132.407407"></rect>
        </g>
    </g>
</svg>
