<?xml version="1.0" encoding="UTF-8" standalone="no"?>
<svg width="1280px" height="250px" viewBox="0 0 1280 250" version="1.1" xmlns="http://www.w3.org/2000/svg" xmlns:xlink="http://www.w3.org/1999/xlink" style="background: #2B3234;">
    <!-- Generator: Sketch 40 (33762) - http://www.bohemiancoding.com/sketch -->
    <title>pricing-checkout</title>
    <desc>Created with Sketch.</desc>
    <defs></defs>
    <g id="Page-1" stroke="none" stroke-width="1" fill="none" fill-rule="evenodd">
        <g id="pricing-checkout">
            <rect id="bg-shelf" stroke="#2BB3B8" stroke-width="2" stroke-linecap="round" stroke-linejoin="round" fill="#135255" x="1131" y="172" width="41" height="52"></rect>
            <polygon id="bg-shelf" stroke="#FFFFFF" stroke-width="2" stroke-linecap="round" stroke-linejoin="round" fill="#9A5BC5" points="1131 195 1172 180 1172 202 1131 217"></polygon>
            <rect id="bg-shelf" stroke="#2BB3B8" stroke-width="2" stroke-linecap="round" stroke-linejoin="round" fill="#135255" x="1081" y="172" width="41" height="52"></rect>
            <polygon id="bg-shelf" stroke="#FFFFFF" stroke-width="2" stroke-linecap="round" stroke-linejoin="round" fill="#9A5BC5" points="1081 195 1122 180 1122 202 1081 217"></polygon>
            <rect id="bg-shelf" stroke="#2BB3B8" stroke-width="2" stroke-linecap="round" stroke-linejoin="round" fill="#135255" x="1031" y="172" width="41" height="52"></rect>
            <polygon id="bg-shelf" stroke="#FFFFFF" stroke-width="2" stroke-linecap="round" stroke-linejoin="round" fill="#9A5BC5" points="1031 195 1072 180 1072 202 1031 217"></polygon>
            <rect id="bg-shelf" stroke="#2BB3B8" stroke-width="2" stroke-linecap="round" stroke-linejoin="round" fill="#135255" x="981" y="172" width="41" height="52"></rect>
            <polygon id="bg-shelf" stroke="#FFFFFF" stroke-width="2" stroke-linecap="round" stroke-linejoin="round" fill="#9A5BC5" points="981 195 1022 180 1022 202 981 217"></polygon>
            <rect id="bg-shelf" stroke="#2BB3B8" stroke-width="2" stroke-linecap="round" stroke-linejoin="round" fill="#135255" x="931" y="172" width="41" height="52"></rect>
            <polygon id="bg-shelf" stroke="#FFFFFF" stroke-width="2" stroke-linecap="round" stroke-linejoin="round" fill="#9A5BC5" points="931 195 972 180 972 202 931 217"></polygon>
            <path d="M1157,115.000927 L1157,142.006755 C1157,146.412441 1160.20616,148.396922 1164.16115,146.419425 L1167,145 L1169.83885,146.419425 C1173.79467,148.397337 1177,146.421302 1177,142.006755 L1177,115.000927 C1177,110.524266 1174.05711,106.732755 1170,105.457995 L1170,100 L1164,100 L1164,105.457702 C1159.94231,106.731944 1157,110.522703 1157,115.000927 Z" id="bg-shelf" stroke="#FFFFFF" stroke-linecap="round" stroke-linejoin="round"></path>
            <path d="M1157,115.000927 L1157,136.006755 C1157,140.412441 1177,140.421302 1177,136.006755 L1177,115.000927 C1177,118.524266 1157,118.522703 1157,115.000927 Z" id="bg-shelf" stroke="#D3242C" stroke-linecap="round" stroke-linejoin="round" fill="#D3242C"></path>
            <path d="M1170,102.905034 L1170,100 L1164,100 L1164,102.904879 C1159.94231,103.583098 1174.05711,103.583529 1170,102.905034 Z" id="bg-shelf" stroke="#D3242C" stroke-linecap="round" stroke-linejoin="round" fill="#D3242C"></path>
            <path d="M1128,115.000927 L1128,142.006755 C1128,146.412441 1131.20616,148.396922 1135.16115,146.419425 L1138,145 L1140.83885,146.419425 C1144.79467,148.397337 1148,146.421302 1148,142.006755 L1148,115.000927 C1148,110.524266 1145.05711,106.732755 1141,105.457995 L1141,100 L1135,100 L1135,105.457702 C1130.94231,106.731944 1128,110.522703 1128,115.000927 Z" id="bg-shelf" stroke="#FFFFFF" stroke-linecap="round" stroke-linejoin="round"></path>
            <path d="M1128,115.000927 L1128,136.006755 C1128,140.412441 1148,140.421302 1148,136.006755 L1148,115.000927 C1148,118.524266 1128,118.522703 1128,115.000927 Z" id="bg-shelf" stroke="#D3242C" stroke-linecap="round" stroke-linejoin="round" fill="#D3242C"></path>
            <path d="M1141,102.905034 L1141,100 L1135,100 L1135,102.904879 C1130.94231,103.583098 1145.05711,103.583529 1141,102.905034 Z" id="bg-shelf" stroke="#D3242C" stroke-linecap="round" stroke-linejoin="round" fill="#D3242C"></path>
            <path d="M1099,115.000927 L1099,142.006755 C1099,146.412441 1102.20616,148.396922 1106.16115,146.419425 L1109,145 L1111.83885,146.419425 C1115.79467,148.397337 1119,146.421302 1119,142.006755 L1119,115.000927 C1119,110.524266 1116.05711,106.732755 1112,105.457995 L1112,100 L1106,100 L1106,105.457702 C1101.94231,106.731944 1099,110.522703 1099,115.000927 Z" id="bg-shelf" stroke="#FFFFFF" stroke-linecap="round" stroke-linejoin="round"></path>
            <path d="M1099,115.000927 L1099,136.006755 C1099,140.412441 1119,140.421302 1119,136.006755 L1119,115.000927 C1119,118.524266 1099,118.522703 1099,115.000927 Z" id="bg-shelf" stroke="#D3242C" stroke-linecap="round" stroke-linejoin="round" fill="#D3242C"></path>
            <path d="M1112,102.905034 L1112,100 L1106,100 L1106,102.904879 C1101.94231,103.583098 1116.05711,103.583529 1112,102.905034 Z" id="bg-shelf" stroke="#D3242C" stroke-linecap="round" stroke-linejoin="round" fill="#D3242C"></path>
            <path d="M1070,115.000927 L1070,142.006755 C1070,146.412441 1073.20616,148.396922 1077.16115,146.419425 L1080,145 L1082.83885,146.419425 C1086.79467,148.397337 1090,146.421302 1090,142.006755 L1090,115.000927 C1090,110.524266 1087.05711,106.732755 1083,105.457995 L1083,100 L1077,100 L1077,105.457702 C1072.94231,106.731944 1070,110.522703 1070,115.000927 Z" id="bg-shelf" stroke="#FFFFFF" stroke-linecap="round" stroke-linejoin="round"></path>
            <path d="M1070,115.000927 L1070,136.006755 C1070,140.412441 1090,140.421302 1090,136.006755 L1090,115.000927 C1090,118.524266 1070,118.522703 1070,115.000927 Z" id="bg-shelf" stroke="#D3242C" stroke-linecap="round" stroke-linejoin="round" fill="#D3242C"></path>
            <path d="M1083,102.905034 L1083,100 L1077,100 L1077,102.904879 C1072.94231,103.583098 1087.05711,103.583529 1083,102.905034 Z" id="bg-shelf" stroke="#D3242C" stroke-linecap="round" stroke-linejoin="round" fill="#D3242C"></path>
            <path d="M1041,115.000927 L1041,142.006755 C1041,146.412441 1044.20616,148.396922 1048.16115,146.419425 L1051,145 L1053.83885,146.419425 C1057.79467,148.397337 1061,146.421302 1061,142.006755 L1061,115.000927 C1061,110.524266 1058.05711,106.732755 1054,105.457995 L1054,100 L1048,100 L1048,105.457702 C1043.94231,106.731944 1041,110.522703 1041,115.000927 Z" id="bg-shelf" stroke="#FFFFFF" stroke-linecap="round" stroke-linejoin="round"></path>
            <path d="M1041,115.000927 L1041,136.006755 C1041,140.412441 1061,140.421302 1061,136.006755 L1061,115.000927 C1061,118.524266 1041,118.522703 1041,115.000927 Z" id="bg-shelf" stroke="#D3242C" stroke-linecap="round" stroke-linejoin="round" fill="#D3242C"></path>
            <path d="M1054,102.905034 L1054,100 L1048,100 L1048,102.904879 C1043.94231,103.583098 1058.05711,103.583529 1054,102.905034 Z" id="bg-shelf" stroke="#D3242C" stroke-linecap="round" stroke-linejoin="round" fill="#D3242C"></path>
            <path d="M1012,115.000927 L1012,142.006755 C1012,146.412441 1015.20616,148.396922 1019.16115,146.419425 L1022,145 L1024.83885,146.419425 C1028.79467,148.397337 1032,146.421302 1032,142.006755 L1032,115.000927 C1032,110.524266 1029.05711,106.732755 1025,105.457995 L1025,100 L1019,100 L1019,105.457702 C1014.94231,106.731944 1012,110.522703 1012,115.000927 Z" id="bg-shelf" stroke="#FFFFFF" stroke-linecap="round" stroke-linejoin="round"></path>
            <path d="M1012,115.000927 L1012,136.006755 C1012,140.412441 1032,140.421302 1032,136.006755 L1032,115.000927 C1032,118.524266 1012,118.522703 1012,115.000927 Z" id="bg-shelf" stroke="#D3242C" stroke-linecap="round" stroke-linejoin="round" fill="#D3242C"></path>
            <path d="M1025,102.905034 L1025,100 L1019,100 L1019,102.904879 C1014.94231,103.583098 1029.05711,103.583529 1025,102.905034 Z" id="bg-shelf" stroke="#D3242C" stroke-linecap="round" stroke-linejoin="round" fill="#D3242C"></path>
            <path d="M983,115.000927 L983,142.006755 C983,146.412441 986.206156,148.396922 990.16115,146.419425 L993,145 L995.83885,146.419425 C999.794675,148.397337 1003,146.421302 1003,142.006755 L1003,115.000927 C1003,110.524266 1000.05711,106.732755 996,105.457995 L996,100 L990,100 L990,105.457702 C985.942314,106.731944 983,110.522703 983,115.000927 Z" id="bg-shelf" stroke="#FFFFFF" stroke-linecap="round" stroke-linejoin="round"></path>
            <path d="M983,115.000927 L983,136.006755 C983,140.412441 1003,140.421302 1003,136.006755 L1003,115.000927 C1003,118.524266 983,118.522703 983,115.000927 Z" id="bg-shelf" stroke="#D3242C" stroke-linecap="round" stroke-linejoin="round" fill="#D3242C"></path>
            <path d="M996,102.905034 L996,100 L990,100 L990,102.904879 C985.942314,103.583098 1000.05711,103.583529 996,102.905034 Z" id="bg-shelf" stroke="#D3242C" stroke-linecap="round" stroke-linejoin="round" fill="#D3242C"></path>
            <path d="M954,115.000927 L954,142.006755 C954,146.412441 957.206156,148.396922 961.16115,146.419425 L964,145 L966.83885,146.419425 C970.794675,148.397337 974,146.421302 974,142.006755 L974,115.000927 C974,110.524266 971.057107,106.732755 967,105.457995 L967,100 L961,100 L961,105.457702 C956.942314,106.731944 954,110.522703 954,115.000927 Z" id="bg-shelf" stroke="#FFFFFF" stroke-linecap="round" stroke-linejoin="round"></path>
            <path d="M954,115.000927 L954,136.006755 C954,140.412441 974,140.421302 974,136.006755 L974,115.000927 C974,118.524266 954,118.522703 954,115.000927 Z" id="bg-shelf" stroke="#D3242C" stroke-linecap="round" stroke-linejoin="round" fill="#D3242C"></path>
            <path d="M967,102.905034 L967,100 L961,100 L961,102.904879 C956.942314,103.583098 971.057107,103.583529 967,102.905034 Z" id="bg-shelf" stroke="#D3242C" stroke-linecap="round" stroke-linejoin="round" fill="#D3242C"></path>
            <path d="M925,115.000927 L925,142.006755 C925,146.412441 928.206156,148.396922 932.16115,146.419425 L935,145 L937.83885,146.419425 C941.794675,148.397337 945,146.421302 945,142.006755 L945,115.000927 C945,110.524266 942.057107,106.732755 938,105.457995 L938,100 L932,100 L932,105.457702 C927.942314,106.731944 925,110.522703 925,115.000927 Z" id="bg-shelf" stroke="#FFFFFF" stroke-linecap="round" stroke-linejoin="round"></path>
            <path d="M925,115.000927 L925,136.006755 C925,140.412441 945,140.421302 945,136.006755 L945,115.000927 C945,118.524266 925,118.522703 925,115.000927 Z" id="bg-shelf" stroke="#D3242C" stroke-linecap="round" stroke-linejoin="round" fill="#D3242C"></path>
            <path d="M938,102.905034 L938,100 L932,100 L932,102.904879 C927.942314,103.583098 942.057107,103.583529 938,102.905034 Z" id="bg-shelf" stroke="#D3242C" stroke-linecap="round" stroke-linejoin="round" fill="#D3242C"></path>
            <rect id="bg-shelf" stroke="#7C151A" stroke-linecap="round" stroke-linejoin="round" fill="#BDA8A9" x="1159" y="47" width="17" height="23"></rect>
            <rect id="bg-shelf" stroke="#7C161B" stroke-linecap="round" stroke-linejoin="round" fill="#5A1417" x="1159" y="47" width="17" height="11.5"></rect>
            <circle id="bg-shelf" stroke="#F3D790" stroke-linecap="round" stroke-linejoin="round" fill="#966D05" cx="1167.5" cy="58.5" r="3.5"></circle>
            <path d="M1157.5,47 L1177.5,47" id="bg-shelf" stroke="#D5CBD5" stroke-width="2" stroke-linecap="round" stroke-linejoin="round"></path>
            <path d="M1157.5,70 L1177.5,70" id="bg-shelf" stroke="#D5CBD5" stroke-width="2" stroke-linecap="round" stroke-linejoin="round"></path>
            <rect id="bg-shelf" stroke="#7C151A" stroke-linecap="round" stroke-linejoin="round" fill="#BDA8A9" x="1130" y="47" width="17" height="23"></rect>
            <rect id="bg-shelf" stroke="#7C161B" stroke-linecap="round" stroke-linejoin="round" fill="#5A1417" x="1130" y="47" width="17" height="11.5"></rect>
            <circle id="bg-shelf" stroke="#F3D790" stroke-linecap="round" stroke-linejoin="round" fill="#966D05" cx="1138.5" cy="58.5" r="3.5"></circle>
            <path d="M1128.5,47 L1148.5,47" id="bg-shelf" stroke="#D5CBD5" stroke-width="2" stroke-linecap="round" stroke-linejoin="round"></path>
            <path d="M1128.5,70 L1148.5,70" id="bg-shelf" stroke="#D5CBD5" stroke-width="2" stroke-linecap="round" stroke-linejoin="round"></path>
            <rect id="bg-shelf" stroke="#7C151A" stroke-linecap="round" stroke-linejoin="round" fill="#BDA8A9" x="1101" y="47" width="17" height="23"></rect>
            <rect id="bg-shelf" stroke="#7C161B" stroke-linecap="round" stroke-linejoin="round" fill="#5A1417" x="1101" y="47" width="17" height="11.5"></rect>
            <circle id="bg-shelf" stroke="#F3D790" stroke-linecap="round" stroke-linejoin="round" fill="#966D05" cx="1109.5" cy="58.5" r="3.5"></circle>
            <path d="M1099.5,47 L1119.5,47" id="bg-shelf" stroke="#D5CBD5" stroke-width="2" stroke-linecap="round" stroke-linejoin="round"></path>
            <path d="M1099.5,70 L1119.5,70" id="bg-shelf" stroke="#D5CBD5" stroke-width="2" stroke-linecap="round" stroke-linejoin="round"></path>
            <rect id="bg-shelf" stroke="#7C151A" stroke-linecap="round" stroke-linejoin="round" fill="#BDA8A9" x="1072" y="47" width="17" height="23"></rect>
            <rect id="bg-shelf" stroke="#7C161B" stroke-linecap="round" stroke-linejoin="round" fill="#5A1417" x="1072" y="47" width="17" height="11.5"></rect>
            <circle id="bg-shelf" stroke="#F3D790" stroke-linecap="round" stroke-linejoin="round" fill="#966D05" cx="1080.5" cy="58.5" r="3.5"></circle>
            <path d="M1070.5,47 L1090.5,47" id="bg-shelf" stroke="#D5CBD5" stroke-width="2" stroke-linecap="round" stroke-linejoin="round"></path>
            <path d="M1070.5,70 L1090.5,70" id="bg-shelf" stroke="#D5CBD5" stroke-width="2" stroke-linecap="round" stroke-linejoin="round"></path>
            <rect id="bg-shelf" stroke="#7C151A" stroke-linecap="round" stroke-linejoin="round" fill="#BDA8A9" x="1043" y="47" width="17" height="23"></rect>
            <rect id="bg-shelf" stroke="#7C161B" stroke-linecap="round" stroke-linejoin="round" fill="#5A1417" x="1043" y="47" width="17" height="11.5"></rect>
            <circle id="bg-shelf" stroke="#F3D790" stroke-linecap="round" stroke-linejoin="round" fill="#966D05" cx="1051.5" cy="58.5" r="3.5"></circle>
            <path d="M1041.5,47 L1061.5,47" id="bg-shelf" stroke="#D5CBD5" stroke-width="2" stroke-linecap="round" stroke-linejoin="round"></path>
            <path d="M1041.5,70 L1061.5,70" id="bg-shelf" stroke="#D5CBD5" stroke-width="2" stroke-linecap="round" stroke-linejoin="round"></path>
            <rect id="bg-shelf" stroke="#7C151A" stroke-linecap="round" stroke-linejoin="round" fill="#BDA8A9" x="1014" y="47" width="17" height="23"></rect>
            <rect id="bg-shelf" stroke="#7C161B" stroke-linecap="round" stroke-linejoin="round" fill="#5A1417" x="1014" y="47" width="17" height="11.5"></rect>
            <circle id="bg-shelf" stroke="#F3D790" stroke-linecap="round" stroke-linejoin="round" fill="#966D05" cx="1022.5" cy="58.5" r="3.5"></circle>
            <path d="M1012.5,47 L1032.5,47" id="bg-shelf" stroke="#D5CBD5" stroke-width="2" stroke-linecap="round" stroke-linejoin="round"></path>
            <path d="M1012.5,70 L1032.5,70" id="bg-shelf" stroke="#D5CBD5" stroke-width="2" stroke-linecap="round" stroke-linejoin="round"></path>
            <rect id="bg-shelf" stroke="#7C151A" stroke-linecap="round" stroke-linejoin="round" fill="#BDA8A9" x="985" y="47" width="17" height="23"></rect>
            <rect id="bg-shelf" stroke="#7C161B" stroke-linecap="round" stroke-linejoin="round" fill="#5A1417" x="985" y="47" width="17" height="11.5"></rect>
            <circle id="bg-shelf" stroke="#F3D790" stroke-linecap="round" stroke-linejoin="round" fill="#966D05" cx="993.5" cy="58.5" r="3.5"></circle>
            <path d="M983.5,47 L1003.5,47" id="bg-shelf" stroke="#D5CBD5" stroke-width="2" stroke-linecap="round" stroke-linejoin="round"></path>
            <path d="M983.5,70 L1003.5,70" id="bg-shelf" stroke="#D5CBD5" stroke-width="2" stroke-linecap="round" stroke-linejoin="round"></path>
            <rect id="bg-shelf" stroke="#7C151A" stroke-linecap="round" stroke-linejoin="round" fill="#BDA8A9" x="956" y="47" width="17" height="23"></rect>
            <rect id="bg-shelf" stroke="#7C161B" stroke-linecap="round" stroke-linejoin="round" fill="#5A1417" x="956" y="47" width="17" height="11.5"></rect>
            <circle id="bg-shelf" stroke="#F3D790" stroke-linecap="round" stroke-linejoin="round" fill="#966D05" cx="964.5" cy="58.5" r="3.5"></circle>
            <path d="M954.5,47 L974.5,47" id="bg-shelf" stroke="#D5CBD5" stroke-width="2" stroke-linecap="round" stroke-linejoin="round"></path>
            <path d="M954.5,70 L974.5,70" id="bg-shelf" stroke="#D5CBD5" stroke-width="2" stroke-linecap="round" stroke-linejoin="round"></path>
            <rect id="bg-shelf" stroke="#7C151A" stroke-linecap="round" stroke-linejoin="round" fill="#BDA8A9" x="927" y="47" width="17" height="23"></rect>
            <rect id="bg-shelf" stroke="#7C161B" stroke-linecap="round" stroke-linejoin="round" fill="#5A1417" x="927" y="47" width="17" height="11.5"></rect>
            <circle id="bg-shelf" stroke="#F3D790" stroke-linecap="round" stroke-linejoin="round" fill="#966D05" cx="935.5" cy="58.5" r="3.5"></circle>
            <path d="M925.5,47 L945.5,47" id="bg-shelf" stroke="#D5CBD5" stroke-width="2" stroke-linecap="round" stroke-linejoin="round"></path>
            <path d="M925.5,70 L945.5,70" id="bg-shelf" stroke="#D5CBD5" stroke-width="2" stroke-linecap="round" stroke-linejoin="round"></path>
            <path d="M927.5,73.5 L927.5,241.5" id="bg-shelf" stroke="#979797" stroke-width="5" stroke-linecap="round" stroke-linejoin="round"></path>
            <path d="M1174.5,73.5 L1174.5,241.5" id="bg-shelf" stroke="#979797" stroke-width="5" stroke-linecap="round" stroke-linejoin="round"></path>
            <path d="M915.5,73.5 L1186.50738,73.5" id="bg-shelf" stroke="#979797" stroke-width="5" stroke-linecap="round" stroke-linejoin="round"></path>
            <path d="M915.5,148.5 L1186.50738,148.5" id="bg-shelf" stroke="#868686" stroke-width="5" stroke-linecap="round" stroke-linejoin="round"></path>
            <path d="M915.5,225.5 L1186.50738,225.5" id="bg-shelf" stroke="#787878" stroke-width="5" stroke-linecap="round" stroke-linejoin="round"></path>
            <rect id="register-stand" fill="#4F5A5D" x="50.7739726" y="94.9657534" width="11.9863014" height="15.5821918"></rect>
            <path d="M74.7465753,110.547945 L39.9863014,110.547945 L39.9863014,202.563878 L192.212329,202.563878 L192.212329,196.867191 C192.212329,193.560529 189.733854,189.853349 186.667814,188.583373 L74.7465753,142.224823 L74.7465753,110.547945 Z" id="register-cpu" stroke="#637074" stroke-width="3" stroke-linecap="round" stroke-linejoin="round" fill="#323A3C"></path>
            <rect id="register-red-screen" fill="#F25A5B" x="31" y="69" width="54" height="23"></rect>
            <path d="M28,65 L88,65 L88,95 L28,95 L28,65 Z M34,71 L82,71 L82,89 L34,89 L34,71 Z" id="register-screen" fill="#637074"></path>
            <path d="M60.3630137,78.681727 C60.3630137,76.8837818 58.5535582,76.586758 57.9657534,76.586758 C57.3779486,76.586758 55.5684932,76.8837818 55.5684932,78.681727 C55.5684932,79.7664874 56.5024843,80.3071681 57.9657534,80.5276174 C59.4290225,80.7480667 60.3630137,81.2408026 60.3630137,82.3255626 C60.3630137,84.1235078 58.5535582,84.4205316 57.9657534,84.4205316 C57.3779486,84.4205316 55.5684932,84.1235078 55.5684932,82.3255626 M58.0656393,74.5890411 L58.0656393,86.5753425" id="register-dollar" stroke="#FFFFFF" stroke-linecap="round" stroke-linejoin="round"></path>
            <path d="M49.5753425,78.681727 C49.5753425,76.8837818 47.765887,76.586758 47.1780822,76.586758 C46.5902774,76.586758 44.7808219,76.8837818 44.7808219,78.681727 C44.7808219,79.7664874 45.7148131,80.3071681 47.1780822,80.5276174 C48.6413513,80.7480667 49.5753425,81.2408026 49.5753425,82.3255626 C49.5753425,84.1235078 47.765887,84.4205316 47.1780822,84.4205316 C46.5902774,84.4205316 44.7808219,84.1235078 44.7808219,82.3255626 M47.277968,74.5890411 L47.277968,86.5753425" id="register-dollar" stroke="#FFFFFF" stroke-linecap="round" stroke-linejoin="round"></path>
            <path d="M71.1506849,78.681727 C71.1506849,76.8837818 69.3412294,76.586758 68.7534247,76.586758 C68.1656199,76.586758 66.3561644,76.8837818 66.3561644,78.681727 C66.3561644,79.7664874 67.2901556,80.3071681 68.7534247,80.5276174 C70.2166938,80.7480667 71.1506849,81.2408026 71.1506849,82.3255626 C71.1506849,84.1235078 69.3412294,84.4205316 68.7534247,84.4205316 C68.1656199,84.4205316 66.3561644,84.1235078 66.3561644,82.3255626 M68.8533105,74.5890411 L68.8533105,86.5753425" id="register-dollar" stroke="#FFFFFF" stroke-linecap="round" stroke-linejoin="round"></path>
            <polygon id="register-cover" stroke="#637074" stroke-width="2" stroke-linecap="round" stroke-linejoin="round" fill="#637074" points="205 194.452055 205 230.410959 199.006849 230.410959 199.006849 194.452055"></polygon>
            <rect id="register-drawer" stroke="#637074" stroke-width="3" stroke-linecap="round" stroke-linejoin="round" fill="#333A3C" x="39.9863014" y="201.643836" width="157.020548" height="28.7671233"></rect>
            <path d="M95.303692,146.391654 C95.9370189,144.862668 97.6885146,144.13601 99.2162782,144.76883 L104.758484,147.064487 C106.286019,147.697213 107.009629,149.452738 106.377591,150.978613 L105.230851,153.747087 L94.1569523,149.160129 L95.303692,146.391654 L95.303692,146.391654 Z M108.59237,151.896005 C109.225697,150.367018 110.977193,149.640361 112.504956,150.273181 L118.047162,152.568838 C119.574697,153.201563 120.298307,154.957088 119.666269,156.482964 L118.519529,159.251438 L107.445631,154.664479 L108.59237,151.896005 L108.59237,151.896005 Z M121.881048,157.400355 C122.514375,155.871369 124.265871,155.144711 125.793635,155.777532 L131.33584,158.073189 C132.863375,158.705914 133.586985,160.461439 132.954947,161.987314 L131.808207,164.755789 L120.734309,160.16883 L121.881048,157.400355 L121.881048,157.400355 Z M135.169727,162.904706 C135.803054,161.37572 137.554549,160.649062 139.082313,161.281883 L144.624518,163.577539 C146.152053,164.210265 146.875663,165.96579 146.243625,167.491665 L145.096885,170.26014 L134.022987,165.673181 L135.169727,162.904706 L135.169727,162.904706 Z M148.458405,168.409057 C149.091732,166.880071 150.843227,166.153413 152.370991,166.786233 L157.913197,169.08189 C159.440731,169.714616 160.164342,171.470141 159.532303,172.996016 L158.385564,175.76449 L147.311665,171.177531 L148.458405,168.409057 L148.458405,168.409057 Z M161.747083,173.913408 C162.38041,172.384421 164.131906,171.657764 165.659669,172.290584 L171.201875,174.586241 C172.72941,175.218966 173.45302,176.974491 172.820982,178.500367 L171.674242,181.268841 L160.600343,176.681882 L161.747083,173.913408 L161.747083,173.913408 Z" id="register-buttons" stroke="#F1F1F1" stroke-linecap="round" stroke-linejoin="round" fill="#FFFFFF"></path>
            <path d="M1215.01272,187.142492 C1219.22585,187.180003 1223.13721,189.733291 1224.63419,193.846225 C1226.57314,199.173421 1223.72744,205.099812 1218.27816,207.083189 C1212.82887,209.066566 1206.83953,206.355865 1204.90059,201.028668 C1203.81304,198.040638 1204.23078,194.864095 1205.76894,192.300581 L1197.51492,190.633356 L1201.74467,184.462486 L1215.01272,187.142492 L1215.01272,187.142492 L1215.01272,187.142492 L1215.01272,187.142492 L1215.01272,187.142492 L1215.01272,187.142492 Z M1210.40345,199.092077 C1211.2652,201.459719 1213.92713,202.664476 1216.34904,201.782975 C1218.77094,200.901474 1220.03569,198.267522 1219.17394,195.89988 C1218.31219,193.532237 1215.65026,192.327481 1213.22836,193.208981 C1210.80645,194.090482 1209.5417,196.724434 1210.40345,199.092077 L1210.40345,199.092077 L1210.40345,199.092077 L1210.40345,199.092077 L1210.40345,199.092077 Z" id="scissors-right-grip" stroke="#DEE3E5" stroke-width="2" stroke-linecap="round" stroke-linejoin="round" fill="#515C60"></path>
            <path d="M1172.70524,178.59683 C1175.24198,179.109223 1194.07707,182.913712 1194.07707,182.913712 L1189.31966,188.978001 L1163.95209,183.854022 C1163.95209,183.854022 1166.97728,177.439841 1172.70524,178.59683 L1172.70524,178.59683 L1172.70524,178.59683 L1172.70524,178.59683 L1172.70524,178.59683 Z" id="scissors-right-blade" stroke="#DEE3E5" stroke-width="2" stroke-linecap="round" stroke-linejoin="round" fill="#515C60"></path>
            <path d="M1210.26033,174.085424 C1213.46367,171.348537 1214.81872,166.878434 1213.32174,162.7655 C1211.38279,157.438303 1205.39346,154.727602 1199.94417,156.710979 C1194.49489,158.694356 1191.64919,164.620746 1193.58813,169.947943 C1194.67569,172.935973 1197.03754,175.100828 1199.86363,176.075886 L1173.25941,209.425673 C1173.25941,209.425673 1179.69979,212.394672 1183.34397,207.826501 L1210.26033,174.085424 L1210.26033,174.085424 L1210.26033,174.085424 L1210.26033,174.085424 L1210.26033,174.085424 L1210.26033,174.085424 L1210.26033,174.085424 Z M1199.04839,167.894288 C1198.18664,165.526646 1199.45139,162.892694 1201.87329,162.011193 C1204.2952,161.129692 1206.95712,162.334448 1207.81888,164.702091 C1208.68063,167.069734 1207.41587,169.703686 1204.99397,170.585186 C1202.57207,171.466687 1199.91014,170.261931 1199.04839,167.894288 L1199.04839,167.894288 L1199.04839,167.894288 L1199.04839,167.894288 L1199.04839,167.894288 L1199.04839,167.894288 Z" id="scissors-left" stroke="#DEE3E5" stroke-width="2" stroke-linecap="round" stroke-linejoin="round" fill="#515C60" transform="translate(1193.594994, 183.217721) rotate(24.000000) translate(-1193.594994, -183.217721) "></path>
            <path d="M1025,159.464689 C1019.68457,159.464689 1018.62988,156.870938 1013.1445,156.870938 C999.905125,156.870938 991.172031,161.890897 991.172031,179.68808 C991.172031,197.485263 1001.90512,218.499629 1015.1445,218.499629 C1018.65919,218.499629 1021.99203,217.008845 1025,214.499947 C1028.00725,217.008845 1031.34009,218.499629 1034.85478,218.499629 C1048.09416,218.499629 1058.82797,197.485263 1058.82797,179.68808 C1058.82797,161.890897 1049.59416,156.870938 1036.35478,156.870938 C1031.66699,156.870938 1030.31543,159.464689 1025,159.464689 Z" id="apple-fruit" stroke="#F25A5B" stroke-width="2" stroke-linecap="round" stroke-linejoin="round" fill="#800304"></path>
            <path d="M1021.93113,152.902797 L1022.16184,153.006554 L1022.23516,153.563527 L1021.65441,153.302694 C1018.75856,153.717001 1009.12803,154.360437 1004.68903,145.674403 L1004.5,145.329267 L1004.81841,145.209659 C1014.76519,141.875029 1020.485,150.371562 1021.93113,152.902797 L1021.93113,152.902797 Z" id="apple-leaf" stroke="#69B383" stroke-width="2" stroke-linecap="round" stroke-linejoin="round" fill="#384E4A"></path>
            <path d="M1025.04993,159.503607 C1021.6144,159.324148 1021.68322,151.927492 1024.31515,148.552143 C1025.98565,146.409793 1028.55689,145.387169 1031.0749,145.601037" id="apple-stem" stroke="#69B383" stroke-width="2" stroke-linecap="round" stroke-linejoin="round"></path>
            <ellipse id="apple-hole" stroke="#F25A5B" stroke-width="2" stroke-linecap="round" stroke-linejoin="round" fill="#F4C0C1" cx="1009.24419" cy="175.21175" rx="4.74418605" ry="4.74770286"></ellipse>
            <path d="M1000.5,175.167594 L1000.5,162.512899 C1000.5,160.578919 1002.05859,159.011119 1004.00729,159.011119 L1004.17563,159.011119 C1006.11265,159.011119 1007.68292,160.5704 1007.68292,162.52279 L1007.68292,171.912264 C1007.68292,174.568727 1012.20493,174.985253 1012.20493,174.985253 C1013.28932,175.187652 1013.86329,176.204596 1013.4918,177.243029 L1013.18152,178.110347 C1012.80785,179.154883 1011.60261,180.059614 1010.50909,180.088889 C1010.50909,180.088889 1000.5,181.150073 1000.5,175.167594 Z" id="apple-worm" stroke="#CC619E" stroke-width="2" stroke-linecap="round" stroke-linejoin="round" fill="#E8B8D4"></path>
            <path d="M1004.24878,162.781532 C1003.67146,162.792053 1003.45095,163.09379 1003.47328,163.129787 C1003.61001,163.349118 1003.71165,163.594479 1003.76925,163.860231 C1004.04174,165.11801 1003.22313,166.354456 1001.9408,166.621895 C1000.65835,166.889211 999.397805,166.086298 999.125186,164.828522 C998.951821,164.028254 998.174857,164.019916 998.174857,164.019916 L998.190899,163.543564 C998.190899,163.543564 998.523216,163.481727 998.917305,163.263496 C999.341129,163.028643 999.831924,162.633908 999.921346,162.56012 C1000.2096,162.322555 1000.55969,162.14901 1000.95376,162.066855 C1001.78883,161.892678 1002.61464,162.172457 1003.16444,162.736166 C1003.18836,162.76068 1003.40821,162.42213 1004.24214,162.40784 C1005.01192,162.394649 1005.24367,162.725461 1005.26671,162.700142 C1005.79614,162.117939 1006.6115,161.810038 1007.45224,161.955499 C1007.84899,162.024102 1008.20504,162.185547 1008.50157,162.413091 C1008.59356,162.48377 1009.09809,162.86145 1009.53,163.081639 C1009.93161,163.286235 1010.26592,163.336649 1010.26592,163.336649 L1010.29889,163.812161 C1010.29889,163.812161 1009.52269,163.847113 1009.37788,164.652834 C1009.15014,165.919185 1007.91891,166.764795 1006.62774,166.541581 C1005.33669,166.318238 1004.47461,165.110592 1004.70222,163.844244 C1004.75034,163.57668 1004.8432,163.327987 1004.97204,163.104104 C1004.99308,163.067365 1004.76198,162.773367 1004.18464,162.782631 M1001.55312,166.356191 C1002.61597,166.337979 1003.46255,165.478097 1003.44401,164.435593 C1003.42548,163.393088 1002.54884,162.562735 1001.486,162.580948 C1000.42316,162.599161 999.576577,163.459042 999.595113,164.501547 C999.613649,165.544051 1000.49028,166.374404 1001.55312,166.356191 L1001.55312,166.356191 Z M1007.00573,166.262757 C1005.94289,166.280969 1005.06626,165.450617 1005.04772,164.408112 C1005.02918,163.365607 1005.87576,162.505726 1006.93861,162.487513 C1008.00145,162.469301 1008.87808,163.299653 1008.89662,164.342158 C1008.91515,165.384663 1008.06858,166.244544 1007.00573,166.262757 L1007.00573,166.262757 L1007.00573,166.262757 Z M1007.25178,164.58837 C1007.40001,164.58583 1007.51809,164.465799 1007.5155,164.320273 C1007.51291,164.174747 1007.39064,164.058834 1007.24241,164.061374 C1007.09417,164.063914 1006.9761,164.183946 1006.97868,164.329472 C1006.98127,164.474998 1007.10354,164.59091 1007.25178,164.58837 L1007.25178,164.58837 Z M1001.8828,164.58837 C1002.03104,164.58583 1002.14911,164.465799 1002.14653,164.320273 C1002.14394,164.174747 1002.02167,164.058834 1001.87343,164.061374 C1001.7252,164.063914 1001.60712,164.183946 1001.60971,164.329472 C1001.6123,164.474998 1001.73457,164.59091 1001.8828,164.58837 L1001.8828,164.58837 Z" id="apple-glasses" stroke="#40484B" stroke-linecap="round" stroke-linejoin="round" fill="#40484B"></path>
            <path d="M1002.79868,168.91285 C1002.79868,168.91285 1003.18296,169.441019 1004.11651,169.441019 C1005.05006,169.441019 1005.43434,168.91285 1005.43434,168.91285" id="apple-smile" stroke="#33534D" stroke-linecap="round" stroke-linejoin="round"></path>
            <path d="M835.713087,207.18381 C834.611574,205.718137 834.934836,203.67604 836.435551,202.62235 L846.297332,195.698143 C847.79785,194.644591 850.42721,194.014308 852.171898,194.290639 L877.432791,198.291572 C879.176706,198.567781 880.347427,200.325941 880.04822,202.215058 L877.06534,221.048224 C876.765887,222.938896 875.110183,224.2478 873.365495,223.971469 L848.104602,219.970536 C846.360687,219.694327 844.054157,218.282445 842.9525,216.81658 L835.713087,207.18381 L835.713087,207.18381 L835.713087,207.18381 L835.713087,207.18381 L835.713087,207.18381 Z M842.530697,208.963065 C844.167152,209.222254 845.703876,208.105759 845.963065,206.469303 C846.222254,204.832848 845.105759,203.296124 843.469303,203.036935 C841.832848,202.777746 840.296124,203.894241 840.036935,205.530697 C839.777746,207.167152 840.894241,208.703876 842.530697,208.963065 L842.530697,208.963065 L842.530697,208.963065 L842.530697,208.963065 L842.530697,208.963065 Z" id="pen-tag" stroke="#7872E3" stroke-width="2" stroke-linecap="round" stroke-linejoin="round" fill="#CCC9FC"></path>
            <path d="M859.775362,204.4946 C857.141527,204.077441 856.286583,206.659223 856.150201,207.520307 C856.013819,208.38139 856.029104,211.101003 858.66294,211.518161 C860.25202,211.769847 861.260776,210.527079 861.923222,208.434663 C862.585668,206.342248 863.524189,205.088356 865.113269,205.340041 C867.747105,205.7572 867.76239,208.476812 867.626008,209.337896 C867.489625,210.198979 866.634682,212.780761 864.000846,212.363603 M854.090103,207.194019 L869.61587,209.653059" id="pen-tag" stroke="#56547D" stroke-width="1.5" stroke-linecap="round" stroke-linejoin="round"></path>
            <path d="M785.385192,209.747664 L778.747664,209.747664 L778.747664,205.037383 L785.386598,205.037383 C786.232388,203.438223 787.911897,202.345794 789.845676,202.345794 L804.990654,202.345794 L804.990654,212.439252 L789.845676,212.439252 C787.910597,212.439252 786.230457,211.34842 785.385192,209.747664 L785.385192,209.747664 Z M809.700935,201 L835.599445,201 C839.134374,201 842,203.869214 842,207.392523 L842,207.392523 C842,210.923017 839.133673,213.785047 835.599445,213.785047 L809.700935,213.785047 L809.700935,201 L809.700935,201 Z M804.317757,202.997664 C804.317757,201.894384 805.211352,201 806.317526,201 L810.373832,201 L810.373832,213.785047 L806.317526,213.785047 C805.213084,213.785047 804.317757,212.886027 804.317757,211.787383 L804.317757,202.997664 L804.317757,202.997664 Z M773.364486,205.71028 L775.046729,205.71028 L778.074766,205.037383 L778.074766,209.747664 L775.046729,209.074766 L773.364486,209.074766 L773.364486,205.71028 L773.364486,205.71028 Z M773.364486,205.71028 L773.364486,209.074766 L770,205.71028 L773.364486,205.71028 L773.364486,205.71028 Z" id="pen-fount" stroke="#7872E3" stroke-linecap="round" stroke-linejoin="round" fill="#2B3234"></path>
            <path d="M836.280306,205.71028 C837.20942,205.71028 837.962617,206.456969 837.962617,207.392523 L837.962617,207.392523 C837.962617,208.321601 837.201408,209.074766 836.280306,209.074766 L816.766423,209.074766 C815.837308,209.074766 815.084112,208.328078 815.084112,207.392523 L815.084112,207.392523 C815.084112,206.463446 815.845321,205.71028 816.766423,205.71028 L836.280306,205.71028 L836.280306,205.71028 Z" id="pen-clip" stroke="#7872E3" stroke-linecap="round" stroke-linejoin="round" fill="#AFCFD7"></path>
            <path d="M622.572198,199.57776 C622.523884,199.409516 622.34844,199.312147 622.180125,199.36034 L621.110679,199.666548 C620.351818,199.883829 619.912842,200.673555 620.130411,201.431195 L622.319753,209.055126 C622.537226,209.812432 623.328535,210.250258 624.087562,210.03293 L625.157009,209.726722 C625.325231,209.678556 625.422324,209.502734 625.374121,209.334877 L622.572198,199.57776 L622.572198,199.57776 Z M609.602514,199.57776 C609.650828,199.409516 609.826272,199.312147 609.994586,199.36034 L611.064033,199.666548 C611.822894,199.883829 612.26187,200.673555 612.044301,201.431195 L609.854959,209.055126 C609.637485,209.812432 608.846177,210.250258 608.08715,210.03293 L607.017703,209.726722 C606.849481,209.678556 606.752388,209.502734 606.800591,209.334877 L609.602514,199.57776 Z M562,199.590445 C562,199.415196 562.142759,199.273128 562.318429,199.273128 L568.669806,199.273128 C568.84567,199.273128 568.988235,199.416117 568.988235,199.590445 L568.988235,202.603387 C568.988235,202.778637 568.845476,202.920705 568.669806,202.920705 L562.318429,202.920705 C562.142566,202.920705 562,202.777716 562,202.603387 L562,199.590445 Z M663.011765,199.590445 C663.011765,199.415196 663.154524,199.273128 663.330194,199.273128 L669.681571,199.273128 C669.857434,199.273128 670,199.416117 670,199.590445 L670,202.603387 C670,202.778637 669.857241,202.920705 669.681571,202.920705 L663.330194,202.920705 C663.15433,202.920705 663.011765,202.777716 663.011765,202.603387 L663.011765,199.590445 Z" id="glass-nose" stroke="#8A9EA3" stroke-width="1.5" stroke-linecap="round" stroke-linejoin="round" fill="#FFFFFF"></path>
            <path d="M588.761765,220.682819 C599.506952,220.682819 608.217647,212.694948 608.217647,202.84141 C608.217647,192.987871 599.506952,185 588.761765,185 C578.016578,185 569.305882,192.987871 569.305882,202.84141 C569.305882,212.694948 578.016578,220.682819 588.761765,220.682819 L588.761765,220.682819 Z M643.397059,221 C654.142246,221 662.852941,213.012129 662.852941,203.15859 C662.852941,193.305052 654.142246,185.317181 643.397059,185.317181 C632.651872,185.317181 623.941176,193.305052 623.941176,203.15859 C623.941176,213.012129 632.651872,221 643.397059,221 L643.397059,221 Z M607.582353,197.528634 L611.201075,196.324339 C611.57118,196.20117 612.186253,196.101322 612.587575,196.101322 L618.486781,196.101322 C618.88242,196.101322 619.513723,196.186332 619.884853,196.287918 L624.417647,197.528634" id="glass-frame" stroke="#55A4B7" stroke-width="2.25" stroke-linecap="round" stroke-linejoin="round"></path>
            <path d="M442.981267,163.417317 L444.455548,205.63519 C444.55754,208.555882 442.268707,211.006386 439.356557,211.108081 L433.072893,211.29259 L431.413938,163.786336 L442.981267,163.417317 L442.981267,163.417317 Z M314.05985,167.919352 L325.627179,167.550333 L327.286134,215.056587 L321.00247,215.241096 C318.084382,215.342998 315.636537,213.069763 315.534131,210.137225 L314.05985,167.919352 L314.05985,167.919352 L314.05985,167.919352 L314.05985,167.919352 L314.05985,167.919352 Z" id="bp-bag" stroke="#B34445" stroke-width="2" stroke-linecap="round" stroke-linejoin="round" fill="#122A4B"></path>
            <path d="M430.62324,142.805226 L432.794934,204.994412 C433.202158,216.655796 424.061481,226.439943 412.401689,226.847112 L348.989577,229.061512 C337.319474,229.469041 327.529189,220.355236 327.121641,208.684604 L324.949947,146.495419 L430.62324,142.805226 Z M319.429403,109.598817 C319.225781,103.767837 323.783296,98.8759773 329.618436,98.6722097 L422.630144,95.4241693 C428.461014,95.2205508 433.353,99.7842465 433.556559,105.613409 L434.773399,140.459158 C434.81395,141.620382 433.894467,142.594997 432.74381,142.635179 L322.822681,146.473709 C321.661219,146.514268 320.686529,145.598192 320.646244,144.444566 L319.429403,109.598817 Z" id="bp-bag" stroke="#F25A5B" stroke-width="2" stroke-linecap="round" stroke-linejoin="round" fill="#122A4B"></path>
            <path d="M375.482738,111.275152 C376.080166,110.63512 377.085412,110.601572 377.724421,111.196871 L387.003898,119.841599 C387.644517,120.438397 387.678029,121.442656 387.082102,122.081079 L378.428255,131.352053 C377.830827,131.992085 376.825581,132.025633 376.186572,131.430334 L366.907095,122.785606 C366.266476,122.188807 366.232964,121.184549 366.828891,120.546126 L375.482738,111.275152 L375.482738,111.275152 L375.482738,111.275152 L375.482738,111.275152 Z" id="bp-bag" stroke="#F25A5B" stroke-width="2" stroke-linecap="round" stroke-linejoin="round" fill="#BF8B74"></path>
            <path d="M372.643774,118.57033 C372.618386,117.843337 373.184114,117.233519 373.918723,117.207866 C374.648244,117.182391 375.260421,117.756854 375.285606,118.478075 L375.470164,123.763111 C375.495551,124.490104 374.929823,125.099922 374.195215,125.125575 C373.465693,125.151051 372.853517,124.576588 372.828331,123.855366 L372.643774,118.57033 L372.643774,118.57033 L372.643774,118.57033 L372.643774,118.57033 L372.643774,118.57033 L372.643774,118.57033 L372.643774,118.57033 Z M378.984171,118.348919 C378.958784,117.621926 379.524512,117.012108 380.25912,116.986454 C380.988642,116.960979 381.600818,117.535442 381.626004,118.256664 L381.810561,123.541699 C381.835948,124.268692 381.27022,124.878511 380.535612,124.904164 C379.806091,124.929639 379.193914,124.355176 379.168729,123.633954 L378.984171,118.348919 L378.984171,118.348919 L378.984171,118.348919 L378.984171,118.348919 L378.984171,118.348919 L378.984171,118.348919 L378.984171,118.348919 Z" id="bp-bag" fill="#122A4B"></path>
            <path d="M326.923919,204.868661 L326.923919,215.432041 L321.137034,215.432041 C317.941025,215.432041 315.350149,213.061412 315.350149,210.150351 L315.350149,204.868661 L326.923919,204.868661 Z M444.278006,200.735645 L444.278006,206.017335 C444.278006,208.934332 441.905046,211.299025 438.991121,211.299025 L432.704236,211.299025 L432.704236,200.735645 L444.278006,200.735645 Z" id="bp-bag" stroke="#7C5B4D" stroke-width="2" stroke-linecap="round" stroke-linejoin="round" fill="#122A4B"></path>
            <path d="M432.429657,194.534258 L432.794934,204.994412 C433.202158,216.655796 424.061481,226.439943 412.401689,226.847112 L348.989577,229.061512 C337.319474,229.469041 327.529189,220.355236 327.121641,208.684604 L326.600006,198.224451 L342.596627,197.671297 L417.635396,195.050885 L432.429657,194.534258 L432.429657,194.534258 Z" id="bp-bag" stroke="#BF8B74" stroke-width="2" stroke-linecap="round" stroke-linejoin="round" fill="#122A4B"></path>
            <path d="M342.198552,185.964244 C342.157796,184.797139 343.073389,183.817887 344.2295,183.777515 L415.048051,181.304477 C416.210469,181.263884 417.185578,182.169766 417.22659,183.344207 L418.2587,212.899973 C418.299456,214.067078 417.383864,215.04633 416.227753,215.086702 L345.409201,217.559741 C344.246784,217.600333 343.271675,216.694451 343.230662,215.52001 L342.198552,185.964244 L342.198552,185.964244 L342.198552,185.964244 L342.198552,185.964244 Z" id="bp-bag" stroke="#F25A5B" stroke-width="2" stroke-linecap="round" stroke-linejoin="round" fill="#122A4B"></path>
            <path d="M342.848911,189.292177 L416.820216,186.709042" id="bp-bag" stroke="#F25A5B" stroke-width="2" stroke-linecap="round" stroke-linejoin="round" fill="#122A4B"></path>
            <path d="M357.813111,92.0172398 C359.641925,92.147486 360.971037,93.7311906 360.781709,95.5550776 L359.537564,107.540547 C359.348261,109.364195 358.098927,111.7621 356.745759,112.897543 L337.153579,129.337334 C335.801011,130.472274 333.706048,130.202371 332.476611,128.737185 L320.219986,114.130308 C318.989536,112.663915 319.087933,110.555621 320.441101,109.420178 L340.033281,92.9803878 C341.385849,91.845448 343.96463,91.0309658 345.793684,91.1612291 L357.813111,92.0172398 L357.813111,92.0172398 L357.813111,92.0172398 L357.813111,92.0172398 L357.813111,92.0172398 Z M351.997535,95.9952591 C350.728311,97.0602644 350.562759,98.9525312 351.627765,100.221755 C352.69277,101.490979 354.585037,101.656531 355.854261,100.591526 C357.123485,99.5265203 357.289037,97.6342535 356.224031,96.3650296 C355.159026,95.0958056 353.266759,94.9302537 351.997535,95.9952591 L351.997535,95.9952591 L351.997535,95.9952591 L351.997535,95.9952591 L351.997535,95.9952591 Z" id="bp-tag" stroke="#696269" stroke-width="2" stroke-linecap="round" stroke-linejoin="round" fill="#FFFFFF"></path>
            <path d="M338.853986,103.667245 L346.016477,112.203168" id="bp-tag" stroke="#696269" stroke-width="2" stroke-linecap="round" stroke-linejoin="round"></path>
            <path d="M332.203804,106.631933 L342.599193,119.020675" id="bp-tag" stroke="#696269" stroke-width="2" stroke-linecap="round" stroke-linejoin="round"></path>
            <path d="M387.415931,96.5312212 L397.256002,96.1501059 C394.887888,85.475686 385.757107,77.6861298 375.143688,78.0567586 C364.476538,78.4292637 355.87843,86.9202341 354.323332,97.8129294 L364.163225,97.4318211 C365.695524,92.2544757 370.134542,88.4338549 375.499522,88.2465057 C380.833529,88.0602381 385.50499,91.5205112 387.415931,96.5312212 L387.415931,96.5312212 L387.415931,96.5312212 L387.415931,96.5312212 Z" id="bp-strap" stroke="#BF8B74" stroke-width="2" stroke-linecap="round" stroke-linejoin="round" fill="#122A4B"></path>
            <path d="M103.703862,196.914315 C103.193512,196.815786 102.674295,196.756318 102.138819,196.784061 C98.4554384,196.974895 95.3164508,200.176356 94.9915204,204.073032 C94.7212134,207.321283 93.7556516,208.595912 91.1650018,209.123376 C90.7921612,209.199146 90.510638,209.496963 90.4644478,209.86365 C90.4187789,210.230791 90.6184854,210.584255 90.9615779,210.744525 C92.4581139,211.439484 94.597154,211.771603 96.8307829,211.65588 C99.0098726,211.542982 101.126484,211.011128 102.790999,210.157221 C105.859162,208.583549 108.154119,205.685406 108.501017,202.944162 C108.561301,202.468181 108.55928,202.007974 108.503066,201.566497 L103.703862,196.914315 L103.703862,196.914315 Z" id="paint" stroke="#F25A5B" stroke-width="2" stroke-linecap="round" stroke-linejoin="round" fill="#2C1F13"></path>
            <path d="M95.2446589,204.573307 C94.8519003,207.618423 93.8951274,208.850472 91.4530146,209.454973 C91.1015572,209.541839 90.8257856,209.832123 90.7668088,210.176555 C90.7082992,210.52139 90.8795288,210.842851 91.1930082,210.9777 C92.5605529,211.562049 94.543787,211.779796 96.6347017,211.575231 C98.6745619,211.375661 100.674175,210.787539 102.265502,209.918194 C105.198747,208.316044 97.9218316,211.099587 96.9880162,207.566687 C96.8722494,207.128707 95.7164413,200.920287 95.2446589,204.573307 L95.2446589,204.573307 Z M101.640311,208.101555 C102.010281,208.471525 102.760082,208.321565 103.315038,207.76661 C103.869993,207.211654 104.019953,206.461853 103.649983,206.091883 C103.280013,205.721913 102.530212,205.871873 101.975256,206.426828 C101.420301,206.981784 101.270341,207.731585 101.640311,208.101555 L101.640311,208.101555 Z M99.2956938,207.096719 C99.480679,207.281704 99.7805992,207.281704 99.9655844,207.096719 C100.15057,206.911734 100.15057,206.611814 99.9655844,206.426828 C99.7805992,206.241843 99.480679,206.241843 99.2956938,206.426828 C99.1107086,206.611814 99.1107086,206.911734 99.2956938,207.096719 L99.2956938,207.096719 Z" id="paint" fill="#F25A5B"></path>
            <path d="M119.727358,179.296258 L124.971314,174.052302 C126.144831,172.878785 128.123517,171.070606 129.407113,170.022125 C129.407113,170.022125 141.590153,159.625833 143.508476,161.544156 C145.426799,163.462479 135.030506,175.645519 135.030506,175.645519 C133.978219,176.921825 132.175304,178.906344 131.00033,180.081318 L125.756374,185.325273 C120.843843,190.237805 109.922595,198.966683 109.922595,198.966683 L106.085949,195.130036 C106.085949,195.130036 114.814827,184.208789 119.727358,179.296258 L119.727358,179.296258 Z" id="paint" stroke="#A17143" stroke-width="2" stroke-linecap="round" stroke-linejoin="round" fill="#2C1F13"></path>
            <path d="M101.640311,192.02418 C102.380252,191.284239 103.576334,191.28064 104.319945,192.024251 L113.028381,200.732687 C113.768361,201.472667 113.773551,202.667221 113.028452,203.412321 L113.028452,203.412321 C112.288511,204.152261 111.092429,204.15586 110.348818,203.412249 L101.640382,194.703813 C100.900402,193.963833 100.895212,192.769279 101.640311,192.02418 L101.640311,192.02418 L101.640311,192.02418 Z" id="paint" stroke="#8A9EA3" stroke-width="2" stroke-linecap="round" stroke-linejoin="round" fill="#2C1F13"></path>
            <path d="M136.553001,177.065536 C135.016628,176.064994 134.621956,174.035488 135.671784,172.532069 L142.570609,162.652515 C143.620299,161.149292 145.875519,159.657726 147.6095,159.320674 L172.715375,154.440586 C174.448588,154.103684 176.150032,155.355403 176.514986,157.232928 L180.153317,175.95052 C180.518571,177.82959 179.41039,179.625841 177.676409,179.962893 L152.570534,184.842981 C150.837321,185.179883 148.187,184.642028 146.650426,183.641354 L136.553001,177.065536 L136.553001,177.065536 L136.553001,177.065536 L136.553001,177.065536 L136.553001,177.065536 Z M143.568,176.405729 C145.194413,176.089587 146.256597,174.514834 145.940454,172.888421 C145.624312,171.262008 144.049559,170.199823 142.423146,170.515966 C140.796733,170.832109 139.734549,172.406862 140.050691,174.033275 C140.366834,175.659688 141.941587,176.721872 143.568,176.405729 L143.568,176.405729 L143.568,176.405729 L143.568,176.405729 L143.568,176.405729 Z" id="paint-tag" stroke="#F6C64E" stroke-width="2" stroke-linecap="round" stroke-linejoin="round" fill="#F6E0A8"></path>
            <path d="M158.24438,166.308722 C155.626707,166.817546 155.706345,169.536036 155.872695,170.391835 C156.039046,171.247634 156.983571,173.798006 159.601244,173.289182 C161.180573,172.982192 161.703441,171.469357 161.610289,169.27656 C161.517137,167.083763 161.970201,165.584496 163.549529,165.277506 C166.167202,164.768682 167.111728,167.319054 167.278078,168.174853 C167.444429,169.030652 167.524066,171.749142 164.906393,172.257966 M153.825239,170.78982 L169.25573,167.790437" id="paint-dollar" stroke="#95772D" stroke-width="1.5" stroke-linecap="round" stroke-linejoin="round"></path>
            <path d="M142.685832,175.454446 C143.776683,170.322394 140.500643,165.277734 135.368591,164.186883 C130.236539,163.096031 125.191879,166.372072 124.101027,171.504124 C123.861392,172.631518 123.832495,173.754695 123.987717,174.832665 M140.70105,179.570665 C139.320771,181.176517 137.397714,182.33315 135.149658,182.729543 C133.151894,183.081802 131.189968,182.782109 129.482155,181.983299" id="paint-string" stroke="#8A9EA3" stroke-linecap="round" stroke-linejoin="round"></path>
            <path d="M10.5401178,227.837718 C13.0032427,222.892295 19.4797622,218.876492 24.993316,218.868189 L1255.00668,217.015988 C1260.52584,217.007678 1266.89976,221.053643 1269.24826,226.063629 L1280,249 L0,249 L10.5401178,227.837718 L10.5401178,227.837718 Z" id="checkout-frame" stroke="#C8E0E6" stroke-width="3" stroke-linecap="round" stroke-linejoin="round" fill="#4D595C"></path>
            <path d="M40.4895498,217.5 L1257.52617,217.5" id="checkout-belt" stroke="#757575" stroke-width="5" stroke-linecap="round" stroke-linejoin="round"></path>
            <path d="M16.5020096,218.5 L1264.51411,218.5" id="checkout-border" stroke="#C8E0E6" stroke-width="3" stroke-linecap="round" stroke-linejoin="round"></path>
        </g>
    </g>
</svg>
