<svg viewBox="0 0 100 64" version="1.1" xmlns="http://www.w3.org/2000/svg" xmlns:xlink="http://www.w3.org/1999/xlink">
    <title>Shape</title>
    <g fill="none" fill-rule="evenodd">
        <path d="M97.938,50.771 L91.622,50.771 L91.622,2.81 C91.622,1.695 90.717,0.789 89.601,0.789 L10.399,0.789 C9.284,0.789 8.378,1.695 8.378,2.81 L8.378,50.771 L2.062,50.771 C0.924,50.771 0,51.694 0,52.832 L0,54.916 C0,55.019 0.008,55.12 0.022,55.222 C0.549,58.743 3.37,62.669 7.181,63.144 C7.264,63.154 7.35,63.161 7.433,63.161 L91.943,63.232 L91.946,63.232 C96.35,63.232 99.55,59.035 99.987,55.147 C99.996,55.072 100,54.995 100,54.917 L100,52.833 C100,51.694 99.076,50.771 97.938,50.771 L97.938,50.771 Z M12.42,4.831 L87.58,4.831 L87.58,50.77 L59.985,50.77 C59.852,50.77 59.723,50.786 59.599,50.81 L41.16,50.81 C41.032,50.785 40.899,50.77 40.764,50.77 L12.42,50.77 L12.42,4.831 L12.42,4.831 Z M91.948,59.107 L7.586,59.036 C6.125,58.775 4.562,56.876 4.152,54.893 L39.238,54.893 C39.94,56.139 41.255,56.978 42.757,56.978 L57.99,56.978 C59.492,56.978 60.806,56.139 61.51,54.893 L95.86,54.893 C95.538,56.926 93.854,59.107 91.948,59.107 L91.948,59.107 Z M38.84,19.498 C38.026,18.684 36.707,18.684 35.893,19.498 L27.204,28.187 C26.39,29.001 26.39,30.32 27.204,31.135 L35.893,39.823 C36.3,40.23 36.833,40.434 37.367,40.434 C37.901,40.434 38.433,40.23 38.841,39.823 C39.655,39.01 39.655,37.69 38.841,36.876 L31.625,29.661 L38.841,22.445 C39.654,21.631 39.654,20.312 38.84,19.498 L38.84,19.498 Z M59.361,39.823 C59.767,40.23 60.3,40.434 60.835,40.434 C61.368,40.434 61.901,40.23 62.309,39.823 L70.997,31.135 C71.811,30.321 71.811,29.002 70.997,28.187 L62.309,19.498 C61.495,18.684 60.175,18.684 59.362,19.498 C58.548,20.312 58.548,21.631 59.362,22.445 L66.577,29.661 L59.362,36.876 C58.547,37.69 58.547,39.01 59.361,39.823 L59.361,39.823 Z M41.793,44.275 C42.092,44.423 42.41,44.495 42.724,44.495 C43.489,44.495 44.224,44.073 44.59,43.343 L57.096,18.332 C57.611,17.302 57.194,16.051 56.163,15.536 C55.134,15.023 53.882,15.438 53.366,16.468 L40.861,41.479 C40.346,42.509 40.763,43.76 41.793,44.275 L41.793,44.275 Z" fill="#FFFFFF"></path>
    </g>
</svg>