<svg xmlns="http://www.w3.org/2000/svg" xmlns:xlink="http://www.w3.org/1999/xlink" version="1.1" x="0px" y="0px" viewBox="0 0 100 125" enable-background="new 0 0 100 100" xml:space="preserve"><g><rect x="0" y="0" fill="none" width="100" height="100"/></g><g><g><path d="M76.101,49.309c0.004-9.69-2.171-16.637-6.717-21.153c-2.527-2.502-5.697-4.163-9.433-5.148    c-0.191-2.907-1.011-5.202-2.633-6.817c-1.882-1.86-4.542-2.525-7.619-2.522h-0.274c-3.067-0.003-5.721,0.663-7.601,2.523    c-1.616,1.613-2.436,3.904-2.629,6.807c-3.738,0.983-6.912,2.647-9.442,5.158c-4.535,4.513-6.712,11.46-6.709,21.151v19.958    c0.002,4.104,0.384,7.328,1.202,9.917c1.193,3.885,3.604,6.343,6.747,7.51c3.126,1.188,6.844,1.329,11.242,1.337    c2.141,0,4.448-0.042,6.922-0.041l0.765-0.002c2.484,0,4.799,0.042,6.951,0.042c5.858-0.024,10.602-0.228,14.157-2.937    c1.754-1.358,3.056-3.327,3.868-5.909c0.819-2.591,1.202-5.814,1.203-9.919L76.101,49.309z M43.909,18.29    c1.081-1.083,2.827-1.661,5.518-1.664l0.274-0.001c2.703,0.003,4.455,0.585,5.538,1.667c0.832,0.82,1.442,2.104,1.687,4.086    c-2.178-0.347-4.514-0.512-7.001-0.511h-0.765c-2.462-0.001-4.775,0.162-6.934,0.505C42.469,20.392,43.079,19.109,43.909,18.29z     M72.084,78.291c-1.066,3.232-2.586,4.682-4.996,5.644c-2.425,0.94-5.877,1.15-10.214,1.14c-2.114,0.001-4.433-0.041-6.951-0.041    h-0.765c-2.509,0-4.819,0.042-6.922,0.041c-5.787,0.024-9.908-0.391-12.308-2.314c-1.222-0.957-2.17-2.308-2.863-4.47    c-0.686-2.156-1.065-5.105-1.063-9.024L26,49.309c0.004-9.298,2.086-15.334,5.837-19.055c3.745-3.728,9.449-5.428,17.321-5.432    h0.765c7.908,0.003,13.629,1.705,17.381,5.433c3.759,3.721,5.839,9.755,5.842,19.054l0.001,19.958    C73.148,73.186,72.77,76.135,72.084,78.291z M49.426,45.759h0.104c2.93,0,4.419-1.327,4.419-4.551v-0.152    c0-3.215-1.489-4.552-4.419-4.552h-0.104c-2.931,0-4.419,1.337-4.419,4.552v0.152C45.007,44.432,46.496,45.759,49.426,45.759z     M68.699,48.421c0.003-6.884-1.544-11.914-4.861-15.21c-3.326-3.291-8.129-4.561-14.017-4.558H49.28    c-5.864-0.003-10.656,1.268-13.975,4.558c-3.311,3.297-4.859,8.326-4.855,15.21V62.48h0.05c-0.68,1.392-0.989,3.094-0.987,5.082    v5.815c0.002,1.261,0.114,2.298,0.399,3.205c0.392,1.364,1.41,2.436,2.588,2.849c1.163,0.434,2.342,0.451,3.65,0.459    c0.636,0,1.306-0.013,2.018-0.013h23.75c0.712,0,1.385,0.011,2.025,0.011c1.723-0.024,3.323-0.006,4.766-1.075    c0.699-0.536,1.203-1.33,1.483-2.231c0.285-0.907,0.398-1.944,0.4-3.205v-5.815c0.001-2.713-0.566-4.903-1.892-6.48V48.421z     M37.388,35.307c2.521-2.51,6.404-3.696,11.893-3.699h0.541c5.516,0.003,9.411,1.189,11.936,3.7    c2.532,2.504,3.984,6.62,3.988,13.113L65.743,59.09c-1.154-0.402-2.444-0.573-3.826-0.571h-23.75    c-1.769-0.002-3.392,0.276-4.761,0.979l-0.001-11.076C33.408,41.928,34.861,37.811,37.388,35.307z M67.635,73.377    c0.001,1.075-0.108,1.837-0.261,2.312c-0.266,0.709-0.392,0.775-0.832,0.983c-0.455,0.187-1.365,0.271-2.601,0.262    c-0.604,0-1.281-0.011-2.025-0.011h-23.75c-0.744,0-1.419,0.011-2.018,0.011c-1.668,0.024-2.65-0.171-2.942-0.452    c-0.169-0.137-0.321-0.312-0.479-0.793c-0.153-0.475-0.263-1.236-0.261-2.312v-5.815c0.003-2.571,0.577-4.006,1.392-4.809    c0.807-0.811,2.148-1.275,4.308-1.278h23.75c1.778,0.003,2.996,0.32,3.825,0.878v0.128h0.188c0.112,0.087,0.217,0.177,0.313,0.274    c0.816,0.802,1.389,2.237,1.392,4.808V73.377z"/></g></g><text x="0" y="115" fill="#000000" font-size="5px" font-weight="bold" font-family="'Helvetica Neue', Helvetica, Arial-Unicode, Arial, Sans-serif">Created by NATAPON CHANTABUTR</text><text x="0" y="120" fill="#000000" font-size="5px" font-weight="bold" font-family="'Helvetica Neue', Helvetica, Arial-Unicode, Arial, Sans-serif">from the Noun Project</text></svg>