<svg width="79px" height="59px" viewBox="0 0 79 59" version="1.1" xmlns="http://www.w3.org/2000/svg" xmlns:xlink="http://www.w3.org/1999/xlink">
    <g fill="none">
        <path d="M35.9967812,1.6278532 C21.5961892,1.6278532 10,12.3712954 10,25.5180589 C10,32.6716371 13.4437611,39.3210164 19.3190337,43.8424636 L20.2638542,44.5697522 L20.3361577,52.2585822 L27.711932,48.1882174 L28.6575649,48.443177 C31.0208348,49.0813932 33.4840298,49.4082645 35.9967812,49.4082645 C50.3973732,49.4082645 61.9935625,38.6648223 61.9935625,25.5180589 C61.9935625,12.3712954 50.3973732,1.6278532 35.9967812,1.6278532 M62.4327635,26.8849187 C67.000972,29.6921796 70,34.4773832 70,39.8841382 C70,44.5624999 67.7478181,48.9111209 63.9054543,51.8680977 L63.2875521,52.3437364 L63.2402664,57.3721468 L58.416591,54.7101729 L57.7981575,54.8769137 C56.2526049,55.2943001 54.6417024,55.5080703 52.9983906,55.5080703 C47.4773183,55.5080703 42.5865587,53.0933926 39.4845304,49.3629435" stroke="#eeeeee" stroke-width="3" stroke-linecap="round" stroke-linejoin="round"></path>
        <path d="M46.25,29.5 C47.4005932,29.5 48.3333333,28.5617732 48.3333333,27.4044118 C48.3333333,26.2470503 47.4005932,25.3088235 46.25,25.3088235 C45.0994068,25.3088235 44.1666667,26.2470503 44.1666667,27.4044118 C44.1666667,28.5617732 45.0994068,29.5 46.25,29.5 L46.25,29.5 Z M26.25,29.5 C27.4005932,29.5 28.3333333,28.5617732 28.3333333,27.4044118 C28.3333333,26.2470503 27.4005932,25.3088235 26.25,25.3088235 C25.0994068,25.3088235 24.1666667,26.2470503 24.1666667,27.4044118 C24.1666667,28.5617732 25.0994068,29.5 26.25,29.5 L26.25,29.5 Z M36.25,29.5 C37.4005932,29.5 38.3333333,28.5617732 38.3333333,27.4044118 C38.3333333,26.2470503 37.4005932,25.3088235 36.25,25.3088235 C35.0994068,25.3088235 34.1666667,26.2470503 34.1666667,27.4044118 C34.1666667,28.5617732 35.0994068,29.5 36.25,29.5 L36.25,29.5 Z" fill="#eeeeee"></path>
    </g>
</svg>