<svg class="category-technology" width="250px" height="250px" viewBox="0 0 250 250" version="1.1" xmlns="http://www.w3.org/2000/svg" xmlns:xlink="http://www.w3.org/1999/xlink">
    <circle class="background" cx="125" cy="125" r="125" fill="#000000"></circle>
    <path d="M79.712,79 C77.114,79 75,81.114 75,83.712 L75,146.85 C75,149.449 77.114,151.563 79.712,151.563 L84.445,151.563 L84.445,166.273 C84.445,168.37 86.151,170.076 88.248,170.076 L147.755,170.076 C150.433,170.076 152.61,167.897 152.61,165.22 C152.61,162.542 150.433,160.364 147.755,160.364 L141.143,160.364 L141.143,151.564 L170.538,151.564 C173.137,151.564 175.25,149.45 175.25,146.851 L175.25,83.712 C175.25,81.114 173.137,79 170.538,79 L79.712,79 Z M112.11,138.913 L172.248,138.913 L172.248,146.85 C172.248,147.794 171.481,148.56 170.538,148.56 L112.11,148.56 L112.11,138.913 L112.11,138.913 Z M147.755,163.367 C148.777,163.367 149.608,164.198 149.608,165.22 C149.608,166.242 148.777,167.073 147.755,167.073 L111.93,167.073 C111.995,166.787 112.027,166.524 112.027,166.273 L112.027,163.367 L147.755,163.367 L147.755,163.367 Z M112.11,151.564 L138.141,151.564 L138.141,160.364 L112.11,160.364 L112.11,151.564 Z M87.447,120.443 C87.447,120.002 87.807,119.643 88.248,119.643 L108.224,119.643 C108.666,119.643 109.025,120.002 109.025,120.443 L109.025,123.524 L87.447,123.524 L87.447,120.443 L87.447,120.443 Z M78.002,83.712 C78.002,82.769 78.77,82.002 79.712,82.002 L170.538,82.002 C171.481,82.002 172.248,82.769 172.248,83.712 L172.248,135.911 L112.027,135.911 L112.027,120.443 C112.027,118.766 110.892,117.269 109.267,116.803 C108.88,116.692 108.549,116.64 108.224,116.64 L88.248,116.64 C86.151,116.64 84.445,118.347 84.445,120.443 L84.445,135.91 L78.002,135.91 L78.002,83.712 L78.002,83.712 Z M84.445,138.913 L84.445,148.56 L79.712,148.56 C78.77,148.56 78.002,147.794 78.002,146.85 L78.002,138.913 L84.445,138.913 L84.445,138.913 Z M109.025,163.378 L109.025,166.273 C109.025,166.715 108.666,167.073 108.224,167.073 L88.248,167.073 C87.807,167.073 87.447,166.715 87.447,166.273 L87.447,163.378 L109.025,163.378 L109.025,163.378 Z M87.447,160.375 L87.447,126.526 L109.025,126.526 L109.025,160.363 L102.496,160.363 C102.469,160.363 102.444,160.366 102.419,160.37 C102.406,160.373 102.393,160.375 102.38,160.375 L87.447,160.375 L87.447,160.375 Z" class="icon" fill="#FFFFFF"></path>
</svg>