<svg viewBox="0 0 100 100" version="1.1" xmlns="http://www.w3.org/2000/svg" xmlns:xlink="http://www.w3.org/1999/xlink">
	<path d="M37.5,52.3800016 C34.0802151,51.8444427 31.4986979,49.571556 31.25625,46.68125 C31.184375,45.821875 31.821875,45.065625 32.68125,44.99375 C33.546875,44.915625 34.296875,45.559375 34.36875,46.41875 C34.4758243,47.6890408 35.7748703,48.7736191 37.5,49.1914066 L37.5,42.8272173 C33.2808473,41.7938806 31.25,39.8082176 31.25,36.875 C31.25,33.8568756 33.9382279,31.3323118 37.5,30.7509575 L37.5,29.0625 C37.5,28.2 38.2,27.5 39.0625,27.5 C39.925,27.5 40.625,28.2 40.625,29.0625 L40.625,30.744885 C44.0441536,31.279918 46.6235812,33.5507578 46.86875,36.44375 C46.940625,37.303125 46.303125,38.059375 45.44375,38.13125 C44.60625,38.215625 43.828125,37.565625 43.75625,36.70625 C43.6492062,35.4363211 42.3508698,34.351999 40.625,33.9339506 L40.625,40.2989245 C44.8442503,41.3312741 46.875,43.314966 46.875,46.25 C46.875,49.2681244 44.1867721,51.7926882 40.625,52.3740425 L40.625,54.0625 C40.625,54.925 39.925,55.625 39.0625,55.625 C38.2,55.625 37.5,54.925 37.5,54.0625 L37.5,52.3800016 Z M40.625,49.1880242 C42.4241424,48.7472294 43.746875,47.5794804 43.746875,46.25 C43.746875,44.9965399 42.7461617,44.1104303 40.625,43.5083773 L40.625,49.1880242 Z M37.5,33.9365147 C35.7005825,34.3769557 34.375,35.5450557 34.375,36.875 C34.375,38.1281702 35.3773607,39.0141598 37.5,39.616205 L37.5,33.9365147 Z M78.121875,51.584375 L84.83125,58.29375 C85.13125,58.590625 85.53125,58.75 85.9375,58.75 C86.1375,58.75 86.340625,58.7125 86.534375,58.63125 C87.11875,58.390625 87.5,57.81875 87.5,57.1875 L87.5,41.5625 C87.5,40.7 86.8,40 85.9375,40 L70.3125,40 C69.68125,40 69.109375,40.38125 68.86875,40.965625 C68.625,41.55 68.759375,42.221875 69.20625,42.66875 L75.9125,49.375 L54.684375,70.603125 L43.290625,59.209375 C42.68125,58.6 41.690625,58.6 41.08125,59.209375 L22.33125,77.959375 C21.721875,78.56875 21.721875,79.559375 22.33125,80.16875 C22.6375,80.471875 23.0375,80.625 23.4375,80.625 C23.8375,80.625 24.2375,80.471875 24.54375,80.165625 L42.1875,62.521875 L53.578125,73.91875 C54.1875,74.528125 55.178125,74.528125 55.7875,73.91875 L78.121875,51.584375 L78.121875,51.584375 Z M29.15,66.071875 C28.94375,66.071875 28.734375,66.03125 28.53125,65.94375 C18.79375,61.734375 12.5,52.1625 12.5,41.5625 C12.5,26.915625 24.415625,15 39.0625,15 C53.709375,15 65.625,26.915625 65.625,41.5625 C65.625,50.409375 61.240625,58.646875 53.89375,63.6 C53.178125,64.08125 52.209375,63.89375 51.725,63.178125 C51.24375,62.4625 51.43125,61.490625 52.146875,61.009375 C58.628125,56.6375 62.5,49.36875 62.5,41.5625 C62.5,28.6375 51.9875,18.125 39.0625,18.125 C26.1375,18.125 15.625,28.6375 15.625,41.5625 C15.625,50.915625 21.178125,59.359375 29.76875,63.075 C30.5625,63.41875 30.925,64.3375 30.584375,65.128125 C30.33125,65.71875 29.753125,66.071875 29.15,66.071875 Z M74.084375,43.125 L84.375,53.415625 L84.375,43.125 L74.084375,43.125 Z" fill-rule="evenodd" fill="#000000"></path>
</svg>