<svg viewBox="0 0 100 100" version="1.1" xmlns="http://www.w3.org/2000/svg" xmlns:xlink="http://www.w3.org/1999/xlink">
    <path d="M59.8335003,43.10877 C58.5223669,41.7976366 56.8366241,41.1420699 55.0572288,41.1420699 C53.2778335,41.1420699 51.5920905,41.7976366 50.2809571,43.10877 L50,43.4833795 L49.7190429,43.2024223 C48.4079095,41.891289 46.7221665,41.2357223 44.9427713,41.2357223 C43.163376,41.2357223 41.4776331,41.891289 40.1664997,43.2024223 C37.544233,45.8246891 37.544233,50.1326987 40.1664997,52.7549655 L50,62.4948134 L59.8335003,52.6613131 C62.455767,50.0390464 62.455767,45.7310367 59.8335003,43.10877 L59.8335003,43.10877 L59.8335003,43.10877 Z M57.6794955,50.5073083 L50,58.2804562 L42.3205045,50.6009607 C40.8220664,49.1025225 40.8220664,46.7612129 42.3205045,45.2627748 C43.0697236,44.5135557 44.0062475,44.1389462 44.9427713,44.1389462 C45.9729475,44.1389462 46.9094713,44.5135557 47.565038,45.2627748 L50,47.6977368 L52.434962,45.2627748 C53.8397477,43.8579891 56.2747097,43.8579891 57.7731478,45.2627748 C59.1779336,46.7612129 59.1779336,49.1025225 57.6794955,50.5073083 Z M17.9708848,50.694613 C17.9708848,32.9943125 32.3933519,18.6654978 50,18.6654978 C52.6222667,18.6654978 55.2445335,18.946455 57.7731478,19.6020216 L55.9001002,20.3512407 C55.1508811,20.6321979 54.7762716,21.4750693 55.0572288,22.3179408 C55.2445335,22.8798551 55.8064478,23.2544646 56.4620145,23.2544646 C56.6493193,23.2544646 56.8366241,23.2544646 57.0239288,23.1608122 L63.1113337,20.8195026 C63.5795957,20.6321979 63.8605528,20.2575883 63.9542052,19.8829788 L63.9542052,19.7893264 C63.9542052,19.7893264 63.9542052,19.7893264 63.9542052,19.695674 C64.0478576,19.3210645 64.0478576,18.8528026 63.7669004,18.3845407 L59.9271527,13.0463548 C59.3652384,12.4844405 58.5223669,12.2971357 57.7731478,12.7653976 C57.1175812,13.2336595 56.9302764,14.1701834 57.3985383,14.8257501 L58.8033241,16.7924501 C55.9001002,16.0432311 52.9968763,15.6686215 49.9063477,15.6686215 C30.7076089,15.6686215 14.9740085,31.402222 14.9740085,50.694613 C14.9740085,61.0900277 19.5629753,70.923528 27.6170803,77.6664996 C27.8980374,77.8538044 28.272647,78.0411092 28.5536042,78.0411092 C29.021866,78.0411092 29.3964756,77.8538044 29.6774327,77.4791948 C30.239347,76.8236281 30.1456947,75.8871043 29.4901279,75.4188424 C22.185242,69.237785 17.9708848,60.2471562 17.9708848,50.694613 Z M69.0114339,21.2877646 C68.3558672,20.8195026 67.4193434,21.0068074 66.9510815,21.7560265 C66.4828195,22.4115931 66.6701243,23.348117 67.4193434,23.8163789 C76.597277,29.7164791 82.0291153,39.8309365 82.0291153,50.694613 C82.0291153,68.3949136 67.7003006,82.7237283 50,82.7237283 C45.9729475,82.7237283 41.945895,81.9745092 38.1997996,80.4760711 L40.2601521,80.0078092 C41.1030235,79.8205044 41.5712854,78.9776329 41.3839807,78.2284139 C41.1966759,77.3855424 40.4474569,76.9172805 39.6045854,77.1045853 L33.2362233,78.6030234 C32.7679614,78.6966758 32.3933519,78.9776329 32.2060471,79.4458949 L32.2060471,79.5395473 C32.0187423,79.9141568 32.0187423,80.3824187 32.2060471,80.8506807 L35.2029234,86.6571282 C35.4838805,87.1253903 35.9521424,87.5 36.5140568,87.5 C36.7013615,87.5 36.9823186,87.4063476 37.1696234,87.3126952 C37.9188425,86.9380855 38.1997996,86.001562 37.8251901,85.345995 L36.7950139,83.2856426 C41.0093712,84.9713853 45.5046856,85.9079096 50,85.9079096 C69.2923911,85.9079096 85.0259915,70.1743089 85.0259915,50.8819178 C85.0259915,38.8007603 79.032239,27.749779 69.0114339,21.2877646 Z M37.0759711,70.923528 C36.4204043,70.455266 35.4838805,70.6425708 35.0156186,71.3917899 L33.4235281,73.9204043 C32.9552662,74.5759709 33.1425709,75.5124948 33.89179,75.9807567 C34.1727472,76.1680614 34.4537043,76.1680614 34.7346615,76.1680614 C35.2029234,76.1680614 35.6711853,75.8871043 35.9521424,75.5124948 L37.544233,72.9838804 C38.0124949,72.3283137 37.8251901,71.3917899 37.0759711,70.923528 Z M62.9240289,70.923528 C62.2684623,71.3917899 61.9875052,72.3283137 62.455767,72.9838804 L64.0478576,75.5124948 C64.3288147,75.9807567 64.7970767,76.1680614 65.2653385,76.1680614 C65.5462957,76.1680614 65.8272529,76.0744091 66.10821,75.9807567 C66.7637767,75.5124948 67.0447338,74.5759709 66.5764719,73.9204043 L64.9843814,71.3917899 C64.5161195,70.7362232 63.5795957,70.5489184 62.9240289,70.923528 Z M73.2257912,61.3709848 C72.4765721,60.9963753 71.6337006,61.2773324 71.1654387,62.0265515 C70.7908292,62.7757705 71.0717864,63.618642 71.8210054,64.0869039 L74.5369245,65.4916897 C74.7242293,65.5853421 75.0051864,65.6789945 75.1924912,65.6789945 C75.7544055,65.6789945 76.2226675,65.3980373 76.5036246,64.9297754 C76.8782342,64.1805563 76.597277,63.3376849 75.8480579,62.869423 L73.2257912,61.3709848 Z M79.9687628,49.945394 C79.9687628,49.1025225 79.2195438,48.4469559 78.4703247,48.4469559 L75.4734484,48.5406082 C74.630577,48.5406082 73.9750102,49.2898273 73.9750102,50.0390464 C73.9750102,50.8819178 74.630577,51.5374845 75.4734484,51.5374845 L78.4703247,51.4438321 C79.4068485,51.4438321 80.0624152,50.7882655 79.9687628,49.945394 Z M73.6940531,34.7737078 L71.0717864,36.3657984 C70.3225673,36.8340602 70.1352625,37.6769317 70.6035244,38.4261508 C70.8844816,38.8944127 71.3527435,39.1753699 71.9146578,39.1753699 C72.1956149,39.1753699 72.4765721,39.0817175 72.6638769,38.9880651 L75.2861436,37.3959746 C76.0353627,36.9277127 76.2226675,36.0848412 75.7544055,35.3356222 C75.2861436,34.5864031 74.3496198,34.3054459 73.6940531,34.7737078 Z M62.7367242,25.1275123 L61.2382861,27.749779 C60.8636765,28.4989981 61.0509813,29.3418695 61.8002004,29.8101315 C61.9875052,29.9037839 62.2684623,29.9974363 62.5494194,29.9974363 C63.1113337,29.9974363 63.5795957,29.7164791 63.8605528,29.2482172 L65.358991,26.6259505 C65.7336005,25.8767314 65.5462957,25.0338599 64.7970767,24.565598 C64.0478576,24.1909884 63.2049861,24.3782932 62.7367242,25.1275123 Z M48.5015618,76.1680614 L48.5015618,79.1649377 C48.5015618,80.0078092 49.1571286,80.6633759 50,80.6633759 C50.8428714,80.6633759 51.4984382,80.0078092 51.4984382,79.1649377 L51.4984382,76.1680614 C51.4984382,75.32519 50.8428714,74.6696233 50,74.6696233 C49.1571286,74.6696233 48.5015618,75.32519 48.5015618,76.1680614 Z M50,26.7196028 C50.8428714,26.7196028 51.4984382,26.0640361 51.4984382,25.2211646 L51.4984382,22.2242884 C51.4984382,21.3814169 50.8428714,20.7258503 50,20.7258503 C49.1571286,20.7258503 48.5015618,21.3814169 48.5015618,22.2242884 L48.5015618,25.2211646 C48.5015618,26.0640361 49.1571286,26.7196028 50,26.7196028 Z M38.7617139,27.749779 L37.2632758,25.1275123 C36.8886663,24.3782932 35.9521424,24.1909884 35.2029234,24.565598 C34.4537043,24.9402075 34.2663995,25.8767314 34.641009,26.6259505 L36.1394472,29.2482172 C36.4204043,29.7164791 36.8886663,29.9974363 37.4505806,29.9974363 C37.7315377,29.9974363 37.9188425,29.9037839 38.1997996,29.8101315 C38.8553664,29.435522 39.1363235,28.4989981 38.7617139,27.749779 Z M29.3964756,38.3324984 C29.8647375,37.5832793 29.5837804,36.7404079 28.9282136,36.2721459 L26.3059469,34.6800554 C25.5567278,34.2117935 24.7138564,34.4927506 24.2455945,35.1483174 C23.7773325,35.8975364 24.0582897,36.7404079 24.7138564,37.2086698 L27.3361231,38.8007603 C27.6170803,38.9880651 27.8043851,38.9880651 28.0853422,38.9880651 C28.6472565,39.0817175 29.1155184,38.8007603 29.3964756,38.3324984 Z M24.5265516,51.5374845 C25.369423,51.5374845 26.0249898,50.8819178 26.0249898,50.0390464 C26.0249898,49.1961749 25.369423,48.5406082 24.5265516,48.5406082 L21.5296753,48.4469559 C20.6868039,48.4469559 20.0312372,49.1025225 20.0312372,49.945394 C20.0312372,50.7882655 20.6868039,51.4438321 21.5296753,51.4438321 L24.5265516,51.5374845 Z M24.8075088,65.5853421 C25.0884659,65.5853421 25.2757707,65.4916897 25.4630755,65.3980373 L28.1789946,63.9932516 C28.9282136,63.618642 29.2091708,62.6821182 28.8345613,61.9328991 C28.4599517,61.18368 27.5234279,60.9027229 26.7742089,61.2773324 L24.0582897,62.6821182 C23.3090706,63.0567277 23.0281135,63.9932516 23.402723,64.7424706 C23.7773325,65.3043849 24.2455945,65.5853421 24.8075088,65.5853421 Z" fill-rule="evenodd" fill="#000000"></path>
</svg>