<svg viewBox="0 0 100 100" version="1.1" xmlns="http://www.w3.org/2000/svg" xmlns:xlink="http://www.w3.org/1999/xlink">
	<path d="M67.2338433,14.1000624 C59.5652513,14.1000624 53.3474477,20.3168904 53.3474477,27.986458 C53.3474477,35.65505 59.5652513,41.8728536 67.2338433,41.8728536 C74.9024352,41.8728536 81.1202388,35.65505 81.1202388,27.986458 C81.1202388,20.3168904 74.9024352,14.1000624 67.2338433,14.1000624 L67.2338433,14.1000624 Z M67.2338433,39.433734 C60.912621,39.433734 55.7865673,34.3076803 55.7865673,27.986458 C55.7865673,21.6642601 60.912621,16.539182 67.2338433,16.539182 C73.5550656,16.539182 78.6811193,21.6642601 78.6811193,27.986458 C78.6811193,34.3076803 73.5550656,39.433734 67.2338433,39.433734 L67.2338433,39.433734 Z M18.8797612,42.9343584 L18.8797612,83.3505698 C18.8797612,85.6443178 20.7403216,87.5 23.0340696,87.5 L38.760537,87.5 C41.0513581,87.5 42.9148455,85.6413909 42.9148455,83.3505698 L42.9148455,42.9343584 C42.9148455,40.641586 41.054285,38.7849282 38.760537,38.7849282 L23.0340696,38.7849282 C20.7432485,38.7849282 18.8797612,40.6435373 18.8797612,42.9343584 L18.8797612,42.9343584 Z M21.3188807,48.0116297 L40.4757259,48.0116297 L40.4757259,76.4234702 L21.3188807,76.4234702 L21.3188807,48.0116297 Z M40.4757259,78.8625898 L40.4757259,83.3505698 C40.4757259,84.2930456 39.7059397,85.0608804 38.760537,85.0608804 L23.0340696,85.0608804 C22.0857399,85.0608804 21.3188807,84.2959725 21.3188807,83.3505698 L21.3188807,78.8625898 L40.4757259,78.8625898 Z M21.3188807,45.5725101 L21.3188807,42.9343584 C21.3188807,41.9918826 22.0886669,41.2240478 23.0340696,41.2240478 L38.760537,41.2240478 C39.7088667,41.2240478 40.4757259,41.9889557 40.4757259,42.9343584 L40.4757259,45.5725101 L21.3188807,45.5725101 Z M30.8968155,84.0091321 C32.0139323,84.0091321 32.9203091,83.1037309 32.9203091,81.9866141 C32.9203091,80.8694973 32.0139323,79.9640962 30.8968155,79.9640962 C29.7806744,79.9640962 28.8742975,80.8694973 28.8742975,81.9866141 C28.8742975,83.1037309 29.7806744,84.0091321 30.8968155,84.0091321 M37.0385186,24.7873088 C36.8180222,25.5209959 37.0472994,26.3288323 37.6287855,26.8469013 C38.2102716,27.3649703 39.0385966,27.4986341 39.7537465,27.191305 L48.5872619,23.4370122 C49.1346004,23.2028567 49.5502264,22.739424 49.7209647,22.1706213 C49.8917031,21.600843 49.8009678,20.9852092 49.4731502,20.4895801 C48.9267874,19.6466204 48.5306744,19.1919685 46.373517,16.8260225 C46.2857087,16.7284577 46.2857087,16.7284577 46.1969248,16.6318686 C44.8154074,15.1118092 43.7802451,13.8863956 43.525601,13.4619888 C43.1568061,12.8707462 42.5372697,12.516586 41.8640727,12.5 L41.6182095,12.5009756 L41.4884483,12.5136591 C40.6757337,12.6375663 40.021074,13.2444193 39.8366766,14.0454262 L39.5088589,15.450359 C34.8706291,15.3723072 31.2646347,17.1606697 28.6362395,20.5803153 C27.2556978,22.4379488 26.2127303,25.1707384 25.7024664,28.072315 C25.1434202,31.2451218 25.2839135,33.9632766 26.3356619,35.9321339 C26.7532392,36.7233843 27.6537621,37.1409616 28.5328208,36.948759 C29.4128551,36.7565564 30.0558071,36.0014049 30.1055651,35.1028333 C30.5250937,29.0040587 33.7174134,25.1961052 37.1760849,24.3131439 M27.9230409,32.9310412 C27.7435217,31.698798 27.8059632,30.1914221 28.1045114,28.4947705 C28.554285,25.9405245 29.4645645,23.5550656 30.5826569,22.0515923 C32.9027474,19.0319622 36.0531143,17.5772713 40.3791367,17.9080159 L41.4221043,17.9870434 L42.0006634,15.505971 L47.1384249,21.4018108 L39.6347175,24.5921792 L40.469872,21.7013347 L38.879566,21.6710896 C33.97596,21.5784031 29.1426007,25.7941773 27.9230409,32.9310412 M59.8540431,59.4754917 C60.0745395,58.7427802 59.8452623,57.9339682 59.2637761,57.4158992 C58.68229,56.8978302 57.853965,56.7641664 57.1388152,57.0714955 L48.3062754,60.8257883 C47.7579613,61.0599438 47.3423353,61.5233765 47.1715969,62.0931549 C47.0008586,62.6619575 47.0915938,63.2775913 47.4194115,63.7741961 C47.9657743,64.6161801 48.3618873,65.070832 50.5190446,67.4377537 C50.6078286,67.5343428 50.6078286,67.5343428 50.6956369,67.6309319 C52.0771542,69.1509913 53.1123166,70.3764049 53.3669607,70.8008117 C53.7357555,71.39303 54.3552919,71.7462145 55.0284889,71.7628005 L55.2743522,71.7628005 L55.405089,71.7501171 C56.216828,71.6262098 56.8714877,71.0183812 57.0558851,70.21835 L57.3837028,68.8124415 C62.0219326,68.8904933 65.6279269,67.1031065 68.2563222,63.6824852 C69.6368639,61.8258273 70.6798314,59.0920621 71.1900952,56.1914611 C71.7491414,53.0176787 71.6086481,50.2995239 70.5568998,48.3306666 C70.1393225,47.5394162 69.2387996,47.1218389 68.3597409,47.3140415 C67.4797065,47.5062441 66.8367546,48.2613956 66.7869966,49.1609429 C66.367468,55.2587418 63.1751483,59.0676709 59.7164767,59.9496566 M68.9695208,51.3327349 C69.1500156,52.5640025 69.0865985,54.0713784 68.7880503,55.76803 C68.3382766,58.322276 67.4279972,60.7077349 66.3108804,62.2121839 C63.9898142,65.2318139 60.840423,66.6855292 56.5134249,66.3557602 L55.4704574,66.2757571 L54.8918982,68.7568295 L49.7541367,62.8609897 L57.2578442,59.6715969 L56.4226897,62.5614658 L58.0129956,62.5917109 C62.9175773,62.6843974 67.749961,58.4686232 68.9695208,51.3327349 M68.6386515,33.4721263 C70.4621373,33.4477351 71.958781,31.9403592 71.958781,30.1090682 C71.9578054,28.2670451 70.4855528,26.7704013 68.6386515,26.7469858 L68.6386515,24.3595755 L70.1694429,24.3595755 C70.7753202,24.3595755 71.2397286,23.8746786 71.2397286,23.2892899 C71.2397286,22.6843882 70.7548316,22.2190042 70.1694429,22.2190042 L68.6386515,22.2190042 L68.6386515,21.1292056 C68.6386515,20.5243039 68.1537545,20.0589199 67.5683658,20.0589199 C66.9634642,20.0589199 66.4990558,20.5438169 66.4990558,21.1292056 L66.4990558,22.2229068 C64.6745943,22.2463223 63.1779506,23.7536982 63.1779506,25.5849892 C63.1779506,27.4172558 64.6745943,28.9236561 66.4990558,28.9470716 L66.4990558,31.3354575 L64.8980177,31.3354575 C64.2921404,31.3354575 63.827732,31.8193788 63.827732,32.4057432 C63.827732,33.0106448 64.312629,33.4760289 64.8980177,33.4760289 L66.4990558,33.4760289 L66.4990558,34.5989995 C66.4990558,35.2048768 66.9820015,35.6692852 67.5683658,35.6692852 C68.1732675,35.6692852 68.6386515,35.1843882 68.6386515,34.5989995 L68.6386515,33.4721263 L68.6386515,33.4721263 Z M66.4990558,26.7333267 C65.8648847,26.7099112 65.3516939,26.1918422 65.3516939,25.5508415 C65.3516939,24.9088653 65.8648847,24.3907963 66.4990558,24.3673807 L66.4990558,26.7333267 Z M66.4990558,24.3673807 L66.4990558,26.7333267 L66.4990558,24.3673807 L66.4990558,24.3673807 Z M68.6376758,28.926583 C69.2718469,28.9499986 69.7850377,29.4680676 69.7850377,30.1090682 C69.7850377,30.7490932 69.2718469,31.2681378 68.6376758,31.292529 L68.6376758,28.926583 L68.6376758,28.926583 Z" fill-rule="evenodd" fill="#000000"></path>
</svg>