<svg viewBox="0 0 100 100" version="1.1" xmlns="http://www.w3.org/2000/svg" xmlns:xlink="http://www.w3.org/1999/xlink">
	<path d="M71.109236,12.5 L28.8896914,12.5 C28.0584079,12.5 27.3837276,13.1746804 27.3837276,14.0059638 L27.3837276,46.7606762 C27.3837276,53.8625182 33.1608793,59.6385973 40.2616487,59.6385973 C41.5455794,59.6385973 42.5903149,60.6833329 42.5903149,61.9672635 L42.5903149,80.0903149 C42.5903149,84.1770115 45.914376,87.5 50,87.5 C54.085624,87.5 57.4086125,84.1759389 57.4086125,80.0903149 L57.4086125,61.9672635 C57.4086125,60.6833329 58.453348,59.6385973 59.7372787,59.6385973 C66.8380481,59.6385973 72.6162724,53.8614456 72.6162724,46.7606762 L72.6162724,14.0059638 C72.6151998,13.1736077 71.9405194,12.5 71.109236,12.5 L71.109236,12.5 Z M30.3956552,40.9427648 L69.6021996,40.9427648 L69.6021996,45.2547124 L30.3956552,45.2547124 L30.3956552,40.9427648 L30.3956552,40.9427648 Z M69.6021996,15.5119276 L69.6021996,37.9297646 L64.1715054,37.9297646 L64.1715054,21.8393353 C64.1715054,21.0080518 63.496825,20.3333715 62.6655416,20.3333715 C61.8342582,20.3333715 61.1595778,21.0080518 61.1595778,21.8393353 L61.1595778,37.9297646 L55.7288836,37.9297646 L55.7288836,21.8393353 C55.7288836,21.0080518 55.0542033,20.3333715 54.2229198,20.3333715 C53.3916364,20.3333715 52.716956,21.0080518 52.716956,21.8393353 L52.716956,37.9297646 L47.2851892,37.9297646 L47.2851892,21.8393353 C47.2851892,21.0080518 46.6105089,20.3333715 45.7792254,20.3333715 C44.947942,20.3333715 44.2732616,21.0080518 44.2732616,21.8393353 L44.2732616,37.9297646 L38.8425674,37.9297646 L38.8425674,21.8393353 C38.8425674,21.0080518 38.1678871,20.3333715 37.3366036,20.3333715 C36.5053202,20.3333715 35.8306399,21.0080518 35.8306399,21.8393353 L35.8306399,37.9297646 L30.3999457,37.9297646 L30.3999457,15.5119276 L69.6021996,15.5119276 L69.6021996,15.5119276 Z M59.7362061,56.6266697 C56.7918538,56.6266697 54.3956123,59.0218386 54.3956123,61.9672635 L54.3956123,80.0903149 C54.3956123,82.5155173 52.4230571,84.4880724 49.9989274,84.4880724 C47.5747976,84.4880724 45.6022425,82.5155173 45.6022425,80.0903149 L45.6022425,61.9672635 C45.6022425,59.0218386 43.206001,56.6266697 40.2616487,56.6266697 C35.334015,56.6266697 31.2376648,52.9947656 30.5114985,48.2677126 L69.4885015,48.2677126 C68.7601899,52.9947656 64.6649123,56.6266697 59.7362061,56.6266697 L59.7362061,56.6266697 Z" fill-rule="evenodd" fill="#000000"></path>
</svg>