<svg viewBox="0 0 100 100" version="1.1" xmlns="http://www.w3.org/2000/svg" xmlns:xlink="http://www.w3.org/1999/xlink">
	<path d="M50.7484797,63.0064189 C65.5407095,64.060473 70.8383446,66.872973 75.929223,74.5493243 C77.2944257,76.6057432 79.1714527,77.7570946 81.2106419,77.7570946 C82.6741554,77.7570946 84.1396959,77.1439189 85.2423986,76.0746622 C86.3390203,75.0135135 86.9734797,73.6158784 86.9734797,72.2375 L86.9734797,24.5162162 C86.9704392,21.6064189 84.2339527,18.9966216 81.2076014,18.9966216 C79.1592905,18.9966216 77.2853041,20.1581081 75.8866554,22.2692568 C70.0538851,31.0665541 63.8045608,33.9662162 44.9359797,33.9662162 L43.75625,33.9591216 C36.5390203,33.8760135 31.3934122,33.8385135 28.0407095,33.8385135 C23.9268581,33.8385135 23.1677365,33.8638514 22.5555743,34.1131757 C22.5748311,34.1091216 22.5940878,34.1030405 22.6133446,34.0989865 L22.5150338,34.1293919 C22.5282095,34.1243243 22.5423986,34.1192568 22.5555743,34.1131757 C17.4444257,35.1753378 13.0265203,39.7381757 13.0265203,48.3743243 C13.0265203,58.3614865 17.470777,61.6189189 22.6133446,62.6608108 C23.1059122,62.7956081 24.1782095,62.9111486 27.8532095,62.9192568 L37.1846284,78.0935811 C38.2488176,79.7445946 40.3731419,81.0033784 42.8886824,81.0033784 C44.2214527,81.0033784 45.6413851,80.6587838 47.1190878,79.9381757 C54.0880068,76.5449324 54.5248311,76.3006757 54.6596284,75.3753378 C54.7092905,75.0368243 54.6413851,74.8351351 54.3869932,74.3131757 L47.9552365,62.864527 L50.7484797,63.0064189 L50.7484797,63.0064189 Z M50.5092905,74.4418919 L45.6140203,76.8530405 C43.9184122,77.6800676 42.5521959,77.7570946 41.4596284,77.3101351 C40.7866554,77.0344595 40.3305743,76.6168919 40.0863176,76.2581081 L31.8717905,62.9060811 L43.9589527,62.7956081 L50.5092905,74.4418919 L50.5092905,74.4418919 Z M43.7177365,37.3918919 L48.8086149,37.3310811 L48.8086149,59.4621622 L23.7342905,59.3648649 C22.8130068,59.3212838 21.4893581,58.9219595 20.1728041,57.875 C17.9947635,56.1429054 16.4471284,53.1672297 16.4471284,48.3814189 C16.4471284,43.7293919 17.995777,40.6148649 20.1717905,38.8817568 C21.4873311,37.8358108 22.8059122,37.4364865 23.7221284,37.3918919 L43.7177365,37.3918919 Z M52.2454392,59.6790541 L52.2454392,37.0787162 L52.2454392,59.6790541 Z M83.5356419,72.2486486 C83.5326014,72.6773649 83.28125,73.1932432 82.8505068,73.6118243 C82.38125,74.0658784 81.7782095,74.3253378 81.2086149,74.3253378 C80.3613176,74.3253378 79.5221284,73.7567568 78.745777,72.5891892 C73.1967905,64.2206081 67.3853041,60.9641892 52.2454392,59.6790541 L52.2454392,37.0787162 C67.3944257,35.7905405 73.2048986,32.527027 78.7913851,24.1047297 C79.5271959,22.9908784 80.3653716,22.4293919 81.2076014,22.4293919 C82.3771959,22.4293919 83.5356419,23.5533784 83.5356419,24.5162162 L83.5356419,72.2486486 C83.5356419,72.2456081 83.5366554,72.2425676 83.5366554,72.239527 L83.5356419,72.2486486 Z" fill-rule="evenodd" fill="#000000"></path>
</svg>