<svg viewBox="0 0 100 100" version="1.1" xmlns="http://www.w3.org/2000/svg" xmlns:xlink="http://www.w3.org/1999/xlink">
	<path d="M93.8621799,53.6197126 L66.798582,22.8321424 C66.407576,22.4344903 65.7031006,21.8607195 64.8258293,21.3467625 C63.3958327,20.5104749 61.8727923,20.0541166 60.3519672,20.1604525 L39.6485861,20.1615602 C38.1266534,20.0541166 36.6036129,20.5104749 35.1736164,21.3478702 C34.2963451,21.8618271 33.5918697,22.435598 33.2008636,22.83325 L6.13837337,53.6208203 C5.93234754,53.8534301 5.96003918,54.2100985 6.19707966,54.4094783 L16.8949157,63.4181241 C17.1319562,63.6175039 17.4853016,63.584274 17.6813584,63.3450182 L30.6233254,47.4788136 L30.6233254,79.3009437 C30.6233254,79.6066594 30.8714425,79.8547766 31.1771583,79.8547766 L68.8222874,79.8547766 C69.1280031,79.8547766 69.3761203,79.6066594 69.3761203,79.3009437 L69.3761203,47.4788136 L82.3180872,63.3450182 C82.5141441,63.584274 82.8674894,63.6175039 83.1045299,63.4181241 L93.802366,54.4094783 C94.0405141,54.2089908 94.0670981,53.8534301 93.8621799,53.6197126 L93.8621799,53.6197126 Z M59.4392506,34.2964831 C57.7456296,34.8071171 56.0198863,35.4462402 54.3982636,36.2260369 L58.4445667,28.5454824 C58.5963169,30.7663523 58.914217,32.7235977 59.4392506,34.2964831 L59.4392506,34.2964831 Z M49.9997228,38.1456217 L49.7527134,37.6072962 L42.1552338,23.1899184 L57.8442119,23.1888107 L50.2467323,37.6061885 L49.9997228,38.1456217 L49.9997228,38.1456217 Z M41.5548789,28.5465901 L45.6022897,36.2271446 C43.980667,35.4462402 42.2549237,34.8082247 40.5601951,34.2964831 C41.0852287,32.7235977 41.4031287,30.76746 41.5548789,28.5465901 L41.5548789,28.5465901 Z M32.6691841,40.1792961 L16.9226074,59.4836953 L10.0805559,53.7205102 L35.4128722,24.897939 C35.4206259,24.891293 35.5369308,24.7871724 35.6831427,24.6675445 C35.9290445,24.467057 36.2070686,24.2643542 36.5094613,24.0738357 C37.1973218,23.6429537 37.9029049,23.3527453 38.5963037,23.2353327 C38.6539023,24.6221302 38.6627636,26.2980286 38.5608583,28.0293102 C38.3902778,30.9214255 37.9438885,33.2142937 37.1807068,34.5268776 L36.530507,35.6467277 C36.3433115,35.9690585 36.520538,36.3800025 36.8827447,36.4641851 L38.1454837,36.7599318 C38.2052976,36.7743315 38.3116335,36.8009155 38.4644914,36.8418991 C38.7159316,36.9072514 39.0006017,36.9870033 39.3140711,37.0789396 C40.2035267,37.3403487 41.1428273,37.6527105 42.0909892,38.0160248 C44.6696351,39.0040627 46.8162914,40.1759731 48.2385342,41.5073874 L48.2407496,63.9276504 C48.1377367,65.0630078 47.5141208,66.8895487 45.9966187,68.8822394 C43.5874456,72.0479482 39.5832339,74.5712108 33.6516836,76.0831746 L33.6516836,40.5293185 C33.6516836,40.0087156 32.9981608,39.7761058 32.6691841,40.1792961 L32.6691841,40.1792961 Z M40.606717,76.827526 C45.3142966,74.5833951 48.3337935,71.5461756 49.9997228,68.1367803 C51.6656522,71.5461756 54.6851491,74.5833951 59.3927286,76.8264183 L40.606717,76.827526 L40.606717,76.827526 Z M83.0768383,59.4825876 L67.3302616,40.1792961 C67.0012848,39.7749981 66.347762,40.0087156 66.347762,40.5293185 L66.347762,76.0831746 C60.4162118,74.5712108 56.4131077,72.0468405 54.0028269,68.8822394 C52.4853248,66.888441 51.861709,65.0619001 51.7598037,63.9265427 L51.7609114,41.5073874 C53.1831543,40.1759731 55.3298105,39.002955 57.9084565,38.0160248 C58.8566184,37.6527105 59.7970266,37.339241 60.6853746,37.0789396 C60.998844,36.9858957 61.2835141,36.9072514 61.5349542,36.8407914 C61.6878121,36.8009155 61.794148,36.7743315 61.853962,36.7599318 L63.116701,36.4641851 C63.4800153,36.3788948 63.6561342,35.9679508 63.4700463,35.6467277 L62.8187389,34.52577 C62.0566648,33.213186 61.6102755,30.9214255 61.4385873,28.0282025 C61.3366821,26.2980286 61.3455434,24.6210226 61.4042497,23.2353327 C62.0976484,23.3527453 62.8021239,23.6429537 63.4899843,24.0738357 C63.7934848,24.2632465 64.0704012,24.4659494 64.316303,24.6675445 C64.4625149,24.7871724 64.5788198,24.891293 64.5865735,24.897939 L89.9188898,53.7194026 L83.0768383,59.4825876 L83.0768383,59.4825876 Z" fill-rule="evenodd" fill="#000000"></path>
</svg>