<svg viewBox="0 0 100 100" version="1.1" xmlns="http://www.w3.org/2000/svg" xmlns:xlink="http://www.w3.org/1999/xlink">
	<path d="M76.1700658,80.0014803 L33.7131579,80.0014803 C33.1684211,80.0014803 32.6769737,79.7064145 32.4282895,79.2307566 C32.1746711,78.7590461 32.2003289,78.1847039 32.5003289,77.7396382 L37.4848684,70.2001645 L13.9565789,70.2001645 C13.1532895,70.2001645 12.5,69.546875 12.5,68.7435855 L12.5,21.4541118 C12.5,20.6518092 13.1532895,19.9985197 13.9565789,19.9985197 L86.0434211,19.9985197 C86.8467105,19.9985197 87.5,20.6518092 87.5,21.4541118 L87.5,68.7445724 C87.5,69.5478618 86.8467105,70.2011513 86.0434211,70.2011513 L77.6256579,70.2011513 L77.6256579,78.5458882 C77.6256579,79.3481908 76.9723684,80.0014803 76.1700658,80.0014803 L76.1700658,80.0014803 Z M61.0990132,77.0902961 L74.7134868,77.0902961 L74.7134868,74.3695724 L61.0990132,74.3695724 L61.0990132,77.0902961 Z M36.4220395,77.0902961 L58.1868421,77.0902961 L58.1858553,70.2011513 L40.9782895,70.2011513 L36.4220395,77.0902961 L36.4220395,77.0902961 Z M61.0990132,71.4574013 L74.7134868,71.4574013 L74.7134868,54.8429276 L61.0990132,54.8429276 L61.0990132,71.4574013 Z M77.6256579,67.2889803 L84.5868421,67.2889803 L84.5868421,61.3294408 L77.6256579,61.3294408 L77.6256579,67.2889803 Z M15.4131579,67.2889803 L58.1868421,67.2889803 L58.1868421,61.3294408 L15.4131579,61.3294408 L15.4131579,67.2889803 Z M15.4131579,58.4162829 L58.1868421,58.4162829 L58.1868421,47.9764803 C58.1868421,47.1731908 58.8401316,46.5199013 59.6434211,46.5199013 L76.1710526,46.5199013 C76.9723684,46.5199013 77.6246711,47.1722039 77.6266447,47.9745066 L77.6266447,58.4152961 L84.5878289,58.4152961 L84.5878289,22.9106908 L15.4131579,22.9106908 L15.4131579,58.4162829 L15.4131579,58.4162829 Z M61.0990132,51.9307566 L74.7134868,51.9307566 L74.7134868,49.4320724 L61.0990132,49.4320724 L61.0990132,51.9307566 Z" fill-rule="evenodd" fill="#000000"></path>
</svg>