<svg viewBox="0 0 100 100" version="1.1" xmlns="http://www.w3.org/2000/svg" xmlns:xlink="http://www.w3.org/1999/xlink">
	<path d="M81.0323109,78.2901625 C88.103834,70.5403374 92,60.5132269 92,49.9995478 C92,26.8405129 73.1585827,8 50.0004522,8 C26.8414173,8 8,26.8414173 8,49.9995478 C8,61.4574231 12.5301521,72.1637399 20.7556929,80.145092 C20.7656413,80.1550404 20.7792074,80.1577536 20.7891558,80.1667977 C20.9049193,80.2726128 21.0342489,80.3567222 21.1735268,80.4155083 C21.1979457,80.4263612 21.223269,80.5240366 21.2485923,80.5330807 C21.3942011,80.585536 21.5452363,80.7121524 21.6989847,80.7121524 L21.6998891,80.7121524 L21.6998891,80.7121524 L21.6998891,80.7121524 L21.7007935,80.7121524 C21.8328363,80.7121524 21.9630702,80.59458 22.0896866,80.5556907 C22.113201,80.5484555 22.1367155,80.497809 22.16023,80.488765 C22.2832287,80.4444492 22.400801,80.3576266 22.5093293,80.2771348 C22.517469,80.2708039 22.5283218,80.2581423 22.535557,80.2518115 C27.3415519,76.4876883 27.9900085,71.8806619 27.9900085,67.8759677 C27.9900085,67.8651148 27.9872953,67.8524532 27.9872953,67.8425048 C27.9863909,67.7909538 27.9791557,67.7412117 27.9719205,67.6905651 C27.966494,67.6507714 27.9628764,67.6100733 27.9538324,67.571184 C27.943884,67.5277727 27.9285091,67.4852658 27.9149431,67.4427589 C27.9004727,67.4011563 27.8896198,67.3586494 27.8715318,67.3197601 C27.8534437,67.2799664 27.8308337,67.2437903 27.8100324,67.2058054 C27.7892312,67.1678205 27.7693343,67.1289312 27.7449154,67.0936595 C27.7186878,67.056579 27.6879381,67.0231161 27.6580928,66.9887488 C27.6318651,66.9579991 27.6065418,66.9254406 27.577601,66.8964997 C27.5459469,66.8657501 27.5088664,66.8395224 27.4735947,66.8105815 C27.4392274,66.7834494 27.4066689,66.7545086 27.3704928,66.7318985 C27.3370299,66.7101928 27.3008538,66.6930092 27.2655821,66.6749211 C27.220362,66.6514067 27.1760463,66.6269878 27.1290173,66.6088998 C27.1199733,66.6052821 27.1118337,66.5989513 27.1018852,66.5953337 C24.0513356,65.4765878 22.0010551,62.4857287 22.0010551,59.1511967 L22.0010551,39.1440046 C22.0010551,38.0243543 22.7716061,37.3008323 23.9636086,37.3008323 L24.7142626,37.3008323 L24.7142626,48.1536623 C24.7142626,48.903412 25.3211167,49.510266 26.0708664,49.510266 C26.8206161,49.510266 27.4274701,48.903412 27.4274701,48.1536623 L27.4274701,34.8797468 C27.4274701,33.7736625 28.4485406,32.8394147 29.6568223,32.8394147 C29.8214236,32.8394147 30.0023041,32.8719732 30.1822802,32.9171933 C30.1687141,33.0700374 30.1406777,33.2165506 30.1406777,33.3739166 L30.1406777,48.1536623 C30.1406777,48.903412 30.7475317,49.510266 31.4972814,49.510266 C32.2470311,49.510266 32.8538852,48.903412 32.8538852,48.1536623 L32.8538852,33.3739166 C32.8538852,32.3347581 33.4942021,31.2820336 34.7187631,31.2820336 C35.1573983,31.2820336 35.680143,31.3914663 36.2273065,32.2027154 C36.3937166,32.4496172 36.4714952,32.8222311 36.4714952,33.3757254 L36.4714952,35.4920273 C36.4714952,35.6095996 36.4904876,35.7217455 36.5194285,35.8302738 C35.9261405,36.6388096 35.5670927,37.6544536 35.5670927,38.8003316 L35.5670927,48.1536623 C35.5670927,48.903412 36.1739467,49.510266 36.9236964,49.510266 C37.6734461,49.510266 38.2803002,48.903412 38.2803002,48.1536623 L38.2803002,38.8003316 C38.2803002,37.7611731 38.9206171,36.7084486 40.1451781,36.7084486 C40.5838133,36.7084486 41.106558,36.8178813 41.6537215,37.6291304 C41.8201316,37.8760323 41.8979102,38.2486461 41.8979102,38.8021404 L41.8979102,45.1311491 C40.2925957,45.9197881 39.1847027,47.5477126 39.1847027,49.4288698 L39.1847027,54.4844798 C39.1847027,55.2333251 39.7915568,55.8410836 40.5413064,55.8410836 C41.2910561,55.8410836 41.8979102,55.2333251 41.8979102,54.4844798 L41.8979102,49.4288698 C41.8979102,48.2947491 42.8927529,47.3369868 44.070285,47.3369868 C45.2478171,47.3369868 46.2435642,48.2956535 46.2435642,49.4288698 L46.2336158,60.2021124 C46.2336158,62.9180331 44.4067227,64.8896306 42.8746649,66.063545 C42.4604485,66.3818947 41.6663831,66.5446872 40.897641,66.7029576 L40.7900171,66.7246633 C40.6733492,66.7481777 40.5657253,66.7915891 40.4635278,66.8422356 C39.7508586,66.8838381 39.1847027,67.4689865 39.1847027,68.1916041 L39.1847027,69.0715878 C39.1847027,69.6522142 39.3474951,70.1830984 39.3429731,70.8487387 C39.3095102,75.869077 38.8455517,81.7287008 34.4573908,87.1288881 C34.1833568,87.4671347 34.0874902,87.9157183 34.1996361,88.3362655 C34.3126864,88.7559082 34.6192788,89.096868 35.02626,89.2524252 C39.8006008,91.0757006 44.8390271,92 50.0004522,92 C56.1621464,92 62.0986445,90.696756 67.645345,88.1255397 C68.0034884,87.9582252 68.2711916,87.6443975 68.3797199,87.2645485 C68.4873437,86.883795 68.4240356,86.4759095 68.2060746,86.146707 C64.7820067,80.9671939 64.079286,75.3409059 64.079286,68.4846305 C64.079286,67.7357853 63.4688143,67.1280268 62.719969,67.1280268 C62.6430948,67.1280268 62.5698382,67.1388796 62.4965816,67.1497324 C62.4405086,67.1424972 62.3844357,67.1325488 62.3265539,67.1325488 C58.0451125,67.1325488 54.561354,63.6089967 54.561354,59.2760043 L54.561354,55.8202823 C54.5595452,53.3223226 56.1449628,51.7712723 58.6962823,51.7712723 L69.4821865,51.7712723 C70.2310318,51.7712723 70.8387903,51.1635138 70.8387903,50.4146685 L70.8387903,39.0182926 C70.8387903,38.0107882 71.4049462,36.9264096 72.6475953,36.9264096 C73.8902443,36.9264096 74.4564003,38.0116926 74.4564003,39.019197 L74.4564003,45.3346397 C72.8700783,46.171212 71.7431928,47.7873793 71.7431928,49.5536774 L71.7431928,54.4844798 C71.7431928,55.2333251 72.3509512,55.8410836 73.0997965,55.8410836 C73.8486418,55.8410836 74.4564003,55.2333251 74.4564003,54.4844798 L74.4564003,49.5545818 C74.4564003,48.4729164 75.6122267,47.4500371 76.8358832,47.4500371 C78.0586354,47.4500371 79.2144618,48.4611591 79.2144618,49.5283541 L79.1909474,60.2789866 C79.1909474,64.0150734 76.0942732,67.0547702 72.2876431,67.0547702 C68.503623,67.0547702 65.3074646,63.8821262 65.3074646,60.1279514 C65.3074646,59.3791061 64.6997061,58.7713477 63.9508608,58.7713477 C63.2020155,58.7713477 62.594257,59.3791061 62.594257,60.1279514 C62.594257,65.3535891 67.0330645,69.7679777 72.2876431,69.7679777 C73.363882,69.7679777 74.3967097,69.584384 75.363516,69.2606079 C75.3915524,72.1881588 75.6990493,75.3463323 78.5216895,78.2377071 C78.5931373,78.3986908 78.698048,78.5488216 78.8355172,78.6754379 C79.0580002,78.8834505 79.3365562,78.9793172 79.6178253,79.0091625 C79.6675675,79.0163977 79.704648,79.0390077 79.7589121,79.0390077 C79.7688606,79.0390077 79.778809,79.0362945 79.7887574,79.0362945 C79.8068455,79.0353901 79.8240291,79.0317725 79.8430216,79.0308681 C80.1875989,79.0109713 80.5683524,78.8716933 80.8143499,78.6048945 C80.9038857,78.5090279 80.9726203,78.401404 81.0323109,78.2901625 L81.0323109,78.2901625 Z M54.5595452,50.2889566 L54.5595452,39.2697165 C54.5595452,38.1093681 55.8202823,37.3008323 56.9516898,37.3008323 L57.2727527,37.3008323 L57.2727527,49.0580648 C57.2727527,49.0996673 57.2817967,49.139461 57.2854144,49.1801591 C56.2552999,49.3601352 55.3382358,49.7445063 54.5595452,50.2889566 L54.5595452,50.2889566 Z M59.9859602,49.0580648 L59.9859602,35.0045543 C59.9859602,33.8677204 60.9771854,32.9081493 62.149291,32.9081493 C62.3482596,32.9081493 62.5499413,32.938899 62.7452923,32.9904499 C62.729013,33.1595732 62.6991677,33.3241745 62.6991677,33.4996285 L62.6991677,49.0580648 L59.9859602,49.0580648 L59.9859602,49.0580648 Z M68.1255827,49.0580648 L65.4123752,49.0580648 L65.4123752,33.4996285 C65.4123752,32.4921242 65.9785312,31.4077456 67.2211802,31.4077456 C68.4638293,31.4077456 69.0299852,32.4930286 69.0299852,33.500533 L69.0299852,36.0943593 C68.4656381,36.8956599 68.1255827,37.8941203 68.1255827,39.0182926 L68.1255827,49.0580648 L68.1255827,49.0580648 Z M78.0740103,67.8741589 L78.0740103,67.8397916 C80.3947071,66.106052 81.9032505,63.3675212 81.9032505,60.2816998 L81.9267649,49.5319717 C81.9267649,47.0394384 79.7797134,44.9231366 77.1687034,44.7540133 L77.1687034,39.019197 C77.1687034,36.2788574 75.2251424,34.2132021 72.6466909,34.2132021 C72.334672,34.2132021 72.033506,34.246665 71.7422884,34.3045468 L71.7422884,33.5014374 C71.7422884,30.7610978 69.7987274,28.6954425 67.2202758,28.6954425 C65.757857,28.6954425 64.5161124,29.3746487 63.6994369,30.4499833 C63.1993023,30.2889997 62.6729401,30.1949418 62.1474822,30.1949418 C59.6024936,30.1949418 57.5305074,32.1357896 57.3134508,34.5921468 C57.3007892,34.5912424 57.2872232,34.5876248 57.2727527,34.5876248 L56.9516898,34.5876248 C54.1842182,34.5876248 51.8463377,36.7319631 51.8463377,39.2697165 L51.8463377,59.2760043 C51.8463377,64.7783891 56.0373389,69.3067324 61.3669828,69.7969186 C61.4429527,75.2839286 62.0642772,80.9888995 65.0840771,86.2796542 C60.3025011,88.2765749 55.2089062,89.2867925 49.9597541,89.2867925 C45.7416208,89.2867925 41.5723253,88.6274831 37.6200863,87.3242391 C41.5352448,81.6563486 42.0245265,75.6113223 42.0561806,70.8668267 C42.0597982,70.2681123 41.9377039,69.7761173 41.908763,69.2615123 C42.8032171,69.0679702 43.7519353,68.8120242 44.5251995,68.2187362 C47.3767805,66.031891 48.9468233,63.1857363 48.9468233,60.2048256 L48.9567717,49.431583 C48.9567717,46.9616598 47.0521,44.9222322 44.6111177,44.6563378 L44.6111177,38.8021404 C44.6111177,38.0976109 44.5378611,37.0521216 43.9029705,36.111543 C42.9551567,34.7070059 41.690802,33.9952411 40.1451781,33.9952411 C39.8132624,33.9952411 39.4931039,34.0305128 39.1847027,34.093821 L39.1847027,33.3757254 C39.1847027,32.6711959 39.1114461,31.6257066 38.4765555,30.685128 C37.5287417,29.2805909 36.264387,28.5688261 34.7187631,28.5688261 C33.2192638,28.5688261 31.9467695,29.265216 31.1219544,30.3658739 C30.6362902,30.2148387 30.1388689,30.1253028 29.6559179,30.1253028 C27.0331507,30.1253028 24.8860991,32.1032311 24.7287331,34.5894336 C24.7242111,34.5885292 24.7196891,34.5876248 24.7142626,34.5876248 L23.9636086,34.5876248 C21.2540187,34.5876248 19.2878476,36.5040537 19.2878476,39.1440046 L19.2878476,59.1511967 C19.2878476,63.2816029 21.6537646,67.0204029 25.2623306,68.7550469 C25.1718903,71.6979726 24.5433306,74.7014933 21.7749545,77.3125034 C14.63741,69.9470494 10.7132075,60.3015967 10.7132075,49.9995478 C10.7132075,28.3363947 28.3372991,10.7132075 50.0004522,10.7132075 C71.6627009,10.7132075 89.2867925,28.3372991 89.2867925,49.9995478 C89.2867925,59.4442231 85.9260328,68.4701601 79.8014191,75.5932342 C77.9781436,73.2435965 78.0740103,70.7266443 78.0740103,67.8741589 L78.0740103,67.8741589 Z M41.259402,22.0761205 C40.7095253,21.5660375 39.8503429,21.5995004 39.3420687,22.1493771 C38.8328901,22.6983495 38.8654486,23.5575318 39.4153253,24.0667105 L44.1073655,28.4150777 C44.3687378,28.6574576 44.6988447,28.7768387 45.0289516,28.7768387 C45.3934259,28.7768387 45.7569957,28.6303255 46.0246988,28.3427255 C46.5338774,27.7937532 46.5013189,26.9345708 45.9514422,26.4253922 L41.259402,22.0761205 L41.259402,22.0761205 Z M49.6893377,17.4039772 L49.6839113,17.4039772 C48.9368749,17.4039772 48.3300208,18.0542426 48.3273076,18.8012791 L48.3001755,25.2451469 C48.2965579,25.9939922 48.9016032,26.4480022 49.6504484,26.4480022 L49.6558748,26.4480022 C50.4029113,26.4480022 51.0097654,25.9406324 51.0124786,25.193596 L51.0396107,18.8935281 C51.0432283,18.1437785 50.438183,17.4039772 49.6893377,17.4039772 L49.6893377,17.4039772 Z M58.0812886,22.1484727 L53.3521679,26.4561419 C52.7986735,26.9607985 52.7579754,27.818172 53.2617276,28.3725708 C53.5303352,28.6665016 53.8966182,28.815728 54.26471,28.815728 C54.5911993,28.815728 54.918593,28.6990601 55.1781565,28.4621066 L59.9072772,24.1544375 C60.4607715,23.6497809 60.5014697,22.7924073 59.9977175,22.2380086 C59.4903477,21.6827055 58.6329741,21.6447206 58.0812886,22.1484727 L58.0812886,22.1484727 Z" fill-rule="evenodd" fill="#000000"></path>
</svg>