<svg class="normalized" viewBox="0 0 100 100" version="1.1" xmlns="http://www.w3.org/2000/svg" xmlns:xlink="http://www.w3.org/1999/xlink">
    <path d="M12.0529437,77.7787253 L87.9493896,77.7787253 C90.177692,77.7787253 92,75.8362523 92,73.453952 L92,69.6110054 L8,69.6110054 L8,73.453952 C8,75.8362523 9.82230802,77.7787253 12.0529437,77.7787253 Z M22.1164706,63.8967514 L78.8215164,63.8967514 L78.8215164,28.1739143 L22.1164706,28.1739143 L22.1164706,63.8967514 Z M37.2887599,28.1727476 L38.2185803,32.3890224 L44.6258246,35.6428105 L41.6041999,38.6994347 L56.0134998,42.5155484 M38.2185803,32.3890224 L33.2917901,33.4411644 L31.6748378,41.5518951 M29.4850349,51.5127568 L30.3506896,46.699157 L33.6371439,45.1055124 L28.0243886,36.1748031 L25.0692629,37.8349467 L22.1164706,33.51834 M48.8094332,40.6080749 L48.9785975,46.1671643 L48.8094332,40.6080749 Z M84.9429313,69.6110054 L84.9429313,26.0961098 C84.6314357,23.6741434 83.2746212,22.3033291 80.8468216,22 L19.9815003,22 C17.4078693,22.2099971 16.1490535,23.6764767 15.8853905,26.0961098 L15.8853905,69.6110054 L84.9429313,69.6110054 Z" fill="none" stroke="#000000" stroke-width="3" stroke-linecap="round" stroke-linejoin="round"></path>
</svg>