<svg class="normalized" viewBox="0 0 100 100" version="1.1" xmlns="http://www.w3.org/2000/svg" xmlns:xlink="http://www.w3.org/1999/xlink"><path d="M85.387,76.184 C85.387,79.077 83.042,81.421 80.149,81.421 L19.238,81.421 C16.346,81.421 14,79.076 14,76.184 L14,65.934 C14,63.04 16.346,60.696 19.238,60.696 L80.149,60.696 C83.043,60.696 85.387,63.041 85.387,65.934 L85.387,76.184 L85.387,76.184 Z M25.355,81.421 L25.355,86.001 L25.355,81.421 Z M71.937,81.421 L71.937,86.001 L71.937,81.421 Z M70.505,66.329 C73.195,66.329 75.376,68.51 75.376,71.2 C75.376,73.889 73.195,76.07 70.505,76.07 C67.817,76.07 65.635,73.889 65.635,71.2 C65.634,68.51 67.816,66.329 70.505,66.329 L70.505,66.329 Z M49.694,60.695 L49.694,36.524 L49.694,60.695 Z M49.694,29.483 L49.694,26.384 L49.694,29.483 Z M24.356,14.001 C22.109,18.17 20.922,22.888 20.922,27.642 C20.921,32.4 22.109,37.119 24.358,41.288 M37.266,20.959 C36.152,23.025 35.587,25.274 35.587,27.644 C35.587,30.013 36.15,32.26 37.264,34.326 M30.811,37.807 C29.179,34.782 28.253,31.321 28.254,27.644 C28.254,23.967 29.18,20.506 30.811,17.48 M62.124,34.322 C63.237,32.257 63.802,30.009 63.802,27.643 C63.802,25.273 63.238,23.025 62.124,20.96 M75.034,41.28 C77.281,37.112 78.468,32.397 78.468,27.643 C78.468,22.885 77.28,18.167 75.034,14 M68.579,17.48 C70.21,20.505 71.135,23.966 71.135,27.643 C71.135,31.318 70.208,34.779 68.579,37.8 M31.194,73.001 C32.0224271,73.001 32.694,72.3294271 32.694,71.501 C32.694,70.6725729 32.0224271,70.001 31.194,70.001 C30.3655729,70.001 29.694,70.6725729 29.694,71.501 C29.694,72.3294271 30.3655729,73.001 31.194,73.001 Z M22.194,73.001 C23.0224271,73.001 23.694,72.3294271 23.694,71.501 C23.694,70.6725729 23.0224271,70.001 22.194,70.001 C21.3655729,70.001 20.694,70.6725729 20.694,71.501 C20.694,72.3294271 21.3655729,73.001 22.194,73.001 Z M40.194,73.001 C41.0224271,73.001 41.694,72.3294271 41.694,71.501 C41.694,70.6725729 41.0224271,70.001 40.194,70.001 C39.3655729,70.001 38.694,70.6725729 38.694,71.501 C38.694,72.3294271 39.3655729,73.001 40.194,73.001 Z" fill="none" stroke="#000000" stroke-width="3" stroke-linecap="round" stroke-linejoin="round"></path></svg>