<svg viewBox="0 0 69 71" version="1.1" xmlns="http://www.w3.org/2000/svg" xmlns:xlink="http://www.w3.org/1999/xlink">
    <g fill="none" fill-rule="evenodd">
        <g fill="#FFFFFF">
            <path d="M53.435,20.398 C45.102,20.398 38.322,27.178 38.322,35.512 C38.322,43.845 45.102,50.625 53.435,50.625 C61.77,50.625 68.548,43.845 68.548,35.512 C68.548,27.179 61.77,20.398 53.435,20.398 L53.435,20.398 Z M57.363,48.1 L53.97,45.837 L53.97,41.407 L58.271,38.924 L62.109,41.139 L62.371,45.197 C60.953,46.506 59.249,47.51 57.363,48.1 L57.363,48.1 Z M44.5,45.196 L44.761,41.138 L48.599,38.923 L52.899,41.406 L52.899,45.835 L49.506,48.1 C47.621,47.51 45.917,46.506 44.5,45.196 L44.5,45.196 Z M40.25,35.513 C40.25,34.519 40.364,33.551 40.573,32.62 L44.225,30.814 L48.062,33.028 L48.062,37.995 L44.225,40.212 L40.573,38.405 C40.364,37.475 40.25,36.507 40.25,35.513 L40.25,35.513 Z M49.506,22.925 L52.899,25.187 L52.899,29.617 L48.599,32.101 L44.761,29.886 L44.5,25.828 C45.917,24.519 47.62,23.515 49.506,22.925 L49.506,22.925 Z M62.37,25.828 L62.109,29.887 L58.271,32.102 L53.97,29.618 L53.97,25.188 L57.364,22.926 C59.249,23.515 60.953,24.519 62.37,25.828 L62.37,25.828 Z M53.435,40.479 L49.134,37.996 L49.134,33.029 L53.435,30.546 L57.737,33.029 L57.737,37.996 L53.435,40.479 L53.435,40.479 Z M62.645,40.212 L58.808,37.996 L58.808,33.028 L62.645,30.814 L66.297,32.62 C66.507,33.551 66.619,34.519 66.619,35.513 C66.619,36.506 66.507,37.474 66.297,38.405 L62.645,40.212 L62.645,40.212 Z M65.902,31.229 L63.183,29.884 L63.377,26.867 C64.479,28.132 65.344,29.609 65.902,31.229 L65.902,31.229 Z M55.961,22.572 L53.435,24.256 L50.91,22.572 C51.728,22.413 52.572,22.327 53.435,22.327 C54.298,22.327 55.144,22.413 55.961,22.572 L55.961,22.572 Z M43.492,26.867 L43.687,29.884 L40.967,31.228 C41.526,29.609 42.391,28.132 43.492,26.867 L43.492,26.867 Z M40.968,39.796 L43.688,41.141 L43.493,44.158 C42.391,42.892 41.526,41.415 40.968,39.796 L40.968,39.796 Z M50.909,48.452 L53.434,46.767 L55.96,48.452 C55.142,48.61 54.297,48.697 53.434,48.697 C52.571,48.697 51.728,48.61 50.909,48.452 L50.909,48.452 Z M63.378,44.157 L63.184,41.14 L65.903,39.795 C65.344,41.415 64.479,42.892 63.378,44.157 L63.378,44.157 Z"></path>
            <path d="M45.091,59.777 C42.706,57.692 39.108,54.544 35.634,48.983 C35.359,48.475 33.68,45.6 31.256,45.6 C30.596,45.6 29.965,45.808 29.382,46.218 C28.972,46.506 28.472,46.647 27.855,46.647 C26.516,46.647 25.227,45.972 25.221,45.97 C25.2,45.958 23.13,44.767 23.652,43.797 C24.238,42.709 24.074,41.128 22.616,40.342 C22.188,40.112 21.734,39.994 21.267,39.994 C19.353,39.994 17.46,41.922 15.131,46.246 L13.367,49.519 C13.294,49.655 12.926,50.384 12.896,51.337 C12.854,52.754 13.567,53.931 14.907,54.651 C15.092,54.752 15.447,54.943 15.934,55.205 L15.38,56.234 C15.036,56.872 15.275,57.666 15.912,58.008 C16.111,58.115 16.322,58.166 16.533,58.166 C16.999,58.166 17.452,57.916 17.689,57.476 L18.243,56.449 C18.868,56.785 19.56,57.158 20.3,57.556 L19.746,58.585 C19.402,59.222 19.641,60.018 20.278,60.36 C20.476,60.466 20.688,60.516 20.898,60.516 C21.365,60.516 21.816,60.267 22.053,59.828 L22.607,58.8 C24.616,59.882 26.831,61.075 29.028,62.258 L28.474,63.287 C28.132,63.925 28.369,64.72 29.007,65.062 C29.205,65.168 29.417,65.218 29.628,65.218 C30.093,65.218 30.546,64.969 30.782,64.53 L31.336,63.502 C32.29,64.015 33.225,64.52 34.12,65.002 L33.566,66.03 C33.223,66.667 33.461,67.463 34.098,67.805 C34.296,67.911 34.51,67.961 34.718,67.961 C35.185,67.961 35.637,67.712 35.874,67.272 L36.428,66.245 C37.311,66.721 38.125,67.16 38.848,67.549 L38.295,68.577 C37.951,69.215 38.189,70.01 38.825,70.352 C39.024,70.458 39.237,70.509 39.447,70.509 C39.913,70.509 40.365,70.259 40.602,69.82 L41.156,68.792 C41.811,69.146 42.184,69.346 42.184,69.346 C42.341,69.431 43.768,70.176 45.286,70.176 C46.682,70.176 47.79,69.544 48.408,68.395 C48.472,68.277 49.946,65.466 47.907,62.571 C47.305,61.714 46.327,60.859 45.091,59.777 L45.091,59.777 Z M30.396,60.021 L36.583,54.849 C37.282,55.721 37.969,56.514 38.636,57.237 L33.381,61.629 C32.404,61.103 31.402,60.562 30.396,60.021 L30.396,60.021 Z M35.69,53.696 L29.014,59.276 C28.007,58.733 27.005,58.194 26.03,57.669 L33.882,51.107 C34.486,52.035 35.09,52.896 35.69,53.696 L35.69,53.696 Z M15.68,50.753 L17.438,47.49 C20.034,42.672 21.217,42.617 21.267,42.617 C21.275,42.617 21.288,42.617 21.308,42.623 C20.602,44.001 20.907,45.543 22.151,46.865 C22.945,47.709 23.871,48.22 23.974,48.276 C24.162,48.378 25.874,49.268 27.854,49.268 C29.013,49.268 30.034,48.963 30.888,48.362 C31.069,48.236 31.183,48.221 31.255,48.221 C31.797,48.221 32.599,49.089 33.104,49.86 L24.65,56.925 C23.978,56.562 23.325,56.211 22.699,55.873 C22.698,55.872 22.697,55.872 22.697,55.871 C22.696,55.871 22.695,55.871 22.695,55.87 C19.362,54.075 16.785,52.686 16.151,52.345 C15.325,51.901 15.439,51.236 15.68,50.753 L15.68,50.753 Z M46.097,67.164 C45.993,67.356 45.83,67.558 45.287,67.558 C44.562,67.558 43.696,67.183 43.429,67.041 C43.429,67.041 42.605,66.597 41.247,65.866 L41.247,65.865 L41.246,65.865 C39.662,65.012 37.352,63.767 34.761,62.372 L39.641,58.292 C41.038,59.713 42.316,60.832 43.365,61.75 C44.469,62.717 45.343,63.479 45.765,64.082 C46.833,65.6 46.152,67.053 46.097,67.164 L46.097,67.164 Z"></path>
            <path d="M31.89,33.912 L31.89,16.17 L37.879,11.893 C38.301,11.591 38.402,11.005 38.104,10.58 L31.89,1.703 L31.89,1.66 C31.89,1.138 31.366,0.714 30.842,0.714 L30.707,0.714 L30.675,0.714 L8.021,0.714 L7.989,0.714 L7.957,0.714 C7.92,0.714 7.888,0.72 7.853,0.724 C7.843,0.726 7.833,0.726 7.823,0.727 C7.704,0.745 7.599,0.786 7.507,0.847 C7.497,0.853 7.486,0.859 7.476,0.866 C7.465,0.873 7.455,0.882 7.445,0.89 C7.359,0.951 7.28,1.024 7.216,1.115 L0.591,10.579 C0.294,11.004 0.394,11.59 0.817,11.892 L7.113,16.389 L7.113,33.911 C7.113,34.434 7.435,34.857 7.958,34.857 L30.842,34.857 C31.365,34.858 31.89,34.436 31.89,33.912 L31.89,33.912 Z M36.016,10.898 L31.89,13.844 L31.89,5.004 L36.016,10.898 L36.016,10.898 Z M22.607,2.528 C22.603,2.784 22.466,4.92 19.348,4.92 C16.216,4.92 16.092,2.843 16.088,2.603 C16.088,2.577 16.076,2.554 16.072,2.528 L22.607,2.528 L22.607,2.528 Z M2.679,10.898 L7.112,4.565 L7.112,14.064 L2.679,10.898 L2.679,10.898 Z M8.926,32.744 L8.926,2.528 L15.052,2.528 C15.048,2.554 15.036,2.578 15.036,2.606 C15.036,2.64 15.086,5.971 19.348,5.971 C23.598,5.971 23.659,2.579 23.659,2.528 L29.774,2.528 L29.774,15.686 C29.754,15.793 29.756,15.903 29.774,16.012 L29.774,32.743 L8.926,32.743 L8.926,32.744 Z"></path>
            <path d="M26.831,9.78 L22.142,9.78 C21.852,9.78 21.617,10.015 21.617,10.305 L21.617,16.203 C21.617,16.494 21.853,16.728 22.142,16.728 L26.831,16.728 C27.122,16.728 27.357,16.493 27.357,16.203 L27.357,10.305 C27.357,10.015 27.122,9.78 26.831,9.78 L26.831,9.78 Z M26.148,15.521 L22.824,15.521 L22.824,10.988 L26.148,10.988 L26.148,15.521 L26.148,15.521 Z"></path>
        </g>
    </g>
</svg>