<svg viewBox="0 0 100 100" version="1.1" xmlns="http://www.w3.org/2000/svg" xmlns:xlink="http://www.w3.org/1999/xlink">
    <path d="M73.3319319,13.653 C69.3799319,13.653 65.6879319,15.23 62.9559319,18.084 C61.9889319,19.095 61.8449319,20.58 62.4809319,21.746 C58.4609319,19.93 54.0559319,18.954 49.4999319,18.954 C44.9439319,18.954 40.5379319,19.93 36.5179319,21.746 C37.1539319,20.579 37.0109319,19.093 36.0419319,18.083 C33.3119319,15.229 29.6199319,13.653 25.6679319,13.653 C21.9529319,13.653 18.4239319,15.07 15.7399319,17.639 C10.0189319,23.115 9.81893194,32.221 15.2949319,37.943 C15.8719319,38.543 16.6599319,38.89 17.4899319,38.909 C18.3669319,38.909 19.1439319,38.598 19.7279319,38.039 L21.0609319,36.763 C18.9889319,41.01 17.8719319,45.712 17.8719319,50.581 C17.8719319,61.299 23.2849319,71.097 32.0169319,76.909 L28.8929319,82.729 C28.0739319,84.255 28.6459319,86.152 30.1689319,86.973 C30.6299319,87.222 31.1389319,87.347 31.6529319,87.347 C32.7979319,87.347 33.8649319,86.723 34.4169319,85.695 L37.5509319,79.857 C41.3119319,81.399 45.3509319,82.21 49.5009319,82.21 C53.6499319,82.21 57.6889319,81.399 61.4509319,79.857 L64.5849319,85.695 C65.1379319,86.723 66.2039319,87.347 67.3489319,87.347 C67.8619319,87.347 68.3699319,87.222 68.8299319,86.975 C70.3559319,86.154 70.9289319,84.255 70.1109319,82.729 L66.9849319,76.909 C75.7169319,71.096 81.1299319,61.298 81.1299319,50.581 C81.1299319,45.712 80.0129319,41.011 77.9419319,36.764 L79.2739319,38.039 C79.8569319,38.597 80.6339319,38.909 81.4419319,38.909 C82.3399319,38.892 83.1299319,38.544 83.7059319,37.943 C89.1809319,32.22 88.9809319,23.113 83.2599319,17.639 C80.5759319,15.07 77.0469319,13.653 73.3319319,13.653 Z M49.5,79 C65.2401154,79 78,66.2401154 78,50.5 C78,34.7598846 65.2401154,22 49.5,22 C33.7598846,22 21,34.7598846 21,50.5 C21,66.2401154 33.7598846,79 49.5,79 Z M73.149123,28.05 L81.162123,35.719 C85.683123,31.191 85.525123,23.983 81.001123,19.653 C78.875123,17.618 76.089123,16.5 73.147123,16.5 C70.013123,16.5 67.105123,17.742 64.939123,20.005 C64.887123,20.059 71.871123,26.826 71.871123,26.826 L72.954123,27.863 L73.149123,28.05 Z M25.850877,28.05 L17.837877,35.719 C13.316877,31.191 13.474877,23.983 17.998877,19.653 C20.124877,17.618 22.910877,16.5 25.852877,16.5 C28.986877,16.5 31.894877,17.742 34.060877,20.005 C34.112877,20.059 27.128877,26.826 27.128877,26.826 L26.045877,27.863 L25.850877,28.05 Z M49.5,74.5 C62.754834,74.5 73.5,63.754834 73.5,50.5 C73.5,37.245166 62.754834,26.5 49.5,26.5 C36.245166,26.5 25.5,37.245166 25.5,50.5 C25.5,63.754834 36.245166,74.5 49.5,74.5 L49.5,74.5 Z M49.5,71.5 C37.9020203,71.5 28.5,62.0979797 28.5,50.5 C28.5,38.9020203 37.9020203,29.5 49.5,29.5 C61.0979797,29.5 70.5,38.9020203 70.5,50.5 C70.5,62.0979797 61.0979797,71.5 49.5,71.5 L49.5,71.5 Z M41.0302327,39.219126 C41.2286357,38.8611974 41.5603708,38.577176 41.9825986,38.4477086 C42.8462118,38.18448 43.7604234,38.6707299 44.0236522,39.5343432 L46.87936,48.8889886 L61.0691074,46.777487 C61.9622208,46.6443245 62.7938918,47.2609849 62.9270543,48.1540983 C63.0609298,49.047607 62.4435563,49.8788826 61.5504429,50.0120451 L45.9673885,52.3317743 C45.1668243,52.450992 44.3988616,51.9665823 44.1628766,51.1917048 L40.8959641,40.4887622 C40.7618075,40.0480897 40.8231346,39.5927408 41.0302327,39.219126 L41.0302327,39.219126 L41.0302327,39.219126 Z" fill-rule="evenodd" fill="#000000"></path>
</svg>