<svg viewBox="0 0 100 100" version="1.1" xmlns="http://www.w3.org/2000/svg" xmlns:xlink="http://www.w3.org/1999/xlink">
    <path d="M37,86.4375 C24.075,86.4375 13.5625,75.925 13.5625,63 C13.5625,50.075 24.075,39.5625 37,39.5625 C49.925,39.5625 60.4375,50.075 60.4375,63 C60.4375,75.925 49.925,86.4375 37,86.4375 L37,86.4375 L37,86.4375 Z M37,42.6875 C25.8,42.6875 16.6875,51.8 16.6875,63 C16.6875,74.2 25.8,83.3125 37,83.3125 C48.2,83.3125 57.3125,74.2 57.3125,63 C57.3125,51.8 48.2,42.6875 37,42.6875 L37,42.6875 L37,42.6875 Z M62,61.4375 C61.1375,61.4375 60.4375,60.7375 60.4375,59.875 C60.4375,59.0125 61.1375,58.3125 62,58.3125 C73.2,58.3125 82.3125,49.2 82.3125,38 C82.3125,26.8 73.2,17.6875 62,17.6875 C50.8,17.6875 41.6875,26.8 41.6875,38 C41.6875,38.8625 40.9875,39.5625 40.125,39.5625 C39.2625,39.5625 38.5625,38.8625 38.5625,38 C38.5625,25.075 49.075,14.5625 62,14.5625 C74.925,14.5625 85.4375,25.075 85.4375,38 C85.4375,50.925 74.925,61.4375 62,61.4375 L62,61.4375 L62,61.4375 Z M35.4375,73.8179389 L35.4375,75.5 C35.4375,76.3625 36.1375,77.0625 37,77.0625 C37.8625,77.0625 38.5625,76.3625 38.5625,75.5 L38.5625,73.8112051 C42.1252816,73.2292431 44.8121107,70.7054197 44.809375,67.690625 C44.809375,64.7556059 42.7812596,62.7693058 38.5625,61.7365049 L38.5625,55.3710934 C40.2876297,55.7888809 41.5866757,56.8734592 41.69375,58.14375 C41.7625,59.00625 42.578125,59.646875 43.38125,59.56875 C44.240625,59.496875 44.878125,58.7375 44.80625,57.878125 C44.5610317,54.9872733 41.9806119,52.7164497 38.5625,52.1820546 L38.5625,50.5 C38.5625,49.6375 37.8625,48.9375 37,48.9375 C36.1375,48.9375 35.4375,49.6375 35.4375,50.5 L35.4375,52.1888 C31.874673,52.7708026 29.1875,55.2949678 29.1875,58.3125 C29.1875,61.2457176 31.2183473,63.2313806 35.4375,64.2647173 L35.4375,70.6285492 C33.7123703,70.2100421 32.4133243,69.1241073 32.30625,67.85625 C32.234375,66.99375 31.40625,66.321875 30.61875,66.43125 C29.759375,66.503125 29.121875,67.259375 29.19375,68.11875 C29.4389683,71.0123263 32.0193881,73.283499 35.4375,73.8179389 Z M35.4375,61.0532134 L35.4375,55.3743849 C33.6373402,55.81511 32.3125,56.9829281 32.3125,58.3125 C32.3125,59.5653291 33.3143152,60.4511775 35.4375,61.0532134 Z M38.5625,64.9462369 L38.5625,70.6256151 C40.3626598,70.18489 41.6875,69.0170719 41.6875,67.6875 C41.6875,66.4330822 40.6852568,65.5465764 38.5625,64.9462369 Z M60.4375,48.8179389 L60.4375,50.5 C60.4375,51.3625 61.1375,52.0625 62,52.0625 C62.8625,52.0625 63.5625,51.3625 63.5625,50.5 L63.5625,48.8112 C67.125327,48.2291974 69.8125,45.7050322 69.8125,42.6875 C69.8125,39.7551686 67.7841492,37.7690525 63.5625,36.7363231 L63.5625,30.3710934 C65.2876297,30.7888809 66.5866757,31.8734592 66.69375,33.14375 C66.7625,34.00625 67.578125,34.646875 68.38125,34.56875 C69.240625,34.496875 69.878125,33.7375 69.80625,32.878125 C69.5610317,29.9872733 66.9806119,27.7164497 63.5625,27.1820546 L63.5625,25.5 C63.5625,24.6375 62.8625,23.9375 62,23.9375 C61.1375,23.9375 60.4375,24.6375 60.4375,25.5 L60.4375,27.1888 C56.874673,27.7708026 54.1875,30.2949678 54.1875,33.3125 C54.1875,36.2457176 56.2183473,38.2313806 60.4375,39.2647173 L60.4375,45.6285492 C58.7123703,45.2100421 57.4133243,44.1241073 57.30625,42.85625 C57.234375,41.99375 56.40625,41.321875 55.61875,41.43125 C54.759375,41.503125 54.121875,42.259375 54.19375,43.11875 C54.4389683,46.0123263 57.0193881,48.283499 60.4375,48.8179389 Z M60.4375,36.0532134 L60.4375,30.3743849 C58.6373402,30.81511 57.3125,31.9829281 57.3125,33.3125 C57.3125,34.5653291 58.3143152,35.4511775 60.4375,36.0532134 Z M63.5625,39.9462369 L63.5625,45.6256151 C65.3626598,45.18489 66.6875,44.0170719 66.6875,42.6875 C66.6875,41.4330822 65.6852568,40.5465764 63.5625,39.9462369 Z" fill="#000000" fill-rule="evenodd"></path>
</svg>