<svg viewBox="0 0 100 100" version="1.1" xmlns="http://www.w3.org/2000/svg" xmlns:xlink="http://www.w3.org/1999/xlink">
    <path d="M81.3181818,22 L17.6818182,22 C14.5490909,22 12,24.5490909 12,27.6818182 L12,73.1363636 C12,76.2681818 14.5490909,78.8181818 17.6818182,78.8181818 L81.3181818,78.8181818 C84.45,78.8181818 87,76.2681818 87,73.1363636 L87,27.6818182 C87,24.5490909 84.45,22 81.3181818,22 L81.3181818,22 L81.3181818,22 Z M84.7272727,73.1363636 C84.7272727,75.0145455 83.1981818,76.5454545 81.3181818,76.5454545 L17.6818182,76.5454545 C15.8018182,76.5454545 14.2727273,75.0145455 14.2727273,73.1363636 L14.2727273,27.6818182 C14.2727273,25.8027273 15.8018182,24.2727273 17.6818182,24.2727273 L81.3181818,24.2727273 C83.1981818,24.2727273 84.7272727,25.8027273 84.7272727,27.6818182 L84.7272727,73.1363636 L84.7272727,73.1363636 Z M38.1363636,62.9090909 C31.2436364,62.9090909 25.6363636,57.3018182 25.6363636,50.4090909 C25.6363636,43.5163636 31.2436364,37.9090909 38.1363636,37.9090909 C38.7636364,37.9090909 39.2727273,37.4 39.2727273,36.7727273 C39.2727273,36.1454545 38.7636364,35.6363636 38.1363636,35.6363636 C29.9909091,35.6363636 23.3636364,42.2636364 23.3636364,50.4090909 C23.3636364,58.5545455 29.9909091,65.1818182 38.1363636,65.1818182 C46.2818182,65.1818182 52.9090909,58.5545455 52.9090909,50.4090909 C52.9090909,49.7818182 52.3990909,49.2727273 51.7727273,49.2727273 C51.1463636,49.2727273 50.6363636,49.7818182 50.6363636,50.4090909 C50.6363636,57.3018182 45.0290909,62.9090909 38.1363636,62.9090909 L38.1363636,62.9090909 L38.1363636,62.9090909 Z M79.6427273,35.8063636 C79.3081818,35.5990909 78.8890909,35.5809091 78.5372727,35.7563636 C78.3254545,35.8618182 73.3636364,38.4545455 73.3636364,48.1363636 C73.3636364,48.7636364 73.8736364,49.2727273 74.5,49.2727273 C75.1263636,49.2727273 75.6363636,48.7636364 75.6363636,48.1363636 C75.6363636,43.5281818 76.8363636,40.8509091 77.9090909,39.3781818 L77.9090909,64.0454545 C77.9090909,64.6718182 78.4190909,65.1818182 79.0454545,65.1818182 C79.6718182,65.1818182 80.1818182,64.6718182 80.1818182,64.0454545 L80.1818182,36.7727273 C80.1818182,36.3781818 79.9772727,36.0127273 79.6427273,35.8063636 L79.6427273,35.8063636 L79.6427273,35.8063636 Z M65.4090909,42.4545455 C66.0354545,42.4545455 66.5454545,41.9454545 66.5454545,41.3181818 L66.5454545,36.7727273 C66.5454545,36.1454545 66.0354545,35.6363636 65.4090909,35.6363636 C64.7827273,35.6363636 64.2727273,36.1454545 64.2727273,36.7727273 L64.2727273,41.3181818 C64.2727273,41.9454545 64.7827273,42.4545455 65.4090909,42.4545455 L65.4090909,42.4545455 L65.4090909,42.4545455 Z M69.9545455,35.6363636 C69.3281818,35.6363636 68.8181818,36.1454545 68.8181818,36.7727273 L68.8181818,41.3181818 C68.8181818,42.2827273 67.17,44.5763636 65.4090909,46.4918182 C63.6490909,44.5781818 62,42.2845455 62,41.3181818 L62,36.7727273 C62,36.1454545 61.49,35.6363636 60.8636364,35.6363636 C60.2372727,35.6363636 59.7272727,36.1454545 59.7272727,36.7727273 L59.7272727,41.3181818 C59.7272727,43.6736364 63.0272727,47.3118182 64.2727273,48.6 L64.2727273,64.0454545 C64.2727273,64.6718182 64.7827273,65.1818182 65.4090909,65.1818182 C66.0354545,65.1818182 66.5454545,64.6718182 66.5454545,64.0454545 L66.5454545,48.6 C67.7909091,47.3118182 71.0909091,43.6736364 71.0909091,41.3181818 L71.0909091,36.7727273 C71.0909091,36.1454545 70.5809091,35.6363636 69.9545455,35.6363636 L69.9545455,35.6363636 L69.9545455,35.6363636 Z M38.1363636,31.0909091 C27.4845455,31.0909091 18.8181818,39.7563636 18.8181818,50.4090909 C18.8181818,61.0618182 27.4845455,69.7272727 38.1363636,69.7272727 C48.7881818,69.7272727 57.4545455,61.0618182 57.4545455,50.4090909 C57.4545455,39.7563636 48.7881818,31.0909091 38.1363636,31.0909091 L38.1363636,31.0909091 L38.1363636,31.0909091 Z M38.1363636,67.4545455 C28.7372727,67.4545455 21.0909091,59.8081818 21.0909091,50.4090909 C21.0909091,41.01 28.7372727,33.3636364 38.1363636,33.3636364 C47.5354545,33.3636364 55.1818182,41.01 55.1818182,50.4090909 C55.1818182,59.8081818 47.5354545,67.4545455 38.1363636,67.4545455 L38.1363636,67.4545455 L38.1363636,67.4545455 Z" fill="#000000" fill-rule="evenodd"></path>
</svg>