<svg viewBox="0 0 100 100" version="1.1" xmlns="http://www.w3.org/2000/svg" xmlns:xlink="http://www.w3.org/1999/xlink">
    <path d="M68.0969764,32.7694373 C66.3749764,31.6674373 65.6129764,31.1834373 64.6579764,30.5914373 C62.7119764,29.3824373 60.9539764,28.3134373 59.2579764,27.3114373 C59.2769764,27.3224373 58.8549764,27.0634373 58.6579764,26.9494373 C58.5699764,26.9004373 58.4859764,26.8524373 58.4029764,26.8084373 C57.8699764,26.5244373 57.4829764,26.3724373 57.0019764,26.3724373 L54.5569764,26.3724373 C56.8519764,24.8814373 58.3749764,22.3084373 58.3709764,19.3854373 C58.3649764,14.6804373 54.6989764,11.0504373 49.9669764,11.0524373 C45.3689764,11.0544373 41.6579764,14.7574373 41.6429764,19.3564373 C41.6339764,22.2684373 43.1759764,24.8684373 45.4769764,26.3724373 L43.2769764,26.3724373 C42.5829764,26.3724373 41.1599764,26.9964373 40.2279764,27.5714373 C37.3249764,29.3634373 34.3799764,31.2174373 30.4509764,33.7174373 C28.8719764,34.7204373 28.0899764,36.3404373 28.6449764,38.1154373 C29.6129764,41.2244373 30.4259764,43.7134373 32.2609764,49.2424373 C32.3109764,49.3924373 32.3109764,49.3954373 32.3599764,49.5424373 C33.0499764,51.6244373 34.8279764,53.0464373 36.8669764,52.1624373 C37.5049764,51.8864373 37.6979764,52.0364373 38.3729764,53.3894373 C38.4149764,53.4744373 38.6359764,53.9234373 38.6999764,54.0524373 C39.1099764,54.8684373 39.4209764,55.3564373 39.8889764,55.7664373 C40.2349764,56.0694373 40.3299764,56.3234373 40.3279764,56.9734373 C40.3199764,59.6544373 40.3149764,62.4494373 40.3129764,65.5024373 C40.3109764,68.9174373 40.3109764,71.6504373 40.3129764,77.7964373 C40.3139764,80.1754373 40.3149764,81.2324373 40.3149764,82.5534373 C40.3139764,82.9514373 40.3139764,83.0314373 40.3139764,83.1324373 C40.3159764,83.6154373 40.3319764,83.9834373 40.3749764,84.3584373 C40.6309764,86.5744373 42.2599764,88.2884373 44.5219764,88.8134373 C46.5589764,89.2814373 48.9439764,88.3284373 49.9209764,86.4844373 C50.5259764,87.2734373 51.3609764,88.0004373 52.4679764,88.4924373 C54.4979764,89.3954373 56.4579764,88.9194373 58.1549764,87.3774373 C59.3589764,86.2814373 59.7699764,84.9194373 59.7699764,83.0764373 L59.7699764,77.5534373 C59.7689764,67.0624373 59.7739764,62.4004373 59.8029764,56.5754373 C59.8039764,56.3914373 59.9489764,56.0394373 60.1119764,55.8604373 C60.3479764,55.5994373 60.5759764,55.2934373 60.8719764,54.8574373 C60.9579764,54.7294373 61.4349764,54.0094373 61.5749764,53.8064373 C62.4959764,52.4584373 63.0079764,52.0704373 63.2789764,52.1824373 C65.2249764,52.9894373 66.9559764,51.6264373 67.6119764,49.6734373 C69.1039764,45.2264373 70.2449764,41.7434373 71.3089764,38.3534373 C71.9259764,36.3854373 71.2519764,34.7804373 69.4889764,33.6584373 C69.1009764,33.4114373 68.7779764,33.2054373 68.0969764,32.7694373 Z M44.6429764,19.3664373 C44.6519764,16.4194373 47.0229764,14.0544373 49.9689764,14.0524373 C53.0499764,14.0504373 55.3669764,16.3454373 55.3709764,19.3894373 C55.3749764,22.3364373 52.9359764,24.7464373 49.9519764,24.7304373 C47.0619764,24.7144373 44.6339764,22.2624373 44.6429764,19.3664373 L44.6429764,19.3664373 Z M40.2399764,48.5484373 C40.1429764,48.5054373 40.0639764,48.4694373 39.9719764,48.4284373 C39.8899764,46.9714373 39.5179764,45.6904373 38.6629764,43.3534373 C38.6619764,43.3514373 38.6619764,43.3514373 38.6609764,43.3494373 C38.2399764,42.1994373 38.0659764,41.6934373 37.8909764,41.0704373 C37.8509764,40.9254373 37.8089764,40.7794373 37.7639764,40.6284373 C37.6649764,40.2914373 37.4139764,39.4954373 37.1999764,38.8194373 C37.7379764,38.4844373 38.3009764,38.1354373 38.9239764,37.7484373 C38.9469764,37.7334373 38.9469764,37.7334373 38.9699764,37.7194373 C39.2109764,37.5704373 39.6979764,37.2674373 40.2399764,36.9304373 L40.2399764,48.5484373 L40.2399764,48.5484373 Z M61.8169764,42.0434373 L61.8109764,42.0634373 C61.1629764,44.0904373 60.8729764,45.0094373 60.5249764,46.1544373 C60.3859764,46.6124373 60.3219764,46.9614373 60.2149764,47.7134373 C60.2109764,47.7414373 60.2109764,47.7414373 60.2069764,47.7684373 C60.1649764,48.0684373 60.1359764,48.2504373 60.1049764,48.4124373 C60.0079764,48.4594373 59.9029764,48.5084373 59.7979764,48.5574373 L59.7979764,36.9204373 C60.4869764,37.3444373 61.0339764,37.6834373 61.5549764,38.0094373 C62.0099764,38.2944373 62.4289764,38.5604373 62.8369764,38.8214373 C62.5769764,39.6604373 62.3159764,40.4824373 61.8169764,42.0434373 L61.8169764,42.0434373 Z M68.4469764,37.4554373 C67.3889764,40.8234373 66.2539764,44.2894373 64.7679764,48.7184373 C64.6689764,49.0144373 64.5029764,49.2674373 64.3539764,49.3854373 C64.3499764,49.3884373 64.3579764,49.3874373 64.3569764,49.3894373 C63.8829764,49.2014373 63.4409764,49.1154373 63.0229764,49.1184373 C63.0789764,48.8504373 63.1179764,48.6084373 63.1769764,48.1914373 C63.1809764,48.1634373 63.1809764,48.1634373 63.1849764,48.1364373 C63.2709764,47.5364373 63.3159764,47.2884373 63.3949764,47.0264373 C63.7379764,45.9004373 64.0249764,44.9904373 64.6689764,42.9764373 C64.6719764,42.9674373 64.6719764,42.9674373 64.6749764,42.9574373 C65.2639764,41.1154373 65.5239764,40.2924373 65.8409764,39.2604373 L65.8419764,39.2574373 C66.1009764,38.4044373 65.8969764,37.2154373 65.0439764,36.6724373 C64.4569764,36.2924373 63.8329764,35.8964373 63.1459764,35.4664373 C62.5609764,35.1004373 61.9569764,34.7254373 61.1499764,34.2294373 C61.1159764,34.2084373 59.5499764,33.2454373 59.0859764,32.9584373 L56.7979764,31.5474373 L56.7979764,53.1644373 L58.9059764,52.2294373 C58.9459764,52.2124373 59.0019764,52.1874373 59.0669764,52.1594373 C58.8879764,52.4224373 58.4579764,53.0724373 58.3879764,53.1744373 C58.1659764,53.5024373 58.0089764,53.7144373 57.8889764,53.8454373 C57.2449764,54.5574373 56.8099764,55.6104373 56.8029764,56.5574373 C56.7739764,62.3924373 56.7689764,67.0574373 56.7699764,77.5534373 L56.7699764,83.0764373 C56.7699764,84.1574373 56.5939764,84.7414373 56.1369764,85.1574373 C55.2619764,85.9524373 54.5369764,86.1294373 53.6869764,85.7514373 C52.6769764,85.3024373 52.2299764,84.6314373 52.2289764,83.5514373 C52.2279764,81.1314373 52.2289764,79.1944373 52.2319764,74.8344373 C52.2339764,72.6544373 52.2339764,71.6844373 52.2349764,70.4734373 C52.2349764,68.5614373 52.2359764,67.4454373 52.2349764,66.1474373 L52.2349764,65.0164373 L52.2349764,61.8214373 L52.2349764,58.9944373 L47.8469764,58.9944373 L47.8469764,61.8824373 C47.8469764,63.4994373 47.8479764,64.8384373 47.8489764,67.0814373 C47.8519764,70.1244373 47.8519764,71.0264373 47.8509764,72.4544373 C47.8499764,76.0224373 47.8399764,79.1484373 47.8159764,83.0184373 C47.8129764,83.6724373 47.6069764,84.4444373 47.2709764,85.0784373 C46.9589764,85.6674373 45.9609764,86.0664373 45.1969764,85.8904373 C44.1389764,85.6444373 43.4609764,84.9324373 43.3549764,84.0144373 C43.3269764,83.7714373 43.3159764,83.5024373 43.3139764,83.1204373 C43.3139764,83.0294373 43.3139764,82.9564373 43.3149764,82.7864373 L43.3149764,82.5534373 C43.3149764,81.2314373 43.3139764,80.1744373 43.3129764,77.7954373 C43.3109764,71.6504373 43.3109764,68.9184373 43.3129764,65.5044373 C43.3149764,62.4544373 43.3199764,59.6614373 43.3279764,56.9824373 C43.3329764,55.5264373 42.9269764,54.4404373 41.8659764,53.5094373 C41.7809764,53.4354373 41.6219764,53.1864373 41.3809764,52.7064373 C41.3409764,52.6264373 41.2219764,52.3844373 41.1379764,52.2134373 L41.1389764,52.2144373 L43.2399764,53.1314373 L43.2399764,31.5344373 L40.9479764,32.9584373 C40.4069764,33.2944373 38.0259764,34.7744373 37.3869764,35.1714373 C37.3639764,35.1854373 37.3639764,35.1854373 37.3409764,35.2004373 C36.3259764,35.8304373 35.4639764,36.3654373 34.6239764,36.8864373 L33.6359764,37.5004373 L33.9839764,38.6104373 C33.9559764,38.5204373 34.7059764,40.8634373 34.8869764,41.4754373 C34.9269764,41.6144373 34.9659764,41.7484373 35.0029764,41.8794373 C35.2049764,42.6024373 35.3959764,43.1574373 35.8439764,44.3814373 C35.8449764,44.3834373 35.8449764,44.3834373 35.8459764,44.3844373 C36.6969764,46.7104373 36.9819764,47.7664373 36.9899764,49.0424373 C36.5809764,49.0994373 36.1519764,49.2034373 35.6749764,49.4094373 C35.6519764,49.4204373 35.4179764,49.2334373 35.2089764,48.6014373 L35.2099764,48.6044373 C35.1579764,48.4494373 35.1579764,48.4494373 35.1079764,48.2974373 C33.2789764,42.7864373 32.4699764,40.3084373 31.5089764,37.2214373 C31.3989764,36.8704373 31.5389764,36.5804373 32.0599764,36.2494373 C35.9789764,33.7554373 38.9139764,31.9084373 41.8039764,30.1254373 C42.0589764,29.9674373 42.4759764,29.7544373 42.8669764,29.5824373 C43.0569764,29.4994373 43.2269764,29.4324373 43.3539764,29.3884373 C43.3909764,29.3764373 43.4069764,29.3724373 43.2769764,29.3724373 L56.8179764,29.3724373 C56.8669764,29.3934373 56.9169764,29.4164373 56.9909764,29.4554373 C57.0439764,29.4844373 57.1019764,29.5154373 57.1629764,29.5514373 C57.3109764,29.6364373 57.7229764,29.8894373 57.7399764,29.8994373 C59.4079764,30.8844373 61.1469764,31.9424373 63.0769764,33.1404373 C64.0159764,33.7234373 64.7699764,34.2014373 66.4439764,35.2724373 L66.4799764,35.2964373 C67.1619764,35.7334373 67.4869764,35.9404373 67.8789764,36.1894373 C68.5429764,36.6124373 68.6389764,36.8414373 68.4469764,37.4554373 L68.4469764,37.4554373 Z" fill-rule="evenodd" fill="#000000"></path>
</svg>