<svg viewBox="0 0 100 100" version="1.1" xmlns="http://www.w3.org/2000/svg" xmlns:xlink="http://www.w3.org/1999/xlink">
    <path d="M86.1141823,74.1200876 L65.6673283,74.1200876 C65.3411608,74.1200876 65.032836,73.9712781 64.8294274,73.7157683 C64.6263755,73.4606153 64.5507217,73.1265969 64.6242344,72.808637 L66.8014209,63.3743999 C66.9894847,62.5600515 67.7046268,61.9912209 68.5400298,61.9912209 L83.2414809,61.9912209 C84.0779545,61.9912209 84.7930965,62.5604084 84.9804466,63.3751137 L87.1572763,72.808637 C87.2307889,73.1265969 87.1551351,73.4606153 86.9520833,73.7157683 C86.7486746,73.9712781 86.4403499,74.1200876 86.1141823,74.1200876 L86.1141823,74.1200876 L86.1141823,74.1200876 Z M67.0130373,71.9789437 L84.7681165,71.9789437 L82.9577793,64.1327218 L68.8237314,64.1327218 L67.0130373,71.9789437 L67.0130373,71.9789437 Z M60.7230702,74.1200876 L40.2762161,74.1200876 C39.9500485,74.1200876 39.6417239,73.9712781 39.4383151,73.7157683 C39.2352633,73.4606153 39.1596096,73.1265969 39.2331222,72.808637 L41.4106655,63.3743999 C41.5976588,62.5604084 42.3128009,61.9912209 43.1489176,61.9912209 L57.8507255,61.9912209 C58.6868423,61.9912209 59.4019843,62.5604084 59.5893345,63.3751137 L61.766164,72.808637 C61.8396767,73.1265969 61.764023,73.4606153 61.5609711,73.7157683 C61.3579193,73.9712781 61.0492377,74.1200876 60.7230702,74.1200876 L60.7230702,74.1200876 L60.7230702,74.1200876 Z M41.622282,71.9789437 L59.3773611,71.9789437 L57.5670239,64.1327218 L43.4329761,64.1327218 L41.622282,71.9789437 L41.622282,71.9789437 Z M35.3326717,74.1200876 L14.8858177,74.1200876 C14.5596501,74.1200876 14.2513254,73.9712781 14.0479167,73.7157683 C13.8448649,73.4606153 13.7692111,73.1265969 13.8427237,72.808637 L16.0199102,63.3743999 C16.2069035,62.5604084 16.9220456,61.9912209 17.7581623,61.9912209 L32.4599702,61.9912209 C33.2960869,61.9912209 34.011229,62.5604084 34.1985791,63.3751137 L36.3757656,72.808637 C36.4492783,73.1265969 36.3736245,73.4606153 36.1705726,73.7157683 C35.967164,73.9712781 35.6588392,74.1200876 35.3326717,74.1200876 L35.3326717,74.1200876 L35.3326717,74.1200876 Z M16.2315266,71.9789437 L33.9866058,71.9789437 L32.1759118,64.1327218 L18.0422207,64.1327218 L16.2315266,71.9789437 L16.2315266,71.9789437 Z M73.4471748,56.5205982 L53.0003208,56.5205982 C52.6741532,56.5205982 52.3658285,56.3717887 52.1624198,56.1162789 C51.959368,55.8611259 51.8837143,55.5271074 51.9572268,55.2091476 L54.1344134,45.7749105 C54.322834,44.9605621 55.0376193,44.3920884 55.8730223,44.3920884 L70.5744733,44.3920884 C71.4098763,44.3920884 72.1246615,44.9605621 72.3130823,45.7741968 L74.4902688,55.2087907 C74.5637814,55.5267506 74.4881277,55.860769 74.2850758,56.115922 C74.0816671,56.3717887 73.7733424,56.5205982 73.4471748,56.5205982 L73.4471748,56.5205982 L73.4471748,56.5205982 Z M54.3460298,54.3794543 L72.101109,54.3794543 L70.2907718,46.5335892 L56.156367,46.5335892 L54.3460298,54.3794543 L54.3460298,54.3794543 Z M47.9996792,56.5205982 L27.5528252,56.5205982 C27.2266576,56.5205982 26.9183329,56.3717887 26.7149242,56.1162789 C26.5118723,55.8611259 26.4362186,55.5271074 26.5097313,55.2091476 L28.6869177,45.7749105 C28.8753385,44.9605621 29.5901237,44.3920884 30.4255267,44.3920884 L45.1269777,44.3920884 C45.9623807,44.3920884 46.6775228,44.9605621 46.8655866,45.7741968 L49.0427732,55.2087907 C49.1162857,55.5267506 49.040632,55.860769 48.8375802,56.115922 C48.6341715,56.3717887 48.3258468,56.5205982 47.9996792,56.5205982 L47.9996792,56.5205982 L47.9996792,56.5205982 Z M28.898891,54.3794543 L46.6539702,54.3794543 L44.843633,46.5335892 L30.7092282,46.5335892 L28.898891,54.3794543 L28.898891,54.3794543 Z M60.7302073,38.9218226 L60.7230702,38.9218226 L40.2762161,38.9218226 C39.9500485,38.9218226 39.6417239,38.773013 39.4383151,38.5175032 C39.2352633,38.2623502 39.1596096,37.9283317 39.2331222,37.6103718 L41.4106655,28.175778 C41.5980157,27.3617864 42.3128009,26.7929558 43.1489176,26.7929558 L57.8507255,26.7929558 C58.6868423,26.7929558 59.4016275,27.3617864 59.5893345,28.1761349 L61.7383292,37.4908247 C61.7786541,37.6032347 61.8004224,37.7245662 61.8004224,37.8512505 C61.8007792,38.4425631 61.3215199,38.9218226 60.7302073,38.9218226 L60.7302073,38.9218226 L60.7302073,38.9218226 Z M41.622282,36.7806786 L59.3773611,36.7806786 L57.5670239,28.9344566 L43.4329761,28.9344566 L41.622282,36.7806786 L41.622282,36.7806786 Z" fill="#000000" fill-rule="evenodd"></path>
</svg>