<svg viewBox="0 0 100 100" version="1.1" xmlns="http://www.w3.org/2000/svg" xmlns:xlink="http://www.w3.org/1999/xlink">
    <path d="M48.5006505,81.4440833 C48.4929442,81.4440833 48.4856048,81.4437162 48.4782653,81.4437162 L13.1008792,81.4437162 C12.7878537,81.4437162 12.489507,81.3105062 12.2810679,81.0774801 C12.072262,80.8440871 11.9724461,80.5332634 12.0065743,80.2220727 L18.050572,25.4048122 C18.111856,24.8466507 18.5834126,24.424635 19.1448768,24.424635 L27.4956486,24.424635 L27.4956486,20.6958517 C27.4956486,16.2056055 31.148836,12.5524181 35.6387152,12.5524181 C36.3752242,12.5524181 37.0893481,12.6507661 37.7682427,12.8349851 C38.4475044,12.6507661 39.1612613,12.5524181 39.8981373,12.5524181 C44.3883835,12.5524181 48.0412039,16.2056055 48.0412039,20.6958517 L48.0412039,24.424635 L56.9273851,24.424635 C57.4991245,24.424635 57.9754518,24.8616964 58.0242587,25.431234 L59.4003967,41.4729652 L62.0337741,41.4729652 L62.0337741,39.2461907 C62.0337741,35.96401 64.7042156,33.2932016 67.9867632,33.2932016 C68.7680426,33.2932016 69.5148267,33.4443932 70.198859,33.7192538 C70.8828913,33.4443932 71.6296754,33.2932016 72.4109548,33.2932016 C75.6935024,33.2932016 78.3639439,35.9636431 78.3639439,39.2461907 L78.3639439,41.4729652 L82.6549253,41.4729652 C83.2266647,41.4729652 83.702992,41.9100267 83.751799,42.4795642 L86.992145,80.2484947 C87.0185669,80.5560156 86.9147143,80.8598668 86.7062753,81.0870213 C86.4978363,81.3141758 86.2035262,81.4437162 85.8952714,81.4437162 L61.6330428,81.4437162 L61.6264373,81.4437162 L48.5230357,81.4437162 C48.5156963,81.4437162 48.5083569,81.4440833 48.5006505,81.4440833 L48.5006505,81.4440833 L48.5006505,81.4440833 Z M78.0362396,79.2418957 L84.6963801,79.2418957 L81.6450236,43.6747859 L80.7026443,43.6747859 L78.0362396,79.2418957 L78.0362396,79.2418957 Z M62.6411097,79.2418957 L75.8281804,79.2418957 L78.4945852,43.6747859 L73.9408532,43.6747859 L73.9408532,45.4369763 C73.9408532,46.0450458 73.4480123,46.5378867 72.8399428,46.5378867 C72.2318734,46.5378867 71.7390326,46.0450458 71.7390326,45.4369763 L71.7390326,43.6747859 L64.2363287,43.6747859 L64.2363287,45.4369763 C64.2363287,46.0450458 63.7434878,46.5378867 63.1354184,46.5378867 C62.5273489,46.5378867 62.0345081,46.0450458 62.0345081,45.4369763 L62.0345081,43.6747859 L59.5901202,43.6747859 L62.6411097,79.2418957 L62.6411097,79.2418957 Z M50.2962353,79.2418957 L58.7526944,79.2418957 L52.9428237,74.0349567 L50.2962353,79.2418957 L50.2962353,79.2418957 Z M37.4343,79.2418957 L47.4801067,79.2418957 L50.1677957,43.3878152 C50.1685297,43.3771732 50.1692636,43.3657971 50.1703645,43.3551549 L51.4243013,26.6264557 L43.7821489,26.6264557 L43.7821489,29.6807478 C43.7821489,30.2888173 43.289308,30.7816582 42.6812386,30.7816582 C42.0731691,30.7816582 41.5803282,30.2888173 41.5803282,29.6807478 L41.5803282,26.6264557 L29.6974692,26.6264557 L29.6974692,29.6807478 C29.6974692,30.2888173 29.2046283,30.7816582 28.5965589,30.7816582 C27.9884894,30.7816582 27.4956486,30.2888173 27.4956486,29.6807478 L27.4956486,26.6264557 L20.1312925,26.6264557 L14.3298621,79.2418957 L16.0847131,79.2418957 L18.6953384,59.4790875 C18.7676316,58.9315681 19.2344175,58.5223964 19.7867075,58.5223964 L23.157328,58.5223964 L23.157328,55.6490205 C23.157328,53.5741715 24.8453905,51.886109 26.9198725,51.886109 C28.9943545,51.886109 30.682417,53.5741715 30.682417,55.6490205 L30.682417,58.5223964 L33.0981812,58.5223964 C33.6372602,58.5223964 34.0970738,58.9128526 34.1844127,59.4449592 L37.4343,79.2418957 L37.4343,79.2418957 Z M31.099662,79.2418957 L35.2027548,79.2418957 L32.3858923,62.0823734 L31.099662,79.2418957 L31.099662,79.2418957 Z M18.3059832,79.2418957 L28.8916028,79.2418957 L30.2798507,60.7242171 L20.7518389,60.7242171 L18.3059832,79.2418957 L18.3059832,79.2418957 Z M53.6888739,71.7468982 L60.2961707,77.6686947 L55.9171164,26.6268226 L53.6319935,26.6268226 L52.3692494,43.4711175 L53.6888739,71.7468982 L53.6888739,71.7468982 Z M51.011093,61.5939363 L50.0099986,74.9457766 L51.4973284,72.019557 L51.011093,61.5939363 L51.011093,61.5939363 Z M25.3591486,58.5223964 L28.4809633,58.5223964 L28.4809633,55.6490205 C28.4809633,54.7881086 27.7807843,54.0879297 26.9202394,54.0879297 C26.0596946,54.0879297 25.3595156,54.7881086 25.3595156,55.6490205 L25.3595156,58.5223964 L25.3591486,58.5223964 L25.3591486,58.5223964 Z M73.9404863,41.4733322 L76.1624903,41.4733322 L76.1624903,39.2465576 C76.1624903,37.2451027 74.5870876,35.6047462 72.6109535,35.5008937 C73.4421408,36.5243733 73.9404863,37.8285852 73.9404863,39.2465576 L73.9404863,41.4733322 L73.9404863,41.4733322 Z M68.6601533,41.4733322 L71.7386656,41.4733322 L71.7386656,39.2465576 C71.7386656,38.0047307 71.132064,36.9016187 70.199226,36.2186872 C69.2667549,36.9016187 68.6601533,38.0047307 68.6601533,39.2465576 L68.6601533,41.4733322 L68.6601533,41.4733322 Z M64.2359618,41.4733322 L66.4583327,41.4733322 L66.4583327,39.2465576 C66.4583327,37.8285852 66.9566781,36.5243733 67.7878654,35.5008937 C65.8117314,35.6047462 64.2359618,37.2451027 64.2359618,39.2465576 L64.2359618,41.4733322 L64.2359618,41.4733322 Z M43.7821489,24.425002 L45.8397502,24.425002 L45.8397502,20.6958517 C45.8397502,17.9384383 43.9516891,15.6136827 41.4005129,14.9465311 C42.8713291,16.42065 43.7821489,18.4540313 43.7821489,20.6958517 L43.7821489,24.425002 L43.7821489,24.425002 Z M33.9568912,24.425002 L41.5803282,24.425002 L41.5803282,20.6958517 C41.5803282,18.1696295 39.9957513,16.0070747 37.7686097,15.1487316 C35.5414682,16.0070747 33.9568912,18.1696295 33.9568912,20.6958517 L33.9568912,24.425002 L33.9568912,24.425002 Z M29.6974693,24.425002 L31.7550706,24.425002 L31.7550706,20.6958517 C31.7550706,18.4540313 32.6658904,16.42065 34.1367066,14.9465311 C31.5855304,15.6136827 29.6974693,17.9384383 29.6974693,20.6958517 L29.6974693,24.425002 L29.6974693,24.425002 Z" fill="#000000" fill-rule="evenodd"></path>
</svg>