<svg viewBox="0 0 100 100" version="1.1" xmlns="http://www.w3.org/2000/svg" xmlns:xlink="http://www.w3.org/1999/xlink">
    <path d="M83.309,73.467 C82.318,72.274 81.331,71.359 80.491,70.702 C81.127,69.646 81.492,68.429 81.492,67.127 C81.492,63.021 77.884,59.757 73.505,59.757 C69.125,59.757 65.517,63.021 65.517,67.127 C65.517,68.429 65.883,69.646 66.518,70.702 C65.678,71.359 64.691,72.274 63.701,73.467 C61.369,76.276 59.957,79.582 59.957,83.345 C59.957,84.174 60.628,84.845 61.456,84.845 L85.553,84.845 C86.381,84.845 87.053,84.174 87.053,83.345 C87.053,79.582 85.64,76.276 83.309,73.467 L83.309,73.467 Z M73.505,62.757 C76.291,62.757 78.492,64.749 78.492,67.127 C78.492,69.505 76.291,71.497 73.505,71.497 C70.719,71.497 68.517,69.505 68.517,67.127 C68.517,64.749 70.719,62.757 73.505,62.757 L73.505,62.757 Z M73.505,81.845 L63.066,81.845 C63.379,79.457 64.42,77.298 66.009,75.383 C66.689,74.565 67.419,73.851 68.146,73.251 C68.304,73.12 68.442,73.012 68.568,72.915 C69.932,73.905 71.647,74.497 73.505,74.497 C75.362,74.497 77.077,73.905 78.441,72.915 C78.567,73.012 78.705,73.12 78.863,73.251 C79.591,73.851 80.321,74.565 81,75.383 C82.59,77.298 83.63,79.457 83.943,81.845 L73.505,81.845 L73.505,81.845 Z" fill="#000000" fill-rule="evenodd"></path>
    <path d="M38.376,41.051 L62.472,41.051 C63.3,41.051 63.972,40.38 63.972,39.551 C63.972,35.788 62.56,32.482 60.228,29.673 C59.237,28.48 58.251,27.565 57.41,26.908 C58.046,25.852 58.411,24.635 58.411,23.333 C58.411,19.228 54.804,15.963 50.424,15.963 C46.044,15.963 42.437,19.228 42.437,23.333 C42.437,24.635 42.802,25.852 43.437,26.908 C42.597,27.565 41.611,28.48 40.62,29.673 C38.288,32.482 36.876,35.788 36.876,39.551 C36.876,40.38 37.547,41.051 38.376,41.051 L38.376,41.051 Z M50.424,18.963 C53.21,18.963 55.411,20.955 55.411,23.333 C55.411,25.711 53.21,27.702 50.424,27.702 C47.638,27.702 45.437,25.711 45.437,23.333 C45.437,20.955 47.638,18.963 50.424,18.963 L50.424,18.963 Z M42.928,31.589 C43.608,30.771 44.338,30.057 45.065,29.456 C45.223,29.326 45.361,29.218 45.488,29.121 C46.851,30.111 48.566,30.702 50.424,30.702 C52.282,30.702 53.997,30.111 55.36,29.121 C55.487,29.218 55.625,29.326 55.783,29.456 C56.51,30.057 57.24,30.771 57.92,31.589 C59.509,33.504 60.55,35.663 60.863,38.051 L39.985,38.051 C40.298,35.663 41.339,33.504 42.928,31.589 L42.928,31.589 Z" fill="#000000" fill-rule="evenodd"></path>
    <path d="M33.866,70.702 C34.502,69.646 34.867,68.429 34.867,67.127 C34.867,63.021 31.26,59.757 26.88,59.757 C22.5,59.757 18.892,63.021 18.892,67.127 C18.892,68.429 19.258,69.646 19.893,70.702 C19.053,71.359 18.067,72.274 17.076,73.467 C14.744,76.276 13.332,79.582 13.332,83.345 C13.332,84.174 14.003,84.845 14.832,84.845 L38.928,84.845 C39.756,84.845 40.428,84.174 40.428,83.345 C40.428,79.582 39.015,76.276 36.684,73.467 C35.693,72.274 34.707,71.359 33.866,70.702 L33.866,70.702 Z M26.88,62.757 C29.666,62.757 31.867,64.749 31.867,67.127 C31.867,69.505 29.666,71.497 26.88,71.497 C24.094,71.497 21.892,69.505 21.892,67.127 C21.892,64.749 24.094,62.757 26.88,62.757 L26.88,62.757 Z M26.88,81.845 L16.441,81.845 C16.754,79.457 17.795,77.298 19.384,75.383 C20.064,74.565 20.794,73.851 21.521,73.251 C21.679,73.12 21.817,73.012 21.943,72.915 C23.307,73.905 25.022,74.497 26.88,74.497 C28.738,74.497 30.453,73.905 31.816,72.915 C31.943,73.012 32.08,73.12 32.238,73.251 C32.966,73.851 33.696,74.565 34.376,75.383 C35.965,77.298 37.006,79.457 37.319,81.845 L26.88,81.845 L26.88,81.845 Z" fill="#000000" fill-rule="evenodd"></path>
    <path d="M72.159,55.233 C72.159,56.062 72.831,56.733 73.659,56.733 C74.488,56.733 75.159,56.062 75.159,55.233 L75.159,49.827 C75.159,48.999 74.488,48.327 73.659,48.327 L51.924,48.327 L51.924,44.576 C51.924,43.747 51.252,43.076 50.424,43.076 C49.596,43.076 48.924,43.747 48.924,44.576 L48.924,48.327 L26.857,48.327 C26.029,48.327 25.357,48.999 25.357,49.827 L25.357,55.233 C25.357,56.062 26.029,56.733 26.857,56.733 C27.685,56.733 28.357,56.062 28.357,55.233 L28.357,51.327 L72.159,51.327 L72.159,55.233" fill="#000000" fill-rule="evenodd"></path>
</svg>