<svg viewBox="0 0 100 100" version="1.1" xmlns="http://www.w3.org/2000/svg" xmlns:xlink="http://www.w3.org/1999/xlink">
    <path d="M31.1680703,15.0555442 L31.672,14.626 C31.842,14.531 32.022,14.468 32.214,14.438 L32.385,14.412 L35.815,13.89 C36.231,13.835 36.945,13.749 37.868,13.649 C39.331,13.49 40.947,13.337 42.678,13.2 C47.549,12.815 52.442,12.625 56.919,12.724 C62.166,12.315 66.528,12.465 69.906,13.183 C75.067,14.28 78.699,16.534 80.592,19.931 C81.711,21.939 82.064,24.059 81.893,26.116 C85.324,29.556 86.131,33.841 84.918,37.747 C86.336,39.789 87.028,41.981 86.938,44.259 C86.856,46.327 86.148,48.192 85.058,49.816 C86.282,53.478 85.66,57.38 82.455,60.31 C79.637,62.885 75.209,63.865 69.744,63.739 C67.819,63.694 65.872,63.511 63.973,63.23 C62.71,63.043 61.647,62.842 60.921,62.678 C60.651,62.629 60.371,62.564 60.098,62.511 C60.301,64.055 60.851,66.347 61.91,69.56 C64.241,76.63 64.1,82.201 61.318,86.047 C58.95,89.319 55.498,90.5 52.209,90.5 C50.611,90.5 49.185,89.846 48.149,88.636 C46.459,86.664 46.133,83.675 46.472,80.433 C42.981,71.116 37.875,61.12 34.191,58.293 C34.049,58.184 33.916,58.064 33.788,57.931 C32.8698955,56.9664982 32.0862119,55.9125472 31.4234001,54.7913815 C30.7247785,55.2397784 29.8952478,55.5 29.0074602,55.5 L16.9925398,55.5 C14.5135595,55.5 12.5,53.4781887 12.5,51.0023401 L12.5,18.9976599 C12.5,16.5177546 14.5204082,14.5 16.9925398,14.5 L29.0074602,14.5 C29.7903348,14.5 30.5267916,14.701641 31.1680703,15.0555442 L31.1680703,15.0555442 Z M81.988,50.159 C83.149,52.978 82.827,55.904 80.431,58.095 C78.325,60.019 74.575,60.849 69.813,60.739 C68.022,60.698 66.195,60.526 64.411,60.262 C63.226,60.087 62.234,59.899 61.512,59.737 C60.599,59.573 59.737,59.398 58.862,59.2 L57.224,58.829 L57.04,60.499 C56.844,62.273 57.389,65.427 59.061,70.499 C61.12,76.746 61.003,81.363 58.887,84.289 C57.198,86.623 54.633,87.5 52.209,87.5 C51.486,87.5 50.892,87.228 50.427,86.685 C49.407,85.494 49.176,82.991 49.487,80.403 L49.53,80.042 L49.403,79.702 C45.693,69.709 40.379,59.26 36.016,55.912 C35.996,55.896 35.977,55.879 35.957,55.858 C34.957,54.808 34.149,53.611 33.5,52.32 L33.5,17.277 L36.236,16.86 C36.6,16.812 37.291,16.729 38.192,16.631 C39.627,16.476 41.213,16.325 42.914,16.191 C47.694,15.813 52.491,15.627 57.005,15.719 L57.152,15.715 C62.134,15.327 66.222,15.467 69.282,16.118 C73.664,17.049 76.55,18.839 77.972,21.391 C78.876,23.014 79.088,24.768 78.837,26.462 L78.718,27.258 L79.317,27.797 C82.492,30.655 83.088,34.232 81.845,37.457 L81.538,38.253 L82.066,38.924 C83.397,40.615 84.011,42.351 83.94,44.14 C83.874,45.809 83.204,47.349 82.186,48.674 L81.659,49.359 L81.988,50.159 Z M15.5,18.9976599 C15.5,18.1754921 16.1763804,17.5 16.9925398,17.5 L29.0074602,17.5 C29.8268335,17.5 30.5,18.1759252 30.5,18.9976599 L30.5,51.0023401 C30.5,51.8245079 29.8236196,52.5 29.0074602,52.5 L16.9925398,52.5 C16.1731665,52.5 15.5,51.8240748 15.5,51.0023401 L15.5,18.9976599 Z" fill="#000000" fill-rule="evenodd"></path>
</svg>