<?xml version="1.0" encoding="utf-8"?>
<!-- Generator: Adobe Illustrator 16.0.0, SVG Export Plug-In . SVG Version: 6.00 Build 0)  -->
<!DOCTYPE svg PUBLIC "-//W3C//DTD SVG 1.1//EN" "http://www.w3.org/Graphics/SVG/1.1/DTD/svg11.dtd">
<svg version="1.1" id="Layer_1" xmlns="http://www.w3.org/2000/svg" xmlns:xlink="http://www.w3.org/1999/xlink" x="0px" y="0px"
	 width="198.421px" height="198.421px" viewBox="206.79 296.79 198.421 198.421"
	 enable-background="new 206.79 296.79 198.421 198.421" xml:space="preserve">
<path fill="none" stroke="#FFFFFF" stroke-width="1.7647" stroke-miterlimit="10" d="M306,297.672
	c-54.264,0-98.328,44.064-98.328,98.328c0,54.264,44.064,98.328,98.328,98.328c54.264,0,98.328-44.064,98.328-98.328
	C404.328,341.736,360.264,297.672,306,297.672z M359.448,384.576c1.632-2.04,2.855-10.2,2.855-10.2s1.225,8.16,3.265,10.2
	s10.199,3.264,10.199,3.264s-8.159,1.224-10.199,3.264s-3.265,10.2-3.265,10.2s-1.224-8.16-3.264-10.2s-10.2-3.264-10.2-3.264
	S357.816,386.616,359.448,384.576z M325.584,366.216c0.816-1.224,1.632-5.712,1.632-5.712s0.816,4.896,2.04,5.712
	c1.225,1.224,6.12,2.04,6.12,2.04s-4.896,0.816-6.12,2.04c-1.224,1.224-2.04,5.712-2.04,5.712s-0.815-4.896-2.04-5.712
	c-1.224-1.224-6.12-2.04-6.12-2.04S324.36,367.44,325.584,366.216z M308.856,471.48c-41.616,0-75.48-33.864-75.48-75.48
	s33.864-75.48,75.48-75.48c3.672,0,6.936,0.408,10.199,0.816c-15.504,10.608-25.704,28.56-25.704,48.96
	c0,33.048,26.52,59.568,59.568,59.568c9.384,0,17.952-2.04,26.112-6.12C368.016,451.896,340.68,471.48,308.856,471.48z"/>
</svg>
