<svg viewBox="0 0 73 91" version="1.1" xmlns="http://www.w3.org/2000/svg" xmlns:xlink="http://www.w3.org/1999/xlink"><path d="M4.5,85.4013441 L4.5,5.59865586 C5.39670243,5.07993868 6,4.11042319 6,3 C6,1.34314575 4.65685425,0 3,0 C1.34314575,0 0,1.34314575 0,3 C0,4.11042319 0.60329757,5.07993868 1.49999916,5.59865293 L1.5,85.4013441 C0.60329757,85.9200613 0,86.8895768 0,88 C0,89.6568542 1.34314575,91 3,91 C4.65685425,91 6,89.6568542 6,88 C6,86.8895768 5.39670243,85.9200613 4.50000084,85.4013471 Z" id="pole" fill="#D8D8D8"></path><path d="M63.071575,27.5 L72.2393802,32.9924931 L0,48 L1.42108547e-14,7 L71.7272013,22.1343641 L63.071575,27.5 Z" id="flag" opacity="0.9" fill="#69B3A5"></path><path d="M0,7 L0,48 L6.261,46.7 L6.261,8.321 L0,7 L0,7 Z" id="border" fill="#40484B"></path><text fill="#FFFFFF" font-family="Source Sans Pro" font-size="12.7286934" font-weight="bold"><tspan x="10" y="32" fill="#FFFFFF">Cal</tspan></text></svg>