<svg viewBox="0 0 99 101" version="1.1" xmlns="http://www.w3.org/2000/svg" xmlns:xlink="http://www.w3.org/1999/xlink">
    <title>createfreecontent</title>
    <g fill="none" fill-rule="evenodd">
        <g id="createfreecontent" fill="#FFFFFF">
            <rect x="8.669" y="16.455" width="5.381" height="64.568"></rect>
            <rect x="16.145" y="8.981" width="64.568" height="5.381"></rect>
            <rect x="84.6" y="18.248" width="5.383" height="25.708"></rect>
            <rect x="16.442" y="85.509" width="25.708" height="5.38"></rect>
            <path d="M19.131,20.041 L0,20.041 L0,0.91 L19.131,0.91 L19.131,20.041 L19.131,20.041 Z M3.587,16.454 L15.545,16.454 L15.545,4.497 L3.587,4.497 L3.587,16.454 L3.587,16.454 Z"></path>
            <path d="M19.131,97.765 L0,97.765 L0,78.635 L19.131,78.635 L19.131,97.765 L19.131,97.765 Z M3.587,94.179 L15.545,94.179 L15.545,82.222 L3.587,82.222 L3.587,94.179 L3.587,94.179 Z"></path>
            <path d="M98.051,19.443 L78.92,19.443 L78.92,0.311 L98.051,0.311 L98.051,19.443 L98.051,19.443 Z M82.508,15.855 L94.465,15.855 L94.465,3.899 L82.508,3.899 L82.508,15.855 L82.508,15.855 Z"></path>
            <path d="M64.551,53.134 L64.551,47.419 C64.551,45.521 66.096,43.978 67.994,43.978 C69.89,43.978 71.433,45.521 71.433,47.419 L71.433,53.134 L76.199,53.134 L76.199,47.419 C76.199,42.895 72.517,39.212 67.994,39.212 C63.467,39.212 59.785,42.895 59.785,47.419 L59.785,53.134 L64.551,53.134 L64.551,53.134 Z"></path>
            <path d="M76.219,53.134 C76.28,51.288 77.789,49.801 79.651,49.801 C81.513,49.801 83.024,51.288 83.083,53.134 L87.847,53.134 C87.788,48.661 84.138,45.037 79.652,45.037 C75.166,45.037 71.515,48.661 71.457,53.134 L76.219,53.134 L76.219,53.134 Z"></path>
            <path d="M87.262,58.035 C87.602,56.112 89.334,54.781 91.194,55.052 C93.051,55.324 94.331,57.097 94.106,59.034 L98.862,59.729 C99.485,55.046 96.397,50.728 91.919,50.074 C87.444,49.419 83.858,52.166 83.118,56.833 L87.262,58.035 L87.262,58.035 Z"></path>
            <path d="M56.346,18.563 C51.819,18.563 48.138,22.206 48.138,26.679 L48.138,64.379 C48.138,65.468 48.372,66.99 48.767,67.936 L52.903,71.114 L52.905,64.38 L52.905,51.291 L52.905,26.679 C52.905,24.803 54.448,23.277 56.346,23.277 C58.242,23.277 59.785,24.803 59.785,26.679 L59.785,51.291 L64.551,51.291 L64.551,26.679 C64.551,22.206 60.869,18.563 56.346,18.563 L56.346,18.563 Z"></path>
            <path d="M34.485,60.912 C35.158,60.13 36.147,59.683 37.197,59.683 C38.036,59.683 38.822,59.959 39.467,60.489 L49.727,68.862 L49.727,62.645 L42.613,56.834 C41.097,55.597 39.174,54.917 37.197,54.917 C34.697,54.917 32.34,55.984 30.734,57.852 C27.748,61.316 28.215,66.503 31.777,69.411 L57.619,90.508 L57.619,84.29 L34.924,65.761 C33.429,64.541 33.232,62.365 34.485,60.912 L34.485,60.912 Z"></path>
            <path d="M88.379,100.103 L52.904,100.103 L52.904,85.807 L57.67,85.807 L57.67,95.338 L83.613,95.338 L83.613,86.691 L94.584,57.836 L98.861,59.729 L88.379,87.567 L88.379,100.103 Z"></path>
        </g>
    </g>
</svg>