<svg viewBox="0 0 38 48" version="1.1" xmlns="http://www.w3.org/2000/svg" xmlns:xlink="http://www.w3.org/1999/xlink">
    <title>Shape</title>
    <g fill="none" fill-rule="evenodd">
        <path d="M34.2,10.4 C36,10.4 37.3,9.099 37.3,7.4 C37.3,6.299 36.8,5.4 36,4.9 C31.101,1.8 25.3,0 19,0 C13,0 6.9,1.8 2.5,4.6 C1.4,5.1 0.7,6.1 0.7,7.401 C0.7,9.1 2,10.401 3.8,10.401 L17.2,46.8 C17.4,47.401 18.1,48 19,48 C19.9,48 20.601,47.4 20.8,46.8 L34.2,10.4 L34.2,10.4 Z M19,45.8 L5.601,9.6 C9.9,7.2 14,6 19,6 C24,6 28.101,7.2 32.4,9.6 L19,45.8 L19,45.8 Z M4.3,8.2 C4.101,8.3 3.901,8.4 3.7,8.4 C3.1,8.4 2.7,8 2.7,7.4 C2.7,6.9 2.9,6.7 3.2,6.5 C9.5,2.6 15.2,2 19,2 C22.8,2 28.5,2.6 34.8,6.5 C35.101,6.7 35.401,6.9 35.401,7.4 C35.401,8 34.901,8.4 34.3,8.4 C34.101,8.4 33.901,8.299 33.7,8.2 C29.101,5.3 24,4 19,4 C14,4 8.9,5.3 4.3,8.2 L4.3,8.2 L4.3,8.2 Z M11,12 C11,11.4 11.4,11 12,11 C12.601,11 13,11.4 13,12 C13,12.6 12.601,13 12,13 C11.4,13 11,12.6 11,12 L11,12 L11,12 Z M9,12 C9,13.7 10.3,15 12,15 C13.7,15 15,13.7 15,12 C15,10.3 13.7,9 12,9 C10.3,9 9,10.3 9,12 L9,12 L9,12 Z M18,29 C18,30.1 18.9,31 20,31 C21.101,31 22,30.1 22,29 C22,27.9 21.101,27 20,27 C18.9,27 18,27.9 18,29 L18,29 L18,29 Z M23,23 C23,23.6 23.4,24 24,24 C24.601,24 25,23.6 25,23 L25,22 C25,21.4 24.601,21 24,21 C23.4,21 23,21.4 23,22 L23,23 L23,23 Z M15.2,24.6 C15.4,24.8 15.6,24.901 15.9,24.901 C16.1,24.901 16.4,24.8 16.6,24.6 C16.8,24.4 16.9,24.2 16.9,23.9 C16.9,23.7 16.799,23.4 16.6,23.2 L14.8,21.4 C14.601,21.2 14.3,21.099 14.101,21.099 C13.8,21.099 13.601,21.2 13.401,21.4 C13.201,21.599 13.101,21.9 13.101,22.099 C13.101,22.4 13.201,22.599 13.401,22.799 L15.2,24.6 L15.2,24.6 Z M18,36 C18,36.6 18.4,37 19,37 C19.601,37 20,36.6 20,36 L20,35 C20,34.4 19.601,34 19,34 C18.4,34 18,34.4 18,35 L18,36 L18,36 Z M27.601,11.8 C27.8,11.6 27.901,11.401 27.901,11.1 C27.901,10.901 27.8,10.6 27.601,10.401 C27.401,10.201 27.201,10.1 26.901,10.1 C26.701,10.1 26.401,10.201 26.201,10.401 L24.401,12.201 C24.201,12.401 24.101,12.701 24.101,12.901 C24.101,13.201 24.201,13.401 24.401,13.6 C24.601,13.8 24.901,13.901 25.101,13.901 C25.401,13.901 25.601,13.8 25.8,13.6 L27.601,11.8 L27.601,11.8 Z M22,18 C22,16.3 20.7,15 19,15 C17.4,15 16,16.3 16,18 C16,18.6 16.4,19 17,19 C17.4,19 17.9,18.8 18,18.5 L18,19 C18,19.6 18.4,20 19,20 C19.601,20 20,19.6 20,19 L20,18.5 C20.101,18.9 20.601,19 21,19 C21.601,19 22,18.6 22,18 L22,18 L22,18 Z M19,10 C19,10.6 19.4,11 20,11 C20.601,11 21,10.6 21,10 C21,9.4 20.601,9 20,9 C19.4,9 19,9.4 19,10 L19,10 Z" fill="#FFFFFF"></path>
    </g>
</svg>