<?xml version="1.0" encoding="utf-8"?>
<!-- Generator: Adobe Illustrator 16.0.0, SVG Export Plug-In . SVG Version: 6.00 Build 0)  -->
<!DOCTYPE svg PUBLIC "-//W3C//DTD SVG 1.1//EN" "http://www.w3.org/Graphics/SVG/1.1/DTD/svg11.dtd">
<svg version="1.1" id="Layer_1" xmlns="http://www.w3.org/2000/svg" xmlns:xlink="http://www.w3.org/1999/xlink" x="0px" y="0px"
	 width="150px" height="150px" viewBox="0 0 150 150" style="enable-background:new 0 0 150 150;" xml:space="preserve">
<style type="text/css">
<![CDATA[
	.st0{fill:#FFFFFF;}
	.st1{fill:#DB1A88;}
]]>
</style>
<path class="st1" d="M75.8,150h-1.5C33.2,150,0,116.8,0,75.8v-1.5C0,33.2,33.2,0,74.2,0h1.5c41,0,74.2,33.2,74.2,74.2v1.5
	C150,116.8,116.8,150,75.8,150"/>
<path class="st0" d="M104.6,75.2c10.1-9.6,15.1-18.9,11.9-24.4c-1.8-3-5.8-4.5-11.3-4.5c-4.4,0-9.8,1-15.6,2.8
	c-0.5-2.2-1.1-4.3-1.8-6.2c1.2-1.2,2-2.8,2-4.7c0-3.5-2.9-6.4-6.4-6.4c-0.3,0-0.6,0-0.9,0.1c-2.4-3.3-5.1-5.2-8-5.2
	c-6.3,0-11.9,9-15.1,22.4c-5.9-1.8-11.2-2.7-15.6-2.7c-5.5,0-9.6,1.5-11.3,4.5c-3.2,5.5,1.8,14.9,12,24.4c-1.3,1.2-2.5,2.4-3.6,3.6
	c-2-1.2-4.5-1.4-6.6-0.2c-3.1,1.8-4.1,5.7-2.3,8.7c0.4,0.7,0.9,1.3,1.5,1.8c-2,4.2-2.5,7.8-0.9,10.5c1.8,3,5.8,4.5,11.3,4.5
	c4.4,0,9.8-1,15.6-2.8c3.2,13.5,8.7,22.4,15.1,22.4c6.3,0,11.9-9,15.1-22.5c2.8,0.9,5.6,1.5,8.1,2c0.4,1.7,1.4,3.3,3,4.3
	c3.1,1.8,7,0.7,8.7-2.3c0.3-0.5,0.5-1.1,0.6-1.7c3-0.6,5.3-2,6.4-4C119.7,94.1,114.7,84.8,104.6,75.2 M105.2,50.1c4.1,0,7,0.9,8,2.6
	c1.4,2.5-0.7,7.9-5.6,13.7c-1.7,2.1-3.7,4.1-5.9,6.2c-2.9-2.5-6.2-5-9.7-7.5c-0.3-4.4-0.9-8.5-1.6-12.3
	C95.9,51.1,101,50.1,105.2,50.1 M81.6,87.4c-2.3,1.4-4.7,2.6-7.1,3.8c-2.4-1.2-4.7-2.4-7.1-3.8c-2.4-1.4-4.6-2.8-6.7-4.2
	c-0.2-2.6-0.3-5.2-0.3-7.9c0-2.8,0.1-5.4,0.3-7.9c2.2-1.4,4.4-2.9,6.7-4.2c2.3-1.4,4.7-2.6,7.1-3.8c2.4,1.2,4.7,2.4,7.1,3.8
	c2.4,1.4,4.6,2.8,6.7,4.2c0.2,2.6,0.3,5.2,0.3,8c0,2.8-0.1,5.4-0.3,7.9C86.1,84.6,83.9,86,81.6,87.4 M87.9,88
	c-0.3,3-0.7,5.8-1.2,8.4c-2.5-0.9-5.2-2-7.8-3.1c1.5-0.8,3.1-1.6,4.6-2.5C85,89.8,86.5,88.9,87.9,88 M70.1,93.3
	c-2.7,1.2-5.3,2.3-7.8,3.2c-0.5-2.6-0.9-5.4-1.2-8.4c1.4,0.9,2.9,1.8,4.4,2.7C67.1,91.6,68.6,92.4,70.1,93.3 M56.7,80.4
	c-2.4-1.7-4.5-3.5-6.5-5.2c2-1.7,4.2-3.5,6.5-5.2c-0.1,1.7-0.1,3.4-0.1,5.2C56.6,77,56.6,78.7,56.7,80.4 M61.1,62.4
	c0.3-3,0.7-5.8,1.2-8.4c2.5,0.9,5.2,2,7.8,3.1c-1.5,0.8-3.1,1.6-4.6,2.5C64,60.6,62.5,61.5,61.1,62.4 M78.9,57.2
	c2.7-1.2,5.3-2.3,7.8-3.2c0.5,2.6,0.9,5.4,1.2,8.4c-1.4-0.9-2.9-1.8-4.4-2.7C81.9,58.8,80.4,58,78.9,57.2 M92.3,70.1
	c2.4,1.7,4.6,3.5,6.5,5.2c-2,1.7-4.2,3.5-6.5,5.2c0.1-1.7,0.1-3.4,0.1-5.2C92.4,73.5,92.4,71.8,92.3,70.1 M74.5,30.5
	c1.4,0,3,1.1,4.5,3.1c-1.2,1.2-2,2.8-2,4.6c0,3.5,2.9,6.4,6.4,6.4c0.3,0,0.6,0,0.8-0.1c0.6,1.8,1.1,3.7,1.6,5.8
	c-3.7,1.3-7.5,2.9-11.4,4.8c-3.9-1.9-7.7-3.5-11.4-4.7C66,37.8,70.8,30.5,74.5,30.5 M35.8,52.8c1-1.7,3.9-2.6,8-2.6
	c4.2,0,9.3,1,14.8,2.7c-0.7,3.8-1.3,8-1.6,12.3c-3.5,2.4-6.8,5-9.7,7.5C37.9,63.8,33.9,56,35.8,52.8 M43.8,100.3c-4.1,0-7-0.9-8-2.6
	c-0.9-1.5-0.4-4.1,1.2-7.2c1.2,0.1,2.5-0.2,3.6-0.8c2.8-1.6,3.9-5,2.7-7.9c1.2-1.3,2.5-2.7,4-4c2.9,2.5,6.2,5,9.7,7.5
	c0.3,4.4,0.9,8.5,1.6,12.3C53.1,99.4,48,100.3,43.8,100.3 M74.5,120c-3.7,0-8.5-7.3-11.4-19.8c3.7-1.3,7.5-2.9,11.4-4.8
	c3.9,1.9,7.7,3.5,11.4,4.7C83,112.7,78.2,120,74.5,120 M113.2,97.7c-0.5,0.9-1.7,1.6-3.4,2.1c-0.5-1.3-1.4-2.5-2.7-3.2
	c-3.1-1.8-7-0.7-8.7,2.3c-0.1,0.2-0.2,0.4-0.3,0.6c-2.4-0.4-5-1.1-7.7-1.9c0.7-3.8,1.3-8,1.6-12.3c3.5-2.4,6.8-5,9.7-7.5
	C111.1,86.6,115.1,94.5,113.2,97.7"/>
</svg>
