<?xml version="1.0" encoding="UTF-8" standalone="no"?>
<svg width="97px" height="64px" viewBox="0 0 97 64" version="1.1" xmlns="http://www.w3.org/2000/svg" xmlns:xlink="http://www.w3.org/1999/xlink" >

    <title>car_2_go</title>

    <defs></defs>
    <g stroke-width="1" fill="none" fill-rule="evenodd" >
        <g id="Artboard-1" sketch:type="MSArtboardGroup" transform="translate(-217.000000, -132.000000)">
            <g id="car_2_go" sketch:type="MSLayerGroup" transform="translate(218.000000, 132.000000)">
                <path d="M85.01,53 C85.01,53 85.01,38 70.01,38 C55.01,38 55.01,53 55.01,53 L35.01,53 C35.01,53 35.01,38 20.01,38 C5.01,38 5.01,53 5.01,53 L0.01,53 C0.01,43 5.01,38 5.01,38 C5.01,23 15.01,18 15.01,18 L10.01,13 L60.01,13 L75.01,28 C85.01,28 95.01,38 95.01,52.992 L85.01,53 Z" id="Shape" stroke="#757575" stroke-width="2" stroke-linecap="round" stroke-linejoin="round" fill="#F1F1F1" sketch:type="MSShapeGroup"></path>
                <circle id="Oval" stroke="#757575" stroke-width="2" stroke-linecap="round" stroke-linejoin="round" fill="#F1F1F1" sketch:type="MSShapeGroup" cx="20" cy="53" r="10"></circle>
                <circle id="Oval" stroke="#757575" stroke-width="2" stroke-linecap="round" stroke-linejoin="round" fill="#F1F1F1" sketch:type="MSShapeGroup" cx="70" cy="53" r="10"></circle>
                <path d="M65.01,18.001 L57.509,18 L35.01,18 C25.01,18 25.01,28 25.01,28 L75.01,28" id="Shape" stroke="#757575" stroke-width="2" stroke-linecap="round" stroke-linejoin="round" sketch:type="MSShapeGroup"></path>
                <g id="guru" transform="translate(42.000000, 0.000000)" sketch:type="MSShapeGroup">
                    <path d="M16.7128702,16.607131 C16.5917776,16.607131 16.470685,16.670951 16.3606008,16.670951 L16.3606008,16.670951 C15.8101799,16.670951 15.9532893,17.325107 14.8964812,17.325107 C14.4341276,17.325107 14.0598414,16.7028611 13.7736225,16.6869061 C13.5974878,16.654996 13.1791679,16.623086 13.1791679,16.623086 L13.1791679,16.607131 C13.0030332,16.5911759 12.9039575,16.3199405 13.0030332,16.0965702 C13.5864794,14.7403932 13.839673,13.3682611 13.9497572,12.5385999 C14.0818582,11.4536583 14.4671529,11.3419731 14.8964812,11.3260181 C15.6670705,11.2941081 15.7551378,12.1078143 15.8872388,12.60242 C16.2615251,13.958597 16.5917776,15.0914037 16.9330386,16.0167951 C17.0211059,16.2561204 16.9110217,16.5911759 16.7128702,16.607131" id="Path-Copy-4" fill="#F1F1F1"></path>
                    <path d="M27.7645298,13.8615269 C27.3011113,18.3615269 26.2924946,19.0736481 22.8168559,19.0736481 C19.3139573,18.9675875 17.9373318,16.8918299 17.0786446,14.0281935 C15.6611292,9.40698142 19.3139573,9.45243597 22.789596,9.07364809 C27.9417192,9.07364809 27.7645298,10.8312238 27.7645298,13.8615269" id="Path-Copy-2" fill="#F1F1F1"></path>
                    <path d="M14.8843224,0.81899578 C20.343254,0.81899578 25.2094229,4.43227717 26.9187853,9.69051546 C24.4650231,9.39526678 21.8182684,9.4233857 18.7579582,10.2107155 C17.5172919,10.5340831 16.0974183,10.8574507 14.8291816,10.8152723 C14.0709967,10.7871534 13.3541673,10.6043804 12.6649082,10.4497263 C9.35646481,9.66239653 6.28236946,9.22655325 2.91878531,9.49368301 C4.68328847,4.34792041 9.49431661,0.81899578 14.8843224,0.81899578" id="Path-Copy" fill="#F1F1F1"></path>
                    <path d="M7.24297732,19.0735613 C3.76997102,19.0735613 2.76211821,18.3614469 2.29905071,13.8614903 C2.29905071,10.8312165 2.12199548,9.05850627 7.27021659,9.07365764 C10.7432229,9.45244187 14.3932844,9.40698776 12.9904623,14.0281554 C12.1188058,16.8917641 10.7568425,18.9675017 7.24297732,19.0735613" id="Path-Copy-3" fill="#F1F1F1"></path>
                    <path d="M14.974359,0 C9.51282051,0 4.65384615,3.79961089 3,9.30155642 C2.03846154,9.41050584 1.03846154,9.58754864 0,9.8463035 L0.307692308,11.9844358 C0.602564103,11.9844358 1.1025641,12.1070039 1.11538462,12.7062257 C1.20512821,14.9941634 1.51282051,16.7237354 2.26923077,17.8949416 C2.03846154,18.0992218 1.87179487,18.3307393 1.80769231,18.5894942 C1.80769231,18.5894942 2.75641026,18.5622568 2.84615385,18.6848249 C2.84615385,18.6848249 1.43589744,21.3268482 1.65384615,23.0564202 L2.5,22.5116732 C2.5,22.5116732 2,26.692607 2.8974359,28 C2.8974359,28 3.58974359,26.9241245 3.75641026,26.7743191 L26.3205128,26.7743191 C26.4871795,26.9241245 27.1794872,28 27.1794872,28 C28.0769231,26.692607 27.5769231,22.5116732 27.5769231,22.5116732 L28.4358974,23.0428016 C28.6538462,21.3132296 27.2307692,18.6712062 27.2307692,18.6712062 C27.3333333,18.5486381 28.2820513,18.5622568 28.2820513,18.5622568 C28.2051282,18.2626459 28.0128205,18.0175097 27.7307692,17.7996109 C28.474359,16.3560311 28.4871795,14.4357977 28.8974359,13.0330739 C29.0512821,12.5291829 29.2179487,12.2568093 29.7435897,12.2431907 L30,10.118677 C29.025641,9.88715953 28.025641,9.68287938 27.0128205,9.51945525 C25.4230769,3.90856031 20.5128205,0 14.974359,0 Z M14.974359,0.817120623 C20.0512821,0.817120623 24.5769231,4.31712062 26.1666667,9.41050584 C23.8846154,9.12451362 21.4230769,9.15175097 18.5769231,9.91439689 C17.4230769,10.2276265 16.1025641,10.540856 14.9230769,10.5 C14.2179487,10.4727626 13.5512821,10.2957198 12.9102564,10.1459144 C9.83333333,9.38326848 6.97435897,8.96108949 3.84615385,9.21984436 C5.48717949,4.23540856 9.96153846,0.817120623 14.974359,0.817120623 M17.0897436,16.8054475 C16.9487179,16.8054475 16.8076923,16.8599222 16.6794872,16.8599222 L16.6794872,16.8599222 C16.0384615,16.8599222 16.2051282,17.4182879 14.974359,17.4182879 C14.4358974,17.4182879 14,16.8871595 13.6666667,16.8735409 C13.4615385,16.8463035 12.974359,16.8190661 12.974359,16.8190661 L12.974359,16.8054475 C12.7692308,16.7918288 12.6538462,16.5603113 12.7692308,16.3696498 C13.4487179,15.2120623 13.7435897,14.040856 13.8717949,13.3326848 C14.025641,12.4066148 14.474359,12.311284 14.974359,12.2976654 C15.8717949,12.270428 15.974359,12.9649805 16.1282051,13.3871595 C16.5641026,14.5447471 16.9487179,15.5116732 17.3461538,16.3015564 C17.4487179,16.5058366 17.3205128,16.7918288 17.0897436,16.8054475 M6.91025641,19.0389105 C3.64102564,19.0389105 2.69230769,18.3988327 2.25641026,14.3540856 C2.25641026,11.6303502 2.08974359,10.036965 6.93589744,10.0505837 C10.2051282,10.3910506 13.6410256,10.3501946 12.3205128,14.5038911 C11.5,17.077821 10.2179487,18.9435798 6.91025641,19.0389105 M19.1794872,22.3618677 C18.5897436,23.8054475 16.9487179,24.8132296 15.0128205,24.8132296 C13.0641026,24.8132296 11.4102564,23.8190661 10.8205128,22.3754864 C10.5897436,21.8171206 10.9871795,21.2315175 11.5641026,21.2315175 L18.4487179,21.2315175 C19.0128205,21.2315175 19.4102564,21.8035019 19.1794872,22.3618677 M27.7820513,14.3540856 C27.3461538,18.3988327 26.3974359,19.0389105 23.1282051,19.0389105 C19.8333333,18.9435798 18.5384615,17.077821 17.7307692,14.5038911 C16.3974359,10.3501946 19.8333333,10.3910506 23.1025641,10.0505837 C27.9487179,10.0505837 27.7820513,11.6303502 27.7820513,14.3540856" id="Shape" fill="#757575"></path>
                </g>
                <path d="M43.5,26.5 L70.5,26.5" id="Line" stroke="#F1F1F1" stroke-linecap="square" sketch:type="MSShapeGroup"></path>
                <path d="M40,18 L40,28" id="Shape" stroke="#757575" stroke-width="2" stroke-linecap="round" stroke-linejoin="round" sketch:type="MSShapeGroup"></path>
                <path d="M6.01,33 L7.51,33 C8.891,33 10.01,31.881 10.01,30.5 C10.01,29.119 8.891,28 7.51,28" id="Shape" stroke="#757575" stroke-width="2" stroke-linecap="round" stroke-linejoin="round" sketch:type="MSShapeGroup"></path>
            </g>
        </g>
    </g>
</svg>
