<?xml version="1.0" encoding="UTF-8" standalone="no"?>
<svg width="33px" height="28px" viewBox="0 0 33 28" version="1.1" xmlns="http://www.w3.org/2000/svg" xmlns:xlink="http://www.w3.org/1999/xlink" xmlns:sketch="http://www.bohemiancoding.com/sketch/ns">
    <!-- Generator: Sketch 3.4.2 (15857) - http://www.bohemiancoding.com/sketch -->
    <title>poof</title>
    <desc>Created with Sketch.</desc>
    <defs></defs>
    <g id="Page-1" stroke="none" stroke-width="1" fill="none" fill-rule="evenodd" sketch:type="MSPage">
        <g id="Artboard-1" sketch:type="MSArtboardGroup" transform="translate(-346.000000, -52.000000)" stroke="#757575" stroke-width="2" stroke-linecap="round" stroke-linejoin="round">
            <g id="poof" sketch:type="MSLayerGroup" transform="translate(347.000000, 53.000000)">
                <path d="M3.69138265,11.2582144 C3.24703572,10.2629909 3,9.16034457 3,8 C3,3.581722 6.581722,0 11,0 C15.418278,0 19,3.581722 19,8 C23.418278,8 27,11.581722 27,16 C27,20.418278 23.418278,24 19,24 C17.3416998,24 15.8012458,23.4954408 14.5237817,22.6314665 C13.0738459,24.6701303 10.6922268,26 8,26 C3.581722,26 0,22.418278 0,18 C0,15.1681366 1.47139879,12.6799368 3.69138265,11.2582144 L3.69138265,11.2582144 Z" id="Oval-28" fill="#F1F1F1" sketch:type="MSShapeGroup"></path>
                <path d="M13.1927597,10.5850569 L30.9197158,4.92775811" id="Line" sketch:type="MSShapeGroup"></path>
                <path d="M18.0162094,17.6346195 L30.9837906,10.3653805" id="Line-2" sketch:type="MSShapeGroup"></path>
            </g>
        </g>
    </g>
</svg>
