
<svg  viewBox="0 0 33 28" version="1.1" xmlns="http://www.w3.org/2000/svg" xmlns:xlink="http://www.w3.org/1999/xlink">
                <path d="M3.69138265,11.2582144 C3.24703572,10.2629909 3,9.16034457 3,8 C3,3.581722 6.581722,0 11,0 C15.418278,0 19,3.581722 19,8 C23.418278,8 27,11.581722 27,16 C27,20.418278 23.418278,24 19,24 C17.3416998,24 15.8012458,23.4954408 14.5237817,22.6314665 C13.0738459,24.6701303 10.6922268,26 8,26 C3.581722,26 0,22.418278 0,18 C0,15.1681366 1.47139879,12.6799368 3.69138265,11.2582144 L3.69138265,11.2582144 Z"  fill="#F1F1F1" sketch:type="MSShapeGroup"></path>
                <path d="M13.1927597,10.5850569 L30.9197158,4.92775811"  ></path>
                <path d="M18.0162094,17.6346195 L30.9837906,10.3653805" ></path>
</svg>
