<svg width="150px" height="150px" viewBox="0 0 150 150" version="1.1" xmlns="http://www.w3.org/2000/svg" xmlns:xlink="http://www.w3.org/1999/xlink">
    <g id="tumblr">
        <rect class="background" fill="#35465C" x="0" y="0" width="150" height="150"></rect>
        <path d="M94.1419055,98.9012154 C92.6548053,99.6106946 89.8088723,100.227982 87.6884518,100.280091 C81.2830986,100.45245 80.0405081,95.7827146 79.9883995,92.3956535 L79.9883995,67.491736 L96.0538914,67.491736 L96.0538914,55.3784833 L80.0445164,55.3784833 L80.0445164,35 L68.328091,35 C68.1356899,35 67.798988,35.168351 67.7508877,35.597245 C67.0654589,41.8342475 64.1473754,52.7810685 52.0100726,57.1581935 L52.0100726,67.491736 L60.1069523,67.491736 L60.1069523,93.6302272 C60.1069523,102.580887 66.7087152,115.295393 84.1370482,114.994766 C90.0173069,114.894557 96.5469194,112.433427 97.9899274,110.308998 L94.1419055,98.9012154" class="icon" fill="#FFFFFF"></path>
    </g>
</svg>