<svg class='bg-university-icon' height="35" width="35" viewBox="0 0 100 100" version="1.1" xmlns="http://www.w3.org/2000/svg" xmlns:xlink="http://www.w3.org/1999/xlink">
    <path d="M30.2162107,36.8634124 C30.0087463,35.7775888 29.9256554,34.0037524 30.0828066,32.916777 C30.0828066,32.916777 30.8453024,15 49.9353487,15 C69.0253949,15 69.7878908,32.916777 69.7878908,32.916777 C69.9216781,34.01062 69.8632165,35.7709661 69.6544867,36.8634124 L63.3726068,69.741404 C63.1651424,70.8272276 62.0977389,71.7074615 60.9904903,71.7074615 L38.8802071,71.7074615 C37.7720649,71.7074615 36.7068203,70.8338504 36.4980905,69.741404 L30.2162107,36.8634124 Z M46.5224799,74.0592008 C46.5224799,72.9587836 47.4084377,72.0667193 48.5299823,72.0667193 L50.3483108,72.0667193 C51.4570238,72.0667193 52.3558133,72.9556761 52.3558133,74.0592008 L52.3558133,83.0075185 C52.3558133,84.1079357 51.4698555,85 50.3483108,85 L48.5299823,85 C47.4212694,85 46.5224799,84.1110432 46.5224799,83.0075185 L46.5224799,74.0592008 Z M46.5224799,46.9839985 C46.5224799,45.8795449 47.4084377,44.9842084 48.5299823,44.9842084 L50.3483108,44.9842084 C51.4570238,44.9842084 52.3558133,45.8799301 52.3558133,46.9839985 L52.3558133,59.4273715 C52.3558133,60.531825 51.4698555,61.4271615 50.3483108,61.4271615 L48.5299823,61.4271615 C47.4212694,61.4271615 46.5224799,60.5314398 46.5224799,59.4273715 L46.5224799,46.9839985 Z M62.0833333,35.8922226 C62.0833333,28.749369 56.6423494,22.958942 49.9305556,22.958942 C43.2187617,22.958942 37.7777778,28.749369 37.7777778,35.8922226 C37.7777778,35.8922227 62.0833334,35.8922227 62.0833333,35.8922226 Z M52.8472222,29.0248717 L49.9305556,35.7954994" fill="none" stroke="#000000" stroke-width="3" stroke-linecap="round" stroke-linejoin="round"></path>
</svg>