<?xml version="1.0" encoding="utf-8"?>
<!-- Generator: Adobe Illustrator 16.0.0, SVG Export Plug-In . SVG Version: 6.00 Build 0)  -->
<!DOCTYPE svg PUBLIC "-//W3C//DTD SVG 1.1//EN" "http://www.w3.org/Graphics/SVG/1.1/DTD/svg11.dtd">
<svg version="1.1" id="Layer_1" xmlns="http://www.w3.org/2000/svg" xmlns:xlink="http://www.w3.org/1999/xlink" x="0px" y="0px"
	 width="150px" height="150px" viewBox="0 0 150 150" style="enable-background:new 0 0 150 150;" xml:space="preserve">
<style type="text/css">
<![CDATA[
	.st0{fill:#81B667;}
	.st1{fill:#FFFFFF;}
]]>
</style>
<path class="st0" d="M76.7,18.5c-1,0.1-2.3,0.6-3.7,1.7c-5.5,4.5-6.3-3.6-11.4,1.4c-4.3,4.2-6.3-1.6-9.8,2.6c-1.3,1.6-3,2.6-4.4,3.1
	c-0.6,0.3-0.8,1-0.5,1.6c0.6,1,13.3,7.8,15,11.4c0,0-2.7,0.4-2.7,2.3c0,2,2.7,2.4,2.7,2.4c-0.3,1.3-0.7,1.7-1.2,1.9
	c-4.7,2.7-26.4,10.3-20.4,58.4c0,0-2.3,2.9-2.3,5.7c0,2.8,1.7,5.3,9.2,5.3c7.3,0,7.4,3.6,26.7,3.6c19.3,0,19.4-3.6,26.7-3.6
	c7.5,0,9.2-2.5,9.2-5.3c0-2.8-2.3-5.7-2.3-5.7c6.7-53.9-21.3-58.9-21.3-58.9c-0.7-0.3-1.4-0.7-1.9-1.6c0,0,2.2-0.5,2.2-2.2
	c0-2.2-3.2-2.4-3.2-2.4c0.5-4.6,10.8-12.7,13.6-14.8c0.4-0.4,0.5-0.9,0.2-1.4c-1.2-2-4.9-6.3-11-2.2c-4.1,2.8-5.5-3.3-9.3-3.3
	C76.8,18.5,76.8,18.5,76.7,18.5"/>
<path class="st1" d="M71,105.5V100c-2.9-0.2-5.2-0.5-6.9-1c-1.8-0.5-3.2-0.9-4.4-1.4v-9h10c0,0.9,0.2,1.6,0.5,2
	c0.4,0.4,1.1,0.7,2.3,0.7c1,0,1.7-0.2,2.1-0.5c0.4-0.3,0.6-0.8,0.6-1.4c0-0.4-0.2-0.8-0.5-1.1c-0.4-0.3-1.1-0.7-2.1-1.1
	c-2.2-0.8-4.2-1.7-5.9-2.4c-1.7-0.8-3.1-1.6-4.2-2.6c-1.1-0.9-1.9-2-2.5-3.3c-0.5-1.3-0.8-2.8-0.8-4.6c0-1.5,0.2-2.8,0.6-4.1
	c0.4-1.2,1.1-2.3,2-3.2c0.9-0.9,2.1-1.7,3.6-2.3c1.5-0.6,3.3-1,5.5-1.2v-5.2h6v5.2c1.4,0.1,2.7,0.2,3.8,0.4c1.1,0.2,2.1,0.4,3,0.7
	c0.9,0.3,1.7,0.5,2.5,0.8c0.8,0.3,1.4,0.6,1.9,0.9v8.2h-9.6c0-0.9-0.2-1.5-0.7-1.8c-0.5-0.3-1.1-0.5-1.8-0.5c-1,0-1.7,0.1-2.2,0.4
	c-0.4,0.3-0.7,0.7-0.7,1.3c0,0.5,0.2,0.9,0.7,1.1c0.5,0.2,1.2,0.5,2.1,0.8c1.8,0.6,3.4,1.2,5,1.8c1.6,0.6,2.9,1.4,4.1,2.4
	c1.2,0.9,2.1,2.1,2.8,3.4c0.7,1.3,1,3,1,4.9c0,3.5-1,6.2-3.1,8.1c-2,1.9-5,3.1-9,3.4v5.5H71z"/>
</svg>
