<?xml version="1.0" encoding="utf-8"?>
<!-- Generator: Adobe Illustrator 16.0.0, SVG Export Plug-In . SVG Version: 6.00 Build 0)  -->
<!DOCTYPE svg PUBLIC "-//W3C//DTD SVG 1.1//EN" "http://www.w3.org/Graphics/SVG/1.1/DTD/svg11.dtd">
<svg version="1.1" id="Layer_1" xmlns="http://www.w3.org/2000/svg" xmlns:xlink="http://www.w3.org/1999/xlink" x="0px" y="0px"
	 width="26.2px" height="37.1px" viewBox="0 0 26.2 37.1" enable-background="new 0 0 26.2 37.1" xml:space="preserve">
<g opacity="0.5">
	<g>
		<defs>
			<rect id="SVGID_1_" x="0" width="26.2" height="37.1"/>
		</defs>
		<clipPath id="SVGID_2_">
			<use xlink:href="#SVGID_1_"  overflow="visible"/>
		</clipPath>
		<path clip-path="url(#SVGID_2_)" fill="#010101" d="M13.1,0C5.9,0,0,5.9,0,13.1c0,1.7,0.3,3.3,0.9,4.8
			c2.8,9.2,11.9,19.2,11.9,19.2s11.1-11.5,13-21.3c0-0.1,0-0.2,0.1-0.4c0-0.2,0.1-0.5,0.1-0.7c0-0.2,0-0.3,0.1-0.5
			c0-0.4,0.1-0.8,0.1-1.1C26.2,5.9,20.3,0,13.1,0 M13,19.1c-3.7,0-6.8-3-6.8-6.8c0-3.7,3-6.8,6.8-6.8s6.8,3,6.8,6.8
			C19.7,16.1,16.7,19.1,13,19.1"/>
	</g>
</g>
</svg>
