<?xml version="1.0" encoding="utf-8"?>
<!-- Generator: Adobe Illustrator 16.0.0, SVG Export Plug-In . SVG Version: 6.00 Build 0)  -->
<!DOCTYPE svg PUBLIC "-//W3C//DTD SVG 1.1//EN" "http://www.w3.org/Graphics/SVG/1.1/DTD/svg11.dtd">
<svg version="1.1" id="Layer_1" xmlns="http://www.w3.org/2000/svg" xmlns:xlink="http://www.w3.org/1999/xlink" x="0px" y="0px"
	 width="71.1px" height="71.1px" viewBox="0 0 71.1 71.1" style="enable-background:new 0 0 71.1 71.1;" xml:space="preserve">
<style type="text/css">
<![CDATA[
	.st0{fill:none;stroke:#66A6D1;stroke-width:2;stroke-miterlimit:10;}
	.st1{fill:#66A6D1;}
]]>
</style>
<path class="st0" d="M35.9,70.1h-0.7C16.3,70.1,1,54.8,1,35.9v-0.7C1,16.3,16.3,1,35.2,1h0.7c18.9,0,34.2,15.3,34.2,34.2v0.7
	C70.1,54.8,54.8,70.1,35.9,70.1z"/>
<path class="st1" d="M26.2,53.4c-2.3,0-4.5-0.9-6.1-2.6c-3.4-3.4-3.4-8.9,0-12.3l19.3-19.1c1.1-1.1,2.7-1.7,4.3-1.7
	c1.6,0,3.2,0.7,4.3,1.8c2.4,2.4,2.4,6.2,0,8.6L28.6,47.2c-0.7,0.7-1.5,1-2.4,1c-0.9,0-1.8-0.3-2.5-1c-1.3-1.3-1.3-3.6,0-4.9l9.7-9.5
	c0.3-0.3,0.9-0.3,1.2,0c0.3,0.3,0.3,0.9,0,1.2l-9.7,9.5c-0.7,0.7-0.7,1.8,0,2.4c0.3,0.3,0.8,0.5,1.2,0.5c0.5,0,0.9-0.2,1.2-0.5
	l19.3-19.1c1.7-1.7,1.7-4.4,0-6.1c-0.8-0.8-1.9-1.3-3.1-1.3c-1.2,0-2.3,0.4-3.1,1.3L21.2,39.8c-2.7,2.7-2.7,7.1,0,9.8
	c1.3,1.3,3,2,4.9,2c1.9,0,3.6-0.7,4.9-2l16.7-16.5c0.3-0.3,0.9-0.3,1.2,0c0.3,0.3,0.3,0.9,0,1.2L32.3,50.9
	C30.7,52.5,28.5,53.4,26.2,53.4"/>
</svg>
