<?xml version="1.0" encoding="utf-8"?>
<!-- Generator: Adobe Illustrator 18.0.0, SVG Export Plug-In . SVG Version: 6.00 Build 0)  -->
<!DOCTYPE svg PUBLIC "-//W3C//DTD SVG 1.1//EN" "http://www.w3.org/Graphics/SVG/1.1/DTD/svg11.dtd">
<svg version="1.1" id="Layer_1" xmlns="http://www.w3.org/2000/svg" xmlns:xlink="http://www.w3.org/1999/xlink" x="0px" y="0px"
	 viewBox="0 0 300 300" enable-background="new 0 0 300 300" xml:space="preserve">
<g>
	<g>
		<path fill="#E4753B" d="M128.4,223.5c2.5,0,4.4-1.7,4.4-4.1l-0.2-2.2l-3.3-71.9c0-3.5,2.7-6.5,6.2-7.1l0,0
			c3.5-0.5,6.2-3.5,6.2-7.1V87.6v-0.2v-7.5c0-1.9-1.6-3.5-3.5-3.5c-1.9,0-3.5,1.6-3.5,3.5v2.7v31.6c0,1.9-1.3,3.6-3.2,3.6
			c-1.9,0-3.8-1.6-3.8-3.6l-0.3-28.9v-5.4c0-1.9-0.6-3.5-2.5-3.5h-1.7c-1.9,0-2.5,1.6-2.5,3.5v5.4l-0.8,29c0,1.9-1.9,3.6-3.8,3.6
			c-1.9,0-3.2-1.6-3.2-3.6V82.8v-2.7c0-1.9-1.6-3.5-3.5-3.5c-1.9,0-3.5,1.6-3.5,3.5v7.5v0.2v43.5c0,3.6,2.7,6.7,6.2,7.1l0,0
			c3.5,0.6,6.2,3.6,6.2,7.1l-3.5,71.7l-0.2,2.2c0,2.5,2.1,4.1,4.6,4.1"/>
		<path fill="#E4753B" d="M194.1,217.2L190,78.7c0-1-0.8-1.6-1.7-1.6c-8.7,0.6-15.9,7.6-16,16.5l-0.8,65.7l9.5,0.2l-3.5,57.8
			l-0.2,2.2c0,2.5,1.9,4.1,4.4,4.1h7.9c2.5,0,4.4-1.6,4.4-4.1L194.1,217.2z"/>
	</g>
	<path fill="none" stroke="#E4753B" stroke-width="4.986" stroke-miterlimit="10" d="M151.3,266.5H149
		c-63.9,0-115.5-51.6-115.5-115.3v-2.3c0-63.8,51.6-115.4,115.3-115.4h2.3c63.7,0,115.3,51.6,115.3,115.3v2.3
		C266.7,214.9,215.1,266.5,151.3,266.5"/>
</g>
</svg>
