<svg width="200px" height="200px" viewBox="0 0 200 200" version="1.1" xmlns="http://www.w3.org/2000/svg" xmlns:xlink="http://www.w3.org/1999/xlink">
	<circle class="background" fill="#000000" cx="100" cy="100" r="100"></circle>
    <path d="M116.386449,53.9350012 L61.7384222,53.9350012 C59.1361255,53.9350012 57.0189405,56.0525943 57.0189405,58.6552992 L57.0189405,60.9090176 L54.2315381,60.9090176 C51.8978182,60.9090176 49.9990049,62.608031 49.9990049,64.6964399 C49.9990049,66.7838284 51.8978182,68.4820254 54.2315381,68.4820254 L57.0189405,68.4820254 L57.0189405,72.4708804 L54.2315381,72.4708804 C51.8978182,72.4708804 49.9990049,74.1698938 49.9990049,76.2583028 C49.9990049,78.3458948 51.8978182,80.0438878 54.2315381,80.0438878 L57.0189405,80.0438878 L57.0189405,84.0327428 L54.2315381,84.0327428 C51.8978182,84.0325388 49.9990049,85.7315528 49.9990049,87.8201658 C49.9990049,89.9075538 51.8978182,91.6057508 54.2315381,91.6057508 L57.0189405,91.6057508 L57.0189405,107.944648 L54.2315381,107.944648 C51.8978182,107.944444 49.9990049,109.643253 49.9990049,111.731662 C49.9990049,113.819051 51.8978182,115.517452 54.2315381,115.517452 L57.0189405,115.517452 L57.0189405,119.506307 L54.2315381,119.506307 C51.8978182,119.506307 49.9990049,121.205116 49.9990049,123.293525 C49.9990049,125.380913 51.8978182,127.07911 54.2315381,127.07911 L57.0189405,127.07911 L57.0189405,131.067965 L54.2315381,131.067965 C51.8978182,131.067965 49.9990049,132.766979 49.9990049,134.855388 C49.9990049,136.942776 51.8978182,138.641177 54.2315381,138.641177 L57.0189405,138.641177 L57.0189405,141.338782 C57.0189405,143.941691 59.1363295,146.059284 61.7384222,146.059284 L116.386449,146.059284 C118.989154,146.059284 121.106543,143.941691 121.106543,141.338782 L121.106543,58.6552992 C121.106543,56.0525943 118.989154,53.9350012 116.386449,53.9350012 L116.386449,53.9350012 L116.386449,53.9350012 Z M54.2315381,65.6307442 C53.4174402,65.6307442 52.850082,65.1382854 52.850082,64.6964399 C52.850082,64.2535739 53.4174402,63.7600947 54.2315381,63.7600947 L62.6566038,63.7600947 C63.4711098,63.7600947 64.0386721,64.2535739 64.0386721,64.6964399 C64.0386721,65.1382854 63.4711098,65.6307442 62.6566038,65.6307442 L54.2315381,65.6307442 L54.2315381,65.6307442 Z M54.2315381,77.1928108 C53.4174402,77.1928108 52.850082,76.7003528 52.850082,76.2583028 C52.850082,75.8154368 53.4174402,75.3221618 54.2315381,75.3221618 L62.6566038,75.3221618 C63.4711098,75.3221618 64.0386721,75.8154368 64.0386721,76.2583028 C64.0386721,76.7003528 63.4711098,77.1928108 62.6566038,77.1928108 L54.2315381,77.1928108 L54.2315381,77.1928108 Z M52.850082,87.8201658 C52.850082,87.3770958 53.4174402,86.8838208 54.2315381,86.8838208 L62.6566038,86.8838208 C63.4711098,86.8838208 64.0386721,87.3770958 64.0386721,87.8201658 C64.0386721,88.2620108 63.4711098,88.7544698 62.6566038,88.7544698 L54.2315381,88.7544698 C53.4174402,88.7544698 52.850082,88.2620108 52.850082,87.8201658 L52.850082,87.8201658 L52.850082,87.8201658 Z M52.850082,111.731662 C52.850082,111.289 53.4174402,110.795521 54.2315381,110.795521 L62.6566038,110.795521 C63.4711098,110.795521 64.0386721,111.289 64.0386721,111.731662 C64.0386721,112.173712 63.4711098,112.666375 62.6566038,112.666375 L54.2315381,112.666375 C53.4174402,112.666375 52.850082,112.173712 52.850082,111.731662 L52.850082,111.731662 L52.850082,111.731662 Z M52.850082,123.293525 C52.850082,122.850659 53.4174402,122.35718 54.2315381,122.35718 L62.6566038,122.35718 C63.4711098,122.35718 64.0386721,122.850659 64.0386721,123.293525 C64.0386721,123.73537 63.4711098,124.227829 62.6566038,124.227829 L54.2315381,124.227829 C53.4174402,124.227829 52.850082,123.73537 52.850082,123.293525 L52.850082,123.293525 L52.850082,123.293525 Z M54.2315381,135.789896 C53.4174402,135.789896 52.850082,135.297437 52.850082,134.855388 C52.850082,134.412726 53.4174402,133.919247 54.2315381,133.919247 L62.6566038,133.919247 C63.4711098,133.919247 64.0386721,134.412726 64.0386721,134.855388 C64.0386721,135.297437 63.4711098,135.789896 62.6566038,135.789896 L54.2315381,135.789896 L54.2315381,135.789896 Z M118.255465,107.666887 L87.6138351,107.666887 C86.2340122,107.666887 85.1115402,106.570131 85.1115402,105.221941 L85.1115402,94.7725488 C85.1115402,93.4243588 86.2340122,92.3271938 87.6138351,92.3271938 L118.255465,92.3271938 L118.255465,107.666887 L118.255465,107.666887 Z M118.255465,89.4759128 L87.6138351,89.4759128 C84.6617351,89.4759128 82.2602592,91.8520828 82.2602592,94.7723448 L82.2602592,105.221737 C82.2602592,108.142203 84.6617351,110.517964 87.6138351,110.517964 L118.255465,110.517964 L118.255465,141.338578 C118.255465,142.369415 117.417285,143.207799 116.386449,143.207799 L61.7384222,143.207799 C60.7081976,143.207799 59.8700177,142.369415 59.8700177,141.338578 L59.8700177,138.640973 L62.6563997,138.640973 C64.9907319,138.640973 66.8897493,136.942776 66.8897493,134.855184 C66.8897493,132.766979 64.9907319,131.067761 62.6563997,131.067761 L59.8700177,131.067761 L59.8700177,127.078906 L62.6563997,127.078906 C64.9907319,127.078906 66.8897493,125.380709 66.8897493,123.293321 C66.8897493,121.204912 64.9907319,119.505898 62.6563997,119.505898 L59.8700177,119.505898 L59.8700177,115.517044 L62.6563997,115.517044 C64.9907319,115.517044 66.8897493,113.818847 66.8897493,111.731254 C66.8897493,109.642845 64.9907319,107.944036 62.6563997,107.944036 L59.8700177,107.944036 L59.8700177,91.6051388 L62.6563997,91.6051388 C64.9907319,91.6051388 66.8897493,89.9069418 66.8897493,87.8195528 C66.8897493,85.7311448 64.9907319,84.0319268 62.6563997,84.0319268 L59.8700177,84.0319268 L59.8700177,80.0430718 L62.6563997,80.0430718 C64.9907319,80.0430718 66.8897493,78.3450788 66.8897493,76.2574868 C66.8897493,74.1692815 64.9907319,72.470064 62.6563997,72.470064 L59.8700177,72.470064 L59.8700177,68.4820254 L62.6563997,68.4820254 C64.9907319,68.4820254 66.8897493,66.7838284 66.8897493,64.6964399 C66.8897493,62.608031 64.9907319,60.9088135 62.6563997,60.9088135 L59.8700177,60.9088135 L59.8700177,58.6552992 C59.8700177,57.6246665 60.7081976,56.7860783 61.7384222,56.7860783 L116.386449,56.7860783 C117.417285,56.7860783 118.255465,57.6246665 118.255465,58.6552992 L118.255465,89.4759128 L118.255465,89.4759128 Z M94.2856012,104.695808 C96.8758562,104.695808 98.9832452,102.588011 98.9832452,99.9971428 C98.9832452,97.4062748 96.8758562,95.2984778 94.2856012,95.2984778 C91.6949372,95.2984778 89.5871402,97.4062748 89.5871402,99.9971428 C89.5871402,102.588011 91.6949372,104.695808 94.2856012,104.695808 L94.2856012,104.695808 L94.2856012,104.695808 Z M94.2856012,98.1493508 C95.3037841,98.1493508 96.1323722,98.9781428 96.1323722,99.9971428 C96.1323722,101.015735 95.3037841,101.844731 94.2856012,101.844731 C93.2672132,101.844731 92.4384212,101.015735 92.4384212,99.9971428 C92.4384212,98.9783468 93.2672132,98.1493508 94.2856012,98.1493508 L94.2856012,98.1493508 L94.2856012,98.1493508 Z M148.575661,146.064999 L128.617508,146.064999 C127.830146,146.064999 127.192174,145.426619 127.192174,144.63946 C127.192174,143.852097 127.830146,143.213921 128.617508,143.213921 L148.575661,143.213921 C149.363023,143.213921 150.000995,143.852097 150.000995,144.63946 C150.000995,145.426619 149.363023,146.064999 148.575661,146.064999 L148.575661,146.064999 L148.575661,146.064999 Z M134.530075,74.3605098 C133.742713,74.3605098 133.104332,73.7223338 133.104332,72.9349712 L133.104332,68.5608025 C133.104332,67.7734399 133.742713,67.1352639 134.530075,67.1352639 C135.317234,67.1352639 135.95541,67.7734399 135.95541,68.5608025 L135.95541,72.9349712 C135.955614,73.7223338 135.317234,74.3605098 134.530075,74.3605098 L134.530075,74.3605098 L134.530075,74.3605098 Z M134.530075,113.334959 C133.742713,113.334959 133.104332,112.696783 133.104332,111.909421 L133.104332,77.7209848 C133.104332,76.9338268 133.742713,76.2954458 134.530075,76.2954458 C135.317234,76.2954458 135.95541,76.9338268 135.95541,77.7209848 L135.95541,111.909421 C135.955614,112.696783 135.317234,113.334959 134.530075,113.334959 L134.530075,113.334959 L134.530075,113.334959 Z M137.485644,129.547323 L130.693672,129.547323 C130.348563,129.547323 130.067537,129.267317 130.067537,128.922617 L130.054068,62.150879 C130.054068,61.8063824 130.335298,61.5263768 130.680203,61.5263768 L137.472175,61.5263768 C137.817079,61.5263768 138.097493,61.8063824 138.097493,62.1512872 L138.110963,128.922821 C138.110963,129.267317 137.830549,129.547323 137.485644,129.547323 L137.485644,129.547323 L137.485644,129.547323 Z M134.083127,137.010737 L131.842471,132.3984 L136.322764,132.3984 L134.083127,137.010737 L134.083127,137.010737 Z M135.81459,56.7915887 L135.81459,58.6752996 L132.350032,58.6752996 L132.350032,56.7915887 L135.81459,56.7915887 L135.81459,56.7915887 Z M140.948774,62.150879 C140.948774,60.6541145 139.995898,59.3791912 138.665872,58.8908141 L138.665872,56.0387165 C138.665872,54.8817547 137.724424,53.9405115 136.567463,53.9405115 L131.597568,53.9405115 C130.440198,53.9405115 129.498955,54.8817547 129.498955,56.0387165 L129.498955,58.8861201 C128.161989,59.3710278 127.202786,60.6494205 127.202786,62.1512872 L127.216256,128.922821 C127.216256,129.817124 127.558916,130.630814 128.115662,131.247357 C128.121376,131.260214 128.12607,131.27348 128.132193,131.286133 C128.132193,131.286133 131.634099,138.494032 132.801061,140.896937 C133.039637,141.387967 133.537606,141.69981 134.083536,141.699606 C134.629465,141.699606 135.12723,141.387967 135.365602,140.896732 C136.53236,138.494032 140.032021,131.285929 140.032021,131.285929 C140.033654,131.282459 140.034879,131.279194 140.036307,131.275725 C140.608768,130.65612 140.961836,129.830798 140.961836,128.922617 L140.948774,62.150879 L140.948774,62.150879 Z" class="icon" fill="#FFFFFF"></path>
</svg>