<svg class="category-academic" width="250px" height="250px" viewBox="0 0 250 250" version="1.1" xmlns="http://www.w3.org/2000/svg" xmlns:xlink="http://www.w3.org/1999/xlink">
    <circle class="background" cx="125" cy="125" r="125" fill="#000000"></circle>
    <path d="M141.386449,78.9350014 L86.738422,78.9350014 C84.1361253,78.9350014 82.0189403,81.0525945 82.0189403,83.6552994 L82.0189403,85.9090178 L79.2315379,85.9090178 C76.897818,85.9090178 74.9990047,87.6080312 74.9990047,89.6964401 C74.9990047,91.7838286 76.897818,93.4820256 79.2315379,93.4820256 L82.0189403,93.4820256 L82.0189403,97.4708806 L79.2315379,97.4708806 C76.897818,97.4708806 74.9990047,99.169894 74.9990047,101.258303 C74.9990047,103.345895 76.897818,105.043888 79.2315379,105.043888 L82.0189403,105.043888 L82.0189403,109.032743 L79.2315379,109.032743 C76.897818,109.032539 74.9990047,110.731553 74.9990047,112.820166 C74.9990047,114.907554 76.897818,116.605751 79.2315379,116.605751 L82.0189403,116.605751 L82.0189403,132.944648 L79.2315379,132.944648 C76.897818,132.944444 74.9990047,134.643253 74.9990047,136.731662 C74.9990047,138.819051 76.897818,140.517452 79.2315379,140.517452 L82.0189403,140.517452 L82.0189403,144.506307 L79.2315379,144.506307 C76.897818,144.506307 74.9990047,146.205116 74.9990047,148.293525 C74.9990047,150.380913 76.897818,152.07911 79.2315379,152.07911 L82.0189403,152.07911 L82.0189403,156.067965 L79.2315379,156.067965 C76.897818,156.067965 74.9990047,157.766979 74.9990047,159.855388 C74.9990047,161.942776 76.897818,163.641177 79.2315379,163.641177 L82.0189403,163.641177 L82.0189403,166.338782 C82.0189403,168.941691 84.1363294,171.059284 86.738422,171.059284 L141.386449,171.059284 C143.989154,171.059284 146.106543,168.941691 146.106543,166.338782 L146.106543,83.6552994 C146.106543,81.0525945 143.989154,78.9350014 141.386449,78.9350014 L141.386449,78.9350014 Z M79.2315379,90.6307444 C78.4174401,90.6307444 77.8500818,90.1382856 77.8500818,89.6964401 C77.8500818,89.2535741 78.4174401,88.7600949 79.2315379,88.7600949 L87.6566036,88.7600949 C88.4711096,88.7600949 89.0386719,89.2535741 89.0386719,89.6964401 C89.0386719,90.1382856 88.4711096,90.6307444 87.6566036,90.6307444 L79.2315379,90.6307444 L79.2315379,90.6307444 Z M79.2315379,102.192811 C78.4174401,102.192811 77.8500818,101.700353 77.8500818,101.258303 C77.8500818,100.815437 78.4174401,100.322162 79.2315379,100.322162 L87.6566036,100.322162 C88.4711096,100.322162 89.0386719,100.815437 89.0386719,101.258303 C89.0386719,101.700353 88.4711096,102.192811 87.6566036,102.192811 L79.2315379,102.192811 L79.2315379,102.192811 Z M77.8500818,112.820166 C77.8500818,112.377096 78.4174401,111.883821 79.2315379,111.883821 L87.6566036,111.883821 C88.4711096,111.883821 89.0386719,112.377096 89.0386719,112.820166 C89.0386719,113.262011 88.4711096,113.75447 87.6566036,113.75447 L79.2315379,113.75447 C78.4174401,113.75447 77.8500818,113.262011 77.8500818,112.820166 L77.8500818,112.820166 Z M77.8500818,136.731662 C77.8500818,136.289 78.4174401,135.795521 79.2315379,135.795521 L87.6566036,135.795521 C88.4711096,135.795521 89.0386719,136.289 89.0386719,136.731662 C89.0386719,137.173712 88.4711096,137.666375 87.6566036,137.666375 L79.2315379,137.666375 C78.4174401,137.666375 77.8500818,137.173712 77.8500818,136.731662 L77.8500818,136.731662 Z M77.8500818,148.293525 C77.8500818,147.850659 78.4174401,147.35718 79.2315379,147.35718 L87.6566036,147.35718 C88.4711096,147.35718 89.0386719,147.850659 89.0386719,148.293525 C89.0386719,148.73537 88.4711096,149.227829 87.6566036,149.227829 L79.2315379,149.227829 C78.4174401,149.227829 77.8500818,148.73537 77.8500818,148.293525 L77.8500818,148.293525 Z M79.2315379,160.789896 C78.4174401,160.789896 77.8500818,160.297437 77.8500818,159.855388 C77.8500818,159.412726 78.4174401,158.919247 79.2315379,158.919247 L87.6566036,158.919247 C88.4711096,158.919247 89.0386719,159.412726 89.0386719,159.855388 C89.0386719,160.297437 88.4711096,160.789896 87.6566036,160.789896 L79.2315379,160.789896 L79.2315379,160.789896 Z M143.255465,132.666887 L112.613835,132.666887 C111.234012,132.666887 110.11154,131.570131 110.11154,130.221941 L110.11154,119.772549 C110.11154,118.424359 111.234012,117.327194 112.613835,117.327194 L143.255465,117.327194 L143.255465,132.666887 L143.255465,132.666887 Z M143.255465,114.475913 L112.613835,114.475913 C109.661735,114.475913 107.260259,116.852083 107.260259,119.772345 L107.260259,130.221737 C107.260259,133.142203 109.661735,135.517964 112.613835,135.517964 L143.255465,135.517964 L143.255465,166.338578 C143.255465,167.369415 142.417285,168.207799 141.386449,168.207799 L86.738422,168.207799 C85.7081974,168.207799 84.8700175,167.369415 84.8700175,166.338578 L84.8700175,163.640973 L87.6563995,163.640973 C89.9907317,163.640973 91.8897491,161.942776 91.8897491,159.855184 C91.8897491,157.766979 89.9907317,156.067761 87.6563995,156.067761 L84.8700175,156.067761 L84.8700175,152.078906 L87.6563995,152.078906 C89.9907317,152.078906 91.8897491,150.380709 91.8897491,148.293321 C91.8897491,146.204912 89.9907317,144.505898 87.6563995,144.505898 L84.8700175,144.505898 L84.8700175,140.517044 L87.6563995,140.517044 C89.9907317,140.517044 91.8897491,138.818847 91.8897491,136.731254 C91.8897491,134.642845 89.9907317,132.944036 87.6563995,132.944036 L84.8700175,132.944036 L84.8700175,116.605139 L87.6563995,116.605139 C89.9907317,116.605139 91.8897491,114.906942 91.8897491,112.819553 C91.8897491,110.731145 89.9907317,109.031927 87.6563995,109.031927 L84.8700175,109.031927 L84.8700175,105.043072 L87.6563995,105.043072 C89.9907317,105.043072 91.8897491,103.345079 91.8897491,101.257487 C91.8897491,99.1692817 89.9907317,97.4700642 87.6563995,97.4700642 L84.8700175,97.4700642 L84.8700175,93.4820256 L87.6563995,93.4820256 C89.9907317,93.4820256 91.8897491,91.7838286 91.8897491,89.6964401 C91.8897491,87.6080312 89.9907317,85.9088137 87.6563995,85.9088137 L84.8700175,85.9088137 L84.8700175,83.6552994 C84.8700175,82.6246667 85.7081974,81.7860785 86.738422,81.7860785 L141.386449,81.7860785 C142.417285,81.7860785 143.255465,82.6246667 143.255465,83.6552994 L143.255465,114.475913 L143.255465,114.475913 Z M119.285601,129.695808 C121.875856,129.695808 123.983245,127.588011 123.983245,124.997143 C123.983245,122.406275 121.875856,120.298478 119.285601,120.298478 C116.694937,120.298478 114.58714,122.406275 114.58714,124.997143 C114.58714,127.588011 116.694937,129.695808 119.285601,129.695808 L119.285601,129.695808 Z M119.285601,123.149351 C120.303784,123.149351 121.132372,123.978143 121.132372,124.997143 C121.132372,126.015735 120.303784,126.844731 119.285601,126.844731 C118.267213,126.844731 117.438421,126.015735 117.438421,124.997143 C117.438421,123.978347 118.267213,123.149351 119.285601,123.149351 L119.285601,123.149351 Z M173.575661,171.064999 L153.617508,171.064999 C152.830146,171.064999 152.192174,170.426619 152.192174,169.63946 C152.192174,168.852097 152.830146,168.213921 153.617508,168.213921 L173.575661,168.213921 C174.363023,168.213921 175.000995,168.852097 175.000995,169.63946 C175.000995,170.426619 174.363023,171.064999 173.575661,171.064999 L173.575661,171.064999 Z M159.530075,99.36051 C158.742713,99.36051 158.104332,98.722334 158.104332,97.9349714 L158.104332,93.5608027 C158.104332,92.7734401 158.742713,92.1352641 159.530075,92.1352641 C160.317234,92.1352641 160.95541,92.7734401 160.95541,93.5608027 L160.95541,97.9349714 C160.955614,98.722334 160.317234,99.36051 159.530075,99.36051 L159.530075,99.36051 Z M159.530075,138.334959 C158.742713,138.334959 158.104332,137.696783 158.104332,136.909421 L158.104332,102.720985 C158.104332,101.933827 158.742713,101.295446 159.530075,101.295446 C160.317234,101.295446 160.95541,101.933827 160.95541,102.720985 L160.95541,136.909421 C160.955614,137.696783 160.317234,138.334959 159.530075,138.334959 L159.530075,138.334959 Z M162.485644,154.547323 L155.693672,154.547323 C155.348563,154.547323 155.067537,154.267317 155.067537,153.922617 L155.054068,87.1508792 C155.054068,86.8063826 155.335298,86.526377 155.680203,86.526377 L162.472175,86.526377 C162.817079,86.526377 163.097493,86.8063826 163.097493,87.1512874 L163.110963,153.922821 C163.110963,154.267317 162.830549,154.547323 162.485644,154.547323 L162.485644,154.547323 Z M159.083127,162.010737 L156.842471,157.3984 L161.322764,157.3984 L159.083127,162.010737 L159.083127,162.010737 Z M160.81459,81.7915889 L160.81459,83.6752998 L157.350032,83.6752998 L157.350032,81.7915889 L160.81459,81.7915889 L160.81459,81.7915889 Z M165.948774,87.1508792 C165.948774,85.6541147 164.995898,84.3791914 163.665872,83.8908143 L163.665872,81.0387167 C163.665872,79.8817549 162.724424,78.9405117 161.567463,78.9405117 L156.597568,78.9405117 C155.440198,78.9405117 154.498955,79.8817549 154.498955,81.0387167 L154.498955,83.8861203 C153.161989,84.371028 152.202786,85.6494207 152.202786,87.1512874 L152.216256,153.922821 C152.216256,154.817124 152.558916,155.630814 153.115662,156.247357 C153.121376,156.260214 153.12607,156.27348 153.132193,156.286133 C153.132193,156.286133 156.634099,163.494032 157.801061,165.896937 C158.039637,166.387967 158.537606,166.69981 159.083536,166.699606 C159.629465,166.699606 160.12723,166.387967 160.365602,165.896732 C161.53236,163.494032 165.032021,156.285929 165.032021,156.285929 C165.033654,156.282459 165.034879,156.279194 165.036307,156.275725 C165.608768,155.65612 165.961836,154.830798 165.961836,153.922617 L165.948774,87.1508792 L165.948774,87.1508792 Z" class="icon" fill="#FFFFFF"></path>
</svg>