<svg class="category-baking" width="250px" height="250px" viewBox="0 0 250 250" version="1.1" xmlns="http://www.w3.org/2000/svg" xmlns:xlink="http://www.w3.org/1999/xlink">
    <circle class="background" cx="125" cy="125" r="125" fill="#000000"></circle>
    <path d="M173.602386,132.191914 L171.474761,132.191914 L171.450641,131.9688 C170.833559,126.338685 166.520019,121.736704 160.962265,120.778921 L160.650709,120.72465 L160.773322,120.433195 C161.312012,119.154811 161.562261,118.038235 161.562261,116.92166 C161.562261,114.210119 160.337144,111.686517 158.112032,109.818187 L157.836657,109.586028 L158.149218,109.407135 C160.821563,107.888551 162.415522,105.239322 162.415522,102.321753 C162.415522,97.7579629 158.707003,94.0444187 154.147233,94.0444187 L83.6994419,94.0444187 C79.1406771,94.0444187 75.431153,97.7579629 75.431153,102.321753 C75.431153,104.944852 76.7597878,107.372977 79.0763559,108.984022 L79.3698213,109.189046 L79.0783659,109.39608 C76.4864227,111.234259 75,113.976955 75,116.922665 C75,120.885453 77.4622958,124.298497 81.2723218,125.617081 L81.4411649,125.676378 L81.4411649,155.952566 L126.56952,155.952566 C126.798664,155.956586 151.119112,155.952566 151.365342,155.952566 L166.192383,155.955581 C166.779314,155.955581 167.308958,155.580709 167.510967,155.021919 L174.92499,134.066274 C175.068708,133.624066 175.004387,133.154722 174.745092,132.784875 C174.484792,132.414023 174.057659,132.191914 173.602386,132.191914 L173.602386,132.191914 Z M168.501916,131.908499 L168.546136,132.197944 L149.044753,132.197944 L149.064854,131.928599 C149.429676,127.050238 153.633669,123.370865 158.843686,123.370865 C163.918025,123.370865 167.708956,126.722602 168.501916,131.908499 L168.501916,131.908499 Z M78.2331452,102.323763 C78.2331452,99.3026766 80.6874009,96.8444009 83.703462,96.8444009 L134.182537,96.8444009 L134.247863,96.8946518 C134.317209,96.9449027 134.35942,97.0052038 134.389571,97.0484197 C134.393591,97.069525 136.269961,97.9308261 136.885032,99.6232776 C137.248849,100.644377 137.107141,101.772008 136.453879,103.072502 C136.286041,103.402148 136.258905,103.77702 136.374483,104.128776 C136.493075,104.485558 136.745334,104.776009 137.083021,104.945857 C137.728243,105.282538 138.621704,104.989072 138.954366,104.326765 C139.960389,102.329793 140.145313,100.431313 139.507126,98.6845901 C139.307127,98.1247947 139.002606,97.6695212 138.706126,97.2504284 L138.425726,96.854451 L140.879981,96.854451 L140.947318,96.905707 C141.012644,96.9549529 141.052845,97.011234 141.08199,97.0534447 C141.299074,97.1800771 143.010621,98.0504233 143.578457,99.6343328 C143.945288,100.651412 143.806596,101.779043 143.154339,103.080542 C142.985496,103.414208 142.957355,103.7931 143.074942,104.146867 C143.192529,104.499628 143.441774,104.788069 143.77544,104.955907 C144.467898,105.300628 145.325179,104.995103 145.646785,104.33983 C146.656829,102.336828 146.844767,100.438348 146.206581,98.6936353 C146.017637,98.1639904 145.732212,97.7308274 145.405581,97.2584686 L145.131211,96.8634962 L147.576421,96.8634962 L147.642752,96.9137471 C147.713104,96.9660081 147.754309,97.0263092 147.78446,97.069525 C147.793505,97.0926405 149.661835,97.9489164 150.277911,99.643378 C150.642733,100.664477 150.501026,101.792108 149.848768,103.091597 C149.68093,103.422248 149.65279,103.79712 149.769372,104.148877 C149.886959,104.505658 150.137209,104.796109 150.474895,104.964952 C151.148258,105.312689 152.012574,105.017213 152.34825,104.347871 C153.351259,102.351903 153.538192,100.452418 152.906035,98.7026804 C152.707042,98.1559503 152.413576,97.713742 152.105035,97.2715338 L151.828655,96.8765615 L154.146228,96.8765615 C157.163295,96.8765615 159.616545,99.3338322 159.616545,102.353913 C159.616545,105.369975 157.163295,107.823225 154.146228,107.823225 L83.3838661,107.767949 C80.4954423,107.5579 78.2331452,105.165956 78.2331452,102.323763 L78.2331452,102.323763 Z M108.246019,153.143539 L101.509378,153.143539 L101.509378,126.193962 C101.509378,125.424118 100.882247,124.797991 100.111397,124.797991 C99.3395431,124.797991 98.7124114,125.426128 98.7124114,126.197982 L98.7124114,153.149569 L93.26521,153.149569 L93.26521,126.197982 C93.26521,125.426128 92.6370733,124.797991 91.8642139,124.797991 C91.0923596,124.797991 90.4642229,125.426128 90.4642229,126.197982 L90.4642229,153.149569 L84.2431571,153.149569 L84.2431571,123.448251 L83.1255763,123.226142 C79.9889129,122.579915 77.7999821,119.984957 77.7999821,116.91563 C77.7999821,113.73776 80.1416757,111.051345 83.3677858,110.526726 C83.6280856,110.527731 103.696299,110.587027 103.899313,110.587027 L104.434988,110.589037 L104.091272,111.000089 C102.594799,112.786008 101.803849,114.832226 101.803849,116.91563 C101.803849,120.877413 104.266145,124.290457 108.077176,125.610046 L108.246019,125.669342 L108.246019,153.143539 L108.246019,153.143539 Z M104.600816,116.91965 C104.600816,113.849317 106.766631,111.248329 109.867114,110.596072 L153.436685,110.591047 C156.591439,111.253354 158.757254,113.854343 158.757254,116.91965 C158.757254,118.200043 158.320071,119.472397 157.493946,120.600028 L157.429625,120.687465 L157.321082,120.70053 C156.745207,120.767866 156.070839,120.861333 155.433657,121.053292 C154.201504,121.423138 153.140205,121.877407 152.192472,122.439212 C148.821639,124.436185 146.550297,127.997971 146.116129,131.96679 L146.092008,132.189904 L143.963379,132.189904 C143.778455,132.189904 143.616647,132.314526 143.430719,132.459249 C143.375443,132.502465 143.320167,132.544675 143.264891,132.584876 L142.998561,132.77382 L142.883989,132.468294 C140.347322,125.672358 133.807665,121.107563 126.609721,121.107563 C120.414785,121.107563 114.631908,124.513571 111.517355,129.995948 L111.048011,130.823078 L111.048011,123.451266 L109.92641,123.229157 C106.789747,122.583935 104.600816,119.989982 104.600816,116.91965 L104.600816,116.91965 Z M111.048011,153.149569 L111.048011,146.236045 L111.517355,147.061166 C112.817849,149.348588 114.50829,151.243049 116.540438,152.694296 L117.17963,153.149569 L111.048011,153.149569 L111.048011,153.149569 Z M126.656957,153.149569 L126.56952,153.149569 C118.530375,153.129469 111.988709,146.570717 111.988709,138.529562 C111.988709,130.467302 118.547461,123.90855 126.609721,123.90855 C134.674996,123.90855 141.236763,130.467302 141.236763,138.529562 C141.236763,146.570717 134.696101,153.129469 126.656957,153.149569 L126.656957,153.149569 Z M136.046846,153.149569 L136.685033,152.694296 C141.09204,149.546577 143.742275,144.639071 143.959359,139.23207 L144.012625,137.925546 L149.3945,153.149569 L136.046846,153.149569 L136.046846,153.149569 Z M165.202439,153.156604 L152.363325,153.156604 L152.304029,152.988766 L145.936231,134.993906 L171.622499,134.993906 L165.202439,153.156604 L165.202439,153.156604 Z M126.609721,132.760754 C123.429842,132.760754 120.843928,135.348678 120.843928,138.529562 C120.843928,141.710446 123.429842,144.297364 126.609721,144.297364 C129.790605,144.297364 132.378528,141.710446 132.378528,138.529562 C132.378528,135.348678 129.790605,132.760754 126.609721,132.760754 L126.609721,132.760754 Z M126.609721,141.499392 C124.974555,141.499392 123.643911,140.167742 123.643911,138.529562 C123.643911,136.890376 124.974555,135.556717 126.609721,135.556717 C128.248906,135.556717 129.583571,136.890376 129.583571,138.529562 C129.580556,140.167742 128.244886,141.499392 126.609721,141.499392 L126.609721,141.499392 Z" class="icon" fill="#FFFFFF"></path>
</svg>