<svg width="200px" height="200px" viewBox="0 0 200 200" version="1.1" xmlns="http://www.w3.org/2000/svg" xmlns:xlink="http://www.w3.org/1999/xlink">
	<circle class="background" fill="#000000" cx="100" cy="100" r="100"></circle>
    <path d="M141.706667,121.646667 L100,121.646667 C99.941111,121.646667 99.874444,121.653333 99.815556,121.661111 C99.83,121.653333 99.837778,121.653333 99.852222,121.653333 C99.903333,121.646667 99.947778,121.646667 100,121.646667 L58.3,121.646667 L58.3,62.718889 L141.706667,62.718889 L141.706667,121.646667 L141.706667,121.646667 Z M148.525556,59.7711112 L101.474444,59.7711112 L101.474444,53.8511112 C101.474444,53.0400001 100.818889,52.3766668 100,52.3766668 C99.188889,52.3766668 98.525556,53.0400001 98.525556,53.8511112 L98.525556,59.7700001 L51.4744444,59.7700001 C50.6633333,59.7711112 50,60.4266668 50,61.2455557 C50,62.0566668 50.6633333,62.7200001 51.4744444,62.7200001 L55.3522222,62.7200001 L55.3522222,123.121111 C55.3522222,123.938889 56.0077778,124.595556 56.8266667,124.595556 L95.253333,124.595556 L65.4722222,144.932222 C64.7944444,145.388889 64.6244444,146.303333 65.0811111,146.981111 C65.3688889,147.394444 65.8333333,147.622222 66.2977778,147.622222 C66.5855556,147.622222 66.88,147.541111 67.1311111,147.364444 L98.525556,125.928889 L98.525556,146.148889 C98.525556,146.96 99.188889,147.623333 100,147.623333 C100.817778,147.623333 101.474444,146.96 101.474444,146.148889 L101.474444,125.906667 L132.898889,147.364444 C133.156667,147.541111 133.444444,147.622222 133.732222,147.622222 C134.196667,147.622222 134.661111,147.393333 134.948889,146.981111 C135.405556,146.303333 135.236667,145.388889 134.565556,144.932222 L104.776667,124.594444 L143.181111,124.594444 C143.992222,124.594444 144.655556,123.937778 144.655556,123.12 L144.655556,62.718889 L148.525556,62.718889 C149.343333,62.718889 150,62.0555557 150,61.2444445 C150,60.4266668 149.344444,59.7711112 148.525556,59.7711112 L148.525556,59.7711112 L148.525556,59.7711112 Z M125.851111,104.146667 C126.425556,104.721111 126.425556,105.657778 125.851111,106.233333 C125.563333,106.521111 125.187778,106.667778 124.812222,106.667778 C124.428889,106.667778 124.053333,106.52 123.765556,106.233333 L120.603333,103.071111 L117.441111,106.233333 C117.153333,106.521111 116.777778,106.667778 116.394444,106.667778 C116.018889,106.667778 115.642222,106.52 115.355556,106.233333 C114.781111,105.658889 114.781111,104.722222 115.355556,104.146667 L118.517778,100.984444 L115.355556,97.8222221 C114.781111,97.2477781 114.781111,96.3111111 115.355556,95.7355561 C115.93,95.1611111 116.866667,95.1611111 117.442222,95.7355561 L120.604444,98.8977781 L123.766667,95.7355561 C124.341111,95.1611111 125.277778,95.1611111 125.852222,95.7355561 C126.426667,96.3100001 126.426667,97.2466671 125.852222,97.8222221 L122.69,100.984444 L125.851111,104.146667 L125.851111,104.146667 Z M97.596667,84.0588891 C98.171111,84.6333331 98.171111,85.5700001 97.596667,86.1455561 C97.308889,86.4333331 96.933333,86.5800001 96.557778,86.5800001 C96.182222,86.5800001 95.805556,86.4322221 95.518889,86.1455561 L92.348889,82.9833331 L89.186667,86.1455561 C88.898889,86.4333331 88.523333,86.5800001 88.147778,86.5800001 C87.772222,86.5800001 87.388889,86.4322221 87.101111,86.1455561 C86.526667,85.5711111 86.526667,84.6344441 87.101111,84.0588891 L90.263333,80.8966671 L87.101111,77.7344441 C86.526667,77.1600001 86.526667,76.2233331 87.101111,75.6477781 C87.675556,75.0733331 88.612222,75.0733331 89.186667,75.6477781 L92.348889,78.8100001 L95.518889,75.6477781 C96.093333,75.0733331 97.022222,75.0733331 97.597778,75.6477781 C98.172222,76.2222221 98.172222,77.1588891 97.597778,77.7344441 L94.435556,80.8966671 L97.596667,84.0588891 L97.596667,84.0588891 Z M81.998889,97.3944441 C82.573333,97.9688891 82.573333,98.9055561 81.998889,99.4811111 C81.711111,99.7688891 81.335556,99.9088891 80.96,99.9088891 C80.584444,99.9088891 80.207778,99.7688891 79.913333,99.4811111 L76.751111,96.3188891 L73.5888889,99.4811111 C73.3011111,99.7688891 72.9255556,99.9088891 72.55,99.9088891 C72.1666667,99.9088891 71.7911111,99.7688891 71.5033333,99.4811111 C70.9288889,98.9066671 70.9288889,97.9700001 71.5033333,97.3944441 L74.6655556,94.2322221 L71.5033333,91.0700001 C70.9288889,90.4877781 70.9288889,89.5588891 71.5033333,88.9844441 C72.0777778,88.4100001 73.0144444,88.4100001 73.59,88.9844441 L76.752222,92.1466671 L79.914444,88.9844441 C80.488889,88.4100001 81.425556,88.4100001 82,88.9844441 C82.574444,89.5588891 82.574444,90.4877781 82,91.0700001 L78.837778,94.2322221 L81.998889,97.3944441 L81.998889,97.3944441 Z M116.747778,73.2755557 L106.877778,70.8355557 C106.088889,70.6366668 105.285556,71.1155557 105.094444,71.9122223 L102.646667,81.7822221 C102.455556,82.5711111 102.934444,83.3744441 103.723333,83.5655561 C103.841111,83.5955561 103.958889,83.6100001 104.076667,83.6100001 C104.74,83.6100001 105.344444,83.1600001 105.506667,82.4900001 L107.098889,76.0700001 L107.725556,77.1088891 C110.173333,81.1700001 110.895556,85.9466671 109.752222,90.5544441 C108.616667,95.1611111 105.75,99.0466671 101.681111,101.501111 C101.054444,101.876667 100.405556,102.216667 99.742222,102.511111 C98.673333,100.646667 96.852222,99.2311111 94.59,98.7522221 C94.058889,98.6411111 93.521111,98.5900001 92.983333,98.5900001 C89.32,98.5900001 86.121111,101.192222 85.368889,104.774444 C84.484444,108.975556 87.182222,113.111111 91.384444,113.995556 C91.915556,114.105556 92.461111,114.165556 92.998889,114.165556 C96.655556,114.165556 99.854444,111.563333 100.613333,107.981111 C100.804444,107.081111 100.826667,106.182222 100.702222,105.312222 C101.564444,104.943333 102.405556,104.508889 103.208889,104.022222 C107.948889,101.168889 111.287778,96.6355561 112.622222,91.2622221 C113.948889,85.8955561 113.108889,80.3233331 110.248889,75.5911111 L109.622222,74.5522223 L116.042222,76.1444441 C116.831111,76.3355561 117.634444,75.8566671 117.833333,75.0611111 C118.023333,74.2700001 117.543333,73.4744445 116.747778,73.2755557 L116.747778,73.2755557 L116.747778,73.2755557 Z M97.722222,107.367778 C97.257778,109.601111 95.267778,111.215556 92.996667,111.215556 C92.657778,111.215556 92.325556,111.178889 91.994444,111.112222 C89.377778,110.558889 87.704444,107.994444 88.25,105.377778 C88.722222,103.151111 90.712222,101.536667 92.982222,101.536667 C93.314444,101.536667 93.653333,101.566667 93.984444,101.64 C96.594444,102.185556 98.275556,104.757778 97.722222,107.367778 L97.722222,107.367778 L97.722222,107.367778 Z" class="icon" fill="#FFFFFF"></path>
</svg>