<svg class="category-consulting" width="250px" height="250px" viewBox="0 0 250 250" version="1.1" xmlns="http://www.w3.org/2000/svg" xmlns:xlink="http://www.w3.org/1999/xlink">
    <circle class="background" cx="125" cy="125" r="125" fill="#000000"></circle>
    <path d="M166.706667,146.646667 L125,146.646667 C124.941111,146.646667 124.874444,146.653333 124.815556,146.661111 C124.83,146.653333 124.837778,146.653333 124.852222,146.653333 C124.903333,146.646667 124.947778,146.646667 125,146.646667 L83.3,146.646667 L83.3,87.7188889 L166.706667,87.7188889 L166.706667,146.646667 L166.706667,146.646667 Z M173.525556,84.7711111 L126.474444,84.7711111 L126.474444,78.8511111 C126.474444,78.04 125.818889,77.3766667 125,77.3766667 C124.188889,77.3766667 123.525556,78.04 123.525556,78.8511111 L123.525556,84.77 L76.4744444,84.77 C75.6633333,84.7711111 75,85.4266667 75,86.2455556 C75,87.0566667 75.6633333,87.72 76.4744444,87.72 L80.3522222,87.72 L80.3522222,148.121111 C80.3522222,148.938889 81.0077778,149.595556 81.8266667,149.595556 L120.253333,149.595556 L90.4722222,169.932222 C89.7944444,170.388889 89.6244444,171.303333 90.0811111,171.981111 C90.3688889,172.394444 90.8333333,172.622222 91.2977778,172.622222 C91.5855556,172.622222 91.88,172.541111 92.1311111,172.364444 L123.525556,150.928889 L123.525556,171.148889 C123.525556,171.96 124.188889,172.623333 125,172.623333 C125.817778,172.623333 126.474444,171.96 126.474444,171.148889 L126.474444,150.906667 L157.898889,172.364444 C158.156667,172.541111 158.444444,172.622222 158.732222,172.622222 C159.196667,172.622222 159.661111,172.393333 159.948889,171.981111 C160.405556,171.303333 160.236667,170.388889 159.565556,169.932222 L129.776667,149.594444 L168.181111,149.594444 C168.992222,149.594444 169.655556,148.937778 169.655556,148.12 L169.655556,87.7188889 L173.525556,87.7188889 C174.343333,87.7188889 175,87.0555556 175,86.2444444 C175,85.4266667 174.344444,84.7711111 173.525556,84.7711111 L173.525556,84.7711111 Z M150.851111,129.146667 C151.425556,129.721111 151.425556,130.657778 150.851111,131.233333 C150.563333,131.521111 150.187778,131.667778 149.812222,131.667778 C149.428889,131.667778 149.053333,131.52 148.765556,131.233333 L145.603333,128.071111 L142.441111,131.233333 C142.153333,131.521111 141.777778,131.667778 141.394444,131.667778 C141.018889,131.667778 140.642222,131.52 140.355556,131.233333 C139.781111,130.658889 139.781111,129.722222 140.355556,129.146667 L143.517778,125.984444 L140.355556,122.822222 C139.781111,122.247778 139.781111,121.311111 140.355556,120.735556 C140.93,120.161111 141.866667,120.161111 142.442222,120.735556 L145.604444,123.897778 L148.766667,120.735556 C149.341111,120.161111 150.277778,120.161111 150.852222,120.735556 C151.426667,121.31 151.426667,122.246667 150.852222,122.822222 L147.69,125.984444 L150.851111,129.146667 L150.851111,129.146667 Z M122.596667,109.058889 C123.171111,109.633333 123.171111,110.57 122.596667,111.145556 C122.308889,111.433333 121.933333,111.58 121.557778,111.58 C121.182222,111.58 120.805556,111.432222 120.518889,111.145556 L117.348889,107.983333 L114.186667,111.145556 C113.898889,111.433333 113.523333,111.58 113.147778,111.58 C112.772222,111.58 112.388889,111.432222 112.101111,111.145556 C111.526667,110.571111 111.526667,109.634444 112.101111,109.058889 L115.263333,105.896667 L112.101111,102.734444 C111.526667,102.16 111.526667,101.223333 112.101111,100.647778 C112.675556,100.073333 113.612222,100.073333 114.186667,100.647778 L117.348889,103.81 L120.518889,100.647778 C121.093333,100.073333 122.022222,100.073333 122.597778,100.647778 C123.172222,101.222222 123.172222,102.158889 122.597778,102.734444 L119.435556,105.896667 L122.596667,109.058889 L122.596667,109.058889 Z M106.998889,122.394444 C107.573333,122.968889 107.573333,123.905556 106.998889,124.481111 C106.711111,124.768889 106.335556,124.908889 105.96,124.908889 C105.584444,124.908889 105.207778,124.768889 104.913333,124.481111 L101.751111,121.318889 L98.5888889,124.481111 C98.3011111,124.768889 97.9255556,124.908889 97.55,124.908889 C97.1666667,124.908889 96.7911111,124.768889 96.5033333,124.481111 C95.9288889,123.906667 95.9288889,122.97 96.5033333,122.394444 L99.6655556,119.232222 L96.5033333,116.07 C95.9288889,115.487778 95.9288889,114.558889 96.5033333,113.984444 C97.0777778,113.41 98.0144444,113.41 98.59,113.984444 L101.752222,117.146667 L104.914444,113.984444 C105.488889,113.41 106.425556,113.41 107,113.984444 C107.574444,114.558889 107.574444,115.487778 107,116.07 L103.837778,119.232222 L106.998889,122.394444 L106.998889,122.394444 Z M141.747778,98.2755556 L131.877778,95.8355556 C131.088889,95.6366667 130.285556,96.1155556 130.094444,96.9122222 L127.646667,106.782222 C127.455556,107.571111 127.934444,108.374444 128.723333,108.565556 C128.841111,108.595556 128.958889,108.61 129.076667,108.61 C129.74,108.61 130.344444,108.16 130.506667,107.49 L132.098889,101.07 L132.725556,102.108889 C135.173333,106.17 135.895556,110.946667 134.752222,115.554444 C133.616667,120.161111 130.75,124.046667 126.681111,126.501111 C126.054444,126.876667 125.405556,127.216667 124.742222,127.511111 C123.673333,125.646667 121.852222,124.231111 119.59,123.752222 C119.058889,123.641111 118.521111,123.59 117.983333,123.59 C114.32,123.59 111.121111,126.192222 110.368889,129.774444 C109.484444,133.975556 112.182222,138.111111 116.384444,138.995556 C116.915556,139.105556 117.461111,139.165556 117.998889,139.165556 C121.655556,139.165556 124.854444,136.563333 125.613333,132.981111 C125.804444,132.081111 125.826667,131.182222 125.702222,130.312222 C126.564444,129.943333 127.405556,129.508889 128.208889,129.022222 C132.948889,126.168889 136.287778,121.635556 137.622222,116.262222 C138.948889,110.895556 138.108889,105.323333 135.248889,100.591111 L134.622222,99.5522222 L141.042222,101.144444 C141.831111,101.335556 142.634444,100.856667 142.833333,100.061111 C143.023333,99.27 142.543333,98.4744444 141.747778,98.2755556 L141.747778,98.2755556 Z M122.722222,132.367778 C122.257778,134.601111 120.267778,136.215556 117.996667,136.215556 C117.657778,136.215556 117.325556,136.178889 116.994444,136.112222 C114.377778,135.558889 112.704444,132.994444 113.25,130.377778 C113.722222,128.151111 115.712222,126.536667 117.982222,126.536667 C118.314444,126.536667 118.653333,126.566667 118.984444,126.64 C121.594444,127.185556 123.275556,129.757778 122.722222,132.367778 L122.722222,132.367778 Z" class="icon" fill="#FFFFFF"></path>
</svg>