<svg class="category-delivery" width="250px" height="250px" viewBox="0 0 250 250" version="1.1" xmlns="http://www.w3.org/2000/svg" xmlns:xlink="http://www.w3.org/1999/xlink">
    <circle class="background" cx="125" cy="125" r="125" fill="#000000"></circle>
    <path d="M157.173643,157.786105 C150.634153,157.786105 145.229194,152.83716 144.507799,146.487145 L97.0081308,146.487145 C96.2867356,152.83716 90.8817768,157.786105 84.3422865,157.786105 C77.8027962,157.786105 72.3978374,152.83716 71.6764423,146.487145 L64.4485846,146.487145 C63.6483865,146.487145 63,145.838759 63,145.03856 L63,120.606153 C63,117.624387 65.4260895,115.197718 68.407856,115.197718 L68.6008075,115.197718 L68.6008075,111.367081 C68.6008075,109.693676 69.5058831,108.14369 70.9620004,107.320315 L96.4257998,92.920225 C97.2416426,92.4584163 98.1698956,92.2138952 99.1091579,92.2138952 L101.006224,92.2138952 C104.012327,92.2138952 106.457538,94.659106 106.457538,97.6646293 L106.457538,115.197718 L109.161755,115.197718 L109.161755,97.1390828 C109.161755,96.3388847 109.810142,95.6904982 110.61034,95.6904982 L140.031673,95.6904982 C142.698227,95.6904982 145.055364,97.3899777 145.89844,99.9192064 L149.783544,112.660377 L174.778582,116.800432 C178.726264,117.454613 181.591565,120.833871 181.591565,124.834861 L181.591565,132.001299 L182.557481,132.001299 L182.557481,121.426632 C182.557481,120.626433 183.205867,119.978047 184.006065,119.978047 C184.806263,119.978047 185.45465,120.626433 185.45465,121.426632 L185.45465,132.001299 L185.551415,132.001299 C186.351614,132.001299 187,132.649686 187,133.449884 L187,141.176054 C187,144.104513 184.617368,146.487145 181.68833,146.487145 L169.840646,146.487145 C169.118672,152.83716 163.713134,157.786105 157.173643,157.786105 L157.173643,157.786105 Z M157.173643,135.188185 C151.74203,135.188185 147.323268,139.606948 147.323268,145.03856 C147.323268,150.470173 151.74203,154.888936 157.173643,154.888936 C162.605256,154.888936 167.024018,150.470173 167.024018,145.03856 C167.024018,139.606948 162.605256,135.188185 157.173643,135.188185 L157.173643,135.188185 Z M84.3422865,135.188185 C78.9106737,135.188185 74.4919113,139.606948 74.4919113,145.03856 C74.4919113,150.470173 78.9106737,154.888936 84.3422865,154.888936 C89.7738993,154.888936 94.1926618,150.470173 94.1926618,145.03856 C94.1926618,139.606948 89.7738993,135.188185 84.3422865,135.188185 L84.3422865,135.188185 Z M174.773946,143.589976 L181.687171,143.589976 C183.01871,143.589976 184.101672,142.507014 184.101672,141.176054 L184.101672,134.898468 L180.142401,134.898468 C179.342202,134.898468 178.693816,134.250082 178.693816,133.449884 L178.693816,124.834861 C178.693816,122.25696 176.84774,120.080027 174.304605,119.658779 L148.423033,115.372127 C147.880104,115.282315 147.434519,114.891777 147.274596,114.365651 L143.138597,100.799366 C142.702283,99.4910048 141.448968,98.5882468 140.032252,98.5882468 L112.058925,98.5882468 L112.058925,116.646882 C112.058925,117.44708 111.410538,118.095466 110.61034,118.095466 L68.407856,118.095466 C67.0235886,118.094887 65.8971692,119.221306 65.8971692,120.606153 L65.8971692,143.589976 L67.1528023,143.589976 L67.1528023,134.560658 C67.1528023,129.262315 71.4632106,124.951907 76.7615536,124.951907 L92.7440772,124.951907 C98.0424202,124.951907 102.352828,129.262315 102.352828,134.560658 L102.352828,143.589976 L139.57334,143.589976 L139.57334,141.561957 L126.785815,141.561957 C125.985617,141.561957 125.33723,140.913571 125.33723,140.113373 L125.33723,102.160456 C125.33723,101.360258 125.985617,100.711872 126.785815,100.711872 L138.773722,100.711872 C140.304007,100.711872 141.646555,101.744423 142.038252,103.223718 L145.496313,116.273726 C145.496313,116.274885 145.496893,116.276624 145.497472,116.278362 L147.801301,125.05099 C148.25268,124.986094 148.713909,124.951907 149.182671,124.951907 L165.165195,124.951907 C170.463538,124.951907 174.773946,129.262315 174.773946,134.560658 L174.773946,143.589976 L174.773946,143.589976 Z M169.839487,143.589976 L171.876777,143.589976 L171.876777,134.560658 C171.876777,130.859814 168.866039,127.849076 165.165195,127.849076 L149.182671,127.849076 C145.481827,127.849076 142.471089,130.859814 142.471089,134.560658 L142.471089,143.589976 L144.508378,143.589976 C145.229774,137.23996 150.634732,132.291016 157.174223,132.291016 C163.713713,132.291016 169.118672,137.23996 169.839487,143.589976 L169.839487,143.589976 Z M97.0081308,143.589976 L99.4562387,143.589976 L99.4562387,134.560658 C99.4562387,130.859814 96.4455005,127.849076 92.7446566,127.849076 L76.7615536,127.849076 C73.0607097,127.849076 70.0499715,130.859814 70.0499715,134.560658 L70.0499715,143.589976 L71.6770217,143.589976 C72.3984168,137.23996 77.8033757,132.291016 84.342866,132.291016 C90.8823562,132.291016 96.2867356,137.23996 97.0081308,143.589976 L97.0081308,143.589976 Z M128.2344,138.664788 L139.57334,138.664788 L139.57334,134.560658 C139.57334,130.749722 141.804161,127.449846 145.027551,125.896964 L142.978673,118.094887 L128.23382,118.094887 L128.23382,138.664788 L128.2344,138.664788 Z M128.2344,115.197718 L142.21382,115.197718 L139.237269,103.965972 C139.181643,103.755638 138.991009,103.609041 138.773142,103.609041 L128.23382,103.609041 L128.23382,115.197718 L128.2344,115.197718 Z M71.4985561,115.197718 L103.560369,115.197718 L103.560369,97.6646293 C103.560369,96.2566051 102.414828,95.1110644 101.006224,95.1110644 L99.1091579,95.1110644 C98.6687881,95.1110644 98.2342128,95.2252128 97.8523659,95.4413417 L72.387987,109.842011 C71.8392632,110.152587 71.4985561,110.736657 71.4985561,111.367081 L71.4985561,115.197718 L71.4985561,115.197718 Z M157.173643,152.088532 C153.286222,152.088532 150.123672,148.925982 150.123672,145.03856 C150.123672,141.151718 153.286222,137.989168 157.173643,137.989168 C161.060485,137.989168 164.223615,141.151718 164.223615,145.03856 C164.223615,148.925982 161.061065,152.088532 157.173643,152.088532 L157.173643,152.088532 Z M157.173643,140.886338 C154.883721,140.886338 153.020841,142.749217 153.020841,145.03856 C153.020841,147.328483 154.883721,149.191363 157.173643,149.191363 C159.463566,149.191363 161.326446,147.328483 161.326446,145.03856 C161.326446,142.749217 159.463566,140.886338 157.173643,140.886338 L157.173643,140.886338 Z M84.3422865,152.088532 C80.4554443,152.088532 77.292315,148.925982 77.292315,145.03856 C77.292315,141.151718 80.4548649,137.989168 84.3422865,137.989168 C88.2297081,137.989168 91.392258,141.151718 91.392258,145.03856 C91.392258,148.925982 88.2297081,152.088532 84.3422865,152.088532 L84.3422865,152.088532 Z M84.3422865,140.886338 C82.052364,140.886338 80.1894842,142.749217 80.1894842,145.03856 C80.1894842,147.328483 82.052364,149.191363 84.3422865,149.191363 C86.632209,149.191363 88.4950888,147.328483 88.4950888,145.03856 C88.4950888,142.749217 86.632209,140.886338 84.3422865,140.886338 L84.3422865,140.886338 Z M122.005486,118.094887 L116.018196,118.094887 C115.217998,118.094887 114.569611,117.4465 114.569611,116.646302 L114.569611,102.160456 C114.569611,101.360258 115.217998,100.711872 116.018196,100.711872 L122.005486,100.711872 C122.805684,100.711872 123.454071,101.360258 123.454071,102.160456 L123.454071,116.646302 C123.454071,117.4465 122.805684,118.094887 122.005486,118.094887 L122.005486,118.094887 Z M117.466781,115.197718 L120.556901,115.197718 L120.556901,103.609041 L117.466781,103.609041 L117.466781,115.197718 L117.466781,115.197718 Z" class="icon" fill="#FFFFFF"></path>
</svg>