<svg width="200px" height="200px" viewBox="0 0 200 200" version="1.1" xmlns="http://www.w3.org/2000/svg" xmlns:xlink="http://www.w3.org/1999/xlink">
	<circle class="background" fill="#000000" cx="100" cy="100" r="100"></circle>
    <path d="M132.173643,132.786105 C125.634153,132.786105 120.229194,127.83716 119.507799,121.487145 L72.0081308,121.487145 C71.2867356,127.83716 65.8817768,132.786105 59.3422865,132.786105 C52.8027962,132.786105 47.3978374,127.83716 46.6764423,121.487145 L39.4485846,121.487145 C38.6483865,121.487145 38,120.838759 38,120.03856 L38,95.6061529 C38,92.6243869 40.4260895,90.1977179 43.407856,90.1977179 L43.6008075,90.1977179 L43.6008075,86.3670809 C43.6008075,84.6936759 44.5058831,83.1436899 45.9620004,82.3203149 L71.4257998,67.9202249 C72.2416426,67.4584162 73.1698956,67.2138951 74.1091579,67.2138951 L76.006224,67.2138951 C79.012327,67.2138951 81.457538,69.6591059 81.457538,72.6646292 L81.457538,90.1977179 L84.161755,90.1977179 L84.161755,72.1390827 C84.161755,71.3388846 84.810142,70.6904981 85.61034,70.6904981 L115.031673,70.6904981 C117.698227,70.6904981 120.055364,72.3899776 120.89844,74.9192063 L124.783544,87.6603769 L149.778582,91.8004319 C153.726264,92.4546129 156.591565,95.8338709 156.591565,99.8348609 L156.591565,107.001299 L157.557481,107.001299 L157.557481,96.4266319 C157.557481,95.6264329 158.205867,94.9780469 159.006065,94.9780469 C159.806263,94.9780469 160.45465,95.6264329 160.45465,96.4266319 L160.45465,107.001299 L160.551415,107.001299 C161.351614,107.001299 162,107.649686 162,108.449884 L162,116.176054 C162,119.104513 159.617368,121.487145 156.68833,121.487145 L144.840646,121.487145 C144.118672,127.83716 138.713134,132.786105 132.173643,132.786105 L132.173643,132.786105 L132.173643,132.786105 Z M132.173643,110.188185 C126.74203,110.188185 122.323268,114.606948 122.323268,120.03856 C122.323268,125.470173 126.74203,129.888936 132.173643,129.888936 C137.605256,129.888936 142.024018,125.470173 142.024018,120.03856 C142.024018,114.606948 137.605256,110.188185 132.173643,110.188185 L132.173643,110.188185 L132.173643,110.188185 Z M59.3422865,110.188185 C53.9106737,110.188185 49.4919113,114.606948 49.4919113,120.03856 C49.4919113,125.470173 53.9106737,129.888936 59.3422865,129.888936 C64.7738993,129.888936 69.1926618,125.470173 69.1926618,120.03856 C69.1926618,114.606948 64.7738993,110.188185 59.3422865,110.188185 L59.3422865,110.188185 L59.3422865,110.188185 Z M149.773946,118.589976 L156.687171,118.589976 C158.01871,118.589976 159.101672,117.507014 159.101672,116.176054 L159.101672,109.898468 L155.142401,109.898468 C154.342202,109.898468 153.693816,109.250082 153.693816,108.449884 L153.693816,99.8348609 C153.693816,97.2569599 151.84774,95.0800269 149.304605,94.6587789 L123.423033,90.3721269 C122.880104,90.2823149 122.434519,89.8917769 122.274596,89.3656509 L118.138597,75.7993659 C117.702283,74.4910047 116.448968,73.5882467 115.032252,73.5882467 L87.058925,73.5882467 L87.058925,91.6468819 C87.058925,92.4470799 86.410538,93.0954659 85.61034,93.0954659 L43.407856,93.0954659 C42.0235886,93.0948869 40.8971692,94.2213059 40.8971692,95.6061529 L40.8971692,118.589976 L42.1528023,118.589976 L42.1528023,109.560658 C42.1528023,104.262315 46.4632106,99.9519069 51.7615536,99.9519069 L67.7440772,99.9519069 C73.0424202,99.9519069 77.352828,104.262315 77.352828,109.560658 L77.352828,118.589976 L114.57334,118.589976 L114.57334,116.561957 L101.785815,116.561957 C100.985617,116.561957 100.33723,115.913571 100.33723,115.113373 L100.33723,77.1604559 C100.33723,76.3602579 100.985617,75.7118719 101.785815,75.7118719 L113.773722,75.7118719 C115.304007,75.7118719 116.646555,76.7444229 117.038252,78.2237179 L120.496313,91.2737259 C120.496313,91.2748849 120.496893,91.2766239 120.497472,91.2783619 L122.801301,100.05099 C123.25268,99.9860939 123.713909,99.9519069 124.182671,99.9519069 L140.165195,99.9519069 C145.463538,99.9519069 149.773946,104.262315 149.773946,109.560658 L149.773946,118.589976 L149.773946,118.589976 Z M144.839487,118.589976 L146.876777,118.589976 L146.876777,109.560658 C146.876777,105.859814 143.866039,102.849076 140.165195,102.849076 L124.182671,102.849076 C120.481827,102.849076 117.471089,105.859814 117.471089,109.560658 L117.471089,118.589976 L119.508378,118.589976 C120.229774,112.23996 125.634732,107.291016 132.174223,107.291016 C138.713713,107.291016 144.118672,112.23996 144.839487,118.589976 L144.839487,118.589976 L144.839487,118.589976 Z M72.0081308,118.589976 L74.4562387,118.589976 L74.4562387,109.560658 C74.4562387,105.859814 71.4455005,102.849076 67.7446566,102.849076 L51.7615536,102.849076 C48.0607097,102.849076 45.0499715,105.859814 45.0499715,109.560658 L45.0499715,118.589976 L46.6770217,118.589976 C47.3984168,112.23996 52.8033757,107.291016 59.342866,107.291016 C65.8823562,107.291016 71.2867356,112.23996 72.0081308,118.589976 L72.0081308,118.589976 L72.0081308,118.589976 Z M103.2344,113.664788 L114.57334,113.664788 L114.57334,109.560658 C114.57334,105.749722 116.804161,102.449846 120.027551,100.896964 L117.978673,93.0948869 L103.23382,93.0948869 L103.23382,113.664788 L103.2344,113.664788 L103.2344,113.664788 Z M103.2344,90.1977179 L117.21382,90.1977179 L114.237269,78.9659719 C114.181643,78.7556379 113.991009,78.6090409 113.773142,78.6090409 L103.23382,78.6090409 L103.23382,90.1977179 L103.2344,90.1977179 L103.2344,90.1977179 Z M46.4985561,90.1977179 L78.560369,90.1977179 L78.560369,72.6646292 C78.560369,71.256605 77.414828,70.1110643 76.006224,70.1110643 L74.1091579,70.1110643 C73.6687881,70.1110643 73.2342128,70.2252127 72.8523659,70.4413416 L47.387987,84.8420109 C46.8392632,85.1525869 46.4985561,85.7366569 46.4985561,86.3670809 L46.4985561,90.1977179 L46.4985561,90.1977179 Z M132.173643,127.088532 C128.286222,127.088532 125.123672,123.925982 125.123672,120.03856 C125.123672,116.151718 128.286222,112.989168 132.173643,112.989168 C136.060485,112.989168 139.223615,116.151718 139.223615,120.03856 C139.223615,123.925982 136.061065,127.088532 132.173643,127.088532 L132.173643,127.088532 L132.173643,127.088532 Z M132.173643,115.886338 C129.883721,115.886338 128.020841,117.749217 128.020841,120.03856 C128.020841,122.328483 129.883721,124.191363 132.173643,124.191363 C134.463566,124.191363 136.326446,122.328483 136.326446,120.03856 C136.326446,117.749217 134.463566,115.886338 132.173643,115.886338 L132.173643,115.886338 L132.173643,115.886338 Z M59.3422865,127.088532 C55.4554443,127.088532 52.292315,123.925982 52.292315,120.03856 C52.292315,116.151718 55.4548649,112.989168 59.3422865,112.989168 C63.2297081,112.989168 66.392258,116.151718 66.392258,120.03856 C66.392258,123.925982 63.2297081,127.088532 59.3422865,127.088532 L59.3422865,127.088532 L59.3422865,127.088532 Z M59.3422865,115.886338 C57.052364,115.886338 55.1894842,117.749217 55.1894842,120.03856 C55.1894842,122.328483 57.052364,124.191363 59.3422865,124.191363 C61.632209,124.191363 63.4950888,122.328483 63.4950888,120.03856 C63.4950888,117.749217 61.632209,115.886338 59.3422865,115.886338 L59.3422865,115.886338 L59.3422865,115.886338 Z M97.005486,93.0948869 L91.018196,93.0948869 C90.217998,93.0948869 89.569611,92.4464999 89.569611,91.6463019 L89.569611,77.1604559 C89.569611,76.3602579 90.217998,75.7118719 91.018196,75.7118719 L97.005486,75.7118719 C97.805684,75.7118719 98.454071,76.3602579 98.454071,77.1604559 L98.454071,91.6463019 C98.454071,92.4464999 97.805684,93.0948869 97.005486,93.0948869 L97.005486,93.0948869 L97.005486,93.0948869 Z M92.466781,90.1977179 L95.556901,90.1977179 L95.556901,78.6090409 L92.466781,78.6090409 L92.466781,90.1977179 L92.466781,90.1977179 Z" class="icon" fill="#FFFFFF"></path>
</svg>