<svg width="200px" height="200px" viewBox="0 0 200 200" version="1.1" xmlns="http://www.w3.org/2000/svg" xmlns:xlink="http://www.w3.org/1999/xlink">
	<circle class="background" fill="#000000" cx="100" cy="100" r="100"></circle>
    <path d="M110.981589,66.5735 C111.848589,66.2025 114.333589,66.2705 115.979589,66.3155 C119.359589,66.4095 122.502589,66.4945 124.020589,64.8335 C124.440589,64.3725 124.918589,63.5665 124.805589,62.3525 L124.804589,61.3765 L110.348589,50.2505 L86.7615893,50.5055 L79.1175893,50.5055 C76.9445893,50.5055 75.1775893,52.2735 75.1775893,54.4475 L75.1775893,58.4935 C75.1775893,60.7085 76.9355893,61.5525 78.2195893,62.1685 L81.9815893,63.5125 L81.9775893,63.6925 C81.9435893,65.3095 81.1065893,68.2825 79.8945893,71.0905 C79.7355893,71.4615 79.2835893,71.8185 78.8035893,72.1975 C77.9555893,72.8675 76.8115893,73.7725 76.4915893,75.3915 C76.2175893,76.7815 76.7335893,78.0275 77.8725893,78.7275 C78.5395893,79.1365 79.4395893,79.3535 80.4745893,79.3535 C82.0845893,79.3535 83.7895893,78.8315 84.8185893,78.0245 C88.0885893,75.4655 89.6875893,71.3625 90.8205893,67.6875 C90.8645893,67.5445 90.9065893,67.4035 90.9475893,67.2635 L91.0945893,66.7715 L95.4875893,68.3435 L95.5565893,71.6635 L95.3875893,71.7255 C93.6105893,72.3735 92.4165893,74.0655 92.4165893,75.9375 L92.4165893,82.8985 C92.4165893,82.9215 92.4195893,82.9445 92.4225893,82.9675 L92.4315893,83.0415 L92.4225893,83.1565 C92.4195893,83.1805 92.4165893,83.2035 92.4165893,83.2265 C92.4165893,84.0685 93.1015893,84.7545 93.9435893,84.7545 L94.7345893,84.7545 L94.7345893,89.0805 C94.7345893,95.2085 87.9045893,101.2905 84.2435893,102.8315 C79.3135893,104.9075 78.3815893,111.1675 78.3445893,111.4335 L77.4505893,145.2565 C77.4505893,147.7305 79.4695893,149.7495 81.9515893,149.7495 L115.062589,149.7495 C117.545589,149.7495 119.564589,147.7305 119.564589,145.2495 L119.560589,107.1415 C119.525589,106.6905 119.181589,102.6035 117.684589,99.1605 C117.122589,97.8715 116.296589,96.4415 115.497589,95.0595 C114.250589,92.8995 112.853589,90.4805 112.853589,89.2065 C112.853589,87.4055 112.842589,85.8365 112.835589,85.0065 L112.833589,84.7545 L113.395589,84.7545 C114.237589,84.7545 114.923589,84.0685 114.923589,83.2265 C114.923589,83.1645 114.914589,83.1055 114.906589,83.0465 L114.900589,82.9365 C114.913589,82.8505 114.923589,82.7845 114.923589,82.7145 L114.923589,75.9395 C114.923589,73.7205 113.256589,71.8135 111.046589,71.5045 L110.830589,71.4745 L110.830589,66.6385 L110.981589,66.5735 L110.981589,66.5735 Z M88.1445893,65.9685 C87.0365893,69.7295 85.6385893,73.5015 82.9345893,75.6205 L82.9335893,75.6205 C82.3395893,76.0855 81.2385893,76.3085 80.4215893,76.3085 C80.1165893,76.3085 79.8515893,76.2765 79.6665893,76.2155 L79.4425893,76.1425 L79.5025893,75.9145 C79.6225893,75.4625 80.0105893,75.1385 80.6865893,74.6035 C81.3755893,74.0615 82.2315893,73.3865 82.6985893,72.3025 C83.1275893,71.3095 84.5585893,67.8375 84.9355893,64.8935 L84.9745893,64.5845 L88.2105893,65.7425 L88.1445893,65.9685 L88.1445893,65.9685 Z M112.847589,96.5855 C113.605589,97.8965 114.388589,99.2495 114.880589,100.3805 C116.142589,103.2845 116.471589,106.9025 116.504589,107.3065 L116.505589,145.2505 C116.505589,146.0475 115.856589,146.6955 115.060589,146.6955 L81.9485893,146.6955 C81.1655893,146.6955 80.5025893,146.0555 80.5015893,145.2975 L81.3765893,111.8125 C81.5295893,110.9735 82.4215893,106.9135 85.4245893,105.6475 C89.6015893,103.8925 97.7885893,97.0165 97.7885893,89.0815 L97.7885893,84.7555 L109.775589,84.7555 L109.777589,85.0035 C109.784589,85.8165 109.796589,87.3935 109.796589,89.2075 C109.796589,91.3065 111.277589,93.8705 112.847589,96.5855 L112.847589,96.5855 L112.847589,96.5855 Z M111.865589,75.9395 L111.865589,81.6985 L95.4685893,81.6985 L95.4685893,75.9395 C95.4685893,75.1435 96.1165893,74.4965 96.9135893,74.4965 L110.421589,74.4965 C111.218589,74.4965 111.865589,75.1435 111.865589,75.9395 L111.865589,75.9395 L111.865589,75.9395 Z M108.638589,64.5015 C108.072589,65.0515 107.773589,65.7715 107.772589,66.5845 L107.772589,71.4395 L98.6025893,71.4395 L98.4985893,66.1705 L79.5465893,59.4175 C78.7715893,59.0435 78.3905893,58.8325 78.2665893,58.6185 L78.2325893,58.5605 L78.2325893,54.4465 C78.2325893,53.9575 78.6295893,53.5595 79.1175893,53.5595 L86.7785893,53.5595 L109.324589,53.3155 L121.745589,62.8785 L121.293589,63.0245 C120.202589,63.3765 117.630589,63.3055 116.093589,63.2625 C112.875589,63.1715 110.092589,63.0915 108.638589,64.5015 L108.638589,64.5015 L108.638589,64.5015 Z" class="icon" fill="#FFFFFF"></path>
</svg>