<svg width="200px" height="200px" viewBox="0 0 200 200" version="1.1" xmlns="http://www.w3.org/2000/svg" xmlns:xlink="http://www.w3.org/1999/xlink">
	<circle class="background" fill="#000000" cx="100" cy="100" r="100"></circle>
    <path d="M137.165657,118.937374 L125.823232,118.937374 L125.706061,118.594949 C123.046465,110.785859 114.639394,90.7828281 114.060606,89.4979801 L114.059596,89.4959601 C113.7,88.6858591 112.806061,88.5484851 112.437374,88.5272731 L111.976768,88.5404041 C106.651515,88.5404041 97.817172,85.2070711 92.810101,79.8222221 C90.317172,77.1464651 89.161616,74.378788 89.375758,71.5969698 C89.623232,68.3171718 88.645455,65.2303031 86.693939,63.1262627 C85.167677,61.4818183 83.134343,60.5767678 80.970707,60.5767678 C79.073737,60.5767678 76.112121,61.2777779 72.7707071,64.6181819 C71.2454545,66.1444445 65.1616162,71.9545456 54.689899,81.8878791 C54.1181818,82.4303031 53.7767677,82.7535351 53.7484848,82.7808081 C53.4212121,83.0888891 53.2353535,83.5131311 53.2313131,83.9525251 C53.2282828,84.3989901 53.4060606,84.8323231 53.7181818,85.1414141 L108.511111,138.945455 C108.828283,139.252525 109.240404,139.423232 109.669697,139.423232 L148.338384,139.423232 C149.242424,139.423232 149.986869,138.678788 150,137.764646 L150,131.762626 C150,124.690909 144.242424,118.937374 137.165657,118.937374 L137.165657,118.937374 L137.165657,118.937374 Z M120.419192,115.194949 L120.921212,114.958586 L121.109091,115.479798 C121.79899,117.39596 122.455556,119.288889 123.062626,121.108081 C123.29697,121.777778 123.929293,122.233333 124.634343,122.233333 L137.156566,122.233333 C140.621212,122.233333 143.820202,124.121212 145.506061,127.160606 L145.921212,127.910101 L112.269697,127.90202 L105.317172,120.923232 L120.294949,115.248485 C120.338384,115.232323 120.378788,115.213131 120.419192,115.194949 L120.419192,115.194949 L120.419192,115.194949 Z M118.343434,108.122222 C118.766667,109.20404 119.193939,110.317172 119.624242,111.453535 L119.820202,111.971717 L119.285859,112.119192 C119.233333,112.133333 119.179798,112.149495 119.128283,112.169697 L102.769697,118.367677 L98.991919,114.574747 L118.164646,107.663636 L118.343434,108.122222 L118.343434,108.122222 Z M115.150505,100.250505 L115.337374,100.69697 C115.790909,101.780808 116.263636,102.923232 116.747475,104.118182 L116.944444,104.605051 L96.421212,111.994949 L92.911111,108.472727 L115.150505,100.250505 L115.150505,100.250505 Z M63.4121212,78.1343431 C67.6787879,74.0767678 73.530303,68.5010102 75.085859,66.9434344 C77.086869,64.929293 79.119192,63.8636365 80.961616,63.8636365 C82.563636,63.8636365 83.647475,64.6797981 84.273737,65.3636365 C85.587879,66.7747476 86.267677,69.0111112 86.089899,71.3434344 C85.806061,74.9949496 87.292929,78.7000001 90.387879,82.0595961 C95.919192,88.0292931 105.231313,91.5424241 111.182828,91.8151521 L111.494949,91.8303031 L111.622222,92.1141411 C112.153535,93.3080811 112.845455,94.8676771 113.646465,96.7212121 L113.857576,97.2101011 L90.357576,105.910101 L63.0373737,78.4909091 L63.4121212,78.1343431 L63.4121212,78.1343431 Z M146.69596,136.135354 L110.339394,136.135354 L110.191919,135.990909 L57.2474747,83.9939391 L60.6545455,80.7565661 L110.90202,131.189899 L146.69596,131.19798 L146.69596,136.135354 L146.69596,136.135354 Z M77.429293,123.243434 L51.6434343,123.243434 C50.7373737,123.243434 50,123.980808 50,124.887879 C50,125.793939 50.7373737,126.531313 51.6434343,126.531313 L77.429293,126.531313 C78.335354,126.531313 79.072727,125.793939 79.072727,124.887879 C79.072727,123.980808 78.335354,123.243434 77.429293,123.243434 L77.429293,123.243434 Z M51.6434343,109.340404 L60.2393939,109.340404 C61.1454545,109.340404 61.8828283,108.60404 61.8828283,107.69697 C61.8828283,106.790909 61.1454545,106.053535 60.2393939,106.053535 L51.6434343,106.053535 C50.7373737,106.053535 50,106.790909 50,107.69697 C50,108.60404 50.7373737,109.340404 51.6434343,109.340404 L51.6434343,109.340404 Z M51.6434343,117.936364 L68.8343434,117.936364 C69.740404,117.936364 70.4777778,117.19798 70.4777778,116.291919 C70.4777778,115.384848 69.740404,114.648485 68.8343434,114.648485 L51.6434343,114.648485 C50.7373737,114.648485 50,115.384848 50,116.291919 C50,117.19798 50.7373737,117.936364 51.6434343,117.936364 L51.6434343,117.936364 Z" class="icon" fill="#FFFFFF"></path>
</svg>