<svg width="200px" height="200px" viewBox="0 0 200 200" version="1.1" xmlns="http://www.w3.org/2000/svg" xmlns:xlink="http://www.w3.org/1999/xlink">
	<circle class="background" fill="#000000" cx="100" cy="100" r="100"></circle>
    <path d="M54.587,54.462 C51.989,54.462 49.875,56.576 49.875,59.174 L49.875,122.312 C49.875,124.911 51.989,127.025 54.587,127.025 L59.32,127.025 L59.32,141.735 C59.32,143.832 61.026,145.538 63.123,145.538 L122.63,145.538 C125.308,145.538 127.485,143.359 127.485,140.682 C127.485,138.004 125.308,135.826 122.63,135.826 L116.018,135.826 L116.018,127.026 L145.413,127.026 C148.012,127.026 150.125,124.912 150.125,122.313 L150.125,59.174 C150.125,56.576 148.012,54.462 145.413,54.462 L54.587,54.462 L54.587,54.462 Z M86.985,114.375 L147.123,114.375 L147.123,122.312 C147.123,123.256 146.356,124.022 145.413,124.022 L86.985,124.022 L86.985,114.375 L86.985,114.375 Z M122.63,138.829 C123.652,138.829 124.483,139.66 124.483,140.682 C124.483,141.704 123.652,142.535 122.63,142.535 L86.805,142.535 C86.87,142.249 86.902,141.986 86.902,141.735 L86.902,138.829 L122.63,138.829 L122.63,138.829 Z M86.985,127.026 L113.016,127.026 L113.016,135.826 L86.985,135.826 L86.985,127.026 L86.985,127.026 Z M62.322,95.905 C62.322,95.464 62.682,95.105 63.123,95.105 L83.099,95.105 C83.541,95.105 83.9,95.464 83.9,95.905 L83.9,98.986 L62.322,98.986 L62.322,95.905 L62.322,95.905 Z M52.877,59.174 C52.877,58.231 53.645,57.464 54.587,57.464 L145.413,57.464 C146.356,57.464 147.123,58.231 147.123,59.174 L147.123,111.373 L86.902,111.373 L86.902,95.905 C86.902,94.228 85.767,92.731 84.142,92.265 C83.755,92.154 83.424,92.102 83.099,92.102 L63.123,92.102 C61.026,92.102 59.32,93.809 59.32,95.905 L59.32,111.372 L52.877,111.372 L52.877,59.174 L52.877,59.174 Z M59.32,114.375 L59.32,124.022 L54.587,124.022 C53.645,124.022 52.877,123.256 52.877,122.312 L52.877,114.375 L59.32,114.375 L59.32,114.375 Z M83.9,138.84 L83.9,141.735 C83.9,142.177 83.541,142.535 83.099,142.535 L63.123,142.535 C62.682,142.535 62.322,142.177 62.322,141.735 L62.322,138.84 L83.9,138.84 L83.9,138.84 Z M62.322,135.837 L62.322,101.988 L83.9,101.988 L83.9,135.825 L77.371,135.825 C77.344,135.825 77.319,135.828 77.294,135.832 C77.281,135.835 77.268,135.837 77.255,135.837 L62.322,135.837 L62.322,135.837 Z" class="icon" fill="#FFFFFF"></path>
</svg>