<svg class="normalized" viewBox="0 0 100 100" version="1.1" xmlns="http://www.w3.org/2000/svg" xmlns:xlink="http://www.w3.org/1999/xlink"><path d="M77.4083041,86 L23.6616956,86 C21.0840522,86 19,83.9079014 19,81.3203059 C19,78.7327103 21.0840522,76.6406117 23.6616956,76.6406117 L77.4083041,76.6406117 C79.9859475,76.6406117 82.0699997,78.7327103 82.0699997,81.3203059 C82.0699997,83.9079014 79.9311041,86 77.4083041,86 L77.4083041,86 Z M23.8937257,74.7626168 L23.8937257,53.8416313 C23.8937257,52.4101954 24.3324736,50.9787596 25.1002822,49.7675446 C26.4713692,47.6203908 28.8296387,46.2990654 31.4072822,46.2990654 L69.3041255,46.2990654 C71.772082,46.2990654 74.0755081,47.5102804 75.5014385,49.6023789 C76.3240907,50.8686491 76.817682,52.300085 76.817682,53.8416313 L76.817682,74.7626168 M50.8958662,62.6504673 C49.5247792,62.6504673 48.2633792,62.2100255 47.1665097,61.3291419 C46.289014,60.613424 45.6308923,59.6774851 44.9727705,58.7966015 C44.2598053,57.8056075 43.5468401,56.9247239 42.7241879,56.3191164 C42.0660662,55.8786746 41.353101,55.6033985 40.5852923,55.6033985 C39.6529532,55.6033985 38.7754575,55.988785 38.1173358,56.6494477 C37.678588,57.1449448 37.2946836,57.7505523 36.8559358,58.3561597 C36.4720314,59.0168224 36.0332836,59.6774851 35.4848488,60.2280374 C34.6621967,61.108921 33.5653271,61.604418 32.523301,61.6594732 C31.4812749,61.7145285 30.4940923,61.3291419 29.8359706,60.5033135 C29.2875358,59.8426508 28.958475,58.906712 28.6842576,58.1359388 C28.1906663,56.7595582 27.4777011,54.6674596 26.7647358,52.5753611 L25.8872402,49.9877655 C25.8323967,49.8225998 25.8323967,49.6574342 25.9420837,49.4922685 C27.2034837,47.5102804 29.3972228,46.2990654 31.7554923,46.2990654 L69.6523356,46.2990654 C71.9557617,46.2990654 74.0946573,47.4552251 75.4109008,49.3271028 C75.5205878,49.4922685 75.5205878,49.6574342 75.4657443,49.8225998 C75.1915269,50.8135939 74.862466,51.8596432 74.7527791,52.1899745 C74.2043443,54.3371283 73.601066,56.3741716 72.1202921,57.4202209 C71.5718574,57.8056075 70.9137356,58.0258284 70.2007704,58.0258284 C69.1039009,58.1359388 67.7328139,57.4752761 66.6359443,56.3741716 C66.4714139,56.2090059 66.361727,56.0988955 66.1971965,55.9337298 C65.8132922,55.5483432 65.4842313,55.1629567 65.100327,54.9427358 C64.3325183,54.4472387 63.4550226,54.502294 62.6323704,54.502294 C61.3709705,54.5573492 60.1644139,54.6124044 59.2869183,55.5483432 C58.9030139,55.9337298 58.5739531,56.4842821 58.2997357,57.0898895 C58.1900487,57.2550552 58.1352053,57.4202209 58.0255183,57.5853866 C56.7641183,59.7875956 55.0639705,61.4392523 53.1992922,62.2100255 C52.486327,62.4853016 51.6636748,62.6504673 50.8958662,62.6504673 L50.8958662,62.6504673 Z M34.2250373,25.7451147 C31.802951,25.7451147 29.7661966,23.8144109 29.7661966,21.4010312 C29.7661966,19.3630661 32.7387571,15.2335052 33.2892312,14.4290453 C33.5094209,14.160892 33.8397054,14 34.1699899,14 C34.5002744,14 34.8856063,14.160892 35.0507485,14.4290453 C35.6562701,15.2335052 38.5737831,19.3630661 38.5737831,21.4010312 C38.6288305,23.8144109 36.6471236,25.7451147 34.2250373,25.7451147 L34.2250373,25.7451147 Z M50.8637048,25.7451147 C48.4416185,25.7451147 46.4048641,23.8144109 46.4048641,21.4010312 C46.4048641,19.3630661 49.3774245,15.2335052 49.9278987,14.4290453 C50.1480884,14.160892 50.4783728,14 50.8086573,14 C51.1389418,14 51.5242737,14.160892 51.689416,14.4290453 C52.2949376,15.2335052 55.2124506,19.3630661 55.2124506,21.4010312 C55.267498,23.8144109 53.285791,25.7451147 50.8637048,25.7451147 L50.8637048,25.7451147 Z M67.5023722,25.7451147 C65.0802859,25.7451147 63.0435316,23.8144109 63.0435316,21.4010312 C63.0435316,19.3630661 66.016092,15.2335052 66.5665662,14.4290453 C66.7867558,14.160892 67.1170403,14 67.4473248,14 C67.7776093,14 68.1629412,14.160892 68.3280835,14.4290453 C68.933605,15.2335052 71.8511181,19.3630661 71.8511181,21.4010312 C71.9061655,23.8144109 69.9244585,25.7451147 67.5023722,25.7451147 L67.5023722,25.7451147 Z M31.6959974,46.2990654 C31.1729168,46.2990654 30.7449417,45.9376773 30.7449417,45.4959807 L30.7449417,31.4419973 C30.7449417,31.0003006 31.1729168,30.6389125 31.6959974,30.6389125 L36.6414866,30.6389125 C37.1645672,30.6389125 37.5925423,31.0003006 37.5925423,31.4419973 L37.5925423,45.4959807 C37.6400951,45.9376773 37.21212,46.2990654 36.6890394,46.2990654 L31.6959974,46.2990654 Z M48.3346649,46.2990654 C47.8115843,46.2990654 47.3836092,45.9376773 47.3836092,45.4959807 L47.3836092,31.4419973 C47.3836092,31.0003006 47.8115843,30.6389125 48.3346649,30.6389125 L53.2801541,30.6389125 C53.8032347,30.6389125 54.2312097,31.0003006 54.2312097,31.4419973 L54.2312097,45.4959807 C54.2787625,45.9376773 53.8507875,46.2990654 53.3277069,46.2990654 L48.3346649,46.2990654 Z M64.9733323,46.2990654 C64.4502517,46.2990654 64.0222767,45.9376773 64.0222767,45.4959807 L64.0222767,31.4419973 C64.0222767,31.0003006 64.4502517,30.6389125 64.9733323,30.6389125 L69.9188216,30.6389125 C70.4419022,30.6389125 70.8698772,31.0003006 70.8698772,31.4419973 L70.8698772,45.4959807 C70.91743,45.9376773 70.489455,46.2990654 69.9663744,46.2990654 L64.9733323,46.2990654 Z" fill="none" stroke="#000000" stroke-width="3" stroke-linecap="round" stroke-linejoin="round"></path></svg>