<svg xmlns="http://www.w3.org/2000/svg" xmlns:xlink="http://www.w3.org/1999/xlink" version="1.1" x="0px" y="0px" viewBox="0 0 100 100" enable-background="new 0 0 100 100" xml:space="preserve"><g><path d="M69.576,88.5H15.782c-0.829,0-1.5,0.671-1.5,1.5s0.671,1.5,1.5,1.5h53.794c0.829,0,1.5-0.671,1.5-1.5   S70.405,88.5,69.576,88.5z"></path><path d="M85.282,38.675c-0.282-0.284-0.665-0.443-1.064-0.443H69.576H15.782c-0.829,0-1.5,0.671-1.5,1.5v15.191   c0,14.5,12.739,26.297,28.397,26.297c14.446,0,26.399-10.044,28.164-22.986c11.625-0.782,14.83-12.3,14.875-18.491   C85.721,39.343,85.564,38.958,85.282,38.675z M42.679,78.22c-14.004,0-25.397-10.451-25.397-23.297V41.232h50.794v13.691   C68.076,67.769,56.683,78.22,42.679,78.22z M71.068,55.201c0.001-0.093,0.008-0.185,0.008-0.278V41.232h11.548   C82.249,44.967,80.375,54.295,71.068,55.201z"></path><path d="M30.52,29.592c0,0.829,0.671,1.5,1.5,1.5s1.5-0.671,1.5-1.5c0-1.161,0.346-1.657,0.869-2.407   c0.628-0.9,1.409-2.02,1.409-4.124c0-2.104-0.781-3.224-1.409-4.124c-0.524-0.75-0.87-1.246-0.87-2.407s0.346-1.657,0.869-2.407   c0.628-0.9,1.409-2.02,1.409-4.124c0-0.829-0.671-1.5-1.5-1.5s-1.5,0.671-1.5,1.5c0,1.161-0.346,1.657-0.869,2.407   c-0.628,0.9-1.409,2.02-1.409,4.124c0,2.104,0.781,3.224,1.409,4.124c0.523,0.75,0.869,1.246,0.869,2.407s-0.346,1.657-0.869,2.407   C31.301,26.368,30.52,27.488,30.52,29.592z"></path><path d="M40.04,29.592c0,0.829,0.671,1.5,1.5,1.5s1.5-0.671,1.5-1.5c0-1.161,0.346-1.657,0.869-2.407   c0.628-0.9,1.409-2.02,1.409-4.124c0-2.104-0.781-3.224-1.409-4.124c-0.524-0.75-0.87-1.246-0.87-2.407s0.346-1.657,0.869-2.407   c0.628-0.9,1.409-2.02,1.409-4.124c0-0.829-0.671-1.5-1.5-1.5s-1.5,0.671-1.5,1.5c0,1.161-0.346,1.657-0.869,2.407   c-0.628,0.9-1.409,2.02-1.409,4.124c0,2.104,0.781,3.224,1.409,4.124c0.523,0.75,0.869,1.246,0.869,2.407s-0.346,1.657-0.869,2.407   C40.821,26.368,40.04,27.488,40.04,29.592z"></path><path d="M49.561,29.592c0,0.829,0.671,1.5,1.5,1.5s1.5-0.671,1.5-1.5c0-1.161,0.346-1.657,0.869-2.407   c0.628-0.9,1.409-2.02,1.409-4.124c0-2.104-0.781-3.224-1.409-4.124c-0.524-0.75-0.87-1.246-0.87-2.407s0.346-1.657,0.869-2.407   c0.628-0.9,1.409-2.02,1.409-4.124c0-0.829-0.671-1.5-1.5-1.5s-1.5,0.671-1.5,1.5c0,1.161-0.346,1.657-0.869,2.407   c-0.628,0.9-1.409,2.02-1.409,4.124c0,2.104,0.781,3.224,1.409,4.124c0.523,0.75,0.869,1.246,0.869,2.407s-0.346,1.657-0.869,2.407   C50.342,26.368,49.561,27.488,49.561,29.592z"></path></g></svg>