<svg viewBox="0 0 78 77" version="1.1" xmlns="http://www.w3.org/2000/svg" xmlns:xlink="http://www.w3.org/1999/xlink">
    <g fill="none" fill-rule="evenodd">
        <g fill="#FFFFFF">
            <path d="M74.413,41.231 L71.582,41.231 C70.645,27.801 62.713,14.924 46.413,11.934 C46.892,10.899 47.172,9.754 47.172,8.542 C47.172,4.037 43.506,0.37 39,0.37 C34.495,0.37 30.828,4.037 30.828,8.542 C30.828,9.756 31.114,10.902 31.587,11.936 C15.361,14.938 7.44,27.81 6.502,41.23 L3.588,41.23 C2.084,41.23 0.863,42.449 0.863,43.954 C0.863,45.46 2.084,46.679 3.588,46.679 L9.81,46.679 L17.494,69.261 C18.814,73.608 23.246,76.643 28.275,76.643 L49.897,76.643 C56.202,76.643 59.641,72.666 60.651,69.333 L68.204,46.679 L74.414,46.679 C75.918,46.679 77.137,45.46 77.137,43.954 C77.136,42.45 75.917,41.231 74.413,41.231 L74.413,41.231 Z M36.276,8.543 C36.276,7.043 37.5,5.819 39,5.819 C40.5,5.819 41.724,7.043 41.724,8.543 C41.724,10.043 40.5,11.267 39,11.267 C37.5,11.267 36.276,10.043 36.276,8.543 L36.276,8.543 Z M39.085,16.715 C58.701,16.715 65.139,31.043 66.094,41.231 L11.967,41.231 C12.939,29.366 20.397,16.715 39.085,16.715 L39.085,16.715 Z M55.461,67.682 C54.97,69.302 53.216,71.196 49.897,71.196 L28.275,71.196 C25.323,71.196 23.238,69.427 22.68,67.594 L15.565,46.68 L62.462,46.68 L55.461,67.682 L55.461,67.682 Z"></path>
            <path d="M33.552,22.163 C26.552,22.163 19.931,28.783 19.931,35.784 C19.931,37.286 21.153,38.508 22.656,38.508 C24.159,38.508 25.379,37.286 25.379,35.784 C25.379,31.812 29.579,27.612 33.551,27.612 C35.054,27.612 36.275,26.391 36.275,24.888 C36.276,23.384 35.055,22.163 33.552,22.163"></path>
            <path d="M39,68.471 C40.503,68.471 41.724,67.254 41.724,65.747 L41.724,52.128 C41.724,50.622 40.503,49.403 39,49.403 C37.497,49.403 36.276,50.622 36.276,52.128 L36.276,65.747 C36.276,67.254 37.497,68.471 39,68.471"></path>
            <path d="M28.23,66.567 C28.599,67.728 29.67,68.47 30.826,68.47 C31.099,68.47 31.374,68.431 31.646,68.346 C33.083,67.891 33.878,66.362 33.426,64.927 L29.128,51.308 C28.675,49.871 27.142,49.084 25.712,49.528 C24.275,49.983 23.48,51.512 23.933,52.947 L28.23,66.567 L28.23,66.567 Z"></path>
            <path d="M46.39,68.357 C46.651,68.434 46.914,68.47 47.172,68.47 C48.345,68.47 49.428,67.71 49.781,66.529 L53.868,52.909 C54.299,51.471 53.485,49.951 52.04,49.518 C50.59,49.086 49.08,49.904 48.648,51.344 L44.562,64.965 C44.132,66.405 44.947,67.924 46.39,68.357"></path>
        </g>
    </g>
</svg>