<svg xmlns="http://www.w3.org/2000/svg" xmlns:xlink="http://www.w3.org/1999/xlink" version="1.1" x="0px" y="0px" viewBox="0 0 90 90" enable-background="new 0 0 90 90" xml:space="preserve"><path d="M62.135,52.719c0.008-0.059,0.006-0.119-0.004-0.178l-3.848-24.246c-0.008-0.047-0.021-0.092-0.037-0.134  c-0.604-3.092-7.069-4.71-13.246-4.71c-6.172,0-12.634,1.616-13.243,4.705c-0.018,0.044-0.031,0.09-0.039,0.139l-3.849,24.246  c-0.009,0.055-0.009,0.113-0.002,0.17c-0.003,0.045-0.007,0.09-0.007,0.135c0,3.568,7.039,6.26,16.371,6.26  c0.262,0,0.521-0.002,0.757-0.006c0.261,0.004,0.521,0.006,0.782,0.006c9.332,0,16.368-2.691,16.368-6.26  C62.139,52.805,62.138,52.764,62.135,52.719z M45.763,56.867c-0.249,0-0.496-0.002-0.738-0.006h-0.017c-0.001,0-0.005,0-0.006,0  c-0.012,0-0.029,0-0.036,0c-0.245,0.004-0.494,0.006-0.743,0.006c-9.322,0-14.13-2.818-14.129-4.014  c0-0.006,0.004-0.033,0.004-0.039l0.016-0.176l1.478-9.308v2.541c0,1.468,1.191,2.66,2.661,2.66s2.661-1.191,2.661-2.66v-5.018  V40.84c0-1.469,1.191-2.661,2.661-2.661c1.469,0,2.661,1.191,2.661,2.661v0.014c0,1.469,1.191,2.66,2.66,2.66  c1.47,0,2.661-1.191,2.661-2.66v-2.509v-0.33c0-1.47,1.191-2.661,2.661-2.661s2.661,1.19,2.661,2.661v0.33v2.509  c0,1.469,1.191,2.66,2.661,2.66c1.235,0,2.271-0.843,2.569-1.984l1.759,11.074l0.024,0.242  C59.893,54.049,55.086,56.867,45.763,56.867z"></path></svg>