<svg class="normalized" viewBox="0 0 100 100" version="1.1" xmlns="http://www.w3.org/2000/svg" xmlns:xlink="http://www.w3.org/1999/xlink">
    <path d="M69.009,81.755 C69.009,84.101 67.109,86 64.764,86 L35.247,86 C32.901,86 31.002,84.101 31.002,81.755 L31.002,18.245 C31.002,15.901 32.901,14 35.247,14 L64.765,14 C67.11,14 69.01,15.901 69.01,18.245 L69.009,81.755 L69.009,81.755 L69.009,81.755 Z M31,21.971 L69.009,21.971 L31,21.971 Z M31,72.207 L69.009,72.207 L31,72.207 Z M50.005,76.305 C51.528,76.305 52.764,77.539 52.764,79.063 C52.764,80.587 51.528,81.82 50.005,81.82 C48.482,81.82 47.247,80.586 47.247,79.062 C47.247,77.538 48.482,76.305 50.005,76.305 L50.005,76.305 Z M47.326,21.986 L49.324,30.356 L45.7504883,31.7060546 L44.982,35.251 L49.254,40.213 M57.25,59.37 L50.841,55.167 L58.697,46.346 L55.527,39.524 L53.4687502,31.6337891 L49.325,30.357 M68.87,27.599 L64.417,33.459 L60.213,31.527 L55.527,39.523 M44.984,35.251 L39.264,39.866 L38.437,44.14" fill="none" stroke="#000000" stroke-width="3" stroke-linecap="round" stroke-linejoin="round"></path>
</svg>