<svg viewBox="0 0 60 91" version="1.1" xmlns="http://www.w3.org/2000/svg" xmlns:xlink="http://www.w3.org/1999/xlink">
    <g fill="none" fill-rule="evenodd">
        <g transform="translate(-0.108281, -0.184082)" fill="#FFFFFF">
            <path d="M4.59147059,0.222124328 C4.25449241,0.182098269 4.09778522,1.13935814 4.09776697,1.75414562 L4.09689913,30.6756294 C4.09688088,31.2904169 4.31945164,31.6021135 4.59053429,31.3735831 L12.7956595,24.4456189 C12.7085259,25.5890953 14.4503519,26.6001772 17.1023236,26.8289079 C20.1622797,27.0928177 23.2716393,26.2197616 24.0476242,24.8715281 C24.8236098,23.5232657 22.9711622,22.2074164 19.9112061,21.9435066 C18.1822466,21.7943647 16.4585861,22.0289324 15.127824,22.4880733 L18.3962566,19.730505 C18.6673392,19.5019746 18.8899424,18.8302836 18.8899606,18.2154961 L18.8904297,2.57167389 C18.8904508,1.95688677 18.733764,1.91386085 18.3967938,1.873749 L4.59147059,0.222124328 L4.59147059,0.222124328 L4.59147059,0.222124328 Z M16.0985395,8.39334421 C16.2679071,8.37270227 16.3538935,8.42362292 16.3538713,8.69975328 L16.3536126,17.3132296 C16.353602,17.5892457 16.2345649,17.89152 16.098252,17.9941145 L9.1528505,23.2368992 C9.01653752,23.3394937 8.91453294,23.1895066 8.91454149,22.9134613 L8.91493472,9.92515448 C8.91494252,9.64913802 8.98391113,9.26489982 9.15327297,9.24425716 L16.0985395,8.39334421 L16.0985395,8.39334421 L16.0985395,8.39334421 Z M28.8143675,11.5769592 C27.0296532,11.702481 25.5238966,13.0859865 25.2905787,14.930322 C25.0251099,17.0287561 26.513049,18.9378463 28.609866,19.2031077 C30.7045273,19.4680964 32.6172534,17.9817196 32.882651,15.8838262 C33.1481235,13.7853635 31.6580222,11.8760288 29.5633637,11.6110404 C29.4323444,11.5944656 29.3011137,11.5801787 29.1718446,11.5769607 C29.0506449,11.5740402 28.9333453,11.5686041 28.8143675,11.5769592 L28.8143675,11.5769592 L28.8143675,11.5769592 Z M33.5125372,14.4028552 C33.6288466,14.9083825 33.6662889,15.4430206 33.5975996,15.9859897 C33.4248077,17.3518847 32.6418217,18.4981217 31.5718087,19.2031934 L32.3036785,22.7269023 C32.3459615,22.9464965 32.4328605,23.1550769 32.558998,23.3397355 L36.8655425,29.5020758 C36.871646,29.5123089 36.8751854,29.5264129 36.8825401,29.5361099 C36.9169109,29.5813109 36.9496659,29.6367233 36.9846688,29.6893243 C37.5332743,28.6160896 38.3122361,27.7105838 39.231738,27.1530078 L35.4358458,21.7396991 L34.1252906,15.4072299 C34.0528002,15.0079742 33.8343748,14.6499632 33.5125116,14.4028519 L33.5125372,14.4028552 L33.5125372,14.4028552 Z M42.9769546,20.2929847 C41.1922432,20.4185069 39.6864809,21.8020117 39.453163,23.6463471 C39.3093432,24.7832021 39.6688444,25.8649619 40.3722955,26.659389 C40.967302,27.3313392 41.8116053,27.7975795 42.7724531,27.9191332 C44.8671144,28.1841219 46.7798405,26.6977451 47.0452381,24.5998517 C47.3107105,22.501389 45.8206093,20.5920543 43.725948,20.3270656 C43.5949314,20.3104911 43.4637007,20.2962042 43.3344317,20.2929862 C43.2132335,20.290008 43.0959324,20.2846296 42.9769546,20.2929847 L42.9769546,20.2929847 L42.9769546,20.2929847 Z M23.622001,26.8461228 C22.1357303,27.8443091 19.53024,28.3828501 16.9490782,28.1396419 C15.2942894,27.9837386 13.9559541,27.546485 13.1190163,26.9309292 L14.480588,35.0507725 C15.0931862,35.3105459 15.7810509,35.4819619 16.5062661,35.5955507 C18.5618956,35.9175464 20.6122443,35.518509 22.2939963,34.6424686 L23.622001,26.8461228 L23.622001,26.8461228 L23.622001,26.8461228 Z M40.4573739,27.9701247 L40.4573683,28.0382314 C39.1552454,28.3800569 37.976386,29.7870367 37.5463918,31.4426747 C37.5496622,31.4691278 37.5491124,31.5277915 37.5463931,31.5277658 L36.4055566,42.0647675 L45.7850381,42.0820509 L45.8701515,42.0820553 L46.5341879,36.822056 C45.4963734,36.5905429 44.6610767,35.8397032 44.117031,34.8814014 C43.5459863,33.8755907 43.2759475,32.6106632 43.3851604,31.2896139 L43.3851714,31.2726029 C43.4487688,30.526519 43.6505384,29.8280626 43.9469815,29.1958607 C42.4148051,28.6593808 40.6452865,28.0357335 40.4573739,27.9701247 L40.4573739,27.9701247 L40.4573739,27.9701247 Z M45.3087762,29.6725372 C45.0569255,30.1698834 44.8698588,30.7490299 44.8150682,31.39181 C44.7257444,32.4397341 44.9449344,33.4359545 45.3597108,34.1665209 C45.7226347,34.8057839 46.2081661,35.231006 46.7214854,35.3922032 L46.7555376,35.1198282 L49.7514096,38.9840815 L50.5683296,44.5845433 C50.6238602,45.013088 50.8538031,45.4129492 51.1981323,45.6740247 C51.370294,45.8045622 51.5676708,45.8924891 51.7768984,45.9463859 C51.9861231,46.0002824 52.2099519,46.0115569 52.4237587,45.9804503 C52.8513659,45.9182652 53.2575507,45.681973 53.513227,45.333622 C53.6410623,45.1594461 53.717951,44.9649086 53.7685828,44.7548687 C53.8192488,44.5448332 53.8370799,44.3212986 53.8026458,44.1080198 L52.9176497,38.098981 C52.8772383,37.8210917 52.7663859,37.5548334 52.5942407,37.3329577 C52.5942407,37.3329577 49.6150367,33.0763163 47.8451088,31.1876241 C47.6970588,31.0296709 47.5239579,30.892881 47.3514641,30.7620411 C47.0809735,30.5568882 46.8106927,30.337932 46.5003471,30.2002713 C46.4757268,30.1893737 46.4410689,30.1774089 46.4152328,30.1662419 C46.199195,30.0212715 46.0136819,29.913985 45.9045638,29.8768322 C45.8616919,29.8622369 45.4442062,29.7197021 45.3087762,29.6725372 L45.3087762,29.6725372 L45.3087762,29.6725372 Z M36.3033776,43.4946544 L36.2012251,44.0223669 L38.192643,51.8188002 L42.278094,51.2401604 L42.2781063,50.9337363 L43.6569491,50.6614201 L44.4399339,52.5509698 L48.6105189,51.3084485 L45.7339184,43.920503 L45.4275207,43.5119535 L36.3033768,43.4946832 L36.3033776,43.4946544 L36.3033776,43.4946544 Z M42.8738485,52.6190009 L39.962963,53.0274512 L38.686258,53.1976523 L39.0947496,54.7978044 C39.1440576,54.9829838 39.2185112,55.1605322 39.3160323,55.3254939 L43.4863653,62.4581316 L42.822449,63.6156416 C42.4199662,64.2412436 42.3947643,65.0376686 42.7568887,65.6874657 C43.1190131,66.3372628 43.8095917,66.7347916 44.5533633,66.7215993 C45.297135,66.708407 45.9731816,66.2866382 46.3120345,65.6244079 L47.6228451,63.3604417 C47.9107033,62.8787608 47.9847427,62.2988877 47.8271505,61.7603308 C47.7751189,61.5437937 47.6889329,61.3369251 47.5718311,61.1474977 L43.0951014,53.4701536 L42.8738342,52.6189991 L42.8738485,52.6190009 L42.8738485,52.6190009 Z M49.1552086,52.6361859 L47.7252899,53.0617198 L45.1037757,53.8276696 L45.9378364,55.5640014 C46.1164624,55.9367995 46.4267817,56.2328631 46.7889447,56.4321669 L54.4660364,60.654011 L54.9936871,62.3563248 C55.181502,63.0735469 55.7478882,63.6297694 56.4683932,63.8045677 C57.1888982,63.9793659 57.9472018,63.7445199 58.4427965,63.1930965 C58.9383913,62.6416731 59.0912671,61.8626957 58.840841,61.1648643 L58.0748972,58.6795195 C57.9937237,58.4035686 57.8544297,58.1481868 57.6663743,57.9305329 C57.6253066,57.8670961 57.5949174,57.8018566 57.5472196,57.7432808 C57.3726994,57.5288586 57.1440229,57.3461815 56.9003787,57.2155412 L49.3594665,53.0617882 L49.1552078,52.6362147 L49.1552086,52.6361859 L49.1552086,52.6361859 Z M1.37155773,87.7525229 C0.720107539,87.8226622 0.23617972,88.3883415 0.267754136,89.0427954 C0.299328551,89.6972493 0.835464931,90.2137151 1.4906416,90.2208157 L58.7208094,90.2225329 C59.350215,90.2038868 59.8653068,89.7156675 59.9176178,89.0881624 C59.9699288,88.4606572 59.5427845,87.8938899 58.9251539,87.7712864 C58.8576515,87.7599761 58.7893272,87.7542842 58.7208838,87.7542694 L1.49071601,87.7525522 C1.45101938,87.750639 1.41125363,87.7506388 1.37155698,87.7525517 L1.37155773,87.7525229 L1.37155773,87.7525229 Z"></path>
        </g>
    </g>
</svg>