<svg viewBox="0 0 72 100" version="1.1" xmlns="http://www.w3.org/2000/svg" xmlns:xlink="http://www.w3.org/1999/xlink">
    <g fill="none" fill-rule="evenodd">
        <g fill="#FFFFFF">
            <path d="M67.407,19.239 L65.225,19.239 L65.43,4.056 C65.448,2.767 64.868,1.548 63.878,0.783 C62.89,0.016 61.61,-0.202 60.439,0.195 L4.152,19.283 C1.834,19.509 0,21.446 0,23.809 L0,95.433 C0,97.945 2.067,100 4.594,100 L67.407,100 C69.935,100 72,97.944 72,95.433 L72,23.809 C72,21.296 69.935,19.239 67.407,19.239 L67.407,19.239 Z M57.723,9.521 L57.591,19.239 L29.065,19.239 L57.723,9.521 L57.723,9.521 Z M64.191,92.231 L7.813,92.231 L7.813,27.007 L64.191,27.007 L64.191,92.231 L64.191,92.231 Z"></path>
            <path d="M39.827,57.729 C39.642,57.667 39.507,57.329 39.428,56.93 C41.85,55.52 44.17,52.979 45.313,49.86 L45.343,49.86 C46.016,49.86 46.793,49.023 47.184,47.826 C47.624,46.488 47.404,45.217 46.697,44.988 C46.622,44.966 46.556,44.955 46.486,44.955 C46.337,44.955 46.187,44.997 46.038,45.069 C45.709,38.601 41.147,33.469 35.548,33.469 C29.945,33.469 25.379,38.609 25.058,45.084 C24.899,45.002 24.737,44.954 24.579,44.954 C24.508,44.954 24.438,44.965 24.368,44.987 C23.661,45.216 23.441,46.487 23.876,47.825 C24.267,49.021 25.049,49.857 25.717,49.857 C25.757,49.857 25.792,49.855 25.827,49.849 C27.145,53.196 29.861,55.887 32.414,57.221 C32.331,57.48 32.216,57.682 32.08,57.729 L31.895,57.791 C24.099,60.352 19.696,64.802 18.75,71.027 L53.212,71.027 C52.141,64.791 47.672,60.32 39.827,57.729 L39.827,57.729 Z M28.828,48.688 L28.178,47.043 L28.27,45.242 C28.507,40.433 31.707,36.667 35.547,36.667 C39.383,36.667 42.579,40.428 42.824,45.229 L42.918,47.124 L42.293,48.763 C41.488,50.955 39.766,53.026 37.802,54.168 L35.939,55.409 L35.82,55.385 L33.908,54.391 C32.26,53.524 29.936,51.514 28.828,48.688 L28.828,48.688 Z M23.142,67.826 C24.812,64.732 28.041,62.425 32.907,60.826 C33.557,60.609 34.217,60.219 34.753,59.535 C34.757,59.546 34.775,59.588 34.775,59.588 C34.775,59.588 35.979,58.344 37.148,59.633 C37.214,59.711 37.253,59.719 37.311,59.762 C37.79,60.297 38.331,60.6 38.805,60.76 C43.709,62.381 46.988,64.711 48.737,67.826 L23.142,67.826 L23.142,67.826 Z"></path>
            <rect x="18.593" y="83.496" width="13.025" height="2.272"></rect>
            <rect x="35.187" y="83.496" width="2.619" height="2.272"></rect>
            <rect x="18.593" y="76.913" width="34.813" height="2.272"></rect>
        </g>
    </g>
</svg>