<?xml version="1.0" encoding="utf-8"?>
<!-- Generator: Adobe Illustrator 16.0.0, SVG Export Plug-In . SVG Version: 6.00 Build 0)  -->
<!DOCTYPE svg PUBLIC "-//W3C//DTD SVG 1.1//EN" "http://www.w3.org/Graphics/SVG/1.1/DTD/svg11.dtd">
<svg version="1.1" id="Layer_1" xmlns="http://www.w3.org/2000/svg" xmlns:xlink="http://www.w3.org/1999/xlink" x="0px" y="0px"
	 width="495.6px" height="414.6px" viewBox="0 0 495.6 414.6" enable-background="new 0 0 495.6 414.6" xml:space="preserve">
<g>
	<g>
		<defs>
			<rect id="SVGID_1_" x="0.1" y="78.4" width="80.4" height="157.4"/>
		</defs>
		<clipPath id="SVGID_2_">
			<use xlink:href="#SVGID_1_"  overflow="visible"/>
		</clipPath>
		<path clip-path="url(#SVGID_2_)" fill="#66A6D1" d="M19.7,235.8c2.9-55.4,25.4-105.6,60.9-143.6L66.7,78.4
			C27.8,120,3,175,0.1,235.8H19.7z"/>
	</g>
</g>
<g>
	<g>
		<defs>
			<rect id="SVGID_3_" x="257.8" width="156.8" height="78.1"/>
		</defs>
		<clipPath id="SVGID_4_">
			<use xlink:href="#SVGID_3_"  overflow="visible"/>
		</clipPath>
		<path clip-path="url(#SVGID_4_)" fill="#66A6D1" d="M257.8,0v19.5c54.9,2.4,104.8,24.1,143,58.6l13.8-13.8
			C372.9,26.3,318.1,2.4,257.8,0"/>
	</g>
</g>
<path fill="#66A6D1" d="M78.2,400.8c-34.9-38.6-56.7-89.3-58.7-145H0c1.9,61.1,26,116.6,64.4,158.8L78.2,400.8z"/>
<g>
	<g>
		<defs>
			<rect id="SVGID_5_" x="81" width="156.8" height="78.1"/>
		</defs>
		<clipPath id="SVGID_6_">
			<use xlink:href="#SVGID_5_"  overflow="visible"/>
		</clipPath>
		<path clip-path="url(#SVGID_6_)" fill="#66A6D1" d="M237.8,0C177.5,2.4,122.7,26.3,81,64.3l13.8,13.8
			c38.2-34.5,88.1-56.2,143-58.6V0z"/>
	</g>
</g>
<g>
	<g>
		<defs>
			<rect id="SVGID_7_" x="415.1" y="78.4" width="80.4" height="157.4"/>
		</defs>
		<clipPath id="SVGID_8_">
			<use xlink:href="#SVGID_7_"  overflow="visible"/>
		</clipPath>
		<path clip-path="url(#SVGID_8_)" fill="#66A6D1" d="M415.1,92.2c35.4,38.1,58,88.2,60.9,143.6h19.5
			C492.6,175,467.8,120,428.9,78.4L415.1,92.2z"/>
	</g>
</g>
<g opacity="0.3">
	<g>
		<defs>
			<rect id="SVGID_9_" x="417.4" y="255.8" width="78.2" height="158.8"/>
		</defs>
		<clipPath id="SVGID_10_">
			<use xlink:href="#SVGID_9_"  overflow="visible"/>
		</clipPath>
		<path clip-path="url(#SVGID_10_)" fill="#010101" d="M476.1,255.8c-1.9,55.7-23.8,106.3-58.7,145l13.8,13.8
			c38.4-42.2,62.4-97.7,64.4-158.8H476.1z"/>
	</g>
</g>
</svg>
