<?xml version="1.0" encoding="utf-8"?>
<!-- Generator: Adobe Illustrator 16.0.0, SVG Export Plug-In . SVG Version: 6.00 Build 0)  -->
<!DOCTYPE svg PUBLIC "-//W3C//DTD SVG 1.1//EN" "http://www.w3.org/Graphics/SVG/1.1/DTD/svg11.dtd">
<svg version="1.1" id="Layer_1" xmlns="http://www.w3.org/2000/svg" xmlns:xlink="http://www.w3.org/1999/xlink" x="0px" y="0px"
	 width="323.749px" height="192.168px" viewBox="136.476 335.412 323.749 192.168"
	 enable-background="new 136.476 335.412 323.749 192.168" xml:space="preserve">
<g>
	
		<image overflow="visible" opacity="0.55" enable-background="new    " width="529" height="314" xlink:href="5C00E4EDE83FE683.png"  transform="matrix(0.612 0 0 0.612 136.4761 335.4116)">
	</image>
	<g>
		<g>
			<rect x="141.372" y="340.308" fill="#2B3234" width="305.388" height="173.808"/>
			<g>
				<g>
					<g>
						<path fill="none" stroke="#F99E32" stroke-width="1.2818" stroke-miterlimit="10" d="M422.219,395.877H291.251
							c-1.285,0-2.326-1.04-2.326-2.326V369.99c0-1.286,1.041-2.326,2.326-2.326H422.28c1.285,0,2.325,1.04,2.325,2.326v23.562
							C424.605,394.837,423.565,395.877,422.219,395.877z"/>
					</g>
					<text transform="matrix(1 0 0 1 309.2852 388.0625)" fill="#F99E32" font-family="'OpenSans-Semibold'" font-size="17.2575">ASTRO 110</text>
				</g>
				<g>
					<g>
						<path fill="none" stroke="#F99E32" stroke-width="1.2818" stroke-miterlimit="10" d="M422.219,439.819H291.251
							c-1.285,0-2.326-1.041-2.326-2.326v-23.562c0-1.285,1.041-2.325,2.326-2.325H422.28c1.285,0,2.325,1.04,2.325,2.325v23.562
							C424.605,438.779,423.565,439.819,422.219,439.819z"/>
					</g>
					<text transform="matrix(1 0 0 1 309.2852 431.9922)" fill="#F99E32" font-family="'OpenSans-Semibold'" font-size="17.2575">COM SCI 199</text>
				</g>
				<g>
					<g>
						<path fill="none" stroke="#F99E32" stroke-width="1.2818" stroke-miterlimit="10" d="M422.219,482.17H291.251
							c-1.285,0-2.326-1.041-2.326-2.326v-23.562c0-1.285,1.041-2.326,2.326-2.326H422.28c1.285,0,2.325,1.041,2.325,2.326v23.562
							C424.605,481.129,423.565,482.17,422.219,482.17z"/>
					</g>
					<text transform="matrix(1 0 0 1 322.6191 474.3506)" fill="#F99E32" font-family="'OpenSans-Semibold'" font-size="17.2575">BIO 451</text>
				</g>
			</g>
			<g opacity="0.8">
				<g>
					<path fill="#FFFFFF" d="M258.815,389.696c-5.386-17.87-21.971-30.294-40.698-30.294c-18.482,0-34.945,12.118-40.514,29.56
						c-3.305,0.367-6.671,0.918-10.159,1.714l1.04,6.793c0.979,0,2.693,0.367,2.754,2.325c0.306,7.283,1.346,12.791,3.917,16.524
						c-0.795,0.612-1.346,1.347-1.591,2.203c0,0,3.183-0.062,3.55,0.306c0,0-4.773,8.385-4.039,13.893l2.876-1.713
						c0,0-1.714,13.28,1.346,17.441c0,0,2.326-3.427,2.876-3.917c0,0,2.203,12.913,4.162,15.484c0,0,1.775-2.571,2.631-3.183
						c0,0,0.979,8.262,5.141,12.913l1.775-2.938c0,0,4.406,10.526,3.305,15.483c0,0,3.305-2.693,3.305-3.55
						c0,0,0.428,5.753,7.466,8.936c0,0-0.123-2.57,0.551-3.305c0,0,7.038,5.997,3.183,10.036c0,0,5.018,0.734,6.609-3.549
						c1.591,4.345,6.61,3.549,6.61,3.549c-3.856-4.039,3.182-10.036,3.182-10.036c0.673,0.734,0.551,3.305,0.551,3.305
						c7.038-3.183,7.466-8.936,7.466-8.936c0,0.857,3.305,3.55,3.305,3.55c-1.102-5.019,3.305-15.483,3.305-15.483l1.775,2.938
						c4.162-4.713,5.141-12.913,5.141-12.913c0.857,0.611,2.632,3.183,2.632,3.183c1.958-2.571,4.161-15.484,4.161-15.484
						c0.551,0.49,2.876,3.917,2.876,3.917c3.06-4.161,1.347-17.441,1.347-17.441l2.876,1.713c0.734-5.508-4.04-13.893-4.04-13.893
						c0.306-0.367,3.55-0.367,3.55-0.367c-0.245-0.918-0.918-1.713-1.897-2.387c2.509-4.59,2.571-10.71,3.978-15.116
						c0.49-1.652,1.102-2.448,2.876-2.509l0.857-6.793C265.608,390.859,262.242,390.247,258.815,389.696z M218.056,362.034
						c17.197,0,32.497,11.138,37.883,27.295c-7.711-0.856-16.035-0.795-25.704,1.652c-3.855,0.979-8.323,1.958-12.362,1.836
						c-2.387-0.061-4.651-0.612-6.793-1.102c-10.404-2.448-20.073-3.733-30.661-2.938
						C185.987,372.928,201.103,362.034,218.056,362.034z M225.216,412.892c-0.489,0-0.918,0.244-1.407,0.244l0,0
						c-2.142,0-1.591,1.714-5.753,1.714c-1.836,0-3.305-1.714-4.468-1.774c-0.673-0.062-2.326-0.184-2.326-0.184l0,0
						c-0.673-0.062-1.04-0.796-0.673-1.408c2.264-3.672,3.305-7.405,3.733-9.669c0.551-2.938,2.081-3.244,3.733-3.306
						c2.999-0.061,3.366,2.143,3.917,3.489c1.469,3.672,2.754,6.793,4.1,9.302C226.44,411.912,226.012,412.83,225.216,412.892z
						 M172.4,395.082c-1.408,0-2.57-0.306-2.57-0.673s1.163-0.673,2.57-0.673s2.57,0.306,2.57,0.673
						C175.032,394.776,173.869,395.082,172.4,395.082z M190.822,419.99c-11.078,0-14.26-2.02-15.729-14.871
						c0-8.63-0.551-13.709,15.851-13.648c11.077,1.041,22.644,0.979,18.177,14.137C206.305,413.748,201.96,419.685,190.822,419.99z
						 M232.315,430.64c-2.02,4.59-7.528,7.711-14.076,7.711c-6.61,0-12.179-3.061-14.198-7.65c-0.796-1.774,0.551-3.55,2.509-3.55
						h23.317C231.765,427.212,233.05,428.864,232.315,430.64z M261.446,405.058c-1.469,12.852-4.651,14.871-15.729,14.871
						c-11.138-0.306-15.544-6.242-18.298-14.442c-4.468-13.158,7.16-13.097,18.176-14.138
						C261.997,391.349,261.446,396.429,261.446,405.058z M264.2,395.755c-1.407,0-2.57-0.306-2.57-0.673s1.163-0.673,2.57-0.673
						c1.408,0,2.571,0.306,2.571,0.673S265.608,395.755,264.2,395.755z"/>
				</g>
			</g>
		</g>
	</g>
</g>
</svg>
