<?xml version="1.0" encoding="utf-8"?>
<!-- Generator: Adobe Illustrator 17.1.0, SVG Export Plug-In . SVG Version: 6.00 Build 0)  -->
<!DOCTYPE svg PUBLIC "-//W3C//DTD SVG 1.1//EN" "http://www.w3.org/Graphics/SVG/1.1/DTD/svg11.dtd">
<svg version="1.1" id="Layer_1" xmlns="http://www.w3.org/2000/svg" xmlns:xlink="http://www.w3.org/1999/xlink" x="0px" y="0px"
	 viewBox="0 0 446 567" enable-background="new 0 0 446 567" xml:space="preserve">
<g>
	<g>
		<path fill="#69B3A5" d="M216.4,446.5c-34-0.2-71.4-2.5-98.7-14.2c-12.1-5.2-21.5-11.9-28.8-20.3c-23.6,5.6-40.9,26-40.9,50.4v1.1
			c0,28.7,23.9,52.6,53.8,52.6h92L216.4,446.5z"/>
		<path fill="#69B3A5" d="M357.2,411.9c-7.3,8.4-16.8,15.1-28.9,20.3c-12.9,5.5-28.6,9.3-48,11.5c-15.2,1.7-32.8,2.8-55.4,2.8
			L202.2,516h141.9c30,0,53.8-23.9,53.8-52.6v-1.1C398,438,380.7,417.5,357.2,411.9z"/>
	</g>
	<g>
		<path fill="#69B3A5" d="M318.4,225.5c-0.2,0.1-0.4,0.2-0.6,0.4c-0.5,0.3-1.1,0.4-1.7,0.5c0.5,9.6,0.1,23.3-4.7,29.9
			c-1.1,1.5-2.9,2.8-4.8,2.8c0,0-0.1,0-0.1,0c-0.8,0-1.6-0.5-2.3-0.8c-1.8,8.5-4.4,17.9-7.1,21.5c-1.1,1.5-2.9,2.3-4.8,2.3
			c0,0-0.1,0-0.1,0c-0.6,0-1.2-0.2-1.8-0.3c-1.8,5.8-4.7,12.8-9.3,18.1c-1.1,1.3-2.8,2-4.5,2c-0.2,0-0.3,0-0.5,0
			c-0.3,0-0.7-0.1-1-0.2c-2.2,7-3.8,14.6-3,18.4c0.6,2.5-0.5,5.1-2.7,6.4c-1,0.6-2.1,0.9-3.2,0.9c-1.3,0-2.7-0.5-3.8-1.3
			c-0.3-0.2-0.6-0.5-0.9-0.7c-2.9,4.5-7.5,9.1-14.8,12.4c-0.8,0.4-1.6,0.5-2.5,0.5c-1.1,0-2.2-0.3-3.1-0.9c-0.5,1-0.8,1.9-0.8,2.7
			c0,0.6,0.1,1,0.7,1.7c1.6,1.6,2.1,4,1.4,6.1c-0.7,2.1-2.6,3.7-4.8,4c-0.3,0-1.2,0.2-2.6,0.2c-4.6,0-8.6-1.3-11.7-3.6
			c-3.1,2.3-7.1,3.6-11.7,3.6c-1.4,0-2.4-0.1-2.6-0.2c-2.2-0.3-4.1-1.9-4.8-4c-0.7-2.1-0.2-4.5,1.4-6.1c0.6-0.6,0.7-1.1,0.7-1.7
			c0-0.8-0.3-1.7-0.8-2.7c-0.9,0.6-2,0.9-3.1,0.9c-0.8,0-1.7-0.2-2.5-0.5c-7.3-3.3-12-7.9-14.8-12.4c-0.3,0.2-0.6,0.5-0.9,0.7
			c-1.1,0.9-2.4,1.3-3.8,1.3c-1.1,0-2.2-0.3-3.2-0.9c-2.2-1.3-3.3-3.9-2.7-6.4c0.8-3.8-0.8-11.4-3-18.4c-0.3,0.1-0.7,0.1-1,0.2
			c-0.2,0-0.3,0-0.5,0c-1.7,0-3.4-0.7-4.5-2c-4.7-5.3-7.6-12.2-9.3-18c-0.6,0.2-1.2,0.3-1.8,0.3c0,0-0.1,0-0.1,0
			c-1.9,0-3.7-0.9-4.8-2.4c-2.8-3.7-5.3-12.8-7.1-21.3c-0.7,0.3-1.5,0.8-2.3,0.8c0,0-0.1,0-0.1,0c-1.9,0-3.7-1.2-4.8-2.8
			c-4.8-6.6-5.2-20.1-4.7-29.7c-0.6-0.1-1.1-0.3-1.7-0.6c-0.3-0.1-0.6-0.4-0.8-0.5C97.3,248.9,78,290.2,78,358.5
			c0,68.5,59.6,79.9,135,80.7L213,377c-21.7-0.6-43.4-3.2-64.9-7.8c-2.2-0.5-3.5-2.6-3.1-4.7c0.5-2.2,2.6-3.5,4.7-3.1
			c48.6,10.3,97.9,10.3,146.5,0c2.2-0.5,4.3,0.9,4.7,3.1c0.5,2.2-0.9,4.3-3.1,4.7c-21.5,4.6-43.2,7.2-64.9,7.8l0.1,62.3
			c75.4-0.8,135-12.3,135-80.7C368.1,290.3,348.9,249,318.4,225.5z"/>
	</g>
	<path fill="#69B3A5" d="M325.9,137c-5.1-1.1-10.2-2.1-15.5-3c-2.6-46.5-40.9-82.6-87.6-82.6c-46.2,0-84.1,35.3-87.5,81.1
		c-4.9,0.7-10,1.6-15.2,2.8l2.1,13.8c2,0,5.4,0.8,5.6,4.7c0.6,14.7,2.7,25.8,7.8,33.3c-1.6,1.3-2.8,2.8-3.3,4.5c0,0,0.3,0,0.7,0
		c1.7,0,6,0.1,6.5,0.6c0,0-9.7,17.1-8.2,28.2l5.9-3.5c0,0-3.5,27,2.7,35.4c0,0,4.8-6.9,5.9-7.9c0,0,4.5,26.2,8.4,31.4
		c0,0,3.7-5.2,5.3-6.4c0,0,2,16.7,10.4,26.3l3.7-5.9c0,0,9,21.3,6.7,31.5c0,0,6.7-5.4,6.7-7.2c0,0,0.8,11.6,15.2,18.1
		c0,0-0.3-5.2,1.1-6.7c0,0,14.3,12.1,6.5,20.3c0,0,0.7,0.1,1.8,0.1c3.1,0,9.3-0.8,11.7-7.3c2.4,6.5,8.6,7.3,11.7,7.3
		c1.1,0,1.8-0.1,1.8-0.1c-7.9-8.2,6.5-20.3,6.5-20.3c1.4,1.5,1.1,6.7,1.1,6.7c14.3-6.4,15.2-18.1,15.2-18.1c0,1.7,6.7,7.2,6.7,7.2
		c-2.2-10.2,6.7-31.5,6.7-31.5l3.7,5.9c8.4-9.5,10.4-26.3,10.4-26.3c1.7,1.2,5.3,6.4,5.3,6.4c3.9-5.2,8.4-31.5,8.4-31.5
		c1.1,1,5.9,7.9,5.9,7.9c6.2-8.4,2.7-35.4,2.7-35.4l5.9,3.5c1.5-11.1-8.2-28-8.2-28c0.6-0.6,5.6-0.4,6.9-0.4c0.2,0,0.3,0,0.3,0
		c-0.5-2-1.9-3.8-3.8-5.2c5.1-9.3,5.2-21.8,8-30.8c1-3.3,2.2-5.1,5.8-5.1L325.9,137z M130.2,144.1c-2.9,0-5.3-0.6-5.3-1.3
		c0-0.7,2.4-1.3,5.3-1.3c2.9,0,5.3,0.6,5.3,1.3C135.5,143.5,133.1,144.1,130.2,144.1z M222.8,59.8c41.6,0,75.8,32,79.1,72.9
		c-6.4-0.8-13-1.3-19.8-1.3c-10.7,0-22.1,1.2-34.6,4.4c-7.4,1.9-15.9,3.8-23.6,3.8c-0.5,0-0.9,0-1.4,0c-4.9-0.1-9.5-1.3-13.8-2.3
		c-16.9-3.9-32.9-6.5-49.6-6.5c-5,0-10,0.2-15.2,0.7C147.7,91.1,181.7,59.8,222.8,59.8z M204.6,179.8c5.8-8.2,9-17,9.9-22
		c1.1-6,4.5-6.6,8-6.7c0.1,0,0.2,0,0.3,0c5.8,0,6.7,4.4,7.7,7c3.6,9,6.8,16,10.1,21.5c-2.3,0.1-4.3,0.3-6.2,0.4
		c-8.8,0.5-15.5,2.6-19.9,2C211.4,181.7,205.6,179.9,204.6,179.8z M167.5,194.6c-22.4,0-29-3.9-31.9-30c0-17.5-1.1-27.6,31.8-27.6
		c0.1,0,0.2,0,0.3,0c22.4,2,46,1.8,36.9,28.5C199,182.1,190.1,194,167.5,194.6z M222.7,242c-16.3,0-29.7-12.6-31-28.6
		c4-0.5,9-1.6,10.6-4c0,0,2.2,3.5,2.5,6.8c0,0,4.3-2.9,8.5-7.3c0,0,4.3,5.1,4,6.7c0,0,8.5-4.8,8.7-6.7c0,0,3.8,5.1,9.1,5.1
		c0.3,0,0.5,0,0.8,0c0,0,1.7-3.1,3.4-5.1c0,0,3,3.5,7.3,3.5c0.5,0,1.1-0.1,1.6-0.2c0,0,0.5-4.7,1.4-5.6c0,0,1.4,0.3,3.2,0.6
		c0.7,1.1,1.1,2.4,1.1,3.7C253.9,228.1,239.9,242,222.7,242z M310.7,164.6c-3,26.1-9.5,30.1-31.9,30.1
		c-22.7-0.6-31.5-12.5-37.1-29.1c-9.1-26.8,14.5-26.6,36.9-28.6c0.1,0,0.2,0,0.3,0C311.9,137,310.7,147.1,310.7,164.6z M316.4,145.5
		c-2.9,0-5.3-0.6-5.3-1.3c0-0.7,2.4-1.3,5.3-1.3s5.3,0.6,5.3,1.3C321.6,144.9,319.3,145.5,316.4,145.5z"/>
</g>
</svg>
