<?xml version="1.0" encoding="utf-8"?>
<!-- Generator: Adobe Illustrator 16.0.0, SVG Export Plug-In . SVG Version: 6.00 Build 0)  -->
<!DOCTYPE svg PUBLIC "-//W3C//DTD SVG 1.1//EN" "http://www.w3.org/Graphics/SVG/1.1/DTD/svg11.dtd">
<svg version="1.1" id="Layer_1" xmlns="http://www.w3.org/2000/svg" xmlns:xlink="http://www.w3.org/1999/xlink" x="0px" y="0px"
	 width="216.3px" height="354.7px" viewBox="0 0 216.3 354.7" style="enable-background:new 0 0 216.3 354.7;" xml:space="preserve"
	>
<style type="text/css">
<![CDATA[
	.st0{fill:#3F4A4D;}
	.st1{fill:none;}
	.st2{fill:white;}
]]>
</style>
<line class="st1" x1="-261.9" y1="-301.9" x2="-261.9" y2="1032"/>
<line class="st1" x1="488.1" y1="1032" x2="488.1" y2="-301.9"/>
<line class="st1" x1="-262.3" y1="1031.7" x2="-262.3" y2="-302.3"/>
<line class="st1" x1="487.7" y1="-302.3" x2="487.7" y2="1031.7"/>
<line class="st1" x1="-390.8" y1="-303" x2="-390.8" y2="1041"/>
<line class="st1" x1="-261.9" y1="-302" x2="-261.9" y2="1031.7"/>
<line class="st1" x1="487.7" y1="1031.7" x2="487.7" y2="-302"/>
<line class="st1" x1="-261.9" y1="-301.9" x2="-261.9" y2="1032"/>
<line class="st1" x1="488.1" y1="1032" x2="488.1" y2="-301.9"/>
<line class="st1" x1="-261.9" y1="-302" x2="-261.9" y2="1031.7"/>
<line class="st1" x1="-261.9" y1="-301.9" x2="-261.9" y2="1032"/>
<line class="st1" x1="488.1" y1="1032" x2="488.1" y2="-301.9"/>
<path class="st2" d="M182.5,118.6c-2.2-44.8-39-80-84-80c-44.5,0-81,34.4-83.9,78.5c-4.7,0.7-9.6,1.6-14.6,2.7L2,133
	c1.9,0,5.2,0.8,5.3,4.5c0.6,14.1,2.6,24.7,7.5,31.9c-1.5,1.2-2.6,2.6-3,4.2c0,0,6.3-0.1,6.9,0.7c0,0-9.3,16.4-7.9,27.1l5.6-3.3
	c0,0-3.3,25.9,2.6,33.9c0,0,4.6-6.6,5.6-7.6c0,0,4.3,25.1,8.1,30.1c0,0,3.5-5,5.1-6.2c0,0,1.9,16,10,25.2l3.5-5.7
	c0,0,8.6,20.4,6.5,30.1c0,0,6.5-5.2,6.5-6.9c0,0,0.8,11.2,14.5,17.3c0,0-0.3-5,1.1-6.4c0,0,13.7,11.6,6.2,19.5c0,0,9.8,1.5,12.9-6.9
	c3.1,8.4,12.9,6.9,12.9,6.9c-7.5-7.8,6.2-19.5,6.2-19.5c1.3,1.4,1.1,6.4,1.1,6.4c13.7-6.2,14.5-17.3,14.5-17.3
	c0,1.7,6.5,6.9,6.5,6.9c-2.2-9.7,6.5-30.1,6.5-30.1l3.5,5.7c8.1-9.1,10-25.2,10-25.2c1.6,1.2,5.1,6.2,5.1,6.2
	c3.8-5,8.1-30.1,8.1-30.1c1.1,1,5.6,7.6,5.6,7.6c5.9-8.1,2.6-33.9,2.6-33.9l5.6,3.3c1.4-10.7-7.9-27.1-7.9-27.1
	c0.6-0.7,6.9-0.7,6.9-0.7c-0.5-1.8-1.8-3.4-3.7-4.7c4.9-8.9,5-20.8,7.7-29.4c1-3.2,2.1-4.8,5.6-4.9l1.6-13.2
	C192.4,120.5,187.5,119.5,182.5,118.6 M9.7,128.3c-2.8,0-5-0.6-5-1.3c0-0.7,2.3-1.3,5-1.3c2.8,0,5,0.6,5,1.3
	C14.8,127.7,12.5,128.3,9.7,128.3 M98.5,46.7c40.1,0,73.1,31.2,75.8,70.7c-15.6-2-32.5-2.1-52.2,2.9c-7.5,1.9-16.2,3.8-24,3.6
	c-4.7-0.1-9.1-1.2-13.2-2.2c-21-4.9-40.5-7.5-62.2-5.5C26.1,77.3,58.8,46.7,98.5,46.7 M106.1,141.7c3.4,8.6,6.4,15.3,9.6,20.6
	c-2.2,0.1-4.2,0.2-6,0.4h0c-8.9,0.5-15.6,0.3-19.8,0.1c-1.4-0.1-2.9-0.2-4.6-0.3c0,0,0,0,0,0l0,0c-0.9-0.1-1.8-0.1-2.8-0.2
	c5.5-7.8,7.8-16.1,8.7-21c1-5.8,4-6.3,7.3-6.4C104.4,134.8,105,139.1,106.1,141.7 M45.4,176.7c-21.5,0-27.7-3.9-30.6-29
	c0-16.8-1.1-26.6,30.8-26.6c21.5,2.1,44.1,1.9,35.4,27.5C75.6,164.5,67.2,176.1,45.4,176.7 M98.4,222.1c-15.7,0-28.5-12.1-29.7-27.4
	c3.8-0.5,8.6-1.5,10.1-3.9c0,0,2.1,3.3,2.4,6.5c0,0,4.2-2.7,8.2-7c0,0,4.1,4.8,3.8,6.5c0,0,8.1-4.6,8.4-6.5c0,0,4.1,5.4,9.4,4.8
	c0,0,1.6-3,3.2-4.8c0,0,3.7,4.2,8.6,3.2c0,0,0.5-4.5,1.3-5.3c0,0,1.3,0.2,3,0.5c0.7,1.1,1.1,2.3,1.1,3.6
	C128.2,208.7,114.9,222.1,98.4,222.1 M182.7,147.7c-2.9,25-9.1,29-30.6,29c-21.7-0.6-30.2-12.1-35.6-28
	c-8.7-25.6,13.9-25.4,35.4-27.5C183.8,121.1,182.7,130.9,182.7,147.7 M188.1,129.6c-2.8,0-5-0.6-5-1.3c0-0.7,2.3-1.3,5-1.3
	c2.8,0,5,0.6,5,1.3C193.1,129,190.9,129.6,188.1,129.6"/>
<path class="st2" d="M162.1,145.3c0,0-0.1,0.1-0.3,0.3c-0.2,0.2-0.5,0.5-0.8,0.9c-0.4,0.4-0.8,0.9-1.4,1.4c-0.6,0.5-1.2,1.1-2,1.6
	c-0.7,0.6-1.6,1.1-2.5,1.7c-0.5,0.3-1,0.5-1.5,0.7c-0.5,0.2-1,0.5-1.6,0.7c-0.6,0.2-1.1,0.4-1.7,0.6c-0.6,0.2-1.2,0.3-1.8,0.4
	c-1.2,0.3-2.5,0.3-3.8,0.5c-0.6,0.1-1.3,0-1.9,0c-0.6,0-1.3,0-1.9-0.1c-1.3-0.2-2.5-0.3-3.7-0.7c-1.1-0.4-2.2-0.9-3.2-1.4
	c-0.9-0.6-1.8-1.2-2.5-1.8c-0.4-0.3-0.7-0.6-1.1-0.9c-0.3-0.3-0.6-0.6-0.8-0.9c-0.5-0.6-0.9-1.1-1.3-1.6c-0.7-0.9-1-1.5-1-1.5
	l0.3-0.4c0,0,0.7,0.1,1.7,0.4c0.5,0.1,1.1,0.3,1.8,0.6c0.3,0.1,0.7,0.3,1.1,0.4c0.4,0.1,0.8,0.2,1.2,0.3c0.8,0.2,1.7,0.6,2.6,0.9
	c0.9,0.2,1.9,0.5,2.8,0.9c1,0.3,1.9,0.6,2.9,1c1,0.3,2.1,0.5,3.2,0.7c1.1,0,2.2,0.2,3.3,0.1c0.5,0,1.1-0.1,1.6-0.1
	c0.5-0.1,1.1-0.2,1.6-0.3c0.5-0.1,1-0.2,1.5-0.4c0.5-0.1,1-0.2,1.4-0.4c0.9-0.3,1.8-0.6,2.6-1c0.8-0.3,1.5-0.8,2.1-1.1
	c0.6-0.4,1.1-0.7,1.6-1c0.4-0.3,0.8-0.5,1-0.7c0.2-0.2,0.3-0.3,0.3-0.3L162.1,145.3z"/>
<path class="st2" d="M65.7,145.3c0,0-0.1,0.1-0.3,0.3c-0.2,0.2-0.5,0.5-0.8,0.9c-0.4,0.4-0.8,0.9-1.4,1.4c-0.6,0.5-1.2,1.1-2,1.6
	c-0.7,0.6-1.6,1.1-2.5,1.7c-0.5,0.3-1,0.5-1.5,0.7c-0.5,0.2-1,0.5-1.6,0.7c-0.6,0.2-1.1,0.4-1.7,0.6c-0.6,0.2-1.2,0.3-1.8,0.4
	c-1.2,0.3-2.5,0.3-3.8,0.5c-0.6,0.1-1.3,0-1.9,0c-0.6,0-1.3,0-1.9-0.1c-1.3-0.2-2.5-0.3-3.7-0.7c-1.1-0.4-2.2-0.9-3.2-1.4
	c-0.9-0.6-1.8-1.2-2.5-1.8c-0.4-0.3-0.7-0.6-1.1-0.9c-0.3-0.3-0.6-0.6-0.8-0.9c-0.5-0.6-0.9-1.1-1.3-1.6c-0.7-0.9-1-1.5-1-1.5
	l0.3-0.4c0,0,0.7,0.1,1.7,0.4c0.5,0.1,1.1,0.3,1.8,0.6c0.3,0.1,0.7,0.3,1.1,0.4c0.4,0.1,0.8,0.2,1.2,0.3c0.8,0.2,1.7,0.6,2.6,0.9
	c0.9,0.2,1.9,0.5,2.8,0.9c1,0.3,1.9,0.6,2.9,1c1,0.3,2.1,0.5,3.2,0.7c1.1,0,2.2,0.2,3.3,0.1c0.5,0,1.1-0.1,1.6-0.1
	c0.5-0.1,1-0.2,1.6-0.3c0.5-0.1,1-0.2,1.5-0.4c0.5-0.1,1-0.2,1.4-0.4c0.9-0.3,1.8-0.6,2.6-1c0.8-0.3,1.5-0.8,2.1-1.1
	c0.6-0.4,1.1-0.7,1.6-1c0.4-0.3,0.8-0.5,1-0.7c0.2-0.2,0.3-0.3,0.3-0.3L65.7,145.3z"/>
<path class="st2" d="M201.3,354.7h-75.2c-1.4,0-2.4-1.4-1.9-2.7l8.5-22c0.3-0.8,1-1.3,1.9-1.3h58.3c0.8,0,1.6,0.5,1.9,1.3l8.5,22
	C203.7,353.3,202.8,354.7,201.3,354.7"/>
<path class="st0" d="M216.3,287.5c0,28.8-23.4,52.2-52.2,52.2s-52.2-23.4-52.2-52.2s23.4-52.2,52.2-52.2S216.3,258.7,216.3,287.5"/>
<path class="st2" d="M210.6,287.5c0,25.7-20.8,46.5-46.5,46.5c-25.7,0-46.5-20.8-46.5-46.5c0-25.7,20.8-46.5,46.5-46.5
	C189.8,241,210.6,261.8,210.6,287.5"/>
<path class="st0" d="M186.6,256.3c-1-0.7-2.1,0.6-1.3,1.5c7.2,7.8,11.6,18.3,11.6,29.7c0,11.5-4.4,21.9-11.6,29.7
	c-0.8,0.9,0.3,2.2,1.3,1.5c9.7-7,16-18.4,16-31.2S196.3,263.2,186.6,256.3"/>
<polygon class="st0" points="136.3,280.1 140.1,285.6 146.7,285.6 142.7,290.8 144.7,297.1 138.5,294.9 133.1,298.8 133.2,292.2
	127.9,288.3 134.2,286.4 "/>
<polygon class="st0" points="167.5,280.8 167.3,285.2 170.8,287.9 166.5,289 165.1,293.2 162.6,289.5 158.2,289.4 161,285.9
	159.8,281.7 163.9,283.3 "/>
<polygon class="st0" points="148,254.4 153.8,260.2 162,258.8 158.2,266.1 162.1,273.4 153.9,272.1 148.2,278 147,269.9
	139.5,266.3 146.9,262.5 "/>
<path class="st2" d="M156.6,61.9l-64-21.8c-1.2-0.4-1.2-3-0.1-5L112,1.6c0.7-1.2,1.6-1.8,2.3-1.6l49.6,16.9c0.7,0.2,1.1,1.3,0.9,2.6
	l-5,38.5C159.4,60.3,157.8,62.3,156.6,61.9"/>
<path class="st2" d="M176,30.1c0,2.6-2.1,4.8-4.8,4.8c-2.6,0-4.8-2.1-4.8-4.8s2.1-4.8,4.8-4.8C173.8,25.3,176,27.5,176,30.1"/>
<path class="st2" d="M183,53.4c-0.4,2.6-3.2,4.3-6.1,3.8c-2.9-0.5-5-3-4.5-5.5c0.4-2.6,3.2-4.3,6.1-3.8
	C181.4,48.3,183.4,50.8,183,53.4"/>
<path class="st2" d="M179,40.1c0,1.8-1.5,3.3-3.3,3.3c-1.8,0-3.3-1.5-3.3-3.3s1.5-3.3,3.3-3.3C177.5,36.8,179,38.3,179,40.1"/>
<line class="st1" x1="-262.3" y1="1031.7" x2="-262.3" y2="-302.3"/>
<line class="st1" x1="487.7" y1="-302.3" x2="487.7" y2="1031.7"/>
<line class="st1" x1="-262.3" y1="-302.3" x2="-262.3" y2="1031.7"/>
<line class="st1" x1="487.7" y1="1031.7" x2="487.7" y2="-302.3"/>
</svg>
