<?xml version="1.0" encoding="utf-8"?>
<!-- Generator: Adobe Illustrator 16.0.0, SVG Export Plug-In . SVG Version: 6.00 Build 0)  -->
<!DOCTYPE svg PUBLIC "-//W3C//DTD SVG 1.1//EN" "http://www.w3.org/Graphics/SVG/1.1/DTD/svg11.dtd">
<svg version="1.1" id="Layer_1" xmlns="http://www.w3.org/2000/svg" xmlns:xlink="http://www.w3.org/1999/xlink" x="0px" y="0px"
	 width="323.136px" height="190.333px" viewBox="175.556 245.359 323.136 190.333"
	 enable-background="new 175.556 245.359 323.136 190.333" xml:space="preserve">
<g>
	
		<image overflow="visible" opacity="0.75" enable-background="new    " width="529" height="312" xlink:href="4F5F0FC9F66BCE2C.png"  transform="matrix(0.6108 0 0 0.61 175.5557 245.3589)">
	</image>
	<g>
		<g>
			<rect x="179.928" y="249.732" fill="#2B3234" width="306" height="173.196"/>
			<text transform="matrix(1 0 0 1 279.9551 304.1401)" fill="#FFFFFF" font-family="'OpenSans-Light'" font-size="26.8167">HELP NEEDED</text>
			<g>
				<g>
					<polygon fill="#65A6D1" points="198.472,341.471 199.818,345.326 203.918,345.388 200.675,347.897 201.837,351.813 
						198.472,349.427 195.167,351.813 196.33,347.897 193.086,345.388 197.125,345.326 					"/>
					<polygon fill="#65A6D1" points="215.057,341.471 216.403,345.326 220.503,345.388 217.199,347.897 218.423,351.813 
						215.057,349.427 211.691,351.813 212.854,347.897 209.61,345.388 213.71,345.326 					"/>
					<polygon fill="#65A6D1" points="231.642,341.471 232.927,345.326 237.027,345.388 233.784,347.897 234.947,351.813 
						231.642,349.427 228.276,351.813 229.439,347.897 226.195,345.388 230.295,345.326 					"/>
					<polygon fill="#65A6D1" points="248.166,341.471 249.512,345.326 253.613,345.388 250.369,347.897 251.532,351.813 
						248.166,349.427 244.8,351.813 246.024,347.897 242.719,345.388 246.82,345.326 					"/>
					<polygon opacity="0.3" fill="#FFFFFF" enable-background="new    " points="264.751,341.471 266.098,345.326 270.137,345.388 
						266.893,347.897 268.117,351.813 264.751,349.427 261.385,351.813 262.548,347.897 259.304,345.388 263.405,345.326 					"/>
				</g>
			</g>
			<circle fill="#FFFFFF" cx="231.703" cy="294.469" r="35.374"/>
			<rect x="189.598" y="361.544" fill="#FFFFFF" width="280.234" height="11.261"/>
			<rect x="188.863" y="379.782" fill="#FFFFFF" width="280.234" height="11.261"/>
			<rect x="189.169" y="400.651" fill="#FFFFFF" width="196.757" height="11.261"/>
			<g>
				<circle fill="#2B3234" cx="221.728" cy="284.126" r="4.162"/>
				<path fill="#2B3234" d="M211.813,299.243c0,6.304,9.241,11.383,20.686,11.383c11.444,0,20.686-5.08,20.686-11.383
					c0-0.184,0-0.551-0.062-0.551h-41.31C211.875,298.692,211.813,298.998,211.813,299.243z"/>
				<circle fill="#2B3234" cx="242.291" cy="284.126" r="4.162"/>
			</g>
		</g>
	</g>
</g>
</svg>
