<!-- <?xml version="1.0" encoding="utf-8"?> -->
<!-- Generator: Adobe Illustrator 16.0.0, SVG Export Plug-In . SVG Version: 6.00 Build 0)  -->
<!-- <!DOCTYPE svg PUBLIC "-//W3C//DTD SVG 1.1//EN" "http://www.w3.org/Graphics/SVG/1.1/DTD/svg11.dtd"> -->
<svg version="1.1" id="Layer_1" xmlns="http://www.w3.org/2000/svg" xmlns:xlink="http://www.w3.org/1999/xlink" x="0px" y="0px"
	 width="91.012px" height="265.976px" viewBox="207.644 220.968 91.012 265.976"
	 enable-background="new 207.644 220.968 91.012 265.976" xml:space="preserve">
<g>
	<path fill="#FFFFFF" d="M222.523,240.001c-2.815-3.121-4.345-6.854-4.345-10.71c0-1.958,0.367-3.794,1.102-5.447
		c-0.367-0.795-1.163-1.408-2.448-1.224c-11.873,1.285-10.343,13.28-5.937,21.297c2.142,5.019,6.365,9.608,9.731,13.525
		c0.551,0.612,8.14,10.037,9.915,12.117c4.162,4.835,7.895,10.037,11.077,15.484c-0.612-3.366-1.224-6.61-1.836-9.731
		C236.966,261.299,231.336,249.732,222.523,240.001z"/>
	<path fill="#FFFFFF" d="M228.949,221.213c-0.061,0-0.123,0-0.184,0c-0.184,0-0.306,0.061-0.49,0.122c-0.061,0-0.122,0-0.184,0.062
		c-0.184,0.061-0.428,0.122-0.612,0.184h-0.061c-0.184,0.061-0.367,0.122-0.49,0.245c-0.061,0.061-0.123,0.061-0.184,0.123
		c-0.123,0.061-0.245,0.184-0.429,0.245c-0.061,0.061-0.122,0.061-0.122,0.123c-0.184,0.122-0.367,0.245-0.49,0.367
		c-0.061,0.061-0.061,0.061-0.123,0.122c-0.122,0.123-0.245,0.245-0.367,0.368c-0.061,0.061-0.122,0.122-0.122,0.122
		c-0.123,0.123-0.245,0.245-0.367,0.367c-0.062,0.062-0.062,0.062-0.123,0.123c-0.123,0.184-0.245,0.367-0.367,0.551
		c-0.061,0.061-0.061,0.123-0.123,0.184c-0.061,0.123-0.184,0.306-0.245,0.428c-0.061,0.062-0.061,0.123-0.123,0.184
		c-0.122,0.184-0.184,0.368-0.245,0.551v0.061c-0.061,0.245-0.184,0.428-0.245,0.673c0,0.061-0.062,0.122-0.062,0.184
		c-0.061,0.184-0.122,0.367-0.122,0.551c0,0.061-0.062,0.122-0.062,0.184c-0.061,0.245-0.061,0.489-0.123,0.734
		c0,0.061,0,0.061,0,0.122c0,0.245-0.061,0.429-0.061,0.673c0,0.061,0,0.123,0,0.245c0,0.123,0,0.306,0,0.429
		c0,0.184,0,0.306,0,0.489c0,0.123,0,0.245,0.061,0.429c0,0.184,0.062,0.367,0.062,0.489c0,0.123,0.061,0.245,0.061,0.429
		c0.062,0.184,0.062,0.367,0.123,0.489c0.061,0.123,0.061,0.306,0.123,0.429c0.061,0.184,0.122,0.367,0.184,0.49
		c0.061,0.122,0.122,0.245,0.184,0.428c0.061,0.184,0.184,0.367,0.245,0.551c0.061,0.123,0.123,0.245,0.184,0.428
		c0.123,0.184,0.184,0.367,0.306,0.551c0.061,0.123,0.122,0.245,0.245,0.367c0.123,0.184,0.245,0.429,0.428,0.612
		c0.062,0.123,0.123,0.184,0.245,0.306c0.245,0.306,0.489,0.612,0.734,0.918c10.098,11.138,15.606,23.684,18.421,37.577l0,0
		c0.184,0.979,0.429,2.02,0.612,3.06c0.061,0.306,0.122,0.673,0.184,0.979c0.122,0.673,0.245,1.408,0.428,2.081
		c0.061,0.367,0.123,0.795,0.245,1.163c0.123,0.612,0.245,1.285,0.367,1.958c0.062,0.428,0.123,0.857,0.245,1.224
		c0.122,0.612,0.245,1.285,0.306,1.897c0.062,0.428,0.123,0.857,0.184,1.224c0.123,0.673,0.245,1.346,0.306,2.02
		c0.061,0.367,0.123,0.795,0.184,1.163c0.123,0.796,0.245,1.591,0.367,2.387c0.062,0.245,0.062,0.551,0.123,0.795
		c0.184,1.102,0.306,2.142,0.428,3.244c0.062,0.245,0.062,0.489,0.123,0.795c0,0.184,0.061,0.428,0.061,0.612
		c0.062,0.612,0.184,1.286,0.245,1.897c0.061,0.428,0.061,0.795,0.122,1.224c0.062,0.734,0.184,1.469,0.245,2.203
		c0.061,0.428,0.122,0.918,0.122,1.346c0.062,0.734,0.123,1.408,0.184,2.142c0.062,0.49,0.062,0.918,0.123,1.408
		c0.061,0.734,0.123,1.469,0.184,2.203c0.061,0.49,0.061,0.918,0.123,1.408c0.061,0.795,0.122,1.591,0.184,2.448
		c0,0.429,0.061,0.796,0.061,1.224c0.061,1.163,0.123,2.326,0.184,3.488c0,0.062,0,0.123,0,0.184
		c0.061,0.796,0.061,1.652,0.123,2.448c0,0.428,0.061,0.918,0.061,1.346c0,0.429,0,0.796,0.061,1.224
		c0,0.918,0.062,1.775,0.062,2.693c0,0.489,0,0.979,0,1.53c0,0.857,0,1.652,0,2.509c0,0.245,0,0.49,0,0.734c0,0.429,0,0.857,0,1.224
		c0,0.428,0,0.857,0,1.346c0,0.796,0,1.652-0.062,2.509c0,0.367,0,0.734,0,1.163c0,1.224-0.061,2.448-0.122,3.672
		c0,0.061,0,0.184,0,0.245c-0.062,1.163-0.062,2.326-0.123,3.55c0,0.428-0.061,0.856-0.061,1.285
		c-0.062,0.857-0.062,1.775-0.123,2.631c0,0.49-0.061,0.979-0.061,1.469c-0.062,0.856-0.123,1.652-0.184,2.509
		c-0.062,0.551-0.062,1.041-0.123,1.591c-0.061,0.857-0.123,1.775-0.184,2.632c-0.061,0.489-0.061,0.979-0.123,1.53
		c-0.061,1.041-0.184,2.142-0.245,3.244c-0.061,0.367-0.061,0.673-0.061,1.041c-0.123,1.407-0.245,2.876-0.429,4.345
		c-0.061,0.367-0.061,0.734-0.122,1.102c-0.123,1.102-0.245,2.203-0.367,3.366c-0.062,0.551-0.123,1.102-0.184,1.652
		c-0.123,0.979-0.245,1.958-0.368,2.938c-0.061,0.306-0.061,0.551-0.122,0.856c-0.062,0.306-0.062,0.673-0.123,0.979
		c-0.123,0.979-0.245,2.02-0.367,2.999c-0.061,0.612-0.123,1.163-0.245,1.775c-0.123,1.102-0.306,2.203-0.429,3.305
		c-0.061,0.551-0.122,1.041-0.184,1.591c-0.245,1.652-0.489,3.305-0.734,5.019l0,0c-0.918-1.652-1.774-3.794-2.509-6.12v-0.061
		c-0.184-0.673-0.428-1.285-0.612-2.02c-0.306-1.041-0.612-2.081-0.918-3.183c-0.367-1.408-0.734-2.876-1.041-4.284
		c-0.061-0.367-0.184-0.734-0.245-1.04c-1.224-5.263-2.081-10.037-2.57-11.996c-0.551-2.081-1.102-3.794-1.652-5.263
		c-0.306-0.856-0.673-1.652-1.041-2.448c-0.184-0.367-0.367-0.796-0.551-1.163c-1.041-2.142-2.265-4.406-3.672-7.527
		c-1.041-2.265-2.265-5.019-3.611-8.568l0,0c-0.184-0.429-0.367-0.857-0.551-1.285c-0.062-0.123-0.123-0.245-0.184-0.367
		c-0.123-0.245-0.245-0.551-0.367-0.796c-0.062-0.123-0.184-0.245-0.245-0.428c-0.122-0.184-0.245-0.429-0.367-0.612
		c-0.061-0.122-0.184-0.245-0.245-0.367c-0.123-0.184-0.245-0.367-0.367-0.489c-0.062-0.123-0.184-0.245-0.245-0.306
		c-0.123-0.184-0.245-0.306-0.429-0.428c-0.061-0.062-0.184-0.184-0.245-0.245c-0.123-0.122-0.306-0.245-0.429-0.367
		c-0.061-0.061-0.184-0.122-0.245-0.184c-0.184-0.122-0.428-0.245-0.612-0.367l-0.062-0.061c-0.245-0.123-0.489-0.245-0.734-0.306
		c-0.061,0-0.184-0.061-0.245-0.061c-0.184-0.061-0.306-0.061-0.49-0.123c-0.122,0-0.184,0-0.306-0.061
		c-0.123,0-0.306,0-0.429-0.061c-0.123,0-0.184,0-0.306,0c-0.122,0-0.306,0-0.428,0.061c-0.123,0-0.184,0.061-0.306,0.061
		c-0.122,0-0.306,0.062-0.428,0.123c-0.123,0-0.184,0.061-0.306,0.061c-0.122,0.062-0.306,0.123-0.428,0.184
		c-0.061,0.062-0.184,0.062-0.245,0.123c-0.184,0.061-0.367,0.184-0.551,0.306c-0.062,0.061-0.123,0.061-0.184,0.122
		c-0.245,0.123-0.429,0.306-0.673,0.49c-0.061,0.061-0.184,0.123-0.245,0.184c-0.123,0.123-0.245,0.245-0.429,0.367
		c-0.061,0.061-0.184,0.184-0.245,0.306c-0.123,0.122-0.245,0.245-0.367,0.428c-0.062,0.123-0.184,0.245-0.245,0.306
		c-0.122,0.122-0.245,0.306-0.306,0.428c-0.062,0.123-0.184,0.245-0.245,0.367c-0.122,0.184-0.184,0.306-0.306,0.49
		c-0.062,0.122-0.184,0.245-0.245,0.367c-0.122,0.184-0.184,0.367-0.306,0.551c-0.062,0.123-0.123,0.245-0.184,0.367
		c-0.123,0.245-0.245,0.49-0.367,0.734c-0.062,0.123-0.062,0.184-0.123,0.306c-0.123,0.367-0.306,0.734-0.428,1.102
		c-0.062,0.122-0.062,0.245-0.123,0.367c-0.061,0.245-0.184,0.49-0.245,0.795c-0.062,0.184-0.062,0.306-0.123,0.49
		c-0.062,0.245-0.123,0.49-0.184,0.734c-0.062,0.184-0.062,0.367-0.123,0.551c-0.061,0.245-0.123,0.49-0.123,0.734
		c-0.061,0.184-0.061,0.367-0.122,0.551c-0.062,0.245-0.062,0.551-0.123,0.795c0,0.184-0.061,0.367-0.061,0.551
		c-0.062,0.306-0.062,0.612-0.062,0.857c0,0.184,0,0.367-0.061,0.551c0,0.367,0,0.734-0.061,1.102c0,0.123,0,0.245,0,0.367
		c0,0.306,0,0.612,0,0.918c0,0.245,0,0.429,0,0.673c0,0.367,0.061,0.673,0.061,1.041c0,0.184,0,0.428,0.061,0.612
		c0.062,0.367,0.123,0.734,0.123,1.163c0,0.184,0.061,0.367,0.061,0.551c0.062,0.551,0.184,1.102,0.306,1.713
		c0,0.123,0.061,0.245,0.123,0.428c0.061,0.306,0.122,0.612,0.245,1.041c0.184,0.734,0.429,1.652,0.734,2.693
		c0.123,0.49,0.306,1.041,0.49,1.652c0.061,0.306,0.184,0.551,0.245,0.857c0.184,0.612,0.367,1.224,0.551,1.897
		c0.857,2.938,1.897,6.365,3.06,10.037c0.49,1.652,1.041,3.366,1.591,5.08c0.245,0.856,0.551,1.713,0.795,2.631
		c0.245,0.857,0.551,1.775,0.857,2.632c0.551,1.775,1.102,3.549,1.713,5.385c0.306,0.918,0.551,1.775,0.857,2.693
		c1.102,3.55,2.203,7.038,3.244,10.282c0.245,0.795,0.49,1.591,0.734,2.387c0.734,2.325,1.408,4.528,2.02,6.486
		c0.429,1.286,0.796,2.51,1.102,3.611c0.184,0.551,0.306,1.04,0.49,1.53c0.49,1.713,0.857,2.998,1.102,3.794
		c2.142,8.629,4.223,15.667,6.365,21.543c0.184,0.611,0.429,1.162,0.673,1.713c1.102,2.815,2.203,5.324,3.366,7.589
		c0.735,1.347,1.408,2.632,2.204,3.795c1.224,2.02,2.57,3.733,4.039,5.386c0.306,0.306,0.551,0.611,0.857,0.918
		c0.612,0.611,1.224,1.224,1.836,1.774c3.121,2.876,6.793,5.202,11.077,7.405c0.857,0.429,1.775,0.856,2.693,1.285
		c5.08,2.387,11.077,4.712,18.299,7.467c1.958,0.734,4.039,1.529,6.181,2.387c2.876,1.102,5.814,2.325,8.996,3.61
		c0.184,0.062,0.49,0.184,0.49,0.245v-82.069c-1.224-3.183-3.06-6.609-4.284-10.22c-0.306-0.857-0.489-1.714-0.795-2.632
		c0-0.061,0.061-0.123,0.061-0.184v-0.061c0-0.062,0-0.123,0-0.184c0-0.062,0-0.123,0-0.123c0-0.061,0-0.123,0-0.245
		c0-0.062-0.245-0.123-0.245-0.184c0-0.062-0.245-0.184-0.245-0.245c0-0.061,0-0.184,0-0.245s0-0.123,0-0.184
		c0-0.123,0.245-0.245,0.245-0.367c0-0.061,0.123-0.123,0.123-0.123c0-0.184,0.061-0.367,0.061-0.551
		c0-0.061,0.062-0.061,0.062-0.122c0-0.123,0-0.306,0-0.429c0-0.061,0-0.122,0-0.245s0-0.245,0-0.429c0-0.061,0-0.184,0-0.245
		c0-0.123,0-0.245,0-0.428c0-0.062,0-0.184,0-0.245c0-0.122,0-0.306,0-0.428c0-0.061,0-0.184,0-0.245c0-0.184,0-0.367,0-0.49
		c0-0.061,0-0.123,0-0.184c0-0.245,0-0.428-0.062-0.673c0-0.061,0-0.122,0-0.122c0-0.184,0-0.429-0.061-0.673
		c0-0.062,0-0.184,0-0.245c0-0.184,0-0.306,0-0.489c0-0.123,0-0.245,0-0.367c0-0.123,0-0.245,0-0.429c0-0.122,0-0.245,0-0.367
		c0-0.122,0-0.306,0-0.428s0-0.245,0-0.367s0-0.245,0-0.367s0-0.245,0-0.367c0-0.184,0-0.306-0.062-0.49c0-0.061,0-0.184,0-0.245
		c0-0.245-0.061-0.49-0.061-0.734c0-0.062,0-0.123,0-0.245c0-0.184,0-0.306-0.061-0.489c0-0.062,0-0.184,0-0.245
		c0-0.122,0-0.306-0.062-0.428c0-0.123,0-0.184,0-0.306c0-0.122,0-0.245,0-0.367c0-0.061,0-0.184,0-0.245
		c0-0.123,0-0.306-0.061-0.428c0-0.062,0-0.123,0-0.123c0-0.184,0-0.306-0.061-0.49c0-0.061,0-0.061,0-0.122
		c0-0.184-0.062-0.368-0.062-0.551c0-0.061,0-0.061,0-0.122c0-0.123,0-0.245-0.061-0.429c0-0.061,0-0.122,0-0.184
		c0-0.061,0-0.184,0-0.245s0-0.123,0-0.184s0-0.123,0-0.245c0-0.062,0-0.123,0-0.123c0-0.061,0-0.123,0-0.245
		c0-0.062,0-0.062,0-0.123s0-0.123,0-0.184v-0.061c0-0.062,0-0.123,0-0.184c-1.346-9.792-2.632-19.095-3.917-28.091
		c-0.795-5.386-1.591-10.588-2.448-15.729c-0.306-1.714-0.551-3.366-0.857-5.08c-0.551-2.999-1.102-5.998-1.652-8.874
		c-0.734-3.855-1.591-7.65-2.448-11.322c-0.612-2.448-1.224-4.896-1.836-7.283c-0.551-2.142-1.163-4.284-1.836-6.426
		c-1.224-4.039-2.509-7.956-3.978-11.812c-0.673-1.836-1.407-3.55-2.142-5.325c-0.796-1.897-1.591-3.733-2.509-5.508
		c-4.59-9.669-10.221-18.666-17.381-27.05c-2.938-3.427-6.12-6.793-9.608-10.037c-0.673-0.673-4.773-4.834-6.243-6.487
		c-0.245-0.245-0.489-0.49-0.673-0.734c-0.062-0.062-0.123-0.123-0.184-0.184c-0.184-0.184-0.367-0.306-0.551-0.49
		c-0.062-0.062-0.123-0.123-0.184-0.123c-0.245-0.184-0.49-0.367-0.673-0.49c-0.061,0-0.061-0.061-0.123-0.061
		c-0.184-0.123-0.367-0.245-0.612-0.306c-0.062-0.061-0.123-0.061-0.184-0.122c-0.184-0.062-0.367-0.184-0.551-0.245
		c-0.062,0-0.123-0.061-0.184-0.061c-0.245-0.061-0.429-0.123-0.673-0.184c-0.061,0-0.123,0-0.184-0.061
		c-0.184-0.062-0.367-0.062-0.551-0.062c-0.061,0-0.123,0-0.184,0c-0.184,0-0.367,0-0.551,0c-0.061,0-0.061,0-0.123,0
		C229.377,221.151,229.194,221.213,228.949,221.213z"/>
</g>
</svg>
