<svg width="912px" height="200px" viewBox="0 0 912 200" version="1.1" xmlns="http://www.w3.org/2000/svg" xmlns:xlink="http://www.w3.org/1999/xlink">
    <path d="M326.384156,155.499507 L325.966098,155.499507 L300.334826,50.7796151 L270.184205,50.7796151 L244.657447,155.499507 L244.235785,155.499507 L220.496586,50.7796151 L188.771039,50.7796151 L228.688358,197.391788 L258.626346,197.391788 L284.992824,97.1768304 L285.519,97.1768304 L311.885477,197.391788 L342.036099,197.391788 L381.848903,50.7796151 L350.123356,50.7796151 L326.384156,155.499507 L326.384156,155.499507 Z M705.292346,48.4154258 C667.476129,48.4154258 644.890192,73.4412346 644.890192,115.438031 L644.890192,133.165847 C644.890192,175.591512 667.36801,199.8677 705.184227,199.8677 C743.104959,199.8677 762.018474,176.236619 762.018474,149.808874 L762.018474,147.127538 L733.550895,147.127538 C733.550895,162.271324 726.195239,174.085062 705.710404,174.085062 C685.121054,174.085062 675.03721,161.089229 675.03721,133.165847 L675.03721,115.438031 C675.03721,87.8390034 685.225568,73.9818267 705.501375,73.9818267 C724.512196,73.9818267 733.547291,86.8695417 733.547291,101.371825 L762.01487,101.371825 L762.01487,99.865375 C762.018474,71.2932822 740.798433,48.4154258 705.292346,48.4154258 L705.292346,48.4154258 Z M429.857082,50.7796151 L383.63646,197.391788 L413.36542,197.391788 L423.748392,160.444122 L469.111275,160.444122 L479.332069,197.391788 L511.16213,197.391788 L465.049626,50.7796151 L429.857082,50.7796151 L429.857082,50.7796151 Z M430.091339,137.890621 L446.456863,79.6724592 L446.770406,79.6724592 L462.872842,137.890621 L430.091339,137.890621 L430.091339,137.890621 Z M881.983062,50.7796151 L881.983062,109.642884 L823.364862,109.642884 L823.364862,50.7796151 L793.639506,50.7796151 L793.639506,197.391788 L823.364862,197.391788 L823.364862,134.881325 L881.983062,134.881325 L881.983062,197.395392 L911.816536,197.395392 L911.816536,50.7796151 L881.983062,50.7796151 L881.983062,50.7796151 Z M510.639557,76.1261753 L553.285064,76.1261753 L553.285064,197.391788 L582.909509,197.391788 L582.909509,76.1261753 L625.663134,76.1261753 L625.663134,50.7796151 L510.639557,50.7796151 L510.639557,76.1261753 L510.639557,76.1261753 Z M133.035997,106.240757 C132.80174,80.9446526 153.23612,68.7741231 154.169543,68.1866797 C142.568437,50.7219519 124.649612,48.7938402 118.3391,48.3109113 C102.229457,47.0999851 88.5741009,57.5153923 80.9481488,57.5153923 C73.2140783,57.5153923 61.2886172,48.5739994 48.6423667,48.8154639 C32.0425862,49.0713441 16.7402267,58.6830711 8.18445623,73.891728 C-9.06043079,104.507259 3.78043284,149.848518 20.5748265,174.672506 C28.7918259,186.817807 38.5873542,200.487579 51.4606534,199.98663 C63.8510236,199.489286 68.5325509,191.787651 83.5105552,191.787651 C98.4777477,191.787651 102.701574,199.98663 115.801922,199.73075 C129.132922,199.49289 137.584178,187.362003 145.736306,175.144623 C155.178648,161.067605 159.056495,147.437477 159.287148,146.698668 C158.98802,146.597757 133.288273,136.513913 133.035997,106.240757 L133.035997,106.240757 Z M108.39581,31.9165558 C115.236102,23.4725077 119.841946,11.6912045 118.573357,0 C108.727373,0.392830237 96.8271399,6.70694561 89.7634035,15.1401819 C83.4420802,22.6255801 77.8847938,34.6051004 79.3912437,46.083672 C90.3688666,46.9450153 101.562726,40.3714158 108.39581,31.9165558 L108.39581,31.9165558 Z" fill="#000000"></path>
</svg>