<svg width="100px" height="100px" viewBox="0 0 100 100" version="1.1" xmlns="http://www.w3.org/2000/svg" xmlns:xlink="http://www.w3.org/1999/xlink">
    <path d="M3.84615385,15.1762464 C3.84615385,10.5762352 7.5737389,6.84615385 12.1676661,6.84615385 L87.8323339,6.84615385 C92.4245113,6.84615385 96.1538462,10.5808357 96.1538462,15.1762464 L96.1538462,65.1827279 C96.1538462,69.7827392 92.4262611,73.5128205 87.8323339,73.5128205 L12.1676661,73.5128205 C7.57548871,73.5128205 3.84615385,69.7781386 3.84615385,65.1827279 L3.84615385,15.1762464 L3.84615385,15.1762464 L3.84615385,15.1762464 Z M0,15.1762464 L0,65.1827279 C0,71.9010782 5.45008204,77.3589744 12.1676661,77.3589744 L87.8323339,77.3589744 C94.5510098,77.3589744 100,71.9063351 100,65.1827279 L100,15.1762464 C100,8.45789619 94.549918,3 87.8323339,3 L12.1676661,3 C5.44899019,3 0,8.45263921 0,15.1762464 L0,15.1762464 L0,15.1762464 Z M3.20512821,65.8205128 L97.4358974,65.8205128 L97.4358974,61.974359 L3.20512821,61.974359 L3.20512821,65.8205128 L3.20512821,65.8205128 L3.20512821,65.8205128 Z M41.6666667,75.4358974 L41.6666667,89.5384615 L45.5128205,89.5384615 L45.5128205,75.4358974 L41.6666667,75.4358974 L41.6666667,75.4358974 L41.6666667,75.4358974 Z M54.4871795,75.4358974 L54.4871795,89.5384615 L58.3333333,89.5384615 L58.3333333,75.4358974 L54.4871795,75.4358974 L54.4871795,75.4358974 L54.4871795,75.4358974 Z M28.2051282,91.4615385 C28.2051282,90.7581412 28.7850344,90.1794872 29.4866425,90.1794872 L70.5133575,90.1794872 C71.2264641,90.1794872 71.7948718,90.7464781 71.7948718,91.4615385 C71.7948718,92.1649357 71.2149656,92.7435897 70.5133575,92.7435897 L29.4866425,92.7435897 C28.7735359,92.7435897 28.2051282,92.1765988 28.2051282,91.4615385 L28.2051282,91.4615385 L28.2051282,91.4615385 Z M24.3589744,91.4615385 C24.3589744,94.3029226 26.6515096,96.5897436 29.4866425,96.5897436 L70.5133575,96.5897436 C73.3372787,96.5897436 75.6410256,94.2909713 75.6410256,91.4615385 C75.6410256,88.6201543 73.3484904,86.3333333 70.5133575,86.3333333 L29.4866425,86.3333333 C26.6627213,86.3333333 24.3589744,88.6321057 24.3589744,91.4615385 L24.3589744,91.4615385 L24.3589744,91.4615385 Z" fill="#000000"></path>
</svg>