<svg width="117px" height="100px" viewBox="0 0 117 100" version="1.1" xmlns="http://www.w3.org/2000/svg" xmlns:xlink="http://www.w3.org/1999/xlink">
    <path d="M5.8249415,0 C2.61126983,0 0,2.6073917 0,5.8249415 L0,82.5174192 C0,85.7323836 2.61126983,88.3436535 5.8249415,88.3436535 L39.6693253,88.3436535 L38.2719082,96.2149515 L29.3043939,96.2149515 C28.2585933,96.2149515 27.4092842,97.0616751 27.4092842,98.1048903 C27.4092842,99.1532764 28.2585933,100 29.3043939,100 L87.040604,100 C88.0864046,100 88.9318355,99.1532764 88.9318355,98.1048903 C88.9318355,97.0616751 88.0864046,96.2149515 87.040604,96.2149515 L78.0743824,96.2149515 L76.6782579,88.3436535 L110.523934,88.3436535 C113.737606,88.3436535 116.346291,85.7323836 116.346291,82.5174192 L116.346291,5.8249415 C116.346291,2.6073917 113.737606,0 110.523934,0.460203989 L5.8249415,0 L5.8249415,0 Z M9.04895485,79.3153819 L9.04895485,9.50915884 L107.29475,9.50915884 L107.29475,79.3153819 L9.04895485,79.3153819 L9.04895485,79.3153819 Z" fill="#FFFFFF"></path>
</svg>