<svg xmlns="http://www.w3.org/2000/svg" xmlns:xlink="http://www.w3.org/1999/xlink" version="1.1" x="0px" y="0px" viewBox="0 0 100 125" height="100" style='width:50px' enable-background="new 0 0 100 100" xml:space="preserve"><path fill="#FFFFFF" d="M90.498,11.644H9.506C7.02,11.644,5,13.661,5,16.15v59.327c0,2.487,2.02,4.507,4.506,4.507h26.181  l-1.081,6.089h-6.937c-0.809,0-1.466,0.655-1.466,1.462c0,0.811,0.657,1.466,1.466,1.466h44.663c0.809,0,1.463-0.655,1.463-1.466  c0-0.807-0.654-1.462-1.463-1.462h-6.936l-1.08-6.089h26.182c2.486,0,4.504-2.02,4.504-4.507V16.15  C95.002,13.661,92.984,11.644,90.498,11.644z M46.468,73.27c0-1.948,1.581-3.531,3.533-3.531c1.952,0,3.53,1.583,3.53,3.531  s-1.578,3.53-3.53,3.53C48.049,76.8,46.468,75.218,46.468,73.27z M88.703,66.184H11.301v-47.5h77.402V66.184z"/></svg>