<svg width="100px" height="100px" viewBox="0 0 100 100" version="1.1" xmlns="http://www.w3.org/2000/svg" xmlns:xlink="http://www.w3.org/1999/xlink">
    <path d="M3.84615385,15.1762464 C3.84615385,10.5762351 7.57373885,6.84615385 12.1676662,6.84615385 L87.8323338,6.84615385 C92.4245113,6.84615385 96.1538462,10.5808358 96.1538462,15.1762464 L96.1538462,65.1827279 C96.1538462,69.7827392 92.4262612,73.5128205 87.8323338,73.5128205 L12.1676662,73.5128205 C7.57548872,73.5128205 3.84615385,69.7781386 3.84615385,65.1827279 L3.84615385,15.1762464 L3.84615385,15.1762464 L3.84615385,15.1762464 L3.84615385,15.1762464 Z M0,15.1762464 L0,65.1827279 C0,71.9010782 5.45008205,77.3589744 12.1676662,77.3589744 L87.8323338,77.3589744 C94.5510099,77.3589744 100,71.9063351 100,65.1827279 L100,15.1762464 C100,8.45789615 94.5499179,3 87.8323338,3 L12.1676662,3 C5.44899013,3 0,8.45263923 0,15.1762464 L0,15.1762464 L0,15.1762464 L0,15.1762464 Z M41.6666667,89.5384615 L58.3333333,89.5384615 L58.3333333,73.5128205 L41.6666667,73.5128205 L41.6666667,89.5384615 Z M24.3589744,91.4615385 C24.3589744,94.3029227 26.6515096,96.5897436 29.4866426,96.5897436 L70.5133574,96.5897436 C73.3372787,96.5897436 75.6410256,94.2909713 75.6410256,91.4615385 C75.6410256,88.6201542 73.3484904,86.3333333 70.5133574,86.3333333 L29.4866426,86.3333333 C26.6627213,86.3333333 24.3589744,88.6321056 24.3589744,91.4615385 L24.3589744,91.4615385 L24.3589744,91.4615385 L24.3589744,91.4615385 Z M89.253517,73.5128205 C93.0644635,73.5128205 96.1538462,70.9233645 96.1538462,67.7435897 L96.1538462,61.974359 L3.84615385,61.974359 L3.84615385,67.7435897 C3.84615385,70.9298479 6.94379089,73.5128205 10.746483,73.5128205 L89.253517,73.5128205 L89.253517,73.5128205 L89.253517,73.5128205 Z" fill="#FFFFFF"></path>
</svg>