<svg xmlns="http://www.w3.org/2000/svg" xmlns:xlink="http://www.w3.org/1999/xlink" version="1.1" x="0px" y="0px" viewBox="0 0 48 60" enable-background="new 0 0 48 48" xml:space="preserve"><g><path fill="#FFFFFF" d="M24,47.5c-8,0-19,0-19-11c0-8,5.8-22.4,14-27.2c-1.9-1.6-3.1-4.1-3.1-6.5c0-2,1-2.3,1.7-2.3   c0.7,0,1.4,0.4,2.4,1c1.2,0.7,2.6,1.6,4.1,1.6c1.5,0,2.9-0.9,4.1-1.6c0.9-0.6,1.7-1,2.4-1c0.6,0,1.7,0.3,1.7,2.3   c0,2.4-1.2,4.8-3.1,6.5c8.2,4.9,14,19.2,14,27.2C43,47.5,32,47.5,24,47.5z M17.9,2.6c0,0.1,0,0.1,0,0.2c0,2.2,1.4,4.5,3.4,5.6   c0.4,0.2,0.6,0.6,0.6,1c0,0.4-0.3,0.8-0.7,1C13.1,14.1,7,28.8,7,36.5c0,7.6,5.7,9,17,9c11.3,0,17-1.4,17-9   c0-7.8-6.1-22.5-14.1-26.1c-0.4-0.2-0.6-0.5-0.7-0.9c0-0.4,0.2-0.8,0.6-1c2-1.2,3.4-3.4,3.4-5.6c0-0.1,0-0.1,0-0.2   c-0.3,0.1-0.7,0.4-1,0.6C27.8,4,26,5.1,24,5.1c-2,0-3.8-1.1-5.1-1.9C18.6,3,18.2,2.8,17.9,2.6z"/><g><path fill="#FFFFFF" d="M23.5,38.8V37c-0.9-0.1-1.6-0.3-2.2-0.6c-0.6-0.3-1-0.8-1.5-1.4c-0.4-0.6-0.6-1.4-0.7-2.4l1.8-0.3    c0.1,1,0.4,1.7,0.7,2.1c0.5,0.6,1.1,1,1.8,1.1v-5.7c-0.7-0.1-1.5-0.4-2.3-0.9c-0.6-0.3-1-0.8-1.3-1.3c-0.3-0.6-0.5-1.2-0.5-1.9    c0-1.3,0.5-2.3,1.4-3.1c0.6-0.5,1.5-0.9,2.7-1v-0.9h1.1v0.9c1,0.1,1.9,0.4,2.5,0.9c0.8,0.7,1.3,1.5,1.4,2.7l-1.9,0.3    c-0.1-0.7-0.3-1.2-0.7-1.6c-0.3-0.4-0.8-0.6-1.4-0.7v5.2c0.9,0.2,1.5,0.4,1.8,0.5c0.6,0.2,1,0.5,1.4,0.9c0.4,0.4,0.6,0.8,0.8,1.3    c0.2,0.5,0.3,1,0.3,1.6c0,1.2-0.4,2.3-1.2,3.1c-0.8,0.8-1.8,1.3-3.1,1.3v1.8H23.5z M23.5,23c-0.7,0.1-1.2,0.4-1.7,0.8    c-0.4,0.5-0.6,1-0.6,1.6c0,0.6,0.2,1.1,0.5,1.5c0.3,0.4,0.9,0.7,1.7,1V23z M24.6,35.5c0.7-0.1,1.3-0.4,1.7-0.9s0.7-1.2,0.7-1.9    c0-0.7-0.2-1.2-0.5-1.6c-0.3-0.4-1-0.8-1.9-1.1V35.5z"/></g></g></svg>