<svg viewBox="0 0 89 100" version="1.1" xmlns="http://www.w3.org/2000/svg" xmlns:xlink="http://www.w3.org/1999/xlink">
    <title>skillbuilding3</title>
    <g fill="none" fill-rule="evenodd">
        <g id="skillbuilding3" transform="translate(0.000000, -1.000000)" fill="#FFFFFF">
            <path d="M42.968,52.309 C50.214,52.309 56.086,46.435 56.086,39.19 C56.086,31.942 50.214,26.066 42.968,26.066 C35.721,26.066 29.846,31.941 29.846,39.19 C29.846,46.435 35.721,52.309 42.968,52.309 L42.968,52.309 L42.968,52.309 Z"></path>
            <path d="M81.267,68.705 C78.109,67.716 74.744,69.473 73.753,72.628 L72.631,76.209 L67.129,60.96 C66.273,58.583 64.02,57 61.492,57 L26.892,57 C24.826,57 22.906,58.064 21.81,59.817 L13.514,73.075 L12.133,62.224 C11.715,58.942 8.707,56.61 5.43,57.036 C2.146,57.454 -0.176,60.455 0.241,63.737 L3.743,89.765 C4.063,92.28 5.929,94.319 8.403,94.861 C10.877,95.4 13.427,94.337 14.771,92.188 L24,77.338 L24,97 L60.949,97 L60.949,79.142 L67.388,97.008 C68.243,99.39 70.502,100.968 73.024,100.968 C73.067,100.968 73.109,100.968 73.153,100.967 C75.723,100.913 77.975,99.222 78.744,96.769 L85.189,76.217 C86.183,73.059 84.426,69.694 81.267,68.705 L81.267,68.705 Z"></path>
            <path d="M82.167,39.802 C85.442,39.802 88.097,42.455 88.097,45.728 C88.097,49.001 85.443,51.653 82.167,51.653 C78.897,51.653 76.244,49.001 76.244,45.728 C76.244,42.456 78.897,39.802 82.167,39.802 L82.167,39.802 Z"></path>
            <rect transform="translate(49.760984, 7.408307) rotate(-16.331019) translate(-49.760984, -7.408307) " x="44.595232" y="2.24255506" width="10.3315038" height="10.3315038"></rect>
            <path d="M0,29.068 L15.18,25.532 L10.654,40.446 L0,29.068 Z"></path>
        </g>
    </g>
</svg>