<?xml version="1.0" encoding="utf-8"?>
<!-- Generator: Adobe Illustrator 17.1.0, SVG Export Plug-In . SVG Version: 6.00 Build 0)  -->
<!DOCTYPE svg PUBLIC "-//W3C//DTD SVG 1.1//EN" "http://www.w3.org/Graphics/SVG/1.1/DTD/svg11.dtd">
<svg version="1.1" id="Layer_1" xmlns="http://www.w3.org/2000/svg" xmlns:xlink="http://www.w3.org/1999/xlink" x="0px" y="0px"
	 viewBox="0 0 225.9 225.9" enable-background="new 0 0 225.9 225.9" xml:space="preserve">
<circle fill="#3F4A4D" cx="113" cy="113" r="113"/>
<path fill="#68B2A4" d="M157.4,80.4C156.3,56.6,136.7,38,112.9,38c-23.6,0-43,18.2-44.5,41.6c-2.5,0.4-5.1,0.8-7.7,1.4l1.1,7
	c1,0,2.8,0.4,2.8,2.4c0.3,7.5,1.4,13.1,4,16.9c-0.8,0.6-1.4,1.4-1.6,2.2c0,0,3.3,0,3.7,0.3c0,0-4.9,8.7-4.2,14.3l3-1.8
	c0,0-1.8,13.7,1.4,18c0,0,2.4-3.5,3-4c0,0,2.3,13.3,4.3,16c0,0,1.9-2.6,2.7-3.3c0,0,1,8.5,5.3,13.3l1.9-3c0,0,4.6,10.8,3.4,16
	c0,0,3.4-2.8,3.4-3.6c0,0,0.4,5.9,7.7,9.2c0,0-0.1-2.6,0.6-3.4c0,0,7.3,6.2,3.3,10.3c0,0,5.2,0.8,6.8-3.7c1.6,4.5,6.8,3.7,6.8,3.7
	c-4-4.2,3.3-10.3,3.3-10.3c0.7,0.8,0.6,3.4,0.6,3.4c7.3-3.3,7.7-9.2,7.7-9.2c0,0.9,3.4,3.6,3.4,3.6c-1.1-5.2,3.4-16,3.4-16l1.9,3
	c4.3-4.9,5.3-13.3,5.3-13.3c0.9,0.6,2.7,3.3,2.7,3.3c2-2.6,4.3-16,4.3-16c0.6,0.5,3,4,3,4c3.1-4.3,1.4-18,1.4-18l3,1.8
	c0.8-5.7-4.2-14.3-4.2-14.3c0.3-0.4,3.7-0.3,3.7-0.3c-0.3-1-1-1.8-1.9-2.5c2.6-4.7,2.7-11,4.1-15.6c0.5-1.7,1.1-2.5,3-2.6l0.9-7
	C162.7,81.3,160.1,80.8,157.4,80.4z M112.9,42.2c21.3,0,38.7,16.5,40.2,37.5c-8.3-1.1-17.2-1.1-27.7,1.5c-4,1-8.6,2-12.7,1.9
	c-2.5-0.1-4.8-0.6-7-1.2c-11.2-2.6-21.5-4-33-2.9C74.5,58.4,91.8,42.2,112.9,42.2z M84.9,81.7c11.4,1.1,23.4,1,18.8,14.6
	c-2.9,8.4-7.3,14.6-18.8,14.9c-11.4,0-14.7-2.1-16.2-15.4C68.5,86.9,68,81.7,84.9,81.7z M118.8,103.7L118.8,103.7
	c-4.7,0.2-8.3,0.2-10.5,0.1c-0.7-0.1-1.6-0.1-2.4-0.2c0,0,0,0,0,0l0,0c-0.5,0-1-0.1-1.5-0.1c2.9-4.1,4.1-8.6,4.6-11.1
	c0.5-3.1,2.1-3.4,3.9-3.4c3.1-0.1,3.5,2.2,4,3.6c1.8,4.6,3.4,8.1,5.1,10.9C120.8,103.6,119.8,103.7,118.8,103.7z M65.8,85.5
	c-1.5,0-2.7-0.3-2.7-0.7c0-0.4,1.2-0.7,2.7-0.7s2.7,0.3,2.7,0.7C68.5,85.2,67.3,85.5,65.8,85.5z M112.8,135.2
	c-8.3,0-15.1-6.4-15.7-14.5c2-0.3,4.6-0.8,5.4-2c0,0,1.1,1.8,1.3,3.5c0,0,2.2-1.4,4.3-3.7c0,0,2.2,2.6,2,3.4c0,0,4.3-2.4,4.4-3.4
	c0,0,2.1,2.9,5,2.6c0,0,0.9-1.6,1.7-2.6c0,0,1.9,2.2,4.5,1.7c0,0,0.3-2.4,0.7-2.8c0,0,0.7,0.1,1.6,0.3c0.4,0.6,0.6,1.2,0.6,1.9
	C128.6,128.1,121.6,135.2,112.8,135.2z M157.5,95.8c-1.5,13.3-4.8,15.4-16.2,15.4c-11.5-0.3-16-6.4-18.8-14.9
	c-4.6-13.6,7.4-13.5,18.8-14.6C158.1,81.7,157.5,86.9,157.5,95.8z M160.4,86.2c-1.5,0-2.7-0.3-2.7-0.7c0-0.4,1.2-0.7,2.7-0.7
	c1.5,0,2.7,0.3,2.7,0.7C163.1,85.9,161.9,86.2,160.4,86.2z"/>
</svg>
