<?xml version="1.0" encoding="utf-8"?>
<!-- Generator: Adobe Illustrator 16.0.0, SVG Export Plug-In . SVG Version: 6.00 Build 0)  -->
<!DOCTYPE svg PUBLIC "-//W3C//DTD SVG 1.1//EN" "http://www.w3.org/Graphics/SVG/1.1/DTD/svg11.dtd">
<svg version="1.1" id="Layer_1" xmlns="http://www.w3.org/2000/svg" xmlns:xlink="http://www.w3.org/1999/xlink" x="0px" y="0px"
	 width="32.2px" height="35.7px" viewBox="0 0 32.2 35.7" style="enable-background:new 0 0 32.2 35.7;" xml:space="preserve">
<style type="text/css">
<![CDATA[
	.st0{opacity:1.0;}
	.st1{clip-path:url(#SVGID_2_);fill:#68A7CF;}
]]>
</style>
<g class="st0">
	<g>
		<defs>
			<rect id="SVGID_1_" width="32.2" height="35.7"/>
		</defs>
		<clipPath id="SVGID_2_">
			<use xlink:href="#SVGID_1_"  style="overflow:visible;"/>
		</clipPath>
		<path class="st1" d="M8.7,35.7c-2.3,0-4.5-0.9-6.1-2.6c-3.4-3.4-3.4-8.9,0-12.3L21.8,1.7C22.9,0.7,24.5,0,26.1,0s3.2,0.7,4.3,1.8
			c2.4,2.4,2.4,6.2,0,8.6L11.1,29.5c-0.7,0.7-1.5,1-2.4,1s-1.8-0.3-2.5-1c-1.3-1.4-1.3-3.6,0-4.9l9.7-9.5c0.3-0.3,0.9-0.3,1.2,0
			c0.3,0.3,0.3,0.9,0,1.2l-9.7,9.5c-0.7,0.7-0.7,1.8,0,2.4c0.3,0.3,0.8,0.5,1.2,0.5c0.5,0,0.9-0.2,1.2-0.5L29.2,9.1
			c1.7-1.7,1.7-4.4,0-6.1c-0.8-0.8-1.9-1.3-3.1-1.3S23.8,2.2,23,3L3.8,22.1c-2.7,2.7-2.7,7.1,0,9.8c1.3,1.3,3,2,4.9,2s3.6-0.7,4.9-2
			l16.7-16.5c0.3-0.3,0.9-0.3,1.2,0c0.3,0.3,0.3,0.9,0,1.2L14.8,33.2C13.2,34.8,11,35.7,8.7,35.7"/>
	</g>
</g>
</svg>
