<?xml version="1.0" encoding="utf-8"?>
<!-- Generator: Adobe Illustrator 17.1.0, SVG Export Plug-In . SVG Version: 6.00 Build 0)  -->
<!DOCTYPE svg PUBLIC "-//W3C//DTD SVG 1.1//EN" "http://www.w3.org/Graphics/SVG/1.1/DTD/svg11.dtd">
<svg version="1.1" id="Layer_1" xmlns="http://www.w3.org/2000/svg" xmlns:xlink="http://www.w3.org/1999/xlink" x="0px" y="0px"
	 viewBox="0 0 42.2 42" enable-background="new 0 0 42.2 42" xml:space="preserve">
<g>
	<path fill="none" stroke="rgba(0,0,0,0.6)" stroke-width="2" stroke-miterlimit="10" d="M41.2,23.6v-5.3L34.8,17c-0.3-1-0.7-1.9-1.2-2.8
		l3.6-5.5L33.5,5L28,8.6c-0.9-0.5-1.8-0.9-2.8-1.2L23.8,1h-5.3l-1.3,6.4c-1,0.3-1.9,0.7-2.8,1.2L8.8,5L5,8.7l3.6,5.5
		C8.1,15.1,7.8,16,7.5,17L1,18.4v5.3L7.5,25c0.3,1,0.7,1.9,1.2,2.8L5,33.3L8.8,37l5.5-3.6c0.9,0.5,1.8,0.9,2.8,1.2l1.3,6.4h5.3
		l1.3-6.4c1-0.3,1.9-0.7,2.8-1.2l5.5,3.6l3.8-3.7l-3.6-5.5c0.5-0.9,0.9-1.8,1.2-2.8L41.2,23.6z"/>
	<ellipse fill="none" stroke="rgba(0,0,0,0.6)" stroke-width="2" stroke-miterlimit="10" cx="21.1" cy="21" rx="6.9" ry="6.9"/>
</g>
</svg>
