<?xml version="1.0" encoding="utf-8"?>
<!-- Generator: Adobe Illustrator 16.0.0, SVG Export Plug-In . SVG Version: 6.00 Build 0)  -->
<!DOCTYPE svg PUBLIC "-//W3C//DTD SVG 1.1//EN" "http://www.w3.org/Graphics/SVG/1.1/DTD/svg11.dtd">
<svg version="1.1" id="Layer_1" xmlns="http://www.w3.org/2000/svg" xmlns:xlink="http://www.w3.org/1999/xlink" x="0px" y="0px"
	 width="64px" height="64px" viewBox="0 0 64 64" enable-background="new 0 0 64 64" xml:space="preserve">
<g>
	<path d="M32.311,63.081H31.69c-16.994,0-30.771-13.776-30.771-30.771v-0.621c0-16.994,13.776-30.771,30.771-30.771h0.621
		c16.994,0,30.771,13.776,30.771,30.771v0.621C63.081,49.305,49.305,63.081,32.311,63.081"/>
	<path fill="#FFFFFF" d="M35.393,15.319l-7.7,0.083h-2.485c-0.753,0-1.364,0.611-1.364,1.363v0.782v0.057v0.478
		c0,0.771,0.623,1.071,1.037,1.27l1.176,0.422c-0.011,0.505-0.272,1.448-0.672,2.374c-0.043,0.103-0.185,0.214-0.334,0.332
		c-0.28,0.223-0.668,0.527-0.779,1.085c-0.095,0.485,0.088,0.924,0.488,1.17c0.245,0.15,0.561,0.217,0.89,0.217
		c0.54,0,1.117-0.181,1.463-0.451c1.048-0.82,1.589-2.136,1.979-3.402c0.022-0.073,0.044-0.145,0.064-0.217l1.297,0.464l0.016,0.8
		l0.003,0.166c-0.593,0.217-1.021,0.78-1.021,1.447v2.264c0,0.019,0.005,0.036,0.006,0.055c-0.001,0.017-0.006,0.035-0.006,0.054
		c0,0.317,0.26,0.577,0.579,0.577h0.176v1.326c0,1.958-2.188,3.905-3.363,4.398c-1.641,0.691-1.956,2.773-1.967,2.861l-0.292,11.015
		c0,0.852,0.693,1.545,1.545,1.545h2.391h2.646H36.9c0.854,0,1.547-0.693,1.547-1.545V33.945l-0.002-0.039
		c-0.006-0.059-0.107-1.452-0.617-2.625c-0.186-0.425-0.456-0.894-0.717-1.344c-0.379-0.654-0.848-1.469-0.848-1.864
		c0-0.585-0.005-1.097-0.008-1.366h0.102c0.319,0,0.578-0.26,0.578-0.577c0-0.029-0.004-0.058-0.009-0.085
		c0.005-0.027,0.009-0.054,0.009-0.083v-2.204c0-0.778-0.58-1.418-1.33-1.522v-1.449c0.266-0.115,1.093-0.091,1.601-0.077
		c1.104,0.029,2.147,0.06,2.669-0.509c0.148-0.164,0.314-0.447,0.275-0.87v-0.35L35.393,15.319z M37.236,19.552
		c-1.065-0.029-1.986-0.056-2.482,0.428c-0.201,0.194-0.307,0.448-0.307,0.734v1.498h-0.021h-0.206h-0.438h-2.158l-0.024-1.23
		l-0.01-0.459l-3.946-1.402l-2.167-0.771l-0.048-0.016l-0.049-0.022c-0.139-0.068-0.346-0.168-0.382-0.229v-0.097v-0.108v-0.272
		v-0.057v-0.782c0-0.114,0.093-0.208,0.208-0.208h2.491l7.308-0.078l3.896,3C38.561,19.589,37.719,19.565,37.236,19.552
		 M26.398,23.591c-0.24,0.188-0.786,0.247-0.988,0.18c0.03-0.115,0.137-0.209,0.356-0.383c0.231-0.183,0.52-0.41,0.679-0.78
		c0.171-0.394,0.612-1.486,0.733-2.434l0.885,0.317C27.719,21.666,27.264,22.913,26.398,23.591 M35.105,28.075
		c0,0.704,0.486,1.548,1.004,2.44c0.246,0.424,0.5,0.863,0.656,1.227c0.401,0.924,0.51,2.07,0.521,2.227v12.338
		c0,0.215-0.175,0.389-0.388,0.389h-5.735h-2.646h-2.391c-0.216,0-0.39-0.174-0.391-0.372l0.286-10.894
		c0.036-0.203,0.314-1.529,1.267-1.932c1.375-0.578,4.072-2.846,4.072-5.465v-1.326h3.74C35.102,26.972,35.105,27.485,35.105,28.075
		 M35.779,23.758v1.792h-5.172v-1.792c0-0.213,0.174-0.389,0.388-0.389h2.788h0.645h0.963
		C35.605,23.369,35.779,23.545,35.779,23.758"/>
</g>
</svg>
