<?xml version="1.0" encoding="utf-8"?>
<!-- Generator: Adobe Illustrator 16.0.0, SVG Export Plug-In . SVG Version: 6.00 Build 0)  -->
<!DOCTYPE svg PUBLIC "-//W3C//DTD SVG 1.1//EN" "http://www.w3.org/Graphics/SVG/1.1/DTD/svg11.dtd">
<svg version="1.1" id="Layer_1" xmlns="http://www.w3.org/2000/svg" xmlns:xlink="http://www.w3.org/1999/xlink" x="0px" y="0px"
	 width="64px" height="64px" viewBox="0 0 64 64" enable-background="new 0 0 64 64" xml:space="preserve">
<path d="M19.392,62.343c-3.923,0-7.696-1.555-10.436-4.366c-5.772-5.774-5.772-15.174,0-20.945L41.741,4.615
	c1.85-1.85,4.516-2.958,7.252-2.958c2.739,0,5.404,1.108,7.328,3.034c4.069,4.067,4.069,10.582,0,14.652L23.536,51.757
	c-1.11,1.112-2.592,1.704-4.144,1.704c-1.554,0-3.035-0.592-4.219-1.704c-2.294-2.294-2.294-6.065,0-8.363l16.504-16.131
	c0.591-0.594,1.554-0.594,2.071,0c0.595,0.592,0.595,1.555,0,2.072L17.319,45.469c-1.109,1.108-1.109,3.031,0,4.144
	c0.593,0.591,1.333,0.89,2.073,0.89c0.813,0,1.552-0.299,2.072-0.89l32.785-32.416c2.886-2.886,2.886-7.548,0-10.433
	c-1.406-1.408-3.255-2.148-5.256-2.148c-1.997,0-3.847,0.74-5.254,2.148L11.03,39.177c-4.589,4.589-4.589,12.139,0,16.728
	c2.22,2.218,5.18,3.477,8.362,3.477c3.181,0,6.141-1.259,8.362-3.477l28.344-27.978c0.593-0.591,1.556-0.591,2.072,0
	c0.593,0.592,0.593,1.555,0,2.072l-28.345,28.05C27.086,60.788,23.313,62.343,19.392,62.343"/>
</svg>
