<?xml version="1.0" encoding="utf-8"?>
<!-- Generator: Adobe Illustrator 16.0.0, SVG Export Plug-In . SVG Version: 6.00 Build 0)  -->
<!DOCTYPE svg PUBLIC "-//W3C//DTD SVG 1.1//EN" "http://www.w3.org/Graphics/SVG/1.1/DTD/svg11.dtd">
<svg version="1.1" id="Layer_1" xmlns="http://www.w3.org/2000/svg" xmlns:xlink="http://www.w3.org/1999/xlink" x="0px" y="0px"
	 width="91.196px" height="265.976px" viewBox="225.828 272.376 91.196 265.976"
	 enable-background="new 225.828 272.376 91.196 265.976" xml:space="preserve">
<g>
	<path fill="#FFFFFF" d="M302.145,291.409c2.815-3.121,4.345-6.854,4.345-10.71c0-1.958-0.367-3.794-1.101-5.447
		c0.367-0.795,1.163-1.408,2.448-1.224c11.873,1.285,10.343,13.28,5.937,21.298c-2.142,5.018-6.365,9.608-9.731,13.525
		c-0.551,0.612-8.14,10.037-9.915,12.118c-4.161,4.835-7.895,10.037-11.077,15.483c0.612-3.366,1.224-6.609,1.836-9.73
		C287.701,312.707,293.393,301.14,302.145,291.409z"/>
	<path fill="#FFFFFF" d="M295.718,272.621c0.062,0,0.123,0,0.184,0c0.184,0,0.306,0.062,0.49,0.123c0.061,0,0.123,0,0.184,0.061
		c0.184,0.062,0.428,0.123,0.612,0.184h0.062c0.184,0.062,0.367,0.123,0.489,0.245c0.062,0.061,0.123,0.061,0.184,0.123
		c0.123,0.061,0.245,0.184,0.429,0.245c0.061,0.061,0.122,0.061,0.122,0.123c0.184,0.122,0.368,0.245,0.49,0.367
		c0.062,0.061,0.062,0.061,0.123,0.122c0.123,0.123,0.245,0.245,0.367,0.367c0.061,0.062,0.123,0.123,0.123,0.123
		c0.122,0.123,0.245,0.245,0.367,0.367c0.061,0.061,0.061,0.061,0.122,0.123c0.123,0.184,0.245,0.367,0.367,0.551
		c0.062,0.061,0.062,0.122,0.123,0.184c0.061,0.122,0.184,0.306,0.245,0.428c0.062,0.061,0.062,0.123,0.123,0.184
		c0.123,0.184,0.184,0.367,0.245,0.551v0.061c0.062,0.245,0.184,0.429,0.245,0.673c0,0.061,0.061,0.123,0.061,0.184
		c0.061,0.184,0.123,0.367,0.123,0.551c0,0.061,0.061,0.123,0.061,0.184c0.061,0.245,0.061,0.49,0.123,0.734
		c0,0.062,0,0.062,0,0.123c0,0.245,0.061,0.428,0.061,0.673c0,0.061,0,0.122,0,0.245s0,0.306,0,0.428c0,0.184,0,0.306,0,0.49
		c0,0.123,0,0.245-0.061,0.428c0,0.184-0.062,0.368-0.062,0.49c0,0.123-0.061,0.245-0.061,0.429
		c-0.061,0.184-0.061,0.367-0.123,0.489c-0.061,0.123-0.061,0.306-0.122,0.429c-0.062,0.184-0.123,0.367-0.184,0.489
		c-0.062,0.123-0.123,0.245-0.184,0.429c-0.062,0.184-0.184,0.367-0.245,0.551c-0.061,0.122-0.122,0.245-0.184,0.428
		c-0.122,0.184-0.184,0.367-0.306,0.551c-0.062,0.123-0.123,0.245-0.245,0.367c-0.122,0.184-0.245,0.428-0.428,0.612
		c-0.061,0.123-0.123,0.184-0.245,0.306c-0.245,0.306-0.49,0.612-0.734,0.918c-10.098,11.139-15.606,23.685-18.421,37.577l0,0
		c-0.184,0.979-0.428,2.02-0.612,3.06c-0.062,0.306-0.123,0.673-0.184,0.979c-0.123,0.673-0.245,1.408-0.429,2.081
		c-0.061,0.367-0.122,0.796-0.245,1.163c-0.123,0.612-0.245,1.285-0.367,1.958c-0.062,0.429-0.123,0.857-0.245,1.224
		c-0.122,0.612-0.245,1.285-0.306,1.897c-0.062,0.428-0.123,0.856-0.184,1.224c-0.123,0.673-0.245,1.346-0.306,2.02
		c-0.061,0.367-0.123,0.795-0.184,1.163c-0.123,0.795-0.245,1.591-0.367,2.387c-0.061,0.245-0.061,0.551-0.123,0.795
		c-0.184,1.102-0.306,2.142-0.428,3.244c-0.061,0.245-0.061,0.49-0.123,0.796c0,0.184-0.061,0.428-0.061,0.612
		c-0.061,0.612-0.184,1.285-0.245,1.897c-0.062,0.428-0.062,0.795-0.123,1.224c-0.061,0.734-0.184,1.469-0.245,2.204
		c-0.062,0.428-0.123,0.918-0.123,1.346c-0.061,0.734-0.123,1.408-0.184,2.142c-0.061,0.49-0.061,0.918-0.123,1.408
		c-0.061,0.734-0.123,1.469-0.184,2.203c-0.061,0.489-0.061,0.918-0.123,1.407c-0.061,0.796-0.122,1.591-0.184,2.448
		c0,0.428-0.061,0.795-0.061,1.224c-0.061,1.163-0.123,2.326-0.184,3.488c0,0.061,0,0.123,0,0.184
		c-0.061,0.795-0.061,1.652-0.123,2.448c0,0.429-0.061,0.918-0.061,1.347s0,0.795-0.061,1.224c0,0.918-0.062,1.774-0.062,2.693
		c0,0.489,0,0.979,0,1.53c0,0.857,0,1.652,0,2.509c0,0.245,0,0.489,0,0.734c0,0.428,0,0.857,0,1.224c0,0.428,0,0.856,0,1.346
		c0,0.795,0,1.652,0.062,2.509c0,0.367,0,0.734,0,1.163c0,1.224,0.061,2.448,0.122,3.672c0,0.061,0,0.184,0,0.245
		c0.062,1.163,0.062,2.325,0.123,3.55c0,0.428,0.061,0.856,0.061,1.285c0.062,0.856,0.062,1.774,0.123,2.632
		c0,0.489,0.062,0.979,0.062,1.469c0.061,0.856,0.122,1.652,0.184,2.509c0.061,0.551,0.061,1.04,0.122,1.591
		c0.062,0.857,0.123,1.775,0.184,2.632c0.062,0.489,0.062,0.979,0.123,1.53c0.061,1.04,0.184,2.142,0.245,3.243
		c0.062,0.367,0.062,0.674,0.062,1.041c0.122,1.407,0.245,2.876,0.428,4.345c0.061,0.367,0.061,0.734,0.123,1.102
		c0.122,1.102,0.245,2.203,0.367,3.366c0.061,0.551,0.122,1.102,0.184,1.652c0.122,0.979,0.245,1.958,0.367,2.938
		c0.061,0.306,0.061,0.551,0.122,0.856c0.062,0.307,0.062,0.674,0.123,0.979c0.123,0.979,0.245,2.02,0.367,2.999
		c0.062,0.612,0.123,1.163,0.245,1.774c0.122,1.102,0.306,2.203,0.428,3.306c0.061,0.551,0.123,1.04,0.184,1.591
		c0.245,1.652,0.49,3.305,0.734,5.019l0,0c0.918-1.652,1.775-3.795,2.509-6.12v-0.062c0.184-0.673,0.428-1.285,0.612-2.02
		c0.306-1.04,0.612-2.081,0.918-3.183c0.367-1.407,0.734-2.876,1.041-4.283c0.061-0.367,0.184-0.735,0.245-1.041
		c1.224-5.263,2.081-10.037,2.571-11.995c0.551-2.081,1.102-3.794,1.652-5.263c0.306-0.857,0.673-1.653,1.04-2.448
		c0.184-0.367,0.367-0.796,0.551-1.163c1.041-2.142,2.265-4.406,3.672-7.527c1.04-2.265,2.264-5.019,3.611-8.568l0,0
		c0.184-0.428,0.367-0.856,0.551-1.285c0.061-0.122,0.122-0.245,0.184-0.367c0.122-0.245,0.245-0.551,0.367-0.795
		c0.061-0.123,0.184-0.245,0.245-0.428c0.123-0.184,0.245-0.429,0.367-0.612c0.061-0.122,0.184-0.245,0.245-0.367
		c0.123-0.184,0.245-0.367,0.367-0.49c0.062-0.122,0.184-0.245,0.245-0.306c0.122-0.184,0.245-0.306,0.428-0.429
		c0.061-0.061,0.184-0.184,0.245-0.245c0.123-0.123,0.306-0.245,0.429-0.367c0.061-0.061,0.184-0.123,0.245-0.184
		c0.184-0.123,0.429-0.245,0.612-0.367l0.061-0.061c0.245-0.123,0.49-0.245,0.734-0.306c0.061,0,0.184-0.061,0.245-0.061
		c0.184-0.062,0.306-0.062,0.49-0.123c0.123,0,0.184,0,0.306-0.061c0.122,0,0.306,0,0.428-0.062c0.123,0,0.184,0,0.306,0
		c0.122,0,0.306,0,0.428,0.062c0.123,0,0.184,0.061,0.306,0.061s0.306,0.061,0.428,0.123c0.123,0,0.184,0.061,0.306,0.061
		c0.123,0.061,0.307,0.123,0.429,0.184c0.062,0.061,0.184,0.061,0.245,0.123c0.184,0.061,0.367,0.184,0.551,0.306
		c0.062,0.062,0.122,0.062,0.184,0.123c0.245,0.123,0.429,0.306,0.673,0.49c0.062,0.061,0.184,0.122,0.245,0.184
		c0.122,0.122,0.245,0.245,0.429,0.367c0.061,0.061,0.184,0.184,0.244,0.306c0.123,0.123,0.245,0.245,0.367,0.429
		c0.062,0.123,0.184,0.245,0.245,0.306c0.122,0.122,0.245,0.306,0.306,0.428c0.062,0.123,0.184,0.245,0.245,0.367
		c0.122,0.184,0.184,0.306,0.306,0.49c0.062,0.122,0.184,0.245,0.245,0.367c0.122,0.184,0.184,0.367,0.306,0.551
		c0.062,0.122,0.123,0.245,0.184,0.367c0.123,0.245,0.245,0.489,0.367,0.734c0.062,0.122,0.062,0.184,0.123,0.306
		c0.122,0.367,0.306,0.734,0.428,1.102c0.062,0.123,0.062,0.245,0.123,0.367c0.061,0.245,0.184,0.49,0.244,0.796
		c0.062,0.184,0.062,0.306,0.123,0.49c0.061,0.245,0.122,0.489,0.184,0.734c0.061,0.184,0.061,0.367,0.122,0.551
		c0.062,0.245,0.122,0.49,0.122,0.734c0.062,0.184,0.062,0.367,0.123,0.551c0.061,0.245,0.061,0.551,0.122,0.796
		c0,0.184,0.062,0.367,0.062,0.551c0.061,0.306,0.061,0.612,0.061,0.856c0,0.184,0,0.367,0.062,0.551c0,0.367,0,0.735,0.062,1.103
		c0,0.122,0,0.244,0,0.367c0,0.306,0,0.611,0,0.918c0,0.244,0,0.428,0,0.673c0,0.367-0.062,0.673-0.062,1.04
		c0,0.184,0,0.429-0.062,0.612c-0.061,0.367-0.122,0.734-0.122,1.163c0,0.184-0.062,0.367-0.062,0.551
		c-0.061,0.551-0.184,1.102-0.306,1.713c0,0.123-0.062,0.245-0.122,0.429c-0.062,0.306-0.123,0.612-0.245,1.04
		c-0.184,0.735-0.429,1.653-0.734,2.693c-0.122,0.489-0.306,1.04-0.489,1.652c-0.062,0.306-0.184,0.551-0.245,0.856
		c-0.184,0.612-0.367,1.225-0.551,1.897c-0.856,2.938-1.897,6.365-3.06,10.037c-0.49,1.652-1.041,3.366-1.592,5.079
		c-0.245,0.857-0.551,1.714-0.795,2.632c-0.245,0.856-0.551,1.774-0.857,2.632c-0.551,1.774-1.102,3.55-1.713,5.386
		c-0.306,0.918-0.551,1.774-0.857,2.692c-1.102,3.55-2.203,7.038-3.244,10.281c-0.245,0.796-0.49,1.592-0.734,2.388
		c-0.734,2.325-1.408,4.528-2.02,6.486c-0.428,1.285-0.795,2.51-1.102,3.611c-0.184,0.551-0.306,1.04-0.49,1.53
		c-0.49,1.713-0.857,2.998-1.102,3.794c-2.142,8.629-4.223,15.667-6.365,21.543c-0.184,0.611-0.428,1.162-0.673,1.713
		c-1.102,2.815-2.203,5.324-3.366,7.589c-0.734,1.347-1.408,2.632-2.203,3.795c-1.224,2.02-2.571,3.732-4.04,5.386
		c-0.306,0.306-0.551,0.611-0.856,0.918c-0.612,0.611-1.224,1.224-1.836,1.774c-3.121,2.876-6.793,5.202-11.077,7.405
		c-0.856,0.429-1.775,0.856-2.693,1.285c-5.08,2.387-11.077,4.712-18.299,7.467c-1.958,0.734-4.039,1.529-6.181,2.387
		c-2.876,1.102-5.875,2.325-9.119,3.61c-0.184,0.062-0.551,0.184-0.551,0.245v-82.069c1.224-3.183,3.183-6.609,4.406-10.221
		c0.306-0.856,0.551-1.714,0.857-2.632c0-0.061,0-0.122-0.061-0.184v-0.061c0-0.062,0-0.123,0-0.184c0-0.062,0-0.123,0-0.123
		c0-0.061,0-0.122,0-0.244c0-0.062,0.184-0.123,0.184-0.184c0-0.062,0.184-0.184,0.184-0.245s0-0.184,0-0.245
		c0-0.061,0-0.122,0-0.184c0-0.122-0.184-0.244-0.184-0.367c0-0.061-0.062-0.122-0.062-0.122c0-0.184-0.061-0.367,0-0.551
		c0-0.062,0-0.062,0-0.122c0-0.123,0-0.307,0-0.429c0-0.062,0-0.122,0-0.245c0-0.122,0-0.245,0-0.429c0-0.061,0-0.184,0-0.244
		c0-0.123,0-0.245,0-0.429c0-0.062,0-0.184,0-0.245c0-0.122,0-0.306,0-0.428c0-0.062,0-0.184,0-0.245c0-0.184,0-0.367,0-0.489
		c0-0.062,0-0.123,0-0.184c0-0.245,0-0.429,0.062-0.674c0-0.061,0-0.122,0-0.122c0-0.184,0-0.429,0.061-0.673
		c0-0.062,0-0.184,0-0.245c0-0.184,0-0.306,0-0.489c0-0.123,0-0.245,0-0.367c0-0.123,0-0.245,0-0.429c0-0.122,0-0.245,0-0.367
		s0-0.306,0-0.429c0-0.122,0-0.244,0-0.367c0-0.122,0-0.244,0-0.367c0-0.122,0-0.244,0-0.367c0-0.184,0-0.306,0.061-0.489
		c0-0.062,0-0.184,0-0.245c0-0.245,0.062-0.489,0.062-0.734c0-0.061,0-0.122,0-0.245c0-0.184,0-0.306,0.061-0.489
		c0-0.062,0-0.184,0-0.245c0-0.122,0-0.306,0.061-0.428c0-0.123,0-0.184,0-0.307c0-0.122,0-0.244,0-0.367c0-0.061,0-0.184,0-0.244
		c0-0.123,0-0.307,0.062-0.429c0-0.062,0-0.122,0-0.122c0-0.184,0-0.307,0.061-0.49c0-0.061,0-0.061,0-0.122
		c0-0.184,0.062-0.367,0.062-0.551c0-0.062,0-0.062,0-0.122c0-0.123,0-0.245,0.061-0.429c0-0.062,0-0.122,0-0.184s0-0.184,0-0.245
		c0-0.061,0-0.122,0-0.184c0-0.061,0-0.122,0-0.244c0-0.062,0-0.123,0-0.123c0-0.061,0-0.122,0-0.244c0-0.062,0-0.062,0-0.123
		c0-0.061,0-0.122,0-0.184v-0.061c0-0.062,0-0.123,0-0.184c1.346-9.792,2.631-19.095,3.917-28.091
		c0.796-5.386,1.591-10.588,2.448-15.729c0.306-1.713,0.551-3.366,0.857-5.08c0.551-2.999,1.102-5.998,1.652-8.874
		c0.734-3.855,1.591-7.65,2.448-11.322c0.612-2.448,1.224-4.896,1.836-7.283c0.551-2.142,1.163-4.284,1.836-6.426
		c1.224-4.039,2.509-7.956,3.978-11.812c0.673-1.836,1.407-3.549,2.142-5.324c0.796-1.897,1.591-3.733,2.509-5.508
		c4.59-9.669,10.221-18.666,17.381-27.05c2.938-3.427,6.12-6.793,9.608-10.037c0.673-0.673,4.773-4.835,6.243-6.487
		c0.245-0.245,0.489-0.49,0.673-0.734c0.062-0.061,0.123-0.123,0.184-0.184c0.184-0.184,0.367-0.306,0.551-0.49
		c0.062-0.061,0.123-0.123,0.184-0.123c0.245-0.184,0.49-0.367,0.673-0.489c0.061,0,0.061-0.062,0.123-0.062
		c0.184-0.122,0.367-0.245,0.612-0.306c0.061-0.062,0.123-0.062,0.184-0.123c0.184-0.061,0.367-0.184,0.551-0.245
		c0.061,0,0.123-0.062,0.184-0.062c0.245-0.061,0.429-0.122,0.673-0.184c0.061,0,0.123,0,0.184-0.061
		c0.184-0.061,0.367-0.061,0.551-0.061c0.061,0,0.123,0,0.184,0c0.184,0,0.367,0,0.551,0c0.061,0,0.061,0,0.123,0
		C295.351,272.56,295.535,272.621,295.718,272.621z"/>
</g>
</svg>
