<svg viewBox="0 0 100 100" version="1.1" xmlns="http://www.w3.org/2000/svg" xmlns:xlink="http://www.w3.org/1999/xlink">
    <g fill="none" fill-rule="evenodd">
        <g>
            <path d="M68.07,38.301 L64.708,38.301 C64.029,38.301 63.479,38.851 63.479,39.53 L63.479,42.89 C63.479,43.569 64.029,44.119 64.708,44.119 L68.07,44.119 C68.75,44.119 69.299,43.57 69.299,42.89 L69.299,39.53 C69.3,38.851 68.75,38.301 68.07,38.301 L68.07,38.301 Z"></path>
            <path d="M80.976,23.587 C80.976,23.296 81.024,23.021 81.062,22.742 C73.26,13.853 61.986,8.673 50.001,8.673 C27.214,8.673 8.674,27.213 8.674,50.001 C8.674,58.785 11.401,67.178 16.562,74.277 C24.328,84.954 36.829,91.329 50.001,91.329 C72.789,91.329 91.329,72.789 91.329,50.001 C91.329,42.921 89.529,36.062 86.128,29.947 C83.186,29.323 80.976,26.714 80.976,23.587 L80.976,23.587 Z M29.517,66.77 C26.394,66.77 23.862,64.239 23.862,61.116 C23.862,57.994 26.394,55.465 29.517,55.465 C32.64,55.465 35.169,57.994 35.169,61.116 C35.169,64.238 32.64,66.77 29.517,66.77 L29.517,66.77 Z M57.15,59.544 C57.15,60.223 56.601,60.773 55.921,60.773 L45.098,60.773 L42.228,60.773 L37.618,60.773 C36.939,60.773 36.401,60.218 36.281,59.551 C35.705,56.337 32.895,53.899 29.517,53.899 C26.139,53.899 23.329,56.337 22.752,59.551 C22.632,60.218 22.094,60.773 21.415,60.773 L21.072,60.773 C20.393,60.773 19.843,60.223 19.843,59.544 L19.843,30.148 C19.843,29.469 20.394,28.919 21.072,28.919 L30.174,28.919 L34.767,28.919 L42.228,28.919 L45.098,28.919 L55.922,28.919 C56.602,28.919 57.151,29.468 57.151,30.148 L57.151,59.544 L57.15,59.544 Z M67.989,66.77 C64.866,66.77 62.335,64.239 62.335,61.116 C62.335,57.994 64.866,55.465 67.989,55.465 C71.111,55.465 73.643,57.994 73.643,61.116 C73.644,64.238 71.111,66.77 67.989,66.77 L67.989,66.77 Z M82.242,59.544 C82.242,60.223 81.693,60.773 81.013,60.773 L76.052,60.773 C75.373,60.773 74.835,60.218 74.715,59.551 C74.14,56.337 71.329,53.899 67.949,53.899 C64.57,53.899 61.762,56.337 61.186,59.551 C61.066,60.218 60.591,60.773 59.989,60.773 C59.387,60.773 58.896,60.223 58.896,59.544 L58.896,36.475 C58.896,35.796 59.446,35.246 60.125,35.246 L72.502,35.246 C73.181,35.246 73.731,35.796 73.731,36.475 L73.731,44.709 C73.731,45.386 74.281,45.938 74.96,45.938 L81.013,45.938 C81.693,45.938 82.242,46.488 82.242,47.167 L82.242,59.544 L82.242,59.544 Z"></path>
            <circle fill="#FFFFFF" cx="67.989" cy="61.117" r="5.653"></circle>
            <path d="M81.014,45.938 L74.961,45.938 C74.282,45.938 73.732,45.386 73.732,44.709 L73.732,36.475 C73.732,35.796 73.182,35.246 72.503,35.246 L60.127,35.246 C59.447,35.246 58.898,35.796 58.898,36.475 L58.898,59.544 C58.898,60.223 59.388,60.773 59.991,60.773 C60.594,60.773 61.068,60.218 61.188,59.551 C61.764,56.337 64.572,53.899 67.951,53.899 C71.331,53.899 74.141,56.337 74.717,59.551 C74.837,60.218 75.375,60.773 76.054,60.773 L81.015,60.773 C81.695,60.773 82.244,60.223 82.244,59.544 L82.244,47.167 C82.242,46.488 81.693,45.938 81.014,45.938 L81.014,45.938 Z M69.3,42.89 C69.3,43.569 68.75,44.119 68.071,44.119 L64.709,44.119 C64.03,44.119 63.48,43.57 63.48,42.89 L63.48,39.53 C63.48,38.851 64.03,38.301 64.709,38.301 L68.071,38.301 C68.751,38.301 69.3,38.851 69.3,39.53 L69.3,42.89 L69.3,42.89 Z" fill="#FFFFFF"></path>
            <circle fill="#FFFFFF" cx="29.517" cy="61.117" r="5.653"></circle>
            <path d="M55.922,28.92 L45.098,28.92 L42.228,28.92 L34.767,28.92 L30.174,28.92 L21.072,28.92 C20.393,28.92 19.843,29.469 19.843,30.149 L19.843,59.545 C19.843,60.224 20.394,60.774 21.072,60.774 L21.415,60.774 C22.094,60.774 22.632,60.219 22.752,59.552 C23.328,56.338 26.139,53.9 29.517,53.9 C32.895,53.9 35.705,56.338 36.281,59.552 C36.401,60.219 36.939,60.774 37.618,60.774 L42.228,60.774 L45.098,60.774 L55.922,60.774 C56.602,60.774 57.151,60.224 57.151,59.545 L57.151,30.148 C57.15,29.469 56.602,28.92 55.922,28.92 L55.922,28.92 Z" fill="#FFFFFF"></path>
            <path d="M93.64,25.603 C93.849,24.965 93.991,24.295 93.991,23.587 C93.991,20.035 91.145,17.16 87.61,17.09 C78.28,6.437 64.84,0.166 50.522,0.017 L50.522,0 L50.001,0 L49.48,0 L49.48,0.014 C22.149,0.295 0,22.605 0,50.001 C0,60.58 3.276,70.698 9.469,79.265 C18.86,92.248 34.013,100 50.001,100 C77.569,100 100,77.569 100,50.001 C100,41.383 97.807,33.033 93.64,25.603 L93.64,25.603 Z M50.522,1.044 C64.281,1.19 77.22,7.111 86.327,17.196 C83.982,17.616 82.096,19.294 81.345,21.509 C73.485,12.861 62.366,7.781 50.522,7.634 L50.522,1.044 L50.522,1.044 Z M50.001,91.329 C36.828,91.329 24.327,84.954 16.562,74.277 C11.401,67.177 8.674,58.785 8.674,50.001 C8.674,27.213 27.214,8.673 50.001,8.673 C61.986,8.673 73.26,13.852 81.062,22.742 C81.024,23.02 80.976,23.296 80.976,23.587 C80.976,26.714 83.186,29.323 86.128,29.947 C89.529,36.062 91.329,42.922 91.329,50.001 C91.329,72.789 72.789,91.329 50.001,91.329 L50.001,91.329 Z" fill="#FFFFFF"></path>
        </g>
    </g>
</svg>