<svg class='bg-university-icon' height="35" width="35" viewBox="0 0 100 100" version="1.1" xmlns="http://www.w3.org/2000/svg" xmlns:xlink="http://www.w3.org/1999/xlink">
    <path d="M19,39 C19,39 31,44.4651163 36.4545455,44.4651163 C43,44.4651163 55,39 55,39 L55,70.6996925 C55,71.302238 54.8421766,72.2473732 54.6235513,72.8125957 C54.6235513,72.8125957 50.6363636,86 36.4545455,86 C22.2727273,86 19.3055416,72.8355416 19.3055416,72.8355416 C19.1367956,72.2584902 19,71.3017171 19,70.6996925 L19,39 L19,39 Z M28.7894737,69.6363636 C28.7894737,69.6363636 31.5087719,74 36.9473684,74 C42.3859649,74 45.1052632,69.6363636 45.1052632,69.6363636 M25.5263158,56.5454545 C25.5263158,56.5454545 26.6140351,53.2727273 29.877193,53.2727273 C33.1403509,53.2727273 34.2280702,56.5454545 34.2280702,56.5454545 M40.754386,56.5454545 C40.754386,56.5454545 41.8421053,53.2727273 45.1052632,53.2727273 C48.3684211,53.2727273 49.4561404,56.5454545 49.4561404,56.5454545 M45,14 C45,14 57,19.4651163 62.4545455,19.4651163 C69,19.4651163 81,14 81,14 L81,45.6996925 C81,46.302238 80.8421766,47.2473732 80.6235513,47.8125957 C80.6235513,47.8125957 76.6363636,61 62.4545455,61 C59.4616616,61 54.8882463,58.9889982 54.8882463,58.9889982 L54.8882467,39.1395349 L46.0395263,42.0738843 C45.4654118,42.2642681 45,41.9253466 45,41.3219748 L45,14 L45,14 Z M54.8947368,48.9090909 C54.8947368,48.9090909 57.6140351,44.5454545 63.0526316,44.5454545 C68.4912281,44.5454545 71.2105263,48.9090909 71.2105263,48.9090909 M51.6315789,31.4545455 C51.6315789,31.4545455 52.7192982,28.1818182 55.9824561,28.1818182 C59.245614,28.1818182 60.3333333,31.4545455 60.3333333,31.4545455 M66.8596491,31.4545455 C66.8596491,31.4545455 67.9473684,28.1818182 71.2105263,28.1818182 C74.4736842,28.1818182 75.5614035,31.4545455 75.5614035,31.4545455" fill="none" stroke="#000000" stroke-width="3" stroke-linecap="round" stroke-linejoin="round"></path>
</svg>