<svg width="90px" height="106px" viewBox="0 0 90 106" version="1.1" xmlns="http://www.w3.org/2000/svg" xmlns:xlink="http://www.w3.org/1999/xlink">
    <g stroke="none" stroke-width="1" fill="none" fill-rule="evenodd" stroke-linecap="round" stroke-linejoin="round">
        <g transform="translate(-576.000000, -2044.000000)" stroke="#FFFFFF" stroke-width="4.34782609">
            <path d="M652.186427,2087.27778 L654.125912,2070.77586 C654.226693,2069.91837 653.610211,2069.22222 652.748813,2069.22222 L590.149354,2069.22222 C589.283241,2069.22222 588.671407,2069.91781 588.772255,2070.77586 L590.711739,2087.27778 L652.186427,2087.27778 Z M647.615782,2126.16667 L645.349823,2145.44636 C645.248975,2146.30441 644.459844,2147 643.602443,2147 L599.295723,2147 C598.43152,2147 597.649125,2146.30385 597.548344,2145.44636 L595.282385,2126.16667 L647.615782,2126.16667 Z M582.163448,2055.46519 C582.374848,2054.62531 583.246485,2053.94444 584.11735,2053.94444 L657.883674,2053.94444 C658.751384,2053.94444 659.624998,2054.62062 659.837576,2055.46519 L662.917459,2067.70148 C663.128858,2068.54136 662.594275,2069.22222 661.741324,2069.22222 L580.2597,2069.22222 C579.398739,2069.22222 578.870987,2068.54604 579.083565,2067.70148 L582.163448,2055.46519 Z M593.153421,2048.47274 C593.455182,2047.65937 594.403674,2047 595.260696,2047 L646.243236,2047 C647.105291,2047 648.05116,2047.66586 648.350511,2048.47274 L649.834133,2052.47171 C650.135894,2053.28508 649.673754,2053.94444 648.810799,2053.94444 L592.693133,2053.94444 C591.8262,2053.94444 591.370448,2053.27858 591.669799,2052.47171 L593.153421,2048.47274 Z M587.374384,2088.82627 C587.287523,2087.97106 587.917017,2087.27778 588.775699,2087.27778 L654.121997,2087.27778 C654.982783,2087.27778 655.610355,2087.96927 655.523313,2088.82627 L651.888046,2124.61818 C651.801185,2125.47338 651.029666,2126.16667 650.172817,2126.16667 L592.724879,2126.16667 C591.864445,2126.16667 591.096692,2125.47517 591.00965,2124.61818 L587.374384,2088.82627 Z"></path>
        </g>
    </g>
</svg>