<?xml version="1.0" encoding="utf-8"?>
<!-- Generator: Adobe Illustrator 16.0.0, SVG Export Plug-In . SVG Version: 6.00 Build 0)  -->
<!DOCTYPE svg PUBLIC "-//W3C//DTD SVG 1.1//EN" "http://www.w3.org/Graphics/SVG/1.1/DTD/svg11.dtd">
<svg version="1.1" id="Layer_1" xmlns="http://www.w3.org/2000/svg" xmlns:xlink="http://www.w3.org/1999/xlink" x="0px" y="0px"
	 width="125.093px" height="210.668px" viewBox="243.186 232.828 125.093 210.668"
	 enable-background="new 243.186 232.828 125.093 210.668" xml:space="preserve">
<g>
	<path fill="#3F4A4D" d="M339.484,319.234c0,0-0.059,0.059-0.178,0.178c-0.119,0.119-0.297,0.356-0.475,0.535
		c-0.237,0.237-0.476,0.475-0.831,0.831c-0.356,0.297-0.713,0.653-1.188,0.95c-0.416,0.356-0.95,0.653-1.484,1.01
		c-0.297,0.178-0.594,0.296-0.891,0.416c-0.297,0.119-0.594,0.297-0.95,0.416s-0.653,0.237-1.009,0.356
		c-0.356,0.119-0.713,0.178-1.069,0.238c-0.712,0.178-1.484,0.178-2.256,0.297c-0.356,0.059-0.771,0-1.128,0s-0.771,0-1.128-0.06
		c-0.771-0.119-1.484-0.178-2.197-0.416c-0.652-0.237-1.306-0.534-1.899-0.831c-0.534-0.356-1.068-0.712-1.484-1.069
		c-0.237-0.178-0.415-0.356-0.653-0.534c-0.178-0.178-0.355-0.356-0.475-0.535c-0.297-0.356-0.534-0.653-0.771-0.95
		c-0.416-0.534-0.594-0.891-0.594-0.891l0.178-0.237c0,0,0.416,0.059,1.01,0.237c0.297,0.06,0.652,0.178,1.068,0.356
		c0.178,0.059,0.416,0.178,0.653,0.237s0.475,0.119,0.712,0.178c0.476,0.119,1.01,0.356,1.544,0.534
		c0.534,0.119,1.128,0.297,1.662,0.534c0.594,0.178,1.128,0.356,1.722,0.594c0.594,0.178,1.247,0.297,1.9,0.416
		c0.652,0,1.306,0.119,1.959,0.06c0.297,0,0.653-0.06,0.95-0.06c0.297-0.059,0.652-0.119,0.949-0.178
		c0.297-0.06,0.594-0.119,0.891-0.238c0.297-0.059,0.594-0.119,0.831-0.237c0.535-0.178,1.069-0.356,1.544-0.594
		c0.476-0.178,0.891-0.475,1.247-0.653c0.356-0.238,0.653-0.416,0.95-0.594c0.237-0.178,0.475-0.297,0.594-0.416
		c0.118-0.119,0.178-0.178,0.178-0.178L339.484,319.234z"/>
</g>
<g>
	<path fill="#3F4A4D" d="M282.252,319.234c0,0-0.06,0.059-0.178,0.178c-0.119,0.119-0.297,0.356-0.475,0.535
		c-0.237,0.237-0.475,0.475-0.831,0.831c-0.356,0.297-0.712,0.653-1.188,0.95c-0.416,0.356-0.95,0.653-1.484,1.01
		c-0.296,0.178-0.593,0.296-0.89,0.416c-0.297,0.119-0.594,0.297-0.95,0.416c-0.356,0.119-0.653,0.237-1.009,0.356
		c-0.356,0.119-0.712,0.178-1.068,0.238c-0.713,0.178-1.484,0.178-2.256,0.297c-0.356,0.059-0.772,0-1.128,0
		c-0.356,0-0.772,0-1.128-0.06c-0.772-0.119-1.484-0.178-2.197-0.416c-0.653-0.237-1.306-0.534-1.9-0.831
		c-0.534-0.356-1.069-0.712-1.484-1.069c-0.237-0.178-0.416-0.356-0.653-0.534c-0.178-0.178-0.356-0.356-0.475-0.535
		c-0.297-0.356-0.534-0.653-0.772-0.95c-0.416-0.534-0.594-0.891-0.594-0.891l0.178-0.237c0,0,0.416,0.059,1.009,0.237
		c0.297,0.06,0.653,0.178,1.069,0.356c0.178,0.059,0.416,0.178,0.653,0.237c0.238,0.06,0.475,0.119,0.712,0.178
		c0.475,0.119,1.009,0.356,1.544,0.534c0.534,0.119,1.128,0.297,1.662,0.534c0.594,0.178,1.128,0.356,1.722,0.594
		c0.594,0.178,1.247,0.297,1.9,0.416c0.653,0,1.306,0.119,1.959,0.06c0.297,0,0.653-0.06,0.95-0.06
		c0.297-0.059,0.653-0.119,0.95-0.178c0.297-0.06,0.594-0.119,0.891-0.238c0.297-0.059,0.594-0.119,0.831-0.237
		c0.534-0.178,1.068-0.356,1.543-0.594c0.475-0.178,0.891-0.475,1.247-0.653c0.356-0.238,0.653-0.416,0.95-0.594
		c0.237-0.178,0.475-0.297,0.594-0.416c0.119-0.119,0.178-0.178,0.178-0.178L282.252,319.234z"/>
</g>
<path fill="#3F4A4D" d="M311.521,414.049c-1.188-3.266-1.781-6.769-1.781-10.39c0-17.099,13.893-30.992,30.991-30.992
	c1.366,0,2.731,0.119,4.037,0.297c0.772-3.622,1.307-6.768,1.307-6.768c0.653,0.534,3.324,4.512,3.324,4.512
	c3.503-4.809,1.544-20.126,1.544-20.126l3.324,1.959c0.832-6.353-4.689-16.089-4.689-16.089c0.355-0.416,4.097-0.416,4.097-0.416
	c-0.297-1.069-1.069-2.019-2.197-2.791c2.909-5.284,2.969-12.349,4.571-17.455c0.594-1.9,1.247-2.85,3.325-2.909l0.95-7.837
	c-2.909-0.594-5.818-1.187-8.787-1.722c-1.307-26.598-23.154-47.496-49.871-47.496c-26.42,0-48.09,20.423-49.812,46.605
	c-2.791,0.416-5.7,0.95-8.668,1.603l1.188,7.837c1.128,0,3.087,0.475,3.206,2.672c0.356,8.371,1.543,14.665,4.453,18.939
	c-0.891,0.712-1.543,1.543-1.781,2.494c0,0,3.74-0.06,4.096,0.416c0,0-5.521,9.737-4.69,16.089l3.325-1.959
	c0,0-1.959,15.377,1.543,20.126c0,0,2.731-3.918,3.325-4.512c0,0,2.553,14.902,4.809,17.871c0,0,2.078-2.969,3.028-3.681
	c0,0,1.128,9.499,5.937,14.961l2.078-3.384c0,0,5.106,12.111,3.859,17.87c0,0,3.859-3.087,3.859-4.096c0,0,0.475,6.649,8.608,10.271
	c0,0-0.178-2.969,0.653-3.8c0,0,8.134,6.887,3.681,11.577c0,0,5.818,0.891,7.659-4.097c1.84,4.987,7.658,4.097,7.658,4.097
	C306.534,420.639,309.384,416.364,311.521,414.049z M249.004,309.082c-1.662,0-2.968-0.356-2.968-0.772s1.365-0.772,2.968-0.772
	c1.663,0,2.969,0.356,2.969,0.772C252.032,308.726,250.667,309.082,249.004,309.082z M354.921,308.31
	c1.663,0,2.969,0.356,2.969,0.772c0,0.416-1.365,0.771-2.969,0.771c-1.662,0-2.968-0.356-2.968-0.771S353.318,308.31,354.921,308.31
	z M351.715,320.6c-1.722,14.843-5.402,17.217-18.167,17.217c-12.884-0.356-17.93-7.184-21.136-16.624
	c-5.165-15.199,8.252-15.08,21.017-16.327C352.368,304.807,351.715,310.625,351.715,320.6z M311.938,329.327
	c-1.307,0.06-2.494,0.119-3.562,0.237l0,0c-5.284,0.297-9.262,0.178-11.755,0.06c-0.832-0.06-1.722-0.119-2.731-0.178l0,0l0,0
	c-0.535-0.059-1.069-0.059-1.663-0.119c3.265-4.631,4.631-9.559,5.165-12.468c0.594-3.443,2.375-3.74,4.334-3.8
	c3.502-0.119,3.859,2.434,4.512,3.978C308.256,322.144,310.037,326.181,311.938,329.327z M301.726,260.695
	c23.808,0,43.399,18.523,45.003,41.975c-9.263-1.188-19.296-1.247-30.992,1.722c-4.452,1.128-9.617,2.256-14.249,2.137
	c-2.791-0.059-5.403-0.712-7.837-1.306c-12.468-2.909-24.104-4.453-36.928-3.265C258.741,278.803,278.155,260.695,301.726,260.695z
	 M270.259,337.817c-12.765,0-16.446-2.315-18.167-17.217c0-9.974-0.653-15.792,18.286-15.792
	c12.765,1.247,26.182,1.128,21.017,16.327C288.129,330.633,283.143,337.461,270.259,337.817z M301.666,364.771
	c-9.321,0-16.92-7.184-17.633-16.268c2.256-0.297,5.105-0.891,5.996-2.315c0,0,1.247,1.959,1.425,3.859c0,0,2.494-1.603,4.869-4.156
	c0,0,2.434,2.85,2.256,3.859c0,0,4.809-2.731,4.987-3.859c0,0,2.434,3.206,5.581,2.85c0,0,0.95-1.781,1.9-2.85
	c0,0,2.196,2.493,5.105,1.9c0,0,0.297-2.672,0.771-3.147c0,0,0.772,0.119,1.781,0.297c0.416,0.653,0.653,1.366,0.653,2.138
	C319.418,356.875,311.462,364.771,301.666,364.771z"/>
<path fill="#3F4A4D" d="M358.898,428.832c0-0.06-0.059-0.06-0.059-0.119c-5.106,3.681-11.34,5.878-18.168,5.878
	c-6.887,0-13.299-2.256-18.404-6.056c-0.06,0.118-0.119,0.178-0.178,0.297l-5.047,13.062c-0.297,0.771,0.297,1.603,1.128,1.603
	h44.646c0.831,0,1.425-0.831,1.128-1.603L358.898,428.832z"/>
<path fill="#3F4A4D" d="M340.672,375.992c-15.258,0-27.606,12.349-27.606,27.607c0,15.258,12.349,27.607,27.606,27.607
	c15.259,0,27.607-12.35,27.607-27.607C368.279,388.4,355.931,375.992,340.672,375.992z M329.154,409.358l-3.74-1.307l-3.206,2.315
	l0.119-3.918l-3.206-2.315l3.8-1.128l1.188-3.74l2.256,3.265h3.918l-2.375,3.147L329.154,409.358z M331.232,398.019l-0.713-4.868
	l-4.393-2.138l4.393-2.196l0.653-4.869l3.443,3.503l4.81-0.891l-2.257,4.334l2.315,4.334l-4.868-0.771L331.232,398.019z
	 M342.156,404.55l-0.891,2.493l-1.425-2.197l-2.612-0.059l1.663-2.019l-0.772-2.494l2.435,0.95l2.196-1.484l-0.118,2.612
	l2.077,1.604L342.156,404.55z M354.03,422.183c-0.594,0.415-1.246-0.356-0.771-0.891c4.274-4.631,6.946-10.865,6.946-17.633
	c0-6.828-2.612-13.002-6.946-17.633c-0.475-0.535,0.178-1.306,0.771-0.891c5.759,4.156,9.5,10.924,9.5,18.524
	C363.53,411.258,359.789,418.026,354.03,422.183z"/>
<path fill="#3F4A4D" d="M336.22,269.66l-37.997-12.943c-0.713-0.238-0.713-1.781-0.06-2.969l11.518-19.948
	c0.416-0.712,0.95-1.069,1.366-0.95l29.447,10.033c0.416,0.119,0.653,0.772,0.534,1.544l-2.969,22.857
	C337.882,268.71,336.932,269.957,336.22,269.66z"/>
<circle fill="#3F4A4D" cx="344.888" cy="250.84" r="2.85"/>
<ellipse transform="matrix(0.1636 -0.9865 0.9865 0.1636 31.1814 564.9151)" fill="#3F4A4D" cx="348.749" cy="264.068" rx="2.791" ry="3.206"/>
<circle fill="#3F4A4D" cx="347.56" cy="256.777" r="1.959"/>
</svg>
