<?xml version="1.0" encoding="utf-8"?>
<!-- Generator: Adobe Illustrator 16.0.0, SVG Export Plug-In . SVG Version: 6.00 Build 0)  -->
<!DOCTYPE svg PUBLIC "-//W3C//DTD SVG 1.1//EN" "http://www.w3.org/Graphics/SVG/1.1/DTD/svg11.dtd">
<svg version="1.1" id="Layer_1" xmlns="http://www.w3.org/2000/svg" xmlns:xlink="http://www.w3.org/1999/xlink" x="0px" y="0px"
	 width="19.474px" height="71.185px" viewBox="306 320.244 19.474 71.185" enable-background="new 306 320.244 19.474 71.185"
	 xml:space="preserve">
<g>
	<g>
		<path fill="#55B250" d="M325.474,388.4c0,1.663-1.662,3.028-3.74,3.028H309.74c-2.078,0-3.74-1.366-3.74-3.028v-40.847
			c0-1.662,1.662-3.028,3.74-3.028h11.993c2.078,0,3.74,1.366,3.74,3.028V388.4z"/>
		<polygon fill="#55B250" points="321.496,349.869 310.037,349.869 311.818,327.961 319.715,327.961 		"/>
		<path fill="#55B250" d="M308.435,344.704c0,0,2.493-0.119,2.493-5.343h4.868l-1.425,12.705"/>
		<path fill="#55B250" d="M323.099,344.704c0,0-2.493-0.119-2.493-5.343h-4.869l1.425,12.705"/>
	</g>
	<rect x="311.818" y="321.609" fill="#55B250" width="7.837" height="6.412"/>
	<path fill="#B5B5B6" d="M319.121,321.965h-6.649c-0.356,0-0.594-0.238-0.594-0.594v-0.535c0-0.356,0.237-0.593,0.594-0.593h6.649
		c0.355,0,0.594,0.237,0.594,0.593v0.535C319.715,321.668,319.418,321.965,319.121,321.965z"/>
	<path fill="#FFFFFF" d="M311.699,331.999c0,0,4.275,1.365,8.074,0l0.416,5.225c0,0-2.969,1.84-8.846,0L311.699,331.999z"/>
	<polygon fill="#EA7A6D" stroke="#FFFFFF" stroke-miterlimit="10" points="315.736,350.463 317.28,353.609 320.783,354.144 
		318.23,356.578 318.824,360.021 315.736,358.418 312.649,360.021 313.243,356.578 310.75,354.144 314.193,353.609 	"/>
</g>
</svg>
