<?xml version="1.0" encoding="utf-8"?>
<!-- Generator: Adobe Illustrator 16.0.0, SVG Export Plug-In . SVG Version: 6.00 Build 0)  -->
<!DOCTYPE svg PUBLIC "-//W3C//DTD SVG 1.1//EN" "http://www.w3.org/Graphics/SVG/1.1/DTD/svg11.dtd">
<svg version="1.1" id="Layer_1" xmlns="http://www.w3.org/2000/svg" xmlns:xlink="http://www.w3.org/1999/xlink" x="0px" y="0px"
	 width="71.351px" height="30.785px" viewBox="248.578 364.514 71.351 30.785"
	 enable-background="new 248.578 364.514 71.351 30.785" xml:space="preserve">
<g>
	<g>
		<path fill="#55B250" d="M317.814,383.414c1.604-0.416,2.494-2.434,1.959-4.394l-3.087-11.577c-0.534-2.019-2.256-3.265-3.918-2.85
			l-39.422,10.568c-1.603,0.416-2.494,2.434-1.959,4.393l3.087,11.578c0.534,2.019,2.256,3.265,3.918,2.85L317.814,383.414z"/>
		<polygon fill="#55B250" points="279.521,389.529 276.552,378.486 255.892,385.907 257.91,393.506 		"/>
		<path fill="#55B250" d="M271.209,378.248c0,0,0.534,2.435-4.512,3.8l1.247,4.69l11.875-4.631"/>
		<path fill="#55B250" d="M275.009,392.438c0,0-0.772-2.375-5.818-1.009l-1.247-4.69l12.587-1.9"/>
	</g>
	
		<rect x="249.898" y="387.303" transform="matrix(-0.2592 -0.9658 0.9658 -0.2592 -57.5585 736.8698)" fill="#55B250" width="7.837" height="6.412"/>
	<path fill="#B5B5B6" d="M251.973,394.457l-1.722-6.412c-0.06-0.297-0.416-0.475-0.712-0.416l-0.535,0.119
		c-0.297,0.06-0.475,0.416-0.416,0.712l1.722,6.412c0.06,0.297,0.416,0.475,0.712,0.416l0.535-0.119
		C251.854,395.109,252.032,394.812,251.973,394.457z"/>
	<path fill="#FFFFFF" d="M259.75,384.72c0,0,2.434,3.74,2.078,7.777l5.165-0.95c0,0,1.009-3.325-2.315-8.549L259.75,384.72z"/>
	<polygon fill="#EA7A6D" stroke="#FFFFFF" stroke-miterlimit="10" points="278.63,383.829 282.074,384.542 283.439,387.748 
		285.161,384.66 288.664,384.363 286.289,381.811 287.061,378.367 283.855,379.851 280.886,378.07 281.302,381.514 	"/>
</g>
</svg>
