<?xml version="1.0" encoding="utf-8"?>
<!-- Generator: Adobe Illustrator 16.0.0, SVG Export Plug-In . SVG Version: 6.00 Build 0)  -->
<!DOCTYPE svg PUBLIC "-//W3C//DTD SVG 1.1//EN" "http://www.w3.org/Graphics/SVG/1.1/DTD/svg11.dtd">
<svg version="1.1" id="Layer_1" xmlns="http://www.w3.org/2000/svg" xmlns:xlink="http://www.w3.org/1999/xlink" x="0px" y="0px"
	 width="71.351px" height="30.845px" viewBox="253.005 342.903 71.351 30.845"
	 enable-background="new 253.005 342.903 71.351 30.845" xml:space="preserve">
<g>
	<g>
		<path fill="#55B250" d="M255.12,361.862c-1.603-0.416-2.494-2.435-1.959-4.394l3.087-11.577c0.535-2.019,2.256-3.266,3.918-2.85
			l39.422,10.568c1.603,0.416,2.494,2.435,1.959,4.394l-3.087,11.577c-0.534,2.019-2.256,3.266-3.918,2.85L255.12,361.862z"/>
		<polygon fill="#55B250" points="293.414,367.977 296.382,356.935 317.043,364.296 314.965,371.896 		"/>
		<path fill="#55B250" d="M301.726,356.697c0,0-0.535,2.434,4.512,3.8l-1.247,4.69l-11.874-4.631"/>
		<path fill="#55B250" d="M297.926,370.827c0,0,0.771-2.375,5.818-1.009l1.247-4.69l-12.586-1.9"/>
	</g>
	
		<rect x="315.144" y="365.695" transform="matrix(0.2593 -0.9658 0.9658 0.2593 -119.9571 581.3882)" fill="#55B250" width="7.837" height="6.412"/>
	<path fill="#B5B5B6" d="M320.961,372.905l1.722-6.412c0.06-0.297,0.416-0.475,0.713-0.416l0.534,0.119
		c0.297,0.059,0.475,0.416,0.416,0.712l-1.722,6.412c-0.06,0.297-0.416,0.475-0.713,0.416l-0.534-0.119
		C321.08,373.558,320.843,373.202,320.961,372.905z"/>
	<path fill="#FFFFFF" d="M313.184,363.168c0,0-2.434,3.741-2.078,7.778l-5.165-0.95c0,0-1.009-3.325,2.315-8.549L313.184,363.168z"
		/>
	<g>
		<g>
			<defs>
				<path id="SVGID_1_" d="M317.043,364.296l-12.765-4.572c-2.078-0.95-2.494-2.137-2.553-2.731
					c0.059-1.662-0.772-3.087-2.078-3.443l-39.422-10.568c-1.603-0.416-3.384,0.831-3.918,2.85l-3.146,11.577
					c-0.535,2.019,0.356,3.978,1.959,4.394l39.422,10.568c1.247,0.356,2.553-0.356,3.325-1.603l0,0l0,0
					c0.06-0.06,0.119-0.178,0.178-0.297c0.297-0.475,1.188-1.247,3.384-1.128l13.536,2.494L317.043,364.296z"/>
			</defs>
			<clipPath id="SVGID_2_">
				<use xlink:href="#SVGID_1_"  overflow="visible"/>
			</clipPath>
			<polygon clip-path="url(#SVGID_2_)" fill="#EA7A6D" stroke="#FFFFFF" stroke-miterlimit="10" points="297.391,355.272 
				293.948,355.925 292.583,359.19 290.86,356.103 287.358,355.806 289.732,353.194 288.961,349.81 292.167,351.294 
				295.135,349.513 294.779,352.957 			"/>
		</g>
	</g>
</g>
</svg>
