<?xml version="1.0" encoding="utf-8"?>
<!-- Generator: Adobe Illustrator 16.0.0, SVG Export Plug-In . SVG Version: 6.00 Build 0)  -->
<!DOCTYPE svg PUBLIC "-//W3C//DTD SVG 1.1//EN" "http://www.w3.org/Graphics/SVG/1.1/DTD/svg11.dtd">
<svg version="1.1" id="Layer_1" xmlns="http://www.w3.org/2000/svg" xmlns:xlink="http://www.w3.org/1999/xlink" x="0px" y="0px"
	 width="73.363px" height="119.613px" viewBox="269.318 307.547 73.363 119.613"
	 enable-background="new 269.318 307.547 73.363 119.613" xml:space="preserve">
<g>
	<path fill="#FFFFFF" stroke="#8E8E8E" stroke-width="2" stroke-miterlimit="10" d="M291.395,422.598
		c0,1.959-1.603,3.562-3.562,3.562h-13.952c-1.959,0-3.562-1.604-3.562-3.562v-30.991c0-1.959,1.603-3.562,3.562-3.562h13.952
		c1.959,0,3.562,1.603,3.562,3.562V422.598z"/>
	<polygon fill="#526DB4" points="279.996,406.568 278.452,405.975 275.483,413.87 277.621,413.039 278.63,415.058 281.599,407.162 	
		"/>
	<polyline fill="#EA7A6D" points="270.853,391.488 290.801,412.921 290.801,418.857 270.853,397.128 	"/>
	<polygon fill="#526DB4" points="281.421,406.568 283.023,405.975 285.992,413.87 283.855,413.039 282.786,415.058 279.877,407.162 
			"/>
	<polygon fill="#526DB4" stroke="#FFFFFF" stroke-miterlimit="10" points="280.827,396.237 281.302,396.534 281.836,396.297 
		282.252,396.713 282.786,396.534 283.143,397.01 283.677,396.891 283.974,397.425 284.508,397.425 284.686,397.959 285.28,398.078 
		285.339,398.612 285.874,398.79 285.874,399.384 286.408,399.621 286.349,400.215 286.764,400.512 286.586,401.105 
		287.001,401.462 286.764,401.996 287.061,402.472 286.764,402.946 287.001,403.421 286.586,403.837 286.764,404.371 
		286.349,404.728 286.408,405.262 285.874,405.559 285.874,406.152 285.339,406.33 285.28,406.865 284.686,406.983 284.508,407.518 
		283.974,407.518 283.677,407.993 283.143,407.934 282.786,408.408 282.252,408.23 281.836,408.646 281.302,408.349 
		280.827,408.705 280.411,408.349 279.877,408.646 279.461,408.23 278.927,408.408 278.571,407.934 278.037,407.993 277.74,407.518 
		277.206,407.518 277.027,406.983 276.434,406.865 276.374,406.33 275.78,406.152 275.78,405.559 275.306,405.262 275.365,404.728 
		274.949,404.371 275.068,403.837 274.712,403.421 274.949,402.946 274.593,402.472 274.949,401.996 274.712,401.462 
		275.068,401.105 274.949,400.512 275.365,400.215 275.306,399.621 275.78,399.384 275.78,398.79 276.374,398.612 276.434,398.078 
		277.027,397.959 277.206,397.425 277.74,397.425 278.037,396.891 278.571,397.01 278.927,396.534 279.461,396.713 279.877,396.297 
		280.411,396.534 	"/>
</g>
<g>
	<path fill="#FFFFFF" stroke="#8E8E8E" stroke-width="2" stroke-miterlimit="10" d="M316.746,422.598
		c0,1.959-1.604,3.562-3.562,3.562h-13.952c-1.959,0-3.562-1.604-3.562-3.562v-30.991c0-1.959,1.603-3.562,3.562-3.562h13.952
		c1.959,0,3.562,1.603,3.562,3.562V422.598z"/>
	<polygon fill="#526DB4" points="305.347,406.568 303.803,405.975 300.835,413.87 302.972,413.039 303.981,415.058 306.95,407.162 	
		"/>
	<polyline fill="#EA7A6D" points="296.204,391.488 316.152,412.921 316.152,418.857 296.204,397.128 	"/>
	<polygon fill="#526DB4" points="306.831,406.568 308.375,405.975 311.344,413.87 309.206,413.039 308.196,415.058 305.228,407.162 
			"/>
	<polygon fill="#526DB4" stroke="#FFFFFF" stroke-miterlimit="10" points="306.237,396.237 306.653,396.534 307.188,396.297 
		307.603,396.713 308.138,396.534 308.493,397.01 309.028,396.891 309.325,397.425 309.859,397.425 310.037,397.959 
		310.631,398.078 310.69,398.612 311.284,398.79 311.284,399.384 311.759,399.621 311.699,400.215 312.115,400.512 311.996,401.105 
		312.353,401.462 312.115,401.996 312.472,402.472 312.115,402.946 312.353,403.421 311.996,403.837 312.115,404.371 
		311.699,404.728 311.759,405.262 311.284,405.559 311.284,406.152 310.69,406.33 310.631,406.865 310.037,406.983 309.859,407.518 
		309.325,407.518 309.028,407.993 308.493,407.934 308.138,408.408 307.603,408.23 307.188,408.646 306.653,408.349 
		306.237,408.705 305.763,408.349 305.228,408.646 304.812,408.23 304.278,408.408 303.922,407.934 303.388,407.993 
		303.091,407.518 302.557,407.518 302.378,406.983 301.785,406.865 301.726,406.33 301.191,406.152 301.191,405.559 
		300.657,405.262 300.716,404.728 300.3,404.371 300.479,403.837 300.063,403.421 300.3,402.946 300.003,402.472 300.3,401.996 
		300.063,401.462 300.479,401.105 300.3,400.512 300.716,400.215 300.657,399.621 301.191,399.384 301.191,398.79 301.726,398.612 
		301.785,398.078 302.378,397.959 302.557,397.425 303.091,397.425 303.388,396.891 303.922,397.01 304.278,396.534 
		304.812,396.713 305.228,396.297 305.763,396.534 	"/>
</g>
<g>
	<path fill="#FFFFFF" stroke="#8E8E8E" stroke-width="2" stroke-miterlimit="10" d="M341.682,422.598
		c0,1.959-1.604,3.562-3.562,3.562h-13.952c-1.959,0-3.562-1.604-3.562-3.562v-30.991c0-1.959,1.603-3.562,3.562-3.562h13.952
		c1.959,0,3.562,1.603,3.562,3.562V422.598z"/>
	<polygon fill="#526DB4" points="330.282,406.568 328.739,405.975 325.771,413.87 327.907,413.039 328.917,415.058 331.886,407.162 
			"/>
	<polyline fill="#EA7A6D" points="321.14,391.488 341.088,412.921 341.088,418.857 321.14,397.128 	"/>
	<polygon fill="#526DB4" points="331.767,406.568 333.311,405.975 336.279,413.87 334.142,413.039 333.132,415.058 330.164,407.162 
			"/>
	<polygon fill="#526DB4" stroke="#FFFFFF" stroke-miterlimit="10" points="331.173,396.237 331.589,396.534 332.123,396.297 
		332.538,396.713 333.073,396.534 333.429,397.01 333.964,396.891 334.26,397.425 334.795,397.425 334.973,397.959 335.566,398.078 
		335.626,398.612 336.22,398.79 336.22,399.384 336.694,399.621 336.635,400.215 337.051,400.512 336.932,401.105 337.288,401.462 
		337.051,401.996 337.407,402.472 337.051,402.946 337.288,403.421 336.932,403.837 337.051,404.371 336.635,404.728 
		336.694,405.262 336.22,405.559 336.22,406.152 335.626,406.33 335.566,406.865 334.973,406.983 334.795,407.518 334.26,407.518 
		333.964,407.993 333.429,407.934 333.073,408.408 332.538,408.23 332.123,408.646 331.589,408.349 331.173,408.705 
		330.698,408.349 330.164,408.646 329.748,408.23 329.214,408.408 328.857,407.934 328.323,407.993 328.026,407.518 
		327.492,407.518 327.313,406.983 326.721,406.865 326.661,406.33 326.127,406.152 326.127,405.559 325.592,405.262 
		325.651,404.728 325.236,404.371 325.414,403.837 324.998,403.421 325.236,402.946 324.939,402.472 325.236,401.996 
		324.998,401.462 325.414,401.105 325.236,400.512 325.651,400.215 325.592,399.621 326.127,399.384 326.127,398.79 
		326.661,398.612 326.721,398.078 327.313,397.959 327.492,397.425 328.026,397.425 328.323,396.891 328.857,397.01 
		329.214,396.534 329.748,396.713 330.164,396.297 330.698,396.534 	"/>
</g>
<g>
	<path fill="#FFFFFF" stroke="#8E8E8E" stroke-width="2" stroke-miterlimit="10" d="M304.16,383.057
		c0,1.959-1.603,3.562-3.562,3.562h-13.952c-1.959,0-3.562-1.603-3.562-3.562v-30.991c0-1.959,1.603-3.562,3.562-3.562h13.952
		c1.959,0,3.562,1.603,3.562,3.562V383.057z"/>
	<polygon fill="#526DB4" points="292.76,367.086 291.157,366.493 288.248,374.33 290.386,373.499 291.395,375.517 294.363,367.621 	
		"/>
	<polyline fill="#EA7A6D" points="283.617,351.947 303.566,373.38 303.566,379.317 283.617,357.587 	"/>
	<polygon fill="#526DB4" points="294.186,367.086 295.788,366.493 298.757,374.33 296.62,373.499 295.551,375.517 292.642,367.621 	
		"/>
	<polygon fill="#526DB4" stroke="#FFFFFF" stroke-miterlimit="10" points="293.592,356.697 294.066,357.053 294.601,356.756 
		295.017,357.172 295.551,356.994 295.907,357.469 296.441,357.409 296.738,357.884 297.272,357.884 297.451,358.418 
		298.044,358.537 298.104,359.072 298.638,359.25 298.638,359.843 299.172,360.081 299.113,360.675 299.529,361.031 
		299.351,361.565 299.766,361.981 299.529,362.456 299.826,362.931 299.529,363.406 299.766,363.94 299.351,364.296 299.529,364.89 
		299.113,365.187 299.172,365.78 298.638,366.018 298.638,366.612 298.104,366.79 298.044,367.324 297.451,367.443 297.272,367.977 
		296.738,367.977 296.441,368.512 295.907,368.393 295.551,368.868 295.017,368.689 294.601,369.105 294.066,368.868 
		293.592,369.165 293.176,368.868 292.642,369.105 292.226,368.689 291.692,368.868 291.335,368.393 290.801,368.512 
		290.504,367.977 289.97,367.977 289.792,367.443 289.198,367.324 289.139,366.79 288.545,366.612 288.545,366.018 288.07,365.78 
		288.129,365.187 287.714,364.89 287.833,364.296 287.477,363.94 287.714,363.406 287.358,362.931 287.714,362.456 287.477,361.981 
		287.833,361.565 287.714,361.031 288.129,360.675 288.07,360.081 288.545,359.843 288.545,359.25 289.139,359.072 289.198,358.537 
		289.792,358.418 289.97,357.884 290.504,357.884 290.801,357.409 291.335,357.469 291.692,356.994 292.226,357.172 
		292.642,356.756 293.176,357.053 	"/>
</g>
<g>
	<path fill="#FFFFFF" stroke="#8E8E8E" stroke-width="2" stroke-miterlimit="10" d="M329.57,383.057
		c0,1.959-1.604,3.562-3.562,3.562h-13.952c-1.959,0-3.562-1.603-3.562-3.562v-30.991c0-1.959,1.604-3.562,3.562-3.562h13.952
		c1.959,0,3.562,1.603,3.562,3.562V383.057z"/>
	<polygon fill="#526DB4" points="318.171,367.086 316.568,366.493 313.659,374.33 315.736,373.499 316.806,375.517 319.715,367.621 
			"/>
	<polyline fill="#EA7A6D" points="309.028,351.947 328.977,373.38 328.977,379.317 309.028,357.587 	"/>
	<polygon fill="#526DB4" points="319.596,367.086 321.199,366.493 324.108,374.33 322.03,373.499 320.961,375.517 318.052,367.621 	
		"/>
	<polygon fill="#526DB4" stroke="#FFFFFF" stroke-miterlimit="10" points="319.002,356.697 319.477,357.053 320.012,356.756 
		320.427,357.172 320.961,356.994 321.258,357.469 321.852,357.409 322.09,357.884 322.683,357.884 322.861,358.418 
		323.455,358.537 323.515,359.072 324.049,359.25 324.049,359.843 324.583,360.081 324.464,360.675 324.939,361.031 
		324.761,361.565 325.177,361.981 324.939,362.456 325.236,362.931 324.939,363.406 325.177,363.94 324.761,364.296 324.939,364.89 
		324.464,365.187 324.583,365.78 324.049,366.018 324.049,366.612 323.515,366.79 323.455,367.324 322.861,367.443 322.683,367.977 
		322.09,367.977 321.852,368.512 321.258,368.393 320.961,368.868 320.427,368.689 320.012,369.105 319.477,368.868 
		319.002,369.165 318.527,368.868 318.052,369.105 317.637,368.689 317.103,368.868 316.746,368.393 316.212,368.512 
		315.915,367.977 315.381,367.977 315.143,367.443 314.608,367.324 314.49,366.79 313.956,366.612 313.956,366.018 313.48,365.78 
		313.54,365.187 313.065,364.89 313.243,364.296 312.887,363.94 313.124,363.406 312.769,362.931 313.124,362.456 312.887,361.981 
		313.243,361.565 313.065,361.031 313.54,360.675 313.48,360.081 313.956,359.843 313.956,359.25 314.49,359.072 314.608,358.537 
		315.143,358.418 315.381,357.884 315.915,357.884 316.212,357.409 316.746,357.469 317.103,356.994 317.637,357.172 
		318.052,356.756 318.527,357.053 	"/>
</g>
<g>
	<path fill="#FFFFFF" stroke="#8E8E8E" stroke-width="2" stroke-miterlimit="10" d="M315.915,343.101
		c0,1.959-1.604,3.562-3.562,3.562H298.4c-1.959,0-3.562-1.603-3.562-3.562V312.11c0-1.959,1.603-3.562,3.562-3.562h13.952
		c1.959,0,3.562,1.603,3.562,3.562V343.101z"/>
	<polygon fill="#526DB4" points="304.516,327.071 302.913,326.478 300.003,334.374 302.082,333.542 303.15,335.561 306.06,327.665 	
		"/>
	<polyline fill="#EA7A6D" points="295.313,311.991 315.321,333.424 315.321,339.361 295.313,317.631 	"/>
	<polygon fill="#526DB4" points="305.94,327.071 307.544,326.478 310.453,334.374 308.375,333.542 307.307,335.561 304.397,327.665 
			"/>
	<polygon fill="#526DB4" stroke="#FFFFFF" stroke-miterlimit="10" points="305.347,316.741 305.822,317.038 306.356,316.8 
		306.771,317.216 307.307,317.038 307.603,317.513 308.196,317.394 308.435,317.928 309.028,317.928 309.206,318.462 
		309.74,318.521 309.859,319.115 310.394,319.293 310.394,319.887 310.928,320.125 310.809,320.718 311.284,321.015 311.105,321.55 
		311.521,321.965 311.284,322.5 311.581,322.975 311.284,323.449 311.521,323.924 311.105,324.34 311.284,324.875 310.809,325.23 
		310.928,325.765 310.394,326.062 310.394,326.596 309.859,326.774 309.74,327.368 309.206,327.487 309.028,328.021 
		308.435,328.021 308.196,328.496 307.603,328.437 307.307,328.912 306.771,328.733 306.356,329.09 305.822,328.852 
		305.347,329.208 304.872,328.852 304.397,329.09 303.981,328.733 303.447,328.912 303.091,328.437 302.557,328.496 302.26,328.021 
		301.726,328.021 301.488,327.487 300.954,327.368 300.835,326.774 300.3,326.596 300.3,326.062 299.826,325.765 299.885,325.23 
		299.41,324.875 299.588,324.34 299.232,323.924 299.469,323.449 299.113,322.975 299.469,322.5 299.232,321.965 299.588,321.55 
		299.41,321.015 299.885,320.718 299.826,320.125 300.3,319.887 300.3,319.293 300.835,319.115 300.954,318.521 301.488,318.462 
		301.726,317.928 302.26,317.928 302.557,317.394 303.091,317.513 303.447,317.038 303.981,317.216 304.397,316.8 304.872,317.038 	
		"/>
</g>
</svg>
