<?xml version="1.0" encoding="UTF-8" standalone="no"?>
<svg width="80px" height="80px" viewBox="0 0 80 80" version="1.1" xmlns="http://www.w3.org/2000/svg" xmlns:xlink="http://www.w3.org/1999/xlink" xmlns:sketch="http://www.bohemiancoding.com/sketch/ns">
    <!-- Generator: Sketch 3.3.3 (12081) - http://www.bohemiancoding.com/sketch -->
    <title>Fill 33 + Fill 34 + Imported Layers</title>
    <desc>Created with Sketch.</desc>
    <defs></defs>
    <g id="Page-1" stroke="none" stroke-width="1" fill="none" fill-rule="evenodd" sketch:type="MSPage">
        <g id="Desktop-HD" sketch:type="MSArtboardGroup" transform="translate(-2049.000000, -1058.000000)" fill="#69B385">
            <g id="Fill-33-+-Fill-34-+-Imported-Layers" sketch:type="MSLayerGroup" transform="translate(2049.000000, 1058.000000)">
                <g id="Fill-33-+-Fill-34" sketch:type="MSShapeGroup">
                    <path d="M40.1644444,2.92222222 C60.5777778,2.92222222 77.1844444,19.5296296 77.1844444,39.942963 L77.1844444,40.7355556 C77.1844444,61.1481481 60.5777778,77.7555556 40.1644444,77.7555556 L39.3703704,77.7555556 C18.9592593,77.7555556 2.35185185,61.1481481 2.35185185,40.7355556 L2.35185185,39.942963 C2.35185185,19.5296296 18.9592593,2.92222222 39.3703704,2.92222222 L40.1644444,2.92222222 M40.1644444,0.7 L39.3703704,0.7 C17.6985185,0.7 0.12962963,18.2696296 0.12962963,39.942963 L0.12962963,40.7355556 C0.12962963,62.4081481 17.6985185,79.9777778 39.3703704,79.9777778 L40.1644444,79.9777778 C61.8377778,79.9777778 79.4066667,62.4081481 79.4066667,40.7355556 L79.4066667,39.942963 C79.4066667,18.2696296 61.8377778,0.7 40.1644444,0.7" id="Fill-33"></path>
                </g>
                <g id="Imported-Layers" transform="translate(17.000000, 17.000000)" sketch:type="MSShapeGroup">
                    <g>
                        <path d="M22.829,30.999 C21.161,30.999 19.731,29.981 19.186,28.406 L19.108,28.181 C18.761,27.18 17.554,26.65 16.575,27.106 L16.36,27.205 C14.596,28.025 12.468,27.358 11.456,25.739 C10.744,24.602 10.676,23.248 11.27,22.027 L11.376,21.811 C11.607,21.334 11.625,20.801 11.426,20.309 C11.227,19.816 10.843,19.444 10.345,19.263 L10.121,19.181 C8.568,18.613 7.575,17.18 7.589,15.528 C7.604,13.876 8.622,12.46 10.183,11.919 L10.41,11.842 C10.911,11.667 11.302,11.304 11.51,10.815 C11.717,10.326 11.708,9.791 11.484,9.31 L11.384,9.095 C10.817,7.873 10.901,6.533 11.615,5.414 C12.647,3.795 14.808,3.152 16.562,4.005 L16.776,4.109 C17.742,4.577 18.965,4.07 19.328,3.077 L19.409,2.855 C19.971,1.316 21.391,0.323 23.027,0.323 C24.695,0.323 26.125,1.342 26.669,2.916 L26.748,3.145 C27.094,4.144 28.301,4.674 29.28,4.219 L29.495,4.118 C31.259,3.298 33.386,3.967 34.399,5.584 C35.111,6.722 35.179,8.074 34.585,9.295 L34.48,9.512 C34.248,9.989 34.229,10.523 34.429,11.016 C34.628,11.508 35.012,11.88 35.51,12.062 L35.734,12.144 C37.287,12.71 38.28,14.145 38.266,15.795 C38.251,17.447 37.233,18.863 35.672,19.403 L35.448,19.481 C34.943,19.655 34.553,20.02 34.346,20.509 C34.138,20.997 34.147,21.532 34.371,22.013 L34.472,22.231 C35.038,23.45 34.954,24.79 34.24,25.909 C33.209,27.527 31.047,28.172 29.293,27.319 L29.079,27.215 C28.113,26.743 26.89,27.253 26.528,28.244 L26.445,28.471 C25.884,30.007 24.464,30.999 22.829,30.999 M17.354,24.932 C18.997,24.932 20.461,25.975 20.998,27.526 L21.076,27.751 C21.394,28.672 22.19,28.999 22.828,28.999 C23.454,28.999 24.239,28.68 24.567,27.783 L24.65,27.558 C25.203,26.043 26.658,25.027 28.27,25.027 C28.855,25.027 29.421,25.158 29.952,25.415 L30.167,25.521 C31.041,25.942 32.05,25.623 32.554,24.832 C32.753,24.522 33.032,23.877 32.658,23.074 L32.557,22.856 C32.098,21.868 32.079,20.73 32.504,19.727 C32.93,18.726 33.764,17.947 34.792,17.592 L35.016,17.514 C35.929,17.198 36.26,16.41 36.266,15.778 C36.271,15.147 35.955,14.354 35.049,14.023 L34.825,13.94 C33.802,13.566 32.982,12.774 32.574,11.766 C32.167,10.756 32.206,9.616 32.681,8.637 L32.786,8.42 C33.178,7.616 32.903,6.963 32.704,6.645 C32.209,5.855 31.212,5.523 30.339,5.932 L30.124,6.032 C29.608,6.271 29.063,6.393 28.501,6.393 C26.858,6.393 25.394,5.35 24.857,3.798 L24.779,3.57 C24.461,2.651 23.666,2.323 23.027,2.323 C22.401,2.323 21.616,2.644 21.288,3.539 L21.206,3.765 C20.652,5.279 19.197,6.297 17.584,6.297 C16.999,6.297 16.433,6.165 15.903,5.908 L15.688,5.804 C14.815,5.382 13.805,5.701 13.301,6.49 C13.102,6.803 12.823,7.446 13.197,8.25 L13.297,8.466 C13.756,9.453 13.776,10.595 13.351,11.596 C12.925,12.598 12.092,13.375 11.063,13.732 L10.836,13.811 C9.925,14.125 9.595,14.912 9.589,15.545 C9.584,16.178 9.901,16.971 10.806,17.302 L11.03,17.384 C12.053,17.758 12.873,18.55 13.281,19.559 C13.688,20.568 13.649,21.707 13.174,22.688 L13.068,22.904 C12.677,23.706 12.952,24.36 13.151,24.678 C13.646,25.471 14.643,25.8 15.516,25.393 L15.731,25.291 C16.247,25.053 16.792,24.932 17.354,24.932" id="Fill-1"></path>
                        <path d="M15.249,46 C15.12,46 14.99,45.976 14.866,45.924 C14.493,45.77 14.249,45.404 14.249,45 L14.249,27 C14.249,26.447 14.697,26 15.249,26 C15.801,26 16.249,26.447 16.249,27 L16.249,42.586 L21.685,37.149 C22.063,36.771 22.669,36.758 23.065,37.117 L29.249,42.739 L29.249,31 C29.249,30.447 29.697,30 30.249,30 C30.801,30 31.249,30.447 31.249,31 L31.249,45 C31.249,45.396 31.016,45.754 30.654,45.914 C30.29,46.073 29.87,46.005 29.576,45.74 L22.425,39.238 L15.956,45.707 C15.765,45.898 15.509,46 15.249,46" id="Fill-2"></path>
                        <path d="M34.25,13 C33.91,13 33.579,12.827 33.392,12.515 C33.107,12.041 33.261,11.427 33.734,11.143 L43.734,5.143 C44.208,4.857 44.822,5.012 45.106,5.484 C45.391,5.959 45.237,6.573 44.764,6.856 L34.764,12.856 C34.603,12.954 34.425,13 34.25,13" id="Fill-3"></path>
                        <path d="M11.248,13 C11.073,13 10.895,12.954 10.734,12.856 L0.734,6.856 C0.261,6.573 0.107,5.959 0.392,5.484 C0.676,5.011 1.289,4.856 1.764,5.143 L11.764,11.143 C12.237,11.427 12.391,12.041 12.106,12.515 C11.919,12.827 11.588,13 11.248,13" id="Fill-4"></path>
                    </g>
                </g>
            </g>
        </g>
    </g>
</svg>