<?xml version="1.0" encoding="UTF-8" standalone="no"?>
<svg width="80px" height="80px" viewBox="0 0 80 80" version="1.1" xmlns="http://www.w3.org/2000/svg" xmlns:xlink="http://www.w3.org/1999/xlink" xmlns:sketch="http://www.bohemiancoding.com/sketch/ns">
    <!-- Generator: Sketch 3.3.3 (12081) - http://www.bohemiancoding.com/sketch -->
    <title>Fill 33 + Fill 34 Copy + click copy</title>
    <desc>Created with Sketch.</desc>
    <defs></defs>
    <g id="Page-1" stroke="none" stroke-width="1" fill="none" fill-rule="evenodd" sketch:type="MSPage">
        <g id="Desktop-HD" sketch:type="MSArtboardGroup" transform="translate(-2049.000000, -1153.000000)">
            <g id="Fill-33-+-Fill-34-Copy-+-click-copy" sketch:type="MSLayerGroup" transform="translate(2049.000000, 1153.000000)">
                <g id="Fill-33-+-Fill-34-Copy" fill="#69B385" sketch:type="MSShapeGroup">
                    <path d="M40.1644444,2.92222222 C60.5777778,2.92222222 77.1844444,19.5296296 77.1844444,39.942963 L77.1844444,40.7355556 C77.1844444,61.1481481 60.5777778,77.7555556 40.1644444,77.7555556 L39.3703704,77.7555556 C18.9592593,77.7555556 2.35185185,61.1481481 2.35185185,40.7355556 L2.35185185,39.942963 C2.35185185,19.5296296 18.9592593,2.92222222 39.3703704,2.92222222 L40.1644444,2.92222222 M39.3703704,0.7 C17.6985185,0.7 0.12962963,18.2696296 0.12962963,39.942963 L0.12962963,40.7355556 C0.12962963,62.4081481 17.6985185,79.9777778 39.3703704,79.9777778 L40.1644444,79.9777778 C61.8377778,79.9777778 79.4066667,62.4081481 79.4066667,40.7355556 L79.4066667,39.942963 C79.4066667,32.4164074 77.2878888,25.3847514 73.6142306,19.4119546 C66.709289,8.18559363 54.3112222,0.7 40.1644444,0.7 L39.3703704,0.7 Z" id="Fill-33"></path>
                </g>
                <path d="M30,56 L30,34 C30,32.066 31.567,30.5 33.5,30.5 C35.433,30.5 37,32.066 37,34 L37,60 M37,55 L37,61 L37,53.5 C37,51.567 38.567,50 40.5,50 C42.433,50 44,51.567 44,53.5 L44,57 M44,55 L44,59 L44,53.5 C44,51.567 45.567,50 47.5,50 C49.433,50 51,51.567 51,53.5 L51,61 L51,55.5 C51,53.566 52.567,52 54.5,52 C56.433,52 58,53.566 58,55.5 L58,59 M25,56 L30,53 M40.001,44.127 C44.185,41.706 47,37.182 47,32 C47,24.268 40.732,18 33,18 C25.268,18 19,24.268 19,32 C19,37.586 22.272,42.408 27.003,44.653 M40.984,33 C40.995,32.835 41,32.668 41,32.5 C41,28.358 37.643,25 33.5,25 C29.358,25 26,28.358 26,32.5" id="click-copy" stroke="#69B385" stroke-width="2" stroke-linecap="round" stroke-linejoin="round" sketch:type="MSShapeGroup"></path>
            </g>
        </g>
    </g>
</svg>