<?xml version="1.0" encoding="UTF-8" standalone="no"?>
<svg width="80px" height="80px" viewBox="0 0 80 80" version="1.1" xmlns="http://www.w3.org/2000/svg" xmlns:xlink="http://www.w3.org/1999/xlink" xmlns:sketch="http://www.bohemiancoding.com/sketch/ns">
    <!-- Generator: Sketch 3.3.3 (12081) - http://www.bohemiancoding.com/sketch -->
    <title>Fill 33 + Fill 34 Copy 3 + Imported Layers</title>
    <desc>Created with Sketch.</desc>
    <defs></defs>
    <g id="Page-1" stroke="none" stroke-width="1" fill="none" fill-rule="evenodd" sketch:type="MSPage">
        <g id="Desktop-HD" sketch:type="MSArtboardGroup" transform="translate(-2049.000000, -1359.000000)" fill="#69B385">
            <g id="Fill-33-+-Fill-34-Copy-3-+-Imported-Layers" sketch:type="MSLayerGroup" transform="translate(2049.000000, 1359.000000)">
                <g id="Fill-33-+-Fill-34-Copy-3" sketch:type="MSShapeGroup">
                    <path d="M40.1644444,2.92222222 C60.5777778,2.92222222 77.1844444,19.5296296 77.1844444,39.942963 L77.1844444,40.7355556 C77.1844444,61.1481481 60.5777778,77.7555556 40.1644444,77.7555556 L39.3703704,77.7555556 C18.9592593,77.7555556 2.35185185,61.1481481 2.35185185,40.7355556 L2.35185185,39.942963 C2.35185185,19.5296296 18.9592593,2.92222222 39.3703704,2.92222222 L40.1644444,2.92222222 M40.1644444,0.7 L39.3703704,0.7 C17.6985185,0.7 0.12962963,18.2696296 0.12962963,39.942963 L0.12962963,40.7355556 C0.12962963,62.4081481 17.6985185,79.9777778 39.3703704,79.9777778 L40.1644444,79.9777778 C61.8377778,79.9777778 79.4066667,62.4081481 79.4066667,40.7355556 L79.4066667,39.942963 C79.4066667,18.2696296 61.8377778,0.7 40.1644444,0.7" id="Fill-33"></path>
                </g>
                <g id="Imported-Layers" transform="translate(18.000000, 20.000000)" sketch:type="MSShapeGroup">
                    <g>
                        <path d="M9.25,34 C8.788,34 8.336,33.922 7.907,33.769 C6.317,33.204 5.25,31.689 5.25,30 C5.25,28.168 6.487,26.619 8.172,26.147 L6.311,4.741 L0.934,2.948 C0.409,2.773 0.127,2.208 0.302,1.684 C0.476,1.16 1.038,0.875 1.566,1.052 L7.566,3.052 C7.943,3.178 8.211,3.517 8.245,3.913 L10.245,26.913 C10.271,27.191 10.177,27.469 9.986,27.676 C9.798,27.883 9.529,28 9.25,28 C8.147,28 7.25,28.896 7.25,30 C7.25,30.845 7.783,31.602 8.578,31.885 C8.793,31.962 9.019,32 9.25,32 C9.803,32 10.25,32.447 10.25,33 C10.25,33.553 9.803,34 9.25,34" id="Fill-1"></path>
                        <path d="M39.707,34 L9.707,34 C9.154,34 8.707,33.553 8.707,33 C8.707,32.447 9.154,32 9.707,32 L39.707,32 C40.261,32 40.707,32.447 40.707,33 C40.707,33.553 40.261,34 39.707,34" id="Fill-2"></path>
                        <path d="M33.25,40 C31.043,40 29.25,38.206 29.25,36 C29.25,33.794 31.043,32 33.25,32 C35.455,32 37.25,33.794 37.25,36 C37.25,38.206 35.455,40 33.25,40 M33.25,34 C32.147,34 31.25,34.896 31.25,36 C31.25,37.102 32.147,38 33.25,38 C34.353,38 35.25,37.102 35.25,36 C35.25,34.896 34.353,34 33.25,34" id="Fill-3"></path>
                        <path d="M12.25,40 C10.043,40 8.25,38.206 8.25,36 C8.25,33.794 10.043,32 12.25,32 C14.455,32 16.25,33.794 16.25,36 C16.25,38.206 14.455,40 12.25,40 M12.25,34 C11.147,34 10.25,34.896 10.25,36 C10.25,37.102 11.147,38 12.25,38 C13.353,38 14.25,37.102 14.25,36 C14.25,34.896 13.353,34 12.25,34" id="Fill-4"></path>
                        <path d="M39.25,28 L9.707,28 C9.154,28 8.707,27.553 8.707,27 C8.707,26.447 9.154,26 9.707,26 L38.492,26 L42.516,11.727 C42.665,11.198 43.221,10.889 43.75,11.037 C44.28,11.188 44.591,11.74 44.44,12.272 L40.213,27.272 C40.091,27.702 39.697,28 39.25,28" id="Fill-5"></path>
                        <path d="M42.25,16 C42.202,16 42.153,15.997 42.105,15.989 L8.105,10.989 C7.558,10.909 7.181,10.4 7.261,9.854 C7.341,9.309 7.833,8.925 8.396,9.011 L42.396,14.011 C42.941,14.091 43.318,14.599 43.238,15.145 C43.165,15.643 42.738,16 42.25,16" id="Fill-6"></path>
                        <path d="M41.25,20 C41.2,20 41.15,19.996 41.101,19.988 L8.101,14.988 C7.554,14.906 7.179,14.395 7.262,13.851 C7.344,13.304 7.854,12.927 8.398,13.012 L41.398,18.012 C41.945,18.094 42.32,18.603 42.237,19.148 C42.163,19.645 41.736,20 41.25,20" id="Fill-7"></path>
                    </g>
                </g>
            </g>
        </g>
    </g>
</svg>