<?xml version="1.0" encoding="UTF-8" standalone="no"?>
<svg width="45px" height="46px" viewBox="0 0 45 46" version="1.1" xmlns="http://www.w3.org/2000/svg" xmlns:xlink="http://www.w3.org/1999/xlink" xmlns:sketch="http://www.bohemiancoding.com/sketch/ns">
    <!-- Generator: Sketch 3.3.3 (12081) - http://www.bohemiancoding.com/sketch -->
    <title>Imported Layers Copy 2</title>
    <desc>Created with Sketch.</desc>
    <defs></defs>
    <g id="Page-1" stroke="none" stroke-width="1" fill="none" fill-rule="evenodd" sketch:type="MSPage">
        <g id="Desktop-HD" sketch:type="MSArtboardGroup" transform="translate(-2648.000000, -1639.000000)" stroke="#FFFFFF" stroke-width="2" stroke-linecap="round" stroke-linejoin="round">
            <path d="M2658.439,1656.99936 L2658.214,1656.91736 C2655.693,1655.99536 2655.724,1652.41936 2658.261,1651.54136 L2658.487,1651.46336 C2660.085,1650.91136 2660.855,1649.09836 2660.142,1647.56536 L2660.041,1647.34836 C2658.91,1644.91336 2661.461,1642.40636 2663.875,1643.58036 L2664.091,1643.68536 C2665.611,1644.42436 2667.437,1643.68636 2668.017,1642.09836 L2668.1,1641.87336 C2669.021,1639.35236 2672.598,1639.38336 2673.475,1641.92036 L2673.553,1642.14736 C2674.106,1643.74436 2675.919,1644.51436 2677.452,1643.80136 L2677.669,1643.70036 C2680.103,1642.57036 2682.61,1645.12136 2681.437,1647.53536 L2681.332,1647.75036 C2680.593,1649.27136 2681.33,1651.09636 2682.918,1651.67736 L2683.143,1651.75936 C2685.664,1652.68036 2685.633,1656.25736 2683.096,1657.13436 L2682.87,1657.21336 C2681.272,1657.76536 2680.503,1659.57836 2681.215,1661.11136 L2681.316,1661.32836 C2682.447,1663.76336 2679.896,1666.26936 2677.482,1665.09636 L2677.266,1664.99136 C2675.746,1664.25236 2673.92,1664.99036 2673.34,1666.57736 L2673.257,1666.80336 C2672.336,1669.32436 2668.759,1669.29236 2667.882,1666.75636 L2667.804,1666.53036 C2667.251,1664.93136 2665.439,1664.16236 2663.906,1664.87436 L2663.688,1664.97536 C2661.254,1666.10636 2658.747,1663.55536 2659.921,1661.14136 L2660.025,1660.92636 C2660.764,1659.40636 2660.027,1657.57936 2658.439,1656.99936 L2658.439,1656.99936 Z M2678,1669.67636 L2678,1683.67636 L2670.143,1676.53336 L2663,1683.67636 L2663,1665.67636 L2678,1669.67636 Z M2692,1644.67636 L2682,1650.67636 L2692,1644.67636 Z M2649,1644.67636 L2659,1650.67636 L2649,1644.67636 Z" id="Imported-Layers-Copy-2" sketch:type="MSShapeGroup"></path>
        </g>
    </g>
</svg>