<?xml version="1.0" encoding="utf-8"?>
<!-- Generator: Adobe Illustrator 16.0.0, SVG Export Plug-In . SVG Version: 6.00 Build 0)  -->
<!DOCTYPE svg PUBLIC "-//W3C//DTD SVG 1.1//EN" "http://www.w3.org/Graphics/SVG/1.1/DTD/svg11.dtd">
<svg version="1.1" id="Layer_1" xmlns="http://www.w3.org/2000/svg" xmlns:xlink="http://www.w3.org/1999/xlink" x="0px" y="0px"
	 width="64px" height="64px" viewBox="0 0 64 64" enable-background="new 0 0 64 64" xml:space="preserve">
<path fill="#FFFFFF" d="M19.25,46c-0.462,0-0.914-0.078-1.343-0.231c-1.59-0.564-2.657-2.08-2.657-3.769
	c0-1.832,1.237-3.381,2.922-3.854l-1.861-21.405l-5.377-1.793c-0.524-0.175-0.807-0.74-0.632-1.265
	c0.174-0.523,0.736-0.809,1.264-0.632l6,2c0.378,0.126,0.646,0.465,0.68,0.861l2,23c0.025,0.278-0.068,0.556-0.259,0.763
	C19.798,39.883,19.529,40,19.25,40c-1.104,0-2,0.896-2,2c0,0.845,0.533,1.603,1.328,1.885C18.793,43.962,19.019,44,19.25,44
	c0.553,0,1,0.447,1,1S19.803,46,19.25,46"/>
<path fill="#FFFFFF" d="M49.707,46h-30c-0.553,0-1-0.447-1-1s0.447-1,1-1h30c0.554,0,1,0.447,1,1S50.261,46,49.707,46"/>
<path fill="#FFFFFF" d="M43.25,52c-2.207,0-4-1.794-4-4s1.793-4,4-4c2.205,0,4,1.794,4,4S45.455,52,43.25,52 M43.25,46
	c-1.104,0-2,0.896-2,2c0,1.103,0.896,2,2,2c1.103,0,2-0.897,2-2C45.25,46.896,44.353,46,43.25,46"/>
<path fill="#FFFFFF" d="M22.25,52c-2.207,0-4-1.794-4-4s1.793-4,4-4c2.205,0,4,1.794,4,4S24.455,52,22.25,52 M22.25,46
	c-1.104,0-2,0.896-2,2c0,1.103,0.896,2,2,2c1.103,0,2-0.897,2-2C24.25,46.896,23.353,46,22.25,46"/>
<path fill="#FFFFFF" d="M49.25,40H19.707c-0.553,0-1-0.447-1-1s0.447-1,1-1h28.785l4.023-14.272c0.149-0.529,0.705-0.839,1.234-0.69
	c0.53,0.15,0.841,0.703,0.69,1.234l-4.228,15C50.091,39.702,49.697,40,49.25,40"/>
<path fill="#FFFFFF" d="M52.25,28c-0.048,0-0.097-0.003-0.146-0.011l-34-5c-0.547-0.08-0.924-0.589-0.844-1.136
	c0.08-0.545,0.572-0.929,1.135-0.843l34,5c0.546,0.08,0.923,0.588,0.843,1.135C53.165,27.643,52.738,28,52.25,28"/>
<path fill="#FFFFFF" d="M51.25,32c-0.05,0-0.1-0.004-0.149-0.012l-33-5c-0.547-0.082-0.922-0.593-0.839-1.138
	c0.082-0.547,0.592-0.924,1.137-0.839l33,5c0.547,0.082,0.922,0.592,0.839,1.137C52.163,31.646,51.736,32,51.25,32"/>
</svg>
