<?xml version="1.0" encoding="UTF-8" standalone="no"?>
<svg width="80px" height="80px" viewBox="0 0 80 80" version="1.1" xmlns="http://www.w3.org/2000/svg" xmlns:xlink="http://www.w3.org/1999/xlink" xmlns:sketch="http://www.bohemiancoding.com/sketch/ns">
    <!-- Generator: Sketch 3.3.3 (12081) - http://www.bohemiancoding.com/sketch -->
    <title>Fill 33 + Fill 34 Copy 2</title>
    <desc>Created with Sketch.</desc>
    <defs></defs>
    <g id="Page-1" stroke="none" stroke-width="1" fill="none" fill-rule="evenodd" sketch:type="MSPage">
        <g id="Desktop-HD" sketch:type="MSArtboardGroup" transform="translate(-2049.000000, -1256.000000)" fill="#69B385">
            <g id="Fill-33-+-Fill-34-Copy-2" sketch:type="MSLayerGroup" transform="translate(2049.000000, 1256.000000)">
                <path d="M40.1644444,2.92222222 C60.5777778,2.92222222 77.1844444,19.5296296 77.1844444,39.942963 L77.1844444,40.7355556 C77.1844444,61.1481481 60.5777778,77.7555556 40.1644444,77.7555556 L39.3703704,77.7555556 C18.9592593,77.7555556 2.35185185,61.1481481 2.35185185,40.7355556 L2.35185185,39.942963 C2.35185185,19.5296296 18.9592593,2.92222222 39.3703704,2.92222222 L40.1644444,2.92222222 M40.1644444,0.7 L39.3703704,0.7 C17.6985185,0.7 0.12962963,18.2696296 0.12962963,39.942963 L0.12962963,40.7355556 C0.12962963,62.4081481 17.6985185,79.9777778 39.3703704,79.9777778 L40.1644444,79.9777778 C61.8377778,79.9777778 79.4066667,62.4081481 79.4066667,40.7355556 L79.4066667,39.942963 C79.4066667,18.2696296 61.8377778,0.7 40.1644444,0.7" id="Fill-33" sketch:type="MSShapeGroup"></path>
            </g>
        </g>
    </g>
</svg>