<?xml version="1.0" encoding="UTF-8" standalone="no"?>
<svg width="41px" height="45px" viewBox="0 0 41 45" version="1.1" xmlns="http://www.w3.org/2000/svg" xmlns:xlink="http://www.w3.org/1999/xlink" xmlns:sketch="http://www.bohemiancoding.com/sketch/ns">
    <!-- Generator: Sketch 3.3.3 (12081) - http://www.bohemiancoding.com/sketch -->
    <title>finger</title>
    <desc>Created with Sketch.</desc>
    <defs></defs>
    <g id="Page-1" stroke="none" stroke-width="1" fill="none" fill-rule="evenodd" sketch:type="MSPage">
        <g id="Desktop-HD" sketch:type="MSArtboardGroup" transform="translate(-696.000000, -1676.000000)" stroke="#000000" stroke-width="2" stroke-linecap="round" stroke-linejoin="round">
            <path d="M708,1715 L708,1693 C708,1691.066 709.567,1689.5 711.5,1689.5 C713.433,1689.5 715,1691.066 715,1693 L715,1719 M715,1714 L715,1720 L715,1712.5 C715,1710.567 716.567,1709 718.5,1709 C720.433,1709 722,1710.567 722,1712.5 L722,1716 M722,1714 L722,1718 L722,1712.5 C722,1710.567 723.567,1709 725.5,1709 C727.433,1709 729,1710.567 729,1712.5 L729,1720 L729,1714.5 C729,1712.566 730.567,1711 732.5,1711 C734.433,1711 736,1712.566 736,1714.5 L736,1718 M703,1715 L708,1712 M718.001,1703.127 C722.185,1700.706 725,1696.182 725,1691 C725,1683.268 718.732,1677 711,1677 C703.268,1677 697,1683.268 697,1691 C697,1696.586 700.272,1701.408 705.003,1703.653 M718.984,1692 C718.995,1691.835 719,1691.668 719,1691.5 C719,1687.358 715.643,1684 711.5,1684 C707.358,1684 704,1687.358 704,1691.5" id="finger" sketch:type="MSShapeGroup"></path>
        </g>
    </g>
</svg>