<?xml version="1.0" encoding="UTF-8" standalone="no"?>
<svg width="44px" height="21px" viewBox="0 0 44 21" version="1.1" xmlns="http://www.w3.org/2000/svg" xmlns:xlink="http://www.w3.org/1999/xlink" xmlns:sketch="http://www.bohemiancoding.com/sketch/ns">
    <!-- Generator: Sketch 3.3.3 (12081) - http://www.bohemiancoding.com/sketch -->
    <title>Imported Layers Copy 3</title>
    <desc>Created with Sketch.</desc>
    <defs></defs>
    <g id="Page-1" stroke="none" stroke-width="1" fill="none" fill-rule="evenodd" sketch:type="MSPage">
        <g id="Desktop-HD" sketch:type="MSArtboardGroup" transform="translate(-2066.000000, -1286.000000)" stroke="#69B385" stroke-width="2">
            <path d="M2067.196,1303 L2067.196,1287 L2074.196,1287 L2074.196,1296 L2070.196,1296 M2107.196,1286 L2107.196,1297 L2107.196,1296 M2100.196,1297 L2100.196,1286 M2097.196,1296 L2089.196,1296 L2089.196,1287 L2097.196,1287 M2078.196,1297 L2078.196,1287 L2085.196,1287 L2085.196,1292 M2086,1291 L2079,1291 M2091,1291 L2098,1291 M2100.333,1287.137 L2107.196,1296 M2067,1303 L2109,1303 M2104.196,1300 L2108.196,1303 L2104.196,1306" id="Imported-Layers-Copy-3" sketch:type="MSShapeGroup"></path>
        </g>
    </g>
</svg>