<?xml version="1.0" encoding="UTF-8" standalone="no"?>
<svg width="44px" height="21px" viewBox="0 0 44 21" version="1.1" xmlns="http://www.w3.org/2000/svg" xmlns:xlink="http://www.w3.org/1999/xlink" xmlns:sketch="http://www.bohemiancoding.com/sketch/ns">
    <!-- Generator: Sketch 3.3.3 (12081) - http://www.bohemiancoding.com/sketch -->
    <title>Imported Layers Copy</title>
    <desc>Created with Sketch.</desc>
    <defs></defs>
    <g id="Page-1" stroke="none" stroke-width="1" fill="none" fill-rule="evenodd" sketch:type="MSPage">
        <g id="Desktop-HD" sketch:type="MSArtboardGroup" transform="translate(-1684.000000, -1804.000000)" stroke="#000000" stroke-width="2">
            <path d="M1685.196,1821 L1685.196,1805 L1692.196,1805 L1692.196,1814 L1688.196,1814 M1725.196,1804 L1725.196,1815 L1725.196,1814 M1718.196,1815 L1718.196,1804 M1715.196,1814 L1707.196,1814 L1707.196,1805 L1715.196,1805 M1696.196,1815 L1696.196,1805 L1703.196,1805 L1703.196,1810 M1704,1809 L1697,1809 M1709,1809 L1716,1809 M1718.333,1805.137 L1725.196,1814 M1685,1821 L1727,1821 M1722.196,1818 L1726.196,1821 L1722.196,1824" id="Imported-Layers-Copy" sketch:type="MSShapeGroup"></path>
        </g>
    </g>
</svg>