<svg viewBox="0 0 92 68" version="1.1" xmlns="http://www.w3.org/2000/svg" xmlns:xlink="http://www.w3.org/1999/xlink"><title>rideshare</title><g fill="none" fill-rule="evenodd"><g id="rideshare" fill="#FFFFFF"><g><circle cx="20.492" cy="44.324" r="4.5"></circle><path d="M43.674,0.114 L43.674,8.825 L30.688,8.825 C24.54,8.825 18.102,13.36 15.969,19.356 L12.992,28.825 C6.441,28.825 0.992,33.971 0.992,40.522 L0.992,47.825 C0.992,54.376 6.441,59.825 12.992,59.825 L15.992,59.825 L15.992,67.887 L24.992,67.887 L24.992,59.825 L43.674,59.825 L43.674,67.887 L48.311,67.887 L48.311,0.114 L43.674,0.114 L43.674,0.114 Z M21.871,21.237 C23.053,17.926 27.476,14.825 30.992,14.825 L43.674,14.825 L43.674,28.825 L19.992,28.825 L21.871,21.237 L21.871,21.237 Z M12.992,53.824 C9.857,53.824 6.992,50.959 6.992,47.824 L6.992,40.824 C6.992,37.689 9.857,34.824 12.992,34.824 L43.674,34.83 L43.674,53.824 L12.992,53.824 L12.992,53.824 Z"></path></g><path d="M63.677,17.469 C62.396,17.469 61.359,18.508 61.359,19.787 C61.359,21.068 62.396,22.105 63.677,22.105 L80.292,22.105 C81.573,22.105 82.608,21.068 82.608,19.787 C82.608,18.508 81.573,17.469 80.292,17.469 L63.677,17.469 L63.677,17.469 Z"></path><path d="M63.677,26.744 C62.396,26.744 61.359,27.781 61.359,29.062 C61.359,30.341 62.396,31.38 63.677,31.38 L80.292,31.38 C81.573,31.38 82.608,30.341 82.608,29.062 C82.608,27.781 81.573,26.744 80.292,26.744 L63.677,26.744 L63.677,26.744 Z"></path><path d="M63.677,36.018 C62.396,36.018 61.359,37.055 61.359,38.336 C61.359,39.615 62.396,40.654 63.677,40.654 L70.825,40.654 C72.106,40.654 73.141,39.615 73.141,38.336 C73.141,37.055 72.106,36.018 70.825,36.018 L63.677,36.018 L63.677,36.018 Z"></path><path d="M86.755,8.825 L57.213,8.825 C54.874,8.825 52.961,10.738 52.961,13.077 L52.963,55.641 C52.963,57.979 54.876,59.893 57.215,59.893 L86.755,59.893 C89.093,59.893 91.007,57.979 91.007,55.641 L91.007,13.077 C91.007,10.738 89.093,8.825 86.755,8.825 L86.755,8.825 Z M86.37,53.701 C86.37,54.482 85.732,55.119 84.952,55.119 L59.017,55.119 C58.237,55.119 57.599,54.482 57.599,53.701 L57.599,14.878 C57.599,14.098 58.237,13.461 59.017,13.461 L84.953,13.461 C85.733,13.461 86.371,14.098 86.371,14.878 L86.371,53.701 L86.37,53.701 Z"></path></g></g></svg>