<svg viewBox="0 0 98 50" version="1.1" xmlns="http://www.w3.org/2000/svg" xmlns:xlink="http://www.w3.org/1999/xlink">
    <g fill="none" fill-rule="evenodd">
        <g fill="#FFFFFF">
            <path d="M94.735,37.512 C93.831,26.326 85.482,23.304 85.482,23.304 L84.377,7.235 C85.079,7.105 85.608,6.493 85.608,5.756 C85.608,4.924 84.934,4.25 84.102,4.25 L52.164,4.25 L22.566,11.344 C21.968,11.547 21.528,12.092 21.528,12.759 C21.528,13.591 22.204,14.267 23.036,14.267 C23.137,14.267 23.229,14.237 23.321,14.212 L23.321,43.172 L25.695,43.172 L25.695,41.965 C25.695,38.239 28.398,35.204 31.72,35.204 C32.14,35.204 32.551,35.252 32.947,35.344 C32.823,35.336 32.7,35.324 32.572,35.324 C29.644,35.324 27.262,38.022 27.262,41.343 L27.262,43.332 C27.262,46.652 29.643,49.352 32.572,49.352 C35.497,49.352 37.874,46.653 37.874,43.332 L37.874,43.172 L46.759,43.172 L46.759,41.375 C46.759,37.405 49.634,34.177 53.162,34.177 C53.547,34.177 53.92,34.221 54.287,34.298 C51.249,34.43 48.817,37.265 48.817,40.737 L48.817,42.886 C48.817,46.448 51.365,49.342 54.505,49.342 C57.553,49.342 60.043,46.6 60.176,43.171 L81.507,43.171 L81.507,43.6 C81.507,47.021 83.919,49.784 86.901,49.784 C89.875,49.784 92.287,47.021 92.287,43.6 L92.287,43.17 L94.461,43.17 C96.089,43.17 97.412,41.899 97.412,40.331 C97.412,38.851 96.235,37.647 94.735,37.512 L94.735,37.512 Z M32.569,42.601 C32.569,43.816 31.825,44.798 30.91,44.798 C29.991,44.798 29.25,43.816 29.25,42.601 L29.25,42.072 C29.25,40.856 29.991,39.874 30.91,39.874 C31.825,39.874 32.569,40.856 32.569,42.072 L32.569,42.601 L32.569,42.601 Z M54.502,42.099 C54.502,43.411 53.698,44.469 52.714,44.469 C51.722,44.469 50.919,43.41 50.919,42.099 L50.919,41.526 C50.919,40.214 51.722,39.156 52.714,39.156 C53.698,39.156 54.502,40.215 54.502,41.526 L54.502,42.099 L54.502,42.099 Z M64.329,36.537 C62.695,36.537 61.367,35.21 61.367,33.573 C61.367,31.937 62.695,30.61 64.329,30.61 C65.967,30.61 67.295,31.937 67.295,33.573 C67.295,35.21 65.967,36.537 64.329,36.537 L64.329,36.537 Z M54.759,21.646 L54.102,10.51 L69.034,10.51 L69.723,21.647 L54.759,21.647 L54.759,21.646 Z M82.389,10.51 L83.08,21.647 L71.267,21.647 L70.382,10.51 L82.389,10.51 L82.389,10.51 Z M71.331,35.839 L70.819,31.268 L72.337,31.268 L72.849,35.839 L71.331,35.839 L71.331,35.839 Z M74.005,35.839 L73.492,31.268 L75.004,31.268 L75.52,35.839 L74.005,35.839 L74.005,35.839 Z M76.676,35.839 L76.159,31.268 L77.677,31.268 L78.19,35.839 L76.676,35.839 L76.676,35.839 Z M79.345,35.839 L78.831,31.268 L80.346,31.268 L80.859,35.839 L79.345,35.839 L79.345,35.839 Z M82.016,35.839 L81.502,31.268 L83.016,31.268 L83.528,35.839 L82.016,35.839 L82.016,35.839 Z M89.144,36.537 C87.507,36.537 86.184,35.21 86.184,33.573 C86.184,31.937 87.507,30.61 89.144,30.61 C90.782,30.61 92.107,31.937 92.107,33.573 C92.106,35.21 90.781,36.537 89.144,36.537 L89.144,36.537 Z"></path>
            <path d="M29.816,7.108 L23.036,6.937 L24.383,9.446 L30.668,7.99 L29.816,7.108 Z"></path>
            <path d="M40.045,3.939 L29.879,3.939 L32.045,7.651 L41.633,5.416 L40.045,3.939 Z"></path>
            <path d="M55.457,2.889 L53.219,0.003 L39.96,0.176 L42.65,5.194 L51.848,2.912 L55.457,2.889 Z"></path>
            <g transform="translate(0.000000, 17.000000)">
                <path d="M0.587,6.513 L20.768,3.922 L20.768,0.518 L0.587,6.513 Z"></path>
                <path d="M2.717,10.465 L20.768,8.318 L20.768,5.276 L2.717,10.465 Z"></path>
                <path d="M4.851,14.416 L20.768,12.716 L20.768,10.033 L4.851,14.416 Z"></path>
                <path d="M6.983,18.37 L20.768,17.111 L20.768,14.789 L6.983,18.37 Z"></path>
                <path d="M9.115,22.32 L20.768,21.51 L20.768,19.545 L9.115,22.32 Z"></path>
            </g>
        </g>
    </g>
</svg>