<?xml version="1.0" encoding="utf-8"?>
<!-- Generator: Adobe Illustrator 16.0.0, SVG Export Plug-In . SVG Version: 6.00 Build 0)  -->
<!DOCTYPE svg PUBLIC "-//W3C//DTD SVG 1.1//EN" "http://www.w3.org/Graphics/SVG/1.1/DTD/svg11.dtd">
<svg version="1.1" id="Layer_1" xmlns="http://www.w3.org/2000/svg" xmlns:xlink="http://www.w3.org/1999/xlink" x="0px" y="0px"
	 width="64px" height="64px" viewBox="0 0 64 64" enable-background="new 0 0 64 64" xml:space="preserve">
<g>
	<defs>
		<rect id="SVGID_1_" x="1.25" y="1.25" width="61.5" height="61.5"/>
	</defs>
	<clipPath id="SVGID_2_">
		<use xlink:href="#SVGID_1_"  overflow="visible"/>
	</clipPath>
	<path clip-path="url(#SVGID_2_)" d="M32,62.75c-1.278,0-2.57-0.082-3.84-0.24c-1.707-0.214-2.993-1.672-2.993-3.392V55.43
		c0-0.313-0.179-0.558-0.477-0.653c-1.242-0.396-2.463-0.9-3.627-1.501c-0.276-0.141-0.58-0.094-0.799,0.124l-2.608,2.609
		c-0.646,0.647-1.505,1.004-2.416,1.004c-0.755,0-1.5-0.257-2.101-0.723c-2.024-1.576-3.853-3.403-5.428-5.43
		c-1.057-1.357-0.937-3.297,0.28-4.515l2.609-2.609c0.221-0.221,0.268-0.519,0.124-0.798c-0.598-1.16-1.103-2.38-1.502-3.628
		c-0.096-0.298-0.34-0.478-0.653-0.478H4.882c-1.721,0-3.179-1.287-3.393-2.994c-0.318-2.548-0.318-5.132,0-7.68
		c0.214-1.706,1.672-2.993,3.393-2.993H8.57c0.312,0,0.557-0.179,0.652-0.477c0.397-1.246,0.903-2.466,1.501-3.629
		c0.144-0.277,0.098-0.576-0.123-0.796l-2.609-2.609c-1.217-1.217-1.338-3.159-0.282-4.515c1.577-2.029,3.403-3.855,5.43-5.431
		c0.6-0.467,1.345-0.724,2.1-0.724c0.911,0,1.77,0.357,2.417,1.005l2.607,2.607c0.219,0.22,0.522,0.269,0.799,0.126
		c1.16-0.599,2.381-1.104,3.626-1.503c0.301-0.095,0.479-0.34,0.479-0.652V4.881c0-1.722,1.286-3.179,2.993-3.392
		c2.539-0.32,5.145-0.318,7.68,0c1.706,0.213,2.994,1.67,2.994,3.392v3.688c0,0.313,0.179,0.558,0.477,0.652
		c1.245,0.398,2.466,0.904,3.628,1.503c0.276,0.142,0.579,0.094,0.799-0.126l2.607-2.608c0.648-0.647,1.507-1.004,2.417-1.004
		c0.754,0,1.499,0.257,2.1,0.723c2.026,1.575,3.854,3.402,5.43,5.43c1.057,1.357,0.934,3.299-0.281,4.517l-2.608,2.607
		c-0.222,0.222-0.27,0.521-0.126,0.798c0.598,1.16,1.102,2.381,1.502,3.629c0.096,0.299,0.34,0.478,0.652,0.478h3.688
		c1.722,0,3.179,1.287,3.392,2.993c0.321,2.55,0.321,5.132,0,7.68c-0.212,1.707-1.67,2.994-3.391,2.994h-3.688
		c-0.313,0-0.557,0.18-0.653,0.478c-0.396,1.241-0.901,2.463-1.501,3.626c-0.143,0.28-0.097,0.578,0.125,0.799l2.609,2.608
		c1.216,1.217,1.337,3.157,0.281,4.516c-1.576,2.025-3.402,3.853-5.43,5.43c-0.6,0.466-1.345,0.723-2.1,0.723
		c-0.911,0-1.77-0.355-2.417-1.004l-2.607-2.609c-0.22-0.219-0.521-0.268-0.798-0.123c-1.164,0.598-2.385,1.103-3.629,1.5
		c-0.299,0.097-0.478,0.341-0.478,0.653v3.688c0,1.721-1.288,3.179-2.993,3.393C34.572,62.668,33.279,62.75,32,62.75 M20.738,50.459
		c0.542,0,1.086,0.134,1.573,0.386c1.032,0.53,2.112,0.978,3.212,1.329c1.421,0.455,2.377,1.765,2.377,3.255v3.688
		c0,0.351,0.253,0.637,0.601,0.68c2.312,0.29,4.688,0.29,7,0c0.348-0.043,0.601-0.329,0.601-0.679V55.43
		c0-1.491,0.953-2.801,2.374-3.255c1.104-0.354,2.183-0.8,3.214-1.329c1.306-0.671,2.943-0.415,3.98,0.623l2.608,2.607
		c0.13,0.131,0.303,0.203,0.482,0.203c0.105,0,0.266-0.025,0.423-0.147c1.849-1.438,3.515-3.104,4.948-4.949
		c0.215-0.276,0.192-0.658-0.055-0.904l-2.609-2.609c-1.055-1.055-1.306-2.654-0.623-3.98c0.529-1.032,0.978-2.11,1.329-3.212
		c0.457-1.422,1.765-2.377,3.256-2.377h3.688c0.351,0,0.638-0.253,0.68-0.601c0.292-2.322,0.292-4.678,0-6.999
		c-0.042-0.348-0.329-0.601-0.679-0.601h-3.688c-1.492,0-2.8-0.955-3.255-2.376c-0.354-1.105-0.803-2.187-1.329-3.212
		c-0.682-1.326-0.434-2.927,0.622-3.981l2.608-2.608c0.248-0.249,0.271-0.628,0.056-0.904c-1.438-1.848-3.103-3.514-4.949-4.95
		c-0.156-0.121-0.315-0.147-0.422-0.147c-0.181,0-0.352,0.073-0.483,0.202l-2.608,2.609c-1.04,1.039-2.677,1.294-3.98,0.623
		c-1.029-0.529-2.108-0.977-3.212-1.329c-1.421-0.455-2.376-1.764-2.376-3.256V4.881c0-0.351-0.253-0.637-0.601-0.681
		c-2.312-0.289-4.688-0.289-7.001,0c-0.347,0.043-0.6,0.33-0.6,0.681v3.688c0,1.493-0.956,2.801-2.377,3.256
		c-1.103,0.353-2.183,0.801-3.212,1.329c-1.306,0.672-2.941,0.415-3.98-0.622l-2.608-2.61C15.591,9.793,15.42,9.72,15.239,9.72
		c-0.106,0-0.266,0.024-0.422,0.146c-1.847,1.437-3.513,3.103-4.951,4.951c-0.214,0.274-0.19,0.655,0.057,0.904l2.609,2.608
		c1.055,1.057,1.304,2.655,0.623,3.981c-0.529,1.029-0.978,2.108-1.331,3.212c-0.453,1.421-1.761,2.376-3.254,2.376H4.883
		c-0.351,0-0.637,0.252-0.68,0.601c-0.291,2.321-0.291,4.677,0,6.999C4.246,35.847,4.531,36.1,4.882,36.1H8.57
		c1.493,0,2.801,0.955,3.258,2.376c0.352,1.104,0.799,2.185,1.327,3.212c0.684,1.326,0.434,2.926-0.622,3.981l-2.609,2.606
		c-0.246,0.249-0.27,0.63-0.057,0.906c1.438,1.849,3.104,3.515,4.95,4.95c0.157,0.121,0.316,0.147,0.422,0.147
		c0.182,0,0.354-0.072,0.483-0.204l2.608-2.608C18.982,50.817,19.837,50.459,20.738,50.459 M32,43.617
		c-3.103,0-6.02-1.209-8.214-3.403c-2.193-2.195-3.403-5.111-3.403-8.214c0-3.104,1.21-6.021,3.403-8.215
		c2.194-2.194,5.111-3.403,8.214-3.403c3.104,0,6.021,1.209,8.215,3.403c2.193,2.193,3.403,5.11,3.403,8.215
		c0,3.103-1.21,6.021-3.403,8.214C38.021,42.408,35.104,43.617,32,43.617 M32,23.116c-2.373,0-4.604,0.925-6.281,2.602
		c-1.678,1.678-2.603,3.908-2.603,6.282c0,2.372,0.925,4.604,2.603,6.28c1.678,1.679,3.908,2.603,6.281,2.603
		c2.374,0,4.604-0.924,6.282-2.603c1.677-1.677,2.603-3.908,2.603-6.28c0-2.374-0.926-4.604-2.603-6.282
		C36.604,24.041,34.374,23.116,32,23.116"/>
</g>
</svg>
