<?xml version="1.0" encoding="utf-8"?>
<!-- Generator: Adobe Illustrator 16.0.0, SVG Export Plug-In . SVG Version: 6.00 Build 0)  -->
<!DOCTYPE svg PUBLIC "-//W3C//DTD SVG 1.1//EN" "http://www.w3.org/Graphics/SVG/1.1/DTD/svg11.dtd">
<svg version="1.1" id="Layer_1" xmlns="http://www.w3.org/2000/svg" xmlns:xlink="http://www.w3.org/1999/xlink" x="0px" y="0px"
	 width="64px" height="64px" viewBox="0 0 64 64" enable-background="new 0 0 64 64" xml:space="preserve">
<g>
	<g>
		<defs>
			<rect id="SVGID_1_" x="0.368" y="0.369" width="63.265" height="63.262"/>
		</defs>
		<clipPath id="SVGID_2_">
			<use xlink:href="#SVGID_1_"  overflow="visible"/>
		</clipPath>
		<path clip-path="url(#SVGID_2_)" d="M32.002,2.976c16.002,0,29.023,13.02,29.023,29.023c0,16.003-13.021,29.024-29.023,29.024
			c-16.005,0-29.025-13.021-29.025-29.024C2.977,15.995,15.997,2.976,32.002,2.976 M32.002,0.369
			c-17.472,0-31.634,14.16-31.634,31.63c0,17.472,14.162,31.632,31.634,31.632c17.471,0,31.631-14.16,31.631-31.632
			C63.633,14.529,49.473,0.369,32.002,0.369"/>
		<path clip-path="url(#SVGID_2_)" d="M20.921,25.762c0-1.72,0.259-3.287,0.775-4.694c0.516-1.411,1.268-2.614,2.254-3.619
			c0.986-1.001,2.176-1.776,3.568-2.323c1.393-0.549,2.95-0.823,4.674-0.823c1.438,0,2.774,0.211,4.013,0.635
			c1.238,0.423,2.316,1.032,3.242,1.831c0.92,0.798,1.65,1.793,2.182,2.98c0.533,1.193,0.799,2.537,0.799,4.041
			c0,1.096-0.119,2.042-0.352,2.841c-0.234,0.798-0.547,1.488-0.939,2.067c-0.393,0.578-0.838,1.095-1.338,1.55
			c-0.5,0.452-1.002,0.898-1.504,1.336c-0.594,0.501-1.143,0.986-1.645,1.457c-0.498,0.469-0.936,0.992-1.311,1.572
			c-0.377,0.58-0.67,1.26-0.873,2.043c-0.201,0.785-0.305,1.736-0.305,2.863h-5.07c0-1.375,0.071-2.541,0.211-3.498
			c0.14-0.955,0.367-1.791,0.681-2.512c0.313-0.718,0.695-1.354,1.149-1.9c0.455-0.55,0.994-1.088,1.622-1.622
			c0.5-0.438,0.977-0.845,1.434-1.222c0.451-0.375,0.857-0.788,1.219-1.245c0.359-0.452,0.641-0.961,0.844-1.525
			c0.205-0.562,0.305-1.236,0.305-2.018c0-0.941-0.162-1.745-0.494-2.42c-0.326-0.672-0.723-1.214-1.195-1.619
			c-0.471-0.409-0.969-0.705-1.504-0.893c-0.531-0.188-1-0.281-1.407-0.281c-1.941,0-3.375,0.634-4.297,1.901
			c-0.923,1.266-1.385,2.966-1.385,5.095H20.921z M28.389,42.762h6.291v5.869h-6.291V42.762z"/>
	</g>
</g>
</svg>
