<?xml version="1.0" encoding="utf-8"?>
<!-- Generator: Adobe Illustrator 16.0.0, SVG Export Plug-In . SVG Version: 6.00 Build 0)  -->
<!DOCTYPE svg PUBLIC "-//W3C//DTD SVG 1.1//EN" "http://www.w3.org/Graphics/SVG/1.1/DTD/svg11.dtd">
<svg version="1.1" id="Layer_1" xmlns="http://www.w3.org/2000/svg" xmlns:xlink="http://www.w3.org/1999/xlink" x="0px" y="0px"
	 width="64px" height="64px" viewBox="0 0 64 64" enable-background="new 0 0 64 64" xml:space="preserve">
<g>
	<path fill="#E5753C" d="M32.311,2.702c15.984,0,28.986,13.004,28.986,28.988v0.62c0,15.982-13.002,28.986-28.986,28.986H31.69
		c-15.984,0-28.987-13.004-28.987-28.986v-0.62c0-15.984,13.003-28.988,28.987-28.988H32.311 M32.311,0.963H31.69
		C14.72,0.963,0.962,14.72,0.962,31.69v0.62c0,16.969,13.758,30.727,30.728,30.727h0.621c16.968,0,30.726-13.758,30.726-30.727
		v-0.62C63.037,14.72,49.279,0.963,32.311,0.963"/>
	<path fill="#E5753C" d="M26.385,51.161c0.651,0,1.179-0.441,1.179-1.089l-0.036-0.6l-0.919-18.715c0-0.906,0.706-1.7,1.617-1.842
		l0-0.001c0.924-0.104,1.614-0.902,1.614-1.854V15.71v-0.031v-1.932c0-0.503-0.424-0.91-0.927-0.91c-0.502,0-0.924,0.407-0.924,0.91
		v0.691v8.248c0,0.516-0.326,0.933-0.841,0.933c-0.516,0-1.007-0.417-1.007-0.933l-0.1-7.514v-1.426c0-0.503-0.179-0.91-0.682-0.91
		h-0.438c-0.502,0-0.681,0.407-0.681,0.91v1.424l-0.1,7.516c0,0.515-0.492,0.933-1.008,0.933c-0.515,0-0.84-0.418-0.84-0.933v-8.248
		v-0.691c0-0.503-0.422-0.91-0.924-0.91c-0.504,0-0.927,0.407-0.927,0.91v1.932v0.032v11.351c0,0.952,0.691,1.75,1.614,1.854
		l0.001,0.001c0.917,0.173,1.617,0.935,1.617,1.841l-0.918,18.716l-0.037,0.599c0,0.648,0.529,1.09,1.179,1.09"/>
	<path fill="#E5753C" d="M43.51,49.506l-1.066-36.106c-0.008-0.24-0.217-0.421-0.457-0.402c-2.289,0.183-4.156,1.974-4.182,4.312
		l-0.197,17.138l2.494,0.029l-0.914,15.042l-0.043,0.567c-0.008,0.648,0.516,1.08,1.166,1.088l2.072,0.018
		c0.65,0.006,1.166-0.434,1.174-1.082L43.51,49.506z"/>
</g>
</svg>
