<?xml version="1.0" encoding="utf-8"?>
<!-- Generator: Adobe Illustrator 16.0.0, SVG Export Plug-In . SVG Version: 6.00 Build 0)  -->
<!DOCTYPE svg PUBLIC "-//W3C//DTD SVG 1.1//EN" "http://www.w3.org/Graphics/SVG/1.1/DTD/svg11.dtd">
<svg version="1.1" id="Layer_1" xmlns="http://www.w3.org/2000/svg" xmlns:xlink="http://www.w3.org/1999/xlink" x="0px" y="0px"
	 width="64px" height="64px" viewBox="0 0 64 64" enable-background="new 0 0 64 64" xml:space="preserve">
<g>
	<path fill="#65A6D1" d="M32.316,63.601h-0.633c-17.277,0-31.284-14.007-31.284-31.284v-0.633c0-17.277,14.007-31.284,31.284-31.284
		h0.633c17.277,0,31.284,14.007,31.284,31.284v0.633C63.601,49.594,49.594,63.601,32.316,63.601"/>
	<path fill="#FFFFFF" d="M21.732,25.043l21.901,2.041l-1.562,8.597H24.614L21.732,25.043 M42.543,41.962
		c0.146,0,0.263,0.119,0.263,0.265s-0.117,0.265-0.263,0.265c-0.142,0-0.239-0.109-0.259-0.211l-0.015-0.074l0.023-0.066
		C42.316,42.073,42.394,41.962,42.543,41.962 M19.125,19.109h-3.87v1.668h2.836l4.651,17.177l-0.795,1.689
		c-1.155,0.289-2.013,1.336-2.013,2.583c0,1.47,1.194,2.664,2.665,2.664c1.296,0,2.377-0.927,2.615-2.153h14.714h-0.002
		c0.238,1.227,1.319,2.153,2.616,2.153c1.472,0,2.663-1.194,2.663-2.664c0-1.472-1.191-2.664-2.663-2.664
		c-1.165,0-2.156,0.747-2.519,1.79h0.002h-14.91h0.001c-0.251-0.723-0.805-1.306-1.511-1.594h-0.001l0.711-1.678h19.758l2.39-13.144
		l-26.41-2.462L19.125,19.109z M46.466,24.93l-0.002,0.008h0.002V24.93z"/>
</g>
</svg>
