<?xml version="1.0" encoding="utf-8"?>
<!-- Generator: Adobe Illustrator 16.0.0, SVG Export Plug-In . SVG Version: 6.00 Build 0)  -->
<!DOCTYPE svg PUBLIC "-//W3C//DTD SVG 1.1//EN" "http://www.w3.org/Graphics/SVG/1.1/DTD/svg11.dtd">
<svg version="1.1" id="Layer_1" xmlns="http://www.w3.org/2000/svg" xmlns:xlink="http://www.w3.org/1999/xlink" x="0px" y="0px"
	 width="64px" height="64px" viewBox="0 0 64 64" enable-background="new 0 0 64 64" xml:space="preserve">
<g>
	<path fill="#DB1988" d="M32.316,63.6h-0.631C14.406,63.6,0.4,49.594,0.4,32.316v-0.631C0.4,14.406,14.406,0.4,31.685,0.4h0.631
		C49.594,0.4,63.6,14.406,63.6,31.685v0.631C63.6,49.594,49.594,63.6,32.316,63.6"/>
	<path fill="#FFFFFF" d="M44.458,32.084c4.267-4.034,6.374-7.978,5.024-10.295c-0.744-1.278-2.439-1.889-4.756-1.889
		c-1.852,0-4.113,0.412-6.589,1.162c-0.22-0.933-0.469-1.808-0.741-2.631c0.527-0.492,0.859-1.186,0.859-1.962
		c0-1.488-1.205-2.694-2.693-2.694c-0.133,0-0.261,0.02-0.387,0.039c-1.02-1.393-2.166-2.194-3.385-2.194
		c-2.672,0-5.013,3.776-6.352,9.458c-2.472-0.746-4.733-1.156-6.583-1.156c-2.328,0-4.03,0.613-4.775,1.898
		c-1.347,2.32,0.767,6.259,5.042,10.286c-0.533,0.503-1.045,1.005-1.506,1.504c-0.822-0.524-1.896-0.599-2.8-0.075
		c-1.288,0.742-1.731,2.391-0.986,3.68c0.17,0.295,0.394,0.541,0.642,0.742c-0.862,1.754-1.044,3.301-0.376,4.445
		c0.745,1.278,2.442,1.889,4.756,1.889c1.853,0,4.114-0.412,6.589-1.164c1.341,5.675,3.68,9.444,6.349,9.444
		c2.672,0,5.012-3.776,6.352-9.46c1.197,0.361,2.34,0.646,3.412,0.839c0.15,0.728,0.588,1.394,1.283,1.796
		c1.287,0.742,2.936,0.301,3.678-0.988c0.13-0.222,0.211-0.456,0.271-0.695c1.267-0.273,2.214-0.826,2.714-1.691
		C50.844,40.053,48.731,36.111,44.458,32.084 M44.727,21.517c1.731,0,2.957,0.397,3.357,1.087c0.611,1.05-0.309,3.318-2.346,5.786
		c-0.717,0.867-1.557,1.742-2.482,2.61c-1.229-1.062-2.595-2.124-4.087-3.153c-0.144-1.835-0.382-3.575-0.69-5.193
		C40.816,21.932,42.973,21.517,44.727,21.517 M34.771,37.217c-0.986,0.576-1.982,1.098-2.976,1.596
		c-0.995-0.496-1.992-1.016-2.981-1.589c-1.008-0.585-1.944-1.18-2.841-1.778c-0.067-1.076-0.112-2.184-0.112-3.348
		c0-1.163,0.043-2.272,0.112-3.347c0.911-0.608,1.852-1.205,2.833-1.775c0.987-0.575,1.982-1.099,2.977-1.597
		c0.995,0.496,1.992,1.019,2.98,1.59c1.008,0.586,1.944,1.18,2.842,1.777c0.066,1.077,0.111,2.187,0.111,3.35
		c0,1.164-0.045,2.271-0.111,3.346C36.693,36.051,35.754,36.646,34.771,37.217 M37.438,37.488c-0.129,1.248-0.301,2.426-0.508,3.523
		c-1.073-0.382-2.175-0.824-3.291-1.324c0.647-0.344,1.297-0.693,1.947-1.072C36.221,38.247,36.834,37.868,37.438,37.488
		 M29.953,39.691c-1.119,0.502-2.223,0.949-3.301,1.336c-0.208-1.104-0.38-2.283-0.509-3.537c0.603,0.383,1.225,0.762,1.861,1.131
		C28.656,38.998,29.307,39.348,29.953,39.691 M24.289,34.274c-0.998-0.728-1.916-1.454-2.753-2.173
		c0.858-0.736,1.776-1.465,2.753-2.177c-0.028,0.714-0.042,1.438-0.042,2.173C24.246,32.832,24.261,33.557,24.289,34.274
		 M26.141,26.707c0.131-1.25,0.302-2.427,0.51-3.527c1.073,0.385,2.175,0.826,3.291,1.326c-0.647,0.342-1.297,0.693-1.949,1.072
		C27.359,25.946,26.744,26.324,26.141,26.707 M33.625,24.502c1.121-0.505,2.224-0.952,3.303-1.335
		c0.207,1.101,0.379,2.281,0.51,3.534c-0.604-0.384-1.225-0.761-1.861-1.131C34.924,25.194,34.273,24.843,33.625,24.502
		 M39.289,29.917c1,0.728,1.918,1.457,2.754,2.176c-0.858,0.734-1.777,1.462-2.752,2.175c0.026-0.715,0.042-1.438,0.042-2.172
		C39.333,31.359,39.316,30.635,39.289,29.917 M31.791,13.238c0.594,0,1.253,0.448,1.912,1.289c-0.514,0.49-0.836,1.179-0.836,1.944
		c0,1.487,1.207,2.694,2.693,2.694c0.123,0,0.238-0.021,0.355-0.037c0.244,0.75,0.469,1.562,0.675,2.438
		c-1.547,0.543-3.159,1.217-4.81,2.012c-1.644-0.789-3.254-1.458-4.797-1.998C28.217,16.311,30.23,13.238,31.791,13.238
		 M15.477,22.633c0.403-0.696,1.635-1.093,3.378-1.093c1.754,0,3.908,0.412,6.244,1.13c-0.311,1.616-0.547,3.352-0.688,5.185
		c-1.492,1.031-2.858,2.094-4.083,3.16C16.358,27.289,14.691,23.986,15.477,22.633 M18.852,42.674c-1.731,0-2.955-0.395-3.357-1.086
		c-0.371-0.637-0.17-1.725,0.494-3.031c0.514,0.033,1.043-0.078,1.523-0.354c1.173-0.678,1.633-2.104,1.145-3.327
		c0.513-0.562,1.07-1.122,1.667-1.684c1.228,1.065,2.594,2.124,4.086,3.153c0.144,1.835,0.379,3.576,0.69,5.193
		C22.763,42.26,20.608,42.674,18.852,42.674 M31.791,50.957c-1.56,0-3.569-3.07-4.803-8.332c1.547-0.543,3.159-1.218,4.809-2.012
		c1.645,0.79,3.255,1.461,4.797,2C35.361,47.88,33.349,50.957,31.791,50.957 M48.102,41.56c-0.227,0.392-0.725,0.687-1.424,0.872
		c-0.213-0.549-0.598-1.033-1.148-1.352c-1.287-0.746-2.936-0.305-3.68,0.986c-0.049,0.087-0.082,0.18-0.121,0.271
		c-1.021-0.188-2.111-0.465-3.247-0.814c0.312-1.615,0.547-3.354,0.688-5.186c1.492-1.032,2.856-2.094,4.083-3.158
		C47.223,36.904,48.888,40.205,48.102,41.56"/>
</g>
</svg>
