<?xml version="1.0" encoding="utf-8"?>
<!-- Generator: Adobe Illustrator 16.0.0, SVG Export Plug-In . SVG Version: 6.00 Build 0)  -->
<!DOCTYPE svg PUBLIC "-//W3C//DTD SVG 1.1//EN" "http://www.w3.org/Graphics/SVG/1.1/DTD/svg11.dtd">
<svg version="1.1" id="Layer_1" xmlns="http://www.w3.org/2000/svg" xmlns:xlink="http://www.w3.org/1999/xlink" x="0px" y="0px"
	 width="64px" height="64px" viewBox="0 0 64 64" enable-background="new 0 0 64 64" xml:space="preserve">
<g>
	<path fill="#59A9F7" d="M32.31,2.703c15.984,0,28.987,13.003,28.987,28.987v0.621c0,15.983-13.003,28.986-28.987,28.986h-0.62
		c-15.984,0-28.988-13.003-28.988-28.986V31.69c0-15.983,13.004-28.987,28.988-28.987H32.31 M32.31,0.963h-0.62
		C14.72,0.963,0.963,14.72,0.963,31.69v0.621c0,16.97,13.757,30.727,30.728,30.727h0.62c16.97,0,30.727-13.757,30.727-30.727V31.69
		C63.037,14.72,49.28,0.963,32.31,0.963"/>
	<path fill="#59A9F7" d="M21.087,24.469l23.067,2.151l-1.748,9.613H24.454h-0.181L21.087,24.469 M22.833,41.123l0.007,0.003
		l-0.948,0.947c0-0.01,0-0.02,0-0.029c0-0.402,0.271-0.752,0.659-0.85L22.833,41.123 M42.354,41.167
		c0.483,0,0.877,0.394,0.877,0.877s-0.394,0.877-0.877,0.877c-0.419,0-0.78-0.297-0.86-0.707l-0.046-0.234l0.078-0.225
		C41.629,41.464,41.923,41.167,42.354,41.167 M19.354,19.339h-3.8v1.638h2.785l4.569,16.873l-0.781,1.657
		c-1.135,0.285-1.976,1.312-1.976,2.537c0,1.445,1.171,2.617,2.616,2.617c1.273,0,2.335-0.91,2.569-2.115h14.451h-0.002
		c0.234,1.205,1.297,2.115,2.569,2.115c1.446,0,2.617-1.172,2.617-2.617s-1.171-2.616-2.617-2.616c-1.146,0-2.117,0.733-2.473,1.759
		H25.24v-0.001c-0.247-0.71-0.791-1.282-1.484-1.565l0.698-1.646h19.404l2.349-12.91l-25.94-2.418L19.354,19.339z M46.209,25.056
		l-0.002,0.008h0.002V25.056z"/>
</g>
</svg>
