<?xml version="1.0" encoding="utf-8"?>
<!-- Generator: Adobe Illustrator 16.0.0, SVG Export Plug-In . SVG Version: 6.00 Build 0)  -->
<!DOCTYPE svg PUBLIC "-//W3C//DTD SVG 1.1//EN" "http://www.w3.org/Graphics/SVG/1.1/DTD/svg11.dtd">
<svg version="1.1" id="Layer_1" xmlns="http://www.w3.org/2000/svg" xmlns:xlink="http://www.w3.org/1999/xlink" x="0px" y="0px"
	 width="64px" height="64px" viewBox="0 0 64 64" enable-background="new 0 0 64 64" xml:space="preserve">
<g>
	<path d="M32.31,2.703c15.984,0,28.988,13.003,28.988,28.987v0.621c0,15.982-13.004,28.986-28.988,28.986h-0.62
		c-15.984,0-28.987-13.004-28.987-28.986V31.69c0-15.983,13.003-28.987,28.987-28.987H32.31 M32.31,0.963h-0.62
		C14.72,0.963,0.963,14.72,0.963,31.69v0.621c0,16.968,13.757,30.726,30.728,30.726h0.619c16.971,0,30.728-13.758,30.728-30.726
		V31.69C63.037,14.72,49.279,0.963,32.31,0.963"/>
	<path d="M21.087,24.469l23.067,2.151l-1.747,9.612H24.454h-0.181L21.087,24.469 M22.833,41.123l0.007,0.003l-0.948,0.947
		c0-0.009,0-0.021,0-0.029c0-0.403,0.271-0.753,0.659-0.851L22.833,41.123 M42.354,41.168c0.484,0,0.877,0.393,0.877,0.876
		s-0.393,0.877-0.877,0.877c-0.418,0-0.78-0.297-0.858-0.707l-0.047-0.233l0.077-0.225C41.628,41.463,41.923,41.168,42.354,41.168
		 M19.354,19.339h-3.8v1.638h2.784l4.57,16.873l-0.782,1.656c-1.135,0.287-1.976,1.314-1.976,2.538c0,1.445,1.172,2.616,2.616,2.616
		c1.272,0,2.334-0.91,2.569-2.114h14.449h-0.001c0.234,1.204,1.296,2.114,2.568,2.114c1.445,0,2.617-1.171,2.617-2.616
		c0-1.444-1.172-2.616-2.617-2.616c-1.146,0-2.117,0.734-2.473,1.76H25.24v-0.002c-0.247-0.711-0.791-1.281-1.484-1.563l0.698-1.647
		h19.403l2.35-12.91l-25.939-2.418L19.354,19.339z M46.208,25.056l-0.001,0.008h0.001V25.056z"/>
</g>
</svg>
