<?xml version="1.0" encoding="utf-8"?>
<!-- Generator: Adobe Illustrator 16.0.0, SVG Export Plug-In . SVG Version: 6.00 Build 0)  -->
<!DOCTYPE svg PUBLIC "-//W3C//DTD SVG 1.1//EN" "http://www.w3.org/Graphics/SVG/1.1/DTD/svg11.dtd">
<svg version="1.1" id="Layer_1" xmlns="http://www.w3.org/2000/svg" xmlns:xlink="http://www.w3.org/1999/xlink" x="0px" y="0px"
	 width="64px" height="64px" viewBox="0 0 64 64" enable-background="new 0 0 64 64" xml:space="preserve">
<g>
	<path d="M32.315,63.6h-0.632c-17.277,0-31.284-14.006-31.284-31.285v-0.631C0.399,14.406,14.406,0.4,31.684,0.4h0.632
		c17.278,0,31.285,14.006,31.285,31.284v0.631C63.601,49.594,49.594,63.6,32.315,63.6"/>
	<path fill="#FFFFFF" d="M44.458,32.084c4.268-4.033,6.373-7.979,5.025-10.295c-0.746-1.278-2.441-1.889-4.757-1.889
		c-1.852,0-4.114,0.413-6.589,1.163c-0.221-0.933-0.469-1.808-0.74-2.631c0.525-0.491,0.859-1.186,0.859-1.961
		c0-1.489-1.207-2.694-2.694-2.694c-0.133,0-0.261,0.019-0.388,0.038c-1.019-1.392-2.166-2.194-3.385-2.194
		c-2.672,0-5.013,3.777-6.352,9.458c-2.472-0.746-4.732-1.156-6.583-1.156c-2.328,0-4.029,0.612-4.774,1.898
		c-1.347,2.32,0.767,6.259,5.042,10.286c-0.533,0.503-1.045,1.006-1.506,1.504c-0.822-0.523-1.897-0.598-2.801-0.074
		c-1.287,0.742-1.73,2.389-0.985,3.68c0.17,0.293,0.394,0.541,0.642,0.74c-0.862,1.756-1.043,3.303-0.376,4.445
		c0.745,1.279,2.442,1.889,4.756,1.889c1.854,0,4.114-0.412,6.589-1.164c1.341,5.676,3.68,9.445,6.349,9.445
		c2.672,0,5.014-3.775,6.352-9.461c1.197,0.361,2.342,0.648,3.413,0.84c0.149,0.729,0.587,1.395,1.282,1.795
		c1.288,0.742,2.937,0.303,3.679-0.986c0.13-0.223,0.211-0.457,0.271-0.695c1.268-0.273,2.214-0.828,2.714-1.691
		C50.844,40.053,48.731,36.111,44.458,32.084 M44.727,21.517c1.731,0,2.956,0.397,3.358,1.086c0.61,1.05-0.311,3.319-2.348,5.786
		c-0.715,0.867-1.557,1.742-2.48,2.611c-1.23-1.062-2.596-2.124-4.088-3.153c-0.145-1.836-0.381-3.575-0.691-5.194
		C40.815,21.931,42.972,21.517,44.727,21.517 M34.772,37.217c-0.988,0.574-1.983,1.098-2.978,1.596
		c-0.995-0.498-1.992-1.016-2.981-1.59c-1.008-0.584-1.943-1.18-2.841-1.777c-0.066-1.078-0.112-2.186-0.112-3.349
		c0-1.163,0.044-2.272,0.112-3.347c0.911-0.608,1.852-1.205,2.833-1.775c0.987-0.575,1.983-1.099,2.977-1.597
		c0.995,0.497,1.992,1.019,2.982,1.591c1.008,0.586,1.943,1.18,2.84,1.776c0.067,1.077,0.113,2.188,0.113,3.35
		c0,1.163-0.046,2.272-0.113,3.345C36.694,36.051,35.753,36.646,34.772,37.217 M37.438,37.486c-0.13,1.25-0.302,2.428-0.508,3.525
		c-1.073-0.383-2.175-0.824-3.29-1.324c0.646-0.344,1.297-0.695,1.946-1.072C36.22,38.246,36.835,37.867,37.438,37.486
		 M29.953,39.689c-1.119,0.504-2.224,0.951-3.302,1.336c-0.208-1.104-0.38-2.281-0.51-3.535c0.604,0.383,1.226,0.76,1.861,1.129
		C28.656,38.998,29.306,39.348,29.953,39.689 M24.289,34.273c-0.999-0.727-1.916-1.454-2.754-2.172
		c0.858-0.736,1.777-1.466,2.754-2.178c-0.028,0.714-0.043,1.438-0.043,2.173C24.245,32.833,24.261,33.555,24.289,34.273
		 M26.141,26.706c0.131-1.25,0.301-2.426,0.509-3.526c1.073,0.384,2.175,0.827,3.291,1.327c-0.647,0.342-1.297,0.692-1.948,1.072
		C27.359,25.946,26.743,26.323,26.141,26.706 M33.625,24.502c1.12-0.506,2.224-0.952,3.304-1.336
		c0.205,1.102,0.377,2.281,0.509,3.535c-0.604-0.385-1.226-0.761-1.86-1.131C34.923,25.193,34.273,24.843,33.625,24.502
		 M39.289,29.917c1,0.728,1.917,1.457,2.753,2.175c-0.857,0.735-1.776,1.463-2.752,2.174c0.027-0.713,0.043-1.437,0.043-2.171
		C39.333,31.359,39.315,30.634,39.289,29.917 M31.79,13.237c0.594,0,1.253,0.449,1.913,1.289c-0.515,0.491-0.836,1.18-0.836,1.944
		c0,1.487,1.206,2.695,2.694,2.695c0.121,0,0.236-0.022,0.354-0.038c0.244,0.75,0.469,1.562,0.676,2.439
		c-1.547,0.542-3.16,1.217-4.81,2.011c-1.645-0.789-3.255-1.458-4.797-1.997C28.217,16.311,30.229,13.237,31.79,13.237
		 M15.477,22.632c0.402-0.695,1.634-1.092,3.378-1.092c1.755,0,3.907,0.411,6.243,1.13c-0.311,1.615-0.547,3.352-0.688,5.184
		c-1.492,1.031-2.857,2.095-4.082,3.161C16.357,27.289,14.69,23.985,15.477,22.632 M18.852,42.674c-1.731,0-2.955-0.395-3.358-1.088
		c-0.37-0.635-0.17-1.725,0.494-3.031c0.514,0.033,1.044-0.078,1.523-0.352c1.173-0.68,1.633-2.104,1.146-3.328
		c0.512-0.562,1.07-1.123,1.667-1.684c1.228,1.066,2.594,2.123,4.086,3.152c0.144,1.836,0.38,3.578,0.69,5.195
		C22.762,42.258,20.607,42.674,18.852,42.674 M31.79,50.955c-1.56,0-3.568-3.07-4.803-8.33c1.547-0.543,3.159-1.219,4.81-2.014
		c1.644,0.791,3.255,1.461,4.797,2C35.36,47.879,33.348,50.955,31.79,50.955 M48.102,41.559c-0.227,0.393-0.726,0.688-1.423,0.873
		c-0.215-0.549-0.6-1.033-1.148-1.352c-1.288-0.746-2.937-0.305-3.68,0.984c-0.051,0.088-0.084,0.182-0.123,0.271
		c-1.021-0.188-2.11-0.463-3.246-0.812c0.311-1.615,0.547-3.354,0.688-5.188c1.492-1.031,2.855-2.092,4.082-3.156
		C47.222,36.904,48.888,40.205,48.102,41.559"/>
</g>
</svg>
