<?xml version="1.0" encoding="utf-8"?>
<!-- Generator: Adobe Illustrator 16.0.0, SVG Export Plug-In . SVG Version: 6.00 Build 0)  -->
<!DOCTYPE svg PUBLIC "-//W3C//DTD SVG 1.1//EN" "http://www.w3.org/Graphics/SVG/1.1/DTD/svg11.dtd">
<svg version="1.1" id="Layer_1" xmlns="http://www.w3.org/2000/svg" xmlns:xlink="http://www.w3.org/1999/xlink" x="0px" y="0px"
	 width="64px" height="64px" viewBox="0 0 64 64" enable-background="new 0 0 64 64" xml:space="preserve">
<g>
	<path fill="none" stroke="#000000" stroke-width="2" stroke-miterlimit="10" d="M32.294,61.387h-0.588
		c-16.067,0-29.093-13.025-29.093-29.093v-0.588c0-16.067,13.025-29.093,29.093-29.093h0.588c16.067,0,29.093,13.025,29.093,29.093
		v0.588C61.387,48.361,48.361,61.387,32.294,61.387z"/>
	<path d="M23.995,47.146c-1.961,0-3.848-0.777-5.218-2.182c-2.886-2.888-2.886-7.588,0-10.473L35.17,18.284
		c0.926-0.925,2.258-1.479,3.626-1.479c1.37,0,2.702,0.555,3.664,1.517c2.034,2.034,2.034,5.292,0,7.326L26.067,41.855
		c-0.556,0.556-1.296,0.852-2.072,0.852s-1.517-0.296-2.108-0.852c-1.147-1.148-1.147-3.035,0-4.183l8.251-8.066
		c0.296-0.296,0.777-0.296,1.035,0c0.298,0.297,0.298,0.777,0,1.036l-8.214,8.067c-0.555,0.556-0.555,1.517,0,2.072
		c0.296,0.296,0.666,0.444,1.036,0.444c0.407,0,0.776-0.148,1.036-0.444l16.393-16.208c1.443-1.442,1.443-3.774,0-5.217
		c-0.703-0.703-1.627-1.073-2.628-1.073c-0.999,0-1.923,0.37-2.627,1.073L19.814,35.564c-2.294,2.295-2.294,6.07,0,8.363
		c1.109,1.109,2.59,1.738,4.181,1.738s3.071-0.629,4.182-1.738l14.172-13.988c0.296-0.295,0.778-0.295,1.036,0
		c0.297,0.296,0.297,0.777,0,1.036L29.213,45.001C27.843,46.369,25.956,47.146,23.995,47.146"/>
</g>
</svg>
