<?xml version="1.0" encoding="utf-8"?>
<!-- Generator: Adobe Illustrator 16.0.0, SVG Export Plug-In . SVG Version: 6.00 Build 0)  -->
<!DOCTYPE svg PUBLIC "-//W3C//DTD SVG 1.1//EN" "http://www.w3.org/Graphics/SVG/1.1/DTD/svg11.dtd">
<svg version="1.1" id="Layer_1" xmlns="http://www.w3.org/2000/svg" xmlns:xlink="http://www.w3.org/1999/xlink" x="0px" y="0px"
	 width="64px" height="64px" viewBox="0 0 64 64" enable-background="new 0 0 64 64" xml:space="preserve">
<g>
	<g>
		<defs>
			<rect id="SVGID_1_" width="64" height="64"/>
		</defs>
		<clipPath id="SVGID_2_">
			<use xlink:href="#SVGID_1_"  overflow="visible"/>
		</clipPath>
		<path clip-path="url(#SVGID_2_)" fill="#B2B2B2" d="M31.999,4.083c15.396,0,27.919,12.522,27.919,27.916
			c0,15.396-12.523,27.919-27.919,27.919c-15.393,0-27.916-12.523-27.916-27.919C4.083,16.605,16.606,4.083,31.999,4.083
			 M31.999,1.573c-16.805,0-30.426,13.622-30.426,30.426c0,16.808,13.621,30.429,30.426,30.429
			c16.808,0,30.429-13.621,30.429-30.429C62.428,15.195,48.807,1.573,31.999,1.573"/>
		<path clip-path="url(#SVGID_2_)" fill="none" stroke="#B2B2B2" stroke-width="2" stroke-miterlimit="10" d="M31.999,4.083
			c15.396,0,27.919,12.522,27.919,27.916c0,15.396-12.523,27.919-27.919,27.919c-15.393,0-27.916-12.523-27.916-27.919
			C4.083,16.605,16.606,4.083,31.999,4.083 M31.999,1.573c-16.805,0-30.426,13.622-30.426,30.426
			c0,16.808,13.621,30.429,30.426,30.429c16.808,0,30.429-13.621,30.429-30.429C62.428,15.195,48.807,1.573,31.999,1.573z"/>
	</g>
	<g>
		<g>
			<defs>
				<rect id="SVGID_3_" x="26.336" y="11.555" width="20.021" height="33.002"/>
			</defs>
			<clipPath id="SVGID_4_">
				<use xlink:href="#SVGID_3_"  overflow="visible"/>
			</clipPath>
			<path clip-path="url(#SVGID_4_)" fill="#B2B2B2" d="M44.072,42.986c-0.269,0-1.715-0.088-1.943-0.27L27.908,32.329V14.367
				c0-0.685,0.889-1.241,1.573-1.241c0.685,0,1.573,0.556,1.573,1.241v16.766l12.952,9.641c0.537,0.428,1.046,1.209,0.615,1.745
				C44.379,42.824,44.439,42.986,44.072,42.986"/>
			<path clip-path="url(#SVGID_4_)" fill="none" stroke="#B2B2B2" stroke-width="2" stroke-miterlimit="10" d="M44.072,42.986
				c-0.269,0-1.715-0.088-1.943-0.27L27.908,32.329V14.367c0-0.685,0.889-1.241,1.573-1.241c0.685,0,1.573,0.556,1.573,1.241v16.766
				l12.952,9.641c0.537,0.428,1.046,1.209,0.615,1.745C44.379,42.824,44.439,42.986,44.072,42.986z"/>
		</g>
	</g>
</g>
</svg>
