<?xml version="1.0" encoding="utf-8"?>
<!-- Generator: Adobe Illustrator 16.0.0, SVG Export Plug-In . SVG Version: 6.00 Build 0)  -->
<!DOCTYPE svg PUBLIC "-//W3C//DTD SVG 1.1//EN" "http://www.w3.org/Graphics/SVG/1.1/DTD/svg11.dtd">
<svg version="1.1" id="Layer_1" xmlns="http://www.w3.org/2000/svg" xmlns:xlink="http://www.w3.org/1999/xlink" x="0px" y="0px"
	 width="64px" height="64px" viewBox="0 0 64 64" enable-background="new 0 0 64 64" xml:space="preserve">
<g>
	<path d="M32.315,63.547h-0.631c-17.248,0-31.231-13.982-31.231-31.233v-0.629c0-17.248,13.983-31.231,31.231-31.231h0.631
		c17.247,0,31.231,13.983,31.231,31.231v0.629C63.547,49.564,49.562,63.547,32.315,63.547"/>
	<path fill="#FFFFFF" d="M32.104,17.646c7.74,0,14.039,6.299,14.039,14.039c0,7.741-6.299,14.038-14.039,14.038
		c-7.741,0-14.038-6.297-14.038-14.038C18.067,23.944,24.364,17.646,32.104,17.646 M32.104,16.385c-8.45,0-15.3,6.85-15.3,15.3
		c0,8.45,6.85,15.3,15.3,15.3c8.45,0,15.301-6.85,15.301-15.3C47.405,23.235,40.555,16.385,32.104,16.385"/>
	<path fill="#FFFFFF" d="M26.745,28.667c0-0.833,0.125-1.59,0.375-2.272c0.25-0.681,0.614-1.264,1.091-1.748
		s1.051-0.859,1.727-1.124c0.673-0.266,1.426-0.398,2.259-0.398c0.697,0,1.343,0.102,1.943,0.306c0.598,0.205,1.119,0.5,1.566,0.886
		c0.447,0.386,0.799,0.867,1.057,1.442c0.258,0.577,0.386,1.227,0.386,1.953c0,0.531-0.056,0.989-0.171,1.375
		c-0.113,0.386-0.264,0.719-0.454,1c-0.188,0.28-0.405,0.53-0.647,0.749c-0.242,0.22-0.484,0.436-0.727,0.648
		c-0.287,0.242-0.553,0.477-0.795,0.703s-0.455,0.481-0.636,0.761c-0.181,0.282-0.321,0.61-0.421,0.989
		c-0.098,0.379-0.146,0.84-0.146,1.385h-2.453c0-0.666,0.033-1.229,0.102-1.691c0.069-0.461,0.178-0.866,0.33-1.216
		c0.152-0.347,0.336-0.655,0.557-0.919c0.219-0.266,0.479-0.526,0.783-0.784c0.244-0.211,0.473-0.408,0.694-0.591
		c0.219-0.181,0.416-0.381,0.59-0.602c0.174-0.219,0.31-0.465,0.408-0.739c0.098-0.272,0.148-0.597,0.148-0.977
		c0-0.453-0.08-0.842-0.239-1.169c-0.157-0.327-0.352-0.587-0.578-0.783c-0.228-0.197-0.47-0.342-0.728-0.433
		c-0.258-0.09-0.484-0.136-0.68-0.136c-0.941,0-1.633,0.306-2.08,0.92c-0.447,0.612-0.67,1.434-0.67,2.464H26.745z M30.358,36.891
		h3.042v2.838h-3.042V36.891z"/>
</g>
</svg>
