<?xml version="1.0" encoding="utf-8"?>
<!-- Generator: Adobe Illustrator 16.0.0, SVG Export Plug-In . SVG Version: 6.00 Build 0)  -->
<!DOCTYPE svg PUBLIC "-//W3C//DTD SVG 1.1//EN" "http://www.w3.org/Graphics/SVG/1.1/DTD/svg11.dtd">
<svg version="1.1" id="Layer_1" xmlns="http://www.w3.org/2000/svg" xmlns:xlink="http://www.w3.org/1999/xlink" x="0px" y="0px"
	 width="64px" height="64px" viewBox="0 0 64 64" enable-background="new 0 0 64 64" xml:space="preserve">
<g>
	<defs>
		<rect id="SVGID_1_" x="0.922" y="0.923" width="62.156" height="62.154"/>
	</defs>
	<clipPath id="SVGID_2_">
		<use xlink:href="#SVGID_1_"  overflow="visible"/>
	</clipPath>
	<path clip-path="url(#SVGID_2_)" d="M53.975,10.025c-12.135-12.137-31.813-12.137-43.949,0c-12.138,12.137-12.138,31.812,0,43.95
		c12.136,12.136,31.814,12.136,43.949,0C66.111,41.838,66.111,22.161,53.975,10.025 M55.641,47.938l-8.666-8.666
		c2.125-4.378,2.223-9.481,0.285-13.924l8.738-8.738C62.109,26.136,61.992,38.524,55.641,47.938 M22.067,41.933
		c-5.477-5.478-5.477-14.389,0-19.865c5.477-5.478,14.388-5.478,19.865,0c5.479,5.477,5.479,14.388,0,19.865
		C36.455,47.41,27.544,47.41,22.067,41.933 M47.938,8.359l-8.666,8.666c-4.582-2.225-9.961-2.225-14.543,0l-8.666-8.666
		C25.656,1.886,38.344,1.886,47.938,8.359 M8,16.609l8.737,8.738c-1.936,4.442-1.836,9.546,0.287,13.924l-8.666,8.666
		C2.009,38.524,1.889,26.136,8,16.609 M16.61,56l8.737-8.738c4.234,1.844,9.069,1.844,13.306,0L47.391,56
		C38.047,61.992,25.953,61.992,16.61,56"/>
</g>
</svg>
