<svg width="1654px" height="200px" viewBox="0 0 1654 200" version="1.1" xmlns="http://www.w3.org/2000/svg" xmlns:xlink="http://www.w3.org/1999/xlink">
    <path d="M154.843534,54.0175825 C154.839667,52.4725803 154.781667,50.8430642 154.303308,49.4008043 C153.296322,46.3682472 149.919634,44.4868466 146.836258,44.9442159 C143.159629,45.4894133 140.63747,48.2358384 140.575051,52.2030197 C140.462918,59.2894814 140.538041,66.3781527 140.534727,73.4657192 C140.534175,74.4307242 140.534727,75.3951768 140.534727,76.3601817 C111.988371,39.3403376 61.3524073,35.3786801 28.5262241,62.3960572 C-4.25355946,89.3747679 -9.55362894,137.242218 16.6395961,170.284938 C29.6298758,186.672346 46.5878886,196.681994 67.3429496,199.167144 C97.280747,202.75208 121.405868,191.650932 140.534727,167.751731 C140.534727,175.818112 140.522575,183.15922 140.546327,190.500328 C140.550194,191.781846 140.561794,193.09264 140.817545,194.339358 C141.517961,197.755818 144.576479,200.053159 148.034367,199.906227 C151.481207,199.759846 154.323194,197.18024 154.736925,193.731189 C154.878334,192.549099 154.860658,191.343258 154.86121,190.147911 C154.867286,160.235519 154.866181,130.323127 154.866181,100.410182 C154.866181,84.9463507 154.879991,69.4819666 154.843534,54.0175825 L154.843534,54.0175825 Z M77.5492429,185.55599 C42.765431,185.731646 14.314636,157.13281 14.3621405,122.291546 C14.4096451,87.6043953 42.8963447,59.0132923 77.5111288,59.2458435 C115.429135,59.50049 141.1788,91.0976359 140.388347,122.391526 C141.161677,154.169852 114.920395,185.367629 77.5492429,185.55599 L77.5492429,185.55599 Z M782.27896,0.418102422 C788.682129,0.383854964 793.631991,5.23539395 793.55521,11.4706407 C793.481191,17.5258121 788.473882,22.5287027 782.443016,22.572893 C776.292837,22.618188 771.175605,17.5191835 771.189966,11.360165 C771.203776,5.17739422 775.993448,0.451245122 782.27896,0.418102422 M1585.90372,152.981134 C1585.90372,140.005214 1585.08731,126.965771 1586.08601,114.067185 C1587.78678,92.0825265 1596.08516,72.8730173 1613.68117,58.6249703 C1623.33729,50.8060548 1634.66049,47.0222632 1646.94152,45.9031447 C1647.39944,45.8611639 1647.86123,45.8528782 1648.32081,45.8479068 C1651.57321,45.8142118 1653.70208,47.5895558 1653.77223,50.3895616 C1653.83907,53.0674918 1651.8969,54.7942265 1648.83728,55.2609862 C1644.30447,55.9520115 1639.6783,56.4563329 1635.32058,57.7875647 C1617.98972,63.080454 1607.30672,75.3614817 1600.74226,91.6991759 C1596.75188,101.630939 1594.99697,111.988032 1595.02735,122.696439 C1595.09309,145.341189 1595.04724,167.986492 1595.04724,190.631242 C1595.04724,191.367562 1595.06768,192.104987 1595.04006,192.840203 C1594.9108,196.215787 1593.20119,198.204349 1590.40174,198.25572 C1587.49623,198.308748 1585.59494,196.273234 1585.58168,192.747956 C1585.53142,179.493085 1585.56125,166.23711 1585.56125,152.981686 C1585.67559,152.981686 1585.78993,152.981134 1585.90372,152.981134 M789.497439,122.629049 C789.497439,145.361627 789.50462,168.094758 789.480316,190.827336 C789.478658,192.28672 789.461535,193.813494 789.05388,195.191125 C788.212055,198.034216 785.280031,199.945998 782.278408,199.907884 C779.255241,199.869217 776.454684,197.909931 775.629431,195.019888 C775.257128,193.717932 775.154385,192.300529 775.15328,190.93505 C775.130633,145.285399 775.133947,99.6363003 775.136709,53.9866493 C775.136709,53.2508814 775.114062,52.5095897 775.189737,51.7798979 C775.611202,47.7188123 778.673587,44.8155117 782.446331,44.86854 C786.395283,44.9237779 789.436678,47.9513636 789.45822,52.2223529 C789.530582,66.7637128 789.494125,81.3050727 789.496887,95.8469849 C789.499096,104.773971 789.497439,113.70151 789.497439,122.629049 M529.225085,150.159033 C529.225085,137.003038 529.098591,123.845386 529.251047,110.690496 C529.580817,82.1805923 548.659962,55.1433296 575.060329,45.7026313 C577.887954,44.691779 580.890682,43.9626396 583.870763,43.6367363 C587.820267,43.2047765 590.957223,45.8998304 591.50684,49.6261747 C592.048171,53.2961764 589.704982,56.6380654 585.893572,57.6301369 C560.826094,64.1570394 543.761472,85.8135847 543.579739,111.841652 C543.393036,138.612669 543.516216,165.385894 543.534997,192.158568 C543.537206,195.309886 542.35125,197.735932 539.536331,199.154992 C536.929657,200.468548 534.335689,200.166949 532.006862,198.398786 C529.853692,196.764299 529.182,194.479662 529.189181,191.835979 C529.2284,177.943664 529.207409,164.051348 529.207409,150.159033 L529.225085,150.159033 M1320.53512,121.65852 C1298.25771,121.659072 1275.98029,121.696634 1253.70343,121.605492 C1251.24038,121.594997 1250.5836,122.257298 1250.71672,124.717039 C1252.40479,155.937463 1273.68958,180.99224 1304.17644,187.509752 C1331.42471,193.335134 1360.12131,180.57188 1374.61848,156.177748 C1374.94715,155.624817 1375.24598,155.053658 1375.57741,154.502384 C1377.32569,151.59356 1380.05278,150.681583 1382.51694,152.174662 C1384.85571,153.592064 1385.41085,156.305899 1383.76586,159.187105 C1372.9514,178.124291 1357.02413,190.615775 1335.89732,195.944017 C1291.61149,207.112554 1247.83496,177.123934 1241.89303,131.816205 C1236.5101,90.775047 1265.54808,52.6399509 1306.58426,46.8593116 C1347.51273,41.0941388 1385.64395,69.0450353 1392.38738,109.775205 C1392.71771,111.768738 1392.95744,113.787681 1393.06736,115.804414 C1393.29494,119.980947 1391.67482,121.633663 1387.36682,121.648577 C1378.80606,121.678406 1370.2442,121.65852 1361.68344,121.65852 L1320.53512,121.65852 L1320.53512,121.65852 Z M1383.01132,112.069784 C1379.09993,81.6630138 1349.92331,51.8174596 1310.17527,55.9111355 C1291.84902,57.7980599 1276.83924,66.3345148 1265.27078,80.6941422 C1257.89101,89.8536799 1253.32174,100.275954 1251.5591,112.069784 L1383.01132,112.069784 L1383.01132,112.069784 Z M1552.47986,84.9695506 L1552.47986,81.3122536 C1552.47986,71.7417464 1552.47489,62.1712392 1552.48704,52.6001797 C1552.48815,51.5915368 1552.48152,50.5630084 1552.66436,49.5775654 C1553.08582,47.3039762 1554.55018,46.0252203 1556.83316,45.8683448 C1559.23821,45.7031837 1560.95335,46.8173308 1561.60239,49.1649388 C1561.91448,50.2934477 1561.93658,51.5263562 1561.93658,52.7123125 C1561.95205,98.9082657 1561.94984,145.103666 1561.94984,191.29962 C1561.94984,191.667504 1561.95591,192.03594 1561.94652,192.403824 C1561.85372,196.068302 1560.00823,198.271187 1557.08836,198.206006 C1554.23919,198.14193 1552.50969,196.072721 1552.49588,192.478395 C1552.45777,182.723394 1552.48097,172.968944 1552.47986,163.214495 L1552.47986,160.245462 C1538.38483,181.916921 1519.10904,195.332534 1493.22349,197.794484 C1467.26392,200.263063 1445.41736,191.306248 1428.27374,171.738798 C1400.39466,139.918491 1404.70929,90.8219991 1437.25818,63.6184705 C1472.7424,33.9618297 1528.62651,42.6065507 1552.47986,84.9695506 L1552.47986,84.9695506 Z M1485.852,55.5084517 C1449.18181,55.5244706 1419.28434,85.4048247 1419.22082,122.102632 C1419.15729,158.808173 1449.30223,189.079059 1486.00556,188.839327 C1525.68289,188.580261 1552.51466,155.45137 1552.47047,122.087718 C1552.42518,88.136888 1524.79135,55.5968322 1485.852,55.5084517 L1485.852,55.5084517 Z M318.825861,149.269152 C318.822546,163.721026 318.855137,178.172348 318.802108,192.624223 C318.787194,196.760432 315.901018,199.738304 312.040998,199.906227 C308.08376,200.078016 304.912557,197.173059 304.544673,192.996526 C304.464026,192.082892 304.509321,191.157106 304.508768,190.236844 C304.507663,168.789097 304.509873,147.341904 304.506559,125.89471 C304.505454,120.739915 304.56953,115.583463 304.464026,110.430878 C303.901705,82.9848552 282.158991,59.7479555 255.452607,57.999678 C226.827812,56.1249059 202.220465,75.4073291 197.890925,103.265978 C197.273366,107.241998 197.235252,111.335121 197.225861,115.374112 C197.169519,140.779649 197.201004,166.185186 197.194376,191.590723 C197.193271,196.710718 194.417018,199.915617 190.042182,199.907331 C185.678393,199.899046 182.886121,196.668185 182.885017,191.564209 C182.87894,164.686031 182.806579,137.807853 182.903797,110.929676 C183.026425,77.1522923 208.428645,48.5357799 242.062405,44.1001818 C279.261767,39.1950621 313.425811,65.407624 318.197806,102.640686 C318.767861,107.091198 318.77007,111.631196 318.802661,116.131975 C318.88386,127.17678 318.829175,138.223242 318.825861,149.269152 M1068.62743,179.716798 C1072.49574,169.308885 1076.21269,159.329066 1079.91528,149.343723 C1092.11898,116.435231 1104.29616,83.5156908 1116.58105,50.6370271 C1117.20745,48.9616636 1118.45306,47.1432341 1119.92901,46.2434097 C1122.35893,44.761931 1125.08823,46.3654853 1126.29628,49.5924796 C1130.54793,60.9510355 1134.75429,72.3272675 1138.97502,83.6974233 C1150.51751,114.793562 1162.0589,145.890253 1173.60306,176.986392 C1173.88919,177.75696 1174.19907,178.519242 1174.6929,179.784741 C1175.24804,178.518137 1175.66674,177.663056 1176.00535,176.777041 C1192.02322,134.895715 1208.0328,93.0116269 1224.04293,51.127539 C1224.10866,50.9557494 1224.14677,50.7740169 1224.21251,50.6022272 C1225.78237,46.5013704 1228.14986,44.9635491 1231.0852,46.1362483 C1233.88244,47.2537097 1234.57899,49.9344018 1233.07321,53.8783832 C1224.6511,75.9403742 1216.23009,98.0023652 1207.79859,120.059937 C1198.51366,144.349118 1189.21769,168.633879 1179.92779,192.92085 C1179.698,193.521838 1179.48202,194.127797 1179.25278,194.728784 C1178.46178,196.80407 1177.04935,198.173968 1174.75477,198.189987 C1172.34695,198.206558 1170.85166,196.810698 1170.03911,194.621071 C1166.90437,186.179625 1163.77128,177.738179 1160.6415,169.295076 C1148.05777,135.350322 1135.47625,101.405016 1122.88755,67.4624714 C1122.54618,66.5422091 1122.12637,65.6512228 1121.54859,64.2885054 C1118.21498,73.2696249 1115.05207,81.7878513 1111.89136,90.3071825 C1099.17285,124.593306 1086.45489,158.879982 1073.73583,193.166106 C1073.57564,193.596961 1073.39446,194.020083 1073.24697,194.454805 C1072.49795,196.666528 1071.05238,198.146349 1068.65229,198.179492 C1066.11467,198.214844 1064.69561,196.653823 1063.85047,194.354824 C1061.53766,188.058816 1059.14641,181.791531 1056.79715,175.509332 C1041.73545,135.232113 1026.67651,94.9537891 1011.62089,54.6743604 C1011.23478,53.6414129 1010.81332,52.6106749 1010.55591,51.5429276 C1010.01623,49.3035858 1011.25522,46.9891205 1013.34707,46.1461911 C1015.47649,45.2883476 1017.94507,46.0495249 1019.10341,48.0767535 C1019.73533,49.1831673 1020.14354,50.4243614 1020.59317,51.6268891 C1036.1603,93.2845018 1051.71969,134.945429 1067.28792,176.602489 C1067.62984,177.518885 1068.05904,178.402138 1068.62743,179.716798 M593.517497,122.447869 C593.449554,79.7943179 628.237785,44.916597 670.911216,44.8547306 C713.494609,44.7928642 748.388896,79.6959945 748.401049,122.363907 C748.413753,165.08982 713.696227,199.870874 670.995177,199.91175 C628.322299,199.953179 593.585439,165.22239 593.517497,122.447869 L593.517497,122.447869 Z M607.891484,122.476592 C607.933465,157.2466 636.241194,185.574218 670.955406,185.585266 C705.604438,185.595761 734.048052,157.157667 734.074566,122.478802 C734.100528,87.6800711 705.482914,59.0563778 670.820073,59.2104913 C636.056699,59.3651573 607.850056,87.7231566 607.891484,122.476592 L607.891484,122.476592 Z M957.300014,77.1594732 L957.300014,73.5270332 C957.300566,51.5285657 957.287862,29.5300982 957.312719,7.53163072 C957.31769,3.47109752 959.902268,0.503168686 963.626955,0.0667897956 C967.130138,-0.343627313 970.414027,1.88300979 971.351965,5.36188859 C971.540878,6.06119957 971.600535,6.81464363 971.600535,7.54267829 C971.612135,69.1201588 971.632573,130.697087 971.516574,192.274567 C971.512707,194.17972 970.500198,196.433424 969.236908,197.905512 C967.29088,200.173578 964.441713,200.533728 961.634526,199.304134 C958.851092,198.085588 957.340338,195.861712 957.319347,192.811479 C957.268529,185.540523 957.301119,178.269015 957.300014,170.997506 L957.300014,167.616951 C939.625014,190.082178 917.163104,201.290487 889.140955,199.673675 C867.541308,198.42751 849.558081,189.10944 835.378531,172.739155 C808.102644,141.250275 811.215848,93.438063 842.208135,64.9966545 C874.817234,35.0715578 929.118227,38.2836378 957.300014,77.1594732 L957.300014,77.1594732 Z M831.158361,122.288784 C831.086551,157.086962 859.288224,185.491361 894.001331,185.583609 C928.706705,185.676408 957.147005,157.39298 957.264662,122.670477 C957.382871,87.7916515 929.043104,59.2530245 894.246035,59.2093866 C859.56607,59.1657487 831.230722,87.4983386 831.158361,122.288784 L831.158361,122.288784 Z M490.52215,167.634627 C462.090136,206.98385 405.734295,210.5257 372.530838,177.065382 C342.10529,146.40286 342.693021,96.4766962 373.756013,66.5399996 C406.605396,34.882092 461.527262,37.8041734 490.52215,77.235149 L490.52215,73.8518317 C490.522702,51.8550213 490.508893,29.858211 490.533197,7.86140059 C490.539826,2.11335156 495.34165,-1.44120308 500.299245,0.563930304 C503.031308,1.66923937 504.469149,3.78208653 504.804442,6.66053007 C504.899451,7.4786024 504.838137,8.31545559 504.838137,9.14347072 C504.83869,69.7040227 504.83869,130.264022 504.838137,190.824574 C504.838137,191.560895 504.869623,192.299424 504.819909,193.032983 C504.550901,197.012869 501.45482,199.94655 497.589277,199.907331 C493.706058,199.868665 490.603349,196.895765 490.554188,192.883288 C490.464702,185.613437 490.524912,178.341929 490.52215,171.070972 L490.52215,167.634627 L490.52215,167.634627 Z M364.364477,122.328003 C364.277754,157.069286 392.549578,185.505171 427.25661,185.585266 C461.954803,185.665361 490.341522,157.394637 490.470779,122.629049 C490.600587,87.7756326 462.207792,59.2160151 427.420114,59.2088342 C392.734073,59.2011009 364.451753,87.5121481 364.364477,122.328003 L364.364477,122.328003 Z" fill="#000000"></path>
</svg>