<svg width="82px" height="100px" viewBox="0 0 82 100" version="1.1" xmlns="http://www.w3.org/2000/svg" xmlns:xlink="http://www.w3.org/1999/xlink">
    <path d="M68.4838995,53.1268571 C68.6254156,68.2600228 81.8534511,73.2959591 82,73.3602364 C81.8881507,73.7153984 79.8863806,80.5369387 75.0308423,87.5831023 C70.8334433,93.6748682 66.4770966,99.7443185 59.6145634,99.870022 C52.8714382,99.9933986 50.7031472,95.8993765 42.993846,95.8993765 C35.2868735,95.8993765 32.8778035,99.7443085 26.4946845,99.9933986 C19.870599,100.242307 14.8264274,93.4059611 10.5941462,87.3365109 C1.94599234,74.9212458 -4.66298665,52.2538885 4.2112016,36.9530524 C8.61970903,29.3545954 16.4980451,24.5429349 25.0492743,24.4195488 C31.553957,24.2963415 37.6936044,28.76499 41.6699993,28.76499 C45.6438729,28.76499 53.1048511,23.3910486 60.9483025,24.1802799 C64.2318391,24.3159853 73.4487801,25.4973402 79.3672315,34.0996571 C78.8903501,34.3932141 68.3695339,40.4749762 68.4838995,53.1268714 M55.8109752,15.9664988 C59.3277466,11.739443 61.6947365,5.85499058 61.048996,0 C55.9798343,0.202305925 49.8500786,3.35425711 46.2140818,7.57898719 C42.9555303,11.3201825 40.1017717,17.3082041 40.8717653,23.0473117 C46.5219412,23.4813922 52.2940307,20.1962425 55.8109752,15.9665056" fill="#999999"></path>
</svg>