<svg width="92px" height="100px" viewBox="0 0 92 100" version="1.1" xmlns="http://www.w3.org/2000/svg" xmlns:xlink="http://www.w3.org/1999/xlink">
	<path d="M52.5,48.3744147 L4.13,0.0044146645 C5.177,-0.0405853355 6.36,0.257414665 7.615,0.945414665 L67.143,33.7324147 L52.5,48.3744147 L52.5,48.3744147 Z M1.257,1.37441466 C0.464,2.31041466 0,3.69641466 0,5.45441466 L0.011,94.3284147 C0.011,96.5124147 0.724,98.1014147 1.886,98.9894147 L50.379,50.4964147 L1.257,1.37441466 L1.257,1.37441466 Z M88.863,45.6954147 L69.879,35.2394147 L54.622,50.4964147 L69.099,64.9734147 L88.863,54.0874147 C93.052,51.7724147 93.052,48.0054147 88.863,45.6954147 L88.863,45.6954147 Z M5.455,99.6634147 C6.14,99.5194147 6.863,99.2534147 7.615,98.8404147 L66.363,66.4804147 L52.5,52.6174147 L5.455,99.6634147 L5.455,99.6634147 Z" fill="#ffffff"></path>
</svg>