<?xml version="1.0" encoding="UTF-8" standalone="no"?>
<svg width="93px" height="100px" viewBox="0 0 93 100" version="1.1" xmlns="http://www.w3.org/2000/svg" xmlns:xlink="http://www.w3.org/1999/xlink">
    <defs>
        <linearGradient x1="19.2147947%" y1="-35.1571758%" x2="69.3023416%" y2="93.5367562%" id="gradient-green">
            <stop stop-color="#19A3B4" offset="0%"></stop>
            <stop stop-color="#5BC3AF" offset="34.816763%"></stop>
            <stop stop-color="#C9F7A6" offset="92.2336229%"></stop>
            <stop stop-color="#D7FEA5" offset="100%"></stop>
        </linearGradient>
        <linearGradient x1="-14.698314%" y1="-114.321644%" x2="74.8444046%" y2="114.156353%" id="gradient-orange">
            <stop stop-color="#FC227C" offset="0%"></stop>
            <stop stop-color="#FEEB7B" offset="100%"></stop>
        </linearGradient>
        <linearGradient x1="28.1511582%" y1="-14.8137139%" x2="48.1878808%" y2="82.8944571%" id="gradient-blue">
            <stop stop-color="#0E4DA0" offset="0%"></stop>
            <stop stop-color="#6BFED4" offset="100%"></stop>
        </linearGradient>
        <linearGradient x1="132.244588%" y1="16.465744%" x2="5.95853392%" y2="126.310354%" id="gradient-red">
            <stop stop-color="#FC472E" offset="0%"></stop>
            <stop stop-color="#FC472E" offset="0.331892433%"></stop>
            <stop stop-color="#893CD8" offset="100%"></stop>
        </linearGradient>
    </defs>
    <g id="play">
        <path id="green" d="M7.7067406,1.02732214 C5.99095654,0.0869844581 4.40846479,-0.131764792 3.12658975,0.268802016 L52.6914791,49.9135181 L68.2186159,34.3567533 L7.7067406,1.02732214 Z" fill="url(#gradient-green)"></path>
        <path d="M88.955497,54.1691853 C93.1442789,51.8538524 93.1442789,48.0868198 88.955497,45.7771687 L68.2214519,34.3567533 L52.6914791,49.9135181 L68.2980241,65.5469872 L88.955497,54.1691853 Z" id="orange" fill="url(#gradient-orange)"></path>
        <path id="blue" d="M0.0920625678,5.53582941 L0.103406595,94.4105246 C0.103406595,97.2031287 1.25766133,99.0411905 3.04434556,99.6548248 L52.6914791,49.9220408 L3.12375375,0.268802016 C1.28318539,0.845504584 0.0920625678,2.71197546 0.0920625678,5.53582941 Z" fill="url(#gradient-blue)"></path>
        <path id="red" d="M7.7067406,98.9218728 L68.2895161,65.5469872 L52.6914791,49.9220408 L3.04434556,99.6548248 C4.33472861,100.092323 5.94841644,99.8877786 7.7067406,98.9218728 Z" fill="url(#gradient-red)"></path>
    </g>
</svg>