<svg width="93px" height="100px" viewBox="0 0 93 100" version="1.1" xmlns="http://www.w3.org/2000/svg" xmlns:xlink="http://www.w3.org/1999/xlink">
    <path d="M7.7067406,1.02732214 C5.99095654,0.0869844581 4.40846479,-0.131764792 3.12658975,0.268802016 L52.6914791,49.9135181 L68.2186159,34.3567533 L7.7067406,1.02732214 L7.7067406,1.02732214 Z" fill="#9AE1AA"></path>
    <path d="M88.955497,54.1691853 C93.1442789,51.8538524 93.1442789,48.0868198 88.955497,45.7771687 L68.2214519,34.3567533 L52.6914791,49.9135181 L68.2980241,65.5469872 L88.955497,54.1691853 L88.955497,54.1691853 Z" fill="#FEAE7B"></path>
    <path d="M0.0920625678,5.53582941 L0.103406595,94.4105246 C0.103406595,97.2031287 1.25766133,99.0411905 3.04434556,99.6548248 L52.6914791,49.9220408 L3.12375375,0.268802016 C1.28318539,0.845504584 0.0920625678,2.71197546 0.0920625678,5.53582941 L0.0920625678,5.53582941 Z" fill="#389CB8"></path>
    <path d="M7.7067406,98.9218728 L68.2895161,65.5469872 L52.6914791,49.9220408 L3.04434556,99.6548248 C4.33472861,100.092323 5.94841644,99.8877786 7.7067406,98.9218728 L7.7067406,98.9218728 Z" fill="#E34554"></path>
</svg>