<?xml version="1.0" encoding="utf-8"?>
<!-- Generator: Adobe Illustrator 16.0.0, SVG Export Plug-In . SVG Version: 6.00 Build 0)  -->
<!DOCTYPE svg PUBLIC "-//W3C//DTD SVG 1.1//EN" "http://www.w3.org/Graphics/SVG/1.1/DTD/svg11.dtd">
<svg version="1.1" id="Layer_1" xmlns="http://www.w3.org/2000/svg" xmlns:xlink="http://www.w3.org/1999/xlink" x="0px" y="0px"
	 width="495.312px" height="495.312px" viewBox="58.344 148.344 495.312 495.312"
	 enable-background="new 58.344 148.344 495.312 495.312" xml:space="preserve">
<g>
	<path fill="#51CE9E" d="M415.752,313.992L267.648,462.096l-65.28-65.688c-4.488-4.488-12.24-4.488-16.728,0
		c-4.488,4.488-4.488,12.24,0,16.728l73.848,73.85c2.039,2.04,5.304,3.264,8.16,3.264c3.264,0,6.119-1.224,8.16-3.264
		L432.48,330.721c4.486-4.488,4.486-12.24,0-16.729C427.584,309.504,420.24,309.504,415.752,313.992z"/>
	<path fill="#51CE9E" d="M306,148.344C171.768,148.344,58.344,261.768,58.344,396S171.768,643.656,306,643.656
		c134.232,0,247.656-113.424,247.656-247.656S440.232,148.344,306,148.344z M306,619.992C184.416,619.992,82.008,517.584,82.008,396
		S184.416,172.008,306,172.008S529.992,274.416,529.992,396S427.584,619.992,306,619.992z"/>
</g>
</svg>
