<?xml version="1.0" encoding="utf-8"?>
<!-- Generator: Adobe Illustrator 18.0.0, SVG Export Plug-In . SVG Version: 6.00 Build 0)  -->
<!DOCTYPE svg PUBLIC "-//W3C//DTD SVG 1.1//EN" "http://www.w3.org/Graphics/SVG/1.1/DTD/svg11.dtd">
<svg version="1.1" id="Layer_1" xmlns="http://www.w3.org/2000/svg" xmlns:xlink="http://www.w3.org/1999/xlink" x="0px" y="0px"
	 viewBox="0 0 300 300" enable-background="new 0 0 300 300" xml:space="preserve">
<g>
	<g>
		<path fill="#A0CF68" d="M163,87.8l-29.5,0.3h-9.5c-2.9,0-5.2,2.4-5.2,5.2v3v0.2v1.9c0,3,2.4,4.1,4,4.9l4.4,1.6
			c0,1.9-1.1,5.6-2.5,9c-0.2,0.3-0.6,0.8-1.3,1.3c-1.1,0.8-2.5,2.1-3,4.1c-0.3,1.9,0.3,3.5,1.9,4.4c1,0.6,2.2,0.8,3.3,0.8
			c2.1,0,4.3-0.6,5.6-1.7c4-3.2,6-8.3,7.6-13c0.2-0.3,0.2-0.5,0.3-0.8l4.9,1.7v3v0.6c-2.2,0.8-4,3-4,5.6v8.7v0.2v0.2
			c0,1.3,1,2.2,2.2,2.2h0.6v5.1c0,7.5-8.4,14.9-12.9,16.8c-6.4,2.7-7.5,10.6-7.5,10.9l-1.1,42.2c0,3.3,2.7,5.9,5.9,5.9h9.2h10.3
			h21.9c3.3,0,5.9-2.7,5.9-5.9v-47.1V159c0-0.2-0.5-5.6-2.4-10c-0.6-1.6-1.7-3.5-2.7-5.1c-1.4-2.5-3.2-5.6-3.2-7.1
			c0-2.2,0-4.1,0-5.2h0.3c1.3,0,2.2-1,2.2-2.2c0-0.2,0-0.2,0-0.3c0-0.2,0-0.2,0-0.3v-8.4c0-3-2.2-5.4-5.1-5.9v-5.6
			c1-0.5,4.1-0.3,6.2-0.3c4.3,0.2,8.3,0.2,10.2-1.9c0.6-0.6,1.3-1.7,1.1-3.3v-1.3L163,87.8z M170,104.1c-4.1-0.2-7.6-0.2-9.5,1.6
			c-0.8,0.8-1.1,1.7-1.1,2.9v5.7l0,0h-0.8h-1.7h-8.3l-0.2-4.8v-1.7l-15.1-5.4l-8.3-3h-0.2l-0.3,0c-0.5-0.3-1.3-0.6-1.4-0.8v-0.3
			v-0.5v-1.1v-0.2v-3c0-0.5,0.3-0.8,0.8-0.8h9.5l27.9-0.3l14.9,11.4C175.1,104.3,171.9,104.1,170,104.1 M128.6,119.5
			c-1,0.8-3,1-3.8,0.6c0.2-0.5,0.5-0.8,1.4-1.4c1-0.6,2.1-1.6,2.5-3c0.6-1.6,2.4-5.7,2.9-9.4l3.3,1.3
			C133.6,112.2,131.9,117,128.6,119.5 M161.9,136.7c0,2.7,1.9,5.9,3.8,9.4c1,1.6,1.9,3.3,2.5,4.8c1.6,3.5,1.9,7.9,2.1,8.6v47.3
			c0,0.8-0.6,1.4-1.4,1.4h-22.1h-10.2h-9.2c-0.8,0-1.4-0.6-1.4-1.4l1.1-41.7c0.2-0.8,1.3-5.9,4.9-7.5c5.2-2.2,15.6-10.9,15.6-20.9
			v-5.1h14.3C161.9,132.5,161.9,134.5,161.9,136.7 M164.4,120.2v6.8h-19.8v-6.8c0-0.8,0.6-1.4,1.4-1.4h10.6h2.5h3.7
			C163.8,118.7,164.4,119.4,164.4,120.2"/>
	</g>
	<path fill="none" stroke="#A0CF68" stroke-width="4.986" stroke-miterlimit="10" d="M151.3,266.5H149
		c-63.9,0-115.5-51.6-115.5-115.3v-2.3c0-63.8,51.6-115.4,115.3-115.4h2.3c63.7,0,115.3,51.6,115.3,115.3v2.3
		C266.7,214.9,215.1,266.5,151.3,266.5"/>
</g>
</svg>
