<svg xmlns="http://www.w3.org/2000/svg"><symbol id="pennant" viewBox="0 0 73 91"><path d="M4.5 85.401V5.6a3 3 0 1 0-3 0V85.4a3 3 0 1 0 3 0z" fill="#D8D8D8"/><path d="M63.072 27.5l9.167 5.492L0 48V7l71.727 15.134-8.655 5.366z" opacity=".9" fill="#69B3A5"/><path d="M0 7v41l6.261-1.3V8.321L0 7z" fill="#40484B"/><text fill="#FFF" font-family="Source Sans Pro" font-size="12.729" font-weight="bold"><tspan x="10" y="32">Cal</tspan></text></symbol><symbol id="bus-stop" viewBox="0 0 100 100"><path d="M33.445 33.111c-1.89 0-3.445 1.246-3.445 2.788v13.98c0 1.542 1.554 2.788 3.445 2.788H66.58c1.893 0 3.421-1.246 3.421-2.787V35.899c0-1.542-1.528-2.788-3.42-2.788H33.444zM27.181 18h46.64C76.157 18 78 19.733 78 21.899v49.092c0 2.137-1.778 3.84-4.056 3.898h-8.298a.83.83 0 0 0-.374 0H27.305c-.093-.029-.156-.029-.25-.029h-.03C24.778 74.774 23 73.098 23 70.99V21.899C23.001 19.733 24.842 18 27.181 18zm7.833 42.667c2.238 0 3.986 1.555 3.986 3.543 0 1.963-1.748 3.568-3.986 3.568-2.24 0-4.014-1.605-4.014-3.568 0-1.988 1.775-3.543 4.014-3.543zm30.987 0c2.231 0 3.999 1.555 3.999 3.543 0 1.963-1.768 3.568-3.999 3.568-2.233 0-4.001-1.605-4.001-3.568 0-1.988 1.768-3.543 4.001-3.543zM29 74.889h8v5.824c0 .735-.679 1.287-1.546 1.287h-4.906C29.68 82 29 81.447 29 80.713v-5.824H29zm35 0h8v5.824c0 .735-.679 1.287-1.546 1.287h-4.906C64.68 82 64 81.447 64 80.713v-5.824H64zM38 25.11a2.665 2.665 0 0 1 2.675-2.667h19.65A2.673 2.673 0 0 1 63 25.111a2.665 2.665 0 0 1-2.675 2.667h-19.65A2.673 2.673 0 0 1 38 25.11z" fill="none" stroke="#000" stroke-width="3" stroke-linecap="round" stroke-linejoin="round"/></symbol><symbol id="cafe" viewBox="0 0 100 100"><path d="M69.742 43.778l1.24-10.561a.867.867 0 0 0-.88-.995H30.12c-.553 0-.944.445-.88.995l1.239 10.56h39.262zm-2.919 24.889l-1.447 12.339c-.064.549-.568.994-1.125.994h-28.28c-.557 0-1.06-.446-1.125-.994L33.4 68.666h33.424zM25.02 23.417c.135-.537.7-.973 1.248-.973h47.113c.554 0 1.112.433 1.248.974l1.967 7.83c.135.538-.206.974-.763.974H23.816c-.556 0-.898-.433-.763-.973l1.967-7.831zm7.02-4.474c.192-.521.798-.943 1.345-.943h32.562c.55 0 1.154.426 1.345.943l.948 2.559c.193.52-.102.942-.644.942h-35.86c-.549 0-.835-.426-.644-.942l.947-2.56zm-3.691 25.826a.882.882 0 0 1 .894-.991H70.98c.55 0 .95.453.895.99l-2.322 22.908a1.127 1.127 0 0 1-1.096.99h-36.69c-.55 0-1.041-.453-1.096-.99L28.35 44.769z" fill="none" stroke="#000" stroke-width="3" stroke-linecap="round" stroke-linejoin="round"/></symbol><symbol id="establishment" viewBox="0 0 100 100"><path d="M19 35.778h62.222L50.111 18 19 35.778zm7.67 6.102h6.223v27.67H26.67V41.88zm13.663 0h6.223v27.67h-6.223V41.88zm13.334 0h6.222v27.67h-6.222V41.88zm14.331 0h6.223v27.67h-6.223V41.88zm-43.665-6.222H75.89v6.222H24.333v-6.222zm0 33.898H75.89v6.222H24.333v-6.222zM19 75.778h62.222V82H19v-6.222z" fill="none" stroke="#000" stroke-linecap="round" stroke-linejoin="round"/></symbol><symbol id="grocery" viewBox="0 0 100 100"><path d="M19.669 51.423c-.25-1.076.445-1.948 1.543-1.948h58.62c1.101 0 1.791.876 1.543 1.948l-6.402 27.629C74.723 80.128 73.627 81 72.52 81H28.523c-1.105 0-2.204-.876-2.453-1.948l-6.401-27.63zm4.244 18.441h52.184M22.87 59.458h55.314M32.26 49.475l6.26 31M14 45.27a4.209 4.209 0 0 1 4.209-4.203H81.79A4.209 4.209 0 0 1 86 45.27a4.209 4.209 0 0 1-4.209 4.204H18.21A4.209 4.209 0 0 1 14 45.27zm54.783 4.204l-6.261 31m-12-31v31m-19.704-57.58C31.327 20.743 33.524 19 35.744 19h30.6c2.211 0 4.418 1.75 4.925 3.894l4.296 18.174H26.522l4.296-18.174z" fill="none" stroke="#000" stroke-width="3" stroke-linecap="round" stroke-linejoin="round"/></symbol><symbol id="library" viewBox="0 0 100 100"><path d="M17 25h-5v52h76V25h-5m-66-2s7-2 16-2 17 2 17 2v50s-8-2-17-2-16 2-16 2V23zm33 0s7-2 16-2 17 2 17 2v50s-8-2-17-2-16 2-16 2V23zm0 47.5v6" fill="none" stroke="#000" stroke-width="3" stroke-linecap="round" stroke-linejoin="round"/></symbol><symbol id="lodging" viewBox="0 0 100 100"><path d="M14 59.4h72v8.002H14V59.4zm8.348-12.397h54.998a6.006 6.006 0 0 1 6.002 6.001v6.001m-58.905 8.777v8.217h-5.234v-8.217m60.538 0v8.217h-5.233v-8.217M14 59V32.005A4.005 4.005 0 0 1 18 28c2.21 0 4 1.8 4 4.005V59" fill="none" stroke="#000" stroke-width="3" stroke-linecap="round" stroke-linejoin="round"/></symbol><symbol id="parking" viewBox="0 0 100 100"><path d="M30.216 36.863c-.207-1.085-.29-2.86-.133-3.946 0 0 .762-17.917 19.852-17.917s19.853 17.917 19.853 17.917c.134 1.094.075 2.854-.134 3.946l-6.281 32.878c-.208 1.086-1.275 1.966-2.383 1.966H38.88c-1.108 0-2.173-.873-2.382-1.966l-6.282-32.878zM46.522 74.06c0-1.1.886-1.992 2.008-1.992h1.818c1.109 0 2.008.889 2.008 1.992v8.949c0 1.1-.886 1.992-2.008 1.992H48.53a1.998 1.998 0 0 1-2.008-1.992v-8.949zm0-27.075c0-1.104.886-2 2.008-2h1.818c1.109 0 2.008.896 2.008 2v12.443c0 1.105-.886 2-2.008 2H48.53a2.004 2.004 0 0 1-2.008-2V46.984zm15.561-11.092c0-7.143-5.44-12.933-12.152-12.933-6.712 0-12.153 5.79-12.153 12.933h24.305zm-9.236-6.867l-2.916 6.77" fill="none" stroke="#000" stroke-width="3" stroke-linecap="round" stroke-linejoin="round"/></symbol><symbol id="restaurant" viewBox="0 0 100 100"><path d="M78.778 18v20.432c0 7.178-5.856 12.997-13.047 12.997-7.205 0-13.046-5.823-13.046-12.997V18M65.73 52.17V83M22.864 18l7.214 1.917c3.736.993 6.764 4.933 6.764 8.782v12.03c0 3.858-3.033 7.791-6.764 8.783l-7.214 1.917m0-33.429v65m55.914-48.286v4.73c0 4.568-13.047-4.73-13.047-4.73s-13.046 9.295-13.046 4.73v-4.73M65.73 18v16.817" fill="none" stroke="#000" stroke-width="3" stroke-linecap="round" stroke-linejoin="round"/></symbol><symbol id="theater" viewBox="0 0 100 100"><path d="M19 39s12 5.465 17.455 5.465C43 44.465 55 39 55 39v31.7c0 .602-.158 1.547-.376 2.113 0 0-3.988 13.187-18.17 13.187-14.181 0-17.148-13.164-17.148-13.164A9.129 9.129 0 0 1 19 70.7V39zm9.79 30.636S31.508 74 36.946 74c5.439 0 8.158-4.364 8.158-4.364m-19.579-13.09s1.088-3.273 4.351-3.273 4.351 3.272 4.351 3.272m6.526 0s1.088-3.272 4.351-3.272 4.351 3.272 4.351 3.272M45 14s12 5.465 17.455 5.465C69 19.465 81 14 81 14v31.7c0 .602-.158 1.547-.376 2.113 0 0-3.988 13.187-18.17 13.187-2.992 0-7.566-2.011-7.566-2.011v-19.85l-8.848 2.935c-.575.19-1.04-.149-1.04-.752V14zm9.895 34.91s2.719-4.365 8.158-4.365c5.438 0 8.158 4.364 8.158 4.364M51.63 31.455s1.088-3.273 4.351-3.273c3.264 0 4.351 3.273 4.351 3.273m6.527 0s1.087-3.273 4.35-3.273c3.264 0 4.351 3.273 4.351 3.273" fill="none" stroke="#000" stroke-width="3" stroke-linecap="round" stroke-linejoin="round"/></symbol><symbol id="weight" viewBox="0 0 100 100"><path d="M35.176 50h29.648m18 0H86m-72 0h3.176m1.06-7.667c0-1.657 1.341-3 2.998-3h2.474a2.994 2.994 0 0 1 2.998 3v15.334c0 1.657-1.342 3-2.998 3h-2.474a2.994 2.994 0 0 1-2.999-3V42.333zm8.47-5.337A2.997 2.997 0 0 1 29.704 34h2.474a2.993 2.993 0 0 1 2.998 2.996v26.008A2.997 2.997 0 0 1 32.178 66h-2.474a2.993 2.993 0 0 1-2.998-2.996V36.996zm38.118 0A2.997 2.997 0 0 1 67.822 34h2.474a2.993 2.993 0 0 1 2.998 2.996v26.008A2.997 2.997 0 0 1 70.296 66h-2.474a2.993 2.993 0 0 1-2.998-2.996V36.996zm8.47 5.337c0-1.657 1.342-3 2.998-3h2.474a2.994 2.994 0 0 1 2.999 3v15.334c0 1.657-1.342 3-2.999 3h-2.474a2.994 2.994 0 0 1-2.998-3V42.333z" fill="none" stroke="#000" stroke-width="3" stroke-linecap="round" stroke-linejoin="round"/></symbol><symbol id="answerquestions" viewBox="0 0 100 100"><path d="M23.224 18.057h55.552c4.542 0 8.224 3.688 8.224 8.226v39.092a8.225 8.225 0 0 1-8.224 8.225H57.17L51 85.943 44.829 73.6H23.224C18.682 73.6 15 69.913 15 65.375V26.283a8.225 8.225 0 0 1 8.224-8.226zM41.53 34.682c.892-1.81 2.11-2.83 3.676-3.747 1.565-.917 3.281-1.376 5.147-1.376 2.814 0 5.226 1.004 7.234 3.013 2.008 2.008 3.012 4.371 3.012 7.091 0 2.72-.878 5.052-2.633 6.997-1.755 1.945-4.913 3.06-7.475 3.344v5.076l.002 1.201M50.5 62v.5" fill="none" stroke="#000" stroke-width="3" stroke-linecap="round" stroke-linejoin="round"/></symbol><symbol id="createfreecontent" viewBox="0 0 99 101"><title>createfreecontent</title><g fill="#FFF" fill-rule="evenodd"><path d="M8.669 16.455h5.381v64.568H8.669zM16.145 8.981h64.568v5.381H16.145zM84.6 18.248h5.383v25.708H84.6zM16.442 85.509H42.15v5.38H16.442z"/><path d="M19.131 20.041H0V.91h19.131v19.131zM3.587 16.454h11.958V4.497H3.587v11.957zM19.131 97.765H0v-19.13h19.131v19.13zM3.587 94.179h11.958V82.222H3.587v11.957zM98.051 19.443H78.92V.311h19.131v19.132zm-15.543-3.588h11.957V3.899H82.508v11.956zM64.551 53.134v-5.715a3.446 3.446 0 0 1 3.443-3.441 3.444 3.444 0 0 1 3.439 3.441v5.715h4.766v-5.715c0-4.524-3.682-8.207-8.205-8.207-4.527 0-8.209 3.683-8.209 8.207v5.715h4.766z"/><path d="M76.219 53.134a3.442 3.442 0 0 1 3.432-3.333 3.44 3.44 0 0 1 3.432 3.333h4.764c-.059-4.473-3.709-8.097-8.195-8.097-4.486 0-8.137 3.624-8.195 8.097h4.762z"/><path d="M87.262 58.035c.34-1.923 2.072-3.254 3.932-2.983 1.857.272 3.137 2.045 2.912 3.982l4.756.695c.623-4.683-2.465-9.001-6.943-9.655-4.475-.655-8.061 2.092-8.801 6.759l4.144 1.202zM56.346 18.563c-4.527 0-8.208 3.643-8.208 8.116v37.7c0 1.089.234 2.611.629 3.557l4.136 3.178.002-6.734V26.679c0-1.876 1.543-3.402 3.441-3.402 1.896 0 3.439 1.526 3.439 3.402v24.612h4.766V26.679c0-4.473-3.682-8.116-8.205-8.116z"/><path d="M34.485 60.912a3.568 3.568 0 0 1 2.712-1.229c.839 0 1.625.276 2.27.806l10.26 8.373v-6.217l-7.114-5.811a8.583 8.583 0 0 0-5.416-1.917c-2.5 0-4.857 1.067-6.463 2.935-2.986 3.464-2.519 8.651 1.043 11.559l25.842 21.097V84.29L34.924 65.761a3.382 3.382 0 0 1-.439-4.849z"/><path d="M88.379 100.103H52.904V85.807h4.766v9.531h25.943v-8.647l10.971-28.855 4.277 1.893-10.482 27.838v12.536z"/></g></symbol><symbol id="studygroup" viewBox="0 0 100 100"><title>studygroup</title><g fill="#FFF" fill-rule="evenodd"><path d="M50 36.1c6.1 0 11.5-2.8 15-7.2-1.8-4.4-5.4-7.8-10-9.3 3.2-1.8 5.4-5.2 5.4-9.2C60.4 4.7 55.8 0 50 0c-5.8 0-10.4 4.7-10.4 10.4 0 3.9 2.2 7.4 5.4 9.2-4.5 1.5-8.2 4.9-10 9.3 3.5 4.4 8.9 7.2 15 7.2zM85 99.6c6.1 0 11.5-2.8 15-7.2-1.8-4.4-5.4-7.8-10-9.3 3.2-1.8 5.4-5.2 5.4-9.2 0-5.8-4.7-10.4-10.4-10.4-5.8 0-10.4 4.7-10.4 10.4 0 3.9 2.2 7.4 5.4 9.2-4.5 1.5-8.2 4.9-10 9.3 3.5 4.4 8.9 7.2 15 7.2zM15 99.6c6.1 0 11.5-2.8 15-7.2-1.8-4.4-5.4-7.8-10-9.3 3.2-1.8 5.4-5.2 5.4-9.2 0-5.8-4.7-10.4-10.4-10.4-5.8 0-10.4 4.7-10.4 10.5 0 3.9 2.2 7.4 5.4 9.2-4.6 1.4-8.2 4.8-10 9.2 3.5 4.4 8.9 7.2 15 7.2zM66.328 38.381l11.316 20.024-4.353 2.46L61.975 40.84l4.353-2.46zM33.698 38.352l4.352 2.461-11.323 20.02-4.352-2.462 11.323-20.02zM30 69.6h40v5H30z"/></g></symbol><symbol id="tutoring" viewBox="0 0 418 366"><title>tutoring</title><g fill="#FFF" fill-rule="evenodd"><path d="M237.2 63.5c-2.9 0-5.3-2.4-5.8-5.3 0 0-.5-11.5-2.9-22.6-2.9-13.9-10.1-22.6-10.1-22.6-1.9-2.4-1.4-5.8 1-7.7 2.4-1.9 5.8-1.4 7.7 1 .5.5 8.6 10.6 12.5 27.4 2.4 12 2.9 24 2.9 24.5.5 2.9-1.9 5.3-5.3 5.3z"/><path d="M290 251.7l-6.7-8.6c2.9-1.9 5.3-4.3 7.7-6.7 17.3-18.7 46.6-60 43.7-97.4-3.4-46.1-30.7-60.5-52.8-63.8-20.2-3.4-28.3 1-35 4.3-2.9 1.4-6.2 3.4-9.6 3.8h-2c-3.8-.5-6.7-2.4-9.6-3.8-6.7-3.4-14.4-7.7-35-4.3C168.1 79 140.8 93 137.9 139c-1.9 28.8 15.4 59 25.4 74.4l-9.1 5.8c-11-16.3-29.8-49-27.4-81.6 3.8-56.2 40.8-70.6 62.4-74.4 24-3.8 34.1 1.4 41.8 5.3 1.9 1 3.8 1.9 5.3 2.4 1.4-.5 3.4-1.4 5.3-2.4 7.7-3.8 17.8-9.6 41.8-5.3 21.6 3.4 58.6 18.2 62.4 74.4 1.4 18.2-3.8 38.4-14.9 60-8.2 15.8-19.7 32.6-32.2 45.6-2.4 3.2-5.3 6.1-8.7 8.5z"/><path d="M163.3 127.8l-11-2.9c1-2.9 1.9-6.2 2.9-8.6l10.1 4.3c-.5 2-1.5 4.4-2 7.2zm5.8-13.9l-9.1-6.2c1.9-2.9 3.8-5.3 6.2-7.7l7.7 7.7c-1.9 1.9-3.4 3.8-4.8 6.2zm10.1-10.5l-5.8-9.1c2.4-1.4 5.3-3.4 8.2-4.3l4.3 10.1c-2.4.9-4.3 2.3-6.7 3.3zm13.9-5.8L190.2 87c2.9-1 5.8-1.4 8.6-1.9l1.9 11c-2.3.1-5.2 1-7.6 1.5zM162.8 309.8l-.5-11c12-.5 33.6-9.6 40.8-13l1-.5h86.4c8.2 0 14.4-7.2 14.4-15.8 0-8.6-6.7-15.8-14.4-15.8h-89.8l-1.4-2.9c-.5-1-17.8-28.8-64.3-34.6-52.8-6.7-86.9 15.8-86.9 16.3L7.3 259.4l-6.7-9.1 40.8-26.9c2.4-1.4 37.9-25.4 94.6-18.2 44.2 5.8 64.8 29.3 71 37h83.5c13.9 0 25.4 12 25.4 26.9 0 14.9-11.5 26.9-25.4 26.9H207c-5.8 2.7-29.3 13.3-44.2 13.8z"/><path d="M49.6 365.9l-6.2-9.1 39.4-26.4c1.9-1.4 11.5-7.7 25.9-4.8 9.1 1.9 76.3 13.4 77.3 13.4.5 0 34.6 5.3 44.6 5.3 5.3 0 24.5-5.8 90.7-57.6 36-28.3 68.2-56.6 70.6-58.6 7.2-7.2 13.9-15.8 14.9-19.2-3.4-3.4-12.5-9.1-28.3.5-19.2 11.5-75.4 44.6-75.8 45.1l-5.8-9.6c.5-.5 56.6-33.1 75.8-44.6 25.9-15.8 40.8-.5 43.2 2.9 5.3 6.2-.5 14.9-6.2 22.1-4.8 6.2-10.1 11-10.1 11.5l-.5.5c0-.5-33.6 28.8-70.6 58.1-76.3 60-92.6 60-97.4 60-11 0-45.1-5.3-46.6-5.3-2.9-.5-68.2-11.5-77.8-13.4-10.6-2.4-16.8 2.4-17.3 2.9l-.5.5-39.3 25.8z"/><path d="M311.6 227.7l-5.8-9.6c20.6-12 35.5-21.1 43.2-25.4 25.9-15.8 40.8-.5 43.2 2.9l-8.6 7.2c-2.4-2.9-11.5-11-29.3-.5-9.5 5.7-30.7 18.2-42.7 25.4z"/><path d="M352 198.9c-1.9-1.9-8.2-8.2-20.2-4.8l-3.4-10.6c14.4-4.3 25.9 1.4 31.7 8.2l-8.1 7.2zM255 53c-2.9 0-5.8 0-7.2-2.4-1-1-1-2.4-1-3.8v-.5c0-14.9 3.8-26.9 11.5-34.6C268.9 1.1 285.2.2 291.4.2h2.9c2.9 0 4.8 2.4 5.3 5.3 0 1 1.4 22.6-11.5 36C276.6 52 260.3 53 255 53zm-7.7-7.7c0 .5 0 1-.5 1 0-.1 0-.5.5-1zm40.8-34.1c-5.8.5-15.8 1.9-22.1 8.2-4.8 4.8-7.7 12.5-8.2 22.1 5.3-.5 15.4-1.9 21.6-8.6 6.8-5.9 8.2-15.5 8.7-21.7z"/></g></symbol><symbol id="tutorpeers" viewBox="0 0 100 100"><path d="M75 50H50V25m0 61c19.882 0 36-16.118 36-36S69.882 14 50 14 14 30.118 14 50s16.118 36 36 36z" fill="none" stroke="#000" stroke-width="3" stroke-linecap="round" stroke-linejoin="round"/></symbol><symbol id="video-outline" viewBox="0 0 100 100"><path d="M15 24.993A7.994 7.994 0 0 1 22.996 17h54.008C81.42 17 85 20.59 85 24.993V60.34a7.994 7.994 0 0 1-7.996 7.992H22.996c-4.416 0-7.996-3.589-7.996-7.992V24.993zm.933 34.94h68.6m-39.2 8.4v9.334m9.334-9.334v9.334M32.733 80a2.338 2.338 0 0 1 2.333-2.333h29.868A2.327 2.327 0 0 1 67.267 80a2.338 2.338 0 0 1-2.333 2.333H35.066A2.327 2.327 0 0 1 32.733 80zm.64-21.933c.716-6.204 4.367-11.423 9.7-13.883a10.852 10.852 0 0 1-3.427-7.914c0-5.994 4.854-10.87 10.82-10.87 5.967 0 10.821 4.876 10.821 10.87 0 3.12-1.323 5.93-3.427 7.914 5.333 2.46 8.985 7.68 9.7 13.883" fill="none" stroke="#000" stroke-width="3" stroke-linecap="round" stroke-linejoin="round"/></symbol><symbol id="brownie" viewBox="0 0 30 30"><title>food_025-hot_platter-serve-dinner-restaurant-dish-tray</title><g fill="#000" fill-rule="evenodd"><path d="M26 25c0-6.075-4.925-11-11-11S4 18.925 4 25v2.5a.5.5 0 0 0 .5.5h21a.5.5 0 0 0 .5-.5V25z"/><path d="M1.303 26.724C1.697 27.512 2.429 28 3.5 28h23c1.071 0 1.803-.488 2.197-1.276.229-.457.303-.903.303-1.224a.5.5 0 1 0-1 0c0 .18-.05.483-.197.776-.23.462-.624.724-1.303.724h-23c-.679 0-1.072-.262-1.303-.724A1.863 1.863 0 0 1 2 25.5a.5.5 0 0 0-1 0c0 .32.074.767.303 1.224z"/><path d="M7.303 28.724C7.697 29.512 8.429 30 9.5 30h11c1.071 0 1.803-.488 2.197-1.276.229-.457.303-.903.303-1.224h-.5c.5-.276.276-.5 0-.5a.5.5 0 0 0-.5.5h.5c-.5.18-.55.483-.697.776-.23.462-.624.724-1.303.724h-11c-.679 0-1.072-.262-1.303-.724A1.863 1.863 0 0 1 8 27.5a.5.5 0 0 0-1 0c0 .32.074.767.303 1.224zM17 14a2 2 0 1 0-4 0v.5a.5.5 0 1 0 1 0V14a1 1 0 0 1 2 0v.5a.5.5 0 1 0 1 0V14zM10.646 3.522C10.247 3.92 10 4.415 10 5s.247 1.08.646 1.479c.231.23.461.384.63.468.081.04.226.137.37.282.226.226.354.48.354.771 0 .29-.128.546-.354.772a1.58 1.58 0 0 1-.37.28.5.5 0 0 0 .448.895c.169-.084.399-.238.63-.468.399-.4.646-.894.646-1.479 0-.585-.247-1.08-.646-1.478-.231-.231-.461-.385-.63-.47a1.58 1.58 0 0 1-.37-.28C11.128 5.546 11 5.29 11 5c0-.29.128-.545.354-.771.144-.145.289-.241.37-.282a.5.5 0 0 0-.448-.894c-.169.084-.399.238-.63.469zM17.646 3.522C17.247 3.92 17 4.415 17 5s.247 1.08.646 1.479c.231.23.461.384.63.468.081.04.226.137.37.282.226.226.354.48.354.771 0 .29-.128.546-.354.772a1.58 1.58 0 0 1-.37.28.5.5 0 0 0 .448.895c.169-.084.399-.238.63-.468.399-.4.646-.894.646-1.479 0-.585-.247-1.08-.646-1.478-.231-.231-.461-.385-.63-.47a1.58 1.58 0 0 1-.37-.28C18.128 5.546 18 5.29 18 5c0-.29.128-.545.354-.771.144-.145.289-.241.37-.282a.5.5 0 0 0-.448-.894c-.169.084-.399.238-.63.469zM15.146 1.229c.226.226.354.48.354.771 0 .29-.128.546-.354.772a1.58 1.58 0 0 1-.37.28c-.169.085-.399.239-.63.47-.399.399-.646.893-.646 1.478s.247 1.08.646 1.479c.231.23.461.384.63.468.081.04.226.137.37.282.226.226.354.48.354.771 0 .29-.128.546-.354.772a1.58 1.58 0 0 1-.37.28.5.5 0 0 0 .448.895c.169-.084.399-.238.63-.468.399-.4.646-.894.646-1.479 0-.585-.247-1.08-.646-1.478-.231-.231-.461-.385-.63-.47a1.58 1.58 0 0 1-.37-.28C14.628 5.546 14.5 5.29 14.5 5c0-.29.128-.545.354-.771.144-.145.289-.241.37-.282.169-.084.399-.238.63-.468.399-.4.646-.894.646-1.479 0-.585-.247-1.08-.646-1.478-.231-.231-.461-.385-.63-.47a.5.5 0 1 0-.448.895c.081.04.226.137.37.282z"/></g></symbol><symbol id="cake" viewBox="0 0 100 100"><path d="M77.408 86H23.662A4.667 4.667 0 0 1 19 81.32a4.667 4.667 0 0 1 4.662-4.68h53.746a4.667 4.667 0 0 1 4.662 4.68c0 2.588-2.139 4.68-4.662 4.68zM23.894 74.763V53.842c0-1.432.438-2.863 1.206-4.074a7.474 7.474 0 0 1 6.307-3.469h37.897c2.468 0 4.772 1.211 6.197 3.303.823 1.267 1.317 2.698 1.317 4.24v20.92M50.896 62.65a5.833 5.833 0 0 1-3.73-1.32c-.877-.717-1.535-1.653-2.193-2.533-.713-.991-1.426-1.872-2.249-2.478-.658-.44-1.37-.716-2.139-.716-.932 0-1.81.386-2.468 1.046-.438.496-.822 1.102-1.261 1.707-.384.66-.823 1.321-1.371 1.872-.823.88-1.92 1.376-2.962 1.431-1.042.056-2.029-.33-2.687-1.156-.548-.66-.878-1.596-1.152-2.367-.493-1.376-1.206-3.469-1.92-5.56l-.877-2.588a.537.537 0 0 1 .055-.496 6.898 6.898 0 0 1 5.813-3.193h37.897c2.304 0 4.443 1.156 5.759 3.028.11.165.11.33.055.496a59.172 59.172 0 0 1-.713 2.367c-.549 2.147-1.152 4.184-2.633 5.23a3.316 3.316 0 0 1-1.92.606c-1.096.11-2.467-.55-3.564-1.652l-.439-.44c-.384-.386-.713-.771-1.097-.991-.767-.496-1.645-.44-2.468-.44-1.261.054-2.468.11-3.345 1.045-.384.386-.713.936-.987 1.542-.11.165-.165.33-.274.495-1.262 2.203-2.962 3.854-4.827 4.625a6.584 6.584 0 0 1-2.303.44zM34.225 25.745c-2.422 0-4.459-1.93-4.459-4.344 0-2.038 2.973-6.167 3.523-6.972.22-.268.55-.429.881-.429.33 0 .716.16.88.429.606.805 3.524 4.934 3.524 6.972.055 2.413-1.927 4.344-4.349 4.344zm16.639 0c-2.422 0-4.46-1.93-4.46-4.344 0-2.038 2.973-6.167 3.524-6.972.22-.268.55-.429.88-.429.33 0 .716.16.881.429.606.805 3.523 4.934 3.523 6.972.055 2.413-1.926 4.344-4.348 4.344zm16.638 0c-2.422 0-4.458-1.93-4.458-4.344 0-2.038 2.972-6.167 3.523-6.972.22-.268.55-.429.88-.429.33 0 .716.16.881.429.606.805 3.523 4.934 3.523 6.972.055 2.413-1.927 4.344-4.349 4.344zM31.696 46.3c-.523 0-.951-.361-.951-.803V31.442c0-.442.428-.803.951-.803h4.945c.524 0 .952.361.952.803v14.054c.047.442-.38.803-.904.803h-4.993zm16.639 0c-.523 0-.951-.361-.951-.803V31.442c0-.442.428-.803.95-.803h4.946c.523 0 .951.361.951.803v14.054c.048.442-.38.803-.903.803h-4.993zm16.638 0c-.523 0-.95-.361-.95-.803V31.442c0-.442.427-.803.95-.803h4.946c.523 0 .95.361.95.803v14.054c.048.442-.38.803-.903.803h-4.993z" fill="none" stroke="#000" stroke-width="3" stroke-linecap="round" stroke-linejoin="round"/></symbol><symbol id="coffee" viewBox="0 0 100 100"><path d="M69.742 43.778l1.24-10.561a.867.867 0 0 0-.88-.995H30.12c-.553 0-.944.445-.88.995l1.239 10.56h39.262zm-2.919 24.889l-1.447 12.339c-.064.549-.568.994-1.125.994h-28.28c-.557 0-1.06-.446-1.125-.994L33.4 68.666h33.424zM25.02 23.417c.135-.537.7-.973 1.248-.973h47.113c.554 0 1.112.433 1.248.974l1.967 7.83c.135.538-.206.974-.763.974H23.816c-.556 0-.898-.433-.763-.973l1.967-7.831zm7.02-4.474c.192-.521.798-.943 1.345-.943h32.562c.55 0 1.154.426 1.345.943l.948 2.559c.193.52-.102.942-.644.942h-35.86c-.549 0-.835-.426-.644-.942l.947-2.56zm-3.691 25.826a.882.882 0 0 1 .894-.991H70.98c.55 0 .95.453.895.99l-2.322 22.908a1.127 1.127 0 0 1-1.096.99h-36.69c-.55 0-1.041-.453-1.096-.99L28.35 44.769z" fill="none" stroke="#000" stroke-width="3" stroke-linecap="round" stroke-linejoin="round"/></symbol><symbol id="cookie" viewBox="0 0 100 100"><path d="M43.572 14.572A36.214 36.214 0 0 1 50 14c19.882 0 36 16.118 36 36S69.882 86 50 86 14 69.882 14 50c0-.876.031-1.745.093-2.605a8 8 0 0 0 13.58-7.665 8 8 0 0 0 12.066-8.764 8.5 8.5 0 0 0 3.833-16.394zM31.5 63a4.5 4.5 0 1 0 0-9 4.5 4.5 0 0 0 0 9zm20-7a4.5 4.5 0 1 0 0-9 4.5 4.5 0 0 0 0 9zm-7 23a4.5 4.5 0 1 0 0-9 4.5 4.5 0 0 0 0 9zm23-7a4.5 4.5 0 1 0 0-9 4.5 4.5 0 0 0 0 9zm-8-33a4.5 4.5 0 1 0 0-9 4.5 4.5 0 0 0 0 9zm16 11a4.5 4.5 0 1 0 0-9 4.5 4.5 0 0 0 0 9z" fill="none" stroke="#000" stroke-width="3" stroke-linecap="round" stroke-linejoin="round"/></symbol><symbol id="cupcake" viewBox="0 0 100 100"><path d="M77.074 48.847c1.12-1.13 1.913-2.665 1.913-5.082 0-4.156-3.224-7.542-7.205-7.589a5.998 5.998 0 0 0 .312-1.914c0-3.283-2.636-5.953-5.878-5.953h-.205v-.738c0-.197-.035-.394-.105-.58-1.523-4.093-4.442-4.48-6.374-4.736-1.673-.22-2.365-.312-2.87-1.836C54.81 14.834 50.936 14 48.792 14c-1.89 0-3.33.61-3.488.679-.719.316-1.088 1.092-.926 1.861.154.732.802 1.264 1.541 1.314.271.291.624 1.483.186 2.81-.352 1.065-1.278 2.333-3.699 2.333l-.43-.004c-2.836 0-4.869.811-6.039 2.41-.706.961-.947 2.01-.991 2.905h-1.644c-3.242 0-5.879 2.67-5.879 5.952 0 .662.11 1.306.312 1.915-3.98.046-7.205 3.433-7.205 7.589 0 3.262.965 4.198 2.267 5.386-.904.724-1.763 2.093-1.879 4.636-.703.36-1.087 1.158-.846 1.94l8.021 25.994c.652 2.11 2.974 3.821 5.184 3.821h33.752c2.211 0 4.531-1.71 5.183-3.821l8.021-25.994c.249-.778-.134-1.575-.834-1.936-.131-2.781-1.21-4.25-2.325-4.943zm-55.99 6.38H79.67M39.872 36.378l4.449-1.112m6.672-5.56l2.224 2.224M49.88 44.163l3.336-3.336m-14.457 5.56l-3.336-3.336m26.69-3.336l3.335 3.336M50.148 55.818v28.979m10.297-29.378L57.11 85.444M39.872 55.419l3.337 30.025m-13.372-30.08l6.7 30.053M70.48 55.365l-6.7 30.052" fill="none" stroke="#000" stroke-width="3" stroke-linecap="round" stroke-linejoin="round"/></symbol><symbol id="delicious" viewBox="0 0 38 48"><title>Shape</title><path d="M34.2 10.4c1.8 0 3.1-1.301 3.1-3 0-1.101-.5-2-1.3-2.5C31.101 1.8 25.3 0 19 0 13 0 6.9 1.8 2.5 4.6 1.4 5.1.7 6.1.7 7.401c0 1.699 1.3 3 3.1 3L17.2 46.8c.2.601.9 1.2 1.8 1.2s1.601-.6 1.8-1.2l13.4-36.4zM19 45.8L5.601 9.6C9.9 7.2 14 6 19 6s9.101 1.2 13.4 3.6L19 45.8zM4.3 8.2c-.199.1-.399.2-.6.2-.6 0-1-.4-1-1 0-.5.2-.7.5-.9C9.5 2.6 15.2 2 19 2c3.8 0 9.5.6 15.8 4.5.301.2.601.4.601.9 0 .6-.5 1-1.101 1-.199 0-.399-.101-.6-.2C29.101 5.3 24 4 19 4S8.9 5.3 4.3 8.2zM11 12c0-.6.4-1 1-1 .601 0 1 .4 1 1s-.399 1-1 1c-.6 0-1-.4-1-1zm-2 0c0 1.7 1.3 3 3 3s3-1.3 3-3-1.3-3-3-3-3 1.3-3 3zm9 17c0 1.1.9 2 2 2 1.101 0 2-.9 2-2s-.899-2-2-2c-1.1 0-2 .9-2 2zm5-6c0 .6.4 1 1 1 .601 0 1-.4 1-1v-1c0-.6-.399-1-1-1-.6 0-1 .4-1 1v1zm-7.8 1.6c.2.2.4.301.7.301.2 0 .5-.101.7-.301.2-.2.3-.4.3-.7 0-.2-.101-.5-.3-.7l-1.8-1.8a1.08 1.08 0 0 0-.699-.301c-.301 0-.5.101-.7.301-.2.199-.3.5-.3.699 0 .301.1.5.3.7L15.2 24.6zM18 36c0 .6.4 1 1 1 .601 0 1-.4 1-1v-1c0-.6-.399-1-1-1-.6 0-1 .4-1 1v1zm9.601-24.2c.199-.2.3-.399.3-.7 0-.199-.101-.5-.3-.699-.2-.2-.4-.301-.7-.301-.2 0-.5.101-.7.301l-1.8 1.8c-.2.2-.3.5-.3.7 0 .3.1.5.3.699.2.2.5.301.7.301.3 0 .5-.101.699-.301l1.801-1.8zM22 18c0-1.7-1.3-3-3-3-1.6 0-3 1.3-3 3 0 .6.4 1 1 1 .4 0 .9-.2 1-.5v.5c0 .6.4 1 1 1 .601 0 1-.4 1-1v-.5c.101.4.601.5 1 .5.601 0 1-.4 1-1zm-3-8c0 .6.4 1 1 1 .601 0 1-.4 1-1s-.399-1-1-1c-.6 0-1 .4-1 1z" fill="#FFF" fill-rule="evenodd"/></symbol><symbol id="donut" viewBox="0 0 100 100"><path d="M50 86c19.882 0 36-16.118 36-36S69.882 14 50 14 14 30.118 14 50s16.118 36 36 36zm0-24c6.627 0 12-5.373 12-12s-5.373-12-12-12-12 5.373-12 12 5.373 12 12 12z" fill="none" stroke="#000" stroke-width="3" stroke-linecap="round" stroke-linejoin="round"/></symbol><symbol id="flan" viewBox="0 0 100 100"><path d="M17.645 78.26c-2.209 0-3.834-1.78-3.631-3.977l3.333-35.976c0-1.766.542-3.532 1.49-5.027A9.222 9.222 0 0 1 26.618 29H73.38c3.046 0 5.888 1.495 7.648 4.076 1.015 1.563 1.624 3.329 1.624 5.231l3.333 35.976c.204 2.197-1.429 3.977-3.631 3.977h-64.71zM50.72 49.177c-1.692 0-3.248-.544-4.602-1.63-1.083-.884-1.895-2.039-2.707-3.126-.88-1.223-1.76-2.31-2.774-3.057-.812-.543-1.692-.883-2.64-.883-1.15 0-2.233.476-3.045 1.29-.541.612-1.015 1.36-1.557 2.107-.473.815-1.015 1.63-1.691 2.31-1.015 1.087-2.369 1.698-3.655 1.766-1.286.068-2.504-.408-3.316-1.427-.677-.815-1.083-1.97-1.42-2.92-.61-1.7-1.49-4.28-2.37-6.862l-1.082-3.193c-.068-.204-.068-.408.067-.612A8.512 8.512 0 0 1 27.101 29h46.763c2.842 0 5.481 1.427 7.105 3.736.136.204.136.408.068.612a73.015 73.015 0 0 1-.88 2.921c-.677 2.65-1.42 5.163-3.248 6.454a4.091 4.091 0 0 1-2.369.747c-1.353.136-3.045-.68-4.399-2.038l-.54-.543c-.475-.476-.88-.951-1.354-1.223-.948-.612-2.03-.544-3.046-.544-1.556.068-3.045.136-4.128 1.291-.474.476-.88 1.155-1.218 1.902-.135.204-.203.408-.338.612-1.557 2.717-3.655 4.755-5.956 5.706-.88.34-1.895.544-2.842.544z" fill="none" stroke="#000" stroke-width="3" stroke-linecap="round" stroke-linejoin="round"/></symbol><symbol id="interview" viewBox="0 0 95 83"><title>interview</title><g fill="#FFF" fill-rule="evenodd"><path d="M64.569 20.927c-.293-1.964-1.166-3.709-2.692-5.164C60.06 13.944 57.876 13 55.332 13c-2.544 0-4.728.944-6.545 2.764-1.454 1.455-2.328 3.2-2.545 5.164-.074.436-.146.872-.146 1.309 0 2.544.874 4.727 2.691 6.545 1.817 1.819 4.001 2.764 6.545 2.764 2.544 0 4.728-.945 6.545-2.764 1.163-1.165 1.964-2.473 2.399-3.927.219-.802.293-1.674.293-2.618v-1.31z"/><path d="M89.439 35.835v6.909L65.296 26.308l-5.672 14.037c-.365-2.11-.945-4.509-1.673-7.201l-7.927-.145 6.18 17.454H33.442v4.29h32.435v-4.29h-3.126l6.182-12.219 1.235.728-4.511 9.164 10.765 5.673-9.599.071v28.219h11.709V60.852h7.417v15.999h-5.382v5.237h14.327v-5.237h-5.455V60.852h5.455V30.38l-5.455 5.455z"/><path d="M66.969 50.234h.071l-.217-.072v.072h.146zM63.187 82.088V56.78H35.77v25.308h27.417zM22.68 9.508c0-2.618-.946-4.871-2.766-6.69C18.533 1.437 16.861.564 14.897.273c-.509-.072-1.018-.146-1.6-.146-.509 0-1.017.074-1.527.146-1.963.291-3.635 1.164-5.09 2.545-1.819 1.819-2.764 4.072-2.764 6.69 0 2.546.945 4.8 2.764 6.619s4.073 2.764 6.618 2.764c2.619 0 4.8-.945 6.617-2.764 1.818-1.819 2.765-4.073 2.765-6.619zM16.933 20.782H9.952c-2.689 0-4.29 1.018-4.945 3.126-.072.292-.146.655-.219 1.019v11.198l-4-3.998v29.598h4.291v16.072H2.607v4.654h9.818v-4.654H9.807V61.725h13.672v20.727h8.872V55.834c-.29-1.965-1.162-3.2-2.689-3.637a3.39 3.39 0 0 0-1.238-.217H22.17V24.926c-.364-2.763-2.109-4.144-5.237-4.144z"/></g></symbol><symbol id="programming" viewBox="0 0 100 64"><title>Shape</title><path d="M97.938 50.771h-6.316V2.81A2.022 2.022 0 0 0 89.601.789H10.399A2.022 2.022 0 0 0 8.378 2.81v47.961H2.062A2.062 2.062 0 0 0 0 52.832v2.084c0 .103.008.204.022.306.527 3.521 3.348 7.447 7.159 7.922.083.01.169.017.252.017l84.51.071h.003c4.404 0 7.604-4.197 8.041-8.085.009-.075.013-.152.013-.23v-2.084a2.062 2.062 0 0 0-2.062-2.062zM12.42 4.831h75.16V50.77H59.985c-.133 0-.262.016-.386.04H41.16a2.07 2.07 0 0 0-.396-.04H12.42V4.831zm79.528 54.276l-84.362-.071c-1.461-.261-3.024-2.16-3.434-4.143h35.086c.702 1.246 2.017 2.085 3.519 2.085H57.99c1.502 0 2.816-.839 3.52-2.085h34.35c-.322 2.033-2.006 4.214-3.912 4.214zM38.84 19.498a2.083 2.083 0 0 0-2.947 0l-8.689 8.689a2.085 2.085 0 0 0 0 2.948l8.689 8.688a2.08 2.08 0 0 0 2.948 0 2.083 2.083 0 0 0 0-2.947l-7.216-7.215 7.216-7.216a2.084 2.084 0 0 0-.001-2.947zm20.521 20.325a2.081 2.081 0 0 0 2.948 0l8.688-8.688a2.085 2.085 0 0 0 0-2.948l-8.688-8.689a2.083 2.083 0 1 0-2.947 2.947l7.215 7.216-7.215 7.215a2.083 2.083 0 0 0-.001 2.947zm-17.568 4.452a2.085 2.085 0 0 0 2.797-.932l12.506-25.011a2.083 2.083 0 0 0-.933-2.796 2.087 2.087 0 0 0-2.797.932L40.861 41.479a2.083 2.083 0 0 0 .932 2.796z" fill="#FFF" fill-rule="evenodd"/></symbol><symbol id="resume" viewBox="0 0 74 88"><g fill="#FFF" fill-rule="evenodd"><path d="M15.513 48.008v1.998H47.19v-1.998H15.513zM15.513 55.82v1.997h27.232a19.492 19.492 0 0 1 2.17-1.998H15.513z"/><path d="M.35.196v82h40.74a19.365 19.365 0 0 1-1.263-2H2.351v-78h58v49.795c.68.125 1.347.28 2 .473V.196h-62z"/><path d="M15.513 63.63v1.998h22.773c.198-.681.425-1.35.694-1.998H15.513zM56.864 54.231A16.786 16.786 0 0 0 40.079 71.02c0 9.27 7.515 16.784 16.785 16.785 9.27 0 16.785-7.515 16.785-16.785A16.786 16.786 0 0 0 56.864 54.23zm3.625 9.538l3.625 3.625-9.063 9.062-5.437 1.813 1.813-5.438 9.062-9.062zM31.35 16.73L20.018 22.4v14.16l11.334 5.67 11.334-5.67V22.4L31.35 16.73zm0 2.236l9.337 4.67v11.687l-9.336 4.67-9.336-4.67V23.636l9.336-4.67zm0 2.933l-3.583 1.793v3.82l3.584 1.794.447-.225 3.137-1.568v-3.82l-3.584-1.794zm0 2.237l1.585.793v1.347l-1.584.793-1.584-.793V24.93l1.584-.793zm-6.167 5.344v4.496l6.168 3.084 6.168-3.084V29.48h-2v3.26l-4.168 2.083-4.168-2.084v-3.26h-2z"/></g></symbol><symbol id="skillbuilding1" viewBox="0 0 36 59"><title>skillbuilding1</title><g fill="#FFF" fill-rule="evenodd"><path d="M33 59H1V42h32v17zM3 57h28V44H3v13z"/><path d="M33 44H1V27h32v17zM3 42h28V29H3v13z"/><path d="M12 29H7a1 1 0 0 1-1-1v-2.5a1 1 0 0 1 1-1h5a1 1 0 0 1 1 1V28a1 1 0 0 1-1 1zm-4-2h3v-.5H8v.5zM27 29h-5a1 1 0 0 1-1-1v-2.5a1 1 0 0 1 1-1h5a1 1 0 0 1 1 1V28a1 1 0 0 1-1 1zm-4-2h3v-.5h-3v.5zM32.341 24.16L.84 18.535 3.828 1.8l31.501 5.625-2.988 16.735zM3.16 16.918l27.563 4.922 2.285-12.798L5.445 4.12 3.16 16.918z"/><path d="M14.48 5.718a.952.952 0 0 1-.176-.016l-4.922-.879a1 1 0 0 1-.809-1.16l.439-2.461a.998.998 0 0 1 1.161-.809l4.922.879a1 1 0 0 1 .809 1.16l-.439 2.461a.998.998 0 0 1-.985.825zM10.719 3.03l2.953.527.088-.492-2.953-.527-.088.492zM29.247 8.354a.952.952 0 0 1-.176-.016l-4.922-.879a1 1 0 0 1-.809-1.16l.438-2.461a1 1 0 0 1 1.16-.809l4.922.879a1 1 0 0 1 .809 1.16l-.438 2.461a1 1 0 0 1-.984.825zm-3.762-2.687l2.953.527.087-.492-2.953-.527-.087.492z"/></g></symbol><symbol id="skillbuilding2" viewBox="0 0 89 90"><title>skillbuilding2</title><g fill="#FFF" fill-rule="evenodd"><path d="M41.9 50.7c3-2.6 5.3-5.9 6.8-9.7l.3-.6c2.1-4.8 4-16 .8-23.2C45.9 8.3 34.6 4 30.8 3.3c-.5-.1-1.1-.3-1.1-.3L30 .4l-1.7 2.1L24.9.4l1.3 2.4S9.7 3.1 3 15.2C-1.7 23.7.5 37 3.3 41.6c1.5 3.8 4 7.1 7.1 9.6-1.5 1.3-2.8 2.8-3.9 4.5-3.1 5-4.6 11.9-4.6 21.8 0 1.5 1.5 1.9 3.6 2.5.4.1 1.1.3 1.5.5.8 9.2 8.9 9.2 16 9.2h3.2c9.8 0 18.3 0 19.3-9.2.4-.1 1-.3 1.4-.4 2.1-.6 3.6-1 3.6-2.5 0-11-1.3-21.3-8.6-26.9zM4.6 34.1c1-1.1 2.3-2.4 3-3.5.8-1.2 1.5-3.1 2-4.5 3.5 3.2 9.3 7.6 15 8.5 9 1.4 16 .6 16 .6l-3-2.1s6.8 2.2 7.9 2.2c.6 0 1.2-.1 1.6-.2-1.4 10.5-10.4 18.5-21.2 18.5-11.2.1-20.4-8.6-21.3-19.5zm29.6 21.2l1.7 1.9-1.9 1.5c-.4.3-.5.9-.2 1.3l1.1 1.9-5.6 7.2c.9-2.5 1.7-5.1 2-6.4.5-2.8.9-5.6 1-6.8.4-.1.9-.3 1.3-.4l.6-.2zm-16.4 3.4l-1.9-1.5 1.7-1.9.9.2c.3.1.6.2 1 .3.1 1.3.5 4.1 1 6.9.3 1.3 1.1 3.9 2 6.4l-5.6-7.2L18 60c.3-.5.2-1-.2-1.3zm4.1.1l1.3-1v.1l.5 1c.9 1.6.8 1.1.4 2.8l-.9 3.6c-.4-1.2-.7-2.2-.8-2.9-.1-1.3-.3-2.5-.5-3.6zm-.1-1.1c-.1-.5-.1-1-.2-1.4.5.1 1.1.2 1.6.2l-1.4 1.2zm6.2 1.1l.5-1v-.1l1.3 1c-.2 1.1-.4 2.3-.6 3.5-.1.7-.4 1.7-.8 2.9l-.9-3.6c-.3-1.6-.4-1 .5-2.7zm.6-2.3c.5-.1 1.1-.1 1.6-.2 0 .4-.1.8-.2 1.4l-1.4-1.2zM9.9 79.2s-.2-2.8 0-6.2c.2-3.4.4-8.8.4-8.8L7.9 77.6c-.4-.2-.9-.3-1.5-.5-.4-.1-1-.3-1.5-.4C5 64.7 7.5 57.1 13 53c.9.6 1.8 1.1 2.7 1.5l-2 2.2c-.2.2-.3.5-.3.8 0 .3.2.5.4.7l2 1.6-1 1.8c-.2.4-.2.8.1 1.1l9.8 12.7v4.2H10c0-.2-.1-.3-.1-.4zm16.3 7.4H23c-7.6 0-11.5-.5-12.7-4.7h31.8c-1.4 4.4-6.6 4.7-15.9 4.7zm19.9-9.5c-.5.1-1 .3-1.4.4l-2.4-13.4s.2 5.4.4 8.8c.2 3.4 0 6.3 0 6.3 0 .1-.1.2-.1.3H27.1v-4.2l9.8-12.7c.2-.3.3-.8.1-1.1l-1-1.8 2-1.6c.2-.2.4-.4.4-.7 0-.3-.1-.5-.3-.8l-2-2.2c1.2-.5 2.3-1.2 3.3-1.9 6.3 4.4 8 12.8 8 24-.3.3-.9.5-1.3.6z"/><path d="M20.5 45.9c1.2 0 2.2-1 2.2-2.2v-2.6c0-1.2-1-2.2-2.2-2.2-1.2 0-2.2 1-2.2 2.2v2.6c0 1.2 1 2.2 2.2 2.2zM31.4 45.9c1.2 0 2.2-1 2.2-2.2v-2.6c0-1.2-1-2.2-2.2-2.2-1.2 0-2.2 1-2.2 2.2v2.6c0 1.2 1 2.2 2.2 2.2zM21.6 48.7c-.2.5 0 1.1.4 1.3.1 0 1.6.8 3.8.8 2.4 0 3.9-.7 3.9-.8.5-.3.7-.8.4-1.3-.3-.5-.8-.7-1.3-.4 0 0-1.1.6-3 .6-1.7 0-2.8-.5-2.9-.6-.4-.3-1-.1-1.3.4zM75.8 36.9H62.3v10.5h13.1c1.9 0 2.2.1 2.2 1.5 0 1.5-.3 1.5-1.9 1.5H62.3v10.5h13.4c3.7 0 12.4-.1 12.4-12 0-11.8-8.6-11.9-12.3-12zM75.7 59h-5.5v-6.8h5.7c1.5 0 3.7 0 3.7-3.3s-2.5-3.3-4-3.3h-5.3v-6.8H76c3.7 0 10.6.1 10.6 10.1-.3 10-7.2 10.1-10.9 10.1zM55.9 51l-.7-3 5.2-1-8.4-1.8.7 3-5.4 1.3 8.6 1.5z"/></g></symbol><symbol id="skillbuilding3" viewBox="0 0 89 100"><title>skillbuilding3</title><g fill="#FFF" fill-rule="evenodd"><path d="M42.968 51.309c7.246 0 13.118-5.874 13.118-13.119 0-7.248-5.872-13.124-13.118-13.124-7.247 0-13.122 5.875-13.122 13.124 0 7.245 5.875 13.119 13.122 13.119zM81.267 67.705a5.998 5.998 0 0 0-7.514 3.923l-1.122 3.581-5.502-15.249A5.988 5.988 0 0 0 61.492 56h-34.6a5.993 5.993 0 0 0-5.082 2.817l-8.296 13.258-1.381-10.851c-.418-3.282-3.426-5.614-6.703-5.188a5.994 5.994 0 0 0-5.189 6.701l3.502 26.028a5.99 5.99 0 0 0 4.66 5.096 6 6 0 0 0 6.368-2.673L24 76.338V96h36.949V78.142l6.439 17.866a5.985 5.985 0 0 0 5.636 3.96l.129-.001a5.994 5.994 0 0 0 5.591-4.198l6.445-20.552a5.988 5.988 0 0 0-3.922-7.512zM82.167 38.802a5.926 5.926 0 1 1 0 0zM43.351 2.904l9.915-2.905 2.905 9.915-9.915 2.905zM0 28.068l15.18-3.536-4.526 14.914L0 28.068z"/></g></symbol><symbol id="athlete" viewBox="0 0 60 91"><path d="M4.483.038c-.337-.04-.493.917-.494 1.532v28.922c0 .614.222.926.493.698l8.205-6.928c-.087 1.143 1.655 2.154 4.307 2.383 3.06.264 6.17-.61 6.945-1.958.776-1.348-1.076-2.664-4.136-2.928-1.729-.149-3.453.086-4.783.545l3.268-2.758c.271-.228.494-.9.494-1.515V2.388c0-.615-.157-.658-.493-.698L4.483.038zM15.99 8.209c.17-.02.256.03.256.307v8.613c0 .276-.12.578-.256.681l-6.945 5.243c-.137.102-.239-.048-.239-.324V9.741c0-.276.07-.66.239-.68l6.945-.852zm12.716 3.184a3.841 3.841 0 0 0-3.524 3.353 3.826 3.826 0 1 0 4.273-3.32 3.916 3.916 0 0 0-.391-.033c-.122-.003-.239-.008-.358 0zm4.698 2.826c.117.505.154 1.04.085 1.583a4.543 4.543 0 0 1-2.025 3.217l.731 3.524c.043.22.13.428.256.613l4.306 6.162c.006.01.01.024.017.034.035.045.067.1.102.153.549-1.073 1.328-1.978 2.247-2.536l-3.795-5.413-1.311-6.333c-.072-.4-.29-.757-.613-1.004zm9.465 5.89a3.841 3.841 0 0 0-3.524 3.353 3.803 3.803 0 0 0 .919 3.013 3.848 3.848 0 0 0 2.4 1.26 3.826 3.826 0 1 0 .954-7.592 3.916 3.916 0 0 0-.392-.034c-.121-.003-.238-.008-.357 0zm-19.355 6.553c-1.487.998-4.092 1.537-6.673 1.294-1.655-.156-2.993-.594-3.83-1.21l1.361 8.12c.613.26 1.3.432 2.026.545a9.456 9.456 0 0 0 5.788-.953l1.328-7.796zm16.835 1.124v.068c-1.302.342-2.48 1.749-2.91 3.405a.382.382 0 0 1 0 .085L36.296 41.88l9.38.017h.085l.664-5.26c-1.038-.232-1.873-.982-2.417-1.94-.571-1.006-.841-2.271-.732-3.592v-.017a6.108 6.108 0 0 1 .562-2.077c-1.532-.537-3.302-1.16-3.49-1.226zm4.851 1.702a4.684 4.684 0 0 0-.493 1.72c-.09 1.048.13 2.044.544 2.774.363.64.849 1.065 1.362 1.226l.034-.272 2.996 3.864.817 5.6c.056.429.286.829.63 1.09.172.13.37.218.579.272a1.659 1.659 0 0 0 1.736-.612c.128-.175.205-.37.255-.58.051-.21.069-.433.034-.646l-.885-6.01a1.637 1.637 0 0 0-.323-.765s-2.98-4.257-4.75-6.145a3.887 3.887 0 0 0-.493-.426c-.27-.205-.54-.424-.85-.562l-.086-.034c-.216-.145-.402-.252-.51-.29-.044-.014-.461-.156-.597-.204zm-9.005 13.823l-.102.527 1.991 7.797 4.086-.579v-.306l1.379-.273.783 1.89 4.17-1.243-2.876-7.388-.307-.408-9.124-.017zm6.57 9.124l-2.91.408-1.277.17.408 1.6c.05.186.124.363.222.528l4.17 7.133-.664 1.158a2.016 2.016 0 1 0 3.49 2.008l1.31-2.264a2.016 2.016 0 0 0 .205-1.6 2.097 2.097 0 0 0-.255-.613l-4.477-7.677-.221-.851zm6.282.017l-1.43.426-2.622.766.835 1.736c.178.373.489.669.85.868l7.678 4.222.527 1.702a2.016 2.016 0 1 0 3.848-1.191l-.766-2.486a2.016 2.016 0 0 0-.409-.749c-.041-.063-.071-.128-.12-.187a2.16 2.16 0 0 0-.646-.528l-7.54-4.153-.205-.426zM1.263 87.568a1.238 1.238 0 0 0 .12 2.469l57.23.001a1.238 1.238 0 0 0 .204-2.45 1.238 1.238 0 0 0-.204-.018l-57.23-.002a1.238 1.238 0 0 0-.12 0z" fill="#FFF" fill-rule="evenodd"/></symbol><symbol id="graduate" viewBox="0 0 510 489"><g fill="#FFF" fill-rule="evenodd"><path d="M135.5 32.5C72.8 50.4 18.4 65.9 14.7 67.1 4.1 70.5-1.2 78 1.1 86.3c1.3 4.7 4.3 8.4 8.7 10.6 2.1 1 56.4 20.5 120.7 43.2 114.4 40.4 117.2 41.4 124.5 41.3 7.3 0 10.1-.9 98.6-32.2 50.1-17.7 91.7-32.2 92.3-32.2.7 0 2.2 2.1 3.4 4.7 2 4.4 2.2 6.7 2.5 29.8l.4 25.1-3.3 3.4c-8.2 8.8-10.7 22.7-5.9 33.7l2.2 5.3-2.2 5.1c-4.3 10.2-2.5 21.8 6.6 40.1 3.9 8 16.3 28.2 20.5 33.6l1.8 2.3 7.7-11.7c12.9-19.6 20.9-36.3 22.9-48.2.8-5-1-14.4-3.7-19.3-1.8-3.3-1.9-3.8-.5-6 2.4-3.8 3.8-13.2 2.7-18.9-1.1-5.8-3.1-10-7.1-15.1l-2.9-3.7v-25.1c0-26.4-1-35.8-5-44.7l-1.8-4.1 8.3-3.2c9.4-3.6 12.8-5.9 15.2-10.4 3.8-7.5.5-16.5-7.5-20.6-2-1-57.1-17-122.3-35.5C290.9 8.9 258 0 254.4.1c-3.2 0-43.6 11.1-118.9 32.4zm129 31.6c8.7 1.2 15.1 4.2 17.1 8 1.3 2.6 1.3 3.2 0 5.8-4.7 8.9-33.8 11.8-47.6 4.8-18.4-9.4 3.1-22.6 30.5-18.6z"/><path d="M97 202.2c0 19.4.1 36.9 0 38.8 0 3.3-.4 3.7-5.2 6-12.3 5.7-24.4 22.8-28.8 40.3-5.7 22.9-2.6 40.9 10.4 59.1 8.7 12.2 26.2 26.7 38.5 31.7 4.4 1.9 4.9 2.5 6.4 7.3.9 2.8 3.7 9.4 6.2 14.6 19.4 39.7 60.2 72.3 107.4 85.7 8.3 2.4 11.4 2.8 23.1 2.8 11.7 0 14.8-.4 23.1-2.8 46-13 87.2-45.4 106.2-83.2 2.4-5 5.5-11.8 6.7-15.3l2.3-6.2 8.1-3.9c10-4.8 16.1-9.1 24.9-17.8 11.9-11.8 20.2-26.6 22.7-40.3 1.4-7.4.7-19.9-1.6-30-2.1-9.1-9.4-23.5-15.4-30.2-4.3-4.9-14.6-12.8-18-14-.8-.2-1.1-12.1-1-39.1 0-21.3-.1-38.7-.3-38.7-.3 0-34.4 12.5-75.8 27.7-69.9 25.7-75.9 27.7-81.9 27.7s-11.9-1.9-81.9-27.7C131.7 179.5 97.6 167 97.3 167c-.2 0-.3 15.9-.3 35.2zm99.5 46.2l58 7.4 60.7-7.6c33.4-4.2 61-7.3 61.4-7 .3.4 1.2 5.5 1.9 11.5.7 5.9 1.7 11.9 2.3 13.3 2.3 5.7 8 9.4 17.7 11.5 4.2.9 9.9 7.4 12.5 14.2 2.8 7.3 3.8 20.8 1.9 25.5-3.8 9.4-13.8 20.7-23 26.1-2.5 1.5-7.7 3.5-11.5 4.4-11.5 2.8-14.7 6.3-18.4 19.8-2.6 9.7-8.3 22-14 30.6-6.2 9.2-24 26.4-34.3 33.2-21.8 14.4-47.4 23.8-60.4 22.3-8-.9-23.6-6.2-34.6-11.7-27.6-13.8-49-34.1-60.2-57.2-2.4-5.1-5.3-12.5-6.4-16.5-1.1-4-3-9.2-4.3-11.5-2.4-4.3-8.6-8.7-12.4-8.7-4.9 0-16.8-7.3-24.4-14.9-10-9.9-13-15.9-13-25.7 0-11.8 4.7-23.7 11-28.1 1.2-.8 4.9-2.1 8.2-2.9 11.4-2.7 14.4-7 16.4-23.3.7-6.4 1.4-11.7 1.4-11.9.1-.7 10.3.5 63.5 7.2z"/><path d="M178.5 277.3c-13.5 4.5-20.8 14.2-20.8 27.7 0 16.1 12.1 28.3 28.1 28.3 30.8 0 40-41.9 11.9-54.3-6.1-2.7-14-3.4-19.2-1.7zM316.5 277.3c-13.5 4.5-20.9 14.4-20.9 27.7 0 30.9 42.1 39.4 54.7 11.1 4.4-9.9 1.7-23.8-6.1-31.4-7.1-6.9-19.3-10.2-27.7-7.4z"/></g></symbol><symbol id="headshots" viewBox="0 0 72 100"><g fill="#FFF" fill-rule="evenodd"><path d="M67.407 19.239h-2.182l.205-15.183c.018-1.289-.562-2.508-1.552-3.273a3.665 3.665 0 0 0-3.439-.588L4.152 19.283C1.834 19.509 0 21.446 0 23.809v71.624C0 97.945 2.067 100 4.594 100h62.813C69.935 100 72 97.944 72 95.433V23.809c0-2.513-2.065-4.57-4.593-4.57zm-9.684-9.718l-.132 9.718H29.065l28.658-9.718zm6.468 82.71H7.813V27.007h56.378v65.224z"/><path d="M39.827 57.729c-.185-.062-.32-.4-.399-.799 2.422-1.41 4.742-3.951 5.885-7.07h.03c.673 0 1.45-.837 1.841-2.034.44-1.338.22-2.609-.487-2.838a.729.729 0 0 0-.211-.033c-.149 0-.299.042-.448.114-.329-6.468-4.891-11.6-10.49-11.6-5.603 0-10.169 5.14-10.49 11.615a1.055 1.055 0 0 0-.479-.13.699.699 0 0 0-.211.033c-.707.229-.927 1.5-.492 2.838.391 1.196 1.173 2.032 1.841 2.032a.64.64 0 0 0 .11-.008c1.318 3.347 4.034 6.038 6.587 7.372-.083.259-.198.461-.334.508l-.185.062c-7.796 2.561-12.199 7.011-13.145 13.236h34.462c-1.071-6.236-5.54-10.707-13.385-13.298zm-10.999-9.041l-.65-1.645.092-1.801c.237-4.809 3.437-8.575 7.277-8.575 3.836 0 7.032 3.761 7.277 8.562l.094 1.895-.625 1.639c-.805 2.192-2.527 4.263-4.491 5.405l-1.863 1.241-.119-.024-1.912-.994c-1.648-.867-3.972-2.877-5.08-5.703zm-5.686 19.138c1.67-3.094 4.899-5.401 9.765-7a3.847 3.847 0 0 0 1.846-1.291l.022.053s1.204-1.244 2.373.045c.066.078.105.086.163.129.479.535 1.02.838 1.494.998 4.904 1.621 8.183 3.951 9.932 7.066H23.142zM18.593 83.496h13.025v2.272H18.593zM35.187 83.496h2.619v2.272h-2.619zM18.593 76.913h34.813v2.272H18.593z"/></g></symbol><symbol id="outdoor" viewBox="0 0 39 43"><title>outdoor</title><g fill="#FFF" fill-rule="evenodd"><path d="M39 43H0V0h39v43zM2 41h35V2H2v39z"/><path d="M35 33H4V4h31v29zM6 31h27V6H6v25z"/><path d="M28.8 28H10.2c-.8 0-1.5-.4-1.8-1.2-.3-.7-.2-1.5.3-2.1l3.6-4.1c.7-.8 2.1-.9 2.9-.1l1.7 1.7.1-.1 4.6-4.6c.8-1 2.4-.9 3.1.1l5.6 7.2c.5.6.5 1.4.2 2.1-.3.7-1 1.1-1.7 1.1zm-15-6.1L10.2 26h18.6l-5.6-7.2-.1.1-4.6 4.6c-.7.9-2.1.9-2.9.1l-1.8-1.7zM13 17c-2.2 0-4-1.8-4-4s1.8-4 4-4 4 1.8 4 4-1.8 4-4 4zm0-6c-1.1 0-2 .9-2 2s.9 2 2 2 2-.9 2-2-.9-2-2-2z"/></g></symbol><symbol id="coach" viewBox="0 0 60 64"><g fill="#FFF" fill-rule="evenodd"><path d="M6.405 22.006l6.355 1.383a2 2 0 0 0 .85-3.908l-6.355-1.383a2 2 0 1 0-.85 3.908zM26.349 12.171a2 2 0 1 0 3.971-.481l-.781-6.457a1.995 1.995 0 0 0-2.226-1.745 1.999 1.999 0 0 0-1.745 2.226l.781 6.457zM17.7 15.287c.394.418.924.629 1.457.629a2 2 0 0 0 1.456-3.371L9.983 1.26a2 2 0 1 0-2.912 2.742L17.7 15.287zM59.035 24.697l-4.963-8.527a2.004 2.004 0 0 0-1.233-.932l-5.454-1.393-5.663-1.517a2.015 2.015 0 0 0-1.426.15l-12.905 6.574-.037-.007-.006.029-15.767 8.031c-1.139.5-2.27 1.132-3.364 1.882A17.35 17.35 0 0 0 .693 43.266c0 9.692 7.025 17.492 17.152 18.976l9.984 1.111c.073.009.147.013.221.013.11 0 .215-.012.325-.014.079.01.158.018.236.018.136 0 .268-.017.397-.043 10.31-.409 17.435-7.333 17.435-17.146 0-2.234-.417-4.394-1.241-6.438l13.469-12.577a2 2 0 0 0 .364-2.469zm-17.607-8.306l4.944 1.324 1.486.379-6.937 3.608-7.166-1.404 7.673-3.907zm-8.71 9.58l-7.143-1.505 2.401-1.223 7.253 1.421-2.511 1.307zM4.693 43.266a13.34 13.34 0 0 1 5.787-10.98 16.703 16.703 0 0 1 2.755-1.538c.037-.016.073-.034.109-.052l6.552-3.337 7.228 1.522-4.218 2.194a16.25 16.25 0 0 0-3.135 1.671 16.063 16.063 0 0 0-6.965 13.225c0 4.832 1.797 9.065 4.877 12.178-7.678-1.42-12.99-7.444-12.99-14.883zm36.731-5.468a2.003 2.003 0 0 0-.418 2.368 13.163 13.163 0 0 1 1.438 6.014c0 7.7-5.521 12.92-13.795 13.164-7.092-1.15-11.843-6.49-11.843-13.373a12.062 12.062 0 0 1 5.231-9.927 12.061 12.061 0 0 1 2.429-1.284c.067-.026.132-.056.195-.089L51.95 20.475l2.825 4.854-13.351 12.469z"/></g></symbol><symbol id="moving" viewBox="0 0 100 100"><g fill="none" fill-rule="evenodd"><path d="M68.07 38.301h-3.362c-.679 0-1.229.55-1.229 1.229v3.36c0 .679.55 1.229 1.229 1.229h3.362c.68 0 1.229-.549 1.229-1.229v-3.36a1.227 1.227 0 0 0-1.229-1.229z"/><path d="M80.976 23.587c0-.291.048-.566.086-.845A41.297 41.297 0 0 0 50.001 8.673c-22.787 0-41.327 18.54-41.327 41.328 0 8.784 2.727 17.177 7.888 24.276 7.766 10.677 20.267 17.052 33.439 17.052 22.788 0 41.328-18.54 41.328-41.328 0-7.08-1.8-13.939-5.201-20.054a6.507 6.507 0 0 1-5.152-6.36zM29.517 66.77a5.652 5.652 0 1 1 0-11.305 5.652 5.652 0 1 1 0 11.305zm27.633-7.226c0 .679-.549 1.229-1.229 1.229H37.618c-.679 0-1.217-.555-1.337-1.222a6.874 6.874 0 0 0-13.529 0c-.12.667-.658 1.222-1.337 1.222h-.343c-.679 0-1.229-.55-1.229-1.229V30.148a1.23 1.23 0 0 1 1.229-1.229h34.85c.68 0 1.229.549 1.229 1.229v29.396h-.001zm10.839 7.226a5.654 5.654 0 1 1-.001-11.307 5.654 5.654 0 0 1 .001 11.307zm14.253-7.226c0 .679-.549 1.229-1.229 1.229h-4.961c-.679 0-1.217-.555-1.337-1.222a6.874 6.874 0 0 0-13.529 0c-.12.667-.595 1.222-1.197 1.222-.602 0-1.093-.55-1.093-1.229V36.475c0-.679.55-1.229 1.229-1.229h12.377c.679 0 1.229.55 1.229 1.229v8.234c0 .677.55 1.229 1.229 1.229h6.053c.68 0 1.229.55 1.229 1.229v12.377z"/><circle fill="#FFF" cx="67.989" cy="61.117" r="5.653"/><path d="M81.014 45.938h-6.053a1.23 1.23 0 0 1-1.229-1.229v-8.234c0-.679-.55-1.229-1.229-1.229H60.127c-.68 0-1.229.55-1.229 1.229v23.069c0 .679.49 1.229 1.093 1.229s1.077-.555 1.197-1.222a6.872 6.872 0 0 1 13.529 0c.12.667.658 1.222 1.337 1.222h4.961c.68 0 1.229-.55 1.229-1.229V47.167a1.23 1.23 0 0 0-1.23-1.229zM69.3 42.89c0 .679-.55 1.229-1.229 1.229h-3.362a1.228 1.228 0 0 1-1.229-1.229v-3.36c0-.679.55-1.229 1.229-1.229h3.362c.68 0 1.229.55 1.229 1.229v3.36z" fill="#FFF"/><circle fill="#FFF" cx="29.517" cy="61.117" r="5.653"/><path d="M55.922 28.92h-34.85c-.679 0-1.229.549-1.229 1.229v29.396a1.23 1.23 0 0 0 1.229 1.229h.343c.679 0 1.217-.555 1.337-1.222a6.875 6.875 0 0 1 13.529 0c.12.667.658 1.222 1.337 1.222H55.922c.68 0 1.229-.55 1.229-1.229V30.148a1.228 1.228 0 0 0-1.229-1.228z" fill="#FFF"/><path d="M93.64 25.603c.209-.638.351-1.308.351-2.016 0-3.552-2.846-6.427-6.381-6.497C78.28 6.437 64.84.166 50.522.017V0H49.48v.014C22.149.295 0 22.605 0 50.001 0 60.58 3.276 70.698 9.469 79.265 18.86 92.248 34.013 100 50.001 100 77.569 100 100 77.569 100 50.001a49.729 49.729 0 0 0-6.36-24.398zM50.522 1.044a48.927 48.927 0 0 1 35.805 16.152c-2.345.42-4.231 2.098-4.982 4.313A42.332 42.332 0 0 0 50.522 7.634v-6.59zm-.521 90.285c-13.173 0-25.674-6.375-33.439-17.052-5.161-7.1-7.888-15.492-7.888-24.276 0-22.788 18.54-41.328 41.327-41.328a41.294 41.294 0 0 1 31.061 14.069c-.038.278-.086.554-.086.845a6.507 6.507 0 0 0 5.152 6.36 41.145 41.145 0 0 1 5.201 20.054c0 22.788-18.54 41.328-41.328 41.328z" fill="#FFF"/></g></symbol><symbol id="soccer" viewBox="0 0 69 71"><g fill="#FFF" fill-rule="evenodd"><path d="M53.435 20.398c-8.333 0-15.113 6.78-15.113 15.114 0 8.333 6.78 15.113 15.113 15.113 8.335 0 15.113-6.78 15.113-15.113 0-8.333-6.778-15.114-15.113-15.114zM57.363 48.1l-3.393-2.263v-4.43l4.301-2.483 3.838 2.215.262 4.058a13.197 13.197 0 0 1-5.008 2.903zM44.5 45.196l.261-4.058 3.838-2.215 4.3 2.483v4.429L49.506 48.1a13.178 13.178 0 0 1-5.006-2.904zm-4.25-9.683c0-.994.114-1.962.323-2.893l3.652-1.806 3.837 2.214v4.967l-3.837 2.217-3.652-1.807a13.179 13.179 0 0 1-.323-2.892zm9.256-12.588l3.393 2.262v4.43l-4.3 2.484-3.838-2.215-.261-4.058a13.181 13.181 0 0 1 5.006-2.903zm12.864 2.903l-.261 4.059-3.838 2.215-4.301-2.484v-4.43l3.394-2.262a13.174 13.174 0 0 1 5.006 2.902zm-8.935 14.651l-4.301-2.483v-4.967l4.301-2.483 4.302 2.483v4.967l-4.302 2.483zm9.21-.267l-3.837-2.216v-4.968l3.837-2.214 3.652 1.806a13.134 13.134 0 0 1 0 5.785l-3.652 1.807zm3.257-8.983l-2.719-1.345.194-3.017a13.175 13.175 0 0 1 2.525 4.362zm-9.941-8.657l-2.526 1.684-2.525-1.684a13.222 13.222 0 0 1 2.525-.245c.863 0 1.709.086 2.526.245zm-12.469 4.295l.195 3.017-2.72 1.344a13.215 13.215 0 0 1 2.525-4.361zm-2.524 12.929l2.72 1.345-.195 3.017a13.195 13.195 0 0 1-2.525-4.362zm9.941 8.656l2.525-1.685 2.526 1.685c-.818.158-1.663.245-2.526.245-.863 0-1.706-.087-2.525-.245zm12.469-4.295l-.194-3.017 2.719-1.345a13.21 13.21 0 0 1-2.525 4.362zM45.091 59.777c-2.385-2.085-5.983-5.233-9.457-10.794-.275-.508-1.954-3.383-4.378-3.383-.66 0-1.291.208-1.874.618-.41.288-.91.429-1.527.429-1.339 0-2.628-.675-2.634-.677-.021-.012-2.091-1.203-1.569-2.173.586-1.088.422-2.669-1.036-3.455a2.827 2.827 0 0 0-1.349-.348c-1.914 0-3.807 1.928-6.136 6.252l-1.764 3.273a4.362 4.362 0 0 0-.471 1.818c-.042 1.417.671 2.594 2.011 3.314.185.101.54.292 1.027.554l-.554 1.029a1.308 1.308 0 0 0 1.153 1.932c.466 0 .919-.25 1.156-.69l.554-1.027 2.057 1.107-.554 1.029a1.31 1.31 0 1 0 2.307 1.243l.554-1.028 6.421 3.458-.554 1.029a1.31 1.31 0 0 0 2.308 1.243l.554-1.028 2.784 1.5-.554 1.028a1.31 1.31 0 1 0 2.308 1.242l.554-1.027 2.42 1.304-.553 1.028a1.31 1.31 0 1 0 2.307 1.243l.554-1.028 1.028.554c.157.085 1.584.83 3.102.83 1.396 0 2.504-.632 3.122-1.781.064-.118 1.538-2.929-.501-5.824-.602-.857-1.58-1.712-2.816-2.794zm-14.695.244l6.187-5.172a45.333 45.333 0 0 0 2.053 2.388l-5.255 4.392-2.985-1.608zm5.294-6.325l-6.676 5.58-2.984-1.607 7.852-6.562a47.463 47.463 0 0 0 1.808 2.589zm-20.01-2.943l1.758-3.263c2.596-4.818 3.779-4.873 3.829-4.873a.13.13 0 0 1 .041.006c-.706 1.378-.401 2.92.843 4.242a7.904 7.904 0 0 0 1.823 1.411c.188.102 1.9.992 3.88.992 1.159 0 2.18-.305 3.034-.906.181-.126.295-.141.367-.141.542 0 1.344.868 1.849 1.639l-8.454 7.065-1.951-1.052-.002-.002-.002-.001-6.544-3.525c-.826-.444-.712-1.109-.471-1.592zm30.417 16.411c-.104.192-.267.394-.81.394-.725 0-1.591-.375-1.858-.517l-2.182-1.175v-.001h-.001l-6.485-3.493 4.88-4.08c1.397 1.421 2.675 2.54 3.724 3.458 1.104.967 1.978 1.729 2.4 2.332a3.102 3.102 0 0 1 .332 3.082zM31.89 33.912V16.17l5.989-4.277a.947.947 0 0 0 .225-1.313L31.89 1.703V1.66c0-.522-.524-.946-1.048-.946H7.957c-.037 0-.069.006-.104.01l-.03.003a.774.774 0 0 0-.316.12l-.031.019c-.011.007-.021.016-.031.024a.94.94 0 0 0-.229.225L.591 10.579a.947.947 0 0 0 .226 1.313l6.296 4.497v17.522c0 .523.322.946.845.946h22.884c.523.001 1.048-.421 1.048-.945zm4.126-23.014l-4.126 2.946v-8.84l4.126 5.894zm-13.409-8.37c-.004.256-.141 2.392-3.259 2.392-3.132 0-3.256-2.077-3.26-2.317 0-.026-.012-.049-.016-.075h6.535zm-19.928 8.37l4.433-6.333v9.499l-4.433-3.166zm6.247 21.846V2.528h6.126c-.004.026-.016.05-.016.078 0 .034.05 3.365 4.312 3.365 4.25 0 4.311-3.392 4.311-3.443h6.115v13.158a.94.94 0 0 0 0 .326v16.731H8.926v.001z"/><path d="M26.831 9.78h-4.689a.525.525 0 0 0-.525.525v5.898c0 .291.236.525.525.525h4.689a.525.525 0 0 0 .526-.525v-5.898a.525.525 0 0 0-.526-.525zm-.683 5.741h-3.324v-4.533h3.324v4.533z"/></g></symbol><symbol id="triathalon" viewBox="0 0 94 64"><title>triathalon</title><g fill="#FFF" fill-rule="evenodd"><path d="M36.248 64a2.009 2.009 0 0 1-1.416-.584 2.001 2.001 0 0 1 0-2.828l29.632-29.632a2.016 2.016 0 0 1 2.828 0c.78.78.78 2.056 0 2.828L37.66 63.416a2.007 2.007 0 0 1-1.412.584z"/><path d="M92 48H66c-1.104 0-2-.9-2-2s.896-2 2-2h21L68.492 26.364a2.006 2.006 0 0 1-.068-2.828 2.01 2.01 0 0 1 2.828-.076l22.12 21.084c.592.576.78 1.424.476 2.192A1.972 1.972 0 0 1 92 48zM50.336 21.452c-.64 0-1.268-.304-1.66-.884a1.99 1.99 0 0 1 .532-2.772L64.752 7.248a2.007 2.007 0 0 1 2.536.252l3.624 3.616c.78.772.78 2.056 0 2.828a2.016 2.016 0 0 1-2.828 0l-2.452-2.452-14.172 9.612c-.352.24-.736.348-1.124.348zM92 28h-9.04c-.544 0-1.06-.22-1.436-.6l-8.828-9.084a2.001 2.001 0 0 1 .04-2.828 2.002 2.002 0 0 1 2.828.04l8.244 8.476h8.196c1.104 0 2 .904 2 2A2.008 2.008 0 0 1 92 28zM80.024 12c-3.308 0-6-2.692-6-6s2.692-6 6-6c3.304 0 6 2.692 6 6s-2.696 6-6 6zm0-8c-1.104 0-2 .9-2 2s.896 2 2 2 2-.9 2-2-.9-2-2-2zM26 52H2c-1.104 0-2-.9-2-2s.896-2 2-2h24c1.104 0 2 .9 2 2s-.9 2-2 2zM34 40H2c-1.104 0-2-.9-2-2s.896-2 2-2h32c1.104 0 2 .9 2 2s-.9 2-2 2zM42 28H2c-1.104 0-2-.9-2-2s.896-2 2-2h40c1.104 0 2 .9 2 2s-.9 2-2 2z"/></g></symbol><symbol id="dishes" viewBox="0 0 200 207"><title>Shape</title><path d="M196.616 147.328v-28.392c0-6.078-5.281-10.48-12.983-13.35.634-4.385.955-8.839.955-13.292C184.588 41.402 143.19 0 92.298 0 41.404 0 0 41.402 0 92.294c0 50.892 41.402 92.297 92.294 92.297 8.31 0 16.497-1.097 24.411-3.27v7.838c0 12.037 20.709 17.513 39.959 17.513 19.243 0 39.955-5.476 39.955-17.513v-13.236A31.794 31.794 0 0 0 200 161.63a31.857 31.857 0 0 0-3.384-14.302zM92.291 171.813c-43.846 0-79.515-35.673-79.515-79.519 0-43.846 35.672-79.515 79.515-79.515s79.512 35.669 79.512 79.515c0 3.412-.219 6.824-.652 10.192-4.688-.714-9.639-1.066-14.494-1.066-4.434 0-8.943.297-13.254.893.553-3.028.834-6.116.834-9.218 0-28.203-22.943-51.146-51.146-51.146-28.202 0-51.145 22.943-51.145 51.146h9.691c0-22.86 18.595-41.458 41.454-41.458 22.857 0 41.458 18.598 41.458 41.458a41.33 41.33 0 0 1-1.604 11.41c-9.435 2.79-16.243 7.534-16.243 14.431v8.227c-6.941 4.833-15.047 7.386-23.617 7.386a41.365 41.365 0 0 1-22.124-6.388l-5.176 8.19a50.995 50.995 0 0 0 27.3 7.89c8.245 0 16.36-2.022 23.617-5.795v29.547a79.296 79.296 0 0 1-24.41 3.82zm94.637-35.82c-3.27-1.858-7.485-1.113-9.89 1.918-2.657 3.353-2.101 8.23 1.252 10.89 3.937 3.128 6.202 7.798 6.202 12.823 0 5.018-2.259 9.691-6.196 12.815a7.743 7.743 0 0 0-1.248 10.891 7.737 7.737 0 0 0 6.079 2.93 7.69 7.69 0 0 0 3.8-1.005v1.876c-.101.467-1.711 2.615-7.84 4.682-6.035 2.04-13.999 3.162-22.43 3.162-8.427 0-16.39-1.122-22.426-3.162-6.129-2.067-7.739-4.212-7.84-4.682V130.89c7.815 3.773 19.277 5.566 30.266 5.566 10.993 0 22.455-1.793 30.27-5.566v5.102zm-7.84-12.387c-6.036 2.036-14 3.158-22.43 3.158-8.428 0-16.392-1.122-22.427-3.158-6.129-2.07-7.739-4.212-7.84-4.639v-.01c.101-.472 1.711-2.617 7.84-4.69 6.035-2.037 13.999-3.156 22.426-3.156 8.431 0 16.395 1.12 22.43 3.156 6.147 2.08 7.751 4.23 7.84 4.645-.089.466-1.687 2.614-7.84 4.694z" fill="#FFF" fill-rule="evenodd"/></symbol><symbol id="furniture" viewBox="0 0 100 68"><title>Shape</title><path d="M94.167.666h-7.5v.062a5.875 5.875 0 0 0-.833-.062H22.5A5.84 5.84 0 0 0 16.666 6.5V29H5.833A5.84 5.84 0 0 0 0 34.833v32.501H28.333V59h43.334v8.334H100V6.5A5.84 5.84 0 0 0 94.167.666zM20 6.5C20 5.121 21.121 4 22.5 4h63.334c1.378 0 2.5 1.121 2.5 2.5V29H77.5a5.84 5.84 0 0 0-5.833 5.833V41.5H28.333V29H20V6.5zM71.667 49H10v-1.666c0-.094.006-.186.016-.275l.014-.092c.009-.059.019-.117.031-.175.008-.036.018-.071.027-.106a1.79 1.79 0 0 1 .084-.256 2.33 2.33 0 0 1 .065-.15c.014-.03.027-.062.043-.09a2.622 2.622 0 0 1 .129-.225c.157-.236.355-.447.592-.626l.104-.078a2.485 2.485 0 0 1 1.395-.426h59.167V49zM25 41.5H12.5c-.283 0-.562.021-.834.061v-6.728a5.8 5.8 0 0 0-.563-2.5H25V41.5zM8.333 64h-5V34.833c0-1.378 1.121-2.5 2.5-2.5s2.5 1.122 2.5 2.5v8.423a2.468 2.468 0 0 0-.084.09l-.077.081a5.765 5.765 0 0 0-1.474 3.296l-.002.018a7.123 7.123 0 0 0-.02.252c0 .016-.002.029-.003.046a5.663 5.663 0 0 0-.007.292l-.001.004V59h1.667l.001 5zM25 64H11.666v-5H25v5zm3.333-8.333H10v-3.333h61.667v3.333H28.333zM75 64V34.833c0-1.378 1.121-2.5 2.5-2.5s2.5 1.122 2.5 2.5V64h-5z" fill="#FFF" fill-rule="evenodd"/></symbol><symbol id="house_cleaning" viewBox="0 0 48 48"><g fill="none" stroke="#000" stroke-width="2" stroke-miterlimit="10"><path d="M22.845 43.477h17.599l1.378-16.965H21.466z"/><path stroke-linecap="round" d="M42.089 26.058a10.91 10.91 0 0 0-8.616-7.627c-.111-.948-.882-1.685-1.827-1.685-.946 0-1.718.737-1.828 1.685-4.115.694-7.443 3.696-8.617 7.627"/><path d="M21.629 44.79c-1.071-.644-2.298-1.295-3.424-1.882-1.391-.725-1.99-2.197-2.4-3.637-.419-1.462-.968-2.968-1.111-4.494-.089-.956.11-1.886-.205-2.81a4.025 4.025 0 0 0-.316-.707c1.104-.077 1.974-.684 1.974-1.426 0-.792-.992-1.441-2.205-1.441H8.419c-1.213 0-2.206.649-2.206 1.441 0 .773.944 1.403 2.113 1.436-.28.69-.46 1.436-.829 2.073-.391.675-.949 1.147-1.171 1.905-.408 1.396-.416 2.906-.416 4.361 0 1.452.04 2.885.425 4.295.313 1.146.9 2.002 1.412 3.014.315-.021.445-.267.651-.488.536.228.72.564 1.352.551.47-.01.9-.312 1.297-.342.516-.037.84.438 1.374.35.616-.101.797-.438 1.384-.317.383.077 1.032.398 1.449.195.334-.164.365-.644.789-.719.2-.035.28.099.399.114.604.077.785.071 1.392-.12.533-.168.541.023 1.046.018.775-.008 1.605-.327 2.375-.462.241-.045.811.122.968-.112.227-.34-.356-.653-.594-.796zM9.398 27.623h3.565c1.214 0 2.207-.696 2.207-1.546 0-.849-.992-1.544-2.207-1.544h-.35c.006-.075.016-.149.016-.228V3.207c0-1.215-.651-2.207-1.448-2.207s-1.448.992-1.448 2.207v21.099c0 .079.01.153.016.228h-.35c-1.214 0-2.207.695-2.207 1.544 0 .849.992 1.545 2.206 1.545z"/></g></symbol><symbol id="laundry" viewBox="0 0 60 84"><g fill="#FFF" fill-rule="evenodd"><circle cx="9.268" cy="16" r="1.631"/><circle cx="38.769" cy="16" r="1.631"/><circle cx="44.75" cy="16" r="1.631"/><circle cx="50.732" cy="16" r="1.631"/><path d="M58.37 8.448H1.63a1.5 1.5 0 0 0-1.5 1.5V76.85a1.5 1.5 0 0 0 1.5 1.5h3.657V82a1.5 1.5 0 1 0 3 0v-3.651h43.426V82a1.5 1.5 0 1 0 3 0v-3.651h3.657a1.5 1.5 0 0 0 1.5-1.5V9.948a1.5 1.5 0 0 0-1.5-1.5zm-55.24 3h53.74v9.104H3.13v-9.104zm53.74 63.901H3.13V23.551h53.74v51.798zM1.63 3.5h56.74a1.5 1.5 0 1 0 0-3H1.63a1.5 1.5 0 1 0 0 3z"/><path d="M30 67.343c9.866 0 17.893-8.027 17.893-17.893 0-9.866-8.027-17.893-17.893-17.893-9.866 0-17.893 8.027-17.893 17.893 0 9.866 8.027 17.893 17.893 17.893zm0-3c-8.193 0-14.86-6.652-14.89-14.839.691.22 1.196.621 1.809 1.114 1.085.875 2.436 1.963 4.987 1.963 2.553 0 3.903-1.089 4.988-1.964.936-.754 1.611-1.299 3.104-1.299 1.494 0 2.17.545 3.105 1.299 1.085.875 2.436 1.963 4.988 1.963 2.552 0 3.903-1.089 4.988-1.963.612-.494 1.117-.894 1.809-1.114-.028 8.188-6.695 14.84-14.888 14.84zm0-29.786c7.196 0 13.215 5.131 14.594 11.927-1.568.334-2.563 1.127-3.396 1.798-.936.754-1.611 1.299-3.105 1.299s-2.17-.545-3.105-1.299c-1.085-.875-2.436-1.963-4.988-1.963-2.552 0-3.902 1.089-4.987 1.963-.936.754-1.611 1.299-3.105 1.299-1.493 0-2.169-.545-3.104-1.299-.833-.671-1.827-1.464-3.396-1.799C16.785 39.688 22.804 34.557 30 34.557z"/></g></symbol><symbol id="vacuum" viewBox="0 0 62 64"><g fill="#FFF" fill-rule="evenodd"><path d="M48.311 59.105h-6.862a5.036 5.036 0 0 1-5.029-5.03v-20.96a5.035 5.035 0 0 1 5.029-5.03H53.67a5.036 5.036 0 0 1 5.031 5.03v18.001h-2V33.115a3.033 3.033 0 0 0-3.031-3.03H41.448a3.033 3.033 0 0 0-3.029 3.03v20.96a3.033 3.033 0 0 0 3.029 3.03h6.862v2h.001z"/><path d="M9.881 44.046l-1.786-.9L28.086 3.488C28.155 3.349 29.885.03 35.885.03h6.665c.454-.048 2.536-.183 4.147 1.21 1.235 1.067 1.861 2.709 1.861 4.88v22.966h-2V6.12c0-1.564-.394-2.697-1.169-3.367-1.079-.931-2.622-.737-2.635-.734l-.145.011h-6.725c-4.683 0-5.966 2.272-6.019 2.369L9.881 44.046z"/><path d="M1.375 39.723l17.63 7.269-.762 1.85-17.63-7.27zM3.847 47.047l2.91 1.635-.982 1.745-2.91-1.636zM9.807 51.46h3.726v2H9.807zM5.264 55.367h2v2.738h-2zM18.151 54.487l.949 1.762-2.543 1.37-.949-1.763zM54.283 64.001c-4.26 0-7.725-3.466-7.725-7.726s3.465-7.725 7.725-7.725 7.725 3.465 7.725 7.725-3.465 7.726-7.725 7.726zm0-13.45a5.732 5.732 0 0 0-5.725 5.725 5.732 5.732 0 0 0 5.725 5.726 5.731 5.731 0 0 0 5.725-5.726 5.732 5.732 0 0 0-5.725-5.725z"/></g></symbol><symbol id="carborrow" viewBox="0 0 95 86"><g fill="#FFF" fill-rule="evenodd"><path d="M46.289 32.702l-.83 5.73c.268.002 1.696 0 2.143-.005l2.353-8.833c1.242-3.428 3.071-5.476 5.457-6.209a5.514 5.514 0 0 0-2.431-.55H36.866a5.73 5.73 0 0 0-1.537.221h.973c6.169-.001 9.987 5.007 9.987 9.646zM44.928 20.666a5.689 5.689 0 0 0 5.687-5.692 5.685 5.685 0 0 0-5.687-5.688 5.68 5.68 0 0 0-5.688 5.688 5.684 5.684 0 0 0 5.688 5.692z"/><path d="M93.868 28.921c-.539-.052-.99-.15-1.592-.15-.828 0-1.566.108-2.323.207l-2.601-18.179a9.918 9.918 0 0 0-9.823-8.516c-23.05-1.771-36.331-2.765-59.752 0a9.922 9.922 0 0 0-9.821 8.516L5.352 28.978c-.756-.099-1.493-.207-2.319-.207-.604 0-1.057.099-1.592.15C.445 30.447.175 32.528.905 34.83c.201.618.547 1.189.859 1.771.889.009 1.744.08 2.599.136-1.079 8.532-1.848 11.737-2.129 20.33a18.105 18.105 0 0 0 1.186 7.035v17.753c0 2.055 1.875 3.718 4.195 3.718h6.695c2.318 0 4.193-1.663 4.193-3.718v-6.184c.604.057 1.219.09 1.83.09h54.634c.611 0 1.228-.033 1.832-.09v6.184c0 2.055 1.883 3.718 4.196 3.718h6.691c2.325 0 4.199-1.663 4.199-3.718V64.092a18.163 18.163 0 0 0 1.185-7.032v-.01c-.282-8.586-1.046-11.788-2.128-20.313.858-.057 1.715-.127 2.599-.136.314-.581.663-1.152.862-1.771.727-2.302.459-4.383-.535-5.909zM11.291 30.28l2.638-18.626a3.904 3.904 0 0 1 3.848-3.334c23.92-2.765 36.197-1.775 59.752 0a3.899 3.899 0 0 1 3.847 3.329s1.59 11.227 2.619 18.466c.329 2.335-.729 4.524-2.525 5.801l-1.584-5.97c-1.35-3.701-3.377-5.521-6.259-5.521H57.512c-2.858 0-4.895 1.82-6.235 5.521l-2.622 9.833c-1.598.028-3.185.023-4.771.004l1.04-7.082c0-4.18-3.438-8.281-8.622-8.281l-14.096-.004c-4.716 0-8.516 3.639-8.516 8.172l.552 3.783a6.071 6.071 0 0 1-2.951-6.091zm64.94 7.084c-.545.075-1.104.157-1.646.232l-.978-3.729h1.697l.927 3.497zM57.55 33.868l-1.43 5.619c-.602.033-1.206.08-1.801.108l1.523-5.727h1.708zm-37.589 3.849l-.444-3.473H20.9l.451 3.68-1.39-.207zm18.496 1.897c-.44-.019-.878-.033-1.32-.059l.653-5.311h1.353l-.686 5.37zM14.263 54.307c-.007-.021.022-.04.016-.055-2.764-.804-4.939-1.871-6.357-3.07-.037-.092-.083-.172-.112-.259-.604-1.89-.435-3.583.169-4.989 3.693 1.9 9.591 3.175 15.93 3.215.313.585.659 1.154.859 1.774.73 2.3.46 4.378-.536 5.906-.535.047-.989.155-1.592.155-4.157 0-7.906-1.197-8.377-2.677zM70.1 62.914c-17.48 3.588-28.991 3.889-45.005.146-.625-.146-1.187-.493-1.688-.957 16.664 2.265 30.499 2.051 48.542-.271-.549.527-1.153.936-1.849 1.082zm17.398-11.991c-.027.087-.077.167-.107.259-1.423 1.199-3.598 2.267-6.36 3.07-.007.015.021.033.015.055-.473 1.48-4.223 2.678-8.378 2.678-.602 0-1.055-.108-1.594-.155-.997-1.528-1.263-3.606-.531-5.906.2-.62.541-1.189.858-1.774 6.336-.04 12.237-1.314 15.929-3.215.604 1.405.775 3.098.168 4.988z"/><path d="M65.574 22.559a6.397 6.397 0 0 0 6.393-6.4 6.39 6.39 0 0 0-6.393-6.397 6.388 6.388 0 0 0-6.397 6.397c0 3.536 2.858 6.4 6.397 6.4zM29.308 22.559c3.536 0 6.4-2.861 6.4-6.4a6.396 6.396 0 0 0-6.4-6.397 6.395 6.395 0 0 0-6.399 6.397 6.394 6.394 0 0 0 6.399 6.4z"/></g></symbol><symbol id="fooddelivery" viewBox="0 0 90 60"><g fill="#FFF" fill-rule="evenodd"><path d="M0 42.771l6.154 2.648h.255a2.396 2.396 0 0 0 2.366 2.047h5.474a8.486 8.486 0 0 1 14.437 0H60.37a8.484 8.484 0 0 1 14.437 0h6.196a2.394 2.394 0 0 0 2.364-2.047h.254l5.932-2.648H0zM90 11.187H72.137l-1.326-1.105H90v1.105zM90 22.407h-8.456l-.663-1.106H90v1.106zM90 34.233h-4.062l-.221-1.105H90v1.105z"/><path d="M41.035.417L43 3.504v1.001C23 5.331 7.001 22.409 7.001 42.409h75.771C82.773 22.409 67 5.331 46 4.505V3.504L47.813.417h-6.778zM20.563 34.409h-4.465c3.481-15 18.261-22.42 18.261-22.42-11.848 13.421-13.796 22.42-13.796 22.42zM22.154 52.616a.413.413 0 0 1 .142.025.347.347 0 0 1 .205.449.349.349 0 0 1-.449.207.353.353 0 0 1-.226-.381l.02-.068a.351.351 0 0 1 .308-.232zm.151-1.119a.352.352 0 0 1 .498-.057.355.355 0 0 1 .056.496.358.358 0 0 1-.438.092l-.058-.035a.355.355 0 0 1-.058-.496zm-.986-.851a.376.376 0 0 1 .197-.063.353.353 0 0 1 .247.603l-.051.043a.356.356 0 0 1-.49-.1.346.346 0 0 1 .097-.483zm-.113 2.337a.352.352 0 0 1-.365.336.352.352 0 0 1-.041-.699l.072-.004a.35.35 0 0 1 .334.367zm-1.093-1.177a.35.35 0 0 1 .649-.253l.026.061a.358.358 0 0 1-.248.436.347.347 0 0 1-.427-.244zm1.403-7.662a7.917 7.917 0 1 0 0 15.835 7.917 7.917 0 0 0 0-15.835zm0 12.511a4.596 4.596 0 0 1 0-9.19 4.595 4.595 0 0 1 0 9.19zm0-.677A3.922 3.922 0 0 1 17.6 52.06a3.921 3.921 0 0 1 3.916-3.916 3.921 3.921 0 0 1 3.916 3.916 3.922 3.922 0 0 1-3.916 3.918zm0-6.618a2.703 2.703 0 0 0-2.7 2.699 2.703 2.703 0 0 0 2.7 2.701c1.488 0 2.7-1.211 2.7-2.701a2.703 2.703 0 0 0-2.7-2.699zM68.202 52.616a.409.409 0 0 1 .142.025.347.347 0 0 1 .205.449.347.347 0 0 1-.448.207.353.353 0 0 1-.227-.381l.02-.068a.35.35 0 0 1 .308-.232zm.151-1.119a.353.353 0 1 1 .116.531l-.058-.035a.354.354 0 0 1-.058-.496zm-.986-.851a.376.376 0 0 1 .197-.063.353.353 0 0 1 .247.603l-.051.043a.356.356 0 0 1-.49-.1.346.346 0 0 1 .097-.483zm-.113 2.337a.352.352 0 0 1-.365.336.352.352 0 0 1-.041-.699l.072-.004a.35.35 0 0 1 .334.367zm-1.093-1.177a.35.35 0 0 1 .649-.253l.026.061a.358.358 0 0 1-.248.436.347.347 0 0 1-.427-.244zm1.402-7.662a7.917 7.917 0 1 0 0 15.835 7.917 7.917 0 0 0 0-15.835zm0 12.511a4.596 4.596 0 0 1 0-9.19 4.595 4.595 0 0 1 0 9.19zm.049-.677a3.922 3.922 0 0 1-3.916-3.918 3.921 3.921 0 0 1 3.916-3.916 3.921 3.921 0 0 1 3.916 3.916 3.922 3.922 0 0 1-3.916 3.918zm0-6.618a2.703 2.703 0 0 0-2.7 2.699 2.703 2.703 0 0 0 2.7 2.701c1.489 0 2.7-1.211 2.7-2.701a2.701 2.701 0 0 0-2.7-2.699z"/></g></symbol><symbol id="rideshare" viewBox="0 0 92 68"><title>rideshare</title><g fill="#FFF" fill-rule="evenodd"><circle cx="20.492" cy="44.324" r="4.5"/><path d="M43.674.114v8.711H30.688c-6.148 0-12.586 4.535-14.719 10.531l-2.977 9.469c-6.551 0-12 5.146-12 11.697v7.303c0 6.551 5.449 12 12 12h3v8.062h9v-8.062h18.682v8.062h4.637V.114h-4.637zM21.871 21.237c1.182-3.311 5.605-6.412 9.121-6.412h12.682v14H19.992l1.879-7.588zm-8.879 32.587c-3.135 0-6-2.865-6-6v-7c0-3.135 2.865-6 6-6l30.682.006v18.994H12.992zM63.677 17.469a2.318 2.318 0 0 0 0 4.636h16.615a2.315 2.315 0 0 0 2.316-2.318 2.317 2.317 0 0 0-2.316-2.318H63.677zM63.677 26.744a2.317 2.317 0 1 0 0 4.636h16.615a2.317 2.317 0 0 0 2.316-2.318 2.315 2.315 0 0 0-2.316-2.318H63.677zM63.677 36.018a2.317 2.317 0 1 0 0 4.636h7.148a2.317 2.317 0 0 0 2.316-2.318 2.315 2.315 0 0 0-2.316-2.318h-7.148z"/><path d="M86.755 8.825H57.213a4.264 4.264 0 0 0-4.252 4.252l.002 42.564a4.265 4.265 0 0 0 4.252 4.252h29.54a4.265 4.265 0 0 0 4.252-4.252V13.077a4.265 4.265 0 0 0-4.252-4.252zm-.385 44.876c0 .781-.638 1.418-1.418 1.418H59.017c-.78 0-1.418-.637-1.418-1.418V14.878c0-.78.638-1.417 1.418-1.417h25.936c.78 0 1.418.637 1.418 1.417v38.823h-.001z"/></g></symbol><symbol id="truck" viewBox="0 0 98 50"><g fill="#FFF" fill-rule="evenodd"><path d="M94.735 37.512c-.904-11.186-9.253-14.208-9.253-14.208L84.377 7.235a1.504 1.504 0 0 0-.275-2.985H52.164l-29.598 7.094c-.598.203-1.038.748-1.038 1.415a1.51 1.51 0 0 0 1.508 1.508c.101 0 .193-.03.285-.055v28.96h2.374v-1.207c0-3.726 2.703-6.761 6.025-6.761.42 0 .831.048 1.227.14-.124-.008-.247-.02-.375-.02-2.928 0-5.31 2.698-5.31 6.019v1.989c0 3.32 2.381 6.02 5.31 6.02 2.925 0 5.302-2.699 5.302-6.02v-.16h8.885v-1.797c0-3.97 2.875-7.198 6.403-7.198.385 0 .758.044 1.125.121-3.038.132-5.47 2.967-5.47 6.439v2.149c0 3.562 2.548 6.456 5.688 6.456 3.048 0 5.538-2.742 5.671-6.171h21.331v.429c0 3.421 2.412 6.184 5.394 6.184 2.974 0 5.386-2.763 5.386-6.184v-.43h2.174c1.628 0 2.951-1.271 2.951-2.839 0-1.48-1.177-2.684-2.677-2.819zm-62.166 5.089c0 1.215-.744 2.197-1.659 2.197-.919 0-1.66-.982-1.66-2.197v-.529c0-1.216.741-2.198 1.66-2.198.915 0 1.659.982 1.659 2.198v.529zm21.933-.502c0 1.312-.804 2.37-1.788 2.37-.992 0-1.795-1.059-1.795-2.37v-.573c0-1.312.803-2.37 1.795-2.37.984 0 1.788 1.059 1.788 2.37v.573zm9.827-5.562a2.964 2.964 0 1 1 .004-5.928 2.964 2.964 0 0 1-.004 5.928zm-9.57-14.891l-.657-11.136h14.932l.689 11.137H54.759v-.001zm27.63-11.136l.691 11.137H71.267l-.885-11.137h12.007zM71.331 35.839l-.512-4.571h1.518l.512 4.571h-1.518zm2.674 0l-.513-4.571h1.512l.516 4.571h-1.515zm2.671 0l-.517-4.571h1.518l.513 4.571h-1.514zm2.669 0l-.514-4.571h1.515l.513 4.571h-1.514zm2.671 0l-.514-4.571h1.514l.512 4.571h-1.512zm7.128.698a2.96 2.96 0 0 1-2.96-2.964 2.96 2.96 0 1 1 5.923 0 2.964 2.964 0 0 1-2.963 2.964zM29.816 7.108l-6.78-.171 1.347 2.509 6.285-1.456-.852-.882zM40.045 3.939H29.879l2.166 3.712 9.588-2.235-1.588-1.477zM55.457 2.889L53.219.003 39.96.176l2.69 5.018 9.198-2.282 3.609-.023zM.587 23.513l20.181-2.591v-3.404L.587 23.513zM2.717 27.465l18.051-2.147v-3.042L2.717 27.465zM4.851 31.416l15.917-1.7v-2.683L4.851 31.416zM6.983 35.37l13.785-1.259v-2.322L6.983 35.37zM9.115 39.32l11.653-.81v-1.965L9.115 39.32z"/></g></symbol><symbol id="cd" viewBox="0 0 100 100"><path style="text-indent:0;text-align:start;line-height:normal;text-transform:none;block-progression:tb;marker:none;-inkscape-font-specification:Sans" d="M47 10C24.92 10 7 27.92 7 50s17.916 40.084 40 40c2.226 0 5.789-.41 8-1 .53-.158 1-.448 1-1a1 1 0 0 0-1-1c-2.655.584-5.594.979-8 1-20.994.08-38-17.001-38-38s17.001-38 38-38c18.337 0 33.415 12.921 37 30.188.106.515.672.887 1.188.78.515-.106.887-.671.78-1.187C82.197 23.614 66.279 10 47 10zm0 30c-5.511 0-10 4.489-10 10s4.489 10 10 10 10-4.489 10-10-4.489-10-10-10zm0 2c4.43 0 8 3.57 8 8s-3.57 8-8 8-8-3.57-8-8 3.57-8 8-8zm44.844 3l-24 4c-.47.074-.85.525-.844 1v23.125A6.973 6.973 0 0 0 62 71c-3.854 0-7 3.146-7 7s3.146 7 7 7 7-3.146 7-7V62.812l22-3.656v9.969A6.973 6.973 0 0 0 86 67c-3.854 0-7 3.146-7 7s3.146 7 7 7 7-3.146 7-7V46c.007-.58-.583-1.09-1.156-1zM91 47.156v9.969l-22 3.688v-10zM86 69c2.773 0 5 2.227 5 5s-2.227 5-5 5-5-2.227-5-5 2.227-5 5-5zm-24 4c2.773 0 5 2.227 5 5s-2.227 5-5 5-5-2.227-5-5 2.227-5 5-5z" font-weight="400" color="#000" overflow="visible" font-family="Sans"/></symbol><symbol id="computerrepair" viewBox="0 0 100 100"><path d="M12.053 77.779h75.896c2.229 0 4.051-1.943 4.051-4.325v-3.843H8v3.843c0 2.382 1.822 4.325 4.053 4.325zm10.063-13.882h56.706V28.174H22.116v35.723zM37.29 28.173l.93 4.216 6.407 3.254-3.022 3.056 14.41 3.817M38.218 32.389l-4.927 1.052-1.617 8.11m-2.19 9.962l.866-4.814 3.286-1.593-5.613-8.931-2.955 1.66-2.953-4.317m26.693 7.09l.17 5.56-.17-5.56zm36.134 29.003V26.096c-.312-2.422-1.668-3.793-4.096-4.096H19.982c-2.574.21-3.833 1.676-4.097 4.096v43.515h69.058z" fill="none" stroke="#000" stroke-width="3" stroke-linecap="round" stroke-linejoin="round"/></symbol><symbol id="phonerepair" viewBox="0 0 100 100"><path d="M69.009 81.755c0 2.346-1.9 4.245-4.245 4.245H35.247a4.243 4.243 0 0 1-4.245-4.245v-63.51A4.244 4.244 0 0 1 35.247 14h29.518a4.245 4.245 0 0 1 4.245 4.245l-.001 63.51zM31 21.971h38.009H31zm0 50.236h38.009H31zm19.005 4.098a2.758 2.758 0 1 1 .001 5.517 2.758 2.758 0 0 1-.001-5.517zm-2.679-54.319l1.998 8.37-3.574 1.35-.768 3.545 4.272 4.962M57.25 59.37l-6.409-4.203 7.856-8.821-3.17-6.822-2.058-7.89-4.144-1.277m19.545-2.758l-4.453 5.86-4.204-1.932-4.686 7.996m-10.543-4.272l-5.72 4.615-.827 4.274" fill="none" stroke="#000" stroke-width="3" stroke-linecap="round" stroke-linejoin="round"/></symbol><symbol id="virusremoval" viewBox="0 0 72 72"><g fill="#FFF" fill-rule="evenodd"><path d="M69.8.5H2.2C1.3.5.5 1.3.5 2.2v67.6c0 .9.8 1.7 1.7 1.7h67.6c.9 0 1.7-.8 1.7-1.7V2.2c0-.9-.8-1.7-1.7-1.7zM25 4.5c1.2 0 2.1.9 2.1 2.1 0 1.2-.9 2.1-2.1 2.1-1.2 0-2.1-.9-2.1-2.1 0-1.2.9-2.1 2.1-2.1zm-8.9 0c1.2 0 2.1.9 2.1 2.1 0 1.2-.9 2.1-2.1 2.1-1.1 0-2.1-.9-2.1-2.1 0-1.2 1-2.1 2.1-2.1zm-8.8 0c1.2 0 2.1.9 2.1 2.1 0 1.2-.9 2.1-2.1 2.1-1.2 0-2.1-.9-2.1-2.1 0-1.2.9-2.1 2.1-2.1zm59.2 60.3c0 .9-.8 1.7-1.7 1.7H7.2c-.9 0-1.7-.8-1.7-1.7V16.5c0-.9.8-1.7 1.7-1.7h57.6c.9 0 1.7.8 1.7 1.7v48.3z"/><path d="M51.8 31.6c-.8-.1-1.6-.5-2.3-1.1-1-1-1.4-2.5-1-3.8.1-.3-.1-.6-.4-.7-7.1-2.2-16-2.3-24.4.2-.3.1-.5.4-.4.7.3 1.3 0 2.7-1 3.7-.6.6-1.4 1-2.3 1.1-.3 0-.6.4-.5.7 1.3 6.7 5 19.3 16 26.5.2.1.4.1.6 0 11-7.2 14.8-19.8 16-26.5.3-.4.1-.7-.3-.8zm-7.7 7L33 47.7c-.4.3-.8.5-1.3.5h-.4c-.6-.1-1.1-.5-1.3-1l-2.6-5c-.2-.5-.3-1-.1-1.5.2-.5.5-.9 1-1.1.3-.1.6-.2.9-.2.7 0 1.4.4 1.8 1.1l1 2c.2.4.8.6 1.2.2l8.4-7c.4-.3.8-.5 1.3-.5.6 0 1.1.3 1.5.7.6.7.5 2-.3 2.7z"/></g></symbol><symbol id="wifi" viewBox="0 0 100 100"><path d="M85.387 76.184a5.237 5.237 0 0 1-5.238 5.237H19.238A5.238 5.238 0 0 1 14 76.184v-10.25a5.238 5.238 0 0 1 5.238-5.238h60.911a5.237 5.237 0 0 1 5.238 5.238v10.25zm-60.032 5.237v4.58-4.58zm46.582 0v4.58-4.58zm-1.432-15.092a4.871 4.871 0 1 1 0 9.742 4.871 4.871 0 0 1 0-9.742zm-20.811-5.634V36.524v24.171zm0-31.212v-3.099 3.099zM24.356 14.001a28.817 28.817 0 0 0 .002 27.287m12.908-20.329a13.933 13.933 0 0 0-1.679 6.685c0 2.369.563 4.616 1.677 6.682m-6.453 3.481a21.327 21.327 0 0 1-2.557-10.163c0-3.677.926-7.138 2.557-10.164m31.313 16.842a13.929 13.929 0 0 0 1.678-6.679c0-2.37-.564-4.618-1.678-6.683m12.91 20.32a28.824 28.824 0 0 0 3.434-13.637c0-4.758-1.188-9.476-3.434-13.643m-6.455 3.48a21.35 21.35 0 0 1 2.556 10.163c0 3.675-.927 7.136-2.556 10.157M31.194 73.001a1.5 1.5 0 1 0 0-3 1.5 1.5 0 0 0 0 3zm-9 0a1.5 1.5 0 1 0 0-3 1.5 1.5 0 0 0 0 3zm18 0a1.5 1.5 0 1 0 0-3 1.5 1.5 0 0 0 0 3z" fill="none" stroke="#000" stroke-width="3" stroke-linecap="round" stroke-linejoin="round"/></symbol></svg>