<svg width="200px" height="200px" viewBox="0 0 200 200" version="1.1" xmlns="http://www.w3.org/2000/svg" xmlns:xlink="http://www.w3.org/1999/xlink">
	<circle class="background" fill="#000000" cx="100" cy="100" r="100"></circle>
    <path fill-rule="evenodd" d="M123.827185,94.153747 L147.177087,94.153747 L147.177087,135.18874 L52.822913,135.18874 L52.822913,94.153747 L80.187272,94.153747 C78.426511,97.539054 77.43081,101.383196 77.43081,105.455562 C77.43081,119.005544 88.455979,130.029584 102.00822,130.029584 C115.559332,130.029584 126.583372,119.006673 126.583372,105.455562 C126.583372,101.383196 125.587773,97.539054 123.827185,94.153747 L123.827185,94.153747 L123.827185,94.153747 Z M122.108738,91.330834 L147.177087,91.330834 L147.177087,73.4584072 L52.822913,73.4584072 L52.822913,91.330834 L81.701313,91.330834 C81.767518,91.330834 81.832663,91.3354 81.89645,91.344233 C86.347737,85.020106 93.703501,80.88041 102.00822,80.88041 C110.306381,80.88041 117.656928,85.014259 122.108738,91.330834 L122.108738,91.330834 L122.108738,91.330834 Z M61.0985648,70.6354942 L60.5226906,70.6354942 L60.5226906,65.2527636 C60.5226906,64.4736396 59.8903581,63.8413071 59.1112341,63.8413071 L54.1711363,63.8413071 C53.3920123,63.8413071 52.7596798,64.4736396 52.7596798,65.2527636 L52.7596798,70.6354942 L51.4114565,70.6354942 C50.6323325,70.6354942 50,71.2678267 50,72.0469507 L50,136.600196 C50,137.37932 50.6323325,138.011653 51.4114565,138.011653 L148.588543,138.011653 C149.367667,138.011653 150,137.37932 150,136.599067 L150,72.0469507 L150,63.3998035 C150,62.6206795 149.367667,61.988347 148.588543,61.988347 L79.209246,61.988347 C78.430122,61.988347 77.797789,62.6206795 77.797789,63.3998035 L77.797789,70.6354942 L76.587324,70.6354942 L76.587324,65.2527636 C76.587324,64.4736396 75.954991,63.8413071 75.175867,63.8413071 L62.5100213,63.8413071 C61.7308973,63.8413071 61.0985648,64.4736396 61.0985648,65.2527636 L61.0985648,70.6354942 L61.0985648,70.6354942 Z M80.620702,70.6354942 L147.177087,70.6354942 L147.177087,64.81126 L80.620702,64.81126 L80.620702,70.6354942 L80.620702,70.6354942 Z M55.5825928,70.6354942 L57.6997776,70.6354942 L57.6997776,66.6642201 L55.5825928,66.6642201 L55.5825928,70.6354942 L55.5825928,70.6354942 Z M63.9214779,70.6354942 L73.764411,70.6354942 L73.764411,66.6642201 L63.9214779,66.6642201 L63.9214779,70.6354942 L63.9214779,70.6354942 Z M102.00822,83.704452 C90.013098,83.704452 80.253723,93.462698 80.253723,105.456691 C80.253723,117.449555 90.013098,127.2078 102.00822,127.2078 C114.002213,127.2078 123.760459,117.449555 123.760459,105.456691 C123.760459,93.462698 114.002213,83.704452 102.00822,83.704452 L102.00822,83.704452 Z M102.00822,124.220029 C91.66168,124.220029 83.244882,115.803232 83.244882,105.456691 C83.244882,95.11015 91.66168,86.692223 102.00822,86.692223 C112.353632,86.692223 120.7693,95.11015 120.7693,105.456691 C120.7693,115.803232 112.353632,124.220029 102.00822,124.220029 L102.00822,124.220029 L102.00822,124.220029 Z M102.00822,89.515136 C93.218798,89.515136 86.067795,96.66614 86.067795,105.456691 C86.067795,114.246113 93.218798,121.397116 102.00822,121.397116 C110.796513,121.397116 117.946387,114.246113 117.946387,105.456691 C117.946387,96.66614 110.796513,89.515136 102.00822,89.515136 L102.00822,89.515136 L102.00822,89.515136 Z M143.335667,89.826786 L126.967288,89.826786 C126.188164,89.826786 125.555832,89.194454 125.555832,88.41533 L125.555832,77.608089 C125.555832,76.828965 126.188164,76.196633 126.967288,76.196633 L143.335667,76.196633 C144.114791,76.196633 144.747123,76.828965 144.747123,77.608089 L144.747123,88.41533 C144.747123,89.195583 144.114791,89.826786 143.335667,89.826786 L143.335667,89.826786 L143.335667,89.826786 Z M128.378745,87.003873 L141.92421,87.003873 L141.92421,79.019546 L128.378745,79.019546 L128.378745,87.003873 L128.378745,87.003873 Z M73.3161324,85.567575 L63.396416,85.567575 C62.617292,85.567575 61.9849595,84.935242 61.9849595,84.156118 L61.9849595,77.608089 C61.9849595,76.828965 62.617292,76.196633 63.396416,76.196633 L73.3161324,76.196633 C74.0952564,76.196633 74.7275889,76.828965 74.7275889,77.608089 L74.7275889,84.156118 C74.7275889,84.935242 74.0952564,85.567575 73.3161324,85.567575 L73.3161324,85.567575 L73.3161324,85.567575 Z M64.8078725,82.744662 L71.9046759,82.744662 L71.9046759,79.019546 L64.8078725,79.019546 L64.8078725,82.744662 L64.8078725,82.744662 Z M70.4954777,110.251126 C68.1332641,110.251126 66.2125541,108.333804 66.2125541,105.976107 C66.2125541,103.616152 68.1332641,101.696571 70.4954777,101.696571 C72.8543038,101.696571 74.7738847,103.616152 74.7738847,105.976107 C74.7738847,108.333804 72.8543038,110.251126 70.4954777,110.251126 L70.4954777,110.251126 L70.4954777,110.251126 Z M70.4954777,104.519484 C69.6903829,104.519484 69.0354671,105.17327 69.0354671,105.976107 C69.0354671,106.776685 69.6903829,107.428213 70.4954777,107.428213 C71.2983142,107.428213 71.9509716,106.776685 71.9509716,105.976107 C71.9509716,105.17327 71.2983142,104.519484 70.4954777,104.519484 L70.4954777,104.519484 L70.4954777,104.519484 Z" class="icon" fill="#FFFFFF"></path>
</svg>