<?xml version="1.0" encoding="utf-8"?>
<!-- Generator: Adobe Illustrator 16.0.0, SVG Export Plug-In . SVG Version: 6.00 Build 0)  -->
<!DOCTYPE svg PUBLIC "-//W3C//DTD SVG 1.1//EN" "http://www.w3.org/Graphics/SVG/1.1/DTD/svg11.dtd">
<svg version="1.1" id="Layer_1" xmlns="http://www.w3.org/2000/svg" xmlns:xlink="http://www.w3.org/1999/xlink" x="0px" y="0px"
	 width="191.502px" height="188.088px" viewBox="210.528 301.752 191.502 188.088"
	 enable-background="new 210.528 301.752 191.502 188.088" xml:space="preserve">
<g>
	<g>
		<path fill="#FFFFFF" d="M256.632,488.616h-46.104V376.008h46.104V488.616z M218.688,480.456h29.784v-96.288h-29.784V480.456z"/>
	</g>
	<g>
		<path fill="#FFFFFF" d="M358.632,489.84L358.632,489.84h-0.815h-64.464c-17.952,0-30.192-6.12-30.6-6.12l-2.04-1.224v-99.552h4.08
			c4.488,0,8.976-3.672,13.056-6.936c0.816-0.408,1.632-1.224,2.04-1.632c5.304-5.304,13.056-16.32,16.728-21.624
			c6.936-9.792,10.607-18.768,10.607-26.112v-17.136c0-4.488,4.896-7.752,11.832-7.752c6.937,0,13.872,2.856,18.769,7.752
			c4.487,4.896,6.936,11.424,6.527,19.584c-0.407,10.608-4.08,19.992-6.527,27.744c-1.632,4.488-3.265,8.568-3.265,10.608
			c0,4.896,4.08,9.384,8.568,9.384h41.616c4.896,0,9.792,2.04,13.056,5.304c2.856,3.264,4.488,7.344,4.08,11.424
			c0,5.711-1.632,10.2-2.448,12.24c-0.407,1.224-0.815,2.448-1.224,3.672c0,0.816,0,2.448,0.815,4.08
			c5.713,9.792,2.04,15.504-0.815,19.584c-2.448,3.672-3.672,5.304-2.448,9.384c2.856,8.977-3.672,15.097-8.16,18.769
			c-1.224,1.224-3.672,3.264-3.672,4.08c0.816,6.527-0.408,11.832-4.08,16.319C373.728,489.024,363.12,489.84,358.632,489.84z
			 M268.464,477.192c4.08,1.632,13.056,4.487,24.888,4.487h65.688c5.304,0,11.832-1.224,15.096-5.304
			c2.04-2.448,2.856-5.712,2.04-9.792c-0.815-4.896,3.265-8.16,6.528-11.016c4.488-4.08,6.936-6.528,5.712-10.2
			c-2.448-7.752,0.408-12.648,2.855-16.32c2.448-3.672,3.673-5.304,0.408-11.016c-1.632-3.265-2.447-6.12-2.04-9.384v-0.408
			c0.408-1.632,0.816-2.856,1.225-4.08v-0.408c0.407-1.224,2.04-4.896,2.04-9.792v-0.408c0-2.04-0.408-4.08-2.04-5.304
			c-1.632-1.632-4.08-2.856-6.937-2.856h-41.615c-8.977,0-16.729-8.16-16.729-17.544c0-3.672,1.632-7.752,3.672-13.464
			c2.448-7.344,5.712-16.32,6.12-25.296c0.408-5.712-1.224-10.2-4.488-13.464c-3.264-4.08-8.567-5.304-12.239-5.304
			c-1.633,0-3.265,0.408-3.673,0.408v15.912c0,8.976-4.079,19.176-11.832,30.6c-6.12,8.976-12.648,17.544-17.544,22.848
			l-0.408,0.408c-0.816,0.408-1.632,1.224-2.04,1.632c-4.08,3.264-8.568,6.936-13.872,8.16v86.904H268.464z"/>
	</g>
</g>
</svg>
