<svg viewBox="0 0 95 86" version="1.1" xmlns="http://www.w3.org/2000/svg" xmlns:xlink="http://www.w3.org/1999/xlink">
    <g fill="none" fill-rule="evenodd">
        <g fill="#FFFFFF">
            <g transform="translate(35.FFFFFF, 9.FFFFFF)">
                <path d="M11.289,23.702 L10.459,29.432 C10.727,29.434 12.155,29.432 12.602,29.427 L14.955,20.594 C16.197,17.166 18.026,15.118 20.412,14.385 C19.679,14.032 18.877,13.835 17.981,13.835 L1.866,13.835 C1.322,13.835 0.815,13.922 0.329,14.056 L1.302,14.056 C7.471,14.055 11.289,19.063 11.289,23.702 L11.289,23.702 Z"></path>
                <path d="M9.928,11.666 C13.068,11.666 15.615,9.12 15.615,5.974 C15.615,2.828 13.068,0.286 9.928,0.286 C6.78,0.286 4.24,2.828 4.24,5.974 C4.24,9.12 6.779,11.666 9.928,11.666 L9.928,11.666 Z"></path>
            </g>
            <path d="M93.868,28.921 C93.329,28.869 92.878,28.771 92.276,28.771 C91.448,28.771 90.71,28.879 89.953,28.978 L87.352,10.799 C86.657,5.911 82.466,2.283 77.529,2.283 C54.479,0.512 41.198,-0.482 17.777,2.283 C12.845,2.283 8.653,5.911 7.956,10.799 L5.352,28.978 C4.596,28.879 3.859,28.771 3.033,28.771 C2.429,28.771 1.976,28.87 1.441,28.921 C0.445,30.447 0.175,32.528 0.905,34.83 C1.106,35.448 1.452,36.019 1.764,36.601 C2.653,36.61 3.508,36.681 4.363,36.737 C3.284,45.269 2.515,48.474 2.234,57.067 C2.155,59.491 2.573,61.878 3.42,64.102 L3.42,81.855 C3.42,83.91 5.295,85.573 7.615,85.573 L14.31,85.573 C16.628,85.573 18.503,83.91 18.503,81.855 L18.503,75.671 C19.107,75.728 19.722,75.761 20.333,75.761 L74.967,75.761 C75.578,75.761 76.195,75.728 76.799,75.671 L76.799,81.855 C76.799,83.91 78.682,85.573 80.995,85.573 L87.686,85.573 C90.011,85.573 91.885,83.91 91.885,81.855 L91.885,64.092 C92.732,61.865 93.145,59.487 93.07,57.06 L93.07,57.05 C92.788,48.464 92.024,45.262 90.942,36.737 C91.8,36.68 92.657,36.61 93.541,36.601 C93.855,36.02 94.204,35.449 94.403,34.83 C95.13,32.528 94.862,30.447 93.868,28.921 L93.868,28.921 Z M11.291,30.28 C12.316,23.048 13.929,11.654 13.929,11.654 C14.203,9.75 15.856,8.32 17.777,8.32 C41.697,5.555 53.974,6.545 77.529,8.32 C79.453,8.32 81.105,9.75 81.376,11.649 C81.376,11.649 82.966,22.876 83.995,30.115 C84.324,32.45 83.266,34.639 81.47,35.916 L79.886,29.946 C78.536,26.245 76.509,24.425 73.627,24.425 L57.512,24.425 C54.654,24.425 52.617,26.245 51.277,29.946 L48.655,39.779 C47.057,39.807 45.47,39.802 43.884,39.783 L44.924,32.701 C44.924,28.521 41.486,24.42 36.302,24.42 L22.206,24.416 C17.49,24.416 13.69,28.055 13.69,32.588 L14.242,36.371 C12.176,35.159 10.934,32.793 11.291,30.28 L11.291,30.28 Z M76.231,37.364 C75.686,37.439 75.127,37.521 74.585,37.596 L73.607,33.867 L75.304,33.867 L76.231,37.364 L76.231,37.364 Z M57.55,33.868 L56.12,39.487 C55.518,39.52 54.914,39.567 54.319,39.595 L55.842,33.868 L57.55,33.868 L57.55,33.868 Z M19.961,37.717 L19.517,34.244 L20.9,34.244 L21.351,37.924 C20.89,37.855 20.425,37.787 19.961,37.717 L19.961,37.717 Z M38.457,39.614 C38.017,39.595 37.579,39.581 37.137,39.555 L37.79,34.244 L39.143,34.244 L38.457,39.614 L38.457,39.614 Z M14.263,54.307 C14.256,54.286 14.285,54.267 14.279,54.252 C11.515,53.448 9.34,52.381 7.922,51.182 C7.885,51.09 7.839,51.01 7.81,50.923 C7.206,49.033 7.375,47.34 7.979,45.934 C11.672,47.834 17.57,49.109 23.909,49.149 C24.222,49.734 24.568,50.303 24.768,50.923 C25.498,53.223 25.228,55.301 24.232,56.829 C23.697,56.876 23.243,56.984 22.64,56.984 C18.483,56.984 14.734,55.787 14.263,54.307 L14.263,54.307 Z M70.1,62.914 C52.62,66.502 41.109,66.803 25.095,63.06 C24.47,62.914 23.908,62.567 23.407,62.103 C40.071,64.368 53.906,64.154 71.949,61.832 C71.4,62.359 70.796,62.768 70.1,62.914 L70.1,62.914 Z M87.498,50.923 C87.471,51.01 87.421,51.09 87.391,51.182 C85.968,52.381 83.793,53.449 81.031,54.252 C81.024,54.267 81.052,54.285 81.046,54.307 C80.573,55.787 76.823,56.985 72.668,56.985 C72.066,56.985 71.613,56.877 71.074,56.83 C70.077,55.302 69.811,53.224 70.543,50.924 C70.743,50.304 71.084,49.735 71.401,49.15 C77.737,49.11 83.638,47.836 87.33,45.935 C87.934,47.34 88.105,49.033 87.498,50.923 L87.498,50.923 Z"></path>
            <path d="M65.574,22.559 C69.103,22.559 71.967,19.695 71.967,16.159 C71.967,12.618 69.104,9.762 65.574,9.762 C62.035,9.762 59.177,12.618 59.177,16.159 C59.177,19.695 62.035,22.559 65.574,22.559 L65.574,22.559 Z"></path>
            <path d="M29.308,22.559 C32.844,22.559 35.708,19.698 35.708,16.159 C35.708,12.623 32.844,9.762 29.308,9.762 C25.772,9.762 22.909,12.623 22.909,16.159 C22.908,19.698 25.771,22.559 29.308,22.559 L29.308,22.559 Z"></path>
        </g>
    </g>
</svg>