<?xml version="1.0" encoding="utf-8"?>
<!-- Generator: Adobe Illustrator 16.0.0, SVG Export Plug-In . SVG Version: 6.00 Build 0)  -->
<!DOCTYPE svg PUBLIC "-//W3C//DTD SVG 1.1//EN" "http://www.w3.org/Graphics/SVG/1.1/DTD/svg11.dtd">
<svg version="1.1" id="Layer_1" xmlns="http://www.w3.org/2000/svg" xmlns:xlink="http://www.w3.org/1999/xlink" x="0px" y="0px"
	 width="149.629px" height="152.726px" viewBox="224.742 319.638 149.629 152.726"
	 enable-background="new 224.742 319.638 149.629 152.726" xml:space="preserve">
<path fill="none" stroke="#FFFFFF" stroke-width="1.7647" stroke-miterlimit="10" d="M352.104,362.136
	c1.633-2.04,2.856-10.2,2.856-10.2s1.224,8.16,3.264,10.2c2.04,2.04,10.2,3.264,10.2,3.264s-8.16,1.224-10.2,3.264
	s-3.264,10.2-3.264,10.2s-1.224-8.16-3.264-10.2s-10.2-3.264-10.2-3.264S350.064,364.176,352.104,362.136z M301.104,471.48
	c-41.616,0-75.48-33.864-75.48-75.48s33.864-75.48,75.48-75.48c3.672,0,6.936,0.408,10.2,0.816
	c-15.504,10.608-25.704,28.56-25.704,48.96c0,33.048,26.52,59.568,59.568,59.568c9.384,0,17.952-2.04,26.112-6.12
	C360.264,451.896,332.928,471.48,301.104,471.48z"/>
</svg>
