<svg viewBox="0 0 39 43" version="1.1" xmlns="http://www.w3.org/2000/svg" xmlns:xlink="http://www.w3.org/1999/xlink">
    <title>outdoor</title>
    <g fill="none" fill-rule="evenodd">
        <g id="outdoor" fill="#FFFFFF">
            <path d="M39,43 L0,43 L0,0 L39,0 L39,43 L39,43 Z M2,41 L37,41 L37,2 L2,2 L2,41 L2,41 Z"></path>
            <path d="M35,33 L4,33 L4,4 L35,4 L35,33 L35,33 Z M6,31 L33,31 L33,6 L6,6 L6,31 L6,31 Z"></path>
            <path d="M28.8,28 L10.2,28 C9.4,28 8.7,27.6 8.4,26.8 C8.1,26.1 8.2,25.3 8.7,24.7 L12.3,20.6 C13,19.8 14.4,19.7 15.2,20.5 L16.9,22.2 L17,22.1 L21.6,17.5 C22.4,16.5 24,16.6 24.7,17.6 L30.3,24.8 C30.8,25.4 30.8,26.2 30.5,26.9 C30.2,27.6 29.5,28 28.8,28 L28.8,28 Z M13.8,21.9 L10.2,26 L28.8,26 L23.2,18.8 L23.1,18.9 L18.5,23.5 C17.8,24.4 16.4,24.4 15.6,23.6 L13.8,21.9 L13.8,21.9 Z"></path>
            <path d="M13,17 C10.8,17 9,15.2 9,13 C9,10.8 10.8,9 13,9 C15.2,9 17,10.8 17,13 C17,15.2 15.2,17 13,17 L13,17 Z M13,11 C11.9,11 11,11.9 11,13 C11,14.1 11.9,15 13,15 C14.1,15 15,14.1 15,13 C15,11.9 14.1,11 13,11 L13,11 Z"></path>
        </g>
    </g>
</svg>