
<!-- Generator: Adobe Illustrator 16.0.0, SVG Export Plug-In . SVG Version: 6.00 Build 0)  -->
<!DOCTYPE svg PUBLIC "-//W3C//DTD SVG 1.1//EN" "http://www.w3.org/Graphics/SVG/1.1/DTD/svg11.dtd">
<svg version="1.1" id="Layer_1" xmlns="http://www.w3.org/2000/svg" xmlns:xlink="http://www.w3.org/1999/xlink" x="0px" y="0px"
	 width="379.443px" height="379.462px" viewBox="116.278 206.257 379.443 379.462"
	 enable-background="new 116.278 206.257 379.443 379.462" xml:space="preserve">
<g>
	<path fill="#808080" d="M306,585.72c-104.856,0-190.128-85.68-189.72-190.128c0.408-104.448,84.864-190.944,192.984-189.312
		c103.633,1.632,186.864,85.271,186.456,190.536C495.72,500.448,409.632,585.72,306,585.72z M306,575.52
		c98.328,0,179.52-80.376,179.52-178.296c0-99.959-79.968-180.744-179.111-180.744c-99.144,0-179.928,79.968-179.928,179.112
		C126.48,494.736,206.856,575.112,306,575.52z"/>
	<path fill="#808080" d="M303.96,511.464c-32.64-0.408-63.24-13.872-86.904-42.023c-21.216-25.297-29.376-55.08-25.704-87.72
		c2.04-20.4,10.2-38.352,22.032-54.672c9.384-12.24,24.888-14.688,37.128-6.528c12.24,8.568,15.096,24.072,6.936,37.128
		c-5.304,8.16-10.2,16.728-11.832,26.52c-7.344,35.088,19.176,70.176,54.672,72.624c32.64,2.448,59.568-17.544,66.096-49.776
		c3.265-15.504,0.408-29.784-7.752-43.248c-3.264-5.712-6.936-11.424-8.16-17.544c-2.447-12.24,4.488-23.664,15.504-28.152
		c11.832-4.896,24.48-1.632,32.641,8.568c29.376,37.944,31.008,92.616,4.08,132.192C380.664,491.88,347.616,510.24,303.96,511.464z
		 M411.264,396c0-11.832-2.04-23.256-5.712-34.68c-3.672-11.016-8.976-21.216-16.728-29.784c-4.896-5.712-12.648-6.936-19.584-3.672
		c-6.12,2.856-10.2,10.2-8.568,17.544c1.225,4.488,3.672,8.976,6.12,13.056c8.568,14.28,12.24,29.376,10.2,46.104
		c-4.896,42.432-45.288,70.991-87.312,61.607c-46.92-11.016-70.176-64.872-45.288-106.896c1.632-2.856,3.672-5.712,5.304-8.568
		c4.08-7.752,2.04-17.136-4.896-21.624c-7.752-4.896-17.136-3.672-22.44,3.672c-6.936,9.384-12.648,19.584-16.32,31.008
		c-10.2,33.456-6.12,64.872,14.28,93.024c26.112,35.496,62.016,50.184,105.672,42.432C375.36,490.248,411.264,445.776,411.264,396z"
		/>
	<path fill="#808080" d="M331.296,339.288c0,15.096,0.408,30.192,0,44.88c-0.408,19.176-21.216,30.6-37.944,21.216
		c-8.568-4.896-12.648-12.648-12.648-22.032c-0.408-23.256-0.408-46.512-0.408-69.768c0-6.936,0-14.28,0.408-21.216
		c0.816-13.464,11.832-23.256,25.704-23.256c12.647,0,24.479,10.2,24.888,22.848C331.704,307.464,331.296,323.376,331.296,339.288
		L331.296,339.288z M321.096,339.696L321.096,339.696c0-4.08,0-7.752,0-11.832c0-11.424,0-22.848-0.408-33.864
		c-0.407-8.568-6.936-14.28-15.096-14.28c-8.976,0-15.096,6.528-15.096,15.912c0,15.096,0,30.192,0,45.288
		c0,14.28,0,28.56,0.408,43.248c0,6.528,2.856,11.832,9.792,13.872c10.608,3.264,20.4-3.264,20.4-14.688
		C321.504,368.664,321.096,353.976,321.096,339.696z"/>
</g>
</svg>
