<!-- Generator: Adobe Illustrator 16.0.0, SVG Export Plug-In . SVG Version: 6.00 Build 0)  -->
<!DOCTYPE svg PUBLIC "-//W3C//DTD SVG 1.1//EN" "http://www.w3.org/Graphics/SVG/1.1/DTD/svg11.dtd">
<svg version="1.1" id="Layer_1" xmlns="http://www.w3.org/2000/svg" xmlns:xlink="http://www.w3.org/1999/xlink" x="0px" y="0px"
	 width="370.2px" height="370.2px" viewBox="120.9 210.9 370.2 370.2" enable-background="new 120.9 210.9 370.2 370.2"
	 xml:space="preserve">
<g>
	<circle fill="#99E567" stroke="#99E567" stroke-width="3" stroke-miterlimit="10" cx="306" cy="396" r="183.6"/>
	<path fill="#FFFFFF" d="M407.184,402.12c1.225-19.584-8.976-36.72-24.479-44.064c-8.16-34.68-35.904-61.2-70.176-63.648
		c-34.68-2.448-65.688,20.4-78.336,53.448c-16.32,4.896-29.376,20.808-30.6,40.392c-1.632,24.888,15.504,46.104,37.944,47.328
		l5.304-81.6c10.2-27.336,35.904-46.104,64.464-44.064c28.152,2.04,51,23.664,57.528,52.224l-5.304,76.704
		c-3.265,6.528-22.849,42.433-45.696,42.024c-1.224-5.305-5.712-9.384-11.016-9.792c-6.937-0.408-13.056,5.304-13.464,12.647
		c-0.408,7.752,4.488,13.872,11.424,14.688c5.304,0.408,10.2-3.265,12.24-8.16c26.929,0.816,48.553-36.72,53.448-46.104
		C390.048,441.288,405.552,424.152,407.184,402.12z"/>
</g>
</svg>
