<?xml version="1.0" encoding="utf-8"?>
<!-- Generator: Adobe Illustrator 16.0.0, SVG Export Plug-In . SVG Version: 6.00 Build 0)  -->
<!DOCTYPE svg PUBLIC "-//W3C//DTD SVG 1.1//EN" "http://www.w3.org/Graphics/SVG/1.1/DTD/svg11.dtd">
<svg version="1.1" id="Layer_1" xmlns="http://www.w3.org/2000/svg" xmlns:xlink="http://www.w3.org/1999/xlink" x="0px" y="0px"
	 width="401.208px" height="401.208px" viewBox="105.396 195.396 401.208 401.208"
	 enable-background="new 105.396 195.396 401.208 401.208" xml:space="preserve">
<g>
	<path fill="#FF1D25" d="M383.52,318.48c-4.487-4.488-11.832-4.488-16.319,0l-61.2,61.2l-61.2-61.2
		c-4.488-4.488-11.832-4.488-16.32,0s-4.488,11.832,0,16.32l61.2,61.2l-61.2,61.2c-4.488,4.487-4.488,11.832,0,16.319
		c2.448,2.448,5.304,3.265,8.16,3.265s6.12-1.225,8.16-3.265L306,412.32l61.2,61.199c2.448,2.448,5.304,3.265,8.16,3.265
		c2.855,0,6.12-1.225,8.159-3.265c4.488-4.487,4.488-11.832,0-16.319L322.32,396l61.199-61.2
		C388.008,330.312,388.008,322.968,383.52,318.48z"/>
	<path fill="#FFFFFF" stroke="#FFFFFF" stroke-width="3" stroke-miterlimit="10" d="M306,595.104
		c-109.752,0-199.104-89.352-199.104-199.104S196.248,196.896,306,196.896S505.104,286.248,505.104,396S415.752,595.104,306,595.104
		z M306,199.752c-108.12,0-196.248,88.128-196.248,196.248S197.88,592.248,306,592.248S502.248,504.12,502.248,396
		S414.12,199.752,306,199.752z"/>
</g>
</svg>
