<svg xmlns:dc="http://purl.org/dc/elements/1.1/" xmlns:cc="http://creativecommons.org/ns#" xmlns:rdf="http://www.w3.org/1999/02/22-rdf-syntax-ns#" xmlns:svg="http://www.w3.org/2000/svg" xmlns="http://www.w3.org/2000/svg" xmlns:sodipodi="http://sodipodi.sourceforge.net/DTD/sodipodi-0.dtd" xmlns:inkscape="http://www.inkscape.org/namespaces/inkscape" version="1.1" x="0px" y="0px" viewBox="0 0 100 100"><g transform="translate(0,-952.36218)"><path style="font-size:medium;font-style:normal;font-variant:normal;font-weight:normal;font-stretch:normal;text-indent:0;text-align:start;text-decoration:none;line-height:normal;letter-spacing:normal;word-spacing:normal;text-transform:none;direction:ltr;block-progression:tb;writing-mode:lr-tb;text-anchor:start;baseline-shift:baseline;opacity:1;color:#000000;fill:#000000;fill-opacity:1;stroke:none;stroke-width:1.53846156999999990;marker:none;visibility:visible;display:inline;overflow:visible;enable-background:accumulate;font-family:Sans;-inkscape-font-specification:Sans" d="M 47,10 C 24.920455,10 7,27.92044 7,50 c 0,22.0795 17.916025,40.0841 40,40 2.225946,0 5.78885,-0.409112 8,-1 0.529115,-0.158291 1,-0.447715 1,-1 0,-0.552285 -0.447715,-1 -1,-1 -2.654882,0.584269 -5.594462,0.978577 -8,1 C 26.006078,88.08 9,70.9986 9,50 9,29.00132 26.001335,12 47,12 c 18.337114,0 33.414826,12.92105 37,30.1875 0.106356,0.515418 0.672082,0.887606 1.1875,0.78125 0.515417,-0.106356 0.887606,-0.672082 0.78125,-1.1875 C 82.196488,23.61377 66.278774,10 47,10 z m 0,30 c -5.511003,0 -10,4.48898 -10,10 0,5.511 4.488997,10 10,10 5.511003,0 10,-4.489 10,-10 0,-5.51102 -4.488997,-10 -10,-10 z m 0,2 c 4.430122,0 8,3.56986 8,8 0,4.4301 -3.569878,8 -8,8 -4.430123,0 -8,-3.5699 -8,-8 0,-4.43014 3.569877,-8 8,-8 z m 44.84375,3 -24,4 C 67.374183,49.074287 66.994208,49.524629 67,50 l 0,23.125 C 65.72719,71.820646 63.958124,71 62,71 c -3.854149,0 -7,3.1458 -7,7 0,3.8541 3.145851,7 7,7 3.854149,0 7,-3.1459 7,-7 L 69,62.8125 91,59.15625 91,69.125 C 89.72719,67.820646 87.958124,67 86,67 c -3.854149,0 -7,3.1458 -7,7 0,3.8541 3.145851,7 7,7 3.854149,0 7,-3.1459 7,-7 l 0,-28 c 0.0071,-0.579956 -0.583371,-1.090601 -1.15625,-1 z M 91,47.15625 l 0,9.96875 -22,3.6875 0,-10 z M 86,69 c 2.773268,0 5,2.2267 5,5 0,2.7732 -2.226732,5 -5,5 -2.773268,0 -5,-2.2268 -5,-5 0,-2.7733 2.226732,-5 5,-5 z m -24,4 c 2.773268,0 5,2.2267 5,5 0,2.7732 -2.226732,5 -5,5 -2.773268,0 -5,-2.2268 -5,-5 0,-2.7733 2.226732,-5 5,-5 z" transform="translate(0,952.36218)"></path></g></svg>