<svg viewBox="0 0 72 72" version="1.1" xmlns="http://www.w3.org/2000/svg" xmlns:xlink="http://www.w3.org/1999/xlink">
    <g fill="none" fill-rule="evenodd">
        <g fill="#FFFFFF">
            <path d="M69.8,0.5 L2.2,0.5 C1.3,0.5 0.5,1.3 0.5,2.2 L0.5,69.8 C0.5,70.7 1.3,71.5 2.2,71.5 L69.8,71.5 C70.7,71.5 71.5,70.7 71.5,69.8 L71.5,2.2 C71.5,1.3 70.7,0.5 69.8,0.5 L69.8,0.5 Z M25,4.5 C26.2,4.5 27.1,5.4 27.1,6.6 C27.1,7.8 26.2,8.7 25,8.7 C23.8,8.7 22.9,7.8 22.9,6.6 C22.9,5.4 23.8,4.5 25,4.5 L25,4.5 Z M16.1,4.5 C17.3,4.5 18.2,5.4 18.2,6.6 C18.2,7.8 17.3,8.7 16.1,8.7 C15,8.7 14,7.8 14,6.6 C14,5.4 15,4.5 16.1,4.5 L16.1,4.5 Z M7.3,4.5 C8.5,4.5 9.4,5.4 9.4,6.6 C9.4,7.8 8.5,8.7 7.3,8.7 C6.1,8.7 5.2,7.8 5.2,6.6 C5.2,5.4 6.1,4.5 7.3,4.5 L7.3,4.5 Z M66.5,64.8 C66.5,65.7 65.7,66.5 64.8,66.5 L7.2,66.5 C6.3,66.5 5.5,65.7 5.5,64.8 L5.5,16.5 C5.5,15.6 6.3,14.8 7.2,14.8 L64.8,14.8 C65.7,14.8 66.5,15.6 66.5,16.5 L66.5,64.8 L66.5,64.8 Z"></path>
            <path d="M51.8,31.6 C51,31.5 50.2,31.1 49.5,30.5 C48.5,29.5 48.1,28 48.5,26.7 C48.6,26.4 48.4,26.1 48.1,26 C41,23.8 32.1,23.7 23.7,26.2 C23.4,26.3 23.2,26.6 23.3,26.9 C23.6,28.2 23.3,29.6 22.3,30.6 C21.7,31.2 20.9,31.6 20,31.7 C19.7,31.7 19.4,32.1 19.5,32.4 C20.8,39.1 24.5,51.7 35.5,58.9 C35.7,59 35.9,59 36.1,58.9 C47.1,51.7 50.9,39.1 52.1,32.4 C52.4,32 52.2,31.7 51.8,31.6 L51.8,31.6 Z M44.1,38.6 L33,47.7 C32.6,48 32.2,48.2 31.7,48.2 L31.3,48.2 C30.7,48.1 30.2,47.7 30,47.2 L27.4,42.2 C27.2,41.7 27.1,41.2 27.3,40.7 C27.5,40.2 27.8,39.8 28.3,39.6 C28.6,39.5 28.9,39.4 29.2,39.4 C29.9,39.4 30.6,39.8 31,40.5 L32,42.5 C32.2,42.9 32.8,43.1 33.2,42.7 L41.6,35.7 C42,35.4 42.4,35.2 42.9,35.2 C43.5,35.2 44,35.5 44.4,35.9 C45,36.6 44.9,37.9 44.1,38.6 L44.1,38.6 Z"></path>
        </g>
    </g>
</svg>