<svg viewBox="0 0 66 55" version="1.1" xmlns="http://www.w3.org/2000/svg" xmlns:xlink="http://www.w3.org/1999/xlink">
    <title>wifi</title>
    <g fill="none" fill-rule="evenodd">
        <g id="wifi" fill="#FFFFFF">
            <path d="M4.7,16.3 C12.2,8.7 22.3,4.6 32.9,4.6 C43.6,4.6 53.6,8.8 61.2,16.3 C61.6,16.7 62.2,17 62.8,17 C63.4,17 63.9,16.8 64.4,16.3 C65.3,15.4 65.3,14 64.4,13.1 C56,4.7 44.9,0.1 33,0.1 C21.1,0.1 10,4.7 1.6,13.1 C0.7,14 0.7,15.4 1.6,16.3 C2.5,17.2 3.9,17.2 4.7,16.3 L4.7,16.3 Z"></path>
            <path d="M52.3,27.5 C52.9,27.5 53.4,27.3 53.9,26.8 C54.8,25.9 54.8,24.5 53.9,23.6 C48.3,18.1 40.9,15 33,15 C25.1,15 17.7,18.1 12.1,23.7 C11.2,24.6 11.2,26 12.1,26.9 C13,27.8 14.4,27.8 15.3,26.9 C20,22.2 26.3,19.5 33,19.5 C39.7,19.5 46,22.1 50.8,26.9 C51.2,27.3 51.8,27.5 52.3,27.5 L52.3,27.5 Z"></path>
            <path d="M41.8,38 C42.4,38 42.9,37.8 43.4,37.4 C44.3,36.5 44.3,35.1 43.4,34.2 C40.6,31.4 36.9,29.9 33,29.9 C29.1,29.9 25.4,31.4 22.6,34.2 C21.7,35.1 21.7,36.5 22.6,37.4 C23.5,38.3 24.9,38.3 25.8,37.4 C27.7,35.5 30.3,34.4 33,34.4 C35.7,34.4 38.3,35.5 40.2,37.4 C40.7,37.8 41.2,38 41.8,38 L41.8,38 Z"></path>
            <circle cx="33" cy="49.9" r="4.6"></circle>
        </g>
    </g>
</svg>