<?xml version="1.0" encoding="utf-8"?>
<!-- Generator: Adobe Illustrator 16.0.0, SVG Export Plug-In . SVG Version: 6.00 Build 0)  -->
<!DOCTYPE svg PUBLIC "-//W3C//DTD SVG 1.1//EN" "http://www.w3.org/Graphics/SVG/1.1/DTD/svg11.dtd">
<svg version="1.1" id="Layer_1" xmlns="http://www.w3.org/2000/svg" xmlns:xlink="http://www.w3.org/1999/xlink" x="0px" y="0px"
	 width="180.336px" height="212.976px" viewBox="215.832 289.512 180.336 212.976"
	 enable-background="new 215.832 289.512 180.336 212.976" xml:space="preserve">
<g>
	<path fill="#FFFFFF" d="M384.744,393.144C395.352,320.52,353.328,289.512,306,289.512s-90.984,30.6-79.152,103.224
		c-6.936,5.304-11.016,15.096-11.016,26.52c0,15.504,14.688,28.561,26.112,32.64c10.608,35.496,49.368,50.593,64.056,50.593
		c14.688,0,53.04-15.097,64.056-50.185c12.648-4.08,26.112-18.359,26.112-33.048C396.168,408.24,391.68,398.448,384.744,393.144z
		 M306,439.656c-6.12,0-11.016-4.896-11.016-11.017s4.896-11.016,11.016-11.016s11.016,4.896,11.016,11.016
		S312.12,439.656,306,439.656z M314.16,404.568h-17.136c0-23.256,20.4-25.296,20.4-37.536c0-7.752-5.304-11.832-11.424-11.832
		c-8.16,0-13.464,3.264-13.464,16.728H273.36c0-22.032,16.32-33.456,33.048-33.456c19.584,0,33.048,10.608,33.048,26.928
		C339.048,388.656,314.16,385.392,314.16,404.568z"/>
</g>
</svg>
