<?xml version="1.0" encoding="utf-8"?>
<!-- Generator: Adobe Illustrator 16.0.0, SVG Export Plug-In . SVG Version: 6.00 Build 0)  -->
<!DOCTYPE svg PUBLIC "-//W3C//DTD SVG 1.1//EN" "http://www.w3.org/Graphics/SVG/1.1/DTD/svg11.dtd">
<svg version="1.1" id="Layer_1" xmlns="http://www.w3.org/2000/svg" xmlns:xlink="http://www.w3.org/1999/xlink" x="0px" y="0px"
	 width="221.136px" height="221.136px" viewBox="186.864 317.664 221.136 221.136"
	 enable-background="new 186.864 317.664 221.136 221.136" xml:space="preserve">
<g>
	<circle fill="#FFFFFF" cx="259.488" cy="417.624" r="9.384"/>
	<circle fill="#FFFFFF" cx="337.008" cy="417.624" r="9.384"/>
	<path fill="#FFFFFF" d="M297.432,317.664c-59.976,0-110.568,50.592-110.568,110.568c0,59.976,50.592,110.567,110.568,110.567
		S408,488.208,408,428.232C408,368.256,357.408,317.664,297.432,317.664z M297.432,528.192c-54.264,0-99.96-45.696-99.96-99.96
		c0-54.265,45.696-99.96,99.96-99.96s99.959,45.696,99.959,99.96C397.392,482.496,351.696,528.192,297.432,528.192z"/>
	<path fill="#FFFFFF" d="M345.168,384.168l-26.112,13.056c-2.447,1.225-3.672,4.488-2.447,6.937c0.815,2.04,2.855,2.855,4.896,2.855
		c0.816,0,1.632,0,2.448-0.407l26.112-13.057c2.447-1.224,3.672-4.488,2.447-6.936C350.88,383.76,347.616,382.944,345.168,384.168z"
		/>
	<path fill="#FFFFFF" d="M271.32,406.608c0.816,0.407,1.632,0.407,2.448,0.407c2.04,0,3.672-1.224,4.896-2.855
		c1.224-2.448,0.408-5.712-2.448-6.937l-26.112-13.056c-2.448-1.224-5.712-0.408-6.936,2.448c-1.224,2.448-0.408,5.712,2.448,6.936
		L271.32,406.608z"/>
	<path fill="#FFFFFF" d="M297.432,446.592c-22.032,0-42.432,11.017-52.632,28.968c-1.632,2.448-0.408,5.713,2.04,7.345
		c0.816,0.408,1.632,0.815,2.448,0.815c1.632,0,3.672-0.815,4.488-2.447c8.568-14.688,25.296-23.664,43.656-23.664
		c18.36,0,35.087,8.976,43.656,23.664c1.632,2.447,4.488,3.264,7.344,2.04c2.448-1.633,3.265-4.488,2.04-7.345
		C339.864,458.016,319.872,446.592,297.432,446.592z"/>
</g>
</svg>
