<?xml version="1.0" encoding="utf-8"?>
<!-- Generator: Adobe Illustrator 16.0.0, SVG Export Plug-In . SVG Version: 6.00 Build 0)  -->
<!DOCTYPE svg PUBLIC "-//W3C//DTD SVG 1.1//EN" "http://www.w3.org/Graphics/SVG/1.1/DTD/svg11.dtd">
<svg version="1.1" id="Layer_1" xmlns="http://www.w3.org/2000/svg" xmlns:xlink="http://www.w3.org/1999/xlink" x="0px" y="0px"
	 width="283.56px" height="72.624px" viewBox="189.72 404.976 283.56 72.624" enable-background="new 189.72 404.976 283.56 72.624"
	 xml:space="preserve">
<g>
	<path fill="#FFFFFF" d="M436.968,477.6c-19.584,0-36.312-15.912-36.312-36.312c0-20.4,15.912-36.312,36.312-36.312
		c20.4,0,36.312,15.912,36.312,36.312C473.28,461.688,456.552,477.6,436.968,477.6z M436.968,426.192
		c-8.16,0-15.504,6.936-15.504,15.504c0,8.16,6.937,15.504,15.504,15.504c8.568,0,15.504-6.937,15.504-15.504
		C452.064,433.128,445.128,426.192,436.968,426.192z"/>
	<path fill="#FFFFFF" d="M331.296,477.6c-19.584,0-36.312-15.912-36.312-36.312c0-20.4,15.913-36.312,36.312-36.312
		c20.4,0,36.312,15.912,36.312,36.312C368.016,461.688,351.288,477.6,331.296,477.6z M331.296,426.192
		c-8.16,0-15.504,6.936-15.504,15.504c0,8.16,6.936,15.504,15.504,15.504c8.16,0,15.504-6.937,15.504-15.504
		C346.392,433.128,339.864,426.192,331.296,426.192z"/>
	<path fill="#FFFFFF" d="M226.032,477.6c-19.584,0-36.312-15.912-36.312-36.312c0-20.4,15.912-36.312,36.312-36.312
		c20.4,0,36.312,15.912,36.312,36.312C262.344,461.688,245.616,477.6,226.032,477.6z M226.032,426.192
		c-8.16,0-15.504,6.936-15.504,15.504c0,8.16,6.936,15.504,15.504,15.504c8.568,0,15.504-6.937,15.504-15.504
		C241.128,433.128,234.192,426.192,226.032,426.192z"/>
</g>
</svg>
