<?xml version="1.0" encoding="utf-8"?>
<!-- Generator: Adobe Illustrator 16.0.0, SVG Export Plug-In . SVG Version: 6.00 Build 0)  -->
<!DOCTYPE svg PUBLIC "-//W3C//DTD SVG 1.1//EN" "http://www.w3.org/Graphics/SVG/1.1/DTD/svg11.dtd">
<svg version="1.1" id="Layer_1" xmlns="http://www.w3.org/2000/svg" xmlns:xlink="http://www.w3.org/1999/xlink" x="0px" y="0px"
	 width="310.08px" height="208.08px" viewBox="150.96 291.96 310.08 208.08" enable-background="new 150.96 291.96 310.08 208.08"
	 xml:space="preserve">
<g>
	<path fill="#FFFFFF" d="M461.04,330.72c0-21.216-17.136-38.76-38.76-38.76H189.72c-21.216,0-38.76,17.136-38.76,38.76v130.56
		c0,21.216,17.136,38.76,38.76,38.76h232.152c21.216,0,38.76-17.136,38.76-38.76V330.72H461.04z M423.504,487.8h-232.56
		c-14.688,0-27.744-12.24-27.744-26.928V385.8h285.6v75.072C448.8,475.56,438.192,487.8,423.504,487.8z M191.352,304.2h232.56
		c14.688,0,24.888,12.24,24.888,26.928v9.792H163.2v-9.792C163.2,316.44,176.664,304.2,191.352,304.2z"/>
	<path fill="#FFFFFF" d="M428.4,425.784c0-4.08-3.265-7.344-7.345-7.344H186.864c-4.08,0-7.344,3.264-7.344,7.344v1.632
		c0,4.08,3.264,7.344,7.344,7.344h234.192c4.08,0,7.345-3.264,7.345-7.344V425.784z"/>
	<path fill="#FFFFFF" d="M269.28,458.424c0-4.08-3.264-7.344-7.344-7.344h-75.072c-4.08,0-7.344,3.264-7.344,7.344v1.632
		c0,4.08,3.264,7.345,7.344,7.345h75.072c4.08,0,7.344-3.265,7.344-7.345V458.424z"/>
</g>
</svg>
