<?xml version="1.0" encoding="UTF-8" standalone="no"?>
<svg width="20px" height="18px" viewBox="0 0 20 18" version="1.1" xmlns="http://www.w3.org/2000/svg" xmlns:xlink="http://www.w3.org/1999/xlink" xmlns:sketch="http://www.bohemiancoding.com/sketch/ns">
    <!-- Generator: Sketch 3.3.3 (12081) - http://www.bohemiancoding.com/sketch -->
    <title>fb</title>
    <desc>Created with Sketch.</desc>
    <defs></defs>
    <g id="Page-1" stroke="none" stroke-width="1" fill="none" fill-rule="evenodd" sketch:type="MSPage">
        <g id="Desktop-HD" sketch:type="MSArtboardGroup" transform="translate(-368.000000, -750.000000)" fill="#FFFFFF">
            <g id="fb" sketch:type="MSLayerGroup" transform="translate(368.000000, 750.000000)">
                <path d="M5.44027701,18 L0.832394253,18 C0.373431969,18 0,17.6262988 0,17.1670617 L0,8.46941409 C0,8.01006484 0.373431969,7.63636364 0.832394253,7.63636364 L5.44027701,7.63636364 C5.8992953,7.63636364 6.27272727,8.01006484 6.27272727,8.46941409 L6.27272727,17.1670617 C6.27272727,17.6262988 5.8992953,18 5.44027701,18 L5.44027701,18 Z" id="Path" sketch:type="MSShapeGroup"></path>
                <path d="M12.5031818,6.31172727 L16.8379091,6.31172727 C17.3899091,6.31172727 17.9331818,6.53754545 18.3280909,6.93190909 C18.7085455,7.31154545 18.9160909,7.80436364 18.9125455,8.31981818 C18.9095455,8.76818182 18.7576364,9.19118182 18.4849091,9.534 C18.8667273,9.90463636 19.0909091,10.4173636 19.0909091,10.959 C19.0909091,11.6694545 18.7191818,12.306 18.1298182,12.6613636 C18.234,12.9046364 18.288,13.1661818 18.288,13.4356364 C18.288,14.2497273 17.7976364,14.9593636 17.0716364,15.2667273 C17.1087273,15.4189091 17.1275455,15.5754545 17.1275455,15.7352727 C17.1275455,16.7918182 16.2932727,17.6653636 15.2274545,17.724 L15.2053636,17.7245455 L8.26909091,17.7272727 L8.26881818,17.7272727 C8.22245455,17.7272727 7.12336364,17.7190909 6.27245455,17.0020909 C6.19854545,16.9396364 6.13690909,16.8984545 6.07881818,16.8722727 L5.45454545,16.5910909 L5.45454545,9.36163636 L6.34554545,8.60672727 L8.72645455,4.23463636 C8.79245455,4.128 8.841,4.01236364 8.87045455,3.89154545 C8.89990909,3.77127273 8.91,3.64690909 8.90045455,3.52118182 L8.67436364,0.576 L8.83472727,0.443454545 C9.18081818,0.157363636 9.61963636,0 10.0701818,0 C11.6271818,0 12.8348182,2.06018182 12.8348182,3.83263636 C12.8348182,4.06227273 12.8170909,4.29354545 12.7821818,4.51990909 L12.5031818,6.31172727 Z M17.9151818,10.1211818 L17.3828182,9.60490909 L17.8445455,9.02481818 C18.0054545,8.82272727 18.0924545,8.57618182 18.0943636,8.31409091 C18.0965455,8.02063636 17.9770909,7.73754545 17.7501818,7.51118182 C17.508,7.26954545 17.1725455,7.12990909 16.8379091,7.12990909 L11.5475455,7.12990909 L11.9735455,4.39527273 C12.0021818,4.21036364 12.0166364,4.02081818 12.0166364,3.83263636 C12.0166364,2.32527273 11.0007273,0.818181818 10.0699091,0.818181818 C9.87818182,0.818181818 9.69,0.868363636 9.52445455,0.960272727 L9.71618182,3.459 C9.73227273,3.67063636 9.71536364,3.882 9.66518182,4.086 C9.61881818,4.27554545 9.54218182,4.45609091 9.44290909,4.62490909 L9.44509091,4.626 L6.99081818,9.13227273 L6.27272727,9.74072727 L6.27272727,16.0622727 L6.41481818,16.1260909 C6.55063636,16.1871818 6.67227273,16.269 6.79990909,16.3764545 C7.06554545,16.6003636 7.39745455,16.7511818 7.761,16.8373636 C7.89354545,16.8687273 8.02063636,16.8891818 8.13627273,16.9003636 C8.20363636,16.9069091 8.25,16.9090909 8.26881818,16.9090909 L15.1827273,16.9069091 L15.1827273,16.9071818 C15.816,16.8722727 16.3093636,16.3557273 16.3093636,15.7352727 C16.3093636,15.6411818 16.2984545,15.5498182 16.2769091,15.4614545 L16.1110909,14.7850909 L16.7525455,14.5134545 C17.1875455,14.3290909 17.4698182,13.9090909 17.4698182,13.4356364 C17.4698182,13.2777273 17.4387273,13.1258182 17.3776364,12.9834545 L17.097,12.3283636 L17.7073636,11.9604545 C18.0589091,11.7488182 18.2727273,11.3738182 18.2727273,10.959 C18.2727273,10.6450909 18.1429091,10.3426364 17.9151818,10.1211818 Z" id="Path" sketch:type="MSShapeGroup"></path>
            </g>
        </g>
    </g>
</svg>