<?xml version="1.0" encoding="UTF-8" standalone="no"?>
<svg width="17px" height="18px" viewBox="0 0 17 18" version="1.1" xmlns="http://www.w3.org/2000/svg" xmlns:xlink="http://www.w3.org/1999/xlink" xmlns:sketch="http://www.bohemiancoding.com/sketch/ns">
    <!-- Generator: Sketch 3.3.3 (12081) - http://www.bohemiancoding.com/sketch -->
    <title>insta</title>
    <desc>Created with Sketch.</desc>
    <defs></defs>
    <g id="Page-1" stroke="none" stroke-width="1" fill="none" fill-rule="evenodd" sketch:type="MSPage">
        <g id="Desktop-HD" sketch:type="MSArtboardGroup" transform="translate(-464.000000, -750.000000)">
            <g id="insta" sketch:type="MSLayerGroup" transform="translate(464.000000, 750.000000)">
                <path d="M2.249,0.75 C1.145,0.75 0.25,1.645 0.25,2.749 L0.25,15.251 C0.25,16.355 1.145,17.25 2.249,17.25 L14.751,17.25 C15.855,17.25 16.75,16.355 16.75,15.251 L16.75,2.749 C16.75,1.645 15.855,0.75 14.751,0.75" id="Path-Copy-3" fill="#FFFFFF" sketch:type="MSShapeGroup"></path>
                <path d="M2.249,1.5 C1.55925,1.5 1,2.05925 1,2.749 L1,15.251 C1,15.94075 1.55925,16.5 2.249,16.5 L14.751,16.5 C15.44075,16.5 16,15.94075 16,15.251 L16,2.749 C16,2.05925 15.44075,1.5 14.751,1.5 L2.249,1.5 Z" id="Path-Copy-2" fill="#FFFFFF" sketch:type="MSShapeGroup"></path>
                <circle id="Oval-Copy" fill="#2B3234" sketch:type="MSShapeGroup" cx="8.5" cy="9" r="3.75"></circle>
            </g>
        </g>
    </g>
</svg>