<?xml version="1.0" encoding="UTF-8" standalone="no"?>
<svg width="18px" height="18px" viewBox="0 0 18 18" version="1.1" xmlns="http://www.w3.org/2000/svg" xmlns:xlink="http://www.w3.org/1999/xlink" xmlns:sketch="http://www.bohemiancoding.com/sketch/ns">
    <!-- Generator: Sketch 3.3.3 (12081) - http://www.bohemiancoding.com/sketch -->
    <title>skype</title>
    <desc>Created with Sketch.</desc>
    <defs></defs>
    <g id="Page-1" stroke="none" stroke-width="1" fill="none" fill-rule="evenodd" sketch:type="MSPage">
        <g id="Desktop-HD" sketch:type="MSArtboardGroup" transform="translate(-514.000000, -750.000000)">
            <g id="skype" sketch:type="MSLayerGroup" transform="translate(514.000000, 750.000000)">
                <path d="M17.4476571,10.2461143 C17.5122,9.81951429 17.5471714,9.38931429 17.5471714,8.96168571 C17.5471714,7.80685714 17.3208857,6.68468571 16.875,5.62937143 C16.4448,4.6098 15.8286857,3.6936 15.0446571,2.90854286 C14.2624286,2.12374286 13.3480286,1.50582857 12.3302571,1.07408571 C11.2772571,0.627428571 10.1571429,0.400885714 9.00462857,0.400885714 C8.54871429,0.400885714 8.09408571,0.438942857 7.64768571,0.510171429 C6.93642857,0.1764 6.1578,0 5.37197143,0 C3.93788571,0 2.58608571,0.561342857 1.57268571,1.57757143 C0.559542857,2.59354286 0,3.94765714 0,5.38328571 C0,6.20434286 0.190542857,7.01434286 0.550285714,7.74925714 C0.492685714,8.15271429 0.461828571,8.55874286 0.461828571,8.96168571 C0.461828571,10.1167714 0.687857143,11.2386857 1.13374286,12.2942571 C1.56265714,13.3125429 2.17877143,14.2284857 2.9628,15.0148286 C3.74862857,15.8019429 4.66302857,16.4198571 5.67951429,16.8495429 C6.73097143,17.2964571 7.8516,17.5235143 9.00462857,17.5235143 C9.41297143,17.5235143 9.82465714,17.4913714 10.2327429,17.4319714 C10.9756286,17.8035429 11.7954,18 12.6288,18 C14.0628857,18 15.4141714,17.4391714 16.4273143,16.4229429 C17.4404571,15.4082571 18,14.0538857 18,12.6174857 C18,11.7943714 17.8089429,10.9828286 17.4476571,10.2461143 L17.4476571,10.2461143 Z" id="Path-Copy-6" fill="#FFFFFF" sketch:type="MSShapeGroup"></path>
                <path d="M15.8811429,15.8780571 C15.0122571,16.7497714 13.8574286,17.2285714 12.6288,17.2285714 C11.8332,17.2285714 11.0538,17.0210571 10.3654286,16.6307143 C9.91877143,16.7101714 9.46105714,16.7520857 9.00462857,16.7520857 C7.95548571,16.7520857 6.93745714,16.5458571 5.97985714,16.1388 C5.05362857,15.7474286 4.22305714,15.1853143 3.50897143,14.4699429 C2.79565714,13.7545714 2.23534286,12.9219429 1.84448571,11.9941714 C1.43871429,11.0334857 1.23325714,10.0136571 1.23325714,8.96168571 C1.23325714,8.51142857 1.27362857,8.0604 1.35025714,7.61914286 C0.972514286,6.93797143 0.771428571,6.16731429 0.771428571,5.38328571 C0.771428571,4.15157143 1.25022857,2.9934 2.11885714,2.12245714 C2.98774286,1.251 4.14308571,0.771428571 5.37197143,0.771428571 C6.12462857,0.771428571 6.86828571,0.959657143 7.5294,1.31194286 C7.53068571,1.31168571 8.51014286,1.17231429 9.00462857,1.17231429 C10.0535143,1.17231429 11.0712857,1.37802857 12.0291429,1.78431429 C12.9540857,2.17671429 13.7856857,2.73805714 14.4987429,3.45342857 C15.2128286,4.1688 15.7728857,5.00194286 16.1645143,5.92971429 C16.5702857,6.88988571 16.7757429,7.91022857 16.7757429,8.96168571 C16.7757429,9.43585714 16.731,9.91028571 16.6461429,10.3739143 C17.0262,11.0574 17.2285714,11.8308857 17.2285714,12.6174857 C17.2285714,13.8492 16.7502857,15.0076286 15.8811429,15.8780571 L15.8811429,15.8780571 Z" id="Path-Copy-4" fill="#FFFFFF" sketch:type="MSShapeGroup"></path>
                <path d="M9.03557526,13.7324769 C6.27477846,13.7324769 5.03967829,12.3718685 5.03967829,11.352196 C5.03967829,10.8291665 5.42488151,10.4626278 5.9557739,10.4626278 C7.13718539,10.4626278 6.83121206,12.163127 9.03557526,12.163127 C10.16408,12.163127 10.7872335,11.5489199 10.7872335,10.920344 C10.7872335,10.5423101 10.6011475,10.1232595 9.85810663,9.93959828 L7.40250127,9.32513 C5.42488151,8.82796456 5.06600138,7.75630263 5.06600138,6.74890906 C5.06600138,4.6573134 7.03058991,3.87198532 8.87555173,3.87198532 C10.575085,3.87198532 12.5785066,4.813543 12.5785066,6.06834365 C12.5785066,6.60600339 12.1140735,6.91872385 11.5834417,6.91872385 C10.575085,6.91872385 10.7606498,5.51971126 8.72960194,5.51971126 C7.72176646,5.51971126 7.16350848,5.97716617 7.16350848,6.63186749 C7.16350848,7.28526253 7.95945613,7.4940041 8.65063267,7.65180122 L10.4682289,8.05622167 C12.4591405,8.50087515 12.9639705,9.66606584 12.9639705,10.7635919 C12.9639705,12.4633073 11.662411,13.7324769 9.03557526,13.7324769 L9.03557526,13.7324769 Z" id="Path-Copy-5" fill="#2B3234" sketch:type="MSShapeGroup"></path>
            </g>
        </g>
    </g>
</svg>