<?xml version="1.0" encoding="utf-8"?>
<!-- Generator: Adobe Illustrator 16.0.0, SVG Export Plug-In . SVG Version: 6.00 Build 0)  -->
<!DOCTYPE svg PUBLIC "-//W3C//DTD SVG 1.1//EN" "http://www.w3.org/Graphics/SVG/1.1/DTD/svg11.dtd">
<svg version="1.1" id="Layer_1" xmlns="http://www.w3.org/2000/svg" xmlns:xlink="http://www.w3.org/1999/xlink" x="0px" y="0px"
	 width="101.25px" height="129.5px" viewBox="0 0 101.25 129.5" enable-background="new 0 0 101.25 129.5" xml:space="preserve">
<g opacity="0.7">
	<path fill="#FFFFFF" d="M79.25,129.5H22.001c-6.056,0-11.697-2.408-15.886-6.78c-4.188-4.372-6.353-10.111-6.093-16.161
		l1.86-43.399C2.065,58.865,5.576,55.5,9.874,55.5v4c-2.149,0-3.904,1.682-3.996,3.83l-1.86,43.4
		c-0.212,4.949,1.558,9.645,4.985,13.222c3.427,3.578,8.043,5.548,12.998,5.548H79.25c4.954,0,9.569-1.971,12.997-5.548
		c3.427-3.577,5.197-8.272,4.984-13.222l-1.858-43.4c-0.092-2.147-1.848-3.83-3.996-3.83v-4c4.298,0,7.809,3.364,7.992,7.659
		l1.858,43.399c0.26,6.049-1.904,11.788-6.093,16.161C90.946,127.092,85.305,129.5,79.25,129.5z"/>
	<path fill="#FFFFFF" d="M68.126,114.334H32.459c-3.309,0-6-2.691-6-6V87c0-2.206,1.794-4,4-4h39.667c2.206,0,4,1.794,4,4v21.334
		C74.126,111.643,71.435,114.334,68.126,114.334z M30.459,87v21.334c0,1.103,0.897,2,2,2h35.667c1.103,0,2-0.897,2-2V87H30.459z"/>
	<path fill="#FFFFFF" d="M50.459,106c-11.947,0-21.667-9.645-21.667-21.5h4c0,9.649,7.925,17.5,17.667,17.5
		c9.741,0,17.667-7.851,17.667-17.5h4C72.126,96.355,62.406,106,50.459,106z"/>
	<rect x="32.626" y="59.668" fill="#FFFFFF" width="35" height="4"/>
	<path fill="#FFFFFF" d="M79.494,63.668v-4c4.242,0,8.161-1.719,11.035-4.84s4.264-7.169,3.914-11.397l-2.484-30.097
		c0-0.551-0.448-1-1-1H9.292c-0.551,0-1,0.449-1,1L8.285,13.5L5.808,43.432c-0.35,4.228,1.04,8.275,3.914,11.397
		c2.874,3.121,6.792,4.84,11.035,4.84v4c-5.296,0-10.391-2.234-13.978-6.131c-3.587-3.896-5.394-9.158-4.957-14.436l2.471-29.86
		c0.049-2.714,2.273-4.907,4.999-4.907h81.667c2.726,0,4.949,2.193,4.999,4.907l2.472,29.86c0.437,5.278-1.37,10.541-4.958,14.437
		C89.885,61.434,84.79,63.668,79.494,63.668z"/>
	<path fill="#FFFFFF" d="M31.126,76h-8c-2.757,0-5-2.243-5-5V55c0-2.757,2.243-5,5-5h8c2.757,0,5,2.243,5,5v16
		C36.126,73.757,33.883,76,31.126,76z M23.126,54c-0.551,0-1,0.449-1,1v16c0,0.552,0.449,1,1,1h8c0.551,0,1-0.448,1-1V55
		c0-0.551-0.449-1-1-1H23.126z"/>
	<path fill="#FFFFFF" d="M77.126,76h-8c-2.757,0-5-2.243-5-5V55c0-2.757,2.243-5,5-5h8c2.757,0,5,2.243,5,5v16
		C82.126,73.757,79.883,76,77.126,76z M69.126,54c-0.552,0-1,0.449-1,1v16c0,0.552,0.448,1,1,1h8c0.552,0,1-0.448,1-1V55
		c0-0.551-0.448-1-1-1H69.126z"/>
	<path fill="#FFFFFF" d="M58.626,43.668h-16c-2.757,0-5-2.243-5-5v-8c0-2.757,2.243-5,5-5h16c2.757,0,5,2.243,5,5v8
		C63.626,41.425,61.383,43.668,58.626,43.668z M42.626,29.668c-0.551,0-1,0.449-1,1v8c0,0.551,0.449,1,1,1h16c0.552,0,1-0.449,1-1
		v-8c0-0.551-0.448-1-1-1H42.626z"/>
	<path fill="#FFFFFF" d="M61.792,11.834h-4c0-4.32-3.514-7.834-7.833-7.834s-7.833,3.514-7.833,7.834h-4
		C38.126,5.309,43.434,0,49.959,0C56.483,0,61.792,5.309,61.792,11.834z"/>
</g>
</svg>
