<?xml version="1.0" encoding="utf-8"?>
<!-- Generator: Adobe Illustrator 16.0.0, SVG Export Plug-In . SVG Version: 6.00 Build 0)  -->
<!DOCTYPE svg PUBLIC "-//W3C//DTD SVG 1.1//EN" "http://www.w3.org/Graphics/SVG/1.1/DTD/svg11.dtd">
<svg version="1.1" id="Layer_1" xmlns="http://www.w3.org/2000/svg" xmlns:xlink="http://www.w3.org/1999/xlink" x="0px" y="0px"
	 width="99.852px" height="95.667px" viewBox="0 0 99.852 95.667" enable-background="new 0 0 99.852 95.667" xml:space="preserve">
<g>
	<g opacity="0.7">
		<g>
			<path fill="#FFFFFF" d="M76.357,95.667c-1.434,0-2.836-0.448-4.057-1.298L51.712,80.042c-1.053-0.734-2.519-0.733-3.57-0.001
				L27.553,94.369c-1.221,0.85-2.624,1.298-4.057,1.298c-2.252,0-4.41-1.097-5.774-2.934c-1.337-1.803-1.725-4.092-1.062-6.279
				l7.262-24.007c0.377-1.245-0.066-2.61-1.104-3.396L2.831,43.896c-2.453-1.86-3.424-4.955-2.472-7.883
				c0.951-2.928,3.556-4.861,6.634-4.923l25.076-0.511c1.301-0.027,2.463-0.871,2.891-2.101l8.235-23.691
				C44.205,1.879,46.847,0,49.926,0c3.079,0,5.722,1.879,6.732,4.787l8.235,23.691c0.428,1.23,1.589,2.074,2.891,2.101l25.075,0.511
				c3.078,0.062,5.682,1.995,6.634,4.923c0.951,2.928-0.019,6.022-2.472,7.883L77.035,59.05c-1.037,0.786-1.481,2.151-1.104,3.396
				l7.263,24.007c0.662,2.188,0.274,4.477-1.063,6.279C80.766,94.57,78.608,95.667,76.357,95.667z M49.926,75.482
				c1.463,0,2.871,0.441,4.071,1.277l20.588,14.326c1.425,0.993,3.346,0.594,4.333-0.737c0.338-0.455,0.846-1.417,0.447-2.736
				l-7.263-24.007c-0.859-2.839,0.151-5.95,2.517-7.742l19.985-15.155c1.306-0.991,1.416-2.437,1.084-3.459
				c-0.332-1.022-1.271-2.126-2.911-2.16l-25.075-0.511c-2.967-0.061-5.613-1.984-6.587-4.787l-8.234-23.69
				C52.342,4.552,51.001,4,49.926,4c-1.075,0-2.416,0.552-2.954,2.101l-8.235,23.691c-0.974,2.802-3.622,4.726-6.587,4.786
				L7.074,35.088c-1.64,0.034-2.579,1.138-2.911,2.161c-0.333,1.022-0.222,2.468,1.085,3.459l19.986,15.155
				c2.364,1.791,3.375,4.903,2.516,7.742l-7.263,24.007c-0.399,1.319,0.108,2.281,0.447,2.736c0.603,0.813,1.585,1.318,2.562,1.318
				c0.622,0,1.218-0.195,1.772-0.581l20.587-14.326C47.055,75.923,48.463,75.482,49.926,75.482z"/>
		</g>
	</g>
	<g opacity="0.7">
		<g>
			<g>
				<path fill="#FFFFFF" d="M49.926,36.08l2.244,6.457c0.868,2.498,3.229,4.214,5.879,4.271l6.833,0.139l-5.445,4.131
					c-2.107,1.598-3.012,4.373-2.246,6.909l1.979,6.543l-5.612-3.905c-1.071-0.744-2.327-1.139-3.632-1.139
					s-2.561,0.395-3.634,1.141l-5.61,3.903l1.979-6.542c0.767-2.533-0.137-5.312-2.245-6.91l-5.447-4.13l6.839-0.139
					c2.646-0.058,5.005-1.774,5.874-4.272L49.926,36.08 M49.926,28.727c-0.932,0-1.862,0.529-2.23,1.586l-3.792,10.91
					c-0.323,0.933-1.194,1.564-2.182,1.586l-11.548,0.234c-2.238,0.046-3.162,2.891-1.378,4.242L38,54.264
					c0.787,0.597,1.12,1.618,0.833,2.563l-3.346,11.057c-0.495,1.64,0.806,3.055,2.268,3.055c0.448,0,0.911-0.133,1.342-0.434
					l9.48-6.598c0.404-0.281,0.877-0.423,1.349-0.423s0.943,0.142,1.349,0.423l9.48,6.598c0.432,0.301,0.895,0.434,1.343,0.434
					c1.462,0,2.763-1.415,2.268-3.055l-3.347-11.057c-0.285-0.945,0.047-1.968,0.834-2.563l9.203-6.979
					c1.785-1.352,0.86-4.196-1.378-4.242L58.13,42.809c-0.986-0.021-1.857-0.653-2.182-1.586l-3.792-10.91
					C51.789,29.256,50.858,28.727,49.926,28.727L49.926,28.727z"/>
			</g>
		</g>
	</g>
</g>
</svg>
