<?xml version="1.0" encoding="utf-8"?>
<!-- Generator: Adobe Illustrator 16.0.0, SVG Export Plug-In . SVG Version: 6.00 Build 0)  -->
<!DOCTYPE svg PUBLIC "-//W3C//DTD SVG 1.1//EN" "http://www.w3.org/Graphics/SVG/1.1/DTD/svg11.dtd">
<svg version="1.1" id="Layer_1" xmlns="http://www.w3.org/2000/svg" xmlns:xlink="http://www.w3.org/1999/xlink" x="0px" y="0px"
	 width="107.667px" height="128.428px" viewBox="0 0 107.667 128.428" enable-background="new 0 0 107.667 128.428"
	 xml:space="preserve">
<g>
	<g>
		<g opacity="0.7">
			<path fill="#FFFFFF" d="M58.667,103.097c-27.294,0-49.5-22.207-49.5-49.501c0-27.294,22.206-49.5,49.5-49.5
				s49.5,22.206,49.5,49.5C108.167,80.89,85.961,103.097,58.667,103.097z M58.667,8.096c-25.089,0-45.5,20.411-45.5,45.5
				s20.411,45.501,45.5,45.501s45.5-20.412,45.5-45.501S83.756,8.096,58.667,8.096z"/>
			<path fill="#FFFFFF" d="M58.667,111.763C26.593,111.763,0.5,85.669,0.5,53.596C0.5,30.166,14.444,9.128,36.025,0l1.559,3.684
				C17.486,12.185,4.5,31.776,4.5,53.596c0,29.868,24.3,54.167,54.168,54.167c12.429,0,24.57-4.316,34.188-12.152l2.527,3.102
				C85.053,107.128,72.014,111.763,58.667,111.763z"/>
			
				<rect x="80.116" y="96.557" transform="matrix(0.4958 0.8685 -0.8685 0.4958 128.177 -23.6503)" fill="#FFFFFF" width="8.679" height="4"/>
			
				<rect x="28.18" y="5.852" transform="matrix(0.4958 0.8684 -0.8684 0.4958 23.297 -24.4247)" fill="#FFFFFF" width="9.009" height="4.001"/>
			<rect x="56.667" y="109.763" fill="#FFFFFF" width="4" height="17.166"/>
			<rect x="53.417" y="118.347" fill="#FFFFFF" width="10" height="4"/>
			<rect x="43.417" y="121.347" fill="#FFFFFF" width="30" height="4"/>
			<rect x="23.417" y="124.429" fill="#FFFFFF" width="70" height="4"/>
		</g>
		<g opacity="0.7">
			<g>
				<path fill="#FFFFFF" d="M47.734,73.114c-1.262,0-2.469-0.611-3.23-1.635c-0.754-1.016-0.975-2.303-0.604-3.529l2.834-9.365
					l-7.795-5.91c-1.377-1.044-1.922-2.78-1.389-4.424c0.534-1.643,1.995-2.728,3.723-2.764l9.78-0.199l3.212-9.239
					c0.568-1.633,2.052-2.688,3.779-2.688c1.729,0,3.211,1.055,3.778,2.688l3.211,9.238l9.781,0.199
					c1.729,0.036,3.189,1.121,3.724,2.764c0.533,1.643-0.012,3.379-1.389,4.423l-7.795,5.91l2.832,9.363
					c0.372,1.227,0.152,2.512-0.602,3.529c-0.761,1.025-1.97,1.637-3.232,1.637c-0.81,0-1.598-0.25-2.279-0.725l-8.029-5.586
					l-8.03,5.586C49.332,72.864,48.543,73.114,47.734,73.114z M58.043,62.802c0.822,0,1.613,0.249,2.288,0.72l8.025,5.584
					l-2.832-9.363c-0.482-1.593,0.086-3.339,1.412-4.346l7.796-5.91l-9.78-0.2c-1.663-0.034-3.149-1.113-3.697-2.685l-3.212-9.24
					l-3.212,9.239c-0.547,1.572-2.032,2.652-3.697,2.686l-9.78,0.199l7.795,5.911c1.327,1.008,1.894,2.754,1.412,4.346l-2.832,9.361
					l8.029-5.584C56.43,63.051,57.221,62.802,58.043,62.802z"/>
			</g>
		</g>
	</g>
	<g>
		<g opacity="0.7">
			<path fill="#FFFFFF" d="M57.667,103.097c-27.294,0-49.5-22.207-49.5-49.501c0-27.294,22.206-49.5,49.5-49.5
				s49.5,22.206,49.5,49.5C107.167,80.89,84.961,103.097,57.667,103.097z M57.667,8.096c-25.089,0-45.5,20.411-45.5,45.5
				s20.411,45.501,45.5,45.501s45.5-20.412,45.5-45.501S82.756,8.096,57.667,8.096z"/>
			<path fill="#FFFFFF" d="M57.667,111.763C25.593,111.763-0.5,85.669-0.5,53.596C-0.5,30.166,13.444,9.128,35.025,0l1.559,3.684
				C16.486,12.185,3.5,31.776,3.5,53.596c0,29.868,24.3,54.167,54.168,54.167c12.429,0,24.57-4.316,34.188-12.152l2.527,3.102
				C84.053,107.128,71.014,111.763,57.667,111.763z"/>
			
				<rect x="79.116" y="96.557" transform="matrix(0.4958 0.8685 -0.8685 0.4958 127.6728 -22.7819)" fill="#FFFFFF" width="8.679" height="4"/>
			
				<rect x="27.18" y="5.852" transform="matrix(0.4958 0.8684 -0.8684 0.4958 22.7928 -23.5563)" fill="#FFFFFF" width="9.009" height="4.001"/>
			<rect x="55.667" y="109.763" fill="#FFFFFF" width="4" height="17.166"/>
			<rect x="52.417" y="118.347" fill="#FFFFFF" width="10" height="4"/>
			<rect x="42.417" y="121.347" fill="#FFFFFF" width="30" height="4"/>
			<rect x="22.417" y="124.429" fill="#FFFFFF" width="70" height="4"/>
		</g>
		<g opacity="0.7">
			<g>
				<path fill="#FFFFFF" d="M46.734,73.114c-1.262,0-2.469-0.611-3.23-1.635c-0.754-1.016-0.975-2.303-0.604-3.529l2.834-9.365
					l-7.795-5.91c-1.377-1.044-1.922-2.78-1.389-4.424c0.534-1.643,1.995-2.728,3.723-2.764l9.78-0.199l3.212-9.239
					c0.568-1.633,2.052-2.688,3.779-2.688c1.729,0,3.211,1.055,3.778,2.688l3.211,9.238l9.781,0.199
					c1.729,0.036,3.189,1.121,3.724,2.764c0.533,1.643-0.012,3.379-1.389,4.423l-7.795,5.91l2.832,9.363
					c0.372,1.227,0.152,2.512-0.602,3.529c-0.761,1.025-1.97,1.637-3.232,1.637c-0.81,0-1.598-0.25-2.279-0.725l-8.029-5.586
					l-8.03,5.586C48.332,72.864,47.543,73.114,46.734,73.114z M57.043,62.802c0.822,0,1.613,0.249,2.288,0.72l8.025,5.584
					l-2.832-9.363c-0.482-1.593,0.086-3.339,1.412-4.346l7.796-5.91l-9.78-0.2c-1.663-0.034-3.149-1.113-3.697-2.685l-3.212-9.24
					l-3.212,9.239c-0.547,1.572-2.032,2.652-3.697,2.686l-9.78,0.199l7.795,5.911c1.327,1.008,1.894,2.754,1.412,4.346l-2.832,9.361
					l8.029-5.584C55.43,63.051,56.221,62.802,57.043,62.802z"/>
			</g>
		</g>
	</g>
</g>
</svg>
