<?xml version="1.0" encoding="utf-8"?>
<!-- Generator: Adobe Illustrator 16.0.0, SVG Export Plug-In . SVG Version: 6.00 Build 0)  -->
<!DOCTYPE svg PUBLIC "-//W3C//DTD SVG 1.1//EN" "http://www.w3.org/Graphics/SVG/1.1/DTD/svg11.dtd">
<svg version="1.1" id="Layer_1" xmlns="http://www.w3.org/2000/svg" xmlns:xlink="http://www.w3.org/1999/xlink" x="0px" y="0px"
	 width="148.167px" height="109px" viewBox="0 0 148.167 109" enable-background="new 0 0 148.167 109" xml:space="preserve">
<path fill="#FFFFFF" d="M146.167,109c-0.603,0-1.187-0.271-1.571-0.764l0,0C144.483,108.096,133.076,94,110.125,94
	c-11.985,0-20.707,3.859-25.912,7.098c-5.666,3.524-8.528,7.104-8.558,7.141c-0.38,0.479-0.959,0.761-1.57,0.761
	c-0.001,0-0.003,0-0.004,0c-0.613-0.001-1.193-0.282-1.572-0.765C72.399,108.096,60.991,94,38.042,94
	c-23.051,0-34.356,14.091-34.468,14.232c-0.526,0.672-1.42,0.938-2.227,0.658C0.541,108.611,0,107.854,0,107V17
	c0-0.447,0.15-0.881,0.426-1.233C0.93,15.123,13.063,0,38.042,0c20.2,0,32,9.891,36.041,14.015C78.125,9.891,89.923,0,110.125,0
	c24.979,0,37.113,15.123,37.617,15.767c0.276,0.352,0.426,0.786,0.426,1.233v90c0,0.854-0.541,1.611-1.348,1.891
	C146.606,108.965,146.384,109,146.167,109z M38.042,90c20.201,0,32,9.891,36.041,14.016C78.125,99.891,89.923,90,110.125,90
	c17.543,0,28.75,7.459,34.043,12.123V17.742C141.904,15.233,130.613,4,110.125,4c-11.985,0-20.707,3.86-25.912,7.098
	c-5.666,3.524-8.528,7.104-8.558,7.139c-0.38,0.48-0.959,0.761-1.57,0.761c-0.001,0-0.003,0-0.004,0
	c-0.613-0.001-1.193-0.282-1.571-0.765C72.399,18.094,60.99,4,38.042,4C17.471,4,6.255,15.222,4,17.738v84.385
	C9.293,97.459,20.5,90,38.042,90z"/>
<rect x="72.083" y="28" fill="#FFFFFF" width="4" height="57.668"/>
<path fill="#FFFFFF" d="M104.673,70.5c-0.53,0-1.039-0.211-1.414-0.586l-15.299-15.3c-0.781-0.781-0.781-2.047,0-2.828l7.647-7.649
	c0.781-0.781,2.047-0.781,2.828,0l6.235,6.235l13.886-13.885c0.375-0.375,0.884-0.586,1.414-0.586l0,0
	c0.53,0,1.038,0.211,1.413,0.586l7.648,7.65c0.781,0.781,0.781,2.047,0,2.828l-22.947,22.949
	C105.712,70.289,105.205,70.5,104.673,70.5z M92.203,53.2l12.471,12.472l20.119-20.121l-4.819-4.821l-13.886,13.885
	c-0.78,0.781-2.047,0.781-2.828,0l-6.235-6.235L92.203,53.2z"/>
<path fill="#FFFFFF" d="M42.316,57.318H31.498c-1.104,0-2-0.896-2-2V29.865c0-1.104,0.896-2,2-2h10.818c1.104,0,2,0.896,2,2v25.453
	C44.316,56.423,43.42,57.318,42.316,57.318z M33.498,53.318h6.818V31.865h-6.818V53.318z"/>
<path fill="#FFFFFF" d="M42.316,75.136H31.498c-1.104,0-2-0.896-2-2V62.318c0-1.104,0.896-2,2-2h10.818c1.104,0,2,0.896,2,2v10.816
	C44.316,74.24,43.42,75.136,42.316,75.136z M33.498,71.136h6.818v-6.817h-6.818V71.136z"/>
</svg>
