<?xml version="1.0" encoding="UTF-8" standalone="no"?>
<svg width="18px" height="15px" viewBox="0 0 18 15" version="1.1" xmlns="http://www.w3.org/2000/svg" xmlns:xlink="http://www.w3.org/1999/xlink" xmlns:sketch="http://www.bohemiancoding.com/sketch/ns">
    <!-- Generator: Sketch 3.3.3 (12081) - http://www.bohemiancoding.com/sketch -->
    <title>twitter</title>
    <desc>Created with Sketch.</desc>
    <defs></defs>
    <g id="Page-1" stroke="none" stroke-width="1" fill="none" fill-rule="evenodd" sketch:type="MSPage">
        <g id="Desktop-HD" sketch:type="MSArtboardGroup" transform="translate(-417.000000, -752.000000)" fill="#FFFFFF">
            <path d="M433.900737,753.552 C433.946737,753.443 433.988237,753.332 434.024487,753.2185 C434.234737,752.5615 433.521237,751.993 432.927737,752.345 C432.464987,752.61925 431.965487,752.82475 431.444237,752.96275 C430.723737,752.34925 429.803737,752 428.829737,752 C426.632987,752 424.849737,753.75725 424.801487,755.942 C422.693737,755.62 420.792737,754.52675 419.447487,752.87675 C419.116487,752.471 418.481987,752.5205 418.218237,752.973 C417.862237,753.58375 417.671737,754.27925 417.671737,755.00075 C417.671737,755.5875 417.798737,756.15325 418.031487,756.6665 C417.810487,756.78925 417.650237,757.02125 417.645237,757.309 C417.644987,757.326 417.644987,757.34025 417.644987,757.363 C417.644987,758.49875 418.120487,759.5345 418.890987,760.27325 C418.794987,760.44425 418.763487,760.654 418.831487,760.866 C419.148487,761.856 419.830737,762.6625 420.705237,763.152 C420.024237,763.4235 419.291987,763.5715 418.535237,763.5715 C418.301237,763.5715 418.069237,763.55775 417.840237,763.53075 C417.049737,763.4375 416.677487,764.4775 417.347487,764.907 C418.960987,765.941 420.832487,766.5 422.784237,766.5 C428.705237,766.5 432.873737,761.77175 432.873737,756.41225 C432.873737,756.38925 432.872487,756.36625 432.872237,756.34325 C433.449987,755.8755 433.961237,755.32575 434.375737,754.70575 C434.698237,754.22375 434.378737,753.64975 433.900737,753.552" id="twitter" sketch:type="MSShapeGroup"></path>
        </g>
    </g>
</svg>