<svg width="200px" height="200px" viewBox="0 0 200 200" version="1.1" xmlns="http://www.w3.org/2000/svg" xmlns:xlink="http://www.w3.org/1999/xlink">
	<circle class="background" fill="#000000" cx="100" cy="100" r="100"></circle>
    <path d="M148.602386,107.191914 L146.474761,107.191914 L146.450641,106.9688 C145.833559,101.338685 141.520019,96.7367042 135.962265,95.7789212 L135.650709,95.7246502 L135.773322,95.4331952 C136.312012,94.1548112 136.562261,93.0382352 136.562261,91.9216602 C136.562261,89.2101192 135.337144,86.6865172 133.112032,84.8181871 L132.836657,84.5860282 L133.149218,84.4071352 C135.821563,82.8885512 137.415522,80.2393222 137.415522,77.3217532 C137.415522,72.7579631 133.707003,69.0444188 129.147233,69.0444188 L58.6994419,69.0444188 C54.1406771,69.0444188 50.431153,72.7579631 50.431153,77.3217532 C50.431153,79.9448522 51.7597878,82.3729772 54.0763559,83.9840222 L54.3698213,84.1890462 L54.0783659,84.3960802 C51.4864227,86.2342591 50,88.9769552 50,91.9226652 C50,95.8854532 52.4622958,99.2984972 56.2723218,100.617081 L56.4411649,100.676378 L56.4411649,130.952566 L101.56952,130.952566 C101.798664,130.956586 126.119112,130.952566 126.365342,130.952566 L141.192383,130.955581 C141.779314,130.955581 142.308958,130.580709 142.510967,130.021919 L149.92499,109.066274 C150.068708,108.624066 150.004387,108.154722 149.745092,107.784875 C149.484792,107.414023 149.057659,107.191914 148.602386,107.191914 L148.602386,107.191914 L148.602386,107.191914 Z M143.501916,106.908499 L143.546136,107.197944 L124.044753,107.197944 L124.064854,106.928599 C124.429676,102.050238 128.633669,98.3708652 133.843686,98.3708652 C138.918025,98.3708652 142.708956,101.722602 143.501916,106.908499 L143.501916,106.908499 L143.501916,106.908499 Z M53.2331452,77.3237632 C53.2331452,74.3026768 55.6874009,71.8444011 58.703462,71.8444011 L109.182537,71.8444011 L109.247863,71.894652 C109.317209,71.9449029 109.35942,72.005204 109.389571,72.0484199 C109.393591,72.0695252 111.269961,72.9308263 111.885032,74.6232777 C112.248849,75.6443772 112.107141,76.7720082 111.453879,78.0725022 C111.286041,78.4021482 111.258905,78.7770201 111.374483,79.1287762 C111.493075,79.4855582 111.745334,79.7760092 112.083021,79.9458572 C112.728243,80.2825382 113.621704,79.9890721 113.954366,79.3267651 C114.960389,77.3297932 115.145313,75.4313132 114.507126,73.6845902 C114.307127,73.1247949 114.002606,72.6695214 113.706126,72.2504286 L113.425726,71.8544512 L115.879981,71.8544512 L115.947318,71.9057072 C116.012644,71.9549531 116.052845,72.0112342 116.08199,72.0534449 C116.299074,72.1800773 118.010621,73.0504235 118.578457,74.634333 C118.945288,75.6514121 118.806596,76.7790432 118.154339,78.0805421 C117.985496,78.4142082 117.957355,78.7931002 118.074942,79.1468672 C118.192529,79.4996282 118.441774,79.7880691 118.77544,79.9559072 C119.467898,80.3006282 120.325179,79.9951032 120.646785,79.3398302 C121.656829,77.3368282 121.844767,75.4383482 121.206581,73.6936355 C121.017637,73.1639906 120.732212,72.7308276 120.405581,72.2584688 L120.131211,71.8634964 L122.576421,71.8634964 L122.642752,71.9137473 C122.713104,71.9660083 122.754309,72.0263094 122.78446,72.0695252 C122.793505,72.0926407 124.661835,72.9489166 125.277911,74.6433782 C125.642733,75.6644772 125.501026,76.7921082 124.848768,78.0915971 C124.68093,78.4222482 124.65279,78.7971202 124.769372,79.1488772 C124.886959,79.5056582 125.137209,79.7961092 125.474895,79.9649522 C126.148258,80.3126892 127.012574,80.0172132 127.34825,79.3478712 C128.351259,77.3519031 128.538192,75.4524181 127.906035,73.7026806 C127.707042,73.1559505 127.413576,72.7137422 127.105035,72.271534 L126.828655,71.8765616 L129.146228,71.8765616 C132.163295,71.8765616 134.616545,74.3338324 134.616545,77.3539132 C134.616545,80.3699752 132.163295,82.8232251 129.146228,82.8232251 L58.3838661,82.7679492 C55.4954423,82.5579002 53.2331452,80.1659561 53.2331452,77.3237632 L53.2331452,77.3237632 L53.2331452,77.3237632 Z M83.246019,128.143539 L76.509378,128.143539 L76.509378,101.193962 C76.509378,100.424118 75.882247,99.7979912 75.111397,99.7979912 C74.3395431,99.7979912 73.7124114,100.426128 73.7124114,101.197982 L73.7124114,128.149569 L68.26521,128.149569 L68.26521,101.197982 C68.26521,100.426128 67.6370733,99.7979912 66.8642139,99.7979912 C66.0923596,99.7979912 65.4642229,100.426128 65.4642229,101.197982 L65.4642229,128.149569 L59.2431571,128.149569 L59.2431571,98.4482512 L58.1255763,98.2261422 C54.9889129,97.5799152 52.7999821,94.9849571 52.7999821,91.9156301 C52.7999821,88.7377601 55.1416757,86.0513452 58.3677858,85.5267262 C58.6280856,85.5277312 78.696299,85.5870272 78.899313,85.5870272 L79.434988,85.5890372 L79.091272,86.0000892 C77.594799,87.7860082 76.803849,89.8322262 76.803849,91.9156301 C76.803849,95.8774132 79.266145,99.2904572 83.077176,100.610046 L83.246019,100.669342 L83.246019,128.143539 L83.246019,128.143539 Z M79.600816,91.9196502 C79.600816,88.8493172 81.766631,86.2483292 84.867114,85.5960722 L128.436685,85.5910472 C131.591439,86.2533542 133.757254,88.8543432 133.757254,91.9196502 C133.757254,93.2000431 133.320071,94.4723972 132.493946,95.6000281 L132.429625,95.6874652 L132.321082,95.7005302 C131.745207,95.7678662 131.070839,95.8613332 130.433657,96.0532922 C129.201504,96.4231381 128.140205,96.8774072 127.192472,97.4392122 C123.821639,99.4361852 121.550297,102.997971 121.116129,106.96679 L121.092008,107.189904 L118.963379,107.189904 C118.778455,107.189904 118.616647,107.314526 118.430719,107.459249 C118.375443,107.502465 118.320167,107.544675 118.264891,107.584876 L117.998561,107.77382 L117.883989,107.468294 C115.347322,100.672358 108.807665,96.1075632 101.609721,96.1075632 C95.414785,96.1075632 89.631908,99.5135712 86.517355,104.995948 L86.048011,105.823078 L86.048011,98.4512662 L84.92641,98.2291572 C81.789747,97.5839352 79.600816,94.9899822 79.600816,91.9196502 L79.600816,91.9196502 L79.600816,91.9196502 Z M86.048011,128.149569 L86.048011,121.236045 L86.517355,122.061166 C87.817849,124.348588 89.50829,126.243049 91.540438,127.694296 L92.17963,128.149569 L86.048011,128.149569 L86.048011,128.149569 Z M101.656957,128.149569 L101.56952,128.149569 C93.530375,128.129469 86.988709,121.570717 86.988709,113.529562 C86.988709,105.467302 93.547461,98.9085502 101.609721,98.9085502 C109.674996,98.9085502 116.236763,105.467302 116.236763,113.529562 C116.236763,121.570717 109.696101,128.129469 101.656957,128.149569 L101.656957,128.149569 L101.656957,128.149569 Z M111.046846,128.149569 L111.685033,127.694296 C116.09204,124.546577 118.742275,119.639071 118.959359,114.23207 L119.012625,112.925546 L124.3945,128.149569 L111.046846,128.149569 L111.046846,128.149569 Z M140.202439,128.156604 L127.363325,128.156604 L127.304029,127.988766 L120.936231,109.993906 L146.622499,109.993906 L140.202439,128.156604 L140.202439,128.156604 Z M101.609721,107.760754 C98.429842,107.760754 95.843928,110.348678 95.843928,113.529562 C95.843928,116.710446 98.429842,119.297364 101.609721,119.297364 C104.790605,119.297364 107.378528,116.710446 107.378528,113.529562 C107.378528,110.348678 104.790605,107.760754 101.609721,107.760754 L101.609721,107.760754 L101.609721,107.760754 Z M101.609721,116.499392 C99.974555,116.499392 98.643911,115.167742 98.643911,113.529562 C98.643911,111.890376 99.974555,110.556717 101.609721,110.556717 C103.248906,110.556717 104.583571,111.890376 104.583571,113.529562 C104.580556,115.167742 103.244886,116.499392 101.609721,116.499392 L101.609721,116.499392 L101.609721,116.499392 Z" class="icon" fill="#FFFFFF"></path>
</svg>