<?xml version="1.0" encoding="utf-8"?>
<!-- Generator: Adobe Illustrator 16.0.0, SVG Export Plug-In . SVG Version: 6.00 Build 0)  -->
<!DOCTYPE svg PUBLIC "-//W3C//DTD SVG 1.1//EN" "http://www.w3.org/Graphics/SVG/1.1/DTD/svg11.dtd">
<svg version="1.1" id="Layer_1" xmlns="http://www.w3.org/2000/svg" xmlns:xlink="http://www.w3.org/1999/xlink" x="0px" y="0px"
	 width="64px" height="64px" viewBox="0 0 64 64" enable-background="new 0 0 64 64" xml:space="preserve">
<g>
	<g>
		<defs>
			<rect id="SVGID_1_" x="1.481" y="1.481" width="61.037" height="61.037"/>
		</defs>
		<clipPath id="SVGID_2_">
			<use xlink:href="#SVGID_1_"  overflow="visible"/>
		</clipPath>
		<path clip-path="url(#SVGID_2_)" d="M32,5.375c14.681,0,26.625,11.941,26.625,26.625c0,14.681-11.944,26.625-26.625,26.625
			S5.375,46.681,5.375,32C5.375,17.316,17.319,5.375,32,5.375 M32,2.981C15.972,2.981,2.981,15.972,2.981,32
			c0,16.025,12.99,29.019,29.019,29.019c16.026,0,29.019-12.993,29.019-29.019C61.019,15.972,48.026,2.981,32,2.981"/>
		<path clip-path="url(#SVGID_2_)" fill="none" stroke="#000000" stroke-width="2" stroke-miterlimit="10" d="M32,5.375
			c14.681,0,26.625,11.941,26.625,26.625c0,14.681-11.944,26.625-26.625,26.625S5.375,46.681,5.375,32
			C5.375,17.316,17.319,5.375,32,5.375 M32,2.981C15.972,2.981,2.981,15.972,2.981,32c0,16.025,12.99,29.019,29.019,29.019
			c16.026,0,29.019-12.993,29.019-29.019C61.019,15.972,48.026,2.981,32,2.981z"/>
	</g>
	<g>
		<defs>
			<rect id="SVGID_3_" x="26.598" y="12.5" width="19.093" height="31.477"/>
		</defs>
		<clipPath id="SVGID_4_">
			<use xlink:href="#SVGID_3_"  overflow="visible"/>
		</clipPath>
		<path clip-path="url(#SVGID_4_)" d="M43.514,42.477c-0.258,0-1.636-0.085-1.854-0.258l-13.562-9.905v-17.13
			c0-0.653,0.847-1.184,1.5-1.184s1.5,0.53,1.5,1.184v15.99l12.352,9.193c0.513,0.407,0.997,1.151,0.589,1.664
			C43.807,42.324,43.862,42.477,43.514,42.477"/>
		<path clip-path="url(#SVGID_4_)" fill="none" stroke="#000000" stroke-width="2" stroke-miterlimit="10" d="M43.514,42.477
			c-0.258,0-1.636-0.085-1.854-0.258l-13.562-9.905v-17.13c0-0.653,0.847-1.184,1.5-1.184s1.5,0.53,1.5,1.184v15.99l12.352,9.193
			c0.513,0.407,0.997,1.151,0.589,1.664C43.807,42.324,43.862,42.477,43.514,42.477z"/>
	</g>
</g>
</svg>
