<?xml version="1.0" encoding="utf-8"?>
<!-- Generator: Adobe Illustrator 16.0.0, SVG Export Plug-In . SVG Version: 6.00 Build 0)  -->
<!DOCTYPE svg PUBLIC "-//W3C//DTD SVG 1.1//EN" "http://www.w3.org/Graphics/SVG/1.1/DTD/svg11.dtd">
<svg version="1.1" id="Layer_1" xmlns="http://www.w3.org/2000/svg" xmlns:xlink="http://www.w3.org/1999/xlink" x="0px" y="0px"
	 width="64px" height="64px" viewBox="0 0 64 64" enable-background="new 0 0 64 64" xml:space="preserve">
<g>
	<path fill="#65A6D1" d="M32.31,2.702c15.984,0,28.987,13.004,28.987,28.987v0.621c0,15.982-13.003,28.986-28.987,28.986H31.69
		c-15.984,0-28.987-13.004-28.987-28.986v-0.621c0-15.983,13.003-28.987,28.987-28.987H32.31 M32.31,0.963H31.69
		C14.72,0.963,0.963,14.72,0.963,31.689v0.621c0,16.969,13.757,30.727,30.728,30.727h0.619c16.971,0,30.728-13.758,30.728-30.727
		v-0.621C63.037,14.72,49.28,0.963,32.31,0.963"/>
	<path fill="#65A6D1" d="M21.088,24.469l23.066,2.15l-1.748,9.613H24.454h-0.181L21.088,24.469 M22.833,41.122l0.007,0.003
		l-0.948,0.947c0-0.01,0-0.02,0-0.029c0-0.402,0.271-0.752,0.659-0.85L22.833,41.122 M42.354,41.167
		c0.484,0,0.877,0.394,0.877,0.876c0,0.484-0.393,0.877-0.877,0.877c-0.418,0-0.779-0.297-0.859-0.707l-0.046-0.234l0.078-0.224
		C41.629,41.463,41.923,41.167,42.354,41.167 M19.354,19.339h-3.8v1.638h2.784l4.57,16.873l-0.782,1.656
		c-1.135,0.285-1.976,1.313-1.976,2.537c0,1.445,1.172,2.617,2.616,2.617c1.272,0,2.334-0.91,2.568-2.115h14.45h-0.001
		c0.234,1.205,1.296,2.115,2.568,2.115c1.446,0,2.617-1.172,2.617-2.617s-1.171-2.616-2.617-2.616c-1.145,0-2.117,0.734-2.473,1.759
		H25.24l0,0c-0.248-0.711-0.791-1.283-1.484-1.565l0.698-1.647h19.405l2.348-12.909l-25.94-2.419L19.354,19.339z M46.208,25.056
		l-0.001,0.008h0.001V25.056z"/>
</g>
</svg>
