<?xml version="1.0" encoding="utf-8"?>
<!-- Generator: Adobe Illustrator 16.0.0, SVG Export Plug-In . SVG Version: 6.00 Build 0)  -->
<!DOCTYPE svg PUBLIC "-//W3C//DTD SVG 1.1//EN" "http://www.w3.org/Graphics/SVG/1.1/DTD/svg11.dtd">
<svg version="1.1" id="Layer_1" xmlns="http://www.w3.org/2000/svg" xmlns:xlink="http://www.w3.org/1999/xlink" x="0px" y="0px"
	 width="64px" height="64px" viewBox="0 0 64 64" enable-background="new 0 0 64 64" xml:space="preserve">
<g>
	<path d="M32.311,2.703c15.982,0,28.986,13.004,28.986,28.987v0.62c0,15.983-13.004,28.987-28.986,28.987H31.69
		c-15.984,0-28.988-13.004-28.988-28.987v-0.62c0-15.983,13.004-28.987,28.988-28.987H32.311 M32.311,0.963H31.69
		C14.72,0.963,0.962,14.72,0.962,31.69v0.62c0,16.971,13.757,30.727,30.728,30.727h0.621c16.968,0,30.727-13.756,30.727-30.727
		v-0.62C63.037,14.72,49.279,0.963,32.311,0.963"/>
	<path d="M26.385,51.162c0.651,0,1.179-0.441,1.179-1.09l-0.037-0.6l-0.918-18.716c0-0.906,0.706-1.7,1.616-1.842l0,0
		c0.924-0.104,1.614-0.903,1.614-1.854V15.71v-0.03v-1.932c0-0.503-0.423-0.91-0.926-0.91c-0.502,0-0.924,0.407-0.924,0.91v0.691
		v8.247c0,0.516-0.326,0.934-0.841,0.934c-0.516,0-1.006-0.418-1.006-0.934l-0.1-7.514v-1.425c0-0.503-0.179-0.91-0.682-0.91h-0.438
		c-0.502,0-0.681,0.407-0.681,0.91v1.424l-0.1,7.515c0,0.516-0.492,0.933-1.008,0.933c-0.515,0-0.84-0.417-0.84-0.933v-8.247v-0.691
		c0-0.503-0.421-0.91-0.923-0.91c-0.504,0-0.927,0.407-0.927,0.91v1.932v0.031v11.351c0,0.953,0.691,1.75,1.614,1.854l0.001,0.001
		c0.917,0.174,1.617,0.936,1.617,1.841l-0.918,18.717l-0.038,0.601c0,0.647,0.53,1.09,1.179,1.09"/>
	<path d="M43.51,49.508L42.443,13.4c-0.008-0.24-0.217-0.42-0.457-0.401c-2.288,0.183-4.155,1.974-4.182,4.312l-0.197,17.137
		l2.494,0.028L39.188,49.52l-0.043,0.568c-0.008,0.646,0.517,1.079,1.166,1.087l2.072,0.017c0.65,0.009,1.166-0.432,1.174-1.08
		L43.51,49.508z"/>
</g>
</svg>
