<?xml version="1.0" encoding="utf-8"?>
<!-- Generator: Adobe Illustrator 16.0.0, SVG Export Plug-In . SVG Version: 6.00 Build 0)  -->
<!DOCTYPE svg PUBLIC "-//W3C//DTD SVG 1.1//EN" "http://www.w3.org/Graphics/SVG/1.1/DTD/svg11.dtd">
<svg version="1.1" id="Layer_1" xmlns="http://www.w3.org/2000/svg" xmlns:xlink="http://www.w3.org/1999/xlink" x="0px" y="0px"
	 width="64px" height="64px" viewBox="0 0 64 64" enable-background="new 0 0 64 64" xml:space="preserve">
<g>
	<path fill="#DB1988" d="M32.31,2.703c15.984,0,28.987,13.004,28.987,28.987v0.621c0,15.983-13.003,28.986-28.987,28.986h-0.62
		c-15.983,0-28.987-13.003-28.987-28.986V31.69c0-15.983,13.003-28.987,28.987-28.987H32.31 M32.31,0.963h-0.62
		C14.72,0.963,0.963,14.72,0.963,31.69v0.621c0,16.971,13.757,30.727,30.727,30.727h0.62c16.97,0,30.727-13.756,30.727-30.727V31.69
		C63.037,14.72,49.28,0.963,32.31,0.963"/>
	<path fill="#DB1988" d="M44.235,32.083c4.191-3.961,6.26-7.836,4.937-10.112c-0.732-1.255-2.399-1.855-4.671-1.855
		c-1.82,0-4.041,0.405-6.472,1.142c-0.218-0.917-0.462-1.776-0.729-2.585c0.517-0.482,0.844-1.165,0.844-1.926
		c0-1.462-1.185-2.646-2.646-2.646c-0.131,0-0.256,0.02-0.381,0.038c-1-1.368-2.127-2.155-3.323-2.155
		c-2.624,0-4.923,3.709-6.24,9.289c-2.426-0.732-4.647-1.134-6.465-1.134c-2.286,0-3.958,0.6-4.689,1.864
		c-1.324,2.278,0.754,6.147,4.952,10.103c-0.523,0.495-1.026,0.988-1.479,1.477c-0.807-0.515-1.863-0.587-2.75-0.073
		c-1.265,0.729-1.7,2.347-0.968,3.614c0.167,0.289,0.386,0.531,0.631,0.729c-0.847,1.724-1.025,3.242-0.371,4.365
		c0.732,1.257,2.399,1.855,4.672,1.855c1.819,0,4.04-0.404,6.472-1.142c1.317,5.573,3.614,9.275,6.236,9.275
		s4.922-3.708,6.238-9.292c1.175,0.355,2.299,0.637,3.351,0.824c0.148,0.715,0.577,1.369,1.26,1.764
		c1.266,0.729,2.885,0.295,3.614-0.97c0.126-0.218,0.207-0.448,0.265-0.683c1.245-0.27,2.174-0.812,2.666-1.662
		C50.509,39.909,48.434,36.038,44.235,32.083 M44.499,21.704c1.701,0,2.904,0.39,3.299,1.066c0.601,1.032-0.305,3.26-2.305,5.683
		c-0.703,0.852-1.529,1.711-2.438,2.563c-1.208-1.043-2.549-2.085-4.016-3.097c-0.139-1.802-0.373-3.511-0.678-5.1
		C40.659,22.111,42.776,21.704,44.499,21.704 M34.723,37.124c-0.97,0.566-1.948,1.079-2.925,1.566
		c-0.977-0.486-1.956-0.996-2.926-1.559c-0.99-0.575-1.91-1.16-2.792-1.748c-0.065-1.057-0.109-2.146-0.109-3.289
		c0-1.142,0.043-2.231,0.109-3.287c0.895-0.597,1.819-1.184,2.783-1.743c0.969-0.564,1.948-1.08,2.923-1.568
		c0.978,0.487,1.957,1,2.928,1.562c0.99,0.574,1.91,1.159,2.791,1.744c0.066,1.057,0.109,2.148,0.109,3.292
		c0,1.143-0.043,2.23-0.109,3.285C36.61,35.979,35.687,36.563,34.723,37.124 M37.341,37.39c-0.128,1.229-0.296,2.383-0.5,3.461
		c-1.054-0.375-2.135-0.809-3.23-1.299c0.635-0.339,1.272-0.682,1.912-1.054C36.146,38.136,36.749,37.765,37.341,37.39
		 M29.99,39.554c-1.1,0.494-2.184,0.933-3.243,1.312c-0.204-1.084-0.373-2.241-0.501-3.473c0.593,0.375,1.203,0.747,1.828,1.109
		C28.714,38.874,29.354,39.218,29.99,39.554 M24.426,34.234c-0.981-0.716-1.881-1.429-2.704-2.135
		c0.842-0.723,1.745-1.438,2.704-2.139c-0.027,0.702-0.042,1.412-0.042,2.135C24.384,32.817,24.399,33.529,24.426,34.234
		 M26.245,26.801c0.128-1.228,0.297-2.384,0.5-3.464c1.054,0.378,2.135,0.812,3.231,1.303c-0.636,0.336-1.273,0.681-1.913,1.054
		C27.441,26.054,26.837,26.424,26.245,26.801 M33.596,24.636c1.101-0.496,2.185-0.934,3.244-1.311
		c0.204,1.081,0.372,2.241,0.501,3.472c-0.594-0.378-1.204-0.748-1.828-1.112C34.872,25.314,34.232,24.971,33.596,24.636
		 M39.159,29.955c0.982,0.714,1.883,1.431,2.705,2.136c-0.843,0.722-1.746,1.437-2.704,2.136c0.028-0.702,0.042-1.411,0.042-2.132
		C39.202,31.371,39.186,30.659,39.159,29.955 M31.793,13.572c0.584,0,1.232,0.44,1.879,1.266c-0.505,0.481-0.821,1.158-0.821,1.91
		c0,1.46,1.186,2.646,2.646,2.646c0.12,0,0.232-0.021,0.35-0.035c0.238,0.736,0.459,1.535,0.662,2.395
		c-1.52,0.533-3.104,1.195-4.723,1.976c-1.615-0.775-3.197-1.432-4.711-1.961C28.285,16.591,30.261,13.572,31.793,13.572
		 M15.771,22.799c0.395-0.684,1.605-1.073,3.316-1.073c1.724,0,3.839,0.406,6.132,1.11c-0.304,1.586-0.535,3.292-0.674,5.091
		c-1.466,1.014-2.806,2.059-4.011,3.105C16.635,27.373,14.999,24.128,15.771,22.799 M19.087,42.484c-1.701,0-2.903-0.388-3.3-1.066
		c-0.364-0.625-0.167-1.694,0.486-2.979c0.505,0.033,1.024-0.075,1.496-0.346c1.153-0.666,1.605-2.066,1.125-3.268
		c0.504-0.552,1.052-1.104,1.637-1.654c1.208,1.047,2.549,2.086,4.016,3.098c0.14,1.803,0.372,3.512,0.678,5.101
		C22.928,42.077,20.811,42.484,19.087,42.484 M31.793,50.619c-1.53,0-3.504-3.017-4.716-8.183c1.52-0.533,3.104-1.197,4.723-1.977
		c1.615,0.775,3.197,1.434,4.711,1.963C35.302,47.599,33.325,50.619,31.793,50.619 M47.815,41.39
		c-0.224,0.385-0.713,0.674-1.398,0.856c-0.21-0.54-0.588-1.017-1.129-1.327c-1.264-0.732-2.883-0.299-3.614,0.968
		c-0.05,0.087-0.08,0.177-0.118,0.267c-1.004-0.184-2.074-0.456-3.189-0.799c0.304-1.586,0.536-3.294,0.676-5.094
		c1.465-1.014,2.804-2.057,4.01-3.102C46.951,36.817,48.587,40.06,47.815,41.39"/>
</g>
</svg>
