<?xml version="1.0" encoding="utf-8"?>
<!-- Generator: Adobe Illustrator 16.0.0, SVG Export Plug-In . SVG Version: 6.00 Build 0)  -->
<!DOCTYPE svg PUBLIC "-//W3C//DTD SVG 1.1//EN" "http://www.w3.org/Graphics/SVG/1.1/DTD/svg11.dtd">
<svg version="1.1" id="Layer_1" xmlns="http://www.w3.org/2000/svg" xmlns:xlink="http://www.w3.org/1999/xlink" x="0px" y="0px"
	 width="64px" height="64px" viewBox="0 0 64 64" enable-background="new 0 0 64 64" xml:space="preserve">
<g>
	<path d="M32.311,2.703c15.983,0,28.986,13.004,28.986,28.987v0.621c0,15.982-13.003,28.986-28.986,28.986H31.69
		c-15.983,0-28.987-13.004-28.987-28.986V31.69c0-15.983,13.003-28.987,28.987-28.987H32.311 M32.311,0.963H31.69
		c-16.97,0-30.727,13.758-30.727,30.728v0.621c0,16.97,13.757,30.726,30.727,30.726h0.621c16.968,0,30.727-13.756,30.727-30.726
		V31.69C63.037,14.721,49.279,0.963,32.311,0.963"/>
	<path d="M44.234,32.083c4.191-3.961,6.262-7.835,4.938-10.111c-0.732-1.256-2.398-1.855-4.672-1.855
		c-1.818,0-4.041,0.404-6.471,1.142c-0.217-0.917-0.463-1.775-0.729-2.585c0.517-0.481,0.845-1.164,0.845-1.926
		c0-1.462-1.187-2.646-2.646-2.646c-0.131,0-0.256,0.019-0.38,0.037c-1.001-1.367-2.127-2.155-3.324-2.155
		c-2.624,0-4.923,3.709-6.24,9.289c-2.426-0.731-4.647-1.134-6.465-1.134c-2.286,0-3.958,0.601-4.689,1.864
		c-1.324,2.277,0.754,6.146,4.952,10.102c-0.523,0.495-1.026,0.988-1.479,1.478c-0.807-0.517-1.863-0.587-2.749-0.073
		c-1.266,0.729-1.701,2.348-0.969,3.614c0.167,0.289,0.386,0.53,0.631,0.729c-0.847,1.723-1.025,3.242-0.371,4.364
		c0.732,1.257,2.398,1.855,4.671,1.855c1.819,0,4.041-0.404,6.472-1.144c1.317,5.574,3.613,9.275,6.235,9.275
		c2.624,0,4.922-3.707,6.239-9.291c1.174,0.355,2.299,0.636,3.351,0.824c0.149,0.715,0.577,1.367,1.262,1.764
		c1.264,0.729,2.883,0.295,3.612-0.97c0.126-0.22,0.207-0.448,0.265-0.683c1.246-0.271,2.176-0.812,2.666-1.662
		C50.51,39.91,48.434,36.039,44.234,32.083 M44.5,21.704c1.7,0,2.902,0.39,3.299,1.067c0.6,1.031-0.305,3.26-2.307,5.683
		c-0.702,0.852-1.528,1.711-2.438,2.563c-1.207-1.044-2.55-2.086-4.015-3.098c-0.142-1.802-0.374-3.511-0.679-5.1
		C40.658,22.111,42.775,21.704,44.5,21.704 M34.723,37.125c-0.97,0.566-1.947,1.078-2.925,1.566
		c-0.977-0.486-1.957-0.998-2.927-1.56c-0.99-0.575-1.91-1.159-2.791-1.748c-0.066-1.058-0.109-2.146-0.109-3.289
		c0-1.142,0.043-2.231,0.109-3.287c0.895-0.598,1.819-1.184,2.783-1.743c0.969-0.564,1.948-1.08,2.923-1.568
		c0.978,0.487,1.956,1,2.928,1.562c0.989,0.574,1.909,1.158,2.791,1.744c0.065,1.057,0.108,2.148,0.108,3.292
		c0,1.141-0.043,2.229-0.108,3.284C36.609,35.979,35.686,36.564,34.723,37.125 M37.34,37.391c-0.127,1.229-0.295,2.383-0.498,3.461
		c-1.055-0.375-2.137-0.809-3.232-1.299c0.637-0.34,1.273-0.683,1.914-1.055C36.145,38.137,36.748,37.766,37.34,37.391
		 M29.989,39.555c-1.1,0.494-2.184,0.932-3.243,1.312c-0.204-1.084-0.373-2.242-0.5-3.473c0.593,0.375,1.204,0.746,1.828,1.108
		C28.715,38.875,29.354,39.219,29.989,39.555 M24.426,34.234c-0.981-0.715-1.882-1.43-2.704-2.135
		c0.842-0.723,1.745-1.438,2.704-2.139c-0.027,0.702-0.042,1.412-0.042,2.135S24.399,33.529,24.426,34.234 M26.245,26.801
		c0.129-1.228,0.297-2.383,0.5-3.464c1.054,0.378,2.135,0.812,3.231,1.303c-0.635,0.337-1.272,0.681-1.913,1.054
		C27.441,26.055,26.837,26.425,26.245,26.801 M33.596,24.637c1.103-0.497,2.186-0.935,3.244-1.312c0.203,1.08,0.372,2.241,0.5,3.472
		c-0.594-0.378-1.203-0.747-1.828-1.111C34.871,25.314,34.232,24.972,33.596,24.637 M39.158,29.955
		c0.982,0.715,1.883,1.431,2.705,2.136c-0.842,0.722-1.746,1.437-2.703,2.138c0.027-0.703,0.041-1.412,0.041-2.132
		C39.203,31.371,39.186,30.659,39.158,29.955 M31.792,13.572c0.585,0,1.233,0.44,1.879,1.267c-0.504,0.481-0.821,1.157-0.821,1.909
		c0,1.461,1.186,2.646,2.646,2.646c0.12,0,0.232-0.021,0.35-0.035c0.237,0.736,0.459,1.535,0.662,2.395
		c-1.521,0.533-3.104,1.195-4.724,1.976c-1.615-0.774-3.197-1.432-4.711-1.961C28.284,16.591,30.261,13.572,31.792,13.572
		 M15.771,22.8c0.395-0.684,1.604-1.073,3.317-1.073c1.724,0,3.838,0.405,6.132,1.11c-0.304,1.586-0.536,3.291-0.675,5.091
		c-1.466,1.015-2.805,2.06-4.011,3.105C16.635,27.373,14.999,24.129,15.771,22.8 M19.086,42.484c-1.701,0-2.903-0.387-3.3-1.066
		c-0.364-0.624-0.167-1.693,0.486-2.979c0.505,0.033,1.025-0.076,1.496-0.347c1.153-0.666,1.604-2.067,1.125-3.269
		c0.503-0.553,1.051-1.104,1.636-1.653c1.208,1.046,2.549,2.086,4.015,3.099c0.14,1.803,0.372,3.512,0.678,5.1
		C22.927,42.078,20.81,42.484,19.086,42.484 M31.792,50.619c-1.53,0-3.503-3.016-4.716-8.182c1.52-0.535,3.104-1.197,4.724-1.979
		c1.616,0.775,3.198,1.436,4.712,1.964C35.302,47.6,33.324,50.619,31.792,50.619 M47.814,41.391
		c-0.224,0.385-0.713,0.674-1.396,0.855c-0.211-0.539-0.59-1.016-1.129-1.326c-1.266-0.732-2.885-0.299-3.615,0.969
		c-0.049,0.086-0.08,0.176-0.119,0.266c-1.004-0.184-2.072-0.456-3.188-0.799c0.304-1.586,0.535-3.293,0.675-5.095
		c1.466-1.014,2.806-2.056,4.011-3.102C46.951,36.816,48.586,40.061,47.814,41.391"/>
</g>
</svg>
