<?xml version="1.0" encoding="utf-8"?>
<!-- Generator: Adobe Illustrator 16.0.0, SVG Export Plug-In . SVG Version: 6.00 Build 0)  -->
<!DOCTYPE svg PUBLIC "-//W3C//DTD SVG 1.1//EN" "http://www.w3.org/Graphics/SVG/1.1/DTD/svg11.dtd">
<svg version="1.1" id="Layer_1" xmlns="http://www.w3.org/2000/svg" xmlns:xlink="http://www.w3.org/1999/xlink" x="0px" y="0px"
	 width="64px" height="64px" viewBox="0 0 64 64" enable-background="new 0 0 64 64" xml:space="preserve">
<g>
	<g>
		<defs>
			<rect id="SVGID_1_" x="9.77" y="0.47" width="44.461" height="63.059"/>
		</defs>
		<clipPath id="SVGID_2_">
			<use xlink:href="#SVGID_1_"  overflow="visible"/>
		</clipPath>
		<path clip-path="url(#SVGID_2_)" fill="#B2B2B2" d="M31.999,0.47C19.724,0.47,9.77,10.425,9.77,22.704
			c0,2.912,0.574,5.688,1.593,8.237c4.746,15.684,20.302,32.588,20.302,32.588S50.469,43.916,53.74,27.34
			c0.041-0.199,0.072-0.403,0.107-0.606c0.072-0.406,0.133-0.81,0.186-1.213c0.039-0.296,0.076-0.59,0.104-0.891
			c0.057-0.648,0.094-1.293,0.094-1.927C54.23,10.425,44.279,0.47,31.999,0.47 M31.795,33.004c-6.356,0-11.51-5.156-11.51-11.512
			c0-6.358,5.153-11.51,11.51-11.51c6.357,0,11.51,5.151,11.51,11.51C43.305,27.848,38.152,33.004,31.795,33.004"/>
	</g>
</g>
</svg>
