<?xml version="1.0" encoding="utf-8"?>
<!-- Generator: Adobe Illustrator 16.0.0, SVG Export Plug-In . SVG Version: 6.00 Build 0)  -->
<!DOCTYPE svg PUBLIC "-//W3C//DTD SVG 1.1//EN" "http://www.w3.org/Graphics/SVG/1.1/DTD/svg11.dtd">
<svg version="1.1" id="Layer_1" xmlns="http://www.w3.org/2000/svg" xmlns:xlink="http://www.w3.org/1999/xlink" x="0px" y="0px"
	 width="64px" height="64px" viewBox="0 0 64 64" enable-background="new 0 0 64 64" xml:space="preserve">
<g>
	<path fill="#69B3A5" d="M32.315,63.6h-0.631C14.406,63.6,0.4,49.594,0.4,32.315v-0.631C0.4,14.406,14.406,0.4,31.685,0.4h0.631
		C49.594,0.4,63.6,14.406,63.6,31.684v0.631C63.6,49.594,49.594,63.6,32.315,63.6"/>
	<path fill="#FFFFFF" d="M35.449,15.041l-7.829,0.084h-2.526c-0.766,0-1.388,0.622-1.388,1.387v0.794v0.059v0.485
		c0,0.784,0.635,1.089,1.055,1.291l1.195,0.428c-0.011,0.515-0.276,1.473-0.683,2.415c-0.044,0.105-0.188,0.217-0.339,0.337
		c-0.286,0.227-0.68,0.537-0.792,1.103c-0.097,0.495,0.089,0.939,0.495,1.19c0.25,0.153,0.57,0.219,0.904,0.219
		c0.551,0,1.137-0.182,1.488-0.457c1.065-0.834,1.615-2.172,2.012-3.46c0.023-0.074,0.046-0.147,0.066-0.22l1.318,0.472l0.016,0.812
		l0.003,0.169c-0.603,0.22-1.037,0.793-1.037,1.471v2.302c0,0.019,0.005,0.036,0.006,0.055c-0.001,0.018-0.006,0.036-0.006,0.055
		c0,0.324,0.264,0.587,0.589,0.587h0.178v1.349c0,1.991-2.225,3.97-3.418,4.472c-1.669,0.704-1.989,2.819-2,2.909L24.46,46.545
		c0,0.867,0.704,1.57,1.57,1.57h2.431h2.689h5.832c0.867,0,1.572-0.703,1.572-1.57V33.979l-0.002-0.041
		c-0.006-0.061-0.109-1.476-0.628-2.669c-0.188-0.431-0.462-0.907-0.728-1.366c-0.385-0.666-0.863-1.493-0.863-1.895
		c0-0.596-0.003-1.115-0.006-1.39h0.104c0.324,0,0.587-0.263,0.587-0.587c0-0.029-0.005-0.057-0.008-0.085
		c0.003-0.028,0.008-0.055,0.008-0.085V23.62c0-0.792-0.591-1.442-1.353-1.548v-1.473c0.27-0.117,1.11-0.093,1.627-0.079
		c1.123,0.031,2.184,0.061,2.713-0.517c0.152-0.167,0.32-0.454,0.281-0.884v-0.356L35.449,15.041z M37.324,19.344
		c-1.084-0.03-2.02-0.056-2.524,0.434c-0.204,0.199-0.312,0.457-0.312,0.748v1.523h-0.02H34.26h-0.445h-2.195l-0.025-1.252
		l-0.009-0.466l-4.013-1.426l-2.203-0.784l-0.049-0.017l-0.05-0.023c-0.141-0.068-0.352-0.169-0.388-0.231v-0.098v-0.112v-0.277
		v-0.058v-0.794c0-0.117,0.094-0.211,0.211-0.211h2.533l7.43-0.081l3.961,3.05C38.67,19.382,37.814,19.358,37.324,19.344
		 M26.305,23.45c-0.243,0.191-0.798,0.252-1.005,0.184c0.031-0.118,0.14-0.212,0.363-0.39c0.235-0.186,0.527-0.417,0.69-0.794
		c0.173-0.4,0.622-1.511,0.745-2.473l0.9,0.322C27.647,21.495,27.185,22.761,26.305,23.45 M35.158,28.009
		c0,0.716,0.494,1.574,1.02,2.482c0.25,0.431,0.508,0.877,0.668,1.247c0.408,0.938,0.518,2.104,0.531,2.264v12.543
		c0,0.219-0.178,0.396-0.396,0.396h-5.83h-2.689H26.03c-0.219,0-0.396-0.178-0.397-0.381l0.291-11.072
		c0.037-0.207,0.32-1.557,1.287-1.965c1.398-0.588,4.141-2.894,4.141-5.556v-1.349h3.8C35.154,26.888,35.158,27.409,35.158,28.009
		 M35.842,23.62v1.823h-5.257V23.62c0-0.217,0.176-0.395,0.394-0.395h2.836h0.654h0.979C35.666,23.226,35.842,23.403,35.842,23.62"
		/>
</g>
</svg>
