<?xml version="1.0" encoding="utf-8"?>
<!-- Generator: Adobe Illustrator 16.0.0, SVG Export Plug-In . SVG Version: 6.00 Build 0)  -->
<!DOCTYPE svg PUBLIC "-//W3C//DTD SVG 1.1//EN" "http://www.w3.org/Graphics/SVG/1.1/DTD/svg11.dtd">
<svg version="1.1" id="Layer_1" xmlns="http://www.w3.org/2000/svg" xmlns:xlink="http://www.w3.org/1999/xlink" x="0px" y="0px"
	 width="64px" height="64px" viewBox="0 0 64 64" enable-background="new 0 0 64 64" xml:space="preserve">
<g>
	<path fill="#51CE9E" d="M32.315,63.546h-0.63c-17.25,0-31.232-13.982-31.232-31.231v-0.63c0-17.249,13.982-31.231,31.232-31.231
		h0.63c17.247,0,31.231,13.982,31.231,31.231v0.63C63.547,49.563,49.562,63.546,32.315,63.546"/>
	<path fill="#FFFFFF" d="M32.104,17.646c7.74,0,14.039,6.298,14.039,14.039c0,7.74-6.299,14.038-14.039,14.038
		c-7.741,0-14.038-6.298-14.038-14.038C18.067,23.944,24.364,17.646,32.104,17.646 M32.104,16.384c-8.45,0-15.3,6.85-15.3,15.3
		c0,8.451,6.85,15.3,15.3,15.3s15.3-6.849,15.3-15.3C47.404,23.234,40.555,16.384,32.104,16.384"/>
	<path fill="#FFFFFF" d="M26.744,28.667c0-0.832,0.126-1.59,0.376-2.271c0.249-0.682,0.614-1.264,1.091-1.749
		c0.477-0.484,1.051-0.859,1.727-1.124c0.673-0.265,1.426-0.397,2.259-0.397c0.697,0,1.343,0.102,1.942,0.306
		c0.599,0.204,1.12,0.5,1.566,0.886c0.448,0.386,0.8,0.867,1.058,1.442c0.258,0.576,0.386,1.227,0.386,1.953
		c0,0.53-0.058,0.988-0.171,1.375c-0.114,0.385-0.264,0.719-0.454,0.999c-0.189,0.28-0.405,0.531-0.647,0.75
		c-0.242,0.219-0.484,0.435-0.727,0.647c-0.287,0.242-0.553,0.477-0.795,0.704c-0.242,0.227-0.455,0.48-0.637,0.76
		c-0.181,0.281-0.321,0.61-0.42,0.988c-0.099,0.379-0.146,0.841-0.146,1.387h-2.453c0-0.667,0.033-1.23,0.102-1.693
		c0.069-0.461,0.178-0.866,0.329-1.215c0.152-0.348,0.336-0.655,0.557-0.92c0.218-0.265,0.48-0.525,0.783-0.783
		c0.244-0.212,0.473-0.409,0.693-0.591c0.219-0.182,0.417-0.382,0.591-0.602s0.31-0.466,0.408-0.739
		c0.098-0.271,0.148-0.598,0.148-0.977c0-0.454-0.08-0.843-0.239-1.169c-0.158-0.326-0.353-0.586-0.579-0.783
		c-0.229-0.197-0.47-0.341-0.728-0.432c-0.258-0.09-0.485-0.137-0.679-0.137c-0.942,0-1.633,0.307-2.081,0.92
		c-0.448,0.612-0.67,1.435-0.67,2.464H26.744z M30.357,36.89h3.042v2.84h-3.042V36.89z"/>
</g>
</svg>
