<?xml version="1.0" encoding="utf-8"?>
<!-- Generator: Adobe Illustrator 16.0.0, SVG Export Plug-In . SVG Version: 6.00 Build 0)  -->
<!DOCTYPE svg PUBLIC "-//W3C//DTD SVG 1.1//EN" "http://www.w3.org/Graphics/SVG/1.1/DTD/svg11.dtd">
<svg version="1.1" id="Layer_1" xmlns="http://www.w3.org/2000/svg" xmlns:xlink="http://www.w3.org/1999/xlink" x="0px" y="0px"
	 width="64px" height="64px" viewBox="0 0 64 64" enable-background="new 0 0 64 64" xml:space="preserve">
<g>
	<path fill="#69B3A5" d="M32.311,2.703c15.983,0,28.987,13.003,28.987,28.987v0.62c0,15.983-13.004,28.987-28.987,28.987h-0.621
		c-15.983,0-28.987-13.004-28.987-28.987v-0.62c0-15.984,13.004-28.987,28.987-28.987H32.311 M32.311,0.962h-0.621
		c-16.97,0-30.728,13.757-30.728,30.728v0.62c0,16.969,13.758,30.727,30.728,30.727h0.621c16.971,0,30.728-13.758,30.728-30.727
		v-0.62C63.038,14.719,49.281,0.962,32.311,0.962"/>
	<path fill="#69B3A5" d="M35.39,15.342l-7.691,0.083h-2.481c-0.751,0-1.362,0.61-1.362,1.361v0.78v0.058v0.477
		c0,0.77,0.622,1.069,1.034,1.267l1.175,0.421c-0.01,0.505-0.271,1.448-0.669,2.372c-0.044,0.103-0.185,0.213-0.334,0.331
		c-0.281,0.222-0.668,0.527-0.777,1.083c-0.097,0.486,0.086,0.923,0.485,1.169c0.245,0.15,0.56,0.215,0.889,0.215
		c0.54,0,1.115-0.178,1.461-0.449c1.047-0.82,1.587-2.133,1.977-3.399c0.023-0.072,0.044-0.144,0.064-0.216l1.294,0.462l0.017,0.798
		l0.004,0.167c-0.592,0.216-1.02,0.78-1.02,1.445v2.261c0,0.019,0.005,0.035,0.006,0.054c-0.001,0.018-0.006,0.035-0.006,0.053
		c0,0.319,0.26,0.578,0.577,0.578h0.178v1.324c0,1.956-2.188,3.899-3.36,4.392c-1.638,0.69-1.952,2.769-1.964,2.858l-0.291,10.998
		c0,0.85,0.691,1.543,1.542,1.543h2.39h2.641h5.728c0.852,0,1.545-0.693,1.545-1.543V33.943l-0.002-0.041
		c-0.005-0.059-0.107-1.449-0.616-2.621c-0.185-0.424-0.456-0.891-0.716-1.341c-0.377-0.654-0.846-1.466-0.846-1.86
		c0-0.585-0.005-1.095-0.008-1.365h0.102c0.318,0,0.578-0.258,0.578-0.578c0-0.028-0.006-0.056-0.009-0.083
		c0.003-0.028,0.009-0.055,0.009-0.083V23.77c0-0.778-0.582-1.416-1.331-1.521v-1.447c0.267-0.114,1.092-0.09,1.601-0.077
		c1.102,0.03,2.145,0.06,2.664-0.508c0.148-0.164,0.314-0.445,0.275-0.868v-0.35L35.39,15.342z M37.231,19.57
		c-1.066-0.031-1.984-0.056-2.48,0.425c-0.201,0.194-0.307,0.449-0.307,0.734v1.497h-0.02H34.22h-0.437h-2.158l-0.024-1.231
		l-0.009-0.457l-3.941-1.401l-2.164-0.769l-0.049-0.017l-0.048-0.023c-0.137-0.066-0.345-0.166-0.381-0.227v-0.096v-0.11v-0.272
		v-0.057v-0.781c0-0.113,0.093-0.206,0.208-0.206h2.488l7.298-0.079l3.891,2.995C38.552,19.607,37.712,19.583,37.231,19.57
		 M26.405,23.602c-0.238,0.188-0.783,0.247-0.986,0.181c0.03-0.116,0.137-0.209,0.357-0.383c0.23-0.182,0.518-0.409,0.677-0.778
		c0.17-0.393,0.612-1.485,0.733-2.429l0.884,0.315C27.725,21.682,27.27,22.925,26.405,23.602 M35.102,28.08
		c0,0.705,0.487,1.546,1.003,2.439c0.244,0.423,0.498,0.861,0.654,1.224c0.402,0.922,0.509,2.066,0.522,2.225v12.32
		c0,0.215-0.174,0.387-0.389,0.387h-5.728h-2.641h-2.389c-0.215,0-0.388-0.172-0.389-0.373l0.284-10.875
		c0.037-0.205,0.314-1.529,1.265-1.93c1.374-0.577,4.067-2.842,4.067-5.457v-1.324h3.731C35.099,26.979,35.102,27.491,35.102,28.08
		 M35.774,23.77v1.79h-5.165v-1.79c0-0.214,0.174-0.388,0.388-0.388h2.786h0.642h0.961C35.6,23.382,35.774,23.555,35.774,23.77"/>
</g>
</svg>
