<?xml version="1.0" encoding="utf-8"?>
<!-- Generator: Adobe Illustrator 16.0.0, SVG Export Plug-In . SVG Version: 6.00 Build 0)  -->
<!DOCTYPE svg PUBLIC "-//W3C//DTD SVG 1.1//EN" "http://www.w3.org/Graphics/SVG/1.1/DTD/svg11.dtd">
<svg version="1.1" id="Layer_1" xmlns="http://www.w3.org/2000/svg" xmlns:xlink="http://www.w3.org/1999/xlink" x="0px" y="0px"
	 width="64px" height="64px" viewBox="0 0 64 64" enable-background="new 0 0 64 64" xml:space="preserve">
<g>
	<g>
		<defs>
			<rect id="SVGID_1_" x="1.531" y="1.532" width="60.938" height="60.936"/>
		</defs>
		<clipPath id="SVGID_2_">
			<use xlink:href="#SVGID_1_"  overflow="visible"/>
		</clipPath>
		<path clip-path="url(#SVGID_2_)" fill="#B2B2B2" d="M53.543,10.456c-11.896-11.898-31.189-11.898-43.087,0
			c-11.899,11.899-11.899,31.188,0,43.088c11.897,11.898,31.19,11.898,43.087,0C65.441,41.645,65.441,22.354,53.543,10.456
			 M55.176,47.625l-8.494-8.496c2.082-4.292,2.178-9.296,0.279-13.651l8.566-8.566C61.52,26.251,61.404,38.396,55.176,47.625
			 M22.262,41.737c-5.37-5.369-5.37-14.106,0-19.475c5.369-5.37,14.107-5.37,19.475,0c5.371,5.368,5.371,14.105,0,19.475
			C36.369,47.107,27.631,47.107,22.262,41.737 M47.625,8.822l-8.494,8.496c-4.494-2.181-9.769-2.181-14.261,0l-8.496-8.496
			C25.78,2.476,38.219,2.476,47.625,8.822 M8.471,16.911l8.566,8.566c-1.898,4.355-1.801,9.359,0.281,13.651l-8.496,8.496
			C2.597,38.396,2.479,26.251,8.471,16.911 M16.911,55.529l8.565-8.567c4.151,1.809,8.893,1.809,13.045,0l8.568,8.567
			C37.93,61.404,26.071,61.404,16.911,55.529"/>
	</g>
</g>
</svg>
