<?xml version="1.0" encoding="utf-8"?>
<!-- Generator: Adobe Illustrator 16.0.0, SVG Export Plug-In . SVG Version: 6.00 Build 0)  -->
<!DOCTYPE svg PUBLIC "-//W3C//DTD SVG 1.1//EN" "http://www.w3.org/Graphics/SVG/1.1/DTD/svg11.dtd">
<svg version="1.1" id="Layer_1" xmlns="http://www.w3.org/2000/svg" xmlns:xlink="http://www.w3.org/1999/xlink" x="0px" y="0px"
	 width="64px" height="64px" viewBox="0 0 64 64" enable-background="new 0 0 64 64" xml:space="preserve">
<g>
	<path fill="#E5753C" d="M32.314,63.6h-0.631c-17.277,0-31.284-14.006-31.284-31.283v-0.632C0.399,14.407,14.406,0.4,31.684,0.4
		h0.631c17.279,0,31.286,14.007,31.286,31.284v0.632C63.601,49.594,49.594,63.6,32.314,63.6"/>
	<path fill="#FFFFFF" d="M26.282,51.51c0.663,0,1.202-0.449,1.202-1.109l-0.039-0.609l-0.935-19.055
		c0-0.924,0.719-1.731,1.646-1.876h0.001c0.94-0.106,1.643-0.919,1.643-1.888V15.416v-0.032v-1.966c0-0.513-0.43-0.927-0.942-0.927
		c-0.511,0-0.94,0.414-0.94,0.927v0.705v8.397c0,0.523-0.331,0.95-0.857,0.95c-0.524,0-1.024-0.426-1.024-0.95l-0.102-7.65v-1.452
		c0-0.513-0.183-0.927-0.695-0.927h-0.445c-0.511,0-0.693,0.414-0.693,0.927v1.45l-0.102,7.651c0,0.524-0.502,0.949-1.026,0.949
		s-0.854-0.425-0.854-0.949v-8.397v-0.704c0-0.513-0.431-0.927-0.941-0.927c-0.512,0-0.944,0.414-0.944,0.927v1.966v0.032v11.556
		c0,0.97,0.704,1.783,1.645,1.888v0.001c0.935,0.176,1.647,0.953,1.647,1.875l-0.935,19.055l-0.038,0.61
		c0,0.659,0.539,1.109,1.2,1.109"/>
	<path fill="#FFFFFF" d="M43.718,49.824l-1.086-36.762c-0.007-0.245-0.219-0.429-0.464-0.409c-2.333,0.187-4.23,2.009-4.259,4.391
		l-0.199,17.45l2.539,0.027l-0.932,15.317l-0.044,0.577c-0.008,0.658,0.524,1.1,1.188,1.105l2.109,0.018
		c0.663,0.008,1.188-0.439,1.196-1.1L43.718,49.824z"/>
</g>
</svg>
