<?xml version="1.0" encoding="utf-8"?>
<!-- Generator: Adobe Illustrator 16.0.0, SVG Export Plug-In . SVG Version: 6.00 Build 0)  -->
<!DOCTYPE svg PUBLIC "-//W3C//DTD SVG 1.1//EN" "http://www.w3.org/Graphics/SVG/1.1/DTD/svg11.dtd">
<svg version="1.1" id="Layer_1" xmlns="http://www.w3.org/2000/svg" xmlns:xlink="http://www.w3.org/1999/xlink" x="0px" y="0px"
	 width="64px" height="64px" viewBox="0 0 64 64" enable-background="new 0 0 64 64" xml:space="preserve">
<g>
	<path d="M62.537,31.09c-0.045-0.576-0.38-1.091-0.928-1.414l-1.773-1.041l-1.68,1.347l2.159,1.268L26.399,58.465
		c-0.076,0.057-0.237,0.115-0.431,0.115c-0.144,0-0.252-0.031-0.305-0.062L3.683,45.608l2.25-1.805l-1.857-1.088l-1.9,1.523
		c-0.494,0.397-0.754,0.955-0.713,1.531c0.042,0.576,0.381,1.088,0.927,1.41l22.253,13.072c0.382,0.222,0.84,0.341,1.325,0.341
		c0.629,0,1.244-0.203,1.688-0.561l34.168-27.412C62.318,32.224,62.58,31.666,62.537,31.09"/>
	<path d="M39.346,43.784l-12.95,10.387c-0.073,0.059-0.234,0.119-0.428,0.119c-0.145,0-0.25-0.035-0.307-0.066L3.685,41.316
		l2.248-1.803l-1.857-1.091l-1.9,1.524c-0.494,0.396-0.754,0.955-0.713,1.533c0.042,0.572,0.381,1.088,0.927,1.41l22.253,13.068
		c0.382,0.226,0.84,0.345,1.325,0.345c0.629,0,1.244-0.207,1.688-0.561l11.689-9.381V43.784z"/>
	<path d="M62.537,26.797c-0.045-0.576-0.38-1.089-0.928-1.411l-1.773-1.041l-1.68,1.346l2.159,1.267l-11.231,9.014v2.578
		l12.74-10.22C62.318,27.933,62.58,27.374,62.537,26.797"/>
	<path d="M25.968,47.72c-0.485,0-0.943-0.119-1.323-0.343L2.39,34.307c-0.546-0.32-0.885-0.835-0.927-1.41
		c-0.042-0.576,0.216-1.136,0.713-1.532L36.344,3.953c0.785-0.63,2.138-0.732,3.011-0.22l22.255,13.071
		c0.548,0.322,0.887,0.835,0.928,1.411c0.042,0.577-0.219,1.133-0.713,1.531L27.656,47.157C27.212,47.514,26.597,47.72,25.968,47.72
		 M3.683,32.733l21.98,12.91c0.052,0.031,0.161,0.062,0.305,0.062c0.196,0,0.355-0.057,0.429-0.115l33.918-27.213L38.338,5.468
		c-0.055-0.031-0.162-0.065-0.308-0.065c-0.193,0-0.352,0.06-0.428,0.119L3.683,32.733z"/>
	<path d="M30.573,17.807c2.585,0.389,5.287,1.303,7.7,2.716c2.409,1.416,4.141,3.109,5.1,4.803l3.077,1.807l8.5-6.818
		c-1.943-1.141-2.364-2.991-0.942-4.129L42.084,9.181c-1.422,1.141-4.149,1.141-6.09,0L27.495,16L30.573,17.807z"/>
	<path d="M34.075,33.394c-2.779-0.324-5.738-1.271-8.348-2.804c-2.613-1.534-4.433-3.394-5.331-5.228l-2.637-1.55l-8.71,6.987
		c1.942,1.141,2.364,2.988,0.943,4.129l11.923,7.001c1.421-1.142,4.146-1.142,6.089-0.001l8.708-6.985L34.075,33.394z"/>
	<path d="M39.346,39.491l-12.95,10.39C26.323,49.939,26.162,50,25.968,50c-0.145,0-0.25-0.035-0.307-0.066L3.685,37.024l2.246-1.803
		l-1.855-1.09l-1.9,1.523c-0.494,0.398-0.755,0.955-0.713,1.531S1.843,38.277,2.39,38.6l22.253,13.067
		c0.382,0.224,0.84,0.343,1.325,0.343c0.629,0,1.244-0.203,1.688-0.56l11.689-9.378V39.491z"/>
	<path d="M62.537,22.506c-0.045-0.576-0.38-1.089-0.928-1.411l-1.773-1.042l-1.68,1.346l2.159,1.268l-11.231,9.013v2.578
		l12.74-10.22C62.318,23.642,62.58,23.082,62.537,22.506"/>
	<path d="M48.993,27.46L24.774,13.235l-11.415,9.157l24.983,14.673v14.396l11.747-9.426V29.161L48.993,27.46z M24.951,15.672
		l22.365,13.135l-5.56,4.459l-2.498,2.005L16.893,22.137L24.951,15.672z M48.076,41.068l-7.725,6.197V36.973l5.222-4.19l2.503-2.008
		V41.068z"/>
</g>
</svg>
