<?xml version="1.0" encoding="utf-8"?>
<!-- Generator: Adobe Illustrator 16.0.0, SVG Export Plug-In . SVG Version: 6.00 Build 0)  -->
<!DOCTYPE svg PUBLIC "-//W3C//DTD SVG 1.1//EN" "http://www.w3.org/Graphics/SVG/1.1/DTD/svg11.dtd">
<svg version="1.1" id="Layer_1" xmlns="http://www.w3.org/2000/svg" xmlns:xlink="http://www.w3.org/1999/xlink" x="0px" y="0px"
	 width="64px" height="64px" viewBox="0 0 64 64" enable-background="new 0 0 64 64" xml:space="preserve">
<g>
	<g>
		<defs>
			<rect id="SVGID_1_" x="1.78" y="1.782" width="60.439" height="60.437"/>
		</defs>
		<clipPath id="SVGID_2_">
			<use xlink:href="#SVGID_1_"  overflow="visible"/>
		</clipPath>
		<path clip-path="url(#SVGID_2_)" fill="#B2B2B2" d="M32.001,4.271C47.288,4.271,59.727,16.71,59.727,32
			c0,15.287-12.438,27.727-27.725,27.727C16.712,59.727,4.273,47.287,4.273,32C4.273,16.71,16.712,4.271,32.001,4.271 M32.001,1.782
			C15.311,1.782,1.78,15.31,1.78,32c0,16.689,13.53,30.219,30.221,30.219c16.69,0,30.218-13.529,30.218-30.219
			C62.22,15.31,48.691,1.782,32.001,1.782"/>
		<path clip-path="url(#SVGID_2_)" fill="#B2B2B2" d="M21.415,26.041c0-1.644,0.247-3.14,0.742-4.485
			c0.493-1.347,1.211-2.497,2.153-3.458c0.942-0.955,2.079-1.696,3.41-2.218c1.33-0.524,2.816-0.787,4.463-0.787
			c1.375,0,2.652,0.202,3.834,0.606c1.184,0.404,2.214,0.986,3.097,1.75c0.882,0.762,1.578,1.713,2.086,2.848
			c0.509,1.138,0.763,2.423,0.763,3.859c0,1.047-0.113,1.951-0.336,2.714c-0.225,0.763-0.523,1.422-0.898,1.976
			c-0.373,0.551-0.799,1.046-1.277,1.479c-0.479,0.433-0.957,0.858-1.436,1.277c-0.569,0.479-1.094,0.943-1.572,1.394
			c-0.477,0.447-0.895,0.947-1.254,1.501c-0.357,0.553-0.637,1.201-0.832,1.951c-0.192,0.748-0.291,1.66-0.291,2.734h-4.844
			c0-1.312,0.068-2.428,0.202-3.342c0.134-0.912,0.351-1.711,0.651-2.398c0.299-0.688,0.664-1.294,1.099-1.816
			c0.434-0.525,0.949-1.04,1.548-1.55c0.478-0.419,0.932-0.806,1.369-1.167c0.433-0.358,0.82-0.753,1.167-1.188
			c0.342-0.433,0.611-0.919,0.807-1.458c0.194-0.537,0.291-1.181,0.291-1.927c0-0.9-0.156-1.667-0.473-2.312
			c-0.312-0.642-0.693-1.16-1.143-1.547c-0.449-0.39-0.926-0.674-1.437-0.852c-0.507-0.18-0.956-0.269-1.344-0.269
			c-1.855,0-3.225,0.606-4.105,1.816c-0.882,1.21-1.323,2.834-1.323,4.867H21.415z M28.549,42.281h6.009v5.607h-6.009V42.281z"/>
	</g>
</g>
</svg>
