<?xml version="1.0" encoding="utf-8"?>
<!-- Generator: Adobe Illustrator 16.0.0, SVG Export Plug-In . SVG Version: 6.00 Build 0)  -->
<!DOCTYPE svg PUBLIC "-//W3C//DTD SVG 1.1//EN" "http://www.w3.org/Graphics/SVG/1.1/DTD/svg11.dtd">
<svg version="1.1" id="Layer_1" xmlns="http://www.w3.org/2000/svg" xmlns:xlink="http://www.w3.org/1999/xlink" x="0px" y="0px"
	 width="64px" height="64px" viewBox="0 0 64 64" enable-background="new 0 0 64 64" xml:space="preserve">
<g>
	<polygon points="53.117,59.291 41.42,59.291 41.42,41.096 23.227,41.096 23.227,59.291 11.53,59.291 11.53,34.527 8.93,34.527 
		8.93,61.891 25.826,61.891 25.826,43.695 38.822,43.695 38.822,61.891 55.717,61.891 55.717,34.527 53.117,34.527 	"/>
	<polygon points="34.451,3.986 34.488,3.947 32.65,2.109 20.627,14.132 20.627,4.708 18.028,4.708 18.028,16.732 0.486,34.273 
		2.324,36.111 32.613,5.825 61.676,36.111 63.514,34.273 	"/>
</g>
</svg>
