<?xml version="1.0" encoding="utf-8"?>
<!-- Generator: Adobe Illustrator 16.0.0, SVG Export Plug-In . SVG Version: 6.00 Build 0)  -->
<!DOCTYPE svg PUBLIC "-//W3C//DTD SVG 1.1//EN" "http://www.w3.org/Graphics/SVG/1.1/DTD/svg11.dtd">
<svg version="1.1" id="Layer_1" xmlns="http://www.w3.org/2000/svg" xmlns:xlink="http://www.w3.org/1999/xlink" x="0px" y="0px"
	 width="64px" height="64px" viewBox="0 0 64 64" enable-background="new 0 0 64 64" xml:space="preserve">
<g>
	<path fill="#69B3A5" d="M32.315,63.546h-0.631c-17.249,0-31.231-13.981-31.231-31.231v-0.629c0-17.25,13.982-31.231,31.231-31.231
		h0.631c17.247,0,31.231,13.982,31.231,31.231v0.629C63.547,49.564,49.562,63.546,32.315,63.546"/>
	<path fill="#FFFFFF" d="M32.104,17.646c7.74,0,14.039,6.297,14.039,14.038c0,7.741-6.299,14.038-14.039,14.038
		s-14.037-6.297-14.037-14.038C18.067,23.944,24.364,17.646,32.104,17.646 M32.104,16.385c-8.45,0-15.3,6.85-15.3,15.3
		s6.85,15.3,15.3,15.3s15.3-6.85,15.3-15.3S40.555,16.385,32.104,16.385"/>
	<path fill="#FFFFFF" d="M26.745,28.667c0-0.832,0.125-1.59,0.375-2.271c0.25-0.682,0.614-1.264,1.091-1.75
		c0.477-0.484,1.052-0.858,1.727-1.124c0.673-0.265,1.427-0.397,2.259-0.397c0.697,0,1.344,0.102,1.942,0.306
		c0.599,0.204,1.12,0.5,1.567,0.886c0.446,0.386,0.798,0.867,1.056,1.442c0.258,0.576,0.387,1.227,0.387,1.953
		c0,0.531-0.057,0.988-0.171,1.375c-0.114,0.385-0.264,0.719-0.454,1c-0.189,0.279-0.405,0.53-0.647,0.749
		c-0.242,0.22-0.484,0.435-0.727,0.647c-0.287,0.242-0.553,0.477-0.795,0.704c-0.242,0.227-0.455,0.481-0.636,0.761
		c-0.182,0.281-0.322,0.609-0.421,0.987c-0.099,0.38-0.146,0.841-0.146,1.386h-2.453c0-0.666,0.033-1.229,0.102-1.691
		c0.068-0.461,0.178-0.866,0.33-1.216c0.151-0.348,0.336-0.655,0.556-0.919c0.219-0.265,0.479-0.526,0.783-0.784
		c0.243-0.212,0.474-0.409,0.693-0.591c0.219-0.182,0.417-0.382,0.591-0.602c0.173-0.219,0.31-0.465,0.407-0.739
		c0.099-0.272,0.148-0.598,0.148-0.977c0-0.454-0.079-0.843-0.238-1.169c-0.158-0.326-0.352-0.587-0.578-0.783
		c-0.229-0.197-0.471-0.341-0.729-0.432c-0.258-0.091-0.484-0.137-0.68-0.137c-0.94,0-1.633,0.307-2.079,0.92
		c-0.447,0.613-0.671,1.435-0.671,2.464H26.745z M30.357,36.89h3.042v2.839h-3.042V36.89z"/>
</g>
</svg>
