<?xml version="1.0" encoding="utf-8"?>
<!-- Generator: Adobe Illustrator 16.0.0, SVG Export Plug-In . SVG Version: 6.00 Build 0)  -->
<!DOCTYPE svg PUBLIC "-//W3C//DTD SVG 1.1//EN" "http://www.w3.org/Graphics/SVG/1.1/DTD/svg11.dtd">
<svg version="1.1" id="Layer_1" xmlns="http://www.w3.org/2000/svg" xmlns:xlink="http://www.w3.org/1999/xlink" x="0px" y="0px"
	 width="64px" height="64px" viewBox="0 0 64 64" enable-background="new 0 0 64 64" xml:space="preserve">
<path fill="#65A6D1" d="M19.022,63.234c-4.038,0-7.922-1.6-10.742-4.494c-5.943-5.943-5.943-15.619,0-21.561l33.75-33.369
	c1.902-1.904,4.648-3.046,7.465-3.046c2.818,0,5.562,1.142,7.543,3.123c4.188,4.188,4.188,10.895,0,15.083l-33.75,33.367
	c-1.145,1.146-2.667,1.754-4.266,1.754c-1.6,0-3.123-0.607-4.34-1.754c-2.365-2.361-2.365-6.244,0-8.609l16.986-16.605
	c0.609-0.61,1.599-0.61,2.132,0c0.611,0.609,0.611,1.6,0,2.133L16.888,45.865c-1.142,1.141-1.142,3.121,0,4.266
	c0.61,0.607,1.372,0.916,2.134,0.916c0.838,0,1.599-0.309,2.133-0.916l33.75-33.37c2.971-2.97,2.971-7.771,0-10.739
	c-1.447-1.449-3.352-2.211-5.41-2.211s-3.961,0.762-5.412,2.211L10.415,39.389c-4.724,4.723-4.724,12.496,0,17.219
	c2.285,2.283,5.332,3.578,8.607,3.578s6.322-1.295,8.608-3.578l29.178-28.799c0.609-0.608,1.602-0.608,2.133,0
	c0.609,0.608,0.609,1.6,0,2.133L29.762,58.816C26.944,61.635,23.059,63.234,19.022,63.234"/>
</svg>
