<?xml version="1.0" encoding="UTF-8" standalone="no"?>
<svg width="80px" height="80px" viewBox="0 0 80 80" version="1.1" xmlns="http://www.w3.org/2000/svg" xmlns:xlink="http://www.w3.org/1999/xlink" xmlns:sketch="http://www.bohemiancoding.com/sketch/ns">
    <!-- Generator: Sketch 3.3.3 (12081) - http://www.bohemiancoding.com/sketch -->
    <title>icon-036</title>
    <desc>Created with Sketch.</desc>
    <defs></defs>
    <g id="Page-1" stroke="none" stroke-width="1" fill="none" fill-rule="evenodd" sketch:type="MSPage">
        <g id="icon-036" sketch:type="MSLayerGroup" fill="#65A6D1">
            <path d="M40.0340741,2.22222222 C60.4474074,2.22222222 77.0548148,18.8296296 77.0548148,39.242963 L77.0548148,40.0355556 C77.0548148,60.4481481 60.4474074,77.0555556 40.0340741,77.0555556 L39.2422222,77.0555556 C18.8288889,77.0555556 2.22222222,60.4481481 2.22222222,40.0355556 L2.22222222,39.242963 C2.22222222,18.8296296 18.8288889,2.22222222 39.2422222,2.22222222 L40.0340741,2.22222222 M40.0340741,0 L39.2422222,0 C17.5681481,0 0,17.5696296 0,39.242963 L0,40.0355556 C0,61.7081481 17.5681481,79.2777778 39.2422222,79.2777778 L40.0340741,79.2777778 C61.7074074,79.2777778 79.277037,61.7081481 79.277037,40.0355556 L79.277037,39.242963 C79.277037,17.5696296 61.7074074,0 40.0340741,0" id="Fill-42" sketch:type="MSShapeGroup"></path>
            <path d="M28.8896296,26.6666667 L28.8896296,31.8518519 L25.1851852,31.8518519 L25.1851852,33.3333333 L28.8896296,33.3333333 L28.8896296,37.037037 L25.1851852,37.037037 L25.1851852,38.5185185 L28.8896296,38.5185185 L28.8896296,42.2222222 L25.1851852,42.2222222 L25.1851852,43.7037037 L28.8896296,43.7037037 L28.8896296,47.4074074 L25.1851852,47.4074074 L25.1851852,48.8888889 L28.8896296,48.8888889 L28.8896296,53.3333333 L53.3340741,53.3333333 L53.3340741,26.6666667 L28.8896296,26.6666667 L28.8896296,26.6666667 Z M51.8518519,51.8518519 L30.3703704,51.8518519 L30.3703704,48.8888889 L33.3340741,48.8888889 L33.3340741,47.4074074 L30.3703704,47.4074074 L30.3703704,43.7037037 L33.3340741,43.7037037 L33.3340741,42.2222222 L30.3703704,42.2222222 L30.3703704,38.5185185 L33.3340741,38.5185185 L33.3340741,37.037037 L30.3703704,37.037037 L30.3703704,33.3333333 L33.3340741,33.3333333 L33.3340741,31.8518519 L30.3703704,31.8518519 L30.3703704,28.1481481 L41.4814815,28.1481481 L41.4814815,39.0592593 L44.0740741,36.8259259 L46.6674074,39.0592593 L46.6674074,28.1481481 L51.8518519,28.1481481 L51.8518519,51.8518519 L51.8518519,51.8518519 Z" id="Fill-43" sketch:type="MSShapeGroup"></path>
        </g>
    </g>
</svg>