<svg viewBox="0 0 95 83" version="1.1" xmlns="http://www.w3.org/2000/svg" xmlns:xlink="http://www.w3.org/1999/xlink"><title>interview</title><g fill="none" fill-rule="evenodd"><g id="interview" fill="#FFFFFF"><path d="M64.569,20.927 C64.276,18.963 63.403,17.218 61.877,15.763 C60.06,13.944 57.876,13 55.332,13 C52.788,13 50.604,13.944 48.787,15.764 C47.333,17.219 46.459,18.964 46.242,20.928 C46.168,21.364 46.096,21.8 46.096,22.237 C46.096,24.781 46.97,26.964 48.787,28.782 C50.604,30.601 52.788,31.546 55.332,31.546 C57.876,31.546 60.06,30.601 61.877,28.782 C63.04,27.617 63.841,26.309 64.276,24.855 C64.495,24.053 64.569,23.181 64.569,22.237 L64.569,20.927 L64.569,20.927 L64.569,20.927 Z"></path><path d="M89.439,35.835 L89.439,42.744 L65.296,26.308 L59.624,40.345 C59.259,38.235 58.679,35.836 57.951,33.144 L50.024,32.999 L56.204,50.453 L33.442,50.453 L33.442,54.743 L65.877,54.743 L65.877,50.453 L64.423,50.453 L62.751,50.453 L68.933,38.234 L70.168,38.962 L65.657,48.126 L76.422,53.799 L66.823,53.87 L66.823,82.089 L78.532,82.089 L78.532,76.125 L78.532,75.907 L78.532,60.852 L85.949,60.852 L85.949,76.851 L80.567,76.851 L80.567,82.088 L94.894,82.088 L94.894,76.851 L89.439,76.851 L89.439,60.852 L94.894,60.852 L94.894,30.38 L89.439,35.835 L89.439,35.835 Z"></path><path d="M66.969,50.234 L67.04,50.234 L66.823,50.162 L66.823,50.234 L66.969,50.234 L66.969,50.234 L66.969,50.234 Z"></path><path d="M63.187,82.088 L63.187,56.78 L35.77,56.78 L35.77,82.088 L63.187,82.088 L63.187,82.088 Z"></path><path d="M22.68,9.508 C22.68,6.89 21.734,4.637 19.914,2.818 C18.533,1.437 16.861,0.564 14.897,0.273 C14.388,0.201 13.879,0.127 13.297,0.127 C12.788,0.127 12.28,0.201 11.77,0.273 C9.807,0.564 8.135,1.437 6.68,2.818 C4.861,4.637 3.916,6.89 3.916,9.508 C3.916,12.054 4.861,14.308 6.68,16.127 C8.499,17.946 10.753,18.891 13.298,18.891 C15.917,18.891 18.098,17.946 19.915,16.127 C21.733,14.308 22.68,12.054 22.68,9.508 L22.68,9.508 L22.68,9.508 Z"></path><path d="M16.933,20.782 L9.952,20.782 C7.263,20.782 5.662,21.8 5.007,23.908 C4.935,24.2 4.861,24.563 4.788,24.927 L4.788,36.125 L0.788,32.127 L0.788,61.725 L5.079,61.725 L5.079,77.797 L2.607,77.797 L2.607,82.451 L12.425,82.451 L12.425,77.797 L9.807,77.797 L9.807,61.725 L23.479,61.725 L23.479,82.452 L32.351,82.452 L32.351,55.834 C32.061,53.869 31.189,52.634 29.662,52.197 C29.298,52.051 28.862,51.98 28.424,51.98 L22.17,51.98 L22.17,24.926 C21.806,22.163 20.061,20.782 16.933,20.782 L16.933,20.782 L16.933,20.782 Z"></path></g></g></svg>