<svg viewBox="0 0 74 88" version="1.1" xmlns="http://www.w3.org/2000/svg" xmlns:xlink="http://www.w3.org/1999/xlink"><g fill="none" fill-rule="evenodd"><g transform="translate(0.000000, -0.362160)" fill="#FFFFFF"><path d="M15.5126,48.3699 L15.5126,50.368 L47.1904,50.368 L47.1904,48.3699 L15.5126,48.3699 Z"></path><path d="M15.5129,56.1815 L15.5129,58.1796 L42.7453,58.1796 C43.4182,57.4603 44.1407,56.7918 44.9152,56.1815 L15.5129,56.1815 Z"></path><path d="M0.3508,0.55847 L0.3508,82.5585 L41.0891,82.5585 C40.6328,81.9165 40.204,81.2549 39.8273,80.5585 L2.3508,80.5585 L2.3508,2.55847 L60.3508,2.55847 L60.3508,52.3534 C61.0301,52.4777 61.698,52.6326 62.3508,52.8261 L62.3508,0.55847 L0.3508,0.55847 Z"></path><path d="M15.5129,63.9921 L15.5129,65.9901 L38.2863,65.9901 C38.4844,65.3088 38.7108,64.6403 38.9797,63.9921 L15.5129,63.9921 Z"></path><path d="M56.8639,54.5936 C52.411918,54.5937626 48.1423535,56.3625144 44.9945144,59.5107286 C41.8466753,62.6589428 40.0784321,66.928718 40.0788,71.3807 C40.0790833,80.6507536 47.5938464,88.1655615 56.8639,88.1659 C66.1339926,88.1656167 73.6488167,80.6507926 73.6491,71.3807 C73.6494679,66.9287007 71.881211,62.6589103 68.7333503,59.5106933 C65.5854895,56.3624762 61.3158993,54.593736 56.8639,54.5936 L56.8639,54.5936 Z M60.4889,64.1307 L64.1139,67.7557 L55.0515,76.8182 L49.6139,78.6307 L51.4265,73.1932 L60.4889,64.1307 L60.4889,64.1307 Z"></path><path d="M31.3508,17.09167 L20.0168,22.76159 L20.0168,23.37878 L20.0168,36.92175 L31.3508,42.5917 L42.6848,36.92175 L42.6848,22.76159 L31.3508,17.09167 L31.3508,17.09167 Z M31.3508,19.328 L40.6868,23.99792 L40.6868,35.68542 L31.3508,40.35534 L22.0149,35.68542 L22.0149,23.99792 L31.3508,19.328 L31.3508,19.328 Z M31.3508,22.26159 L27.7668,24.05456 L27.7668,27.87487 L31.3508,29.66784 L31.7981,29.44323 L34.9348,27.87487 L34.9348,24.05456 L31.3508,22.26159 L31.3508,22.26159 Z M31.3508,24.49792 L32.9348,25.29089 L32.9348,26.63854 L31.3508,27.43151 L29.7668,26.63854 L29.7668,25.29089 L31.3508,24.49792 L31.3508,24.49792 Z M25.1828,29.84167 L25.1828,34.33776 L31.3508,37.42175 L37.5188,34.33776 L37.5188,29.84167 L35.5188,29.84167 L35.5188,33.10143 L31.3508,35.18542 L27.1828,33.10143 L27.1828,29.84167 L25.1828,29.84167 L25.1828,29.84167 Z"></path></g></g></svg>