<svg viewBox="0 0 89 90" version="1.1" xmlns="http://www.w3.org/2000/svg" xmlns:xlink="http://www.w3.org/1999/xlink"><title>skillbuilding2</title><g fill="none" fill-rule="evenodd"><g id="skillbuilding2" fill="#FFFFFF"><g><g><path d="M41.9,50.7 C44.9,48.1 47.2,44.8 48.7,41 C48.8,40.8 48.9,40.6 49,40.4 C51.1,35.6 53,24.4 49.8,17.2 C45.9,8.3 34.6,4 30.8,3.3 C30.3,3.2 29.7,3 29.7,3 L30,0.4 L28.3,2.5 L24.9,0.4 L26.2,2.8 C26.2,2.8 9.7,3.1 3,15.2 C-1.7,23.7 0.5,37 3.3,41.6 C4.8,45.4 7.3,48.7 10.4,51.2 C8.9,52.5 7.6,54 6.5,55.7 C3.4,60.7 1.9,67.6 1.9,77.5 C1.9,79 3.4,79.4 5.5,80 C5.9,80.1 6.6,80.3 7,80.5 C7.8,89.7 15.9,89.7 23,89.7 L26.2,89.7 C36,89.7 44.5,89.7 45.5,80.5 C45.9,80.4 46.5,80.2 46.9,80.1 C49,79.5 50.5,79.1 50.5,77.6 C50.5,66.6 49.2,56.3 41.9,50.7 L41.9,50.7 Z M4.6,34.1 C5.6,33 6.9,31.7 7.6,30.6 C8.4,29.4 9.1,27.5 9.6,26.1 C13.1,29.3 18.9,33.7 24.6,34.6 C33.6,36 40.6,35.2 40.6,35.2 L37.6,33.1 C37.6,33.1 44.4,35.3 45.5,35.3 C46.1,35.3 46.7,35.2 47.1,35.1 C45.7,45.6 36.7,53.6 25.9,53.6 C14.7,53.7 5.5,45 4.6,34.1 L4.6,34.1 Z M34.2,55.3 L35.9,57.2 L34,58.7 C33.6,59 33.5,59.6 33.8,60 L34.9,61.9 L29.3,69.1 C30.2,66.6 31,64 31.3,62.7 C31.8,59.9 32.2,57.1 32.3,55.9 C32.7,55.8 33.2,55.6 33.6,55.5 L34.2,55.3 L34.2,55.3 Z M17.8,58.7 L15.9,57.2 L17.6,55.3 L18.5,55.5 C18.8,55.6 19.1,55.7 19.5,55.8 C19.6,57.1 20,59.9 20.5,62.7 C20.8,64 21.6,66.6 22.5,69.1 L16.9,61.9 L18,60 C18.3,59.5 18.2,59 17.8,58.7 L17.8,58.7 Z M21.9,58.8 L23.2,57.8 L23.2,57.9 L23.7,58.9 C24.6,60.5 24.5,60 24.1,61.7 L23.2,65.3 C22.8,64.1 22.5,63.1 22.4,62.4 C22.3,61.1 22.1,59.9 21.9,58.8 L21.9,58.8 Z M21.8,57.7 C21.7,57.2 21.7,56.7 21.6,56.3 C22.1,56.4 22.7,56.5 23.2,56.5 L21.8,57.7 L21.8,57.7 Z M28,58.8 L28.5,57.8 L28.5,57.7 L29.8,58.7 C29.6,59.8 29.4,61 29.2,62.2 C29.1,62.9 28.8,63.9 28.4,65.1 L27.5,61.5 C27.2,59.9 27.1,60.5 28,58.8 L28,58.8 Z M28.6,56.5 C29.1,56.4 29.7,56.4 30.2,56.3 C30.2,56.7 30.1,57.1 30,57.7 L28.6,56.5 L28.6,56.5 Z M9.9,79.2 L9.9,79.2 C9.9,79.2 9.7,76.4 9.9,73 C10.1,69.6 10.3,64.2 10.3,64.2 L7.9,77.6 C7.5,77.4 7,77.3 6.4,77.1 C6,77 5.4,76.8 4.9,76.7 C5,64.7 7.5,57.1 13,53 C13.9,53.6 14.8,54.1 15.7,54.5 L13.7,56.7 C13.5,56.9 13.4,57.2 13.4,57.5 C13.4,57.8 13.6,58 13.8,58.2 L15.8,59.8 L14.8,61.6 C14.6,62 14.6,62.4 14.9,62.7 L24.7,75.4 L24.7,79.6 L10,79.6 C10,79.4 9.9,79.3 9.9,79.2 L9.9,79.2 Z M26.2,86.6 L23,86.6 C15.4,86.6 11.5,86.1 10.3,81.9 L42.1,81.9 C40.7,86.3 35.5,86.6 26.2,86.6 L26.2,86.6 Z M46.1,77.1 C45.6,77.2 45.1,77.4 44.7,77.5 L42.3,64.1 C42.3,64.1 42.5,69.5 42.7,72.9 C42.9,76.3 42.7,79.2 42.7,79.2 L42.7,79.2 C42.7,79.3 42.6,79.4 42.6,79.5 L27.1,79.5 L27.1,75.3 L36.9,62.6 C37.1,62.3 37.2,61.8 37,61.5 L36,59.7 L38,58.1 C38.2,57.9 38.4,57.7 38.4,57.4 C38.4,57.1 38.3,56.9 38.1,56.6 L36.1,54.4 C37.3,53.9 38.4,53.2 39.4,52.5 C45.7,56.9 47.4,65.3 47.4,76.5 C47.1,76.8 46.5,77 46.1,77.1 L46.1,77.1 Z"></path><path d="M20.5,45.9 C21.7,45.9 22.7,44.9 22.7,43.7 L22.7,41.1 C22.7,39.9 21.7,38.9 20.5,38.9 C19.3,38.9 18.3,39.9 18.3,41.1 L18.3,43.7 C18.3,44.9 19.3,45.9 20.5,45.9 L20.5,45.9 Z"></path><path d="M31.4,45.9 C32.6,45.9 33.6,44.9 33.6,43.7 L33.6,41.1 C33.6,39.9 32.6,38.9 31.4,38.9 C30.2,38.9 29.2,39.9 29.2,41.1 L29.2,43.7 C29.2,44.9 30.2,45.9 31.4,45.9 L31.4,45.9 Z"></path><path d="M21.6,48.7 C21.4,49.2 21.6,49.8 22,50 C22.1,50 23.6,50.8 25.8,50.8 C28.2,50.8 29.7,50.1 29.7,50 C30.2,49.7 30.4,49.2 30.1,48.7 C29.8,48.2 29.3,48 28.8,48.3 C28.8,48.3 27.7,48.9 25.8,48.9 C24.1,48.9 23,48.4 22.9,48.3 C22.5,48 21.9,48.2 21.6,48.7 L21.6,48.7 Z"></path></g><path d="M75.8,36.9 L75.6,36.9 L63.2,36.9 L62.3,36.9 L62.3,47.4 L63.2,47.4 L75.4,47.4 C77.3,47.4 77.6,47.5 77.6,48.9 C77.6,50.4 77.3,50.4 75.7,50.4 L62.3,50.4 L62.3,60.9 L63.2,60.9 L75.2,60.9 L75.7,60.9 C79.4,60.9 88.1,60.8 88.1,48.9 C88.1,37.1 79.5,37 75.8,36.9 L75.8,36.9 Z M75.7,59 L75.3,59 L70.2,59 L70.2,52.2 L75.6,52.2 L75.9,52.2 C77.4,52.2 79.6,52.2 79.6,48.9 C79.6,45.6 77.1,45.6 75.6,45.6 L70.3,45.6 L70.3,38.8 L75.8,38.8 L76,38.8 C79.7,38.8 86.6,38.9 86.6,48.9 C86.3,58.9 79.4,59 75.7,59 L75.7,59 Z"></path><path d="M55.9,51 L55.2,48 L60.4,47 L52,45.2 L52.7,48.2 L47.3,49.5 L55.9,51 Z"></path></g></g></g></svg>