<?xml version="1.0" encoding="utf-8"?>
<!-- Generator: Adobe Illustrator 16.0.0, SVG Export Plug-In . SVG Version: 6.00 Build 0)  -->
<!DOCTYPE svg PUBLIC "-//W3C//DTD SVG 1.1//EN" "http://www.w3.org/Graphics/SVG/1.1/DTD/svg11.dtd">
<svg version="1.1" id="Layer_1" xmlns="http://www.w3.org/2000/svg" xmlns:xlink="http://www.w3.org/1999/xlink" x="0px" y="0px"
	 width="41.6px" height="41.6px" viewBox="0 0 41.6 41.6" style="enable-background:new 0 0 41.6 41.6;" xml:space="preserve">
<style type="text/css">
<![CDATA[
	.st0{opacity:0.4;}
	.st1{clip-path:url(#SVGID_2_);fill:#FFFFFF;}
]]>
</style>
<g class="st0">
	<g>
		<defs>
			<rect id="SVGID_1_" width="41.6" height="41.6"/>
		</defs>
		<clipPath id="SVGID_2_">
			<use xlink:href="#SVGID_1_"  style="overflow:visible;"/>
		</clipPath>
		<path class="st1" d="M29,5C22.4-1.7,11.6-1.7,5,5c-6.6,6.6-6.6,17.4,0,24c6.4,6.4,16.6,6.6,23.3,0.7l2.4,2.4
			c-0.2,0.7,0,1.4,0.5,1.9l7.1,7.1c0.8,0.8,2,0.8,2.8,0s0.8-2,0-2.8L34,31.1c-0.5-0.5-1.3-0.7-1.9-0.5l-2.4-2.4
			C35.6,21.6,35.4,11.4,29,5 M6.4,27.6c-5.8-5.8-5.8-15.4,0-21.2c5.8-5.8,15.4-5.8,21.2,0c5.8,5.8,5.8,15.4,0,21.2
			C21.8,33.4,12.2,33.4,6.4,27.6"/>
	</g>
</g>
</svg>
