<?xml version="1.0" encoding="utf-8"?>
<!-- Generator: Adobe Illustrator 16.0.0, SVG Export Plug-In . SVG Version: 6.00 Build 0)  -->
<!DOCTYPE svg PUBLIC "-//W3C//DTD SVG 1.1//EN" "http://www.w3.org/Graphics/SVG/1.1/DTD/svg11.dtd">
<svg version="1.1" id="Layer_1" xmlns="http://www.w3.org/2000/svg" xmlns:xlink="http://www.w3.org/1999/xlink" x="0px" y="0px"
	 width="50px" height="50px" viewBox="0 0 50 50" style="enable-background:new 0 0 50 50;" xml:space="preserve">
<style type="text/css">
<![CDATA[
	.st0{fill:#2C3334;}
	.st1{opacity:0.4;}
	.st2{fill:none;}
	.st3{clip-path:url(#SVGID_2_);fill:#FFFFFF;}
]]>
</style>
<line class="st0" x1="100" y1="77.5" x2="100" y2="-1047.5"/>
<line class="st2" x1="100" y1="-1256.5" x2="100" y2="77.5"/>
<line class="st2" x1="100" y1="-1256.5" x2="100" y2="77.5"/>
<g class="st1">
	<g>
		<defs>
			<rect id="SVGID_1_" width="50" height="50"/>
		</defs>
		<clipPath id="SVGID_2_">
			<use xlink:href="#SVGID_1_"  style="overflow:visible;"/>
		</clipPath>
		<path class="st3" d="M25,50c-1,0-2.1-0.1-3.1-0.2c-1.4-0.2-2.4-1.4-2.4-2.8v-3c0-0.3-0.1-0.5-0.4-0.5c-1-0.3-2-0.7-2.9-1.2
			c-0.2-0.1-0.5-0.1-0.6,0.1l-2.1,2.1c-0.5,0.5-1.2,0.8-2,0.8c-0.6,0-1.2-0.2-1.7-0.6C8,43.5,6.5,42,5.3,40.3
			c-0.9-1.1-0.8-2.7,0.2-3.7l2.1-2.1c0.2-0.2,0.2-0.4,0.1-0.6c-0.5-0.9-0.9-1.9-1.2-3c-0.1-0.2-0.3-0.4-0.5-0.4H3
			c-1.4,0-2.6-1-2.8-2.4c-0.3-2.1-0.3-4.2,0-6.2c0.2-1.4,1.4-2.4,2.8-2.4h3c0.3,0,0.5-0.1,0.5-0.4c0.3-1,0.7-2,1.2-3
			c0.1-0.2,0.1-0.5-0.1-0.6l-2.1-2.1c-1-1-1.1-2.6-0.2-3.7C6.5,8,8,6.5,9.7,5.3c0.5-0.4,1.1-0.6,1.7-0.6c0.7,0,1.4,0.3,2,0.8
			l2.1,2.1c0.2,0.2,0.4,0.2,0.6,0.1C17,7.2,18,6.8,19.1,6.5c0.2-0.1,0.4-0.3,0.4-0.5V3c0-1.4,1-2.6,2.4-2.8c2.1-0.3,4.2-0.3,6.2,0
			c1.4,0.2,2.4,1.4,2.4,2.8v3c0,0.3,0.1,0.5,0.4,0.5c1,0.3,2,0.7,2.9,1.2c0.2,0.1,0.5,0.1,0.6-0.1l2.1-2.1c0.5-0.5,1.2-0.8,2-0.8
			c0.6,0,1.2,0.2,1.7,0.6C42,6.5,43.5,8,44.7,9.7c0.9,1.1,0.8,2.7-0.2,3.7l-2.1,2.1c-0.2,0.2-0.2,0.4-0.1,0.6c0.5,0.9,0.9,1.9,1.2,3
			c0.1,0.2,0.3,0.4,0.5,0.4h3c1.4,0,2.6,1,2.8,2.4c0.3,2.1,0.3,4.2,0,6.2c-0.2,1.4-1.4,2.4-2.8,2.4h-3c-0.3,0-0.5,0.1-0.5,0.4
			c-0.3,1-0.7,2-1.2,2.9c-0.1,0.2-0.1,0.5,0.1,0.6l2.1,2.1c1,1,1.1,2.6,0.2,3.7c-1.3,1.6-2.8,3.1-4.4,4.4c-0.5,0.4-1.1,0.6-1.7,0.6
			c-0.7,0-1.4-0.3-2-0.8l-2.1-2.1c-0.2-0.2-0.4-0.2-0.6-0.1c-0.9,0.5-1.9,0.9-3,1.2c-0.2,0.1-0.4,0.3-0.4,0.5v3c0,1.4-1,2.6-2.4,2.8
			C27.1,49.9,26,50,25,50 M15.8,40c0.4,0,0.9,0.1,1.3,0.3c0.8,0.4,1.7,0.8,2.6,1.1c1.2,0.4,1.9,1.4,1.9,2.6v3c0,0.3,0.2,0.5,0.5,0.6
			c1.9,0.2,3.8,0.2,5.7,0c0.3,0,0.5-0.3,0.5-0.6v-3c0-1.2,0.8-2.3,1.9-2.6c0.9-0.3,1.8-0.7,2.6-1.1c1.1-0.5,2.4-0.3,3.2,0.5l2.1,2.1
			c0.1,0.1,0.2,0.2,0.4,0.2c0.1,0,0.2,0,0.3-0.1c1.5-1.2,2.9-2.5,4-4c0.2-0.2,0.2-0.5,0-0.7l-2.1-2.1c-0.9-0.9-1.1-2.2-0.5-3.2
			c0.4-0.8,0.8-1.7,1.1-2.6c0.4-1.2,1.4-1.9,2.6-1.9h3c0.3,0,0.5-0.2,0.6-0.5c0.2-1.9,0.2-3.8,0-5.7c0-0.3-0.3-0.5-0.6-0.5h-3
			c-1.2,0-2.3-0.8-2.6-1.9c-0.3-0.9-0.7-1.8-1.1-2.6c-0.6-1.1-0.4-2.4,0.5-3.2l2.1-2.1c0.2-0.2,0.2-0.5,0-0.7c-1.2-1.5-2.5-2.9-4-4
			c-0.1-0.1-0.3-0.1-0.3-0.1c-0.1,0-0.3,0.1-0.4,0.2l-2.1,2.1c-0.8,0.8-2.2,1.1-3.2,0.5c-0.8-0.4-1.7-0.8-2.6-1.1
			c-1.2-0.4-1.9-1.4-1.9-2.6V3c0-0.3-0.2-0.5-0.5-0.6c-1.9-0.2-3.8-0.2-5.7,0c-0.3,0-0.5,0.3-0.5,0.6v3c0,1.2-0.8,2.3-1.9,2.6
			c-0.9,0.3-1.8,0.7-2.6,1.1c-1.1,0.5-2.4,0.3-3.2-0.5l-2.1-2.1c-0.1-0.1-0.2-0.2-0.4-0.2c-0.1,0-0.2,0-0.3,0.1
			c-1.5,1.2-2.9,2.5-4,4c-0.2,0.2-0.2,0.5,0,0.7l2.1,2.1c0.9,0.9,1.1,2.2,0.5,3.2c-0.4,0.8-0.8,1.7-1.1,2.6
			c-0.4,1.2-1.4,1.9-2.6,1.9H3c-0.3,0-0.5,0.2-0.6,0.5c-0.2,1.9-0.2,3.8,0,5.7c0,0.3,0.3,0.5,0.6,0.5h3c1.2,0,2.3,0.8,2.6,1.9
			c0.3,0.9,0.6,1.8,1.1,2.6c0.6,1.1,0.4,2.4-0.5,3.2l-2.1,2.1c-0.2,0.2-0.2,0.5,0,0.7c1.2,1.5,2.5,2.9,4,4c0.1,0.1,0.3,0.1,0.3,0.1
			c0.1,0,0.3-0.1,0.4-0.2l2.1-2.1C14.4,40.3,15.1,40,15.8,40 M25,34.4c-2.5,0-4.9-1-6.7-2.8c-1.8-1.8-2.8-4.2-2.8-6.7
			c0-2.5,1-4.9,2.8-6.7c1.8-1.8,4.2-2.8,6.7-2.8c2.5,0,4.9,1,6.7,2.8c1.8,1.8,2.8,4.2,2.8,6.7c0,2.5-1,4.9-2.8,6.7
			C29.9,33.5,27.5,34.4,25,34.4 M25,17.8c-1.9,0-3.7,0.8-5.1,2.1c-1.4,1.4-2.1,3.2-2.1,5.1c0,1.9,0.8,3.7,2.1,5.1
			c1.4,1.4,3.2,2.1,5.1,2.1s3.7-0.8,5.1-2.1c1.4-1.4,2.1-3.2,2.1-5.1c0-1.9-0.8-3.7-2.1-5.1C28.7,18.5,26.9,17.8,25,17.8"/>
	</g>
</g>
<line class="st2" x1="100" y1="-1256.5" x2="100" y2="77.5"/>
<line class="st2" x1="100" y1="-1256.5" x2="100" y2="77.5"/>
</svg>
