<svg viewBox="0 0 90 60" version="1.1" xmlns="http://www.w3.org/2000/svg" xmlns:xlink="http://www.w3.org/1999/xlink"><g fill="none" fill-rule="evenodd"><g fill="#FFFFFF"><path d="M0,42.771 L6.154,45.419 L6.409,45.419 C6.583,46.575 7.569,47.466 8.775,47.466 L14.249,47.466 C15.748,45.052 18.415,43.441 21.467,43.441 C24.519,43.441 27.186,45.052 28.686,47.466 L60.37,47.466 C61.869,45.052 64.536,43.441 67.588,43.441 C70.64,43.441 73.308,45.052 74.807,47.466 L81.003,47.466 C82.208,47.466 83.194,46.575 83.367,45.419 L83.621,45.419 L89.553,42.771 L0,42.771 L0,42.771 Z"></path><path d="M90,11.187 L72.137,11.187 L70.811,10.082 L90,10.082 L90,11.187 Z"></path><path d="M90,22.407 L81.544,22.407 L80.881,21.301 L90,21.301 L90,22.407 Z"></path><path d="M90,34.233 L85.938,34.233 L85.717,33.128 L90,33.128 L90,34.233 Z"></path><path d="M41.035,0.417 L43,3.504 L43,4.505 C23,5.331 7.001,22.409 7.001,42.409 L82.772,42.409 C82.773,22.409 67,5.331 46,4.505 L46,3.504 L47.813,0.417 L41.035,0.417 Z M20.563,34.409 L16.098,34.409 C19.579,19.409 34.359,11.989 34.359,11.989 C22.511,25.41 20.563,34.409 20.563,34.409 L20.563,34.409 Z"></path><path d="M22.154,52.616 C22.201,52.614 22.25,52.626 22.296,52.641 C22.478,52.709 22.569,52.909 22.501,53.09 C22.435,53.272 22.235,53.363 22.052,53.297 C21.897,53.238 21.801,53.08 21.826,52.916 L21.846,52.848 C21.897,52.712 22.02,52.622 22.154,52.616 L22.154,52.616 Z M22.305,51.497 C22.373,51.411 22.472,51.364 22.575,51.362 C22.653,51.36 22.735,51.385 22.803,51.44 C22.954,51.559 22.979,51.782 22.859,51.936 C22.755,52.065 22.569,52.104 22.421,52.028 L22.363,51.993 C22.211,51.872 22.185,51.649 22.305,51.497 L22.305,51.497 Z M21.319,50.646 C21.381,50.607 21.449,50.583 21.516,50.583 C21.629,50.583 21.743,50.644 21.81,50.743 C21.903,50.884 21.88,51.069 21.763,51.186 L21.712,51.229 C21.55,51.334 21.329,51.292 21.222,51.129 C21.114,50.968 21.158,50.753 21.319,50.646 L21.319,50.646 Z M21.206,52.983 C21.199,53.176 21.035,53.325 20.841,53.319 C20.647,53.309 20.497,53.145 20.506,52.952 C20.513,52.786 20.634,52.649 20.8,52.62 L20.872,52.616 C21.065,52.624 21.216,52.79 21.206,52.983 L21.206,52.983 Z M20.113,51.806 C20.061,51.62 20.168,51.427 20.355,51.374 C20.385,51.364 20.413,51.362 20.444,51.362 C20.574,51.36 20.701,51.432 20.762,51.553 L20.788,51.614 C20.84,51.802 20.726,51.997 20.54,52.05 C20.355,52.101 20.165,51.993 20.113,51.806 L20.113,51.806 Z M21.516,44.144 C17.144,44.144 13.599,47.689 13.599,52.06 C13.599,56.433 17.144,59.978 21.516,59.978 C25.889,59.978 29.433,56.433 29.433,52.06 C29.433,47.688 25.889,44.144 21.516,44.144 L21.516,44.144 Z M21.516,56.655 C18.979,56.655 16.922,54.596 16.922,52.059 C16.922,49.522 18.979,47.465 21.516,47.465 C24.053,47.465 26.111,49.522 26.111,52.059 C26.111,54.596 24.053,56.655 21.516,56.655 L21.516,56.655 Z M21.516,55.978 C19.357,55.978 17.6,54.22 17.6,52.06 C17.6,49.902 19.357,48.144 21.516,48.144 C23.675,48.144 25.432,49.902 25.432,52.06 C25.432,54.22 23.675,55.978 21.516,55.978 L21.516,55.978 Z M21.516,49.36 C20.027,49.36 18.816,50.571 18.816,52.059 C18.816,53.549 20.027,54.76 21.516,54.76 C23.004,54.76 24.216,53.549 24.216,52.059 C24.216,50.571 23.004,49.36 21.516,49.36 L21.516,49.36 Z"></path><path d="M68.202,52.616 C68.249,52.614 68.299,52.626 68.344,52.641 C68.526,52.709 68.617,52.909 68.549,53.09 C68.484,53.272 68.283,53.363 68.101,53.297 C67.945,53.238 67.849,53.08 67.874,52.916 L67.894,52.848 C67.945,52.712 68.067,52.622 68.202,52.616 L68.202,52.616 Z M68.353,51.497 C68.422,51.411 68.52,51.364 68.623,51.362 C68.701,51.36 68.783,51.385 68.851,51.44 C69.002,51.559 69.027,51.782 68.907,51.936 C68.803,52.065 68.617,52.104 68.469,52.028 L68.411,51.993 C68.259,51.872 68.232,51.649 68.353,51.497 L68.353,51.497 Z M67.367,50.646 C67.429,50.607 67.497,50.583 67.564,50.583 C67.677,50.583 67.791,50.644 67.858,50.743 C67.951,50.884 67.928,51.069 67.811,51.186 L67.76,51.229 C67.598,51.334 67.377,51.292 67.27,51.129 C67.162,50.968 67.206,50.753 67.367,50.646 L67.367,50.646 Z M67.254,52.983 C67.247,53.176 67.083,53.325 66.889,53.319 C66.695,53.309 66.545,53.145 66.554,52.952 C66.561,52.786 66.682,52.649 66.848,52.62 L66.92,52.616 C67.113,52.624 67.264,52.79 67.254,52.983 L67.254,52.983 Z M66.161,51.806 C66.109,51.62 66.216,51.427 66.403,51.374 C66.433,51.364 66.461,51.362 66.492,51.362 C66.622,51.36 66.749,51.432 66.81,51.553 L66.836,51.614 C66.888,51.802 66.774,51.997 66.588,52.05 C66.403,52.101 66.213,51.993 66.161,51.806 L66.161,51.806 Z M67.563,44.144 C63.191,44.144 59.646,47.689 59.646,52.06 C59.646,56.433 63.191,59.978 67.563,59.978 C71.936,59.978 75.48,56.433 75.48,52.06 C75.48,47.688 71.937,44.144 67.563,44.144 L67.563,44.144 Z M67.563,56.655 C65.026,56.655 62.969,54.596 62.969,52.059 C62.969,49.522 65.026,47.465 67.563,47.465 C70.1,47.465 72.158,49.522 72.158,52.059 C72.158,54.596 70.101,56.655 67.563,56.655 L67.563,56.655 Z M67.612,55.978 C65.453,55.978 63.696,54.22 63.696,52.06 C63.696,49.902 65.453,48.144 67.612,48.144 C69.771,48.144 71.528,49.902 71.528,52.06 C71.528,54.22 69.771,55.978 67.612,55.978 L67.612,55.978 Z M67.612,49.36 C66.123,49.36 64.912,50.571 64.912,52.059 C64.912,53.549 66.123,54.76 67.612,54.76 C69.101,54.76 70.312,53.549 70.312,52.059 C70.313,50.571 69.102,49.36 67.612,49.36 L67.612,49.36 Z"></path></g></g></svg>