<svg xmlns="http://www.w3.org/2000/svg" xmlns:xlink="http://www.w3.org/1999/xlink" version="1.1" x="0px" y="0px" viewBox="0 0 100 100" enable-background="new 0 0 100 100" xml:space="preserve"><path d="M64.4,43.9l7.4-14.1l-2.7-1.4L62.5,41l-7.4,0.3c2.6-0.9,4.4-3.4,4.4-6.3c0-3.7-3-6.7-6.8-6.7s-6.8,3-6.8,6.7  c0,1.5,0.5,2.9,1.3,4l-3.9-2.3l-1.7-13.9l-3,0.4l1.9,15.4l7.9,4.6l-3.7,13.6l1,1.1l-5,7.6L31.3,58l-3.1,4l2.4,1.8l1.2-1.6l9.8,7.6  l6.4-9.7l4.7,5.1l-0.4,12.1h5.4v-3h-2.3L55.8,64l-7.5-8.2l3.1-11.4L64.4,43.9z M52.8,31.2c2.1,0,3.8,1.7,3.8,3.7s-1.7,3.8-3.8,3.8  s-3.8-1.7-3.8-3.8S50.8,31.2,52.8,31.2z"></path></svg>