<svg xmlns="http://www.w3.org/2000/svg" xmlns:xlink="http://www.w3.org/1999/xlink" version="1.1" x="0px" y="0px" viewBox="0 0 841.9 841.9" enable-background="new 0 0 841.9 841.9" xml:space="preserve"><g><rect x="271.5" y="615.7" width="226.2" height="226.2"></rect><rect x="1" y="727.2" width="226.2" height="114.7"></rect><circle cx="650.6" cy="47.5" r="48.1"></circle><path d="M716.1,162.2V157c0,0,0-0.1,0-0.1l120-119.9c7.5-7.5,7.5-19.7,0-27.2h0c-7.5-7.5-19.7-7.5-27.2,0l-93.2,88.6   c-9.5,9-22.1,14.1-35.3,14.1h-48.9c-14.9,0-29.3-5.7-40.1-16L500.3,9.8c-7.5-7.5-19.7-7.5-27.2,0h0c-7.5,7.5-7.5,19.7,0,27.2   l120,120c0,0,0,0,0,0.1v5.1V501h-49.5v114.7v226.2h226.2V615.7V501h-53.8V219.9V162.2z M648.5,501V328.1c0-0.1,0-0.1,0.1-0.1h12.1   c0.1,0,0.1,0,0.1,0.1V501H648.5z"></path></g></svg>