<svg xmlns="http://www.w3.org/2000/svg" xmlns:xlink="http://www.w3.org/1999/xlink" version="1.1" x="0px" y="0px" viewBox="0 0 100 100" enable-background="new 0 0 100 100" xml:space="preserve"><path d="M50,4.437C24.836,4.437,4.437,24.836,4.437,50S24.836,95.563,50,95.563S95.564,75.164,95.564,50S75.164,4.437,50,4.437z   M63.854,47.774c-5.618,9.734-11.241,19.465-16.863,29.196c-0.021,0.037-0.046,0.073-0.066,0.111  c-0.382,0.716-0.832,1.402-1.784,1.056c-0.994-0.361-0.761-1.238-0.629-1.984c0.435-2.448,0.908-4.889,1.369-7.332  c0.812-4.297,1.628-8.593,2.435-12.89c0.069-0.366,0.089-0.741,0.149-1.267c-0.531-0.025-0.979-0.066-1.425-0.064  c-3.177,0.01-6.355,0.036-9.532,0.043c-1.869,0.004-2.309-0.774-1.361-2.416c5.618-9.734,11.241-19.465,16.863-29.196  c0.021-0.037,0.046-0.073,0.066-0.111c0.382-0.716,0.832-1.402,1.784-1.056c0.994,0.361,0.761,1.238,0.629,1.984  c-0.435,2.448-0.908,4.889-1.369,7.332c-0.812,4.297-1.628,8.593-2.435,12.89c-0.069,0.366-0.089,0.741-0.149,1.267  c0.531,0.025,0.979,0.066,1.425,0.064c3.177-0.01,6.355-0.036,9.532-0.043C64.362,45.355,64.801,46.132,63.854,47.774z"></path></svg>