<svg xmlns="http://www.w3.org/2000/svg" xmlns:xlink="http://www.w3.org/1999/xlink" xmlns:sketch="http://www.bohemiancoding.com/sketch/ns" viewBox="0 0 95 95" version="1.1" x="0px" y="0px"><title>Graph</title><desc>Created with Sketch.</desc><g stroke="none" stroke-width="1" fill="none" fill-rule="evenodd" sketch:type="MSPage"><g sketch:type="MSArtboardGroup" fill="#000000"><g sketch:type="MSLayerGroup" transform="translate(18.555198, 13.040592)"><path d="M0.123887381,1.9226205 L0.123887381,63.2487109 L0.123887381,64.4022832 L2.43103198,64.4022832 L2.43103198,63.2487109 L2.43103198,1.9226205 L2.43103198,0.7690482 L0.123887381,0.7690482 L0.123887381,1.9226205 L0.123887381,1.9226205 Z" sketch:type="MSShapeGroup"/><path d="M54.9869441,62.0951386 L1.27745968,62.0951386 L0.123887381,62.0951386 L0.123887381,64.4022832 L1.27745968,64.4022832 L54.9869441,64.4022832 L56.1405164,64.4022832 L56.1405164,62.0951386 L54.9869441,62.0951386 L54.9869441,62.0951386 Z" sketch:type="MSShapeGroup"/><path d="M3.6380573,63.3370325 L21.3261659,37.9584419 L21.9857701,37.0120533 L20.0929929,35.6928449 L19.4333887,36.6392335 L1.7452801,62.0178241 L1.08567592,62.9642127 L2.97845313,64.2834211 L3.6380573,63.3370325 L3.6380573,63.3370325 Z" sketch:type="MSShapeGroup"/><path d="M22.3023978,38.8369341 C24.6384326,38.8369341 26.5321629,36.9432038 26.5321629,34.607169 C26.5321629,32.2711343 24.6384326,30.3774039 22.3023978,30.3774039 C19.966363,30.3774039 18.0726327,32.2711343 18.0726327,34.607169 C18.0726327,36.9432038 19.966363,38.8369341 22.3023978,38.8369341 L22.3023978,38.8369341 Z M22.3023978,36.5297895 C21.2405638,36.5297895 20.3797773,35.669003 20.3797773,34.607169 C20.3797773,33.545335 21.2405638,32.6845485 22.3023978,32.6845485 C23.3642318,32.6845485 24.2250183,33.545335 24.2250183,34.607169 C24.2250183,35.669003 23.3642318,36.5297895 22.3023978,36.5297895 L22.3023978,36.5297895 Z" sketch:type="MSShapeGroup"/><path d="M25.4818955,33.7298963 L37.0176185,28.3465589 L38.0629662,27.8587299 L37.0873083,25.7680344 L36.0419606,26.2558633 L24.5062375,31.6392007 L23.4608898,32.1270297 L24.4365477,34.2177252 L25.4818955,33.7298963 L25.4818955,33.7298963 Z" sketch:type="MSShapeGroup"/><path d="M39.9905064,30.3774039 C42.3265412,30.3774039 44.2202715,28.4836736 44.2202715,26.1476388 C44.2202715,23.811604 42.3265412,21.9178737 39.9905064,21.9178737 C37.6544717,21.9178737 35.7607413,23.811604 35.7607413,26.1476388 C35.7607413,28.4836736 37.6544717,30.3774039 39.9905064,30.3774039 L39.9905064,30.3774039 Z M39.9905064,28.0702593 C38.9286724,28.0702593 38.0678859,27.2094728 38.0678859,26.1476388 C38.0678859,25.0858048 38.9286724,24.2250183 39.9905064,24.2250183 C41.0523404,24.2250183 41.9131269,25.0858048 41.9131269,26.1476388 C41.9131269,27.2094728 41.0523404,28.0702593 39.9905064,28.0702593 L39.9905064,28.0702593 Z" sketch:type="MSShapeGroup"/><path d="M44.5003679,24.3201032 L50.6527535,10.8617596 L51.1323624,9.81261508 L49.0340733,8.8533972 L48.5544644,9.90254176 L42.4020788,23.3608853 L41.9224698,24.4100298 L44.0207589,25.3692477 L44.5003679,24.3201032 L44.5003679,24.3201032 Z" sketch:type="MSShapeGroup"/><path d="M51.5262294,10.7666748 C53.8622642,10.7666748 55.7559945,8.87294446 55.7559945,6.5369097 C55.7559945,4.20087494 53.8622642,2.3071446 51.5262294,2.3071446 C49.1901947,2.3071446 47.2964643,4.20087494 47.2964643,6.5369097 C47.2964643,8.87294446 49.1901947,10.7666748 51.5262294,10.7666748 L51.5262294,10.7666748 Z M51.5262294,8.4595302 C50.4643954,8.4595302 49.6036089,7.59874368 49.6036089,6.5369097 C49.6036089,5.47507572 50.4643954,4.6142892 51.5262294,4.6142892 C52.5880634,4.6142892 53.4488499,5.47507572 53.4488499,6.5369097 C53.4488499,7.59874368 52.5880634,8.4595302 51.5262294,8.4595302 L51.5262294,8.4595302 Z" sketch:type="MSShapeGroup"/></g></g></g></svg>