<svg width="69px" height="45px" viewBox="0 0 69 45" version="1.1" xmlns="http://www.w3.org/2000/svg" xmlns:xlink="http://www.w3.org/1999/xlink">
    <path d="M67.5,45 L1.5,45 C0.672,45 0,44.328 0,43.5 L0,1.5 C0,0.672 0.672,0 1.5,0 L67.5,0 C68.328,0 69,0.672 69,1.5 L69,43.5 C69,44.328 68.328,45 67.5,45 L67.5,45 Z M3,42 L66,42 L66,3 L3,3 L3,42 L3,42 Z M13.5,39 L7.5,39 C6.672,39 6,38.328 6,37.5 C6,36.672 6.672,36 7.5,36 L13.5,36 C14.328,36 15,36.672 15,37.5 C15,38.328 14.328,39 13.5,39 L13.5,39 Z M61.5,9 L55.5,9 C54.672,9 54,8.328 54,7.5 C54,6.672 54.672,6 55.5,6 L61.5,6 C62.328,6 63,6.672 63,7.5 C63,8.328 62.328,9 61.5,9 L61.5,9 Z M33,32.8848015 C29.7170065,32.370665 27.23875,30.1886937 27.006,27.414 C26.937,26.589 27.549,25.863 28.374,25.794 C29.187,25.71 29.925,26.337 29.994,27.162 C30.0967913,28.3814792 31.3438755,29.4226743 33,29.8237504 L33,23.714287 C28.9473146,22.7223282 27,20.8160388 27,18 C27,15.1026006 29.5806988,12.6790193 33,12.1209192 L33,10.5 C33,9.672 33.672,9 34.5,9 C35.328,9 36,9.672 36,10.5 L36,12.1150896 C39.2823875,12.6287213 41.7586379,14.8087275 41.994,17.586 C42.063,18.411 41.451,19.137 40.626,19.206 C39.828,19.308 39.075,18.663 39.006,17.838 C38.9032087,16.620857 37.6561245,15.5783596 36,15.1765928 L36,21.2862356 C40.0525177,22.2771048 42.003,24.1819276 42.003,27.003 C42.0003732,29.8977742 39.4193447,32.3210299 36,32.8790875 L36,34.5 C36,35.328 35.328,36 34.5,36 C33.672,36 33,35.328 33,34.5 L33,32.8848015 Z M36,29.8205032 C37.7271767,29.3973402 38.997,28.2763012 38.997,27 C38.997,25.7966783 38.0363152,24.9460131 36,24.3680422 L36,29.8205032 Z M33,15.1794968 C31.2728233,15.6026598 30.003,16.7236988 30.003,18 C30.003,19.2024528 30.9643218,20.0527583 33,20.6307054 L33,15.1794968 Z" id="Shape" fill="#FFFFFF"></path>
</svg>