<svg width="100px" height="100px" viewBox="0 0 100 100" version="1.1" xmlns="http://www.w3.org/2000/svg" xmlns:xlink="http://www.w3.org/1999/xlink">
	<circle id="background" fill="#000000" cx="50" cy="50" r="50"></circle>
	<path d="M77,49 L51,49 L51,23 C51,22.448 50.552,22 50,22 C49.448,22 49,22.448 49,23 L49,49 L23,49 C22.448,49 22,49.448 22,50 C22,50.552 22.448,51 23,51 L49,51 L49,77 C49,77.552 49.448,78 50,78 C50.552,78 51,77.552 51,77 L51,51 L77,51 C77.552,51 78,50.552 78,50 C78,49.448 77.552,49 77,49 L77,49 Z" id="icon" fill="#FFFFFF"></path>
</svg>
