<?xml version="1.0" encoding="UTF-8" standalone="no"?>
<svg width="135px" height="34px" viewBox="0 0 135 34" version="1.1" xmlns="http://www.w3.org/2000/svg" xmlns:xlink="http://www.w3.org/1999/xlink" xmlns:sketch="http://www.bohemiancoding.com/sketch/ns">
    <!-- Generator: Sketch 3.3.3 (12081) - http://www.bohemiancoding.com/sketch -->
    <title>ESPN_2</title>
    <desc>Created with Sketch.</desc>
    <defs></defs>
    <g id="Page-1" stroke="none" stroke-width="1" fill="none" fill-rule="evenodd" sketch:type="MSPage">
        <g id="ESPN_2" sketch:type="MSLayerGroup" fill="#ffffff">
            <path d="M32.857,9.446 L33.986,0.048 L3.983,0.048 L3.008,9.446 L32.857,9.446" id="Fill-2" sketch:type="MSShapeGroup"></path>
            <path d="M100.148,9.446 C100.32,8.046 100.692,4.365 99.97,3.087 C98.964,1.307 97.759,0.255 95.514,0.048 L40.712,0.048 C38.604,0.22 37.43,0.98 35.876,2.914 C34.684,4.397 34.324,8.055 34.229,9.446 L100.148,9.446" id="Fill-3" sketch:type="MSShapeGroup"></path>
            <path d="M67.99,12.762 L65.87,33.196 L77.342,33.196 L78.582,20.431 L94.338,20.431 C97.981,19.912 99.541,15.78 99.595,12.762 L67.99,12.762" id="Fill-4" sketch:type="MSShapeGroup"></path>
            <path d="M134.745,9.446 L134.764,3.847 C134.489,1.569 132.76,0.255 130.136,0.048 L102.24,0.048 L101.265,9.446 L134.745,9.446" id="Fill-5" sketch:type="MSShapeGroup"></path>
            <path d="M122.433,12.762 L120.313,33.196 L131.703,33.196 L134.161,12.762 L122.433,12.762" id="Fill-6" sketch:type="MSShapeGroup"></path>
            <path d="M100.861,12.762 L98.741,33.196 L110.132,33.196 L112.588,12.762 L100.861,12.762" id="Fill-7" sketch:type="MSShapeGroup"></path>
            <path d="M63.138,12.762 L33.807,12.762 C33.682,13.617 33.557,15.388 34.147,17.566 C35.046,20.871 38.548,20.688 38.548,20.688 L54.603,20.503 L54.05,23.819 L32.698,23.889 L31.731,33.196 L59.238,33.196 C61.278,32.992 63.778,31.303 65.037,27.62 C65.245,26.791 66.156,18.197 66.143,17.6 C66.092,15.386 64.833,13.617 63.138,12.762" id="Fill-8" sketch:type="MSShapeGroup"></path>
            <path d="M31.394,21.055 L32.391,12.762 L2.605,12.762 L0.504,33.01 L0.504,33.196 L29.934,33.196 L31.062,23.819 L13.347,23.819 L13.761,21.055 L31.394,21.055" id="Fill-9" sketch:type="MSShapeGroup"></path>
        </g>
    </g>
</svg>