<svg xmlns="http://www.w3.org/2000/svg" width="250" height="288" viewBox="0 0 250 288" version="1.1"><path d="M98.2 34.4C96.9 34.4 95.8 36 94.7 36.5 88.3 39.3 82 37.1 74.9 38.1L69.5 39.9C68.1 39.8 67 38.8 65.6 38.6 60.4 38.6 55.6 37.7 50.6 38.5 46.8 37.9 42.8 37.4 39.9 35.1 37.8 35 37.9 37.9 36.1 38.1 34.7 38.1 33.1 38.5 31.7 38.2 29.8 38.1 28.2 39.1 27.4 40.5L27 49.9C27 50.6 26.5 51.3 25.8 51.6 22.2 51.7 17.8 51.1 16.4 55.2 15.9 56.8 15.4 59 16.7 60.4 18.8 62.5 22.1 62.7 24.9 62.5 27 62.8 26.5 65.2 26.5 66.6 26.8 74.6 26 82.3 26.5 90.8 25.6 95 20.4 91 17.8 93.7 16.9 95 16 96.7 16.2 98.2 16 100.4 16.6 102.4 19.1 103.4 21.5 104.4 24.3 103.5 26.5 104.8 27.7 108.5 25.7 113.5 28.2 117.2 29.5 118.3 31 118.6 32.7 118.9 37.6 118.9 42.4 119.7 47.2 118.6 52.1 118.7 57.3 118 62.2 118.7 63.5 119.3 65.3 119 65.7 120.7 68 122.1 70.9 123.2 73.6 121.8 75 120.5 76 118.7 77.7 118.3L85.7 118.6C87.9 117.6 90.6 118 92.8 118.3 97.1 118.4 101.1 118.4 105.2 118.3 107.3 118 109.6 117.7 111.2 116.5 113.6 112.1 110.4 107.1 112.9 102.8 115.4 102.3 118.4 103.7 120.5 101.7 122.3 100.3 123 98.2 122.6 96 121.2 92.6 117.3 92.2 114 92.3 112.6 92 112.4 90.3 111.9 89.2 111.7 82 112.1 75.6 112.2 68.6 113.1 66.3 111.7 64.2 113.2 62.4 115.6 60.6 119.1 62.2 121.1 59.4 121.2 57.6 122.1 54.8 120.2 53.2 118.7 51.6 116 51.7 113.9 51.7 109.3 48.3 114 43.6 111.4 39.3 109.3 37.4 106 37.2 103.5 37.9 101.8 37.8 100.6 36.4 99.4 35 99 34.6 98.6 34.4 98.2 34.4L98.2 34.4 98.2 34.4ZM95.9 39.1C96.8 39.2 97.3 39.6 97.2 40.6 97.6 43.7 96.6 46.6 97.1 50.2 97.1 56.8 97.6 62.8 97.1 69.3 97.1 79.1 96.9 87.5 97.2 97.1 97.1 99 97.8 101.9 95.6 103.1L91.7 104.1C85 104.1 77.8 103.7 71.2 104.8 68.7 103.8 70.9 100.7 70.6 98.5 69.9 85.6 69.9 71.9 70.1 59.1 70.2 55.6 70.9 51.6 70.2 48 70.9 45.8 70.6 42.7 73.3 41.9 76.4 41 80.1 41.4 83.1 41.3 87.5 41.6 92.3 41.2 95.9 39.1L95.9 39.1ZM43 39.9C44.1 39.9 45.1 40.7 46.3 40.9 49.9 42.3 54.1 41.4 57.7 41.7 58.7 42 59.4 41.4 60.3 41.3 62.5 41 64.5 41.7 66.2 42.7L67.3 45.1C67.4 54.2 67.8 62.7 67.3 72.4L67.3 75.4 67 90.9C67.6 95.5 66.7 99.6 67.6 104.2 67.4 104.8 67.1 105.4 66.6 105.4 61.1 104 55.6 104.2 49.9 104 47.2 104.2 43.5 104.7 41.6 102.6 40.4 101.4 41.7 100.2 41.2 99 41.6 90.2 41 79.9 40.9 71.5 41.2 64.9 40.7 58.9 41.3 52.4 40.9 49.6 41.4 46.1 41.2 43 40.9 42 41 41 41.7 40.5 42.3 39.9 42.7 39.9 43 39.9L43 39.9ZM106.5 40.7C107.4 40.6 108.6 41.2 108.7 42.1 110 45.8 108.7 49.6 109.6 53.4 111.9 55.5 116.3 52.8 118.3 55.9 118.4 56.9 117.7 58.2 116.6 58.3 114.5 59.3 111.1 57.5 109.8 60 108.8 66.7 109.7 72.5 108.8 79.1 109.1 84 108.6 88.4 109.4 93.3 111.7 97.5 118.4 92.4 119.1 97.9 117.1 101.9 111.2 97.4 109.1 101.3 108.8 105.1 108.6 109.4 108.3 113.2 108 114.2 107 114.4 106.2 114.9L88.9 115.2C85.5 114.6 82 116.2 78.7 115.1 77.8 115.6 77 115.1 76.1 114.9 76 114.6 75.8 114.1 76 113.7 78.2 112.7 81.3 112.7 83.8 112.8L95.1 112.5C98.6 112.7 103.5 113.7 105.5 110 106.7 101.9 105.3 93.4 106 85 106.2 74.9 106.2 65.7 106.2 55.4 105.5 51 106.5 46.1 105.1 42 105.3 41.2 105.9 40.7 106.5 40.7L106.5 40.7ZM100.6 41C101.8 41 102.4 42.6 102.8 43.4 103.4 44.5 103.8 46.1 103.5 47.2 103.9 60.6 103.5 74.3 103.5 87.5L103.5 104.2C103.5 104.8 103.2 105.4 102.8 105.4 100.7 104.4 100.3 102.1 99.4 100.2 99.6 91.7 99.6 84.2 99.6 75.7 99.7 65.6 99.3 54.9 99.7 44.7 99.6 43.6 99.3 42.1 99.9 41.2 100.3 41 100.4 41 100.6 41L100.6 41ZM31.6 41.6C35.1 41.6 31.6 44.8 32.2 46.5L31.9 54.9C31.7 68.4 32.3 82 31.7 95.1 31.9 100.4 32.3 104.9 32.6 110 33 112.7 36 112.2 37.8 112.7 42 112.2 46.2 113.2 50.3 112.8 54.6 112.5 58.4 112.5 62.9 112.8 63.3 113 64 113.2 64 113.9 64.2 114.9 63.3 115.3 62.5 115.6 52.4 115.3 42 115.8 32.3 115.3 31.3 115.2 30.3 114.2 30.1 113.2 29.5 109.6 30.1 105.2 29.5 101.7 26.8 99.6 22.1 102.1 20.1 99 19.7 98.2 19.9 97.4 20.6 96.7 22.9 95 26.1 96.4 28.7 95.4L29.5 94.5C30.6 84.2 29.4 74 30.3 63.9 29.6 62.5 30.1 60.6 28.2 59.7 26.5 59.6 24.6 59.6 22.8 59.8 21.5 59.3 19.9 59.4 19.2 58 19.1 56.8 20.1 55.5 21.2 55.1 23.3 53.4 28.1 56.2 29.1 52 30.5 48.7 28.4 44 31.6 41.6L31.6 41.6ZM37.5 41.7C38.3 41.6 38.3 42.3 38.5 42.7 38.1 43.6 37.8 44.4 38.3 45.1 38.8 50 37.5 55.5 38.3 60.3 38.1 67.2 38.3 73.8 38.3 80.8 38.1 86.1 38.2 92.6 38.2 97.9 38.6 101.4 38.6 105.5 35.5 107.3 34.3 107.2 35 105.8 34.6 105.1 34.8 101.9 34.4 98.8 34.6 95.4 35.1 86.3 34 76.7 34.7 67.2L34.7 46.5C35.1 44.8 35.5 42.6 37.5 41.7L37.5 41.7ZM47.9 57.9C46.3 58.6 43.3 57.5 43.1 59.7 43.1 60.7 44.2 60.8 44.8 61.4 47.8 65.2 48.3 69.8 50.1 74 51.1 76.1 51.1 78.5 52.4 80.5 52.8 83 53.4 86.1 55.9 87.1 56.9 87.1 57.3 86.3 57.7 85.7 60.3 77.8 61.9 69.5 64.5 61.8 64.7 61.3 65.7 60.6 65.4 59.6 64.5 58.4 63.1 58.4 61.7 58.4 60.8 58.7 59.7 59 59.8 60.3 62.6 64.1 59.6 69 59 72.9 58.4 74.7 58.7 77.5 56.5 77.8 55.1 76.3 54.8 74.2 54.2 72.4 52.8 69.5 52.1 66.5 51.1 63.2 51.1 61.8 52.2 61.1 52.5 59.7 52.1 57.7 49.6 58 47.9 57.9L47.9 57.9 47.9 57.9ZM85.8 57.9C82.3 58.2 78.1 58 74.4 58.9 73.2 60.4 75.7 61.4 76.3 62.9 76.4 69.4 76.3 75.6 76.1 82.3 76.1 84.2 73.2 85.8 75.4 87.1 78.8 87.2 82 87.5 85.3 87.7 87.2 87.8 89.3 88.1 90.4 86.1 91.2 85 92 83.6 91.2 82.2 91.2 81.3 90.2 80.6 89.5 80.9 88.5 82.3 88.2 84 86.5 84.6 84.6 84.6 81.7 85.7 80.3 83.7 80.2 80.2 78.8 75.3 80.8 72.5 83.3 70.8 85.3 75.7 87.1 72.6 87.6 71.4 87.5 69.5 86.7 68.3 84.7 68.4 83.7 71.1 81.5 70.1 79.1 68.7 80.3 64.9 80.2 62.5 80.5 61.3 81.6 60.4 83.1 60.4 85.3 60.3 86.2 62.7 87.9 63.2 89 62.9 89 61.7 88.9 60.8 87.6 60.1 87.8 57.7 85.8 57.9L85.8 57.9ZM98.9 105.1C100.6 105.2 101 107.5 102.1 108.6 102.4 109.2 101.7 110 101 110L91.2 110C87.4 110.1 84.3 110.3 80.2 110.3 77.5 109.7 74.3 112 72.8 109 72.2 108 73.3 107.5 74 107.1 76.3 106.1 78.4 107.8 80.8 107.1 86.4 106.8 93 107.5 98 104.9 98.3 104.9 98.6 104.9 98.9 105.1L98.9 105.1ZM40.3 105.5C41.6 105.4 42.4 106.2 43.4 106.6 49.7 107.8 57 106.6 63.2 107.2 64.2 107.5 65.4 107.6 65.7 108.7 65.7 109.4 65.7 110.4 64.7 110.6 56.9 109.2 48.7 110.8 40.9 110 39.9 109.9 37.8 110.4 37.6 109 37.8 107.3 38.8 106.2 40.3 105.5L40.3 105.5ZM70.1 110.8C71.6 111.3 73.2 112.8 73.6 114.4 73.5 115.9 73.5 118.2 71.8 118.9 70.8 119.3 69.5 119.1 68.7 118.6 66.9 117.7 67.6 116 67.4 114.5 67.3 112.5 68.4 111.4 70.1 110.8L70.1 110.8ZM211.5 34.8C211.4 34.8 211.1 35 211 35 203.7 40.7 193 36.2 184.4 38.4 183.4 38.5 182.9 39.6 181.5 39.3 174.7 35.7 166.6 39.1 159.6 37.2 156.5 37.1 153.8 34.1 150.8 35.8 149.6 40.3 144.2 36.8 141.3 37.9 136 40.2 139.5 45.9 138.6 50.3 136.8 53.7 132.3 50.6 129.9 53.2 128.7 54.2 128.2 55.8 128.1 57.6 128.4 63.8 136 60.3 139 63.5 138.2 67.3 139.5 71.4 138.8 74.7 138.3 80.4 139.7 85.8 139 91 136.4 94 130.5 90.9 128.9 95.5 127.7 97.5 128.9 99.6 129.9 101.3 132 103.1 134.7 103.4 137.6 103.3 140.3 105.8 138.8 109.9 138.9 113.4 139.2 114.6 138.6 115.9 139.7 117 143.1 118.2 146.8 118.2 150.3 118.2 158.1 118.2 165.2 118.2 172.3 118.4 176 117.4 178.2 121.4 181.7 121.5 185.1 121.9 185.5 117.3 188.9 118.2L205.2 118.3C208.4 118.4 211.5 118.2 214.6 118.6 217.8 117.9 221.6 119.1 223.6 116.6 224.7 113 224.2 109 224.7 105.2 225.7 102 230.1 104.1 232.3 102.7 234.1 102 235.1 100.4 235.5 98.8 236.2 96.4 234.6 94.5 233.1 93 231.2 91.9 229.2 92.6 227.1 92 225.8 91.7 225.4 90.3 225.3 89.4 225.4 84.7 224.6 79.5 225.6 75.2 225.3 71.4 225 67.6 225.6 63.9L226.1 62.9C228.7 62.2 231.7 63.2 233.7 61.4 235 59.6 236 57.2 234.8 55.2 233.8 51.4 229.5 52.4 226.7 51.8 224 50.6 225.4 47.6 225.3 45.5 225.3 43.4 226.3 40.5 223.9 38.9 221.8 37.9 219.2 38.5 217.1 38.6 213.8 39.2 214.2 34.7 211.5 34.8L211.5 34.8 211.5 34.8ZM154.1 39.2C156 39.3 157.9 39.6 159.6 40.5 164.3 41.6 169.4 40.5 174.2 40.5 175.6 40.7 177.7 40.3 178.5 42 179.8 46.6 179.8 50.9 179.4 55.4 179.6 64.6 178.8 74.2 179.4 83.3 179.4 85.8 179.1 88.1 179.2 90.8 178.8 95.1 179.1 98.9 178.9 103.5 177.9 104.4 176.5 103.7 175.6 103.5 172.3 103.3 169.5 103.4 166.3 103.4 164.9 103.1 163.3 103.5 162.1 103.7 159.3 103.1 155.5 103.8 153.2 101.6 152.4 99.5 153.1 97.8 153.2 95.5 153.4 83.7 152.2 72.2 153.1 60.3L153.1 43.7C153.1 42.3 152.7 40 154.1 39.2L154.1 39.2ZM209 39.2C209.8 39.2 210 40 210 40.6 209.4 51.7 210.5 63.2 209.7 73.9 210.1 82.9 209.4 92.6 209.6 101.9 208.6 103.8 205.8 103.7 203.5 103.7 197.9 104.2 192.1 103.1 186.8 103.7 185 103.5 183.1 105.9 181.9 104.1 182 99.6 182.4 95.7 182.7 91.3 182 74.5 182.6 60.6 182.9 43.8 183.1 42.4 184.4 41.4 185.8 41.2 193.3 40.5 201.8 42.4 209 39.2L209 39.2 209 39.2ZM143.8 40.5C144.4 40.3 144.9 40.5 145.5 40.7L145.9 41.2C144.9 43.7 143.7 46.2 144.2 49.3 144.1 57.2 144.1 64.3 144.1 71.8 144.4 83 143.7 96.9 144.4 108.6 144.5 109.9 145.5 110.6 146.6 111.1 155.6 112 164.5 111 173.6 112 174.3 112.2 175 112.2 175.4 113.1 175.6 113.9 174.9 114.2 174.3 114.5 166.4 114.8 158.4 114.2 150.6 114.6 147.6 113.9 143.3 115.8 141.9 112.4 141.6 109.6 141.9 106.6 141.6 103.7 141.4 102.3 140.3 101 139.2 100.2 136.7 99.3 132.4 101 131.3 97.6 131.2 96.5 131.9 95.5 133 95.3 135.4 94.7 139 95.5 140.4 92.9 141.6 86.3 141.2 79.4 141.3 72.6 140.9 69.3 141.4 65.5 141.2 61.7 139.9 57.6 135.3 59.3 132.2 58.4 130.9 57.7 130.5 56.5 131 55.2 134 52.5 140.3 55.5 141.2 50.6 141.3 47.2 141 43.8 142.1 40.7 142.7 40.7 143.3 40.6 143.8 40.5L143.8 40.5 143.8 40.5ZM219.1 41.2C220.2 41.2 221.5 41.3 222.2 42.3 224 46.1 220.1 53.1 225.8 54.4 227.9 54.9 231 53.7 232 56.2 232.3 56.9 232.2 58 231.9 58.4 229.2 61.1 223.3 57.3 222.5 62.1 222.8 65 222.6 67 222.5 70L222.5 81.2C222.1 85 221.9 90.1 223 93.7L224.3 94.7C227 95.3 230.6 94.3 232.4 96.5 232.6 97.6 232.3 99 231.2 99.5 228.5 101.3 223.7 98.1 222.2 101.9 222.2 105.9 221.6 109.7 221.1 113.5L219.7 114.8C211.5 115.3 203.7 114.8 195.6 114.9L187.8 114.8C187.1 114.5 187.2 113.8 187.4 113.4 190.7 111.1 195.5 113 199.6 112.5 205.1 112.7 210.7 112.5 216.3 112.4 220.1 110.6 217.8 106.5 218.8 103.1 219.1 93.8 219 84.6 219.2 75.3 219.1 65.5 219 56.2 219.1 46.8 219.2 44.8 216.4 42.3 219.1 41.2L219.1 41.2 219.1 41.2ZM213.9 41.4C215.2 41.6 215.3 43.3 216 44.3L216.6 46.1C216.9 56.2 216.7 66.6 216.4 77.1 216.2 82.3 216.7 86.7 216.6 92 215.9 96.4 217 100.9 216.3 104.9 215.9 105.4 215 105.4 214.6 104.8 213.1 103.3 211.8 101.2 212.4 98.8 212.4 85.6 212.4 73.1 212.5 60.3 213.1 54.4 212.2 49 212.5 43 212.6 42.3 212.5 41.6 213.3 41.3 213.5 41.4 213.8 41.3 213.9 41.4L213.9 41.4 213.9 41.4ZM149 42.1C149.2 42.1 149.3 42.3 149.6 42.6 150.1 44.5 150.1 46.6 150.1 48.7 149.7 53.9 150.7 59.4 150 64.9 150.1 77.3 150 89.9 149.9 102.7 149 103.8 149 105.6 147.5 105.9 146.5 106.1 146.6 104.9 146.5 104.5 147.1 100.9 145.9 97.5 146.6 94 146.1 80.1 146.6 67.6 146.5 54.4 146.8 50.3 145.8 47.1 147.6 43.4 148.2 43.1 148.6 42.1 149 42.1L149 42.1ZM159.1 57.6C158.6 57.7 157.9 58.4 157.9 59 157.9 60 159 60.1 159.6 60.7 160.8 62.8 160.5 65.3 160.5 67.6 160.4 73.1 160.3 77.7 160.4 82.7 160.1 84.3 157.3 85.1 158.7 87.1L165.2 87.2C168.5 86 164 84.2 164.3 82.3 164.2 80.1 164 77.7 164.9 75.6 165.3 75.4 166 75.4 166.3 75.9 167.7 79.1 169.9 81.8 171.8 84.9 172.6 86.1 173.9 87.2 175.4 87.1 176 86.8 177 86.3 176.7 85.4 173.7 83 173 79.2 170.5 76.4 169.9 75.4 170.4 74.9 170.5 73.9 172.6 72.4 174.9 70.4 175.7 68 176 66 175.7 64.3 175.4 62.5 174.4 59.6 171.3 58.2 168.5 57.6 165.4 57.5 162.4 57.9 159.1 57.6L159.1 57.6ZM195.9 57.6C194 58.2 191.4 57 189.7 58.4 189 59.8 190.3 61 190.9 62.2 190.7 69.1 191.9 76.1 190.7 83.2 190.4 84.3 188.8 84.9 188.6 86.1 188.3 86.5 188.9 87.2 189.5 87.4 191.9 87.4 194 87.2 196.2 87.5 199.2 86.3 195.8 84.6 195.6 82.9 195.8 75.7 195.2 69.3 195.8 62.4 196.3 61.1 198 60.1 197.6 58.6 197.5 57.7 196.6 57.7 195.9 57.6L195.9 57.6ZM167.1 60.1C169.4 60 170.9 62 171.5 63.8 172.5 65.5 171.9 67.6 171.2 69.3 170.1 70.7 168.7 72.2 166.7 71.9 162.9 71.4 165.3 66.7 164.7 64.5 164.9 63.1 164.5 60.7 166.2 60.1 166.6 60.3 166.9 60.1 167.1 60.1L167.1 60.1ZM151.8 105.2C155.8 105.8 160 106.9 164.2 106.5 168.1 106.6 173.3 105.9 176.8 107.1 177.7 107.9 177.9 108.7 177.1 109.7 174 110.6 171.2 108.7 168 109.2L150.8 109.3C150.1 109.2 149.4 108.7 149.4 108 149.6 106.8 151 105.9 151.8 105.2L151.8 105.2ZM210.4 105.4C212.4 105.4 213.5 106.9 214.6 108.5 214.9 109 214.6 110.3 213.6 109.9L185.4 109.9C184.6 109.6 184.3 108.5 184.4 107.6 188.1 105.9 192.7 106.8 196.8 106.8 201.4 106.9 206.2 106.8 210.4 105.4L210.4 105.4 210.4 105.4ZM180.9 110.1C182 110.1 183.4 111 183.8 112.2 185 113.5 184.8 115.6 184 117 183.1 117.9 181.9 117.6 180.9 117.7 179.8 117.6 178.9 116.6 178.5 115.6 178.1 114.2 178.2 112.5 179.1 111.5 179.6 110.6 180.2 110.1 180.9 110.1L180.9 110.1 180.9 110.1ZM85.4 144.3C84 144.6 83.6 147.2 82.2 147.8 78.9 148.9 75 146.8 72.2 149.5 70.6 152.9 72.5 156.6 71.8 160.4 71.3 162.7 68.5 161.7 66.9 161.8 64.2 161.8 61.4 162.5 60 164.8 59.6 166.2 59.3 167.9 59.7 169.4 61.1 172.7 65.2 172.5 68.1 173.1 69.2 173.1 70.5 172.8 71.3 173.8 71.8 178.4 71.5 182.8 71.6 187.3 70.9 190.4 71.8 194 71.6 197.1 71.5 198.4 71.1 199.9 71.6 201 71.5 202 71.3 203.1 70.2 203.3 68 203.6 65.4 202.6 63.5 203.7 61.9 204.3 60.8 205.7 60.1 207.1 59.8 208.5 59.8 210.2 60.4 211.4 62.8 214.2 66.4 213.7 69.8 214 73.2 214.8 71.6 219.2 71.9 221.7L72.2 227C73.2 230.4 77.4 229.4 79.9 230.4L85.4 229.8C88.9 230.8 93.1 229.1 96.6 230 100.7 228.9 104.9 229.6 109.4 229.6 112.1 229.4 115 229.4 117.8 229.1 120.2 230.8 122.9 232.8 125.8 231.8 128.4 229.6 132 229.1 135.3 229.6L142 229.1 143.3 229.7 151.4 229.4C156.3 229.6 161.5 228.9 167 229.3L171.6 229 175.7 227.9C178.7 225.2 176.7 220.7 177.4 217.2 177.9 215.9 177.5 214.1 179.1 213.7 182.4 213.1 186.9 213.5 188.2 209.6 188.5 208.1 188.8 206.2 187.9 205 186.5 203.4 184.7 202.7 182.7 202.3 180.8 202.6 178.1 202.9 177 201 177.8 191.5 176.7 183.2 177.4 173.6L178.5 172.2C181.7 171.5 185.7 172.1 187.4 168.6 187.9 167 187.5 165.1 186.4 163.7 184.4 160.2 179.8 163.1 177.2 161 175.7 157.6 178.2 154 177 150.3 174.9 146.7 170.2 147.9 166.7 147.9 164.7 146.4 162.4 146.1 160 145.5 156.5 147.8 152.2 148.4 148 148.4 142.7 148.9 137.6 147.8 132.4 148.1 129.4 147.9 125.8 147.7 123.6 150L119.5 148.2C109.6 146.7 99 150.6 89.5 147.1L86.4 145.1C86.1 144.3 85.7 144.3 85.4 144.3L85.4 144.3 85.4 144.3ZM160 148.8C161 148.8 161.9 148.8 161.7 149.9 160.3 160.4 161.9 170.4 161.5 181.2 161.9 189.5 161.1 197.2 161.5 205.5 161.2 207.6 162.1 210.2 160.7 211.9 157.6 213.8 153.7 214.1 150 214L131.3 213.8C128.9 213.5 127.4 216.1 125 215.1 124.2 212.8 126.1 210.6 125 208.3 125.3 204 125.1 200.8 124.9 196.4 125.1 193 124 189.8 125.3 186.8 125.6 186.3 126.3 186.7 126.7 187 128.2 189.2 128.9 192.5 127.9 195.1 128.2 196.1 129.4 196.3 130.3 196.3 132.4 196.1 135.3 197.4 136.5 195.4 136.2 192.9 132.4 192.6 132.4 189.7 131.9 184.3 128.9 180 128.2 174.8 127.2 171.5 126.3 168.4 125.1 165.4 125 161 125 157.3 125.1 153 125.7 150 129.1 151 131 150.3 136.5 150.3 141.7 151.3 147.2 150.9 151.4 151 155.5 150.6 159 148.6 159.4 148.8 159.7 148.8 160 148.8L160 148.8 160 148.8ZM86.9 149.1C89.2 149.2 91 150.2 92.8 150.7 101.8 151.7 110.8 149.2 119.5 151 123.2 152.7 121.1 156.8 121.6 159.9 121.6 164.1 121.3 168.4 120.1 172.2 117.7 179 116.9 186 114.5 192.6 113.5 193.7 110.8 194 111.8 196 113.1 196.8 115.2 196.7 116.6 196.4 117.6 196.5 118.3 196.1 118.4 195.3 118.1 192.5 117.3 189.2 119.4 187 119.9 186.4 120.8 186.1 121.5 186.7 122.8 190.6 121.5 194.6 121.8 198.6 121.6 202.9 122.2 207.8 121.9 212 121.9 212.8 122.1 214 121.1 214.2 118.5 214.8 116.2 213.4 113.5 214L107.9 214.1C104.4 214.1 100.7 213.8 97.2 214 93.8 214 90.2 214.1 87.5 212.3L86.5 211.2C86.4 197.9 86.7 185.4 86.2 172.1 86.4 165.2 87.2 157.6 86.1 150.9 86.7 150.3 86 149.6 86.9 149.1L86.9 149.1 86.9 149.1ZM171.8 150C173.3 150 174.4 151.3 174.6 152.9 174.4 156.2 174 160.3 175.7 163.1 178.1 164.4 181.5 163.7 184 164.9 184.6 165.8 184.3 166.8 184.1 167.5 181.5 170.1 175.8 166.9 174.6 171.5 174.2 177.4 174.9 182.6 174.4 188.4 174.6 193.3 173.6 199.5 174.9 203.8 177.2 206.8 181.9 204.3 184.6 206.8 185.3 207.4 185 208.6 184.6 209.3 182.3 212.4 177.1 208.8 175.3 212.4 174.7 216.1 174 220.1 174 224.2 171.9 226.7 168.4 225.2 165.7 225.9 153.7 225.6 142.4 226.6 130.5 225.9 129.8 225.5 128.8 224.5 129.6 223.7L131 223C142.8 222.5 155.3 223.2 167 222.1 168.4 222 170.1 221.3 170.5 219.9 171.3 211 170.8 201.5 170.8 192.7 171.3 180.4 170.6 167.2 170.8 154.8 170.8 153.3 167.8 151.9 169.9 150.5 170.6 150.2 171.2 150 171.8 150L171.8 150 171.8 150ZM77.9 150.7C78.7 150.9 79.2 151.3 79.2 152.1 79.1 153.7 77.5 154.7 77.2 156.2 76.7 165.5 77.4 175.6 77.2 184.7 77.2 189.9 77.5 194.3 77 199.4 77.4 201.6 77 204.7 77 207.1 77.4 212.4 77.2 216.8 77.8 221.8L78.9 222.8C86.9 223 95.4 221.8 103.9 222.7L116.7 222.8C117 223.4 117.8 224.2 117 224.9 114.7 225.8 112.2 225.2 109.8 225.8 104.9 225.2 100.1 226.7 95.2 225.8 89.2 225.8 83 226.7 77 226.2 76 226 75.1 225.1 74.9 224.5 74.3 220.6 75.1 216.6 73.9 213.1 71.6 209.7 66.9 212 63.9 210 63.3 209.7 62.8 208.6 63.3 207.9 65.9 205.4 69.8 206.7 73 205.7 74.3 204.7 74.2 202.9 74.3 201.6 74.4 193.5 74.3 185.7 74.4 178 74.3 175.2 75 171.5 72.2 169.8 69.1 168.7 64.6 171.3 63.1 167.5 63.1 166.3 63.9 165.4 64.9 165.1 68.3 164.1 73.3 165.9 74.4 161.4 74.2 158.2 74.6 155.5 74.9 152.3 75.4 151.4 76.8 150.6 77.9 150.7L77.9 150.7 77.9 150.7ZM165.2 151C166.4 151.6 167.4 153.3 168.1 154.5 169 168.7 168.5 183.6 168.5 197.7L168.3 216.1C168 216.8 167.3 216.2 167 215.9 165.2 213.8 163.5 211.2 164.5 208.1 164.3 199.1 164.2 188.3 164.3 179.4L164.5 173.8 164.5 164.5C164.2 160.4 164.3 156.1 164.5 152 164.5 152 165.2 151 165.2 151L165.2 151 165.2 151ZM82.2 152.3C84.8 152.7 82.6 155.7 83.3 157.5 83.4 174.6 83.4 191.6 83.4 210 83.8 212.6 82.6 215.2 80.8 216.8 80.3 216.8 79.8 216.5 79.8 215.9L79.9 209.6C79.9 191.5 79.6 173.6 79.9 156.2 80.2 154.7 81.3 153.4 82.2 152.3L82.2 152.3ZM111 165.4C108.6 167.5 105.3 166.8 102.2 166.6 100.4 166.9 98.2 167 96.8 165.8 95.9 165.2 94.9 165.5 94.5 166.2 94 168.3 92.6 170.3 93.4 172.4 93.8 172.9 94.5 172.8 94.9 172.5 95.6 170.8 97.2 169.6 99 169 99.9 169.1 100.8 170 101.3 170.7L100.8 178.6C101 182.4 100.7 186.6 101 190.4 101.8 192.9 97.3 194 99.4 196.5 100.3 196.8 101.4 197 102.2 196.5 104.1 196.5 106 197.4 107.4 196 108.4 194.6 106.7 193.7 106.2 192.6 106 187.8 106 182.2 105.6 177.2 106.5 174.8 104.6 171.8 106.3 170 108.7 168.7 108.7 172.2 111 172.1 112.6 171.1 111.9 168.6 112.6 166.8 112.8 165.9 111.8 165.4 111 165.4L111 165.4ZM151.5 166.6C150.8 166.6 150 166.9 149.4 167.3 146.3 167 142.7 167.2 140.9 170 139.7 172.1 138.9 174.3 139.7 176.7 142 182.4 149.6 182.8 151.5 188.5 151.7 190.4 151.1 192 149.4 193 147.3 193.3 145.1 193.3 143.7 191.6 141.7 190.6 142.7 187.8 140.4 187.8 138.1 189 139.9 192.2 139.3 194.4 139.5 194.9 139.6 195.7 140.4 195.6 142.8 193.5 144.9 196.5 147.5 196.4 149.7 196.1 152 195.6 153.5 193.7 155.1 191.9 155.6 189.2 155.5 187 154.4 180.2 146.5 180 143.3 174.8 142.7 173.6 142.8 172.4 143.4 171.3 144.8 169.7 146.9 170.8 148.7 171 150.1 171.8 150.7 174.8 152.8 173.5 153.4 171.8 153.2 169.8 152.8 168.2 152.9 167 152.2 166.6 151.5 166.6L151.5 166.6ZM121.8 175.8C122.2 175.8 122.5 176.2 122.6 176.7L122.1 183.3C121.9 183.9 120.9 184.2 120.5 183.6 119.2 181.2 120.8 178.4 121.3 176 121.5 175.9 121.6 175.8 121.8 175.8L121.8 175.8ZM125.1 181.7C125.6 181.7 126 182.5 125.8 182.9 125.7 183.1 125.7 183.3 125.4 183.3 124.6 183.5 124.9 182.8 124.9 182.2 124.9 181.8 125 181.7 125.1 181.7 125 181.7 125.1 181.7 125.1 181.7L125.1 181.7 125.1 181.7ZM85.5 214.7C87.4 214.9 88.6 216.1 90.3 216.6 98.3 217.2 106.7 216.9 115 216.9 116.6 216.9 118.7 216.8 119.9 217.9 120.2 218.3 119.9 219 119.5 219.6L118.4 220.1 92.4 220C89.5 220.1 86.2 219 83.3 219.7 82.9 219.7 81.9 219.9 81.9 219 82.7 217.1 83.8 215.6 85.5 214.7L85.5 214.7 85.5 214.7ZM162.4 214.7C163.9 214.7 164.9 217.3 166 218.6 166.3 219.9 164.7 219.9 163.9 220 158 219.7 152.5 220 146.6 220 140.9 220.3 134.7 219.9 128.8 220 127.9 219.4 127.2 218.6 127.8 217.8 130.5 216.4 134 216.9 137.2 216.9 145.1 216.6 152.9 217.8 160.5 215.6 161.2 214.9 161.8 214.7 162.4 214.7L162.4 214.7 162.4 214.7ZM123.9 219.9C124.9 219.9 125.7 220.8 126.1 221.8 127.1 223.4 126.1 225.2 126.3 227 125.8 228 124.6 228.2 123.6 228.2 122.5 228.2 121.3 227 121.1 225.9 119.9 224.6 120.8 222.8 121.1 221.4 121.9 220.8 122.3 220 123.5 219.7 123.6 219.9 123.7 219.9 123.9 219.9L123.9 219.9 123.9 219.9Z" fill="#000000"/><path d="M0.8 0.6L0.8 2.4 0.8 87.2C0.8 220.4 124.3 286.9 124.3 286.9L125.1 287.3 126 286.9C126 286.9 249.4 220.4 249.4 87.2L249.4 2.4 249.4 0.6 247.6 0.6 2.7 0.6 0.8 0.6 0.8 0.6ZM4.6 4.4L245.9 4.4 245.9 87.2C245.9 215.2 130.2 280.3 125.3 282.9 120.4 280.3 4.6 215.2 4.6 87.2 4.6 87.4 4.6 8 4.6 4.4L4.6 4.4Z" fill="#000000"/><path d="M4.6 4.4L245.9 4.4 245.9 87.2C245.9 215.2 130.2 280.3 125.3 282.9 120.4 280.3 4.6 215.2 4.6 87.2 4.6 87.4 4.6 8 4.6 4.4L4.6 4.4ZM98.2 34.4C96.9 34.4 95.8 36 94.7 36.5 88.3 39.3 82 37.1 74.9 38.1L69.5 39.9C68.1 39.8 67 38.8 65.6 38.6 60.4 38.6 55.6 37.7 50.6 38.5 46.8 37.9 42.8 37.4 39.9 35.1 37.8 35 37.9 37.9 36.1 38.1 34.7 38.1 33.1 38.5 31.7 38.2 29.8 38.1 28.2 39.1 27.4 40.5L27 49.9C27 50.6 26.5 51.3 25.8 51.6 22.2 51.7 17.8 51.1 16.4 55.2 15.9 56.8 15.4 59 16.7 60.4 18.8 62.5 22.1 62.7 24.9 62.5 27 62.8 26.5 65.2 26.5 66.6 26.8 74.6 26 82.3 26.5 90.8 25.6 95 20.4 91 17.8 93.7 16.9 95 16 96.7 16.2 98.2 16 100.4 16.6 102.4 19.1 103.4 21.5 104.4 24.3 103.5 26.5 104.8 27.7 108.5 25.7 113.5 28.2 117.2 29.5 118.3 31 118.6 32.7 118.9 37.6 118.9 42.4 119.7 47.2 118.6 52.1 118.7 57.3 118 62.2 118.7 63.5 119.3 65.3 119 65.7 120.7 68 122.1 70.9 123.2 73.6 121.8 75 120.5 76 118.7 77.7 118.3L85.7 118.6C87.9 117.6 90.6 118 92.8 118.3 97.1 118.4 101.1 118.4 105.2 118.3 107.3 118 109.6 117.7 111.2 116.5 113.6 112.1 110.4 107.1 112.9 102.8 115.4 102.3 118.4 103.7 120.5 101.7 122.3 100.3 123 98.2 122.6 96 121.2 92.6 117.3 92.2 114 92.3 112.6 92 112.4 90.3 111.9 89.2 111.7 82 112.1 75.6 112.2 68.6 113.1 66.3 111.7 64.2 113.2 62.4 115.6 60.6 119.1 62.2 121.1 59.4 121.2 57.6 122.1 54.8 120.2 53.2 118.7 51.6 116 51.7 113.9 51.7 109.3 48.3 114 43.6 111.4 39.3 109.3 37.4 106 37.2 103.5 37.9 101.8 37.8 100.6 36.4 99.4 35 99 34.6 98.6 34.4 98.2 34.4L98.2 34.4 98.2 34.4ZM211.5 34.8C211.4 34.8 211.1 35 211 35 203.7 40.7 193 36.2 184.4 38.4 183.4 38.5 182.9 39.6 181.5 39.3 174.7 35.7 166.6 39.1 159.6 37.2 156.5 37.1 153.8 34.1 150.8 35.8 149.6 40.3 144.2 36.8 141.3 37.9 136 40.2 139.5 45.9 138.6 50.3 136.8 53.7 132.3 50.6 129.9 53.2 128.7 54.2 128.2 55.8 128.1 57.6 128.4 63.8 136 60.3 139 63.5 138.2 67.3 139.5 71.4 138.8 74.7 138.3 80.4 139.7 85.8 139 91 136.4 94 130.5 90.9 128.9 95.5 127.7 97.5 128.9 99.6 129.9 101.3 132 103.1 134.7 103.4 137.6 103.3 140.3 105.8 138.8 109.9 138.9 113.4 139.2 114.6 138.6 115.9 139.7 117 143.1 118.2 146.8 118.2 150.3 118.2 158.1 118.2 165.2 118.2 172.3 118.4 176 117.4 178.2 121.4 181.7 121.5 185.1 121.9 185.5 117.3 188.9 118.2L205.2 118.3C208.4 118.4 211.5 118.2 214.6 118.6 217.8 117.9 221.6 119.1 223.6 116.6 224.7 113 224.2 109 224.7 105.2 225.7 102 230.1 104.1 232.3 102.7 234.1 102 235.1 100.4 235.5 98.8 236.2 96.4 234.6 94.5 233.1 93 231.2 91.9 229.2 92.6 227.1 92 225.8 91.7 225.4 90.3 225.3 89.4 225.4 84.7 224.6 79.5 225.6 75.2 225.3 71.4 225 67.6 225.6 63.9L226.1 62.9C228.7 62.2 231.7 63.2 233.7 61.4 235 59.6 236 57.2 234.8 55.2 233.8 51.4 229.5 52.4 226.7 51.8 224 50.6 225.4 47.6 225.3 45.5 225.3 43.4 226.3 40.5 223.9 38.9 221.8 37.9 219.2 38.5 217.1 38.6 213.8 39.2 214.2 34.7 211.5 34.8L211.5 34.8 211.5 34.8ZM85.4 144.3C84 144.6 83.6 147.2 82.2 147.8 78.9 148.9 75 146.8 72.2 149.5 70.6 152.9 72.5 156.6 71.8 160.4 71.3 162.7 68.5 161.7 66.9 161.8 64.2 161.8 61.4 162.5 60 164.8 59.6 166.2 59.3 167.9 59.7 169.4 61.1 172.7 65.2 172.5 68.1 173.1 69.2 173.1 70.5 172.8 71.3 173.8 71.8 178.4 71.5 182.8 71.6 187.3 70.9 190.4 71.8 194 71.6 197.1 71.5 198.4 71.1 199.9 71.6 201 71.5 202 71.3 203.1 70.2 203.3 68 203.6 65.4 202.6 63.5 203.7 61.9 204.3 60.8 205.7 60.1 207.1 59.8 208.5 59.8 210.2 60.4 211.4 62.8 214.2 66.4 213.7 69.8 214 73.2 214.8 71.6 219.2 71.9 221.7L72.2 227C73.2 230.4 77.4 229.4 79.9 230.4L85.4 229.8C88.9 230.8 93.1 229.1 96.6 230 100.7 228.9 104.9 229.6 109.4 229.6 112.1 229.4 115 229.4 117.8 229.1 120.2 230.8 122.9 232.8 125.8 231.8 128.4 229.6 132 229.1 135.3 229.6L142 229.1 143.3 229.7 151.4 229.4C156.3 229.6 161.5 228.9 167 229.3L171.6 229 175.7 227.9C178.7 225.2 176.7 220.7 177.4 217.2 177.9 215.9 177.5 214.1 179.1 213.7 182.4 213.1 186.9 213.5 188.2 209.6 188.5 208.1 188.8 206.2 187.9 205 186.5 203.4 184.7 202.7 182.7 202.3 180.8 202.6 178.1 202.9 177 201 177.8 191.5 176.7 183.2 177.4 173.6L178.5 172.2C181.7 171.5 185.7 172.1 187.4 168.6 187.9 167 187.5 165.1 186.4 163.7 184.4 160.2 179.8 163.1 177.2 161 175.7 157.6 178.2 154 177 150.3 174.9 146.7 170.2 147.9 166.7 147.9 164.7 146.4 162.4 146.1 160 145.5 156.5 147.8 152.2 148.4 148 148.4 142.7 148.9 137.6 147.8 132.4 148.1 129.4 147.9 125.8 147.7 123.6 150L119.5 148.2C109.6 146.7 99 150.6 89.5 147.1L86.4 145.1C86.1 144.3 85.7 144.3 85.4 144.3L85.4 144.3 85.4 144.3Z" fill="#C90016"/><path d="M43.1 39.8C44.1 39.8 45.3 40.6 46.5 40.8 50 42.2 54.2 41.4 57.8 41.6 58.8 42 59.6 41.2 60.5 41.2 62.7 40.8 64.7 41.6 66.3 42.6L67.3 45.1C67.5 54.1 67.9 62.6 67.3 72.3L67.3 75.3 66.9 90.9C67.3 95.5 66.5 99.6 67.5 104.2 67.3 104.6 67.1 105.4 66.5 105.4 61.1 104 55.6 104.2 50 104 47.3 104.4 43.5 104.6 41.7 102.6 40.7 101.4 41.9 100.2 41.3 99 41.7 90.1 41.1 80 40.9 71.5 41.3 64.8 40.7 58.8 41.3 52.5 40.9 49.7 41.5 46.1 41.1 43 40.7 42 40.9 41.2 41.7 40.4 42.3 40 42.7 39.8 43.1 39.8L43.1 39.8ZM47.9 58C46.3 58.6 43.3 57.6 43.1 59.8 43.1 60.8 44.3 60.8 44.7 61.6 47.5 65.4 48.1 70.1 50 74.1 51 76.1 51 78.6 52.2 80.6 52.6 83.2 53.2 86.2 55.6 87.1 56.6 87.1 57 86.2 57.4 85.6 60 77.8 61.7 69.5 64.1 61.8 64.5 61.2 65.3 60.4 65.1 59.6 64.1 58.4 62.7 58.6 61.3 58.6 60.5 59 59.2 59.2 59.4 60.4 62.3 64.2 59.2 69.1 58.6 73.1 58 74.9 58.2 77.8 56 78.2 54.6 76.6 54.4 74.5 53.8 72.7 52.4 69.9 51.8 66.9 50.8 63.6 50.8 62.2 52 61.4 52.2 60.2 52.2 57.8 49.5 58.2 47.9 58L47.9 58Z" fill="#FFFFFF"/><path d="M95.8 39C96.6 39.2 97.2 39.6 97 40.6 97.4 43.6 96.6 46.7 96.8 50.1 96.8 56.8 97.4 62.8 96.8 69.1 96.8 78.8 96.6 87.5 97 96.7 96.8 98.6 97.4 101.6 95.4 102.8L91.5 103.8C84.9 103.8 77.6 103.4 71.2 104.4 68.5 103.4 70.7 100.4 70.5 98.2 69.9 85.2 69.9 71.7 69.9 58.8 70.1 55.3 70.7 51.3 70.1 47.7 70.7 45.5 70.5 42.2 73.2 41.4 76.2 40.6 79.8 41 83.1 40.8 87.5 41.6 92.3 41.2 95.8 39L95.8 39ZM85.7 58C82.1 58.4 78 58.2 74.4 59 73.2 60.6 75.6 61.4 76.2 63 76.4 69.5 76.2 75.7 76 82.4 76 84.2 73.2 85.8 75.4 87.3 78.8 87.5 82.1 87.7 85.1 87.9 86.9 88.1 89.1 88.3 90.3 86.2 90.9 85 91.7 83.6 90.9 82.4 90.9 81.6 89.9 80.8 89.3 81.2 88.3 82.6 88.1 84.2 86.3 84.8 84.3 84.8 81.4 86 80.2 84 80 80.6 78.6 75.5 80.6 72.7 83.3 70.9 85.1 75.9 86.9 72.9 87.5 71.7 87.3 69.9 86.5 68.5 84.5 68.7 83.7 71.3 81.4 70.3 79 68.9 80.2 65 80.2 62.8 80.6 61.6 81.6 60.8 83.1 60.8 85.1 60.6 86.1 63 87.9 63.6 88.9 63.2 88.9 62 88.9 61.2 87.7 60.2 87.9 57.8 85.7 58L85.7 58Z" fill="#FFFFFF"/><path d="M209 39.2C209.8 39.2 210 40 210 40.6 209.4 51.7 210.7 63.2 209.6 73.9 210 82.8 209.2 92.5 209.4 101.8 208.4 103.8 205.6 103.6 203.4 103.6 197.7 104.2 192.1 103 186.8 103.6 185 103.4 183.2 105.8 181.8 104 182 99.6 182.4 95.5 182.6 91.3 182 74.5 182.4 60.6 182.8 43.8 183.2 42.4 184.4 41.4 185.6 41.2 193.3 40.4 202 42.4 209 39.2L209 39.2ZM195.9 57.6C194.1 58.2 191.5 57.2 189.7 58.4 189 59.8 190.3 61 190.7 62.2 190.5 69.1 191.7 76.1 190.5 83.2 190.1 84.4 188.4 85 188.4 86 188 86.4 188.8 87.1 189.3 87.3 191.7 87.3 193.7 87.1 195.9 87.5 198.7 86.2 195.5 84.4 195.3 82.8 195.5 75.5 194.9 69.1 195.5 62.2 196.1 61 197.7 60 197.3 58.4 197.3 57.8 196.7 57.8 195.9 57.6L195.9 57.6Z" fill="#FFFFFF"/><path d="M154.1 39.2C156.1 39.4 158 39.6 159.6 40.4 164.4 41.4 169.3 40.4 174.1 40.4 175.5 40.8 177.5 40.2 178.3 42 179.6 46.7 179.6 50.9 179.2 55.3 179.6 64.6 178.6 74.3 179.2 83.4 179.2 86 178.8 88.3 179 90.9 178.6 95.1 178.8 99 178.6 103.8 177.5 104.6 176.1 104 175.1 103.8 171.9 103.4 169.1 103.6 165.8 103.6 164.4 103.2 163 103.8 161.6 104 158.8 103.4 154.9 104.2 152.7 102 151.9 100 152.5 98.2 152.7 95.9 152.9 84 151.7 72.7 152.5 60.6L152.5 44C153.1 42.2 152.7 40 154.1 39.2L154.1 39.2ZM159.2 57.6C158.6 57.8 158 58.4 158 59 158 60 159 60 159.8 60.8 161 62.8 160.8 65.4 160.8 67.7 160.6 73.1 160.4 77.8 160.6 82.8 160.2 84.4 157.6 85.2 159 87.1L165.4 87.3C168.9 86 164.2 84.2 164.6 82.2 164.4 80 164.4 77.6 165.2 75.5 165.6 75.3 166.2 75.3 166.6 75.9 168.1 79.2 170.3 81.8 172.1 84.8 172.9 86 174.1 87.3 175.7 87.1 176.3 86.6 177.3 86.2 176.9 85.2 173.9 82.8 173.3 79.2 170.7 76.1 170.3 75.1 170.5 74.5 170.7 73.5 172.7 71.9 174.9 70.1 175.9 67.7 176.3 65.6 175.9 64 175.5 62.2 174.5 59.4 171.5 58 168.7 57.4 165.4 57.4 162.4 58 159.2 57.6L159.2 57.6ZM167.2 60.2C169.5 60 171.1 62 171.5 63.8 172.5 65.6 171.9 67.7 171.1 69.3 169.9 70.7 168.5 72.1 166.6 71.9 162.8 71.5 165.2 66.9 164.6 64.4 164.8 63 164.2 60.6 166 60.2L167.2 60.2 167.2 60.2Z" fill="#FFFFFF"/><path d="M86.9 149C89.1 149.2 90.9 150.1 92.8 150.9 101.6 151.9 110.7 149.2 119.6 151.3 123.2 153.1 121.2 157.1 121.6 160.2 121.6 164.4 121.4 168.6 120 172.5 117.6 179.1 116.8 186.2 114.4 192.9 113.3 194.1 110.7 194.3 111.7 196.3 112.9 197.1 115.2 196.9 116.6 196.7 117.6 196.9 118.2 196.3 118.4 195.7 118 192.9 117.2 189.6 119.4 187.4 119.8 187 120.8 186.6 121.4 187 122.6 191 121.4 194.9 121.8 198.9 121.6 203.2 122.2 208 122 212.3 122 213.1 122.2 214.3 121.2 214.5 118.6 214.9 116.2 213.7 113.7 214.1L108.1 214.3C104.7 214.3 100.8 213.9 97.4 214.1 94 214.1 90.3 214.3 87.7 212.5L86.7 211.4C86.5 198.3 86.9 185.8 86.3 172.3 86.5 165.4 87.3 157.9 86.1 151.1 86.7 150.5 85.9 149.7 86.9 149L86.9 149ZM110.9 165.2C108.5 167.2 105.3 166.6 102.2 166.4 100.4 166.6 98.2 166.8 96.8 165.6 96 165.2 95 165.2 94.6 166 94.2 168 92.6 170.3 93.4 172.3 93.8 172.9 94.4 172.7 95 172.5 95.6 170.7 97.2 169.4 99 169 99.8 169.2 100.8 170 101.2 170.7L100.8 178.5C101 182.4 100.6 186.6 101 190.2 101.8 192.9 97.4 193.9 99.4 196.5 100.2 196.9 101.4 196.9 102.2 196.5 104.1 196.5 106.1 197.3 107.3 195.9 108.3 194.5 106.5 193.7 106.1 192.5 105.9 187.6 105.9 182 105.5 177.1 106.3 174.7 104.5 171.9 106.1 169.8 108.5 168.6 108.5 172.1 110.7 171.9 112.5 170.9 111.7 168.4 112.5 166.6 112.7 166 111.7 165.2 110.9 165.2L110.9 165.2ZM121.8 175.7C122.2 175.7 122.6 176.1 122.6 176.7L122 183.2C121.8 183.8 121 184 120.4 183.6 119.2 181.2 120.8 178.5 121.2 176.1 121.4 175.9 121.6 175.7 121.8 175.7L121.8 175.7Z" fill="#FFFFFF"/><path d="M160 148.8C161 148.8 161.8 148.8 161.6 150.1 160.2 160.6 162 170.7 161.4 181.4 161.8 189.6 161 197.3 161.4 205.8 161 207.8 162 210.4 160.6 212.3 157.6 214.1 153.5 214.5 149.9 214.3L131.1 214.1C128.7 213.7 127.3 216.3 124.9 215.3 124 213.1 126.1 210.8 124.9 208.6 125.3 204.4 125.1 201.1 124.6 196.7 125.1 193.3 123.8 190.2 125.1 187.2 125.5 186.6 126.1 187 126.5 187.4 128.1 189.6 128.7 192.9 127.7 195.5 128.1 196.5 129.1 196.5 130.1 196.5 132.1 196.3 135.1 197.7 136.4 195.7 136 193.1 132.3 192.9 132.3 189.8 131.9 184.6 128.9 180.1 128.1 174.9 127.1 171.7 126.3 168.4 125.1 165.4 124.9 161.2 124.9 157.3 125.1 153.1 125.5 150.3 128.9 151.3 131.1 150.5 136.6 150.5 141.8 151.5 147.3 151.1 151.5 151.3 155.5 150.7 159 148.8 159.4 148.8 159.8 148.8 160 148.8L160 148.8ZM151.5 166.6C150.7 166.6 149.9 167 149.3 167.4 146.3 167 142.6 167.2 140.8 170 139.8 172.1 139 174.5 139.8 176.7 142 182.4 149.5 182.8 151.7 188.6 151.9 190.4 151.3 192.3 149.7 193.1 147.7 193.5 145.4 193.5 143.8 191.7 141.8 190.6 142.8 187.8 140.6 187.8 138.2 189 140 192.1 139.6 194.3 139.8 194.7 140 195.5 140.6 195.5 143 193.5 145 196.5 147.7 196.3 149.9 195.9 152.1 195.5 153.7 193.7 155.3 191.9 155.7 189.2 155.7 187 154.5 180.3 146.9 179.9 143.6 174.9 143 173.9 143.2 172.5 143.8 171.5 145.2 169.8 147.3 171.1 149.1 171.1 150.5 171.9 151.1 174.9 153.1 173.7 153.7 172.1 153.5 170 153.1 168.4 152.9 167 152.3 166.6 151.5 166.6L151.5 166.6ZM125.1 181.6C125.5 181.6 125.9 182.4 125.7 182.8 125.5 183 125.5 183.2 125.3 183.2 124.4 183.4 124.6 182.6 124.6 182.2 124.9 182 124.9 181.8 125.1 181.6L125.1 181.6 125.1 181.6Z" fill="#FFFFFF"/><path d="M100.6 41C101.8 41 102.4 42.6 102.8 43.4 103.5 44.4 103.9 46.1 103.7 47.3 104.1 60.6 103.7 74.3 103.7 87.7L103.7 104.4C103.7 105 103.5 105.4 102.8 105.4 100.8 104.4 100.2 102.2 99.4 100.4 99.6 91.9 99.6 84.4 99.6 75.9 99.8 65.8 99.2 55.1 99.8 44.8 99.6 43.6 99.4 42.4 100 41.4 100.2 41 100.4 41 100.6 41L100.6 41Z" fill="#FFFFFF"/><path d="M37.6 41.8C38.4 41.6 38.4 42.4 38.6 42.8 38.2 43.6 37.8 44.4 38.4 45.3 38.8 50.3 37.6 55.6 38.4 60.4 38 67.3 38.4 73.9 38.4 81 38 86.2 38.2 92.9 38.2 98.2 38.6 101.8 38.6 105.6 35.6 107.7 34.4 107.4 35 106 34.6 105.4 35 102.2 34.4 99.2 34.6 95.7 35.2 86.4 34.2 77 34.8 67.5L34.8 46.5C35.2 44.8 35.6 42.6 37.6 41.8L37.6 41.8Z" fill="#FFFFFF"/><path d="M98.8 105C100.4 105.2 100.8 107.4 102 108.7 102.4 109.3 101.6 110.1 101 110.1L91.3 110.1C87.5 110.3 84.5 110.5 80.4 110.5 77.8 110.1 74.6 112.1 73 109.3 72.6 108.3 73.6 107.7 74.2 107.2 76.4 106.2 78.4 107.9 80.8 107.2 86.5 106.8 93 107.7 98.2 105.2 98.4 105 98.6 105 98.8 105L98.8 105Z" fill="#FFFFFF"/><path d="M40.3 105.4C41.5 105.2 42.3 106 43.3 106.6 49.8 107.7 56.8 106.6 63.1 107.2 64.1 107.7 65.3 107.7 65.7 108.9 65.7 109.5 65.7 110.5 64.7 110.7 56.8 109.3 48.7 111.1 40.9 110.1 39.9 109.9 37.8 110.5 37.6 109.1 37.8 107.4 38.8 106.2 40.3 105.4L40.3 105.4Z" fill="#FFFFFF"/><path d="M213.9 41.4C215.1 41.6 215.3 43.2 215.9 44.2L216.5 46.1C216.9 56.2 216.7 66.5 216.3 77.2 215.9 82.2 216.7 86.9 216.5 92.1 215.7 96.3 216.9 101 216.1 105 215.7 105.4 214.9 105.4 214.3 104.8 212.7 103.2 211.5 101.2 212.1 98.8 212.1 85.6 212.1 73.1 212.3 60.2 212.9 54.3 211.9 49.1 212.3 43 212.5 42.4 212.3 41.6 213.1 41.4 213.5 41.4 213.7 41.4 213.9 41.4L213.9 41.4Z" fill="#FFFFFF"/><path d="M149.1 42.2C149.3 42.2 149.5 42.4 149.7 42.6 150.3 44.4 150.3 46.7 150.3 48.9 149.9 54.1 150.9 59.6 150.1 65 150.3 77.4 150.1 90.1 149.9 102.8 149.1 104 149.1 105.6 147.5 106 146.5 106.2 146.7 105 146.5 104.6 147.1 101 146 97.6 146.7 94.1 146.3 80.2 146.7 67.7 146.5 54.5 146.9 50.5 145.8 47.3 147.5 43.6 148.3 43 148.5 42.2 149.1 42.2L149.1 42.2 149.1 42.2Z" fill="#FFFFFF"/><path d="M151.9 105.2C155.9 105.6 160.2 106.8 164.2 106.4 168.3 106.6 173.3 105.8 176.9 107 177.7 107.9 178.1 108.9 177.3 109.7 174.3 110.5 171.5 108.7 168.3 109.1L151.1 109.3C150.5 109.1 149.7 108.7 149.7 108.1 149.5 106.8 150.9 106 151.9 105.2L151.9 105.2Z" fill="#FFFFFF"/><path d="M210.4 105.4C212.5 105.4 213.5 107 214.7 108.5 215.1 109.1 214.7 110.3 213.7 109.9L185.4 109.9C184.6 109.5 184.4 108.5 184.4 107.7 188 105.8 192.7 106.8 196.7 106.8 201.4 107 206.2 106.8 210.4 105.4L210.4 105.4Z" fill="#FFFFFF"/><path d="M165.2 151.1C166.4 151.7 167.4 153.3 168.1 154.5 168.9 168.8 168.5 183.6 168.5 197.5L168.1 215.9C167.9 216.5 167 216.1 166.8 215.7 165 213.7 163.2 210.8 164.2 207.8 164 198.9 163.8 188 164 179.1L164.2 173.5 164.2 164.2C163.8 160.2 164 155.7 164.2 151.7L165.2 151.1 165.2 151.1Z" fill="#FFFFFF"/><path d="M82.1 152.3C84.7 152.7 82.5 155.7 83.1 157.3 83.3 174.5 83.3 191.5 83.3 209.8 83.7 212.5 82.5 215.1 80.6 216.5 80.2 216.5 79.6 216.1 79.6 215.7L79.8 209.2C79.8 191 79.4 173.3 79.8 155.9 80.2 154.7 81.2 153.5 82.1 152.3L82.1 152.3Z" fill="#FFFFFF"/><path d="M85.7 214.7C87.5 215.1 88.7 216.1 90.5 216.7 98.6 217.3 107.1 217.1 115.2 217.1 116.8 217.1 118.8 216.9 120.2 218.1 120.6 218.5 120.2 219.3 119.8 219.7L118.8 220.3 92.8 220.1C89.7 220.3 86.5 219.1 83.7 219.7 83.3 219.7 82.3 219.9 82.3 219.1 82.7 217.1 83.9 215.7 85.7 214.7L85.7 214.7Z" fill="#FFFFFF"/><path d="M162.4 214.7C164 214.7 165 217.3 166 218.5 166.4 219.7 164.8 219.7 164 219.9 158.2 219.5 152.7 219.9 146.7 219.9 140.8 220.3 134.7 219.7 128.9 219.9 128.1 219.5 127.3 218.5 127.9 217.7 130.5 216.3 134.1 216.9 137.4 216.9 145.2 216.5 153.1 217.7 160.6 215.7 161.2 214.9 161.8 214.7 162.4 214.7L162.4 214.7Z" fill="#FFFFFF"/></svg>