<svg viewBox="0 0 510 489" version="1.1" xmlns="http://www.w3.org/2000/svg" xmlns:xlink="http://www.w3.org/1999/xlink">
    <g fill="none" fill-rule="evenodd">
        <g transform="translate(254.900000, 244.250000) scale(1, -1) translate(-254.900000, -244.250000) translate(0.500000, 0.FFFFFF)" fill="#FFFFFF">
            <path d="M135,456 C72.3,438.1 17.9,422.6 14.2,421.4 C3.6,418 -1.7,410.5 0.6,402.2 C1.9,397.5 4.9,393.8 9.3,391.6 C11.4,390.6 65.7,371.1 130,348.4 C244.4,308 247.2,307 254.5,307.1 C261.8,307.1 264.6,308 353.1,339.3 C403.2,357 444.8,371.5 445.4,371.5 C446.1,371.5 447.6,369.4 448.8,366.8 C450.8,362.4 451,360.1 451.3,337 L451.7,311.9 L448.4,308.5 C440.2,299.7 437.7,285.8 442.5,274.8 L444.7,269.5 L442.5,264.4 C438.2,254.2 440,242.6 449.1,224.3 C453,216.3 465.4,196.1 469.6,190.7 L471.4,188.4 L479.1,200.1 C492,219.7 500,236.4 502,248.3 C502.8,253.3 501,262.7 498.3,267.6 C496.5,270.9 496.4,271.4 497.8,273.6 C500.2,277.4 501.6,286.8 500.5,292.5 C499.4,298.3 497.4,302.5 493.4,307.6 L490.5,311.3 L490.5,336.4 C490.5,362.8 489.5,372.2 485.5,381.1 L483.7,385.2 L492,388.4 C501.4,392 504.8,394.3 507.2,398.8 C511,406.3 507.7,415.3 499.7,419.4 C497.7,420.4 442.6,436.4 377.4,454.9 C290.4,479.6 257.5,488.5 253.9,488.4 C250.7,488.4 210.3,477.3 135,456 L135,456 Z M264,424.4 C272.7,423.2 279.1,420.2 281.1,416.4 C282.4,413.8 282.4,413.2 281.1,410.6 C276.4,401.7 247.3,398.8 233.5,405.8 C215.1,415.2 236.6,428.4 264,424.4 L264,424.4 Z"></path>
            <path d="M96.5,286.3 C96.5,266.9 96.6,249.4 96.5,247.5 C96.5,244.2 96.1,243.8 91.3,241.5 C79,235.8 66.9,218.7 62.5,201.2 C56.8,178.3 59.9,160.3 72.9,142.1 C81.6,129.9 99.1,115.4 111.4,110.4 C115.8,108.5 116.3,107.9 117.8,103.1 C118.7,100.3 121.5,93.7 124,88.5 C143.4,48.8 184.2,16.2 231.4,2.8 C239.7,0.4 242.8,0 254.5,0 C266.2,0 269.3,0.4 277.6,2.8 C323.6,15.8 364.8,48.2 383.8,86 C386.2,91 389.3,97.8 390.5,101.3 L392.8,107.5 L400.9,111.4 C410.9,116.2 417,120.5 425.8,129.2 C437.7,141 446,155.8 448.5,169.5 C449.9,176.9 449.2,189.4 446.9,199.5 C444.8,208.6 437.5,223 431.5,229.7 C427.2,234.6 416.9,242.5 413.5,243.7 C412.7,243.9 412.4,255.8 412.5,282.8 C412.5,304.1 412.4,321.5 412.2,321.5 C411.9,321.5 377.8,309 336.4,293.8 C266.5,268.1 260.5,266.1 254.5,266.1 C248.5,266.1 242.6,268 172.6,293.8 C131.2,309 97.1,321.5 96.8,321.5 C96.6,321.5 96.5,305.6 96.5,286.3 L96.5,286.3 Z M196,240.1 L254,232.7 L314.7,240.3 C348.1,244.5 375.7,247.6 376.1,247.3 C376.4,246.9 377.3,241.8 378,235.8 C378.7,229.9 379.7,223.9 380.3,222.5 C382.6,216.8 388.3,213.1 398,211 C402.2,210.1 407.9,203.6 410.5,196.8 C413.3,189.5 414.3,176 412.4,171.3 C408.6,161.9 398.6,150.6 389.4,145.2 C386.9,143.7 381.7,141.7 377.9,140.8 C366.4,138 363.2,134.5 359.5,121 C356.9,111.3 351.2,99 345.5,90.4 C339.3,81.2 321.5,64 311.2,57.2 C289.4,42.8 263.8,33.4 250.8,34.9 C242.8,35.8 227.2,41.1 216.2,46.6 C188.6,60.4 167.2,80.7 156,103.8 C153.6,108.9 150.7,116.3 149.6,120.3 C148.5,124.3 146.6,129.5 145.3,131.8 C142.9,136.1 136.7,140.5 132.9,140.5 C128,140.5 116.1,147.8 108.5,155.4 C98.5,165.3 95.5,171.3 95.5,181.1 C95.5,192.9 100.2,204.8 106.5,209.2 C107.7,210 111.4,211.3 114.7,212.1 C126.1,214.8 129.1,219.1 131.1,235.4 C131.8,241.8 132.5,247.1 132.5,247.3 C132.6,248 142.8,246.8 196,240.1 L196,240.1 Z"></path>
            <path d="M178,211.2 C164.5,206.7 157.2,197 157.2,183.5 C157.2,167.4 169.3,155.2 185.3,155.2 C216.1,155.2 225.3,197.1 197.2,209.5 C191.1,212.2 183.2,212.9 178,211.2 L178,211.2 Z"></path>
            <path d="M316,211.2 C302.5,206.7 295.1,196.8 295.1,183.5 C295.1,152.6 337.2,144.1 349.8,172.4 C354.2,182.3 351.5,196.2 343.7,203.8 C336.6,210.7 324.4,214 316,211.2 L316,211.2 Z"></path>
        </g>
    </g>
</svg>