<svg viewBox="0 0 48 48" version="1.1" xmlns="http://www.w3.org/2000/svg" xmlns:xlink="http://www.w3.org/1999/xlink">
    <title>Shape</title>
    <g fill="none" fill-rule="evenodd">
        <path d="M0,24 C0,25.9 1.3,27.5 3,27.9 L3,44 C3,46.2 4.8,48 7,48 L41,48 C43.2,48 45,46.2 45,44 L45,27.9 C46.7,27.5 48,25.9 48,24 L48,20 C48,17.8 46.2,16 44,16 L36,16 L36,11 C36,10.4 35.6,10 35,10 C34.4,10 34,10.4 34,11 L34,16 L25,16 L25,9 C25,8.4 24.6,8 24,8 C23.4,8 23,8.4 23,9 L23,16 L14,16 L14,11 C14,10.4 13.6,10 13,10 C12.4,10 12,10.4 12,11 L12,16 L4,16 C1.8,16 0,17.8 0,20 L0,24 L0,24 Z M41,46 L7,46 C5.9,46 5,45.1 5,44 L5,36 L43,36 L43,44 C43,45.1 42.1,46 41,46 L41,46 L41,46 Z M8,24 C8,23.4 8.4,23 9,23 C9.6,23 10,23.4 10,24 C10,26.2 11.8,28 14,28 C16.2,28 18,26.2 18,24 C18,23.4 18.4,23 19,23 C19.6,23 20,23.4 20,24 C20,26.2 21.8,28 24,28 C26.2,28 28,26.2 28,24 C28,23.4 28.4,23 29,23 C29.6,23 30,23.4 30,24 C30,26.2 31.8,28 34,28 C36.2,28 38,26.2 38,24 C38,23.4 38.4,23 39,23 C39.6,23 40,23.4 40,24 C40,25.9 41.3,27.5 43,27.9 L43,34 L5,34 L5,27.9 C6.7,27.5 8,25.9 8,24 L8,24 L8,24 Z M44,18 C45.1,18 46,18.9 46,20 L46,24 C46,25.1 45.1,26 44,26 C42.9,26 42,25.1 42,24 C42,22.3 40.7,21 39,21 C37.3,21 36,22.3 36,24 C36,25.1 35.1,26 34,26 C32.9,26 32,25.1 32,24 C32,22.3 30.7,21 29,21 C27.3,21 26,22.3 26,24 C26,25.1 25.1,26 24,26 C22.9,26 22,25.1 22,24 C22,22.3 20.7,21 19,21 C17.3,21 16,22.3 16,24 C16,25.1 15.1,26 14,26 C12.9,26 12,25.1 12,24 C12,22.3 10.7,21 9,21 C7.3,21 6,22.3 6,24 C6,25.1 5.1,26 4,26 C2.9,26 2,25.1 2,24 L2,20 C2,18.9 2.9,18 4,18 L44,18 L44,18 Z M22,4 C22,5.1 22.9,6 24,6 C25.1,6 26,5.1 26,4 C26,1.8 25.1,0 24,0 C22.9,0 22,1.8 22,4 L22,4 L22,4 Z M11,6 C11,7.1 11.9,8 13,8 C14.1,8 15,7.1 15,6 C15,3.8 14.1,2 13,2 C11.9,2 11,3.8 11,6 L11,6 L11,6 Z M33,6 C33,7.1 33.9,8 35,8 C36.1,8 37,7.1 37,6 C37,3.8 36.1,2 35,2 C33.9,2 33,3.8 33,6 L33,6 Z" fill="#000000"></path>
    </g>
</svg>