
<!-- Generator: Adobe Illustrator 16.0.0, SVG Export Plug-In . SVG Version: 6.00 Build 0)  -->
<!DOCTYPE svg PUBLIC "-//W3C//DTD SVG 1.1//EN" "http://www.w3.org/Graphics/SVG/1.1/DTD/svg11.dtd">
<svg version="1.1" id="Layer_1" xmlns="http://www.w3.org/2000/svg" xmlns:xlink="http://www.w3.org/1999/xlink" x="0px" y="0px"
	 width="370.2px" height="370.2px" viewBox="120.9 210.9 370.2 370.2" enable-background="new 120.9 210.9 370.2 370.2"
	 xml:space="preserve">
<g>
	<circle fill="#65A6D1" cx="306" cy="396" r="183.6"/>
	<path fill="#FFFFFF" d="M368.832,497.592c-15.096-2.855-20.808-10.2-21.624-26.111c0-2.448-3.264-21.624-0.816-22.849
		c10.2-4.896,11.832-21.216,12.648-31.008c0.816-7.344,4.488-10.608,7.752-16.32c3.672-6.528,5.304-13.872,7.344-20.808
		c1.632-5.304,4.08-13.872,3.265-19.176c-0.816-4.896-4.488-9.792-4.488-15.096c0-6.936,2.448-13.872,3.264-20.808
		c1.225-10.608,0.816-21.216-1.224-31.824c-5.712-28.152-33.048-38.352-58.344-43.656c-23.665-5.712-51.816,6.936-67.729,23.664
		c-6.528,6.936-14.688,15.504-15.912,25.704c-1.224,8.976-1.224,19.992,0.408,28.968c0.816,4.896,1.224,9.384,1.632,14.28
		c0.408,3.672,3.264,7.344,2.04,11.424c-0.408,2.448-2.04,4.08-2.856,6.528c-4.896,9.792,0.408,23.256,4.896,32.232
		c2.04,4.081,4.488,8.568,7.344,12.24c3.672,4.488,3.672,7.752,4.08,13.057c0.408,10.2,3.264,26.928,13.464,31.824
		c2.448,1.224-1.224,19.176-1.224,21.216c-0.816,15.912,1.224,23.256-14.28,26.111c-11.016,2.04-22.032,4.896-33.048,8.977
		c-3.672,1.224-10.608,4.08-15.504,6.12C228.888,535.128,265.2,549,305.184,549c40.8,0,77.928-14.28,107.304-38.76
		c-3.672-1.632-8.568-3.672-10.608-4.488C391.272,502.488,380.256,499.632,368.832,497.592z"/>
	<circle fill="none" stroke="#65A6D1" stroke-width="3" stroke-miterlimit="10" cx="306" cy="396" r="183.6"/>
</g>
</svg>
