<!-- Generator: Adobe Illustrator 16.0.0, SVG Export Plug-In . SVG Version: 6.00 Build 0)  -->
<!DOCTYPE svg PUBLIC "-//W3C//DTD SVG 1.1//EN" "http://www.w3.org/Graphics/SVG/1.1/DTD/svg11.dtd">
<svg version="1.1" id="Layer_1" xmlns="http://www.w3.org/2000/svg" xmlns:xlink="http://www.w3.org/1999/xlink" x="0px" y="0px"
	 width="370.2px" height="370.2px" viewBox="120.9 210.9 370.2 370.2" enable-background="new 120.9 210.9 370.2 370.2"
	 xml:space="preserve">
<g>
	<path fill="#FFFFFF" d="M407.184,394.776c0-19.584-11.832-36.312-27.743-42.024C369.24,318.48,339.456,294,304.776,294
		c-34.68,0-64.056,24.888-74.256,59.16c-15.912,6.12-27.744,22.848-27.336,42.432c0,24.889,18.768,44.88,41.208,44.473
		l-0.408-82.008c8.16-28.152,32.232-48.96,60.792-48.96c28.152,0,52.632,19.992,61.2,47.736l0.408,76.704
		c-2.855,6.936-19.992,44.063-42.432,45.288c-1.632-5.305-6.528-8.977-11.832-8.977c-6.936,0-12.648,6.12-12.648,13.872
		s5.712,13.872,12.648,13.464c5.304,0,10.2-3.672,11.832-8.976c26.928-1.224,45.696-40.392,49.775-49.776
		C392.904,435.168,407.592,416.808,407.184,394.776z"/>
	<circle fill="none" stroke="#FFFFFF" stroke-width="3" stroke-miterlimit="10" cx="306" cy="396" r="183.6"/>
</g>
</svg>
