<?xml version="1.0" encoding="utf-8"?>
<!-- Generator: Adobe Illustrator 16.0.0, SVG Export Plug-In . SVG Version: 6.00 Build 0)  -->
<!DOCTYPE svg PUBLIC "-//W3C//DTD SVG 1.1//EN" "http://www.w3.org/Graphics/SVG/1.1/DTD/svg11.dtd">
<svg version="1.1" id="Layer_1" xmlns="http://www.w3.org/2000/svg" xmlns:xlink="http://www.w3.org/1999/xlink" x="0px" y="0px"
	 width="40.7px" height="40.7px" viewBox="0 0 40.7 40.7" style="enable-background:new 0 0 40.7 40.7;" xml:space="preserve">
<style type="text/css">
<![CDATA[
	.st0{clip-path:url(#SVGID_4_);fill:#010101;}
	.st1{opacity:0.4;}
	.st2{clip-path:url(#SVGID_4_);fill:none;stroke:#010101;stroke-width:2;stroke-miterlimit:10;}
	.st3{clip-path:url(#SVGID_2_);fill:#010101;}
	.st4{clip-path:url(#SVGID_2_);fill:none;stroke:#010101;stroke-width:2;stroke-miterlimit:10;}
]]>
</style>
<g class="st1">
	<g>
		<defs>
			<rect id="SVGID_1_" width="40.7" height="40.7"/>
		</defs>
		<clipPath id="SVGID_2_">
			<use xlink:href="#SVGID_1_"  style="overflow:visible;"/>
		</clipPath>
		<path class="st3" d="M20.3,2.6c9.8,0,17.8,8,17.8,17.8c0,9.8-8,17.8-17.8,17.8s-17.8-8-17.8-17.8C2.6,10.6,10.6,2.6,20.3,2.6
			 M20.3,1C9.7,1,1,9.7,1,20.3s8.7,19.3,19.3,19.3c10.7,0,19.3-8.7,19.3-19.3S31,1,20.3,1"/>
		<path class="st4" d="M20.3,2.6c9.8,0,17.8,8,17.8,17.8c0,9.8-8,17.8-17.8,17.8s-17.8-8-17.8-17.8C2.6,10.6,10.6,2.6,20.3,2.6
			 M20.3,1C9.7,1,1,9.7,1,20.3s8.7,19.3,19.3,19.3c10.7,0,19.3-8.7,19.3-19.3S31,1,20.3,1z"/>
	</g>
</g>
<g class="st1">
	<g>
		<defs>
			<rect id="SVGID_3_" x="16.7" y="7.3" width="12.7" height="21"/>
		</defs>
		<clipPath id="SVGID_4_">
			<use xlink:href="#SVGID_3_"  style="overflow:visible;"/>
		</clipPath>
		<path class="st0" d="M28,27.3c-0.2,0-1.1-0.1-1.2-0.2l-9-6.6V9.1c0-0.4,0.6-0.8,1-0.8s1,0.4,1,0.8v10.7l8.2,6.1
			c0.3,0.3,0.7,0.8,0.4,1.1C28.2,27.2,28.3,27.3,28,27.3"/>
		<path class="st2" d="M28,27.3c-0.2,0-1.1-0.1-1.2-0.2l-9-6.6V9.1c0-0.4,0.6-0.8,1-0.8s1,0.4,1,0.8v10.7l8.2,6.1
			c0.3,0.3,0.7,0.8,0.4,1.1C28.2,27.2,28.3,27.3,28,27.3z"/>
	</g>
</g>
</svg>
