<?xml version="1.0" encoding="utf-8"?>
<!-- Generator: Adobe Illustrator 16.0.0, SVG Export Plug-In . SVG Version: 6.00 Build 0)  -->
<!DOCTYPE svg PUBLIC "-//W3C//DTD SVG 1.1//EN" "http://www.w3.org/Graphics/SVG/1.1/DTD/svg11.dtd">
<svg version="1.1" id="Layer_1" xmlns="http://www.w3.org/2000/svg" xmlns:xlink="http://www.w3.org/1999/xlink" x="0px" y="0px"
	 width="49.1px" height="49.1px" viewBox="0 0 49.1 49.1" style="enable-background:new 0 0 49.1 49.1;" xml:space="preserve">
<style type="text/css">
<![CDATA[
	.st0{opacity:1;}
	.st1{clip-path:url(#SVGID_2_);fill:#66A6D1;}
]]>
</style>
<g class="st0">
	<g>
		<defs>
			<rect id="SVGID_1_" width="49.1" height="49.1"/>
		</defs>
		<clipPath id="SVGID_2_">
			<use xlink:href="#SVGID_1_"  style="overflow:visible;"/>
		</clipPath>
		<path class="st1" d="M24.5,2C36.9,2,47,12.1,47,24.5S36.9,47,24.5,47S2,36.9,2,24.5S12.1,2,24.5,2 M24.5,0C11,0,0,11,0,24.5
			s11,24.5,24.5,24.5c13.5,0,24.5-11,24.5-24.5S38.1,0,24.5,0"/>
		<path class="st1" d="M15.9,19.7c0-1.3,0.2-2.5,0.6-3.6c0.4-1.1,1-2,1.7-2.8c0.8-0.8,1.7-1.4,2.8-1.8s2.3-0.6,3.6-0.6
			c1.1,0,2.2,0.2,3.1,0.5c1,0.3,1.8,0.8,2.5,1.4c0.7,0.6,1.3,1.4,1.7,2.3c0.4,0.9,0.6,2,0.6,3.1c0,0.9-0.1,1.6-0.3,2.2
			c-0.2,0.6-0.4,1.2-0.7,1.6c-0.3,0.4-0.6,0.8-1,1.2c-0.4,0.4-0.8,0.7-1.2,1c-0.5,0.4-0.9,0.8-1.3,1.1c-0.4,0.4-0.7,0.8-1,1.2
			c-0.3,0.5-0.5,1-0.7,1.6c-0.2,0.6-0.2,1.3-0.2,2.2h-3.9c0-1.1,0.1-2,0.2-2.7c0.1-0.7,0.3-1.4,0.5-1.9c0.2-0.6,0.5-1,0.9-1.5
			s0.8-0.8,1.3-1.3c0.4-0.3,0.8-0.7,1.1-0.9c0.4-0.3,0.7-0.6,0.9-1c0.3-0.4,0.5-0.7,0.7-1.2c0.2-0.4,0.2-1,0.2-1.6
			c0-0.7-0.1-1.4-0.4-1.9c-0.3-0.5-0.6-0.9-0.9-1.3c-0.4-0.3-0.8-0.5-1.2-0.7s-0.8-0.2-1.1-0.2c-1.5,0-2.6,0.5-3.3,1.5
			c-0.7,1-1.1,2.3-1.1,4H15.9z M21.7,32.9h4.9v4.6h-4.9V32.9z"/>
	</g>
</g>
</svg>
