<?xml version="1.0" encoding="utf-8"?>
<!-- Generator: Adobe Illustrator 16.0.0, SVG Export Plug-In . SVG Version: 6.00 Build 0)  -->
<!DOCTYPE svg PUBLIC "-//W3C//DTD SVG 1.1//EN" "http://www.w3.org/Graphics/SVG/1.1/DTD/svg11.dtd">
<svg version="1.1" id="Layer_1" xmlns="http://www.w3.org/2000/svg" xmlns:xlink="http://www.w3.org/1999/xlink" x="0px" y="0px"
	 width="150px" height="150px" viewBox="0 0 150 150" style="enable-background:new 0 0 150 150;" xml:space="preserve">
<style type="text/css">
<![CDATA[
	.st0{fill:#81B667;}
	.st1{fill:#FFFFFF;}
]]>
</style>
<path class="st1" d="M75.8,150h-1.5C33.2,150,0,116.8,0,75.8v-1.5C0,33.2,33.2,0,74.2,0h1.5c41,0,74.2,33.2,74.2,74.2v1.5
	C150,116.8,116.8,150,75.8,150"/>
<path class="st0" d="M117.9,73.7c-0.1-0.8-0.5-1.5-1.3-2l-2.5-1.5l-2.4,1.9l3,1.8l-47.7,38.3c-0.1,0.1-0.3,0.2-0.6,0.2
	c-0.2,0-0.4,0-0.4-0.1L35.2,94.1l3.2-2.5L35.7,90l-2.7,2.1c-0.7,0.6-1.1,1.3-1,2.2c0.1,0.8,0.5,1.5,1.3,2l31.3,18.4
	c0.5,0.3,1.2,0.5,1.9,0.5c0.9,0,1.7-0.3,2.4-0.8l48-38.5C117.6,75.3,118,74.5,117.9,73.7"/>
<path class="st0" d="M85.3,91.5l-18.2,14.6c-0.1,0.1-0.3,0.2-0.6,0.2c-0.2,0-0.4,0-0.4-0.1L35.2,88.1l3.2-2.5L35.7,84l-2.7,2.1
	c-0.7,0.6-1.1,1.3-1,2.2c0.1,0.8,0.5,1.5,1.3,2l31.3,18.4c0.5,0.3,1.2,0.5,1.9,0.5c0.9,0,1.8-0.3,2.4-0.8l16.4-13.2V91.5z"/>
<path class="st0" d="M117.9,67.7c-0.1-0.8-0.5-1.5-1.3-2l-2.5-1.5l-2.4,1.9l3,1.8L99,80.6v3.6l17.9-14.4
	C117.6,69.3,118,68.5,117.9,67.7"/>
<path class="st0" d="M66.5,97.1c-0.7,0-1.3-0.2-1.9-0.5L33.4,78.2c-0.8-0.5-1.2-1.2-1.3-2c-0.1-0.8,0.3-1.6,1-2.2l48-38.5
	c1.1-0.9,3-1,4.2-0.3l31.3,18.4c0.8,0.5,1.2,1.2,1.3,2c0.1,0.8-0.3,1.6-1,2.2l-48,38.5C68.3,96.8,67.4,97.1,66.5,97.1 M35.2,76
	l30.9,18.2c0.1,0,0.2,0.1,0.4,0.1c0.3,0,0.5-0.1,0.6-0.2l47.7-38.3L83.9,37.7c-0.1,0-0.2-0.1-0.4-0.1c-0.3,0-0.5,0.1-0.6,0.2
	L35.2,76z"/>
<path class="st0" d="M73,55c3.6,0.5,7.4,1.8,10.8,3.8c3.4,2,5.8,4.4,7.2,6.8l4.3,2.5l12-9.6c-2.7-1.6-3.3-4.2-1.3-5.8l-16.8-9.8
	c-2,1.6-5.8,1.6-8.6,0l-12,9.6L73,55z"/>
<path class="st0" d="M77.9,76.9c-3.9-0.5-8.1-1.8-11.7-3.9c-3.7-2.2-6.2-4.8-7.5-7.4L55,63.5l-12.2,9.8c2.7,1.6,3.3,4.2,1.3,5.8
	l16.8,9.8c2-1.6,5.8-1.6,8.6,0l12.2-9.8L77.9,76.9z"/>
<path class="st0" d="M85.3,85.5l-18.2,14.6c-0.1,0.1-0.3,0.2-0.6,0.2c-0.2,0-0.4,0-0.4-0.1L35.2,82l3.2-2.5L35.7,78l-2.7,2.1
	c-0.7,0.6-1.1,1.3-1,2.2c0.1,0.8,0.5,1.5,1.3,2l31.3,18.4c0.5,0.3,1.2,0.5,1.9,0.5c0.9,0,1.8-0.3,2.4-0.8l16.4-13.2V85.5z"/>
<path class="st0" d="M117.9,61.6c-0.1-0.8-0.5-1.5-1.3-2l-2.5-1.5l-2.4,1.9l3,1.8L99,74.5v3.6l17.9-14.4
	C117.6,63.2,118,62.4,117.9,61.6"/>
<path class="st0" d="M98.9,68.6l-34.1-20L48.8,61.5l35.1,20.6v20.2l16.5-13.3V71L98.9,68.6z M65.1,52l31.4,18.5l-7.8,6.3l-3.5,2.8
	L53.8,61.1L65.1,52z M97.6,87.7l-10.9,8.7V82l7.3-5.9l3.5-2.8V87.7z"/>
</svg>
