<?xml version="1.0" encoding="utf-8"?>
<!-- Generator: Adobe Illustrator 16.0.0, SVG Export Plug-In . SVG Version: 6.00 Build 0)  -->
<!DOCTYPE svg PUBLIC "-//W3C//DTD SVG 1.1//EN" "http://www.w3.org/Graphics/SVG/1.1/DTD/svg11.dtd">
<svg version="1.1" id="Layer_1" xmlns="http://www.w3.org/2000/svg" xmlns:xlink="http://www.w3.org/1999/xlink" x="0px" y="0px"
	 width="78.9px" height="78.9px" viewBox="0 0 78.9 78.9" enable-background="new 0 0 78.9 78.9" xml:space="preserve">
<path fill="#81B667" d="M39.8,2c20.4,0,37,16.6,37,37v0.8c0,20.4-16.6,37-37,37H39c-20.4,0-37-16.6-37-37V39C2,18.6,18.6,2,39,2
	H39.8 M39.8,0H39C17.5,0,0,17.5,0,39v0.8c0,21.6,17.5,39,39,39h0.8c21.6,0,39-17.5,39-39V39C78.9,17.5,61.4,0,39.8,0"/>
<path fill="#81B667" d="M62,38.7c0-0.4-0.3-0.8-0.7-1L60,36.9l-1.2,1l1.6,0.9L35.3,59c-0.1,0-0.2,0.1-0.3,0.1c-0.1,0-0.2,0-0.2,0
	l-16.2-9.5l1.7-1.3l-1.4-0.8l-1.4,1.1c-0.4,0.3-0.6,0.7-0.5,1.1c0,0.4,0.3,0.8,0.7,1L34,60.3c0.3,0.2,0.6,0.3,1,0.3
	c0.5,0,0.9-0.2,1.2-0.4l25.3-20.3C61.8,39.6,62,39.2,62,38.7"/>
<path fill="#81B667" d="M44.9,48.1l-9.6,7.7c-0.1,0-0.2,0.1-0.3,0.1c-0.1,0-0.2,0-0.2,0l-16.2-9.5l1.7-1.3l-1.4-0.8l-1.4,1.1
	c-0.4,0.3-0.6,0.7-0.5,1.1c0,0.4,0.3,0.8,0.7,1L34,57.1c0.3,0.2,0.6,0.3,1,0.3c0.5,0,0.9-0.2,1.2-0.4l8.6-6.9V48.1z"/>
<path fill="#81B667" d="M62,35.6c0-0.4-0.3-0.8-0.7-1L60,33.8l-1.2,1l1.6,0.9l-8.3,6.7v1.9l9.4-7.6C61.8,36.4,62,36,62,35.6"/>
<path fill="#81B667" d="M35,51c-0.4,0-0.7-0.1-1-0.3l-16.5-9.7c-0.4-0.2-0.7-0.6-0.7-1c0-0.4,0.2-0.8,0.5-1.1l25.3-20.3
	c0.6-0.5,1.6-0.5,2.2-0.2l16.5,9.7c0.4,0.2,0.7,0.6,0.7,1c0,0.4-0.2,0.8-0.5,1.1L36.2,50.6C35.9,50.9,35.4,51,35,51 M18.5,40
	l16.2,9.5c0,0,0.1,0,0.2,0c0.1,0,0.3,0,0.3-0.1l25.1-20.1l-16.2-9.5c0,0-0.1,0-0.2,0c-0.1,0-0.3,0-0.3,0.1L18.5,40z"/>
<path fill="#81B667" d="M38.4,28.9c1.9,0.3,3.9,1,5.7,2c1.8,1,3.1,2.3,3.8,3.6l2.3,1.3l6.3-5c-1.4-0.8-1.7-2.2-0.7-3.1l-8.8-5.2
	c-1.1,0.8-3.1,0.8-4.5,0l-6.3,5L38.4,28.9z"/>
<path fill="#81B667" d="M41,40.4c-2.1-0.2-4.2-0.9-6.2-2.1c-1.9-1.1-3.3-2.5-3.9-3.9l-2-1.1l-6.4,5.2c1.4,0.8,1.7,2.2,0.7,3.1
	l8.8,5.2c1.1-0.8,3.1-0.8,4.5,0l6.4-5.2L41,40.4z"/>
<path fill="#81B667" d="M44.9,45l-9.6,7.7c-0.1,0-0.2,0.1-0.3,0.1c-0.1,0-0.2,0-0.2,0l-16.2-9.5l1.7-1.3L18.8,41l-1.4,1.1
	c-0.4,0.3-0.6,0.7-0.5,1.1c0,0.4,0.3,0.8,0.7,1L34,54c0.3,0.2,0.6,0.3,1,0.3c0.5,0,0.9-0.2,1.2-0.4l8.6-6.9V45z"/>
<path fill="#81B667" d="M62,32.4c0-0.4-0.3-0.8-0.7-1L60,30.6l-1.2,1l1.6,0.9l-8.3,6.7v1.9l9.4-7.6C61.8,33.2,62,32.8,62,32.4"/>
<path fill="#81B667" d="M52,36.1L34.1,25.5l-8.4,6.8l18.5,10.8v10.6l8.7-7v-9.5L52,36.1z M34.2,27.3l16.5,9.7l-4.1,3.3l-1.8,1.5
	l-16.5-9.7L34.2,27.3z M51.3,46.1l-5.7,4.6v-7.6l3.9-3.1l1.9-1.5V46.1z"/>
</svg>
