<?xml version="1.0" encoding="utf-8"?>
<!-- Generator: Adobe Illustrator 16.0.0, SVG Export Plug-In . SVG Version: 6.00 Build 0)  -->
<!DOCTYPE svg PUBLIC "-//W3C//DTD SVG 1.1//EN" "http://www.w3.org/Graphics/SVG/1.1/DTD/svg11.dtd">
<svg version="1.1" id="Layer_1" xmlns="http://www.w3.org/2000/svg" xmlns:xlink="http://www.w3.org/1999/xlink" x="0px" y="0px"
	 width="48.7px" height="48.7px" viewBox="0 0 48.7 48.7" style="enable-background:new 0 0 48.7 48.7;" xml:space="preserve">
<style type="text/css">
<![CDATA[
	.st0{opacity:0.4;}
	.st1{clip-path:url(#SVGID_2_);fill:#010101;}
]]>
</style>
<g class="st0">
	<g>
		<defs>
			<rect id="SVGID_1_" width="48.7" height="48.7"/>
		</defs>
		<clipPath id="SVGID_2_">
			<use xlink:href="#SVGID_1_"  style="overflow:visible;"/>
		</clipPath>
		<path class="st1" d="M41.6,7.1c-9.5-9.5-25-9.5-34.5,0c-9.5,9.5-9.5,25,0,34.5c9.5,9.5,25,9.5,34.5,0
			C51.1,32.1,51.1,16.7,41.6,7.1 M42.9,36.9l-6.8-6.8c1.7-3.4,1.7-7.4,0.2-10.9l6.9-6.9C48,19.8,47.9,29.5,42.9,36.9 M16.6,32.2
			c-4.3-4.3-4.3-11.3,0-15.6c4.3-4.3,11.3-4.3,15.6,0c4.3,4.3,4.3,11.3,0,15.6C27.9,36.5,20.9,36.5,16.6,32.2 M36.9,5.8l-6.8,6.8
			c-3.6-1.7-7.8-1.7-11.4,0l-6.8-6.8C19.4,0.8,29.3,0.8,36.9,5.8 M5.6,12.3l6.9,6.9c-1.5,3.5-1.4,7.5,0.2,10.9l-6.8,6.8
			C0.9,29.5,0.8,19.8,5.6,12.3 M12.3,43.2l6.9-6.9c3.3,1.4,7.1,1.4,10.4,0l6.9,6.9C29.1,47.9,19.6,47.9,12.3,43.2"/>
	</g>
</g>
</svg>
