<?xml version="1.0" encoding="utf-8"?>
<!-- Generator: Adobe Illustrator 16.0.0, SVG Export Plug-In . SVG Version: 6.00 Build 0)  -->
<!DOCTYPE svg PUBLIC "-//W3C//DTD SVG 1.1//EN" "http://www.w3.org/Graphics/SVG/1.1/DTD/svg11.dtd">
<svg version="1.1" id="Layer_1" xmlns="http://www.w3.org/2000/svg" xmlns:xlink="http://www.w3.org/1999/xlink" x="0px" y="0px"
	 width="150px" height="150px" viewBox="0 0 150 150" style="enable-background:new 0 0 150 150;" xml:space="preserve">
<style type="text/css">
<![CDATA[
	.st0{fill:#FFFFFF;}
	.st1{fill:#68A5D9;}
]]>
</style>
<path class="st1" d="M75.8,150h-1.5C33.2,150,0,116.8,0,75.8v-1.5C0,33.2,33.2,0,74.2,0h1.5c41,0,74.2,33.2,74.2,74.2v1.5
	C150,116.8,116.8,150,75.8,150"/>
<path class="st0" d="M48.4,56.6l56.3,5.2l-4.3,23.6H56.8h-0.6L48.4,56.6 M52.9,96.8l0.3,0.1l-2.8,2.8c0-0.1,0-0.3,0-0.5
	c0-1.1,0.7-2,1.8-2.3L52.9,96.8 M100,96.9c1.3,0,2.3,1,2.3,2.3c0,1.3-1,2.3-2.3,2.3c-1.1,0-2.1-0.8-2.3-1.9l-0.1-0.6l0.2-0.6
	C98.1,97.6,99,96.9,100,96.9 M54,101.2c-0.4,0.2-0.8,0.4-1.3,0.4c-0.5,0-0.9-0.1-1.3-0.4H54 M44.4,44.4h-9.2v4H42l11,40.8l-1.9,4
	c-2.7,0.7-4.8,3.2-4.8,6.1c0,3.5,2.8,6.3,6.3,6.3c3.1,0,5.6-2.2,6.2-5.1h34.9h0c0.6,2.9,3.1,5.1,6.2,5.1c3.5,0,6.3-2.8,6.3-6.3
	c0-3.5-2.8-6.3-6.3-6.3c-2.8,0-5.1,1.8-6,4.3h0H58.7l0,0c-0.6-1.7-1.9-3.1-3.6-3.8h0l1.7-4h46.9l5.7-31.2l-62.7-5.8L44.4,44.4z
	 M109.3,58.2L109.3,58.2L109.3,58.2L109.3,58.2z"/>
<path class="st0" d="M103.3,99.4c0,1.7-1.4,3.1-3.1,3.1s-3.1-1.4-3.1-3.1c0-1.7,1.4-3.1,3.1-3.1S103.3,97.7,103.3,99.4"/>
<path class="st0" d="M55.3,99.4c0,1.7-1.4,3.1-3.1,3.1c-1.7,0-3.1-1.4-3.1-3.1c0-1.7,1.4-3.1,3.1-3.1C53.9,96.3,55.3,97.7,55.3,99.4
	"/>
</svg>
