<svg width="250px" height="250px" viewBox="0 0 250 250" version="1.1" xmlns="http://www.w3.org/2000/svg" xmlns:xlink="http://www.w3.org/1999/xlink">
    <circle class="background" cx="125" cy="125" r="125" fill="none"></circle>
    <path d="M173.478,100.454 L167.645,100.454 C166.888,93.644 161.096,88.33 154.087,88.33 L93.489,88.33 C86.481,88.33 80.689,93.642 79.93,100.454 L76.522,100.454 C75.681,100.454 75,101.135 75,101.976 L75,160.148 C75,160.988 75.681,161.67 76.522,161.67 L173.478,161.67 C174.319,161.67 175,160.988 175,160.148 L175,101.976 C175,101.135 174.319,100.454 173.478,100.454 L173.478,100.454 Z M78.043,103.498 L81.368,103.498 C82.208,103.498 82.89,102.813 82.89,101.973 C82.89,96.129 87.645,91.374 93.489,91.374 C99.333,91.374 104.088,96.129 104.088,101.976 C104.088,102.816 104.77,103.497 105.61,103.497 L111.358,103.497 L111.358,117.42 L78.043,117.42 L78.043,103.498 L78.043,103.498 Z M78.043,120.464 L111.359,120.464 L111.359,158.627 L78.043,158.627 L78.043,120.464 Z M107.048,100.454 C106.641,96.798 104.783,93.575 102.066,91.373 L154.087,91.374 C159.414,91.374 163.823,95.327 164.564,100.454 L107.048,100.454 L107.048,100.454 Z M171.957,158.626 L114.402,158.626 L114.402,120.464 L134.078,120.464 L134.078,135.81 C134.078,136.651 134.759,137.332 135.6,137.332 L153.182,137.332 C154.023,137.332 154.704,136.651 154.704,135.81 L154.704,120.464 L171.957,120.464 L171.957,158.626 L171.957,158.626 Z M137.121,120.464 L151.661,120.464 L151.661,134.289 L137.121,134.289 L137.121,120.464 Z M171.957,117.42 L153.21,117.42 C153.2,117.42 153.192,117.419 153.182,117.419 L135.6,117.419 C135.59,117.419 135.581,117.42 135.572,117.42 L114.402,117.42 L114.402,103.497 L171.957,103.497 L171.957,117.42 L171.957,117.42 Z M147.349862,125.326685 C147.349862,126.40369 146.772859,127.343195 145.912855,127.860698 L145.912855,130.32121 C145.912855,131.161714 145.231851,131.843218 144.391347,131.843218 C143.550343,131.843218 142.869339,131.161714 142.869339,130.32121 L142.869339,127.860698 C142.008835,127.343195 141.432332,126.40369 141.432332,125.326685 C141.432332,123.692677 142.756339,122.36767 144.391347,122.36767 C146.025355,122.36767 147.349862,123.692677 147.349862,125.326685 L147.349862,125.326685 Z" class="icon" fill="#FFFFFF"></path>
</svg>