<svg width="250px" height="250px" viewBox="0 0 250 250" version="1.1" xmlns="http://www.w3.org/2000/svg" xmlns:xlink="http://www.w3.org/1999/xlink">
    <circle class="background" cx="125" cy="125" r="125" fill="#000000"></circle>
    <path d="M115.25,85 C115.25,79.6388712 119.638871,75.25 125,75.25 C130.361129,75.25 134.75,79.6388712 134.75,85 C134.75,89.110337 132.144916,92.7616285 128.331133,94.1600822 L128.026042,94.2719542 L128.212393,94.5381667 L153.210793,130.249767 L153.363644,130.468122 L153.571774,130.301617 L169.138174,117.848417 L169.459643,117.59124 L169.083196,117.424597 C165.574573,115.871423 163.25,112.385829 163.25,108.504 C163.25,103.142871 167.638871,98.754 173,98.754 C178.361129,98.754 182.75,103.142871 182.75,108.504 C182.75,113.137867 179.44502,117.134646 174.949767,118.056699 L174.75,118.097674 L174.75,118.3016 L174.75,163 C174.75,163.966329 173.966329,164.75 173,164.75 L77,164.75 C76.0336712,164.75 75.25,163.966329 75.25,163 L75.25,118.3016 L75.25,118.097674 L75.0502334,118.056699 C70.5549801,117.134646 67.25,113.137867 67.25,108.504 C67.25,103.142871 71.6388712,98.754 77,98.754 C82.3611288,98.754 86.75,103.142871 86.75,108.504 C86.75,112.385882 84.4253741,115.871446 80.9168254,117.424187 L80.5403224,117.590812 L80.8618256,117.848017 L96.4282256,130.301217 L96.6363565,130.467722 L96.7892072,130.249367 L121.787607,94.5377667 L121.973976,94.2715288 L121.668846,94.1596743 C117.855138,92.7616467 115.25,89.1103907 115.25,85 L115.25,85 Z M151.566408,134.003434 L125.204808,96.3442338 L125.000008,96.0516651 L124.795198,96.3442261 C124.588676,96.6392322 124.588676,96.6392322 123.659319,97.9667606 C122.420174,99.7367986 122.420174,99.7367986 120.664703,102.244353 C117.566808,106.669448 114.468862,111.094543 111.577378,115.224631 C111.576785,115.225478 111.576785,115.225478 111.576192,115.226325 C104.115056,125.883534 98.3723353,134.085242 98.3663236,134.092802 C97.7632843,134.847299 96.6618281,134.970056 95.9069406,134.366356 L79.1561749,120.965584 L78.75,120.64064 L78.75,121.1608 L78.75,161 L78.75,161.25 L79,161.25 L171,161.25 L171.25,161.25 L171.25,161 L171.25,121.1608 L171.25,120.640682 L170.843838,120.965574 C170.317322,121.386736 170.317322,121.386736 168.211189,123.071388 C166.236669,124.650749 164.262081,126.230111 162.419039,127.704181 C162.418231,127.704827 162.418231,127.704827 162.417423,127.705473 C157.683517,131.491663 154.011363,134.427913 154.003677,134.433303 C153.212131,134.987594 152.120808,134.795135 151.566382,134.003398 L151.566408,134.003434 Z M77,102.254 C73.5245929,102.254 70.75,105.028465 70.75,108.504 C70.75,111.979271 73.5247288,114.754 77,114.754 C80.4752712,114.754 83.25,111.979271 83.25,108.504 C83.25,105.028729 80.4752712,102.254 77,102.254 L77,102.254 Z M125,78.75 C121.524729,78.75 118.75,81.5247288 118.75,85 C118.75,88.4752712 121.524729,91.25 125,91.25 C128.475271,91.25 131.25,88.4752712 131.25,85 C131.25,81.5247288 128.475271,78.75 125,78.75 L125,78.75 Z M125,130.9938 C121.524729,130.9938 118.75,133.768529 118.75,137.2438 C118.75,140.719071 121.524729,143.4938 125,143.4938 C128.475271,143.4938 131.25,140.719071 131.25,137.2438 C131.25,133.768529 128.475271,130.9938 125,130.9938 L125,130.9938 Z M125,127.8719 C130.21363,127.8719 134.3719,132.03017 134.3719,137.2438 C134.3719,142.45743 130.21363,146.6157 125,146.6157 C119.78637,146.6157 115.6281,142.45743 115.6281,137.2438 C115.6281,132.03017 119.78637,127.8719 125,127.8719 L125,127.8719 Z M173,102.254 C169.524329,102.254 166.75,105.028329 166.75,108.504 C166.75,111.979271 169.524729,114.754 173,114.754 C176.475271,114.754 179.25,111.979271 179.25,108.504 C179.25,105.028593 176.475535,102.254 173,102.254 L173,102.254 Z" class="icon" fill="#FFFFFF"></path>
</svg>