<svg viewBox="0 0 418 366" version="1.1" xmlns="http://www.w3.org/2000/svg" xmlns:xlink="http://www.w3.org/1999/xlink"><title>tutoring</title><g fill="none" fill-rule="evenodd"><g id="tutoring" fill="#FFFFFF"><g><path d="M237.2,63.5 C234.3,63.5 231.9,61.1 231.4,58.2 C231.4,58.2 230.9,46.7 228.5,35.6 C225.6,21.7 218.4,13 218.4,13 C216.5,10.6 217,7.2 219.4,5.3 C221.8,3.4 225.2,3.9 227.1,6.3 C227.6,6.8 235.7,16.9 239.6,33.7 C242,45.7 242.5,57.7 242.5,58.2 C243,61.1 240.6,63.5 237.2,63.5 L237.2,63.5 L237.2,63.5 Z"></path><path d="M290,251.7 L283.3,243.1 C286.2,241.2 288.6,238.8 291,236.4 C308.3,217.7 337.6,176.4 334.7,139 C331.3,92.9 304,78.5 281.9,75.2 C261.7,71.8 253.6,76.2 246.9,79.5 C244,80.9 240.7,82.9 237.3,83.3 L236.3,83.3 L235.3,83.3 C231.5,82.8 228.6,80.9 225.7,79.5 C219,76.1 211.3,71.8 190.7,75.2 C168.1,79 140.8,93 137.9,139 C136,167.8 153.3,198 163.3,213.4 L154.2,219.2 C143.2,202.9 124.4,170.2 126.8,137.6 C130.6,81.4 167.6,67 189.2,63.2 C213.2,59.4 223.3,64.6 231,68.5 C232.9,69.5 234.8,70.4 236.3,70.9 C237.7,70.4 239.7,69.5 241.6,68.5 C249.3,64.7 259.4,58.9 283.4,63.2 C305,66.6 342,81.4 345.8,137.6 C347.2,155.8 342,176 330.9,197.6 C322.7,213.4 311.2,230.2 298.7,243.2 C296.3,246.4 293.4,249.3 290,251.7 L290,251.7 Z"></path><path d="M163.3,127.8 L152.3,124.9 C153.3,122 154.2,118.7 155.2,116.3 L165.3,120.6 C164.8,122.6 163.8,125 163.3,127.8 L163.3,127.8 Z M169.1,113.9 L160,107.7 C161.9,104.8 163.8,102.4 166.2,100 L173.9,107.7 C172,109.6 170.5,111.5 169.1,113.9 L169.1,113.9 Z M179.2,103.4 L173.4,94.3 C175.8,92.9 178.7,90.9 181.6,90 L185.9,100.1 C183.5,101 181.6,102.4 179.2,103.4 L179.2,103.4 Z M193.1,97.6 L190.2,87 C193.1,86 196,85.6 198.8,85.1 L200.7,96.1 C198.4,96.2 195.5,97.1 193.1,97.6 L193.1,97.6 Z"></path><g transform="translate(0.000000, 182.000000)"><path d="M162.8,127.8 L162.3,116.8 C174.3,116.3 195.9,107.2 203.1,103.8 L204.1,103.3 L290.5,103.3 C298.7,103.3 304.9,96.1 304.9,87.5 C304.9,78.9 298.2,71.7 290.5,71.7 L200.7,71.7 L199.3,68.8 C198.8,67.8 181.5,40 135,34.2 C82.2,27.5 48.1,50 48.1,50.5 L48.1,50.5 L7.3,77.4 L0.6,68.3 L41.4,41.4 C43.8,40 79.3,16 136,23.2 C180.2,29 200.8,52.5 207,60.2 L290.5,60.2 C304.4,60.2 315.9,72.2 315.9,87.1 C315.9,102 304.4,114 290.5,114 L207,114 C201.2,116.7 177.7,127.3 162.8,127.8 L162.8,127.8 Z"></path><path d="M49.6,183.9 L43.4,174.8 L82.8,148.4 C84.7,147 94.3,140.7 108.7,143.6 C117.8,145.5 185,157 186,157 C186.5,157 220.6,162.3 230.6,162.3 C235.9,162.3 255.1,156.5 321.3,104.7 C357.3,76.4 389.5,48.1 391.9,46.1 C399.1,38.9 405.8,30.3 406.8,26.9 C403.4,23.5 394.3,17.8 378.5,27.4 C359.3,38.9 303.1,72 302.7,72.5 L296.9,62.9 C297.4,62.4 353.5,29.8 372.7,18.3 C398.6,2.5 413.5,17.8 415.9,21.2 C421.2,27.4 415.4,36.1 409.7,43.3 C404.9,49.5 399.6,54.3 399.6,54.8 L399.1,55.3 C399.1,54.8 365.5,84.1 328.5,113.4 C252.2,173.4 235.9,173.4 231.1,173.4 C220.1,173.4 186,168.1 184.5,168.1 C181.6,167.6 116.3,156.6 106.7,154.7 C96.1,152.3 89.9,157.1 89.4,157.6 L88.9,158.1 L49.6,183.9 L49.6,183.9 Z"></path><path d="M311.6,45.7 L305.8,36.1 C326.4,24.1 341.3,15 349,10.7 C374.9,-5.1 389.8,10.2 392.2,13.6 L383.6,20.8 C381.2,17.9 372.1,9.8 354.3,20.3 C344.8,26 323.6,38.5 311.6,45.7 L311.6,45.7 Z"></path><path d="M352,16.9 C350.1,15 343.8,8.7 331.8,12.1 L328.4,1.5 C342.8,-2.8 354.3,2.9 360.1,9.7 L352,16.9 L352,16.9 Z"></path></g><path d="M255,53 C252.1,53 249.2,53 247.8,50.6 C246.8,49.6 246.8,48.2 246.8,46.8 L246.8,46.3 C246.8,31.4 250.6,19.4 258.3,11.7 C268.9,1.1 285.2,0.2 291.4,0.2 L294.3,0.2 C297.2,0.2 299.1,2.6 299.6,5.5 C299.6,6.5 301,28.1 288.1,41.5 C276.6,52 260.3,53 255,53 L255,53 Z M247.3,45.3 C247.3,45.8 247.3,46.3 246.8,46.3 C246.8,46.2 246.8,45.8 247.3,45.3 L247.3,45.3 Z M288.1,11.2 C282.3,11.7 272.3,13.1 266,19.4 C261.2,24.2 258.3,31.9 257.8,41.5 C263.1,41 273.2,39.6 279.4,32.9 C286.2,27 287.6,17.4 288.1,11.2 L288.1,11.2 Z"></path></g></g></g></svg>